<?xml version="1.0" encoding="utf-8"?>
<!-- Generator: Adobe Illustrator 27.5.0, SVG Export Plug-In . SVG Version: 6.00 Build 0)  -->
<svg version="1.1" id="Layer_1" xmlns:xodm="http://www.corel.com/coreldraw/odm/2003"
	 xmlns="http://www.w3.org/2000/svg" xmlns:xlink="http://www.w3.org/1999/xlink" x="0px" y="0px" viewBox="0 0 56.4 70.8"
	 style="enable-background:new 0 0 56.4 70.8;" xml:space="preserve">
<style type="text/css">
	.st0{fill:#D6C59C;}
</style>
<g>
	<path class="st0" d="M3.6,19c0,0.9,0.6,1.3,1.5,1.2c0.3-0.1,0.5-0.2,0.8-0.3c0.7-0.4,1.5-0.5,2.2-0.8c0.3-0.1,0.5,0.1,0.6,0.3
		c0.1,0.2,0.2,0.4,0.1,0.6c-0.1,0.1-0.1,0.3-0.3,0.4c-0.6,0.7-0.7,1.5-0.9,2.4c-0.1,0.7,0.2,1,0.9,1.1c0.4,0,0.7,0,1.1-0.2
		c0.6-0.3,1.3-0.5,1.8-1c0.2-0.1,0.3-0.3,0.5-0.4c0.4-0.2,1.1-0.1,1.3,0.6c0.1,0.4,0.2,0.7,0.3,1.1c0.3,0.7,0.7,0.8,1.4,0.6
		c1.3-0.4,2-1.4,2.5-2.5c0.2-0.3,0.2-0.7,0.1-1.1c-0.1-0.3-0.3-0.4-0.5-0.4c-0.2,0-0.4,0.2-0.4,0.4c-0.1,0.7-0.3,1.4-0.7,2
		c-0.5,0.8-1.3,0.7-1.8-0.1c-0.2-0.4-0.3-0.8-0.5-1.1c-0.3-0.6-0.7-0.8-1.3-0.5c-0.2,0.1-0.4,0.2-0.6,0.4c-0.4,0.3-0.9,0.6-1.3,0.9
		c-0.3,0.2-0.6,0.2-0.9,0c-0.6-0.4-0.7-0.9-0.4-1.5c0.1-0.2,0.3-0.5,0.5-0.7c0.2-0.4,0.4-0.8,0.5-1.3c0.1-0.5-0.3-1.1-0.9-1.1
		c-0.2,0-0.3,0-0.5,0.1c-0.4,0.1-0.8,0.3-1.3,0.5c-0.3,0.1-0.7,0.3-1,0.4c-0.4,0.1-0.9-0.1-1.1-0.5c-0.2-0.3,0-0.6,0.2-0.9
		C5.7,17,6,16.8,6.4,16.6c0.6-0.3,1.1-0.7,1.7-1.1c0.4-0.2,0.7-0.5,1-0.9C9.3,14,9,13.4,8.4,13.3c-0.2,0-0.5,0-0.7,0
		c-0.5,0-1,0-1.5,0.1c-0.4,0-0.8-0.1-1-0.4c-0.2-0.5,0.2-0.8,0.5-1.1c0.5-0.4,1-0.8,1.7-1c1.1-0.3,2-0.9,2.9-1.5
		c0.7-0.4,0.7-0.8,0.4-1.5c-0.2-0.4-0.5-0.7-0.7-1C9.7,6.6,9.5,6.3,9.3,6.1c-0.2-0.3-0.2-0.6,0-0.9c0.6-0.7,1.4-1.2,2.4-1.1
		C13,4.1,14,4.8,14.3,6.2c0.1,0.2,0.1,0.4,0.2,0.6c0.1,0.1,0.2,0.3,0.3,0.3c0.2,0.1,0.5,0.1,0.7-0.1s0.3-0.4,0.2-0.7
		c-0.3-0.8-0.1-1.5,0.3-2.3c0.1-0.2,0.2-0.4,0.3-0.5c0.4-1.1,1.2-1.8,2.2-2.3c0.4-0.2,0.9-0.6,1.4-0.2c0.4,0.3,0.1,0.9,0.1,1.3
		c-0.1,0.6-0.3,1.2-0.4,1.8c-0.1,0.3-0.1,0.6,0,1c0.2,0.4,0.6,0.7,1,0.4c0.5-0.3,1-0.7,1.5-1c0.4-0.3,0.8-0.5,1.2-0.6
		c0.5-0.1,0.9,0.2,0.7,0.6c-0.1,0.5-0.2,1.1-0.6,1.6c-0.3,0.5-0.1,0.8,0.5,1c0.6,0.2,1.2,0.1,1.8-0.1c0.4-0.2,0.7-0.4,1.1-0.5
		c0.2-0.1,0.5-0.1,0.7-0.1c0.4,0,0.7,0.4,0.6,0.8c-0.1,0.2-0.2,0.5-0.3,0.7c-0.3,0.6-0.7,1.1-1,1.7c-0.2,0.3-0.4,0.6-0.2,0.9
		c0.2,0.3,0.6,0.2,0.9,0.2c0.2,0,0.4,0,0.7-0.1c0.5,0.1,1.2-0.1,1.7,0.2c0.4,0.1,0.5,0.6,0.1,0.8c-0.6,0.3-1.1,0.7-1.7,0.9
		c-0.5,0.2-1.1,0.4-1.6,0.7c-0.9,0.5-1,1.4-0.4,2.2c0.2,0.3,0.5,0.7,0.7,1c0.1,0.2,0.1,0.4,0.2,0.6c0.1,0.4-0.3,0.7-0.7,0.6
		c-0.2-0.1-0.5-0.2-0.7-0.3c-0.5-0.2-0.9,0.1-1.2,0.4c-0.3,0.3-0.4,0.7-0.2,1.1s0.4,0.8,0.5,1.3c0.1,0.3,0.3,0.6,0,0.9
		c-0.3,0.2-0.6,0.2-0.9,0.1c-0.2-0.1-0.4-0.2-0.5-0.3c-0.5-0.4-0.9-0.7-1.1-1.3c-0.2-0.5-0.5-0.9-0.8-1.2c-0.2-0.2-0.3-0.4-0.5-0.6
		c-0.1-0.1-0.1-0.3,0-0.5c0.1-0.2,0.4-0.2,0.5-0.1c0.3,0.2,0.5,0.4,0.8,0.6c0.2,0.1,0.4,0,0.5-0.2c0.1-0.1,0.2-0.4,0-0.4
		c-0.6-0.3-1.1-0.8-1.7-1.1c-0.4-0.2-1,0-1.3,0.3c-0.3,0.3-0.3,0.9-0.1,1.3c0.1,0.2,0.3,0.4,0.4,0.6c0.5,0.6,0.9,1.2,1.3,1.9
		c0.4,0.9,1.2,1.5,2.2,1.8c0.4,0.1,0.9,0.1,1.3,0c0.6-0.2,0.8-0.7,0.7-1.3c0-0.2-0.1-0.5-0.2-0.7c-0.1-0.2-0.2-0.4-0.2-0.6
		c-0.2-0.6,0-0.9,0.6-0.8c0.2,0,0.5,0.1,0.7,0.1c0.6,0.1,1-0.2,1.3-0.7c0.2-0.3,0.3-0.7,0.1-1.1c-0.2-0.5-0.5-1-0.7-1.4
		c-0.4-0.9-0.2-1.5,0.7-2c0.3-0.1,0.5-0.2,0.8-0.3c0.7-0.3,1.3-0.7,1.9-1.2c0.6-0.5,0.5-1.1-0.1-1.6c-0.2-0.1-0.3-0.2-0.5-0.3
		c-0.4-0.2-0.9-0.3-1.4-0.3c-0.6,0-0.9-0.5-0.6-1.1c0.2-0.4,0.5-0.8,0.7-1.2c0.3-0.7,0.1-1.2-0.5-1.6c-0.6-0.4-1.2-0.5-1.9-0.1
		c-0.4,0.2-0.8,0.4-1.2,0.6c-0.3,0.2-0.7,0-0.8-0.3c-0.1-0.2-0.1-0.4,0-0.6c0.1-0.2,0.2-0.4,0.2-0.6c0.2-0.8-0.2-1.5-1.1-1.6
		c-0.6-0.1-1.1,0-1.5,0.4c-0.3,0.2-0.5,0.4-0.8,0.6c-0.2,0.1-0.4,0.2-0.6,0c-0.2-0.1-0.2-0.4-0.1-0.6c0.1-0.4,0.2-0.8,0.3-1.2
		c0.1-0.3,0.2-0.6,0.2-1c0-1-0.8-1.7-1.8-1.3c-1.9,0.6-3.5,1.7-4.1,3.8c-0.1,0.2-0.1,0.3-0.2,0.5c-0.1,0.2-0.5,0.3-0.6,0.2
		c-0.2-0.2-0.5-0.3-0.7-0.5c-1.2-1.2-3.7-1.1-5,0.3C8.1,5.2,8,6,8.9,6.9c0.3,0.3,0.6,0.7,0.9,1C10,8.3,10,8.6,9.6,8.9
		C9.3,9,9.1,9.1,8.8,9.2c-1,0.4-2.1,0.8-3.1,1.2c-0.8,0.3-1.4,0.9-1.8,1.6c-0.2,0.4-0.2,0.9,0.1,1.1C4.6,13.6,5.2,14,6,14
		c0.3,0,0.7,0,1,0.1c0.4,0.1,0.6,0.6,0.3,0.9c-0.2,0.2-0.5,0.4-0.8,0.6l0,0l0,0c-0.7,0.3-1.3,0.9-1.9,1.4C4,17.4,3.5,18.1,3.6,19z"
		/>
	<path class="st0" d="M30.7,14.2L30.7,14.2c-0.3,0.4-0.4,0.8,0,1.2c0.3,0.4,0.8,0.8,1.1,1.1c0.2,0.2,0.3,0.5,0.1,0.8
		c-0.1,0.3-0.3,0.5-0.7,0.5c-0.2,0-0.4,0-0.6,0c-0.4,0-0.7,0.1-1.1,0.2c-0.6,0.2-0.9,0.7-0.9,1.3c0,0.6,0.2,1.1,0.8,1.5
		c0.3,0.2,0.7,0.3,1,0.5c0.8,0.5,1.3,0.7,0.5,1.7c-0.1,0.1-0.1,0.2-0.2,0.3c-0.1,0.1-0.1,0.3,0,0.5c0.5,1.2,1.7,1.8,3,1.5
		c0.2,0,0.3-0.2,0.3-0.4s-0.1-0.3-0.3-0.3c-0.3,0-0.7,0-1-0.1C32,24.4,31.7,23.8,32,23c0.1-0.1,0.1-0.2,0.2-0.3
		c0.2-0.5,0.2-0.9-0.2-1.3c-0.4-0.4-0.8-0.7-1.3-1c-0.3-0.1-0.5-0.2-0.8-0.4c-0.3-0.2-0.4-0.4-0.3-0.7c0-0.3,0.2-0.4,0.5-0.5
		c0.3-0.1,0.6-0.1,0.8-0.1c0.6,0,1.2,0,1.9,0c0.4,0,0.8-0.1,1-0.6c0.2-0.4,0-0.8-0.2-1.1c-0.3-0.4-0.7-0.7-1.1-1
		c-0.2-0.2-0.4-0.4-0.6-0.6c-0.1-0.1-0.1-0.3,0-0.5c0.1-0.2,0.3-0.3,0.5-0.3c0.2,0.1,0.5,0.1,0.7,0.3c0.7,0.4,1.4,0.5,2.1,0.8
		c0.4,0.1,0.8,0.2,1.2,0.1c0.5-0.1,0.7-0.4,0.7-0.8c-0.1-0.6-0.3-1.1-0.6-1.6c-0.2-0.3-0.4-0.7-0.6-1.1c-0.2-0.5,0.1-0.8,0.5-0.7
		c1.5,0.3,2.7,1.1,3.6,2.4c0.1,0.2,0.3,0.5,0.4,0.8c0.2,0.3,0.6,0.4,0.8,0.1c0.4-0.5,0.9-1,1.1-1.6c0.2-0.5,0.5-0.9,0.8-1.2
		c0.2-0.2,0.5-0.3,0.8-0.3c0.8,0,1.4,0.4,2,0.9c0.4,0.4,0.6,1.1,0.1,1.5c-0.1,0.1-0.2,0.2-0.2,0.3c-0.5,1-0.5,2,0.8,2.5
		c0.6,0.2,1.3,0.4,2,0.3c0.3,0,0.6,0,0.9,0.1c0.9,0.1,1.6,0.6,2.2,1.2c0.3,0.3,0.2,0.6-0.1,0.8c-0.3,0.1-0.5,0.2-0.8,0.3
		c-0.6,0.1-1,0.4-1.1,1c-0.1,0.6,0.4,0.8,0.9,1.1c0.5,0.3,1.1,0.6,1.6,0.9c0.8,0.4,1.4,1,1.9,1.7c0.4,0.5,0.4,0.8,0.1,1.1
		c-0.3,0.3-0.7,0.2-1,0c-0.5-0.3-1-0.4-1.5-0.4c-0.6,0-0.9,0.4-0.7,1c0.1,0.2,0.2,0.4,0.3,0.5c0.4,0.6,0.9,1.2,1.3,1.8
		c0.3,0.3,0.5,0.7,0.6,1.1c0.1,0.3,0,0.7-0.3,0.9c-0.3,0.2-0.6,0.3-0.9,0.1c-0.1,0-0.2-0.1-0.3-0.2c-0.6-0.5-1.4-0.6-2-1
		c-0.3-0.2-0.7-0.2-1.1-0.1c-0.5,0.1-0.9,0.7-0.7,1.3c0.2,0.4,0.3,0.8,0.6,1.2c0.5,0.7,0.4,1.8-0.2,2.5c-0.2,0.2-0.4,0.3-0.7,0.2
		c-1.2-0.4-1.8-1.3-2.4-2.3C45,31.9,45,31.7,45,31.5c0-0.1,0-0.2,0-0.4c-0.1-0.4-0.4-0.7-0.7-0.7c-0.4-0.1-0.8,0.1-1,0.4
		c-0.3,0.5-0.6,1-0.8,1.7c-0.2,0.6-1,1.2-1.6,1.2c-0.5,0-0.8-0.3-0.7-0.8c0-0.3,0.1-0.6,0.2-1c0.1-0.5,0.1-1,0-1.5
		c-0.2-0.7-0.7-1-1.4-0.7c-0.1,0-0.2,0.1-0.3,0.1C38,30,37.5,29.6,37.5,29c0-0.5-0.1-1.1-0.2-1.6c-0.1-0.6-0.4-1.1-1-1.5
		c-0.3-0.2-0.6-0.1-0.8,0.3c-0.1,0.2-0.1,0.5,0.2,0.6c0.7,0.2,0.9,0.7,0.9,1.3c0,0.3,0,0.7,0,1c0,0.8,0.2,1.5,0.4,2.3
		c0.1,0.4,0.4,0.5,0.8,0.3c0.3-0.1,0.6-0.4,0.8-0.6c0.1-0.1,0.3-0.3,0.5-0.4c0.1-0.1,0.3-0.1,0.5,0c0.1,0.1,0.2,0.2,0.2,0.3
		c0,0.2-0.1,0.3-0.1,0.5c-0.1,0.5-0.2,1-0.3,1.4c-0.1,0.8,0.3,1.3,1,1.4c1.2,0.3,2.5-0.4,3-1.6c0.1-0.1,0.1-0.3,0.2-0.5
		c0.1-0.2,0.5-0.3,0.6-0.1c0.1,0.2,0.2,0.3,0.3,0.5c0.1,0.5,0.5,0.8,0.8,1.1c0.5,0.5,1.1,0.9,1.7,1.2c0.7,0.4,1.2,0.3,1.8-0.2
		c0.5-0.5,0.8-1,0.8-1.7c0-0.7-0.2-1.4-0.5-2c-0.2-0.3,0.1-0.7,0.5-0.6c0.3,0,0.6,0.1,0.9,0.3c0.4,0.3,0.9,0.5,1.4,0.5
		c0.7,0.1,1.3,0,1.8-0.6c0.5-0.6,0.6-1.1,0.3-1.8c-0.2-0.6-0.6-1.1-1-1.5c-0.2-0.2-0.4-0.4-0.5-0.5c-0.1-0.2-0.1-0.4,0-0.6
		c0.1-0.2,0.3-0.2,0.4-0.2c0.3,0.1,0.5,0.2,0.8,0.3c0.5,0.2,1,0.3,1.6,0.2c0.6-0.1,0.9-0.6,0.6-1.1c-1-1.9-2.4-3.3-4.4-4.2
		c-0.1-0.1-0.3-0.1-0.4-0.2c-0.2-0.1-0.1-0.5,0-0.5c0.3-0.1,0.7-0.2,1-0.4c0.7-0.3,0.9-1.2,0.5-1.8c-0.9-1.2-2.1-2-3.8-2
		c-0.7,0-1.3,0-1.9-0.3c-0.4-0.2-0.6-0.6-0.4-1c0.1-0.3,0.3-0.5,0.4-0.7c0.4-0.5,0.3-1.1,0-1.6c-0.7-1.3-1.8-1.7-3.1-1.8
		c-0.5,0-1,0.2-1.3,0.5c-0.4,0.5-0.9,0.9-1.1,1.5c-0.1,0.2-0.2,0.4-0.3,0.5c-0.2,0.3-0.6,0.4-0.8,0c-0.4-1-1.2-1.4-2-2
		c-0.8-0.6-1.7-0.7-2.7-0.7c-0.3,0-0.5,0.2-0.7,0.5c-0.1,0.3-0.2,0.6-0.1,0.8c0.2,0.5,0.3,1.1,0.7,1.6c0.1,0.1,0.3,0.3,0.4,0.5
		c0.1,0.1,0.2,0.3,0.2,0.4c0.1,0.2-0.1,0.5-0.4,0.5c-0.8-0.2-1.5-0.5-2.2-0.8c-0.7-0.3-1.5-0.4-2.3-0.4
		C31.1,13.8,30.9,13.9,30.7,14.2L30.7,14.2z"/>
	<path class="st0" d="M42.1,17.2c-0.8-0.4-1.5-0.3-2.2,0.2c-0.8,0.6-1.3,1.4-1.4,2.5c-0.1,0.9,0,1.9,0,2.8c0,0.2,0,0.4,0,0.6
		c0,0.2,0.1,0.3,0.2,0.4c0.1,0,0.3,0,0.3-0.1c0.7-0.8,1.5-0.8,2.5-0.5c0.2,0.1,0.5,0.2,0.7,0.2c0.8,0.2,1.6,0.5,2.4,0.7
		c0.7,0.2,1.4,0.1,2-0.4c0.2-0.2,0.3-0.4,0.2-0.7c-0.3-1.2-1.3-2-2.5-2.2c-0.9-0.1-1-0.1-0.9-1c0-0.2,0.1-0.3,0-0.5
		C43.4,18.3,42.9,17.7,42.1,17.2z M40,19.2L40,19.2L40,19.2c0.1,0,0.2,0.1,0.1,0.1c-0.1,0.2-0.2,0.3-0.3,0.5c0-0.2-0.1-0.4-0.1-0.6
		C39.8,19.3,39.9,19.2,40,19.2z M42.6,22.3L42.6,22.3L42.6,22.3c-0.1,0.1-0.2,0.2-0.3,0.1c-0.2-0.2-0.4-0.4-0.7-0.2
		c-0.2,0.1-0.5,0.3-0.6-0.1c-0.1-0.2,0.1-0.4,0.3-0.5c0.1-0.1,0.2-0.2,0.2-0.3c-0.5,0-0.9,0.1-1.4,0.2c-0.1,0-0.3,0-0.3-0.1
		c0-0.1,0-0.2,0.1-0.3c0.1-0.2,0.4-0.3,0.5-0.6c0.5,0,0.9-0.2,1.3-0.5c-0.5,0-0.9,0.2-1.2,0.5c-0.4,0-0.3-0.3-0.4-0.6
		c0.3-0.1,0.5-0.2,0.8-0.4c0.2-0.1,0.2-0.2,0.1-0.4c-0.3-0.2-0.1-0.4,0.1-0.6c0.3-0.2,0.7-0.3,0.9,0c0.2,0.2,0.3,0.5,0.5,0.6
		c0.3,0.2,0.2,0.4-0.1,0.6c-0.2,0.1-0.4,0.2-0.7,0.3c0.2-0.1,0.5-0.1,0.6,0.1c0.2,0.2,0.1,0.5-0.1,0.6c-0.1,0.1-0.3,0.3-0.4,0.4
		c0.2,0,0.4,0,0.6,0C42.5,21.3,42.8,21.9,42.6,22.3z M45.6,22.4L45.6,22.4c0.2,0,0.4,0.3,0.4,0.5c0,0.2-0.1,0.4-0.4,0.4
		c-0.1,0-0.2,0.1-0.4,0.1c-0.2-0.1-0.5-0.1-0.8-0.2c-0.1,0-0.2-0.1-0.2-0.3c0-0.1,0.1-0.2,0.2-0.3c0.3-0.2,0.6-0.3,0.9-0.3
		C45.4,22.3,45.5,22.3,45.6,22.4z M44.6,21.7c0.1,0,0.2,0,0.3,0.1h0h0c0,0,0,0.1,0,0.1C44.8,22,44.7,22,44.6,22
		c-0.1,0-0.2-0.1-0.3-0.2C44.4,21.8,44.5,21.7,44.6,21.7z M43.7,21.5c0.2,0,0.2,0.1,0.1,0.3c0,0.1-0.1,0.1-0.1,0.2
		c-0.2,0-0.4,0-0.4-0.3C43.3,21.5,43.5,21.4,43.7,21.5z M43.2,22.5c0.1-0.2,0.3-0.3,0.5-0.5c0.2-0.1,0.5,0,0.6-0.1h0
		c0,0.5-0.3,0.9-0.8,1c-0.1,0-0.2,0-0.3-0.1C43.2,22.7,43.2,22.5,43.2,22.5z"/>
	<path class="st0" d="M19.4,15.3L19.4,15.3L19.4,15.3c0.3-0.5,0.4-1.1,0.5-1.6c0-0.2-0.1-0.3-0.1-0.5c-0.2-1-0.9-1.3-1.8-0.7
		c-0.1,0.1-0.2,0.2-0.4,0.3c-0.2,0.2-0.3,0.7-0.6,0.7c-0.5,0-0.5-0.5-0.7-0.7c-0.4-0.5-1-0.6-1.5-0.1c-0.2,0.2-0.3,0.4-0.4,0.6
		c-0.4,1-0.2,1.8,0.6,2.5c1,0.8,2.1,1.6,2.6,2.9c0,0.1,0.2,0.1,0.3,0.1c0.2,0,0.3-0.1,0.3-0.3c-0.2-1,0.4-1.7,0.8-2.5
		C19.2,15.7,19.3,15.5,19.4,15.3z M15,14.1L15,14.1c-0.1-0.2,0-0.5,0.1-0.6c0.1-0.1,0.2-0.2,0.3-0.1c0.1,0.1,0.1,0.2,0.2,0.2
		c0,0.1,0,0.1,0,0.1c-0.1,0.2-0.2,0.5-0.5,0.5C15.1,14.3,15,14.2,15,14.1z M17.9,16.8L17.9,16.8L17.9,16.8c0,0.1-0.2,0.1-0.3,0.1
		c-0.2,0-0.3-0.2-0.3-0.3c0-0.3,0.3-0.5,0.1-0.8C17.3,16,17.1,16.1,17,16c-0.6-0.3-1.1-0.7-1.6-1.1c-0.1-0.1-0.1-0.2,0-0.3
		c0.2-0.2,0.7-0.3,1-0.1c1.1,0.7,1.1,0.7,1.8-0.4c0.1-0.2,0.2-0.5,0.3-0.7c0.1-0.1,0.2-0.3,0.4-0.2c0.1,0,0.2,0.2,0.2,0.3
		c-0.2,0.4,0.4,0.7,0.2,1.2c-0.2,0.3-0.4,0.6-0.6,0.9C18.3,16,18.1,16.4,17.9,16.8z"/>
	<polygon class="st0" points="15.2,43.9 15.2,43.9 15.2,43.9 	"/>
	<path class="st0" d="M15.2,43.9L15.2,43.9c0.9,1,1.7,1.9,2.5,2.9c0.9,1,1.8,1.9,2.2,3.2c0.1,0.3,0.3,0.6,0.5,0.9
		c0.1,0.2,0.3,0.2,0.5,0.1c0.2-0.1,0.2-0.3,0.2-0.5c0-0.2-0.1-0.3-0.2-0.5c-0.8-1.3-1.7-2.6-2.7-3.8c-1.4-1.5-2.6-3.2-4.3-4.4
		c0,0-0.1-0.1-0.1-0.1c-0.8-0.9-1.7-1.8-2.5-2.7c-0.8-0.8-1.5-1.7-2.3-2.6c-0.2-0.3-0.4-0.5-0.3-0.9c0-0.3-0.1-0.5-0.4-0.5
		c-0.2,0-0.3,0-0.5,0c-0.2,0-0.3-0.2-0.3-0.4c0-0.2,0.1-0.3,0.2-0.4c0.1-0.1,0.3-0.1,0.4-0.2c0,0,0-0.1,0-0.2c0,0-0.1,0-0.1,0
		c-0.1,0-0.2,0.1-0.3,0.1c-0.6,0.2-0.7,0.2-1-0.3c-0.7-1.1-1.7-2-2.1-3.3c0.6-0.2,0.9,0.2,1.2,0.5c0.4,0.5,0.9,0.9,1.5,1.3
		c0.2,0.1,0.3,0.4,0.5,0.5c0.2,0.2,0.3,0.4,0.5,0.5c1.3,0.8,2.3,1.9,3.6,2.6c0.2,0.1,0.4,0.3,0.6,0.5c0.5,0.6,1,1.1,1.6,1.6
		c0.1,0.1,0.2,0.3,0.3,0.4c0,0.1,0,0.2-0.1,0.2c-0.1,0.1-0.2,0.1-0.2,0.1c-0.1-0.1-0.3-0.1-0.4-0.2c-0.2-0.1-0.3-0.3-0.5-0.1
		c-0.1,0.1,0,0.3,0.3,0.5c0.1,0.1,0.3,0.2,0.4,0.3c-0.1,0.2-0.2,0.3-0.3,0.4c-0.2,0.3-0.2,0.5,0.2,0.7c0.4,0.2,0.8,0.3,1.2,0.2
		c0.6,0,1.1,0.2,1.6,0.5c0.2,0.1,0.4,0.5,0.2,0.6c-0.1,0.2-0.4,0.2-0.6,0.1c-0.3-0.1-0.5-0.2-0.8-0.4c-0.2-0.1-0.4-0.1-0.5,0.1
		c-0.1,0.2,0.1,0.4,0.3,0.5c0.2,0.1,0.5,0.1,0.7,0.2c0.2,0,0.4,0,0.6,0.1c0.2,0.1,0.5,0.1,0.7,0.2c0.2,0.1,0.3,0.3,0.1,0.5
		c-0.1,0.1-0.3,0.2-0.2,0.4c0.2,0.2,0.5,0.2,0.7,0.3c0.3,0.1,0.5,0.3,0.4,0.7c-0.1,0.2,0,0.4,0.2,0.4c0.5,0.1,0.7,0.4,0.8,0.8
		c0.1,0.6,0.5,0.9,0.7,1.4c0.2,0.4,0.5,0.9,0.7,1.3c0.1,0.2,0.1,0.4,0.3,0.5c0.1,0,0.2,0,0.2,0c0,0,0.1-0.1,0.1-0.1
		c0-0.2,0-0.4,0-0.6c-0.3-0.7-0.5-1.4-0.8-2.1c-1.3-2.3-2.5-4.8-4.2-6.9c-1.3-1.6-2.6-3.1-4.2-4.3c-1.3-1-2.5-2.2-3.8-3.1
		c-0.6-0.4-1.1-1-1.7-1.5C4.6,28.4,2.8,26.7,1,25c-0.2-0.2-0.4-0.3-0.6-0.5c-0.1-0.1-0.3,0-0.3,0C0,24.6,0,24.8,0,24.9
		c0.1,0.3,0.2,0.5,0.3,0.8c0.5,0.9,0.9,1.7,1.5,2.6c0.9,1.5,1.8,2.9,2.8,4.4c0.3,0.4,0.7,0.8,1,1.3c0.6,1,1.4,1.9,2.2,2.8
		c1,1.1,2.1,2.2,3.2,3.2c1.2,1.1,2.3,2.3,3.6,3.3C14.8,43.4,15,43.7,15.2,43.9z M15.7,39.9L15.7,39.9L15.7,39.9c0,0,0,0.1,0,0.1
		c0,0.1-0.1,0.2-0.1,0.2c-0.5,0-1-0.2-1.4-0.7c0,0,0-0.2,0-0.2c0-0.1,0.1-0.1,0.2-0.1C14.9,39.1,15.4,39.4,15.7,39.9z M4.6,30.4
		c-0.2-0.1-0.5-0.1-0.6-0.3l0,0l0,0C4,30,3.9,29.8,4.1,29.7c0.2-0.1,0.3-0.1,0.4,0.1C4.7,30,4.7,30.2,4.6,30.4z"/>
	<path class="st0" d="M56.2,58.9L56.2,58.9L56.2,58.9c-0.2-0.6-0.6-1-1.1-1.2c-0.6-0.3-1.2,0.1-1.2,0.8c0,0.2,0,0.3,0,0.5
		c0,0.6-0.3,1.2-0.7,1.7C52,62,49.4,62.3,48,61.2c-0.5-0.4-0.5-0.7-0.1-1.1c0.8-0.6,1.2-1.5,1.6-2.3c0.4-0.7,0.5-1.4,0.5-2.1
		c0.1-0.8-0.3-1.4-0.7-2.1c-0.2-0.2-0.6-0.3-0.8-0.1c-0.2,0.2-0.1,0.4,0,0.6c0.1,0.1,0.1,0.1,0.1,0.2c0.5,0.6,0.5,1.3,0.4,2.1
		c-0.3,1.3-1.1,2.3-1.8,3.3c0,0-0.1,0.1-0.1,0.1c-0.2,0.1-0.5,0.1-0.7-0.1c-0.1-0.1-0.2-0.3-0.2-0.5c-0.1-1-0.3-2-0.4-3.1
		c-0.1-1-0.1-2-0.7-2.8c-0.2-0.4-0.1-0.6,0.4-0.6c2.5-0.1,3.7-1.5,4.4-3.5c0.3-0.8,0.4-1.6,0.1-2.4c-0.3-0.9-0.8-1.6-1.4-2.3
		c-0.2-0.2-0.5-0.4-0.8-0.5c-1-0.2-2.1-0.5-3.1-0.5c-3.4,0.1-6.8,0.2-10.2,0.3c-0.6,0-1.1,0.1-1.7-0.2c-0.4-0.2-0.9-0.2-1.3-0.1
		c-0.3,0.1-0.6,0.4-0.5,0.7c0.1,0.3,0.3,0.4,0.5,0.4c0.2,0,0.5,0,0.7,0c0.3,0,0.6,0,0.9,0c0.3,0,0.5,0.3,0.4,0.5
		c-0.2,0.7-0.5,1.3-0.8,1.9c-0.5,1-1,1.9-1.4,2.9c-0.7,1.8-1.6,3.5-2.4,5.3c-0.2,0.4-0.4,0.7-0.6,1.1c-0.3,0.4-0.5,0.4-0.8,0.1
		c-0.2-0.2-0.5-0.3-0.7-0.5c-0.6-0.6-1.3-1.2-2.1-1.5c-0.4-0.1-0.5-0.4-0.3-0.8c0.4-1,0.4-2.1,0.7-3.1c0.4-1.3,0.7-2.6,1-3.9
		c0.6-2.1,1.3-4.2,2-6.2c0.6-1.8,1.4-3.5,2.1-5.2c0.4-1,0.9-2,1.6-2.9c0.5-0.7,0.9-1.4,1.4-2.2c0.1-0.2,0.1-0.4-0.1-0.5
		c-0.2-0.1-0.4-0.1-0.5,0.1c-0.1,0.2-0.3,0.4-0.4,0.6c-0.3,0.5-0.6,0.9-0.9,1.3c-0.1,0.1-0.3,0.2-0.4,0.1c-0.1-0.1-0.1-0.2-0.1-0.3
		c0.4-1.1,0.9-2.1,1.6-3.1c0.2-0.3,0.4-0.5,0.5-0.8c0.3-0.5,0.3-0.7,0.1-0.9c-0.2-0.2-0.5,0-0.9,0.5c-1.3,1.9-2.1,4.1-3.1,6.1
		c-0.8,1.7-1.4,3.5-2.1,5.3c-0.1,0.2-0.2,0.5-0.2,0.7c-0.3,1.1-0.6,2.1-1,3.2c-0.2,0.7-0.4,1.3-0.6,2c-0.1,0.4-0.2,0.7-0.3,1.1
		c-0.2,0.7-0.4,1.4-0.5,2.2c-0.3,1.7-0.5,3.5-0.8,5.2c-0.1,0.8-0.3,1.1-0.5,0.9c-0.4-0.3-0.2-0.7-0.2-1c0.1-1.3,0.3-2.7,0.4-4.1
		c0.1-1.6,0.1-3.3,0.1-4.9c0-1.7,0.2-3.5-0.1-5.2c-0.1-0.5,0.2-1,0-1.5c-0.1-0.4-0.1-0.8-0.1-1.2c0-0.7,0-1.3-0.1-2
		c-0.2-2.3-0.4-4.7-0.7-7c-0.2-1.8-0.6-3.5-0.9-5.2c0-0.2-0.1-0.3-0.1-0.5c-0.1-0.2-0.3-0.3-0.5-0.1c-0.1,0.1-0.2,0.3-0.4,0.3
		c-0.2,0-0.3,0.1-0.3,0.3c0,0.2,0.2,0.2,0.4,0.2c0.2,0,0.5,0.1,0.4,0.3c-0.2,0.6,0.2,1.1,0.3,1.7c0.6,3,0.8,6,1.2,8.9
		c0,0.2,0.1,0.5-0.1,0.7c-0.1,0.1-0.3,0.2-0.4,0.1c-0.1-0.1-0.2-0.3-0.2-0.4c0-0.7-0.2-1.4-0.3-2.1c-0.2-1.9-0.6-3.7-0.9-5.6
		c-0.2-1.3-0.7-2.5-0.9-3.8c0-0.1-0.1-0.2-0.2-0.3C19.4,21,19.2,20.9,19,21c-0.1,0.1-0.2,0.2-0.1,0.3c0.2,0.8,0.4,1.6,0.6,2.4
		c0.5,2.6,1.1,5.2,1.3,7.8c0,0.2,0.1,0.4,0.1,0.6c0.4,2.1,0.6,4.3,0.8,6.5c0.1,1.4,0.1,2.8,0.2,4.2c0,0.9,0.1,1.8,0.2,2.7
		c0,0,0,0-0.1,0c0,0.4,0.1,0.8,0.1,1.2c0.1,2,0.1,4,0.1,6c0,0.5-0.2,0.7-0.7,0.6c-2.1-0.4-4-0.1-5.8,1.1c-1.8,1.1-2.9,2.7-2.7,4.9
		c0.1,1.2,0.7,2.2,1.7,2.9c1.7,1.1,3.5,1.2,5.5,0.8c0.2,0,0.5-0.1,0.7-0.2c0.3,0,0.5,0.2,0.4,0.5c-0.3,1.5-0.6,3-0.8,4.5
		c-0.1,0.4-0.2,0.7-0.1,1.1c0,0.1,0.1,0.2,0.3,0.2c0.1,0,0.2,0,0.2-0.1c0.1-0.1,0.2-0.2,0.2-0.3c0.2-1,0.6-2,0.6-3
		c0-0.2,0-0.4,0.1-0.6c0-0.1,0.2-0.2,0.3-0.2c0.1,0,0.3,0.1,0.3,0.2c0.1,0.3,0.1,0.6,0.1,0.9c0,1.3-0.1,2.5,0.1,3.8
		c0,0.3,0.1,0.7,0.3,0.9c0.1,0.1,0.2,0.1,0.3,0.1c0.1,0,0.2-0.1,0.3-0.2c0-0.2,0-0.4,0-0.6c-0.2-2.4-0.3-4.7-0.1-7.1
		c0.1-0.7,0.3-1.1,0.8-1.4c1.1-0.5,2-1.3,2.8-2.2c0.9-1.1,1-1,1.9,0c0.5,0.6,1.1,1.2,1.8,1.7c0.2,0.2,0.4,0.4,0.7,0.6
		c1.1,0.9,2.3,1.6,3.7,2c1.6,0.5,3.3,0.5,4.9,0.4c1.9-0.2,3.8-0.7,5.5-1.8c0.8-0.5,0.8-0.5,1.3,0.3c0,0.1,0.1,0.1,0.1,0.2
		c0.4,0.7,0.9,1.2,1.6,1.5c0.3,0.1,0.6,0.3,0.9,0.5c0.2,0.1,0.4,0.2,0.7,0.3c2.9,0.3,4.9-0.5,6.2-3.3C56.5,60.7,56.4,59.8,56.2,58.9
		z M22,34.8L22,34.8L22,34.8c-0.1-0.2-0.2-0.5,0-0.7c0,0,0.2,0,0.2,0c0.2,0.1,0.2,0.3,0.2,0.5c0,0.1,0,0.2-0.1,0.2
		c0,0.1-0.1,0.1-0.2,0.1C22.2,34.9,22.1,34.9,22,34.8z M22.2,55.5L22.2,55.5c0,0.2,0,0.3,0,0.5c0,1.7-0.3,3.4-0.5,5.1
		c0,0.1,0,0.2-0.1,0.4c-0.1,0.4-0.3,0.7-0.7,0.7c-1.1,0.2-2.3,0.4-3.4,0.2c-0.9-0.1-1.7-0.4-2.5-1c-1.3-1-1.6-3-0.7-4.4
		c0.7-1.1,1.7-1.9,3-2.4c1.2-0.5,2.5-0.6,3.7-0.5C22.1,54.2,22.3,54.4,22.2,55.5L22.2,55.5z M22.6,36.4c0,0.1-0.1,0.2-0.3,0.2
		c-0.2,0-0.2-0.2-0.2-0.4c0-0.1,0.1-0.2,0.2-0.2C22.6,36.1,22.7,36.2,22.6,36.4L22.6,36.4z M26.9,58.3c-0.8,0.9-1.8,1.6-2.7,2.3
		c0,0-0.1,0.1-0.1,0.1c-0.1,0.1-0.3,0.1-0.5,0s-0.2-0.3-0.2-0.5c0.1-0.4,0.1-0.9,0.2-1.4c0.1-0.9,0.2-1.8,0.3-2.7
		c0-0.2,0.1-0.4,0.1-0.6c0.1-0.2,0.4-0.3,0.5-0.2c0.1,0,0.1,0.1,0.2,0.1c0.7,0.6,1.3,1.2,2,1.8C27.2,57.7,27.2,57.9,26.9,58.3z
		 M44.6,44L44.6,44c0.3,0,0.5,0.1,0.8,0.1c0.5,0.1,1.1,0.2,1.6,0.3c0.7,0.1,1.2,0.5,1.6,1c0.8,1.2,0.9,2.5,0.3,3.8
		c-0.1,0.2-0.2,0.4-0.4,0.6C48,51,47.2,51.6,46,51.7C45.5,51.8,45,52,44.6,52c-0.1,0-0.2,0-0.2,0c-0.2,0-0.4,0-0.4-0.2
		c0-0.1,0.1-0.2,0.2-0.3c0.3-0.2,0.5-0.4,0.8-0.6c1.5-0.9,1.9-3.9,0.7-5c-0.4-0.4-0.7-1-1.3-1.2c-0.1,0-0.2-0.2-0.1-0.3
		C44.3,44.1,44.5,44,44.6,44z M36.1,57.5L36.1,57.5c0.1-1.2,0.2-2.5,0.2-3.8c0.1-2.5,0.2-4.9,0.4-7.4c0-0.4-0.1-0.7-0.1-1.1
		c-0.1-0.5,0.1-0.8,0.6-0.8c1.1,0,2.1-0.2,3.2-0.2c0.2,0,0.3,0.1,0.4,0.2c0,0.1-0.1,0.2-0.1,0.3c0,0.1-0.1,0.1-0.2,0.2
		c-1.4,1-1.6,2.5-1.7,4c-0.1,1.6,0,3.2-0.3,4.8c-0.1,0.8,0,1.6,0,2.3h-0.1c0,0.7,0,1.5,0,2.2c0,0.5-0.2,0.7-0.7,0.7
		C36,59,35.9,59.3,36.1,57.5z M31.9,50.9L31.9,50.9c0.3-0.7,0.6-1.3,1-2c0.6-1.2,1.1-2.4,1.5-3.6c0.1-0.5,0.5-0.7,1-0.7
		c0.4,0,0.7,0.3,0.7,0.7c0,0.3-0.1,0.6-0.1,1c-0.1,1.4-0.1,2.9-0.2,4.3c0,0.1,0,0.2,0,0.4c-0.1,0.4-0.3,0.6-0.7,0.6
		c-0.2,0-0.4-0.1-0.6-0.1c-0.2,0-0.3,0-0.5,0c-0.5,0.1-1.1,0.1-1.6,0C31.9,51.5,31.7,51.2,31.9,50.9z M45.2,61.2L45.2,61.2
		L45.2,61.2c-1.1,0.7-2.3,1.2-3.6,1.5c-1,0.2-2,0.3-3,0.3c-1.8,0.2-3.3-0.2-4.8-0.9c-0.6-0.3-1.2-0.7-1.7-1.2c-1-0.9-2-1.9-2.9-2.8
		c-0.1-0.1-0.2-0.2-0.2-0.3c-0.2-0.3-0.3-0.5,0-0.8c1-1.2,1.6-2.7,2.2-4.1c0.2-0.4,0.4-0.6,0.8-0.6c0.9,0,1.9-0.1,2.8-0.2
		c0.7,0,0.9,0.1,0.9,0.8c-0.1,1.3,0,2.5-0.2,3.8c-0.1,0.4,0,0.9-0.1,1.4c0,0.6-0.1,1.1-0.2,1.7c-0.1,0.2,0.2,0.4,0.4,0.3
		c0.2-0.1,0.3-0.1,0.5-0.2c0.3-0.2,0.7-0.2,1.1-0.2c0.6,0,1.2,0,1.9,0c0.3,0,0.5-0.3,0.4-0.6C39,58.5,39,57.9,39,57.3
		c0-1.5,0.1-3,0.2-4.4c0.1-1.4,0.3-2.7,0.3-4.1c0-0.8,0.3-1.5,0.5-2.3c0.3-0.8,1-1.3,1.7-1.7c0.1-0.1,0.4-0.1,0.6-0.1
		c1.1,0,2.1,0.4,2.6,1.5c0.4,0.8,0.7,1.7,0.5,2.6c-0.3,1.2-1.2,1.8-2.3,2.3c-0.6,0.2-1.2,0.4-1.8,0.3c-0.2,0-0.5,0-0.7,0.1
		c-0.1,0-0.3,0.2-0.3,0.4c0,0.2,0.1,0.4,0.3,0.4c0.6,0.1,1.2,0.3,1.8,0.4c0.2,0,0.4,0,0.6,0.1c1.2,0.2,1.8,0.7,1.9,2
		c0.1,1.1,0.2,2.1,0.2,3.2c0,0.9,0.1,1.7,0.4,2.5C45.7,60.9,45.7,61,45.2,61.2z M55.4,61.3c-0.4,0.7-0.8,1.2-1.3,1.8
		c-0.4,0.5-1,0.7-1.6,0.8c-0.4,0.1-0.9,0.1-1.3,0.2c-1,0-1.9-0.4-2.7-0.9c-0.2-0.1-0.3-0.3-0.4-0.4c0-0.1-0.1-0.2,0-0.2
		c0-0.1,0.2-0.2,0.3-0.1c0.3,0.1,0.6,0.2,1,0.2c1.5,0.3,2.9,0,4.1-0.9c0.8-0.6,1.1-1.4,1.3-2.3c0-0.2,0-0.4,0.1-0.6
		c0-0.3,0.4-0.4,0.6-0.2c0.1,0.1,0.3,0.3,0.4,0.5C55.7,59.9,55.8,60.6,55.4,61.3L55.4,61.3z"/>
	<path class="st0" d="M33.3,28.3L33.3,28.3c0,0.2,0.2,0.3,0.4,0.5c0.1,0.1,0.2,0.1,0.3,0c0-0.1,0-0.2,0-0.2
		c-0.1-0.1-0.2-0.2-0.4-0.3C33.5,28.2,33.4,28.3,33.3,28.3z"/>
	<path class="st0" d="M19.8,20.6c0,0.1,0.2,0.3,0.3,0.2c0.1-0.1,0.1-0.2,0.1-0.3c0-0.1-0.1-0.2-0.2-0.2
		C19.9,20.4,19.8,20.5,19.8,20.6z"/>
	<polygon class="st0" points="17.4,15.8 17.4,15.8 17.3,15.8 	"/>
	<path class="st0" d="M22,10.7c0.3-0.2,0.6-0.4,0.9-0.6c0.1-0.1,0.2-0.2,0.2-0.4c0-0.3-0.5-0.6-0.7-0.4c-0.5,0.4-1,0.8-1.5,1.3
		c-0.2,0.2-0.2,0.5-0.1,0.8c0.2,0.5,0.7,0.8,1.2,0.6c0.5-0.1,0.9-0.3,1.4-0.3l0,0l0,0c0.1,0,0.3,0,0.3-0.1s0.2-0.2,0.2-0.3
		c0-0.1-0.1-0.2-0.2-0.3C23.6,11,23.4,11,23.2,11c-0.3,0.1-0.6,0.2-0.9,0.3c-0.2,0.1-0.3,0-0.4-0.1C21.8,10.9,21.9,10.8,22,10.7z"/>
	<path class="st0" d="M44.1,18.4c0.2,0.4,0.5,0.8,0.8,1.1c0.4,0.4,0.9,0.6,1.4,0.7c0.1,0,0.1-0.1,0.2-0.1c0-0.1,0.1-0.2,0.1-0.2
		c-0.1-0.1-0.1-0.3-0.3-0.4c-0.4-0.2-0.7-0.5-0.6-1c0-0.2-0.1-0.3-0.3-0.3c-0.7,0-0.7-0.4-0.6-0.9c0-0.3-0.1-0.5-0.3-0.6
		c-0.1,0-0.2-0.1-0.2,0c-0.1,0-0.2,0.1-0.2,0.1c0,0.2,0,0.4,0,0.6C44,17.7,43.9,18.1,44.1,18.4z"/>
	<path class="st0" d="M11.5,17.4c0.6-0.1,1.2-0.2,1.8-0.4c0.2-0.1,0.4-0.2,0.5-0.3h0h0c0.1-0.1,0.2-0.3,0.1-0.4
		c0-0.2-0.2-0.3-0.3-0.3c-0.1,0-0.2,0-0.4,0c-0.7,0.2-1.3,0.4-2,0.6c-0.2,0.1-0.2,0.3-0.2,0.5C11.2,17.3,11.4,17.4,11.5,17.4z"/>
	<path class="st0" d="M13.1,19.4c0.7-0.1,1.4-0.4,2.1-0.6c0.2-0.1,0.2-0.2,0.2-0.4c0-0.2-0.2-0.3-0.6-0.4c-0.5,0.2-1.2,0.5-1.9,0.7
		c-0.1,0.1-0.2,0.3-0.2,0.4C12.8,19.3,13,19.4,13.1,19.4z"/>
	<polygon class="st0" points="14.8,18 14.8,18 14.8,18 14.8,18 	"/>
	<path class="st0" d="M36.7,18.8c-0.1,0-0.2,0-0.2-0.1c-0.2,0-0.4,0-0.5,0.3c0,0.2,0.2,0.4,0.4,0.4v0c0.4,0.1,0.8,0,1.2-0.2
		c0.2-0.1,0.3-0.2,0.4-0.5c0.2-0.6-0.2-1.3-0.9-1.3c-0.1,0-0.2,0.1-0.3,0.1c-0.1,0.1-0.1,0.2,0,0.3c0.1,0.1,0.2,0.3,0.3,0.4
		c0.1,0.1,0.2,0.3,0.1,0.4C37,18.8,36.9,18.8,36.7,18.8z"/>
	<path class="st0" d="M40.1,27.1c-0.2-0.5-0.3-1.1-0.3-1.7c0-0.2,0-0.4-0.2-0.5c-0.2-0.1-0.4,0.2-0.5,0.5c0,0.1,0,0.2-0.1,0.5
		c0,0.3,0.1,0.6,0.2,1c0.1,0.3,0.1,0.5,0.3,0.8c0.1,0.2,0.2,0.3,0.5,0.3c0.2,0,0.3-0.3,0.3-0.6C40.2,27.2,40.2,27.2,40.1,27.1
		L40.1,27.1z"/>
	<path class="st0" d="M24.8,13.1c0-0.2-0.2-0.4-0.4-0.4h0l0,0c-0.7,0-1.4,0.1-2,0.4c-0.1,0.1-0.2,0.2-0.2,0.4
		c0.1,0.2,0.2,0.2,0.4,0.3c0.6-0.1,1.2-0.2,1.9-0.3C24.7,13.4,24.9,13.3,24.8,13.1z"/>
	<path class="st0" d="M10.2,13.9c0,0.2,0.1,0.3,0.2,0.4c0.4,0.1,0.7,0.1,0.9,0.1l0,0c0.6,0,0.9,0,1.3-0.1c0.1-0.1,0.3-0.2,0.2-0.4
		c0-0.1-0.1-0.2-0.2-0.3c-0.1-0.1-0.2-0.2-0.3-0.1c-0.6,0.1-1.2,0.2-1.8,0C10.4,13.4,10.3,13.6,10.2,13.9z"/>
	<path class="st0" d="M19.7,8.2c-0.2,0-0.3,0.1-0.4,0.2C19.1,8.8,19,9.3,19,9.8c0,0,0,0.1,0,0.2c0,0.2,0.1,0.3,0.3,0.3
		c0.2,0,0.3,0,0.4-0.2c0.2-0.3,0.4-1.3,0.3-1.7C20,8.3,19.9,8.2,19.7,8.2L19.7,8.2L19.7,8.2z"/>
	<path class="st0" d="M11.3,11.5L11.3,11.5c0.6,0.1,1.1,0.3,1.7,0.4c0.2,0,0.4-0.1,0.5-0.3c0.1-0.2-0.1-0.4-0.3-0.5
		c-0.5-0.1-1-0.2-1.4-0.3c-0.1,0-0.3,0-0.4,0.1c-0.1,0.1-0.3,0.2-0.2,0.4C11.1,11.3,11.2,11.4,11.3,11.5z"/>
	<path class="st0" d="M23.6,15.1c-0.5-0.3-1.1-0.4-1.6-0.5c-0.1,0-0.2,0.1-0.3,0.2c-0.1,0.1,0,0.3,0.1,0.3c0.5,0.4,1.1,0.7,1.8,0.7
		c0.2,0,0.3-0.2,0.3-0.3C23.8,15.4,23.7,15.2,23.6,15.1L23.6,15.1L23.6,15.1z"/>
	<path class="st0" d="M34.7,22.8c0.1,0.2,0.3,0.3,0.5,0.3c0.1,0,0.2-0.1,0.3-0.1c0.4-0.1,0.7-0.2,1.1-0.3c0.2-0.1,0.3-0.2,0.3-0.4
		c0-0.2-0.1-0.3-0.3-0.3h0v0c-0.1,0-0.1,0-0.1,0c-0.6,0-1.1,0.1-1.5,0.3C34.7,22.4,34.6,22.5,34.7,22.8z"/>
	<path class="st0" d="M35.1,20.2L35.1,20.2c-0.2,0-0.3,0.2-0.3,0.4c0,0.2,0.1,0.3,0.3,0.4C35.4,21,35.7,21,36,21c0.2,0,0.4,0,0.6,0
		c0.2,0,0.3-0.1,0.3-0.3c0-0.1-0.1-0.3-0.1-0.3C36.3,20.1,35.7,20,35.1,20.2z"/>
	<path class="st0" d="M40.9,25.3L40.9,25.3c-0.1,0-0.1,0.1-0.1,0.2c0,0.8,0.4,1.5,0.8,2.1c0,0,0.2,0.1,0.2,0c0.1,0,0.2-0.1,0.2-0.5
		c-0.1-0.6-0.5-1.2-0.9-1.8C41.1,25.3,40.9,25.3,40.9,25.3z"/>
	<path class="st0" d="M14.4,9.5c0,0.5,0.2,0.9,0.6,1.3c0.1,0.1,0.2,0.1,0.3,0.1c0.2,0,0.2-0.2,0.3-0.4c0-0.5-0.2-1-0.5-1.3
		c-0.1-0.1-0.3-0.2-0.5-0.1h0C14.5,9.2,14.4,9.4,14.4,9.5z"/>
	<path class="st0" d="M17.6,8.4c-0.1-0.1-0.2-0.2-0.3-0.1c-0.1,0-0.3,0.1-0.3,0.2c0,0.6,0,1.1,0,1.7c0,0.1,0.2,0.2,0.3,0.2
		c0.2,0.1,0.3,0,0.4-0.2h0h0c0.1-0.3,0.1-0.6,0.1-0.7C17.9,9,17.9,8.7,17.6,8.4z"/>
	<polygon class="st0" points="44.5,25.4 44.5,25.4 44.5,25.4 	"/>
	<path class="st0" d="M44.2,25.7c0.1,0.5,0.4,1,0.7,1.4c0,0.1,0.1,0.1,0.2,0.1c0.2,0.1,0.3,0.1,0.4-0.1c0.1-0.1,0.1-0.2,0.1-0.3
		c-0.2-0.5-0.5-0.9-0.8-1.3c-0.1-0.1-0.2-0.1-0.3-0.1C44.3,25.4,44.1,25.6,44.2,25.7z"/>
	<path class="st0" d="M43.6,26.7c-0.3-0.5-0.5-0.9-0.8-1.3c0-0.1-0.2-0.1-0.2-0.1c-0.1,0.1-0.2,0.2-0.2,0.2c0,0.7,0.3,1.1,0.8,1.6
		c0.1,0.1,0.5,0,0.5-0.2C43.6,26.9,43.7,26.8,43.6,26.7L43.6,26.7L43.6,26.7z"/>
	<path class="st0" d="M37.3,24.5c0,0.3,0,0.6,0.3,0.7c0.1,0.1,0.2,0.1,0.3,0c0.3-0.2,0.3-0.5,0.2-0.8c0-0.2-0.2-0.4-0.4-0.4v0l0,0
		C37.6,24,37.4,24.2,37.3,24.5z"/>
	<path class="st0" d="M46.6,25.3L46.6,25.3c-0.2,0-0.3,0.1-0.4,0.3c0,0.1,0,0.3,0,0.3c0.2,0.3,0.6,0.5,0.9,0.5
		c0.1,0,0.3-0.1,0.3-0.1c0-0.1,0-0.2,0-0.3C47.3,25.6,47,25.4,46.6,25.3L46.6,25.3z"/>
	<path class="st0" d="M47.3,24.6c0.3,0.1,0.5,0.2,0.8,0c0.1,0,0.1-0.2,0.2-0.2c0-0.1,0-0.2-0.1-0.3c-0.2-0.3-0.7-0.3-1-0.1l0,0l0,0
		C47.1,24.2,47.2,24.5,47.3,24.6z"/>
	<polygon class="st0" points="47.7,22.2 47.7,22.2 47.7,22.2 	"/>
	<path class="st0" d="M47.5,21.5c-0.2,0-0.3,0.1-0.3,0.3c0,0.3,0.2,0.5,0.5,0.4c0.2,0,0.3-0.1,0.3-0.3C48,21.7,47.8,21.5,47.5,21.5z
		"/>
	<path class="st0" d="M17.9,15.5c-0.2,0.1-0.4,0.2-0.5,0.2C17.5,15.7,17.7,15.6,17.9,15.5C17.9,15.6,17.9,15.6,17.9,15.5L17.9,15.5
		c0.1,0.1,0.2,0.1,0.2,0c0,0-0.1-0.1-0.1-0.1C17.9,15.4,17.9,15.5,17.9,15.5z"/>
</g>
</svg>
