<?xml version="1.0" encoding="utf-8"?>
<!-- Generator: Adobe Illustrator 27.5.0, SVG Export Plug-In . SVG Version: 6.00 Build 0)  -->
<svg version="1.1" id="Layer_1" xmlns:xodm="http://www.corel.com/coreldraw/odm/2003"
	 xmlns="http://www.w3.org/2000/svg" xmlns:xlink="http://www.w3.org/1999/xlink" x="0px" y="0px" viewBox="0 0 16.2 21.5"
	 style="enable-background:new 0 0 16.2 21.5;" xml:space="preserve">
<style type="text/css">
	.st0{fill:#A48B50;}
</style>
<g id="Layer_x0020_1">
	<g id="_105553321737152">
		<path class="st0" d="M16.1,4.4c-0.1-0.1-0.2,0-0.3,0c-0.1,0.1-0.2,0.2-0.3,0.2c-0.4,0.4-0.8,0.6-1.3,0.8c-0.4,0.1-0.7,0.3-1,0.4
			c-0.9,0.5-1.8,1.2-2.6,1.9c-0.2,0.2-0.4,0.5-0.6,0.8c-0.3,0.6-0.6,1.3-0.7,1.9c-0.1,0.5-0.3,1-0.5,1.4c0,0-0.1,0.1-0.2,0.1
			c0,0-0.1-0.1-0.1-0.1c0-0.1,0-0.2,0-0.3c0.1-0.3,0.1-0.6,0-0.9c0-0.2-0.1-0.5-0.1-0.7c0-0.7-0.1-1.3-0.1-2c0-0.6-0.1-1.2,0.1-1.7
			c0-0.1,0-0.3,0-0.4c0-0.1-0.1-0.2-0.1-0.4c0-0.1,0-0.2,0.1-0.2c0.1,0,0.2,0,0.2-0.1C9.3,5,9.9,4.9,10.4,4.6c0.4-0.2,0.8-0.5,0.9-1
			c0-0.2,0.1-0.2,0.3-0.3c0.2-0.1,0.3-0.2,0.5-0.3c0.3-0.2,0.6-0.5,0.7-0.8c0.2-0.3,0-0.6-0.3-0.6c-0.4,0-0.8,0-1.2,0.2
			c-0.1,0.1-0.3,0.2-0.4,0c-0.1-0.1,0-0.2,0-0.3c0.2-0.4,0.1-0.5-0.1-0.8c-0.2-0.1-0.3-0.2-0.5,0C10.2,0.7,10,0.9,9.9,1.1
			C9.7,1.3,9.4,1.5,9.2,1.7c-0.1,0.1-0.3,0-0.3-0.2c0-0.1,0-0.2,0-0.2C9,1.1,9,0.9,9,0.7l0,0C9,0.5,9,0.4,9,0.2C8.9,0,8.7-0.1,8.5,0
			C8.3,0.2,8,0.3,7.9,0.5c0,0.1-0.1,0.1-0.2,0.2c-0.1,0.1-0.2,0.1-0.3,0c0-0.1-0.1-0.1-0.1-0.2C7.2,0.3,7,0.2,6.8,0.2
			c-0.1,0-0.2,0-0.2,0c-0.2,0-0.3,0.1-0.3,0.3c0,0.2,0,0.3-0.1,0.5c0,0.1,0,0.3-0.2,0.3c-0.1,0-0.2-0.1-0.2-0.2
			C5.5,0.9,5.3,0.6,5.2,0.3C5,0,4.6,0.1,4.5,0.3c-0.2,0.3-0.4,0.6-0.4,1c0,1,0.3,1.9,1.2,2.5C5.6,4,6,4.2,6.4,4.4
			c0.4,0.2,0.7,0.4,0.9,0.8c0.1,0.2,0.2,0.3,0.4,0.3c0.2,0,0.3,0.2,0.3,0.4C8,6.2,8,6.4,8,6.6C8,7.8,8.1,8.9,8.3,10
			c0,0.4,0.1,0.7,0.1,1.1c-0.1,0.6-0.1,1.2,0,1.7c0,0.1-0.1,0.2-0.2,0.2c-0.3-0.1-0.5-0.3-0.6-0.6c-0.1-0.3-0.2-0.7-0.3-1
			c0-0.2-0.1-0.5-0.2-0.7c-0.1-0.5-0.3-1-0.4-1.6c0-0.1,0-0.2-0.1-0.3C6.5,8.6,6.5,8.4,6.5,8.2c0-0.2-0.1-0.3-0.1-0.5
			C6.2,7.4,6.1,7.2,6,6.9C5.7,6.2,5.2,5.6,4.6,5.2C4.2,4.9,3.7,4.7,3.2,4.5c-0.3-0.1-0.6-0.2-1-0.2c-0.1,0-0.1,0-0.2,0
			c0,0-0.1,0.1-0.1,0.1c0,0.1,0,0.1,0.1,0.1c0.8,0.1,1.3,0.6,1.4,1.4c0.1,0.6,0.3,1.1,0.6,1.5c0.2,0.3,0.3,0.6,0.3,0.9
			c0,0.5,0.1,0.9,0.4,1.3c0.2,0.5,0.5,0.9,0.8,1.3c0.3,0.3,0.6,0.7,0.8,1c0.2,0.3,0.5,0.6,0.9,0.8c0.1,0.1,0.3,0.1,0.4,0.2
			c0,0,0.1,0.1,0,0.2c0,0-0.1,0.1-0.1,0.1c-0.1,0-0.3,0-0.4,0c-0.7,0.1-1.3,0.3-1.8,0.7c-0.7,0.6-1.5,1-2.3,1.6
			c-0.3,0.2-0.6,0.5-1.1,0.5c-0.1,0-0.3,0.1-0.4,0.2c-0.2,0.1-0.4,0.2-0.6,0.3c-0.1,0-0.3,0.1-0.4,0.2c-0.1,0.1-0.1,0.2-0.1,0.3
			c0,0.1,0.1,0.2,0.2,0.2c0.1,0,0.3,0,0.4,0c0.4,0,0.9-0.1,1.3-0.1c0.5,0,1,0,1.5,0c0.9,0,1.7,0,2.6-0.1c0.1,0,0.2,0,0.4,0
			c0.4,0.1,0.8,0.1,1.2,0c0.4-0.1,0.9-0.2,1.3-0.1c0,0,0.1,0,0.1,0c0.4-0.1,0.8,0,1.2,0c0.5,0,1,0.1,1.5,0c0.3-0.1,0.6-0.1,0.9,0
			c0.4,0.1,0.8,0,1.2,0.1c0.5-0.1,0.9-0.2,1.4-0.3c0.2,0,0.2-0.2,0.1-0.3c-0.3-0.3-0.7-0.4-1.1-0.5c-0.3-0.1-0.6-0.2-0.8-0.3
			c-0.5-0.3-1-0.7-1.5-1c-0.9-0.6-1.7-1-2.8-1c-0.2,0-0.4,0-0.5-0.2c-0.1-0.3,0.2-0.3,0.4-0.4c0.2-0.1,0.5-0.2,0.7-0.5
			c0.4-0.5,0.7-0.9,0.9-1.5c0.3-0.7,0.7-1.3,1.2-1.9C12.5,9,12.7,8.8,13,8.7c0.5-0.2,0.9-0.6,1.2-1c0.2-0.3,0.4-0.5,0.7-0.7
			c0.1-0.1,0.2-0.2,0.2-0.3c0.4-0.6,0.7-1.2,1.1-1.8c0-0.1,0.1-0.1,0.1-0.2C16.3,4.6,16.3,4.5,16.1,4.4L16.1,4.4L16.1,4.4z M4.7,5.9
			c0,0,0.1-0.1,0.2,0C4.9,6,4.9,6,5,6.1c0.3,0.4,0.5,0.9,0.7,1.4c0.1,0.2,0.1,0.4,0.2,0.6c0.2,0.5,0.4,1.1,0.5,1.7
			c0,0.1,0,0.3,0.1,0.4c0,0,0,0-0.1,0.1c0,0,0,0,0,0C6.3,10,6.2,9.8,6.1,9.6C6,9.5,6,9.3,5.9,9.3C5.8,8.8,5.5,8.3,5.4,7.9
			c0,0-0.1-0.1-0.1-0.1c0-0.1,0-0.3-0.1-0.4l0,0C5,7,4.9,6.7,4.7,6.3c0-0.1-0.1-0.2-0.1-0.3C4.6,6,4.6,6,4.7,5.9L4.7,5.9L4.7,5.9z
			 M4.4,6c-0.1,0-0.1,0-0.2,0c0,0,0-0.1,0-0.1c0-0.1,0-0.1,0-0.2c0,0,0.1,0,0.1,0.1c0,0,0,0.1,0.1,0.2C4.4,6,4.4,6,4.4,6L4.4,6z
			 M4.7,7C4.6,7,4.6,6.9,4.6,6.9c0-0.1,0-0.1,0.1-0.1c0.1,0,0.1,0.1,0.1,0.2l0,0C4.8,7,4.8,7.1,4.7,7L4.7,7L4.7,7z M6.8,12
			c-0.1,0.1-0.2,0-0.2-0.1c-0.3-0.3-0.5-0.7-0.6-1.1c-0.2-0.6-0.5-1.2-0.7-1.7c-0.1,0.1,0,0.3-0.1,0.5C4.9,9.4,4.9,9.2,4.8,9
			c0-0.1-0.1-0.2,0-0.3C5,8.6,5.1,8.8,5.1,8.9C5.2,9,5.2,9,5.3,9.1C5.2,8.6,5,8.1,4.9,7.6c-0.1-0.2,0-0.2,0.2-0.2
			c0,0.1,0,0.3,0.1,0.4c0.2,0.5,0.3,1,0.6,1.5c0,0,0,0,0,0l0,0c0,0.3,0.2,0.6,0.3,0.9c0.2,0.4,0.4,0.8,0.5,1.2
			c0.1,0.1,0.1,0.3,0.2,0.4C6.9,11.8,6.9,11.9,6.8,12L6.8,12L6.8,12z M9.7,11c0.1-0.7,0.4-1.4,0.7-2c0.2-0.5,0.6-0.8,1-1.1
			c0.1-0.1,0.2-0.1,0.3-0.2c0.1-0.1,0.2-0.3,0.4-0.2c0.1,0.1-0.1,0.2-0.2,0.3C11.4,8.4,11,9,10.6,9.6c-0.2,0.2-0.3,0.5-0.4,0.8
			c-0.1,0.4-0.2,0.7-0.6,1.1C9.6,11.2,9.6,11.1,9.7,11L9.7,11L9.7,11z M7.8,3.7c-0.1,0-0.1,0-0.1-0.1c0,0,0-0.1,0.1,0
			C7.9,3.6,7.9,3.6,7.8,3.7C7.9,3.7,7.9,3.7,7.8,3.7L7.8,3.7L7.8,3.7z M8,4.7L8,4.7C8,4.7,7.9,4.7,8,4.7C7.9,4.7,7.9,4.7,8,4.7
			C7.9,4.7,8,4.7,8,4.7C8,4.7,8,4.7,8,4.7L8,4.7L8,4.7z M8.3,4c-0.1-0.1,0-0.2,0.1-0.3c0.1-0.1,0.1-0.1,0.2-0.2
			c0.1-0.1,0-0.3-0.1-0.3c-0.4,0-0.7-0.2-1-0.3C7.4,3,7.3,3,7.2,3.1c0,0,0,0.1,0,0.2c0.2,0.4,0.3,0.8,0.3,1.3c0,0.1,0,0.2-0.1,0.2
			c-0.1,0.1-0.2,0-0.3-0.1C7.2,4.6,7.1,4.5,7,4.4C6.9,4.3,6.8,4.2,6.7,4.1C6,3.8,5.6,3.2,5.1,2.7C4.9,2.4,4.7,2.1,4.7,1.8
			c0-0.2,0-0.3-0.1-0.4l0,0c0-0.2,0-0.4,0-0.5c0-0.1,0.1-0.2,0.1-0.2c0.1,0,0.2,0,0.2,0.1C5.3,1.1,5.6,1.5,5.7,2
			c0,0.3,0.2,0.4,0.4,0.6c0.2,0.1,0.4,0.1,0.6,0C6.8,2.4,6.9,2.2,6.8,2C6.6,1.7,6.6,1.4,6.6,1c0-0.1,0-0.1,0-0.2
			c0-0.1,0.1-0.2,0.2-0.1c0.1,0,0.1,0,0.2,0.1C7.1,0.9,7.1,1,7.2,1.2c0,0.1,0.1,0.2,0.2,0.3c0.2,0.1,0.4,0.1,0.6-0.1
			c0.1-0.2,0.2-0.3,0.3-0.5c0.1-0.1,0.1-0.2,0.2-0.3c0.1,0,0.2,0,0.2,0.1c0,0.1,0,0.2,0,0.3c0,0.2-0.1,0.4-0.1,0.6
			c0,0.2,0,0.4,0.1,0.6c0.1,0.2,0.4,0.3,0.6,0.2C9.6,2.2,10,2,10.2,1.6c0.1-0.2,0.2-0.3,0.3-0.4c0,0,0.1,0,0.2,0
			c0,0,0.1,0.1,0.1,0.2c0,0.2-0.1,0.3-0.2,0.5c0,0.1-0.1,0.2-0.1,0.3c0,0.1,0.1,0.2,0.2,0.3c0.2,0,0.4,0,0.5-0.1
			C11.5,2.2,11.8,2,12.1,2c0.1,0,0.1,0,0.2,0.1s0,0.1,0,0.2c-0.1,0.2-0.3,0.3-0.5,0.4c-0.2,0.1-0.5,0.2-0.7,0.3
			c-0.2,0.1-0.3,0.2-0.3,0.4c0,0.2,0,0.3-0.1,0.5c-0.2,0.2-0.4,0.3-0.6,0.4C10,4.3,10,4.2,10,4.1C10,4.1,10,4,10.1,3.9
			c0-0.1,0-0.2-0.1-0.2c-0.1,0-0.2,0-0.2,0C9.6,3.8,9.4,3.9,9.3,4.1C9.2,4.2,9,4.2,8.9,4.1c-0.1,0-0.2-0.1-0.4-0.1
			C8.5,4.1,8.4,4.1,8.3,4L8.3,4L8.3,4z M10.4,14.3c0.2,0,0.5,0.1,0.7,0.2c0.1,0.1,0.2,0.2,0.1,0.3c0,0.1-0.1,0.1-0.1,0.2
			c0,0.1,0,0.2,0.1,0.2c0.2,0.1,0.4,0.1,0.5-0.2c0.1-0.2,0.2-0.2,0.3-0.1c0.4,0.3,0.9,0.5,1.2,0.9c0.1,0.1,0.3,0.2,0.4,0.3
			c0.1,0.1,0.2,0.1,0.2,0.2c0.1,0.1,0.1,0.2,0.1,0.3c0,0.1-0.1,0.2-0.2,0.2c-0.1,0-0.1,0-0.2,0c-0.4-0.2-0.8-0.1-1.2-0.2
			c-0.1,0-0.2,0-0.4,0c-0.1,0-0.3,0.1-0.4,0c-0.1-0.1-0.2,0-0.4,0c-0.1,0-0.2,0.1-0.2,0c-0.2-0.1-0.4-0.1-0.7-0.1
			c-0.2,0-0.4,0-0.7,0.1c-0.1,0-0.2,0-0.2,0c-0.3,0-0.6,0-0.9-0.1c-0.4-0.1-0.8-0.1-1.2,0c-0.8,0.1-1.5,0.2-2.3,0.3
			c-0.8,0-1.5,0-2.3,0c0,0,0,0-0.1,0c-0.1,0-0.3,0-0.3-0.2c0-0.1,0.1-0.3,0.2-0.3C3,16.3,3.3,16,3.7,15.8c0.5-0.3,1.1-0.7,1.7-0.9
			c0.9-0.4,1.8-0.7,2.7-0.8c0.2,0,0.5,0,0.8,0l0,0C9.4,14.1,9.9,14.1,10.4,14.3L10.4,14.3L10.4,14.3z M10.4,11.5
			c-0.2,0.6-0.5,1.1-1.1,1.3c0,0-0.1,0.1-0.2,0c0-0.1,0-0.2,0-0.2c0.4-0.3,0.7-0.8,1.1-1.1c0,0,0.1,0,0.1,0
			C10.4,11.4,10.4,11.4,10.4,11.5L10.4,11.5C10.5,11.4,10.5,11.5,10.4,11.5L10.4,11.5z M15,6c-0.1,0.2-0.3,0.4-0.4,0.5
			c-0.2,0.2-0.3,0.3-0.5,0.5c-0.2,0.1-0.3,0.3-0.4,0.5c-0.2,0.3-0.5,0.4-0.8,0.6c0,0-0.1,0-0.2,0c-0.1,0-0.2,0-0.3,0.1
			c-0.3,0.4-0.6,0.7-0.8,1.1c-0.3,0.5-0.7,0.9-0.9,1.4c-0.1,0.2-0.2,0.4-0.5,0.6c0-0.5,0.2-0.9,0.4-1.2c0.4-0.6,0.8-1.2,1.3-1.7
			C12.2,7.9,12.7,7.4,13,7c0,0,0.1-0.1,0.2-0.1c0.1-0.1,0.2,0,0.2,0.2h0h0l0,0l0,0l0,0l0,0l0,0c0.4-0.2,0.6-0.6,0.9-0.9
			c0.2-0.2,0.3-0.3,0.5-0.4c0.1,0,0.2-0.1,0.2,0C15,5.8,15,5.9,15,6L15,6L15,6z"/>
		<g>
			<path class="st0" d="M2.8,20.4c-0.2,0-0.5,0.1-0.6,0.3c-0.2,0.2-0.3,0.3-0.5,0.2l0,0c-0.2-0.1-0.4,0-0.6-0.1c0,0-0.1-0.1-0.1-0.1
				c0,0,0-0.1,0-0.1c0.2-0.1,0.4-0.2,0.7-0.3c0.6-0.2,0.7-0.7,0.8-1.2c0,0,0-0.1,0-0.1c-0.1-0.5-0.5-0.8-1-0.8c-0.4,0-0.7,0.1-1,0.4
				c-0.2,0.1-0.3,0.3-0.2,0.5c0,0.1,0,0.2,0.1,0.2c0.1,0,0.1,0,0.2,0c0.1,0,0.1-0.1,0.2-0.2c0.1-0.2,0.3-0.3,0.5-0.3
				C1.7,18.6,2,18.8,2,19.1c0,0.4-0.1,0.7-0.5,0.9c-0.4,0.2-0.9,0.4-1.2,0.8c-0.2,0.2-0.2,0.3-0.1,0.4c0.1,0.2,0.3,0.1,0.4,0.1
				c0.4-0.1,0.8-0.1,1.2,0.1c0.1,0,0.2,0.1,0.2,0.1c0.5,0.1,1-0.2,1.2-0.7C3.2,20.6,3.1,20.4,2.8,20.4L2.8,20.4L2.8,20.4z"/>
			<path class="st0" d="M10.6,20.1c-0.1,0-0.3,0-0.4,0.1c-0.3,0-0.5,0.1-0.8,0.2c-0.1,0-0.3,0-0.3-0.1c0-0.1,0.1-0.2,0.2-0.2
				c0.1,0,0.2-0.1,0.2-0.1c0.2-0.1,0.4-0.3,0.5-0.4c0.2-0.2,0.3-0.6,0.1-0.8c-0.2-0.4-0.5-0.7-1-0.7l0,0c-0.2,0-0.4,0-0.6,0.1
				c-0.2,0-0.4,0.2-0.5,0.4c0,0.1,0,0.2,0,0.2c0,0.1,0.1,0.1,0.2,0.1c0.2-0.1,0.5-0.2,0.8-0.2c0.3,0,0.4,0.1,0.6,0.3
				c0.1,0.1,0.1,0.3,0,0.5c-0.1,0.1-0.1,0.2-0.2,0.2C8.9,19.6,8.5,20,8,20.2c-0.2,0.1-0.4,0.2-0.6,0.4c-0.1,0.1-0.1,0.2,0,0.3
				C7.4,21,7.6,21,7.7,21c0.1,0,0.1,0,0.2-0.1c0.3-0.2,0.7-0.2,1.1-0.1c0.2,0.1,0.5,0.1,0.7,0.1c0.4,0.1,0.7-0.2,1.1-0.4
				c0,0,0.1-0.1,0.1-0.1c0-0.1,0.1-0.2,0-0.2C10.8,20.1,10.7,20.1,10.6,20.1L10.6,20.1L10.6,20.1z"/>
			<path class="st0" d="M5.5,18.4c0,0-0.1,0-0.2,0l0,0c0,0-0.1,0-0.3,0c-0.3,0-0.5,0.1-0.7,0.3C4,19,4,19.3,3.9,19.6
				c-0.1,0.3,0,0.7,0.2,0.9c0.1,0.1,0.2,0.2,0.3,0.3c0.2,0.3,0.5,0.4,0.8,0.3c0.6-0.1,1.1-0.4,1.4-1C7,19.4,6.5,18.2,5.5,18.4
				L5.5,18.4L5.5,18.4z M6.1,19.9c-0.2,0.3-0.4,0.6-0.8,0.7c-0.4,0.1-0.9-0.2-1-0.6c0-0.1,0-0.1,0-0.2l0,0c0-0.3,0.1-0.5,0.4-0.7
				c0.2-0.1,0.4-0.2,0.6-0.2c0.6-0.1,0.8,0.2,0.9,0.8C6.2,19.7,6.2,19.8,6.1,19.9L6.1,19.9z"/>
			<path class="st0" d="M14.3,18.3c-0.1-0.1-0.2,0-0.3,0.1c-0.1,0.2-0.1,0.4-0.2,0.6c-0.1,0.4-0.2,0.5-0.7,0.5l0,0
				c-0.1,0-0.1,0-0.2,0c0,0-0.1,0-0.1,0c-0.1,0-0.2-0.2-0.1-0.2c0.2-0.3,0.5-0.5,0.7-0.8c0.1-0.2,0.2-0.3,0.2-0.5
				c0-0.1-0.1-0.1-0.1-0.1c0,0-0.1,0-0.2,0c-0.1,0.1-0.1,0.2-0.2,0.2c-0.4,0.5-0.7,1.2-1.5,1.4c-0.1,0-0.1,0.1-0.1,0.2
				c0,0.1,0.1,0.2,0.2,0.2c0.3,0,0.5,0.1,0.8,0.1c0.3,0,0.5,0,0.8,0c0.2,0,0.3,0.1,0.3,0.3c0,0.2,0,0.5,0.1,0.7
				c0,0.2,0.2,0.3,0.4,0.4c0.1,0,0.2,0,0.2-0.1c0,0,0-0.1,0-0.2c-0.2-0.2-0.3-0.5-0.3-0.8c0-0.4,0.1-0.9,0.2-1.3
				c0-0.1,0.1-0.3,0.1-0.4C14.5,18.5,14.5,18.4,14.3,18.3L14.3,18.3L14.3,18.3z"/>
			<path class="st0" d="M4.1,12.7c0.1,0,0.2-0.1,0.2-0.3c0-0.3-0.3-0.4-0.6-0.2c-0.2,0.1-0.3,0.2-0.5,0.3c-0.1,0.1-0.2,0-0.3-0.1
				c-0.1-0.1-0.2-0.3-0.2-0.4c0-0.2,0-0.5,0.1-0.7C2.9,11.2,3,10.9,3,10.6c0-0.2,0-0.4,0.2-0.6c0.1-0.1,0.2-0.2,0.2-0.4
				c0-0.1,0-0.2-0.1-0.3C3.2,9.3,3.1,9.3,3,9.3c0,0,0,0-0.1,0c-0.2,0.2-0.4,0.2-0.7,0C1.8,9.1,1.4,9.2,1,9.6c-0.8,0.8-1,1.8-1,2.9
				l0,0c0,0.2,0,0.4,0,0.6c0,0.2,0.1,0.3,0.3,0.4c0.4,0.2,0.8,0.1,1.1-0.3c0.2-0.3,0.3-0.6,0.4-0.9C1.9,12.2,2,12,2.1,11.8
				c0-0.1,0.1-0.1,0.1-0.1c0,0,0.1,0.1,0.1,0.1c0,0.2,0.1,0.3,0.1,0.5c0,0.3,0.3,0.6,0.5,0.7c0.1,0.1,0.3,0.1,0.4,0
				C3.6,12.8,3.8,12.7,4.1,12.7C4.1,12.7,4.1,12.7,4.1,12.7z M2.3,10.1c-0.2,0.2-0.2,0.4-0.2,0.6c-0.2,0.7-0.6,1.4-0.9,2.1
				c0,0.1-0.1,0.2-0.2,0.2c-0.1,0.1-0.2,0.1-0.3,0c-0.1-0.1-0.2-0.3-0.2-0.5c0.1-0.7,0.3-1.4,0.7-2c0.2-0.2,0.3-0.4,0.4-0.6
				c0.1-0.1,0.2-0.2,0.4-0.2c0.2,0,0.4,0.1,0.4,0.3C2.4,10,2.4,10.1,2.3,10.1L2.3,10.1L2.3,10.1z"/>
			<path class="st0" d="M15.8,12.7c-0.1-0.1-0.2-0.2-0.4-0.1c-0.1,0-0.2,0.1-0.3,0.2C15,12.8,15,12.9,14.9,13
				c-0.1,0.1-0.1,0.2-0.3,0.2c-0.2,0-0.2-0.1-0.3-0.2c-0.1-0.2-0.1-0.4-0.1-0.6c0.1-0.5,0.2-1,0.7-1.3c0.5-0.3,0.6-1.1,0.3-1.6
				c-0.4-0.6-1-0.8-1.7-0.6c-0.5,0.2-0.9,0.5-1.3,0.9c-0.1,0.1-0.1,0.2-0.2,0.3c0,0,0,0.1,0.1,0.2c0,0,0.1,0,0.1,0
				c0.1-0.1,0.1-0.2,0.2-0.2c0.1-0.1,0.1-0.1,0.2-0.1C13,9.9,13,9.9,13,10c0,0.1,0,0.2,0,0.2c0,0.6-0.1,1.2-0.2,1.8
				c0,0.2,0,0.4-0.2,0.6c-0.2,0.1-0.3,0-0.5,0c0,0,0,0-0.1,0c-0.1,0-0.3,0.1-0.3,0.2c-0.1,0.3,0.2,0.6,0.5,0.6
				c0.4,0,0.7-0.3,0.8-0.7c0.2-0.8,0.2-1.7,0.3-2.5l0,0c0-0.1,0-0.3,0-0.4c0-0.1,0.1-0.2,0.1-0.2c0.3-0.1,0.6-0.2,1-0.1
				c0.4,0.1,0.5,0.4,0.5,0.9c0,0.3-0.1,0.5-0.3,0.7C14.4,11.1,14.2,11,14,11c-0.2,0-0.4,0.2-0.2,0.4c0.1,0.2,0.2,0.3,0.1,0.6
				c-0.1,0.1-0.1,0.3-0.1,0.5c-0.1,0.2,0,0.4,0.1,0.5c0.1,0.2,0.2,0.3,0.3,0.4c0.3,0.3,0.8,0.4,1.2,0.1c0.1-0.1,0.2-0.2,0.4-0.3
				C15.9,12.9,15.9,12.8,15.8,12.7L15.8,12.7L15.8,12.7z"/>
		</g>
		<g>
			<path class="st0" d="M10.6,15.5L10.6,15.5L10.6,15.5z"/>
			<path class="st0" d="M10.3,15.2c-0.2,0-0.3,0.2-0.3,0.4c0,0.1,0.1,0.2,0.3,0.2c0.1,0,0.3-0.1,0.2-0.3
				C10.5,15.3,10.4,15.1,10.3,15.2L10.3,15.2L10.3,15.2z"/>
			<path class="st0" d="M8.2,14.6c-0.1,0-0.3,0.1-0.3,0.3c0,0.1,0.1,0.3,0.3,0.3s0.3-0.1,0.3-0.2C8.5,14.8,8.4,14.6,8.2,14.6
				C8.2,14.6,8.2,14.6,8.2,14.6z"/>
			<path class="st0" d="M6.8,15.9c-0.2-0.1-0.3-0.1-0.5,0c0,0-0.1,0.1-0.1,0.1c0,0.1,0.1,0.2,0.1,0.2c0.2,0,0.3,0,0.4-0.1
				C7,16.1,7,15.9,6.8,15.9L6.8,15.9L6.8,15.9z"/>
			<path class="st0" d="M6.9,14.7c-0.1,0-0.3,0.1-0.2,0.2c0,0.1,0.2,0.2,0.3,0.3l0,0c0.1,0,0.2-0.1,0.2-0.2
				C7.2,14.8,7.1,14.7,6.9,14.7L6.9,14.7L6.9,14.7z"/>
			<path class="st0" d="M5.8,15.3c-0.2,0-0.3,0-0.3,0.2c0,0.1,0.1,0.3,0.2,0.3c0.1,0,0.3-0.1,0.3-0.2l0,0C6,15.4,5.9,15.3,5.8,15.3z
				"/>
			<path class="st0" d="M12.6,15.8c0-0.1-0.1-0.2-0.3-0.2c-0.1,0-0.2,0-0.2,0.1c-0.1,0.1,0,0.2,0.1,0.3c0.1,0,0.2,0.1,0.2,0.1
				c0,0,0.1,0,0.2-0.1C12.7,15.9,12.7,15.8,12.6,15.8L12.6,15.8L12.6,15.8z"/>
			<path class="st0" d="M12.4,15.5L12.4,15.5L12.4,15.5z"/>
			<path class="st0" d="M11.3,15.7c-0.1,0-0.2,0-0.3,0.1c0,0.1,0,0.2,0.2,0.3c0.1,0,0.3,0,0.3-0.2l0,0
				C11.5,15.8,11.4,15.7,11.3,15.7C11.3,15.7,11.3,15.7,11.3,15.7z"/>
			<path class="st0" d="M8.9,15.8c-0.1,0-0.2,0.1-0.2,0.2c0,0.1,0.1,0.3,0.3,0.3c0.1,0,0.2-0.1,0.2-0.2C9.2,15.9,9.1,15.8,8.9,15.8
				L8.9,15.8z"/>
			<path class="st0" d="M9.7,14.5c-0.1,0-0.3,0-0.3,0.2c0,0.1,0.1,0.3,0.2,0.3c0.1,0,0.2-0.1,0.3-0.2l0,0
				C9.9,14.6,9.8,14.6,9.7,14.5L9.7,14.5L9.7,14.5z"/>
			<path class="st0" d="M5.1,16.2L5.1,16.2c-0.1,0-0.2,0-0.2,0.2c0,0.1,0,0.2,0.2,0.2c0.1,0,0.2,0,0.2-0.2
				C5.3,16.4,5.2,16.3,5.1,16.2L5.1,16.2z"/>
			<path class="st0" d="M3.9,16.1L3.9,16.1L3.9,16.1z"/>
			<path class="st0" d="M3.9,16.1c-0.1,0-0.2,0.1-0.2,0.2c0,0.1,0.1,0.2,0.2,0.2c0.1,0,0.2-0.1,0.2-0.2C4.1,16.2,4,16.1,3.9,16.1
				L3.9,16.1z"/>
			<path class="st0" d="M4.6,15.7c-0.1,0-0.2,0.1-0.1,0.2C4.5,16,4.6,16,4.7,16c0.1,0,0.1-0.1,0.1-0.2l0,0
				C4.8,15.7,4.7,15.7,4.6,15.7z"/>
			<path class="st0" d="M7.6,15.7c-0.1,0-0.1,0.1-0.1,0.2l0,0c0,0.1,0.1,0.1,0.2,0.2c0.1,0,0.2-0.1,0.2-0.2
				C7.8,15.8,7.7,15.7,7.6,15.7L7.6,15.7L7.6,15.7z"/>
		</g>
		<path class="st0" d="M13.1,7.4C13.1,7.4,13.1,7.4,13.1,7.4L13.1,7.4z"/>
		<path class="st0" d="M13.1,7.4C13.1,7.4,13.1,7.4,13.1,7.4C13.1,7.5,13.1,7.5,13.1,7.4L13.1,7.4C13.1,7.4,13.1,7.4,13.1,7.4
			L13.1,7.4L13.1,7.4z"/>
		<path class="st0" d="M13.1,7.4c0,0,0-0.1,0-0.1C13.1,7.3,13.1,7.4,13.1,7.4z"/>
		<path class="st0" d="M13.1,7.4C13.1,7.4,13.1,7.4,13.1,7.4C13.1,7.4,13.1,7.4,13.1,7.4L13.1,7.4L13.1,7.4L13.1,7.4z"/>
		<path class="st0" d="M13.2,7.3L13.2,7.3L13.2,7.3L13.2,7.3L13.2,7.3C13.2,7.3,13.2,7.3,13.2,7.3c0.1,0,0.2,0.1,0.2,0
			c0.1-0.1,0-0.1-0.1-0.2C13.3,7.1,13.3,7.2,13.2,7.3L13.2,7.3L13.2,7.3z"/>
	</g>
</g>
</svg>
