<?xml version="1.0" encoding="utf-8"?>
<!-- Generator: Adobe Illustrator 27.5.0, SVG Export Plug-In . SVG Version: 6.00 Build 0)  -->
<svg version="1.1" id="Layer_1" xmlns:xodm="http://www.corel.com/coreldraw/odm/2003"
	 xmlns="http://www.w3.org/2000/svg" xmlns:xlink="http://www.w3.org/1999/xlink" x="0px" y="0px" viewBox="0 0 29.9 30.8"
	 style="enable-background:new 0 0 29.9 30.8;" xml:space="preserve">
<style type="text/css">
	.st0{fill:#A48B50;}
</style>
<g>
	<path class="st0" d="M29.9,4.3c0,0-0.1-0.1-0.1-0.1c-0.1,0-0.2,0.1-0.3,0.1c-0.1,0-0.3,0.1-0.4,0.1c-0.5-0.1-0.9-0.1-1.4-0.4
		c-0.5-0.3-0.9-0.4-1.5-0.2c-0.1,0-0.2,0-0.3,0c0,0-0.1-0.1-0.1-0.1c0-0.1,0-0.1,0.1-0.1c0.5-0.5,1-0.8,1.6-0.9
		c0.1,0,0.3-0.1,0.4-0.1c0,0,0.1-0.1,0.1-0.1c0,0-0.1-0.1-0.1-0.1c-0.6-0.1-1.2-0.2-1.8,0c-0.3,0.1-0.6,0.2-0.8,0.3
		c-0.2,0.1-0.4,0.2-0.5,0.3c-0.7,0.5-1.2,1.3-1.6,2.1C23,5.2,22.8,5.6,22.7,6c-0.1,0.2-0.2,0.3-0.3,0.4c-0.2,0.2-0.4,0.4-0.7,0.6
		c-0.6,0.3-1.2,0.5-1.8,0.1c-0.4-0.2-0.7-0.4-1-0.8c-0.2-0.2-0.4-0.4-0.6-0.6c-0.1,0-0.1-0.1-0.1-0.2c0-0.1,0-0.2,0.1-0.2
		c0.1,0,0.1,0,0.2,0c0.5,0.1,1,0,1.5-0.2c0.7-0.3,1.3-0.8,1.9-1.3c0,0,0.1-0.1,0.1-0.1c0.2-0.4,0.4-0.7,0.5-1.1
		c0-0.5-0.1-0.9-0.3-1.3c0-0.1-0.1-0.1-0.2-0.2c-0.7-0.7-1.5-0.9-2.4-0.8c-0.1,0-0.1,0-0.2,0.1c-0.8,0.3-1.6,0.7-2.2,1.4
		c-0.4,0.4-0.8,0.7-1.4,0.9c-0.2,0.1-0.4,0.1-0.5,0c-0.2-0.1-0.4-0.1-0.6-0.1c0,0-0.1,0-0.1,0c-0.2,0-0.2,0-0.3-0.2
		c0-0.1-0.1-0.2-0.1-0.3c-0.3-0.6-0.6-1.1-1.1-1.5C12,0,10.9-0.1,9.7,0.1C9.1,0.2,8.5,0.4,8.1,0.9C7.7,1.3,7.4,1.8,7.4,2.4
		c0,0.4,0.1,0.7,0.3,1.1c0.4,0.9,1.2,1.4,2.1,1.6c0.4,0.1,0.8,0.1,1.3,0.1c0.2,0,0.2,0.1,0.2,0.3c-0.3,0.4-0.5,0.8-0.9,1.2
		C9.7,7.3,8.9,7.5,8,7.4c-0.1,0-0.3-0.1-0.4-0.1C7.3,7,7,6.8,6.8,6.4C6.7,6.1,6.5,5.9,6.3,5.6C6.1,5.3,5.8,5,5.5,4.7
		C5.4,4.6,5.3,4.4,5.2,4.3C4.7,4.1,4.1,3.9,3.5,3.8c-0.7,0-1.4,0.2-2,0.6C1.1,4.8,0.7,5.2,0.1,5.3c0,0,0,0,0,0C0,5.4,0,5.4,0,5.5
		c0,0.1,0.1,0.1,0.2,0.1c0.4,0,0.8-0.1,1.2-0.3c0.4-0.1,0.7-0.2,1.1-0.1c0.2,0,0.4-0.1,0.4,0.1c0,0.2-0.2,0.2-0.3,0.3
		C1.4,6,0.9,6.9,0.5,7.9c0,0.1,0.1,0.3,0.2,0.4c0.1,0.1,0.2,0,0.3-0.1c0.2-0.3,0.5-0.5,0.8-0.8c0.4-0.4,0.8-0.6,1.4-0.7
		c0.2,0,0.4,0,0.6-0.1c0.8-0.1,1.4,0.2,2,0.7c0.2,0.2,0.4,0.4,0.6,0.6c0.2,0.2,0.3,0.4,0.5,0.5C7.2,8.9,7.8,9.2,8.6,9
		C8.6,9,8.7,9,8.8,9c0.1,0,0.2,0,0.3,0.1c0.1,0.1,0,0.2-0.1,0.3C8.9,9.4,8.7,9.5,8.6,9.6c-0.4,0.5-0.7,0.9-1,1.4
		c-0.4,0.6-0.7,1.3-1,2c-0.2,0.5-0.3,1.1-0.5,1.6c-0.4,1.3-0.6,2.6-0.6,3.9l0,0v0h0c0,0.9,0.1,1.7,0.2,2.5C5.8,21.6,6,22,6.1,22.4
		c0.3,1,0.7,2,1.2,3c0,0.1,0.1,0.1,0.1,0.1c0.4,0.7,1,1.4,1.5,2c0.5,0.7,1.2,1.2,1.9,1.7c0.3,0.3,0.7,0.5,1.1,0.6
		c0.5,0.2,1,0.4,1.5,0.6c0.5,0.2,1.1,0.3,1.6,0.3c0.6,0,1.2-0.1,1.8-0.1c0.3,0,0.6-0.1,0.8-0.2c0.5-0.2,0.9-0.6,1.4-0.9
		c0.4-0.3,0.8-0.7,1.2-1.1c0.4-0.4,0.6-0.9,1.1-1.2c0.3-0.6,0.7-1,1-1.6c0.1-0.3,0.3-0.6,0.4-0.9c0.2-0.5,0.4-0.9,0.5-1.4
		c0.2-0.8,0.4-1.6,0.5-2.4c0.1-1,0.3-2.1,0.2-3.2c0,0,0,0,0-0.1c0-0.5,0-1-0.1-1.5c-0.1-0.3-0.1-0.5-0.1-0.8c-0.1-0.7-0.2-1.3-0.4-2
		c0-0.1-0.1-0.2-0.1-0.3c-0.2-0.5-0.4-1.1-0.7-1.6c-0.3-0.8-0.8-1.3-1.3-1.9c-0.1-0.1-0.2-0.2-0.3-0.3c-0.1-0.1-0.1-0.1-0.1-0.2
		c0-0.1,0.1-0.1,0.2-0.1c0,0,0.1,0,0.1,0c0.8-0.1,1.6-0.3,2.2-0.8c0.5-0.3,0.8-0.8,1.2-1.2c0.3-0.3,0.5-0.6,0.9-0.8
		c0.5-0.4,1-0.7,1.6-0.7c0.6,0,1.2-0.1,1.7-0.2c0,0,0.1,0,0.1,0c0.5-0.1,0.9-0.4,1.3-0.7C29.9,4.4,29.9,4.4,29.9,4.3z M15.9,3.1
		c0.7-0.2,1.2-0.7,1.7-1.3c0.5-0.5,1.2-0.8,1.9-1c0.1,0,0.3,0,0.4,0c0.6,0.1,1.1,0.2,1.6,0.6c0.1,0,0.1,0.1,0.2,0.1
		c0.2,0.5,0.5,1,0.3,1.6c-0.1,0.3-0.3,0.6-0.6,0.8c-0.2,0.2-0.4,0.3-0.6,0.5c-0.5,0.4-1,0.7-1.6,0.7c-0.4,0.1-0.8,0-1.2-0.1
		c-0.1,0-0.1-0.1-0.1-0.1C17.8,5,17.8,5,17.9,5c0.2,0,0.3,0,0.5,0c0.5,0,0.9-0.2,1.4-0.4c0.4-0.3,0.8-0.5,1.1-0.9
		c0.2-0.2,0.3-0.5,0.4-0.8c0.1-0.4-0.1-0.7-0.3-1c-0.3-0.3-0.6-0.4-1-0.4v0c-0.3,0-0.5,0-0.7,0c-0.2,0-0.4,0.1-0.6,0.2
		c-0.4,0.2-0.8,0.5-1.1,0.8c-0.4,0.4-0.9,0.7-1.5,1c-0.1,0-0.1,0-0.2,0c-0.1,0-0.2-0.1-0.1-0.2C15.7,3.2,15.8,3.1,15.9,3.1z M17,4.4
		c-0.2-0.1-0.4-0.2-0.7-0.3c-0.1,0-0.2-0.2-0.1-0.3c0.1-0.2,0.2-0.4,0.5-0.5c0.4-0.2,0.7-0.4,1-0.7c0.3-0.2,0.6-0.4,0.9-0.6
		c0.4-0.2,0.9-0.3,1.3-0.2c0.4,0,0.7,0.4,0.7,0.9h0l0,0c0,0.2-0.1,0.5-0.2,0.7c-0.5,0.7-1.2,1.2-2.1,1.2C17.9,4.7,17.5,4.7,17,4.4z
		 M15.7,4.9c0-0.1,0.1-0.1,0.3-0.2h0l0,0c0.3,0.1,0.6,0.3,0.9,0.6c0.1,0.1,0.1,0.2,0.1,0.2c0.1,0.1,0.4,1,0.4,1.2
		c0,0.1-0.1,0.2-0.2,0.2c-0.1,0-0.1,0-0.2-0.1c-0.5-0.2-1-0.4-1.5-0.4c-0.2,0-0.3-0.1-0.2-0.3C15.4,5.7,15.4,5.3,15.7,4.9z M7,19
		L7,19c0-0.5,0-1,0.1-1.6c0.1-0.6,0.1-1.1,0.2-1.7c0-0.3,0.1-0.5,0.2-0.8c0.1-0.2,0.1-0.5,0.2-0.7c0-0.1,0-0.1,0-0.2
		c0.4-0.8,0.5-1.6,1.1-2.2c0.2-0.3,0.3-0.6,0.5-0.8c0.6-0.9,1.4-1.6,2.2-2.3c0.3-0.2,0.7-0.4,1-0.6c0.2-0.1,0.5-0.2,0.8-0.3
		c0.2,0,0.3-0.1,0.5-0.1c0.2-0.1,0.3,0,0.4,0.1c0.4,0.5,1,0.4,1.5,0.4c0.2,0,0.4-0.2,0.5-0.3c0.2-0.2,0.4-0.2,0.7-0.1
		c0.3,0.2,0.7,0.2,1,0.4c0.8,0.5,1.4,1.1,1.9,1.9c0.1,0.1,0.1,0.2,0.2,0.2c0.5,0.5,0.8,1.2,1.1,1.8c0.2,0.4,0.4,0.8,0.5,1.3
		c0.1,0.4,0.3,0.8,0.3,1.2c0.1,0.5,0.2,1,0.3,1.5c0,0.1,0,0.1,0.1,0.2c0.1,1.2,0.2,2.5,0.1,3.7c-0.1,0.9-0.2,1.8-0.5,2.6
		c-0.4,1-0.7,2-1.4,2.9c0,0-0.1,0.1-0.1,0.1c-0.2,0.5-0.6,0.9-0.9,1.4c-0.6,0.7-1.2,1.4-2.1,1.6c-0.4,0.1-0.9,0.3-1.3,0.5
		c-0.6,0.2-1.3,0.1-1.9,0.1c-0.3,0-0.7-0.1-1-0.2c-0.7-0.3-1.3-0.6-1.9-1c-0.4-0.3-0.9-0.7-1.2-1.2c-0.3-0.4-0.6-0.9-0.9-1.3
		c-0.1-0.2-0.3-0.4-0.4-0.6c-0.2-0.4-0.5-0.9-0.7-1.3c-0.2-0.5-0.4-1-0.6-1.4c0-0.1-0.1-0.2-0.1-0.3c0-0.4-0.1-0.8-0.3-1.1
		C7,20.6,7,20.3,7,20C7,19.7,7,19.4,7,19L7,19z M12.6,4c-0.5,0.1-0.9,0.2-1.5,0.2l0,0c-0.4,0-0.8-0.1-1.2-0.3
		C9.3,3.7,9.1,3.1,9.1,2.5c0.1-0.6,0.5-0.9,1-1.2c0.2-0.1,0.4-0.1,0.7-0.1c0.4,0.1,0.7,0.2,1.1,0.3c0.2,0.1,0.4,0.2,0.6,0.4
		c0.3,0.3,0.5,0.6,0.7,0.9c0.2,0.3,0.3,0.5,0.6,0.7c0.1,0,0.1,0.1,0.1,0.2c0,0-0.1,0.1-0.1,0.1C13.3,3.9,13,4,12.6,4z M12.8,4.4
		L12.8,4.4L12.8,4.4L12.8,4.4z M13.8,4.1c0,0,0.1,0,0.2,0h0c0,0,0.1,0,0.2,0c0.1,0,0.2,0.1,0.1,0.2c0,0.1-0.1,0.2-0.2,0.2
		s-0.2,0-0.3-0.1c-0.1-0.1-0.4,0.1-0.4-0.2C13.4,4.1,13.6,4.1,13.8,4.1z M14,5.1c0.2,0,0.3,0.1,0.3,0.3C14.2,5.7,14.1,6,14,6.3
		c-0.1,0.2-0.1,0.3-0.3,0.3c-0.1,0-0.1,0-0.2,0l0,0c-0.2,0-0.4,0-0.7,0.1c-0.2,0.1-0.4,0.1-0.6,0.2c-0.1,0-0.2,0-0.2-0.1
		c0,0,0-0.1,0-0.2c0.2-0.3,0.3-0.6,0.5-0.8c0.1-0.2,0.3-0.3,0.5-0.4C13.3,5.3,13.6,5.2,14,5.1z M17.7,7.9c-0.2-0.1-0.4-0.2-0.6-0.3
		c-0.5-0.2-1-0.3-1.6-0.4c-0.1,0-0.1,0-0.2,0c-0.2,0-0.3-0.1-0.3-0.3c0-0.1,0.2-0.2,0.3-0.2l0,0c0.8,0.1,1.6,0.3,2.3,0.7
		c0.1,0,0.2,0.1,0.2,0.2C17.9,7.7,18,7.8,18,7.8C17.9,8,17.8,7.9,17.7,7.9z M14.8,4.4c0-0.4,0.1-0.7,0-1.1c0-0.1,0-0.2,0.1-0.2
		s0.2,0,0.3,0c0.1,0.1,0.2,0.2,0.2,0.3c0,0.2,0.1,0.4,0.1,0.6h0c-0.1,0.3-0.1,0.6-0.2,0.9C15.1,5.5,15,6,14.9,6.5
		c-0.1,0.3-0.1,0.6-0.1,0.9c0,0.1,0.1,0.2,0.2,0.2c0.2-0.1,0.5-0.1,0.7,0c0,0,0.1,0.1,0.1,0.1c0,0,0,0.1-0.1,0.1
		c-0.4,0.2-0.8,0.2-1.2,0c-0.2-0.1-0.3-0.3-0.2-0.6c0.1-0.4,0.1-0.8,0.2-1.1C14.6,5.5,14.7,5,14.8,4.4z M11,5L11,5L11,5
		c-0.8,0-1.5-0.1-2.1-0.6C8.1,3.9,7.6,2.9,7.9,1.9C8,1.8,8.1,1.7,8.1,1.5c0.1-0.1,0.1-0.2,0.2-0.1c0.2,0.1,0.3,0,0.4-0.1
		c0.3-0.3,0.6-0.5,0.9-0.7c0.1-0.1,0.2,0,0.2,0.1c0.1,0.2,0.1,0.1,0.2,0c0.1-0.1,0.3-0.2,0.5-0.3c0.1,0,0.2,0,0.3,0.1
		c0.1,0.2,0.2,0.1,0.4,0.1c0.2-0.1,0.2-0.1,0.3,0.1c0.1,0.1,0.1,0.2,0.2,0.1c0.2-0.1,0.3,0,0.4,0.1c0.1,0.1,0.3,0.3,0.5,0.3
		c0.3,0.1,0.4,0.3,0.6,0.4c0.2,0.3,0.5,0.6,0.6,0.9C14,2.8,14.1,3,14.3,3.1c0.1,0.1,0.1,0.1,0.2,0.2c0,0.1,0.1,0.2,0,0.3
		c-0.1,0.1-0.2,0-0.2,0c-0.3-0.2-0.5-0.4-0.6-0.7c-0.2-0.4-0.5-0.7-0.8-1.1c-0.3-0.3-0.6-0.5-1-0.6c-0.5-0.1-1-0.3-1.6-0.2
		C10.1,1,10,1,9.9,1.1C9.6,1.2,9.3,1.4,9,1.6C8.6,2.1,8.5,2.7,8.8,3.3c0.3,0.5,0.6,0.8,1.1,1c0.6,0.2,1.3,0.3,2,0.1
		c0.2,0,0.4-0.1,0.5,0c0,0,0.1,0,0.1,0.1c0,0,0,0.1,0,0.1c-0.3,0.2-0.6,0.3-1,0.4C11.3,5,11.1,5,11,5z M8.7,8.6L8.7,8.6L8.7,8.6
		L8.7,8.6c-0.4,0-0.7,0-1-0.2C7.4,8.3,7.2,8.2,7,8.1C6.9,8.1,6.8,8,6.8,7.9c0-0.2-0.1-0.3-0.3-0.2c-0.1,0-0.1-0.1-0.1-0.2
		c0.1-0.2,0-0.2-0.2-0.2c-0.1,0-0.1,0-0.2,0C6,7.2,5.9,7.1,6,7C6,6.9,6.1,6.8,6,6.7C6,6.7,6,6.6,5.9,6.6c-0.1,0-0.1,0.1-0.2,0.1
		c-0.1,0-0.1,0.1-0.2,0.1c-0.1,0-0.1,0-0.2-0.1c0,0,0-0.1,0-0.2c0.1-0.1,0.2-0.2,0.2-0.3c0,0,0-0.1,0-0.2c0-0.1-0.1-0.1-0.2-0.1
		c-0.2,0-0.2,0.2-0.3,0.3C5,6.5,4.9,6.5,4.7,6.5c-0.1,0-0.1-0.1-0.2-0.1c0,0,0-0.1,0.1-0.1c0.1-0.1,0.3-0.1,0.3-0.3
		c0-0.1,0-0.1,0-0.2c0,0-0.1,0-0.1,0C4.6,5.9,4.5,6,4.3,6.1C4.1,6.3,3.9,6.3,3.7,6.3c-0.2,0-0.4,0-0.7,0.1c-0.4,0-0.8,0.2-1.1,0.5
		C1.7,7,1.5,7.2,1.3,7.3c0,0-0.1,0-0.1,0c0,0,0-0.1,0-0.1c0-0.1,0.1-0.1,0.1-0.2c0.6-0.7,1.3-1.2,2.2-1.4c0.2,0,0.4,0,0.6,0
		c0.1,0,0.2,0,0.3,0c0.1,0,0.2-0.1,0.2-0.2c0-0.1-0.1-0.1-0.2-0.1C4,5.3,3.7,5.2,3.4,5.2c0,0-0.1,0-0.1,0C2.8,4.9,2.4,4.9,1.9,5
		C1.8,5,1.8,5,1.7,5c0,0-0.1,0-0.1-0.1c0,0,0-0.1,0-0.1c0,0,0.1-0.1,0.1-0.1c0.5-0.3,1-0.5,1.6-0.5c0.6,0,1.2,0.2,1.7,0.7
		C5.7,5.5,6.3,6,6.6,6.7C7,7.6,8.3,8,9.2,7.7c0.7-0.2,1.3-0.6,1.8-1.2c0.2-0.3,0.4-0.6,0.6-0.8c0.5-0.7,1.1-1.1,1.9-1.2
		c0.1,0,0.2,0,0.3,0.1c0.1,0,0.1,0.2,0,0.2c-0.1,0-0.2,0.1-0.3,0.1c-0.6,0.1-1.1,0.5-1.3,1.1c-0.1,0.3-0.3,0.5-0.4,0.8
		c-0.1,0.1-0.2,0.3-0.3,0.4c-0.5,0.5-1.1,1-1.8,1.3C9.2,8.6,8.9,8.6,8.7,8.6z M21.3,10.9c0.5,0.9,1,1.9,1.3,2.9
		c0.2,0.7,0.2,1.4,0.4,2.1c0.2,0.9,0.2,1.8,0.2,3l0,0l0,0v0c0.1,0.5-0.1,1.2-0.1,2c0,0.3-0.1,0.5-0.1,0.8c-0.2,0.8-0.3,1.7-0.7,2.5
		c-0.3,0.6-0.4,1.2-0.8,1.7c-0.3,0.5-0.6,1-1,1.5c-0.2,0.3-0.4,0.6-0.7,0.8c-0.1,0.1-0.1,0.2-0.3,0.2c-0.2,0.1-0.3,0.2-0.3,0.4
		c0,0.1-0.2,0.2-0.3,0.2c-0.2,0-0.2,0.1-0.3,0.2c0,0.1-0.1,0.3-0.2,0.3c-0.2,0-0.4,0.1-0.5,0.3c-0.1,0.1-0.2,0.1-0.2,0
		c-0.1-0.1-0.2-0.1-0.3,0c0,0-0.1,0-0.1,0.1c-0.1,0.1-0.3-0.1-0.4,0.1c-0.1,0.1-0.1,0.2-0.2,0.3c0,0.1-0.2,0.1-0.2,0.1
		c-0.2-0.1-0.3-0.1-0.4,0c-0.2,0.1-0.4,0-0.6,0.2c-0.1,0.1-0.1,0-0.2-0.1c-0.1-0.1-0.2-0.1-0.3,0c-0.2,0.1-0.3,0.1-0.4-0.1
		c-0.1-0.1-0.2-0.1-0.3,0c-0.3,0.1-0.5,0.1-0.7-0.1c-0.1-0.1-0.2-0.1-0.3-0.1c-0.3,0.1-0.6-0.1-0.9-0.2c-0.3-0.1-0.5-0.2-0.8-0.4
		c-0.3-0.1-0.5-0.3-0.8-0.5c-0.5-0.4-1-0.9-1.4-1.3c-0.3-0.4-0.7-0.7-1-1.1c-0.1-0.2-0.2-0.3-0.3-0.5c-0.1-0.3-0.3-0.7-0.5-1
		c-0.3-0.4-0.4-0.8-0.7-1.2c-0.1-0.2-0.2-0.4-0.2-0.6c-0.2-0.7-0.4-1.3-0.5-2C6,20.6,6,19.9,5.9,19.1c-0.1-0.7,0-1.3,0.1-2
		c0-0.1,0-0.2,0.1-0.3c0.1-0.2,0.2-0.3,0.1-0.5c-0.1-0.2,0-0.3,0.2-0.4c0.1-0.1,0.1-0.2,0-0.3c-0.1-0.1,0-0.3,0.1-0.3
		c0.1-0.1,0.3-0.3,0.1-0.5c-0.1-0.1,0-0.2,0.1-0.3c0.1-0.1,0.3-0.3,0.2-0.5C7,13.6,6.9,13.3,7.2,13c0.1-0.1,0.2-0.3,0.2-0.5
		c0.1-0.4,0.3-0.8,0.5-1.1c0.5-0.8,1-1.6,1.8-2.3C9.7,9.1,9.7,9,9.8,8.9c0.1-0.1,0.2-0.2,0.3-0.3c0.5-0.3,0.9-0.6,1.3-1
		c0.2-0.1,0.3-0.2,0.5-0.3c0.4-0.1,0.7-0.2,1-0.4c0.2-0.1,0.5-0.1,0.7-0.1c0.1,0,0.1,0,0.2,0.1c0,0.1,0,0.1,0,0.2
		c-0.1,0.1-0.2,0.2-0.4,0.2c-0.2,0-0.3,0.1-0.5,0.1c-0.3,0-0.5,0.1-0.8,0.3c-0.9,0.6-1.8,1.2-2.6,2C9.3,10.2,9,10.6,8.7,11
		c-0.4,0.6-0.8,1.2-1,1.8c-0.3,0.7-0.6,1.5-0.8,2.3c-0.2,0.7-0.3,1.4-0.3,2.1c0,0.5-0.1,0.9-0.1,1.4c0,0.7,0.1,1.4,0.1,2.1
		c0,0.1,0,0.2,0,0.2C6.9,21.2,6.9,21.6,7,22c0.2,0.8,0.5,1.5,0.9,2.2c0.3,0.5,0.6,1.1,1,1.6c0.2,0.3,0.4,0.6,0.5,0.8
		c0.5,0.9,1.2,1.5,2,2c0.4,0.3,0.9,0.5,1.3,0.6c0.7,0.3,1.5,0.5,2.3,0.5c0.6,0,1.2-0.1,1.8-0.4c0.2-0.1,0.5-0.3,0.7-0.3
		c0.3-0.1,0.5-0.2,0.8-0.4c0,0,0.1-0.1,0.1-0.1c0.4-0.2,0.7-0.5,1-0.8c0.4-0.4,0.8-0.9,1.1-1.4c0.4-0.5,0.7-1.1,0.9-1.7
		c0.4-0.9,0.8-1.8,1-2.8c0.1-0.6,0.2-1.1,0.3-1.7c0.1-0.4,0-0.8,0-1.2c0-1-0.1-1.9-0.2-2.9c-0.2-1.1-0.4-2.1-0.8-3.1
		c-0.2-0.5-0.5-1-0.7-1.4c-0.1-0.2-0.2-0.4-0.3-0.6c-0.1-0.2-0.2-0.3-0.3-0.5c-0.2-0.2-0.4-0.4-0.5-0.7c0-0.1-0.2-0.2-0.3-0.3
		c-0.2-0.2-0.5-0.5-0.6-0.8c0,0,0-0.1,0-0.1c0,0,0.1-0.1,0.1,0C19.5,8.8,20,9,20.3,9.4C20.6,9.9,21,10.3,21.3,10.9z M28.6,4.9
		c-0.5,0-0.9,0.2-1.3,0.1v0c-0.7,0-1.2,0.1-1.7,0.3c-0.4,0.1-0.7,0.4-1,0.7c-0.4,0.4-0.7,0.7-1,1.1c-0.4,0.5-0.9,0.7-1.4,1
		c-0.1,0-0.2,0.1-0.2,0c-0.2-0.1-0.4,0-0.5,0.2c-0.1,0.2-0.2,0.2-0.4,0c-0.1-0.1-0.2-0.1-0.3,0c-0.1,0.1-0.2,0.2-0.3,0.3
		c-0.1,0-0.3,0-0.3-0.2c0-0.1,0-0.1,0-0.2c0,0,0-0.1,0-0.1c0,0-0.1,0-0.2,0c-0.1,0.1-0.2,0.2-0.2,0.2c-0.1,0.1-0.1,0-0.2,0
		c-0.1,0-0.1-0.1-0.1-0.2c0-0.1,0.1-0.1,0.1-0.2c0,0,0-0.1,0-0.1c0,0,0,0-0.1,0c0,0-0.1,0-0.1,0c-0.3,0.3-0.5,0.1-0.8-0.1
		c-0.1-0.1-0.3-0.3-0.4-0.4c-0.3-0.6-0.7-1.2-0.9-1.8c0,0,0-0.1,0-0.1c0-0.1,0-0.1,0.1-0.2c0,0,0.1,0,0.2,0c0.1,0,0.1,0.1,0.1,0.1
		c0.2,0.4,0.5,0.7,0.7,1c0.5,0.7,1.2,1.1,2,1.2c0.3,0.1,0.6,0,0.8-0.1c0.3-0.2,0.7-0.3,1-0.6c0.4-0.4,0.8-0.8,1-1.3
		c0.2-0.5,0.5-1,0.7-1.4c0.5-0.7,1-1.2,1.8-1.6c0.1,0,0.2-0.1,0.3-0.1c0,0,0.1,0,0.1,0.1c0,0,0,0.1,0,0.2C26.1,3,26.1,3,26,3
		c-0.4,0.3-0.7,0.6-0.9,1c-0.1,0.1-0.2,0.2-0.3,0.3c-0.1,0.1-0.1,0.1-0.2,0.2c-0.1,0.1-0.1,0.1,0,0.2c0,0.1,0.1,0.1,0.2,0.1
		c0.1,0,0.2-0.1,0.3-0.2c0.1-0.1,0.1-0.1,0.2-0.2c0.1-0.1,0.2-0.2,0.3-0.1c0.2,0.1,0,0.2,0,0.3c0,0.1,0,0.1,0.1,0.1
		c0.1,0,0.2,0,0.2,0c0.1-0.2,0.2-0.3,0.4-0.4c0.1,0,0.1,0,0.1,0c0,0,0,0.1,0,0.1c0,0-0.1,0.1-0.1,0.1c0,0.1,0,0.1,0,0.2
		c0.1,0.1,0.1,0.1,0.2,0c0.1-0.1,0.2-0.2,0.3-0.3c0.2-0.1,0.2-0.2,0.3,0c0.1,0.1,0.2,0.2,0.3,0.1c0.2-0.1,0.3,0,0.4,0
		c0.2,0.1,0.4,0.1,0.7,0.1c0.1,0,0.2,0,0.2,0.1C28.8,4.9,28.7,4.9,28.6,4.9z"/>
	<polygon class="st0" points="27.3,5.1 27.3,5.1 27.3,5.1 27.3,5.1 	"/>
	<path class="st0" d="M20.5,21.7c0.1,0,0.2-0.1,0.2-0.2c0-0.2-0.1-0.3-0.3-0.3c-0.1,0-0.2,0.1-0.2,0.3
		C20.2,21.7,20.4,21.7,20.5,21.7z"/>
	<path class="st0" d="M17.5,27.6c-0.1,0-0.2,0.1-0.2,0.2c0,0.1,0.1,0.2,0.2,0.2c0.1,0,0.2-0.1,0.2-0.2
		C17.7,27.7,17.6,27.6,17.5,27.6z"/>
	<path class="st0" d="M20.5,18.2c0,0-0.1,0-0.1,0c-0.1,0-0.2,0.2-0.2,0.3c0,0.1,0.2,0.3,0.3,0.2c0.1-0.1,0.1-0.2,0.1-0.3
		C20.6,18.4,20.5,18.3,20.5,18.2z"/>
	<path class="st0" d="M13.3,28.2L13.3,28.2L13.3,28.2c-0.1,0-0.2,0.1-0.2,0.2c0,0.1,0.1,0.2,0.2,0.2c0.1,0,0.2-0.1,0.3-0.2
		C13.5,28.3,13.4,28.2,13.3,28.2z"/>
	<polygon class="st0" points="19.8,19.6 19.8,19.6 19.8,19.6 	"/>
	<path class="st0" d="M19.8,19.6c0.2,0,0.3-0.1,0.3-0.3c0-0.1-0.1-0.2-0.2-0.2c-0.2,0-0.3,0.1-0.2,0.3
		C19.7,19.6,19.7,19.6,19.8,19.6z"/>
	<path class="st0" d="M14.2,28.3c-0.1,0-0.2,0.1-0.2,0.2c0,0.1,0.1,0.2,0.3,0.2c0.1,0,0.2-0.1,0.2-0.2
		C14.4,28.4,14.3,28.3,14.2,28.3z"/>
	<path class="st0" d="M8.7,18.4L8.7,18.4c0.1,0,0.2-0.1,0.2-0.2c0-0.1-0.1-0.2-0.2-0.2c-0.1,0-0.2,0.1-0.2,0.2
		C8.5,18.3,8.6,18.4,8.7,18.4z"/>
	<path class="st0" d="M21.4,21.1c-0.1,0-0.2,0.1-0.2,0.2c0,0.1,0.1,0.2,0.2,0.2c0.1,0,0.3-0.1,0.3-0.2
		C21.6,21.2,21.5,21.1,21.4,21.1z"/>
	<polygon class="st0" points="15,25.2 15,25.2 15,25.2 	"/>
	<path class="st0" d="M15,25.2L15,25.2c0,0.1,0.1,0.3,0.2,0.2c0.1,0,0.2-0.1,0.2-0.2c0-0.1-0.1-0.2-0.2-0.2
		C15.1,25.1,15,25.1,15,25.2z"/>
	<path class="st0" d="M9.3,15.6c-0.1,0-0.2,0.1-0.2,0.2h0c0,0.1,0.1,0.2,0.2,0.2c0.1,0,0.2-0.1,0.3-0.2C9.5,15.7,9.4,15.6,9.3,15.6z
		"/>
	<path class="st0" d="M9.2,12.5c0.1,0,0.2-0.1,0.2-0.2c0-0.1-0.1-0.2-0.2-0.2c-0.1,0-0.2,0.1-0.2,0.2C8.9,12.4,9,12.6,9.2,12.5z"/>
	<path class="st0" d="M16.3,28.1L16.3,28.1c-0.1,0-0.2,0-0.2,0.1c0,0.1,0.1,0.2,0.2,0.2c0.1,0,0.2-0.1,0.2-0.2
		C16.5,28.2,16.4,28.1,16.3,28.1z"/>
	<path class="st0" d="M7.5,20.8c0.1,0,0.2,0,0.2-0.1c0-0.1-0.1-0.2-0.2-0.2v0c-0.1,0-0.2,0.1-0.2,0.2C7.3,20.7,7.4,20.8,7.5,20.8z"
		/>
	<path class="st0" d="M20,20.5c0.1,0,0.2-0.1,0.2-0.2h0c0-0.1-0.1-0.2-0.2-0.2c-0.1,0-0.2,0.1-0.2,0.3C19.8,20.5,19.9,20.6,20,20.5z
		"/>
	<path class="st0" d="M20.8,14c0.1,0,0.2,0,0.2-0.1c0-0.1-0.1-0.2-0.2-0.3c-0.1,0-0.2,0-0.2,0.1C20.5,13.8,20.6,14,20.8,14z"/>
	<path class="st0" d="M19.6,25.7c-0.1,0-0.2,0.1-0.2,0.2c0,0.1,0.1,0.2,0.2,0.3c0.1,0,0.2-0.1,0.2-0.2
		C19.8,25.8,19.7,25.7,19.6,25.7z"/>
	<path class="st0" d="M12.5,25.9c0-0.1-0.1-0.2-0.3-0.2c-0.1,0-0.2,0.1-0.2,0.2c0,0.1,0.1,0.2,0.2,0.2C12.5,26.1,12.6,26,12.5,25.9z
		"/>
	<path class="st0" d="M7.7,19L7.7,19c0.1,0,0.2-0.1,0.2-0.2c0-0.1-0.1-0.2-0.3-0.2c-0.1,0-0.1,0.1-0.1,0.2C7.5,19,7.6,19,7.7,19z"/>
	<path class="st0" d="M11.4,27.1L11.4,27.1L11.4,27.1c-0.1,0-0.2,0.1-0.2,0.2c0,0.1,0.1,0.3,0.2,0.3c0.1,0,0.2-0.1,0.2-0.2
		C11.6,27.2,11.5,27.1,11.4,27.1z"/>
	<path class="st0" d="M16.4,25.9c0-0.1-0.1-0.2-0.2-0.2c-0.1,0-0.2,0.1-0.2,0.2c0,0.1,0.1,0.2,0.2,0.2C16.3,26.1,16.4,26,16.4,25.9z
		"/>
	<polygon class="st0" points="16.1,26.1 16.2,26.1 16.1,26.1 16.1,26.1 	"/>
	<path class="st0" d="M21.2,18.4c0.1,0,0.2-0.1,0.2-0.2c0-0.1-0.1-0.2-0.2-0.2c-0.1,0-0.2,0.1-0.2,0.3C21,18.3,21.1,18.4,21.2,18.4z
		"/>
	<path class="st0" d="M16.2,26.9c0-0.1-0.1-0.2-0.2-0.2c-0.1,0-0.2,0.1-0.2,0.2c0,0.1,0.1,0.2,0.2,0.2C16.1,27,16.2,27,16.2,26.9z"
		/>
	<path class="st0" d="M21.3,22.2c-0.1,0-0.2,0.1-0.2,0.2c0,0.1,0.1,0.2,0.2,0.2c0.1,0,0.2-0.1,0.2-0.2
		C21.5,22.3,21.5,22.2,21.3,22.2z"/>
	<path class="st0" d="M20.1,14c-0.2,0-0.2,0.1-0.2,0.2c0,0.1,0.1,0.2,0.2,0.2v0c0.1,0,0.2-0.1,0.1-0.2C20.2,14,20.1,14,20.1,14z"/>
	<polygon class="st0" points="20.1,14.4 20.1,14.4 20.1,14.4 	"/>
	<path class="st0" d="M13.6,24.6c0-0.1,0-0.1-0.1-0.2c-0.1-0.1-0.3,0-0.3,0.2c0,0.1,0,0.1,0.1,0.2C13.5,24.8,13.6,24.7,13.6,24.6z"
		/>
	<path class="st0" d="M18.1,10.7c0-0.1,0-0.1-0.1-0.2c-0.1,0-0.2,0.1-0.2,0.2c0,0.1,0.1,0.2,0.2,0.2C18,10.9,18.1,10.8,18.1,10.7z"
		/>
	<path class="st0" d="M14.4,24.9c0-0.1-0.1-0.2-0.2-0.2c-0.1,0-0.2,0.1-0.2,0.2c0,0.1,0.1,0.2,0.2,0.2v0
		C14.4,25,14.4,24.9,14.4,24.9z"/>
	<path class="st0" d="M15.2,28.5L15.2,28.5L15.2,28.5c-0.1,0-0.2,0.1-0.2,0.2c0,0.1,0.1,0.2,0.3,0.2c0.1,0,0.2-0.1,0.2-0.2
		C15.4,28.5,15.3,28.4,15.2,28.5z"/>
	<polygon class="st0" points="19.6,25 19.6,25 19.6,25 	"/>
	<path class="st0" d="M19.6,25L19.6,25c0-0.1-0.1-0.1-0.1-0.2c-0.1,0-0.2,0.1-0.3,0.2c0,0.1,0.1,0.2,0.2,0.2
		C19.5,25.2,19.6,25.1,19.6,25z"/>
	<path class="st0" d="M21.4,15.7c0.1,0,0.1,0,0.2-0.1c0-0.1-0.1-0.2-0.2-0.2c-0.1,0-0.2,0.1-0.2,0.2C21.1,15.6,21.2,15.7,21.4,15.7z
		"/>
	<path class="st0" d="M21,14.7c0-0.1,0-0.2-0.1-0.2c-0.1,0-0.2,0.1-0.2,0.2c0,0.1,0.1,0.2,0.2,0.2C20.9,14.8,20.9,14.8,21,14.7z"/>
	<path class="st0" d="M13.3,27.4c-0.1,0-0.2,0.1-0.2,0.2c0,0.1,0.1,0.2,0.2,0.2c0.1,0,0.2-0.1,0.2-0.2
		C13.5,27.4,13.4,27.4,13.3,27.4z"/>
	<path class="st0" d="M15.1,26.5c0.1,0,0.2-0.1,0.2-0.2h0c0-0.1-0.1-0.2-0.2-0.2c-0.1,0-0.1,0.1-0.1,0.2
		C14.9,26.4,15,26.5,15.1,26.5z"/>
	<path class="st0" d="M17,26.2L17,26.2L17,26.2c-0.1,0-0.2,0.1-0.2,0.2c0,0.1,0,0.2,0.1,0.2c0.1,0,0.2-0.1,0.2-0.1
		C17.2,26.3,17.2,26.2,17,26.2z"/>
	<path class="st0" d="M14,22.6c0,0.1,0.1,0.2,0.2,0.2v0c0.1,0,0.2-0.1,0.2-0.2c0-0.1-0.1-0.2-0.2-0.1C14.1,22.3,14,22.5,14,22.6z"/>
	<path class="st0" d="M9.3,16.5L9.3,16.5c-0.1,0-0.2,0.1-0.2,0.2c0,0.1,0.1,0.2,0.2,0.2s0.2-0.1,0.2-0.2C9.5,16.6,9.4,16.5,9.3,16.5
		z"/>
	<path class="st0" d="M12.3,26.7c-0.1,0-0.2,0.1-0.1,0.2c0,0.1,0.1,0.2,0.2,0.1c0.1,0,0.2-0.1,0.2-0.2
		C12.6,26.7,12.4,26.7,12.3,26.7z"/>
	<path class="st0" d="M11.3,11.9c-0.1,0-0.2,0.1-0.2,0.2c0,0.1,0.1,0.2,0.2,0.2c0.1,0,0.2-0.1,0.2-0.2h0
		C11.4,12,11.3,11.9,11.3,11.9z"/>
	<path class="st0" d="M13.8,21.6L13.8,21.6c-0.1,0-0.2,0.1-0.2,0.2c0,0.1,0.1,0.1,0.2,0.1c0.1,0,0.2-0.1,0.2-0.2
		C13.9,21.7,13.9,21.6,13.8,21.6z"/>
	<path class="st0" d="M18.2,26c-0.1,0-0.2,0.1-0.1,0.2c0,0.1,0.1,0.2,0.2,0.2c0.1,0,0.2-0.1,0.2-0.2C18.3,26.1,18.2,26,18.2,26z"/>
	<path class="st0" d="M21.5,19.5c0.1,0,0.2-0.1,0.2-0.2c0-0.1-0.1-0.2-0.1-0.2c-0.1,0-0.2,0.1-0.2,0.2h0
		C21.4,19.4,21.4,19.4,21.5,19.5z"/>
	<path class="st0" d="M20.9,19.3c0-0.1-0.1-0.2-0.2-0.2c-0.1,0-0.2,0.1-0.2,0.2c0,0.1,0.1,0.1,0.1,0.1v0
		C20.8,19.5,20.9,19.4,20.9,19.3z"/>
	<path class="st0" d="M18.6,11.2L18.6,11.2c0,0.1,0.1,0.2,0.2,0.2c0.1,0,0.2-0.1,0.2-0.1c0-0.1-0.1-0.2-0.2-0.2
		C18.7,11,18.6,11.1,18.6,11.2z"/>
	<path class="st0" d="M18.7,25.5L18.7,25.5c-0.1,0-0.2,0.1-0.2,0.2c0,0.1,0.1,0.2,0.2,0.2c0.1,0,0.2-0.1,0.2-0.2
		C19,25.5,18.8,25.4,18.7,25.5z"/>
	<path class="st0" d="M8.5,15.4c0.1,0,0.2-0.1,0.2-0.2c0-0.1-0.1-0.2-0.2-0.2c-0.1,0-0.2,0.1-0.2,0.2C8.4,15.3,8.4,15.3,8.5,15.4z"
		/>
	<polygon class="st0" points="10.7,25.8 10.7,25.8 10.7,25.8 10.7,25.8 	"/>
	<path class="st0" d="M10.7,25.5c-0.1,0-0.2,0.1-0.2,0.2c0,0.1,0.1,0.1,0.2,0.1c0.1,0,0.2,0,0.2-0.1C10.9,25.6,10.8,25.5,10.7,25.5z
		"/>
	<path class="st0" d="M12.8,10.7c0.1,0,0.2-0.1,0.2-0.2c0-0.1-0.1-0.2-0.2-0.2c-0.1,0-0.2,0.1-0.2,0.2
		C12.6,10.6,12.7,10.7,12.8,10.7z"/>
	<polygon class="st0" points="12.8,10.7 12.8,10.7 12.8,10.7 	"/>
	<path class="st0" d="M19.2,17.7c0-0.1-0.1-0.2-0.2-0.2c-0.1,0-0.2,0.1-0.2,0.2c0,0.1,0.1,0.2,0.2,0.2v0
		C19.1,17.9,19.2,17.8,19.2,17.7z"/>
	<path class="st0" d="M9.4,23.8c0-0.1-0.1-0.2-0.2-0.2c-0.1,0-0.1,0.1-0.1,0.2C9.1,24,9.2,24,9.3,24C9.4,24,9.4,24,9.4,23.8
		L9.4,23.8z"/>
	<path class="st0" d="M11.8,10.8L11.8,10.8L11.8,10.8c0.1,0,0.2-0.1,0.2-0.2c0-0.1-0.1-0.2-0.1-0.2c-0.1,0-0.2,0.1-0.2,0.2
		C11.7,10.7,11.8,10.8,11.8,10.8z"/>
	<path class="st0" d="M20.1,16.6L20.1,16.6c0,0.1,0.1,0.2,0.2,0.2c0.1,0,0.2-0.1,0.2-0.2c0-0.1-0.1-0.2-0.2-0.2
		C20.2,16.3,20.1,16.4,20.1,16.6z"/>
	<path class="st0" d="M16.1,10.7L16.1,10.7c0,0.1,0.1,0.2,0.2,0.2c0.1,0,0.2,0,0.2-0.1c0-0.1-0.1-0.2-0.2-0.2
		C16.2,10.5,16.1,10.6,16.1,10.7z"/>
	<path class="st0" d="M20.2,24.3L20.2,24.3c-0.1,0-0.1,0.1-0.1,0.1c0,0.1,0.1,0.3,0.2,0.2c0.1,0,0.1-0.1,0.1-0.1
		C20.5,24.4,20.4,24.3,20.2,24.3z"/>
	<path class="st0" d="M19.5,17c0.1,0,0.2-0.1,0.2-0.2c0-0.1-0.1-0.2-0.1-0.2c-0.1,0-0.2,0.1-0.2,0.2C19.4,17,19.4,17,19.5,17z"/>
	<path class="st0" d="M19.4,24.1L19.4,24.1c0.1,0,0.2-0.1,0.2-0.2c0-0.1-0.1-0.2-0.2-0.1c-0.1,0-0.2,0.1-0.2,0.2
		C19.2,24,19.3,24.1,19.4,24.1z"/>
	<path class="st0" d="M10.2,11.1c0.1,0,0.1-0.1,0.1-0.2h0c0-0.1-0.1-0.2-0.2-0.2c-0.1,0-0.2,0.1-0.2,0.2
		C10,11.1,10.1,11.2,10.2,11.1z"/>
	<path class="st0" d="M8.4,17.3c0,0.1,0.1,0.2,0.2,0.2c0.1,0,0.2-0.1,0.2-0.2c0-0.1-0.1-0.2-0.2-0.2C8.4,17.1,8.4,17.2,8.4,17.3
		L8.4,17.3C8.4,17.3,8.4,17.3,8.4,17.3C8.4,17.3,8.4,17.3,8.4,17.3L8.4,17.3z"/>
	<path class="st0" d="M19.7,17.6c0,0.1,0.1,0.2,0.2,0.2c0.1,0,0.2-0.1,0.2-0.2c0-0.1-0.1-0.2-0.2-0.2h0h0
		C19.8,17.4,19.7,17.5,19.7,17.6z"/>
	<path class="st0" d="M7.8,15.9L7.8,15.9L7.8,15.9c0.1,0,0.2,0,0.2-0.2c0-0.1-0.1-0.2-0.1-0.2c-0.1,0-0.2,0.1-0.2,0.2
		C7.6,15.8,7.7,15.9,7.8,15.9z"/>
	<path class="st0" d="M15.4,27.5L15.4,27.5c-0.1,0-0.2,0-0.2,0.1c0,0.1,0.1,0.2,0.2,0.2c0.1,0,0.2-0.1,0.2-0.2
		C15.6,27.6,15.5,27.5,15.4,27.5z"/>
	<path class="st0" d="M15.8,9.6c0.1,0,0.2-0.1,0.2-0.2c0-0.1-0.1-0.2-0.1-0.2c-0.1,0-0.2,0.1-0.2,0.2C15.6,9.5,15.7,9.6,15.8,9.6z"
		/>
	<polygon class="st0" points="15.8,9.6 15.8,9.6 15.8,9.6 	"/>
	<path class="st0" d="M12.1,9.9c0,0.1,0,0.1,0.1,0.2c0.1,0,0.2-0.1,0.2-0.2c0-0.1,0-0.1-0.1-0.2C12.2,9.6,12.1,9.7,12.1,9.9z"/>
	<path class="st0" d="M16.8,27.2L16.8,27.2c-0.1,0-0.2,0.1-0.1,0.2c0,0.1,0.1,0.2,0.2,0.2c0.1,0,0.2-0.1,0.2-0.2
		C17,27.2,16.9,27.2,16.8,27.2z"/>
	<path class="st0" d="M19.9,11.6L19.9,11.6c0.1,0,0.1-0.1,0.1-0.2c0-0.1-0.1-0.2-0.2-0.2c-0.1,0-0.1,0.1-0.1,0.1
		C19.6,11.5,19.7,11.6,19.9,11.6z"/>
	<path class="st0" d="M13.5,26.3c-0.1,0-0.2,0.1-0.2,0.2c0,0.1,0.1,0.2,0.2,0.1c0.1,0,0.2-0.1,0.2-0.2
		C13.7,26.4,13.6,26.3,13.5,26.3z"/>
	<path class="st0" d="M15.3,21.2c-0.1,0-0.2,0.1-0.2,0.1c0,0.1,0.1,0.2,0.2,0.2c0.1,0,0.2-0.1,0.2-0.1
		C15.5,21.3,15.4,21.2,15.3,21.2z"/>
	<polygon class="st0" points="8.6,13.3 8.6,13.3 8.6,13.3 8.6,13.3 	"/>
	<path class="st0" d="M8.6,13.3c0.1,0,0.2-0.1,0.2-0.2c0-0.1,0-0.2-0.1-0.2c-0.1,0-0.2,0.1-0.2,0.2C8.4,13.2,8.5,13.3,8.6,13.3z"/>
	<path class="st0" d="M21,23.3c-0.1,0-0.2,0.1-0.2,0.2c0,0.1,0.1,0.1,0.1,0.1c0.1,0,0.2-0.1,0.2-0.2C21.1,23.3,21.1,23.3,21,23.3z"
		/>
	<path class="st0" d="M8.5,22.7L8.5,22.7c0-0.1-0.1-0.2-0.2-0.2c-0.1,0-0.2,0.1-0.1,0.2c0,0.1,0.1,0.1,0.2,0.1
		C8.4,22.8,8.5,22.8,8.5,22.7z"/>
	<polygon class="st0" points="8.5,22.7 8.5,22.7 8.5,22.7 	"/>
	<path class="st0" d="M14.2,23.4L14.2,23.4c0.1,0,0.1,0,0.1-0.1c0-0.1-0.1-0.2-0.2-0.2c-0.1,0-0.2,0.1-0.2,0.2
		C14,23.4,14.1,23.4,14.2,23.4z"/>
	<path class="st0" d="M19.2,26.5c-0.1,0-0.2,0-0.2,0.2c0,0.1,0.1,0.2,0.2,0.2c0.1,0,0.2-0.1,0.2-0.2C19.3,26.5,19.2,26.5,19.2,26.5z
		"/>
	<path class="st0" d="M17.9,25.6L17.9,25.6L17.9,25.6c0.1,0,0.2-0.1,0.2-0.2c0-0.1-0.1-0.2-0.2-0.2c-0.1,0-0.2,0-0.2,0.1
		C17.7,25.5,17.8,25.6,17.9,25.6z"/>
	<polygon class="st0" points="9,14.7 9,14.7 9,14.7 	"/>
	<path class="st0" d="M9.3,14.7c0-0.1-0.1-0.2-0.2-0.2C9,14.5,9,14.6,9,14.7c0,0.1,0.1,0.2,0.2,0.2C9.2,14.8,9.3,14.8,9.3,14.7z"/>
	<path class="st0" d="M16.6,9.1L16.6,9.1L16.6,9.1c0,0.1,0.1,0.1,0.2,0.1c0.1,0,0.2-0.1,0.2-0.2c0-0.1-0.1-0.1-0.1-0.1
		C16.7,8.9,16.6,9,16.6,9.1z"/>
	<path class="st0" d="M12.1,9.3L12.1,9.3c0.1,0,0.2-0.1,0.2-0.2C12.3,9,12.2,9,12.2,9C12.1,8.9,12,9,12,9.1
		C11.9,9.2,12,9.3,12.1,9.3z"/>
	<path class="st0" d="M14.9,22.1c0.1,0,0.2-0.1,0.2-0.2c0-0.1-0.1-0.2-0.2-0.2c-0.1,0-0.2,0.1-0.2,0.2C14.8,22,14.8,22.1,14.9,22.1z
		"/>
	<polygon class="st0" points="14.8,22 14.8,22 14.8,22 	"/>
	<path class="st0" d="M8.7,21.8L8.7,21.8L8.7,21.8c-0.1,0-0.2,0.1-0.1,0.2c0,0.1,0.1,0.1,0.2,0.1c0.1,0,0.2-0.1,0.2-0.2
		C8.8,21.9,8.8,21.8,8.7,21.8z"/>
	<path class="st0" d="M21.3,16.3L21.3,16.3c0,0.1,0.1,0.2,0.2,0.2c0.1,0,0.1-0.1,0.1-0.1c0-0.1-0.1-0.2-0.1-0.2
		C21.4,16.1,21.3,16.2,21.3,16.3z"/>
	<path class="st0" d="M13,9.6L13,9.6c0.1,0,0.2,0,0.2-0.1c0-0.1,0-0.2-0.1-0.2c-0.1,0-0.2,0.1-0.2,0.2C12.9,9.5,12.9,9.6,13,9.6z"/>
	<path class="st0" d="M13.1,25.6c0,0.1,0.1,0.2,0.2,0.2c0.1,0,0.2-0.1,0.2-0.2c0-0.1-0.1-0.2-0.2-0.2v0h0
		C13.2,25.4,13.1,25.5,13.1,25.6z"/>
	<path class="st0" d="M12.3,27.8L12.3,27.8c-0.1,0-0.1,0.1-0.1,0.2c0,0.1,0.1,0.2,0.2,0.2c0.1,0,0.2-0.1,0.2-0.2
		C12.5,27.8,12.4,27.7,12.3,27.8z"/>
	<path class="st0" d="M11.7,11.5L11.7,11.5c0.1,0,0.2-0.1,0.2-0.2c0-0.1-0.1-0.1-0.1-0.1c-0.1,0-0.2,0.1-0.2,0.1
		C11.6,11.4,11.6,11.4,11.7,11.5z"/>
	<polygon class="st0" points="11.7,11.5 11.7,11.5 11.7,11.5 	"/>
	<path class="st0" d="M21.5,17c0,0.1,0,0.1,0.1,0.2c0.1,0,0.2,0,0.2-0.1c0-0.1,0-0.2-0.1-0.2v0l0,0C21.6,16.8,21.5,16.9,21.5,17z"/>
	<path class="st0" d="M13.3,20.9c-0.1,0-0.2,0-0.2,0.1h0c0,0.1,0,0.2,0.1,0.2c0.1,0,0.2,0,0.2-0.1C13.4,21.1,13.4,21,13.3,20.9z"/>
	<path class="st0" d="M20.9,20.5c0-0.1-0.1-0.2-0.1-0.2c-0.1,0-0.2,0.1-0.2,0.2c0,0.1,0,0.2,0.1,0.2C20.8,20.6,20.9,20.6,20.9,20.5
		L20.9,20.5z"/>
	<path class="st0" d="M21.6,20.1c-0.1,0-0.2,0.1-0.2,0.2c0,0.1,0,0.1,0.1,0.2c0.1,0,0.2-0.1,0.2-0.2C21.7,20.2,21.7,20.1,21.6,20.1z
		"/>
	<path class="st0" d="M11.4,26.4c0.1,0,0.2-0.1,0.2-0.2c0-0.1-0.1-0.2-0.2-0.1c-0.1,0-0.1,0.1-0.1,0.2
		C11.2,26.3,11.3,26.4,11.4,26.4z"/>
	<path class="st0" d="M15.5,23.1c0,0.1,0.1,0.2,0.2,0.2c0.1,0,0.1,0,0.2-0.1c0-0.1,0-0.2-0.1-0.2v0C15.6,22.9,15.5,23,15.5,23.1z"/>
	<polygon class="st0" points="15.7,22.9 15.7,22.9 15.7,22.9 	"/>
	<path class="st0" d="M8.2,14.6L8.2,14.6c0.1,0,0.1-0.1,0.1-0.2c0-0.1-0.1-0.1-0.2-0.1C8,14.3,8,14.4,8,14.5
		C8,14.6,8.1,14.6,8.2,14.6z"/>
	<path class="st0" d="M12.7,23.2c-0.1,0-0.2,0.1-0.1,0.2c0,0.1,0.1,0.1,0.1,0.1c0.1,0,0.2-0.1,0.2-0.2
		C12.8,23.2,12.8,23.2,12.7,23.2z"/>
	<path class="st0" d="M9.7,11.8c0.1,0,0.2-0.1,0.1-0.2c0-0.1-0.1-0.1-0.2-0.1c-0.1,0-0.2,0.1-0.1,0.2C9.6,11.8,9.6,11.8,9.7,11.8z"
		/>
	<path class="st0" d="M17.5,11.6c0-0.1-0.1-0.2-0.2-0.2l0,0h0c-0.1,0-0.2,0.1-0.2,0.2c0,0.1,0.1,0.1,0.1,0.2
		C17.4,11.8,17.5,11.7,17.5,11.6z"/>
	<path class="st0" d="M14.8,23.6c0,0.1,0.1,0.2,0.2,0.2c0.1,0,0.1,0,0.2-0.1h0c0-0.1-0.1-0.2-0.2-0.2C14.9,23.5,14.9,23.5,14.8,23.6
		z"/>
	<polygon class="st0" points="15.2,23.7 15.2,23.7 15.2,23.7 	"/>
	<path class="st0" d="M14.3,27.1L14.3,27.1c-0.1,0-0.1,0.1-0.2,0.1c0,0.1,0.1,0.2,0.2,0.2c0.1,0,0.1-0.1,0.1-0.1
		C14.5,27.2,14.4,27.1,14.3,27.1z"/>
	<path class="st0" d="M17.9,12.3c0.1,0,0.2,0,0.2-0.1c0-0.1,0-0.2-0.2-0.2h0v0c-0.1,0-0.2,0.1-0.2,0.2
		C17.8,12.2,17.9,12.3,17.9,12.3z"/>
	<path class="st0" d="M10.7,26.5c-0.1,0-0.1,0.1-0.2,0.1c0,0.1,0.1,0.2,0.2,0.2c0.1,0,0.1-0.1,0.2-0.1
		C10.9,26.6,10.8,26.5,10.7,26.5z"/>
	<polygon class="st0" points="10.6,12.2 10.6,12.2 10.6,12.2 	"/>
	<path class="st0" d="M10.3,12.3c0,0.1,0.1,0.1,0.2,0.1c0.1,0,0.1-0.1,0.1-0.1c0-0.1-0.1-0.1-0.2-0.1C10.3,12.1,10.2,12.2,10.3,12.3
		z"/>
	<polygon class="st0" points="9.5,17.5 9.5,17.5 9.5,17.5 	"/>
	<path class="st0" d="M9.3,17.7c0,0.1,0,0.2,0.2,0.2c0.1,0,0.1,0,0.1-0.1c0-0.1,0-0.2-0.1-0.2l0,0C9.4,17.5,9.3,17.6,9.3,17.7z"/>
	<path class="st0" d="M7.7,18c0.1,0,0.1-0.1,0.1-0.1c0-0.1-0.1-0.2-0.2-0.2c-0.1,0-0.2,0.1-0.2,0.2C7.6,18,7.6,18,7.7,18z"/>
	<path class="st0" d="M14.3,8.9c0.1,0,0.1-0.1,0.1-0.2c0-0.1-0.1-0.1-0.2-0.1c-0.1,0-0.1,0.1-0.1,0.1C14.1,8.9,14.2,8.9,14.3,8.9z"
		/>
	<path class="st0" d="M19.6,18.6c0.1,0,0.2-0.1,0.1-0.2c0-0.1-0.1-0.1-0.1-0.1c-0.1,0-0.2,0.1-0.1,0.2
		C19.4,18.6,19.5,18.6,19.6,18.6z"/>
	<path class="st0" d="M20.1,13.3c0.1,0,0.1,0,0.2-0.1c0-0.1,0-0.2-0.1-0.2c-0.1,0-0.1,0-0.2,0.1C20,13.2,20,13.3,20.1,13.3z"/>
	<path class="st0" d="M8.5,23.5c-0.1,0-0.1,0.1-0.1,0.2c0,0.1,0.1,0.2,0.2,0.2c0.1,0,0.1-0.1,0.1-0.2C8.7,23.5,8.6,23.4,8.5,23.5z"
		/>
	<polygon class="st0" points="8.5,23.5 8.5,23.5 8.5,23.5 	"/>
	<path class="st0" d="M19.4,12.7c-0.1,0-0.1,0.1-0.1,0.1h0v0c0,0.1,0,0.1,0.1,0.2c0.1,0,0.2-0.1,0.2-0.2
		C19.5,12.7,19.5,12.7,19.4,12.7z"/>
	<polygon class="st0" points="16.5,9.6 16.5,9.6 16.5,9.6 	"/>
	<path class="st0" d="M16.5,9.9c0.1,0,0.2-0.1,0.1-0.2c0-0.1-0.1-0.1-0.1-0.1c-0.1,0-0.2,0.1-0.2,0.2C16.4,9.9,16.4,9.9,16.5,9.9z"
		/>
	<path class="st0" d="M19.2,12.2L19.2,12.2c0,0.1,0.1,0.2,0.2,0.1c0.1,0,0.1-0.1,0.1-0.2c0-0.1-0.1-0.2-0.2-0.2
		C19.3,12,19.2,12,19.2,12.2z"/>
	<path class="st0" d="M18.5,27.1L18.5,27.1L18.5,27.1c-0.1,0-0.2,0.1-0.1,0.2c0,0.1,0.1,0.1,0.2,0.1c0.1,0,0.2-0.1,0.2-0.2
		C18.7,27.1,18.6,27.1,18.5,27.1z"/>
	<path class="st0" d="M20.2,24c0.1,0,0.2-0.1,0.2-0.2c0-0.1-0.1-0.1-0.2-0.1c-0.1,0-0.2,0.1-0.1,0.2C20.1,24,20.2,24,20.2,24z"/>
	<path class="st0" d="M20.7,17.1c0,0.1,0,0.1,0.1,0.2c0.1,0,0.2,0,0.2-0.1c0-0.1,0-0.2-0.1-0.2C20.8,17,20.7,17,20.7,17.1z"/>
	<path class="st0" d="M8.7,13.9c0,0.1,0.1,0.1,0.1,0.1c0.1,0,0.1,0,0.2-0.1c0-0.1-0.1-0.2-0.2-0.2C8.7,13.8,8.7,13.8,8.7,13.9z"/>
	<path class="st0" d="M15.1,10.1L15.1,10.1L15.1,10.1c0.1,0,0.1,0,0.2-0.1c0-0.1-0.1-0.2-0.1-0.2c-0.1,0-0.1,0-0.2,0.1
		C15,10,15,10.1,15.1,10.1z"/>
	<path class="st0" d="M8.3,21.3c0-0.1-0.1-0.2-0.2-0.2c0,0-0.1,0.1-0.1,0.1c0,0.1,0.1,0.2,0.2,0.2C8.3,21.4,8.3,21.3,8.3,21.3z"/>
	<path class="st0" d="M17.8,10.2L17.8,10.2L17.8,10.2c0.1,0,0.1-0.1,0.1-0.2s-0.1-0.2-0.2-0.1c-0.1,0-0.1,0.1-0.1,0.2
		C17.7,10.2,17.7,10.2,17.8,10.2z"/>
	<path class="st0" d="M17.2,9.5c0,0.1,0.1,0.2,0.2,0.2c0.1,0,0.1-0.1,0.2-0.2c0-0.1,0-0.1-0.1-0.1C17.3,9.3,17.3,9.4,17.2,9.5z"/>
	<path class="st0" d="M7.8,16.9c0.1,0,0.2-0.1,0.2-0.2c0-0.1,0-0.1-0.1-0.2c-0.1,0-0.2,0.1-0.2,0.2C7.6,16.9,7.7,16.9,7.8,16.9z"/>
	<path class="st0" d="M10,25.9L10,25.9c-0.1,0-0.2,0.1-0.2,0.2c0,0.1,0.1,0.2,0.2,0.2c0.1,0,0.1-0.1,0.1-0.1
		C10.2,26,10.1,25.9,10,25.9z"/>
	<path class="st0" d="M14.5,25.7c0-0.1-0.1-0.1-0.1-0.1c-0.1,0-0.2,0.1-0.2,0.2c0,0.1,0.1,0.1,0.1,0.1
		C14.5,25.8,14.5,25.8,14.5,25.7z"/>
	<polygon class="st0" points="15.1,24.4 15.1,24.4 15.1,24.4 	"/>
	<path class="st0" d="M15.1,24.4c0-0.1-0.1-0.1-0.2-0.1c-0.1,0-0.1,0.1-0.1,0.1c0,0.1,0.1,0.2,0.2,0.2C15,24.6,15.1,24.5,15.1,24.4z
		"/>
	<path class="st0" d="M17.2,11L17.2,11c0-0.1,0-0.1-0.1-0.2c-0.1,0-0.2,0.1-0.2,0.2c0,0.1,0,0.1,0.1,0.2
		C17.1,11.2,17.2,11.1,17.2,11z"/>
	<path class="st0" d="M13.7,10.9L13.7,10.9c0.1,0,0.2,0,0.2-0.1c0-0.1,0-0.1-0.1-0.2c-0.1,0-0.2,0-0.2,0.1
		C13.6,10.8,13.6,10.9,13.7,10.9z"/>
	<path class="st0" d="M14.9,23L14.9,23c0.1,0,0.1,0,0.2-0.1c0-0.1-0.1-0.2-0.2-0.2c-0.1,0-0.1,0-0.2,0.1C14.7,23,14.8,23.1,14.9,23z
		"/>
	<path class="st0" d="M15.4,10.6L15.4,10.6c-0.1,0-0.1,0.1-0.2,0.1c0,0.1,0.1,0.2,0.2,0.2c0.1,0,0.1-0.1,0.1-0.1
		C15.5,10.7,15.5,10.6,15.4,10.6z"/>
	<path class="st0" d="M14.7,10.8c0.1,0,0.1-0.1,0.1-0.2c0-0.1-0.1-0.2-0.2-0.2c-0.1,0-0.1,0.1-0.1,0.2
		C14.5,10.7,14.6,10.8,14.7,10.8z"/>
	<path class="st0" d="M20,15.4c0,0.1,0.1,0.1,0.2,0.1l0,0c0.1,0,0.1-0.1,0.1-0.2c0-0.1-0.1-0.2-0.2-0.1C20,15.2,20,15.3,20,15.4z"/>
	<path class="st0" d="M8.7,16.2c0-0.1,0-0.1-0.1-0.2c-0.1,0-0.2,0.1-0.2,0.2c0,0.1,0,0.1,0.1,0.2C8.6,16.4,8.7,16.3,8.7,16.2z"/>
	<path class="st0" d="M15.6,22.2c-0.1,0-0.1,0.1-0.1,0.2c0,0.1,0.1,0.2,0.2,0.1c0.1,0,0.1-0.1,0.1-0.1
		C15.8,22.3,15.7,22.2,15.6,22.2z"/>
	<path class="st0" d="M16.9,10.2L16.9,10.2L16.9,10.2c0,0.1,0.1,0.2,0.1,0.2c0.1,0,0.1,0,0.2-0.1c0-0.1-0.1-0.2-0.2-0.2
		C16.9,10.1,16.9,10.1,16.9,10.2z"/>
	<path class="st0" d="M15.4,9c0.1,0,0.1-0.1,0.1-0.1c0-0.1-0.1-0.1-0.1-0.1c-0.1,0-0.1,0-0.2,0.1C15.2,9,15.3,9,15.4,9z"/>
	<polygon class="st0" points="15.4,9 15.4,9 15.4,9 15.4,9 	"/>
	<path class="st0" d="M13.4,23.3L13.4,23.3c-0.1,0-0.2,0.1-0.2,0.2c0,0.1,0.1,0.1,0.1,0.1c0.1,0,0.2,0,0.2-0.1
		C13.6,23.4,13.5,23.3,13.4,23.3z"/>
	<polygon class="st0" points="7.6,19.7 7.6,19.7 7.6,19.7 	"/>
	<path class="st0" d="M7.6,19.9c0.1,0,0.1-0.1,0.1-0.1c0-0.1,0-0.1-0.1-0.1c-0.1,0-0.1,0.1-0.1,0.1C7.5,19.9,7.5,19.9,7.6,19.9z"/>
	<path class="st0" d="M17,25.6c0.1,0,0.1-0.1,0.1-0.1c0-0.1-0.1-0.1-0.2-0.1c-0.1,0-0.1,0.1-0.1,0.2C16.9,25.6,16.9,25.6,17,25.6z"
		/>
	<path class="st0" d="M14.3,21.1C14.3,21.1,14.3,21.1,14.3,21.1c-0.1,0-0.1,0.1-0.1,0.2c0,0.1,0.1,0.1,0.1,0.1
		c0.1,0,0.1-0.1,0.2-0.1C14.5,21.2,14.4,21.1,14.3,21.1z"/>
	<path class="st0" d="M10.7,11.6c0,0.1,0.1,0.1,0.2,0.1c0.1,0,0.1-0.1,0.1-0.2c0-0.1-0.1-0.1-0.1-0.1C10.7,11.4,10.7,11.5,10.7,11.6
		z"/>
	<path class="st0" d="M13.4,22.5c-0.1,0-0.1,0.1-0.2,0.1c0,0.1,0.1,0.2,0.2,0.2c0.1,0,0.1,0,0.2-0.1C13.6,22.6,13.5,22.5,13.4,22.5z
		"/>
	<path class="st0" d="M18,9.1L18,9.1C18,9.1,18,9.1,18,9.1C18,9.1,18,9.1,18,9.1L18,9.1c0.1,0,0.1-0.1,0.1-0.1
		c0-0.1-0.1-0.1-0.2-0.1c-0.1,0-0.1,0.1-0.1,0.1C17.9,9.1,18,9.2,18,9.1z"/>
	<path class="st0" d="M14.3,9.8c-0.1,0-0.2,0.1-0.2,0.2c0,0.1,0.1,0.1,0.2,0.1c0.1,0,0.1-0.1,0.1-0.1v0C14.4,9.9,14.3,9.8,14.3,9.8z
		"/>
	<path class="st0" d="M10.5,10.4L10.5,10.4c0.1,0,0.2-0.1,0.2-0.2c0-0.1,0-0.1-0.1-0.1c-0.1,0-0.2,0.1-0.2,0.2
		C10.4,10.3,10.5,10.4,10.5,10.4z"/>
	<path class="st0" d="M15.7,10.2c0,0.1,0,0.1,0.1,0.2c0.1,0,0.1,0,0.2-0.1c0-0.1,0-0.1-0.1-0.1C15.8,10.1,15.7,10.1,15.7,10.2z"/>
	<path class="st0" d="M9.2,23c0-0.1-0.1-0.2-0.2-0.2c-0.1,0-0.1,0-0.2,0.1c0,0.1,0.1,0.2,0.2,0.2v0c0,0,0,0,0,0c0,0,0,0,0,0l0,0
		C9.2,23.2,9.2,23.1,9.2,23z"/>
	<path class="st0" d="M9.8,23.6c0.1,0,0.1,0,0.2-0.1h0c0-0.1,0-0.1-0.1-0.1c-0.1,0-0.1,0.1-0.1,0.1C9.7,23.6,9.8,23.6,9.8,23.6z"/>
	<polygon class="st0" points="17.9,26.7 17.9,26.7 17.9,26.7 17.9,26.7 	"/>
	<path class="st0" d="M17.9,26.7c-0.1,0-0.2,0.1-0.2,0.2c0,0.1,0,0.1,0.1,0.1c0.1,0,0.2,0,0.2-0.1C18,26.8,18,26.7,17.9,26.7z"/>
	<path class="st0" d="M9,24.5L9,24.5c-0.1,0-0.1,0.1-0.1,0.1c0,0.1,0,0.1,0.1,0.1c0.1,0,0.2-0.1,0.2-0.2C9.1,24.6,9.1,24.5,9,24.5z"
		/>
	<path class="st0" d="M18.5,10.5L18.5,10.5c0,0.1,0,0.1,0.1,0.2c0.1,0,0.1,0,0.2-0.1c0-0.1,0-0.1-0.1-0.2
		C18.5,10.3,18.5,10.4,18.5,10.5z"/>
	<path class="st0" d="M19.4,11c0.1,0,0.1-0.1,0.1-0.1c0-0.1-0.1-0.1-0.1-0.2c-0.1,0-0.1,0.1-0.1,0.1C19.2,10.9,19.3,11,19.4,11z"/>
	<path class="st0" d="M11.4,10.1c0.1,0,0.2-0.1,0.2-0.2c0,0,0-0.1-0.1-0.1c-0.1,0-0.2,0.1-0.2,0.2C11.2,10,11.3,10,11.4,10.1z"/>
	<path class="st0" d="M11,10.9c0.1,0,0.2-0.1,0.1-0.2v0c0-0.1-0.1-0.1-0.2-0.1c-0.1,0-0.2,0.1-0.1,0.2C10.9,10.8,11,10.9,11,10.9z"
		/>
	<path class="st0" d="M13.1,24.1L13.1,24.1c0-0.1,0-0.1-0.1-0.2c-0.1,0-0.2,0.1-0.2,0.1c0,0.1,0.1,0.1,0.1,0.1
		C13,24.2,13.1,24.2,13.1,24.1z"/>
	<path class="st0" d="M14.7,9.4c0.1,0,0.1-0.1,0.1-0.1c0-0.1-0.1-0.1-0.1-0.1c-0.1,0-0.1,0.1-0.1,0.1S14.7,9.4,14.7,9.4z"/>
	<path class="st0" d="M7.9,21.8C7.9,21.8,7.9,21.8,7.9,21.8c-0.1,0-0.1,0.1-0.1,0.2c0,0.1,0.1,0.1,0.2,0.1C8,22,8,22,8,21.9
		C8,21.8,8,21.8,7.9,21.8z"/>
	<path class="st0" d="M18.5,9.8c0.1,0,0.2-0.1,0.2-0.1h0c0-0.1-0.1-0.2-0.2-0.2c-0.1,0-0.1,0-0.2,0.1C18.3,9.7,18.4,9.8,18.5,9.8z"
		/>
	<path class="st0" d="M13.5,10.2c0.1,0,0.1-0.1,0.1-0.1c0-0.1-0.1-0.2-0.2-0.1c-0.1,0-0.1,0.1-0.1,0.2
		C13.4,10.2,13.4,10.2,13.5,10.2z"/>
	<path class="st0" d="M18,11.3L18,11.3c0,0.1,0,0.2,0.1,0.2c0.1,0,0.1,0,0.2-0.1c0-0.1,0-0.1-0.1-0.2C18.1,11.2,18,11.2,18,11.3z"/>
	<path class="st0" d="M14.1,24L14.1,24c0.1,0,0.1-0.1,0.1-0.1c0-0.1,0-0.1-0.1-0.1c-0.1,0-0.2,0-0.2,0.1C14,24,14.1,24,14.1,24z"/>
	<path class="st0" d="M17.3,8.7c0.1,0,0.1-0.1,0.1-0.2c0-0.1-0.1-0.1-0.2-0.1c-0.1,0-0.1,0.1-0.1,0.1C17.1,8.7,17.2,8.7,17.3,8.7z"
		/>
	<path class="st0" d="M19.4,13.5c0,0.1,0,0.1,0.1,0.1c0.1,0,0.1,0,0.2-0.1c0-0.1-0.1-0.1-0.1-0.1S19.4,13.4,19.4,13.5z"/>
	<path class="st0" d="M16.6,8.5L16.6,8.5c0.1,0,0.1,0,0.1-0.1c0-0.1,0-0.1-0.1-0.1c-0.1,0-0.1,0.1-0.1,0.1
		C16.5,8.4,16.5,8.5,16.6,8.5z"/>
	<path class="st0" d="M18.7,12.1c0.1,0,0.1,0,0.1-0.1c0-0.1,0-0.1-0.1-0.2c-0.1,0-0.1,0-0.2,0.1C18.6,12,18.6,12.1,18.7,12.1z"/>
	<path class="st0" d="M9.5,25.4c-0.1,0-0.1,0.1-0.1,0.1c0,0.1,0,0.1,0.1,0.2c0.1,0,0.1,0,0.1-0.1C9.6,25.4,9.6,25.4,9.5,25.4z"/>
	<path class="st0" d="M13.4,9c0.1,0,0.1,0,0.2-0.1c0-0.1-0.1-0.1-0.1-0.1c-0.1,0-0.1,0-0.1,0.1C13.3,8.9,13.4,8.9,13.4,9z"/>
	<polygon class="st0" points="13.4,9 13.4,9 13.4,9 	"/>
	<path class="st0" d="M17.1,12.4c0.1,0,0.1,0,0.2-0.1c0-0.1,0-0.1-0.1-0.1c-0.1,0-0.2,0-0.2,0.1C17,12.4,17,12.4,17.1,12.4z"/>
	<path class="st0" d="M13.8,9.5c0.1,0,0.1,0,0.1-0.1c0-0.1-0.1-0.1-0.1-0.1s-0.1,0-0.1,0.1C13.7,9.5,13.7,9.5,13.8,9.5z"/>
	<path class="st0" d="M11.9,12.2L11.9,12.2c0,0-0.1,0.1-0.1,0.1c0,0.1,0,0.1,0.1,0.1c0.1,0,0.1,0,0.1-0.1
		C12.1,12.3,12,12.2,11.9,12.2z"/>
	<polygon class="st0" points="19.1,10.2 19.1,10.2 19.1,10.2 	"/>
	<path class="st0" d="M19.1,10.2c0.1,0,0.1-0.1,0.1-0.1c0-0.1,0-0.1-0.1-0.1C19,10,19,10,19,10.1C19,10.2,19,10.2,19.1,10.2z"/>
	<path class="st0" d="M20.3,12.4L20.3,12.4c0.1,0,0.1,0,0.1-0.1c0-0.1-0.1-0.1-0.2-0.1c-0.1,0-0.1,0.1-0.1,0.1
		C20.2,12.4,20.2,12.4,20.3,12.4z"/>
	<polygon class="st0" points="13.8,8.5 13.8,8.5 13.8,8.5 	"/>
	<path class="st0" d="M13.8,8.5L13.8,8.5c0.1,0,0.1,0,0.1-0.1c0-0.1-0.1-0.1-0.1-0.1c-0.1,0-0.1,0.1-0.1,0.1
		C13.7,8.4,13.7,8.5,13.8,8.5z"/>
	<path class="st0" d="M16.1,8.9c0.1,0,0.1,0,0.2-0.1c0-0.1,0-0.1-0.1-0.1c-0.1,0-0.1,0-0.2,0.1C16,8.8,16.1,8.9,16.1,8.9z"/>
	<polygon class="st0" points="12.8,8.7 12.8,8.7 12.8,8.7 	"/>
	<path class="st0" d="M12.8,8.7C12.8,8.7,12.9,8.7,12.8,8.7c0.1-0.2,0.1-0.2,0-0.2c-0.1,0-0.1,0-0.1,0.1C12.7,8.7,12.7,8.7,12.8,8.7
		z"/>
	<path class="st0" d="M18.5,12.8c0.1,0,0.1,0,0.1-0.1c0-0.1,0-0.1-0.1-0.1v0h0c0,0-0.1,0-0.1,0.1C18.4,12.8,18.5,12.8,18.5,12.8z"/>
	<path class="st0" d="M14.8,16.5c0.1,0,0.2-0.1,0.2-0.2h0c0-0.1-0.1-0.2-0.2-0.2c-0.1,0-0.2,0.1-0.2,0.2
		C14.6,16.4,14.7,16.5,14.8,16.5z"/>
	<path class="st0" d="M14.9,15.6c0.1,0,0.1-0.1,0.1-0.1c0-0.1,0-0.2-0.1-0.2c-0.1,0-0.1,0-0.2,0.1C14.7,15.5,14.8,15.6,14.9,15.6z"
		/>
	<path class="st0" d="M14.1,16.2c0.1,0,0.1,0,0.1-0.1h0h0c0-0.1,0-0.1-0.1-0.2c-0.1,0-0.2,0.1-0.2,0.2C13.9,16.2,14,16.2,14.1,16.2z
		"/>
	<polygon class="st0" points="14.3,15.2 14.3,15.2 14.3,15.2 	"/>
	<path class="st0" d="M14.2,15.5c0.1,0,0.1-0.1,0.1-0.1c0-0.1,0-0.1-0.1-0.2c-0.1,0-0.1,0-0.2,0.1C14.1,15.3,14.2,15.5,14.2,15.5z"
		/>
	<path class="st0" d="M14.4,14.6c0.1,0,0.1,0,0.2-0.1c0-0.1,0-0.1-0.1-0.1h0c0,0,0,0,0,0c0,0,0,0,0,0v0c-0.1,0-0.1,0-0.2,0.1
		C14.3,14.5,14.3,14.6,14.4,14.6z"/>
	<path class="st0" d="M14,16.7C14,16.7,14,16.7,14,16.7c0.1,0.1,0.2,0.1,0.2,0c0,0,0-0.1-0.1-0.1C14,16.6,14,16.6,14,16.7z"/>
	<path class="st0" d="M11.8,15.2c-0.1,0-0.1,0.1-0.1,0.1s0,0.1,0.1,0.1c0.1,0,0.1,0,0.1-0.1C11.9,15.2,11.9,15.2,11.8,15.2z"/>
	<path class="st0" d="M11.7,15.9C11.7,16,11.7,16,11.7,15.9c0.1,0.1,0.1,0.1,0.2,0c0,0,0-0.1-0.1-0.1C11.7,15.8,11.7,15.9,11.7,15.9
		z"/>
	<path class="st0" d="M12.2,14.5C12.2,14.5,12.2,14.5,12.2,14.5C12.2,14.5,12.2,14.5,12.2,14.5C12.2,14.4,12.1,14.4,12.2,14.5
		L12.2,14.5C12.1,14.5,12.1,14.5,12.2,14.5z"/>
	<path class="st0" d="M11.6,16.7C11.6,16.7,11.6,16.7,11.6,16.7c0.1,0,0.1,0,0.1,0C11.7,16.7,11.7,16.6,11.6,16.7
		C11.7,16.6,11.6,16.7,11.6,16.7z"/>
	<polygon class="st0" points="11.8,14.7 11.8,14.7 11.8,14.7 	"/>
	<path class="st0" d="M17,15.5c0.1,0,0.1-0.1,0.1-0.2c0-0.1-0.1-0.2-0.2-0.1c-0.1,0-0.1,0.1-0.1,0.2C16.8,15.4,16.9,15.5,17,15.5z"
		/>
	<polygon class="st0" points="17.1,15.3 17.1,15.3 17.1,15.3 17.1,15.3 	"/>
	<path class="st0" d="M17.1,16c0,0.1,0.1,0.1,0.1,0.1c0.1,0,0.1-0.1,0.1-0.1c0-0.1-0.1-0.1-0.1-0.1h0C17.1,15.9,17,15.9,17.1,16z"/>
	<path class="st0" d="M17,14.7c0.1,0,0.1-0.1,0.1-0.1c0,0-0.1,0-0.1,0C16.9,14.6,16.9,14.6,17,14.7C16.9,14.7,16.9,14.7,17,14.7z"/>
	<path class="st0" d="M17.5,14.9C17.5,14.9,17.5,14.9,17.5,14.9c-0.1-0.1-0.1-0.1-0.1-0.1C17.4,14.9,17.4,15,17.5,14.9
		C17.5,15,17.5,15,17.5,14.9z"/>
	<polygon class="st0" points="17.5,14.9 17.5,14.9 17.5,14.9 	"/>
	<polygon class="st0" points="17.7,15.5 17.7,15.5 17.7,15.5 	"/>
	<path class="st0" d="M17.7,15.5L17.7,15.5C17.6,15.4,17.6,15.4,17.7,15.5c-0.1,0-0.1,0-0.1,0C17.5,15.5,17.6,15.5,17.7,15.5
		C17.6,15.5,17.6,15.5,17.7,15.5z"/>
	<path class="st0" d="M15.3,19.3c0.1,0,0.1-0.1,0.1-0.1c0-0.1,0-0.1-0.1-0.1c-0.1,0-0.1,0.1-0.1,0.1C15.2,19.2,15.3,19.3,15.3,19.3z
		"/>
	<path class="st0" d="M14.4,19.1L14.4,19.1L14.4,19.1C14.3,19.1,14.3,19,14.4,19.1c-0.1-0.1-0.1-0.1-0.2-0.1c0,0,0,0.1,0,0.1
		C14.3,19.2,14.3,19.2,14.4,19.1z"/>
	<path class="st0" d="M13.7,18.8c-0.1,0-0.1,0-0.1,0.1v0c0,0.1,0.1,0.1,0.1,0.1c0.1,0,0.1,0,0.1-0.1C13.8,18.8,13.8,18.8,13.7,18.8z
		"/>
	<path class="st0" d="M15,18.8C15,18.8,15,18.7,15,18.8c-0.1-0.1-0.1-0.1-0.1-0.1C14.8,18.8,14.8,18.8,15,18.8
		C14.9,18.8,15,18.8,15,18.8z"/>
	<path class="st0" d="M9.3,21.3c0.1,0,0.2-0.1,0.2-0.2c0-0.1,0-0.1,0-0.2c-0.1-0.3,0-0.5,0.3-0.7c0.2-0.1,0.4,0,0.4,0.2
		c0,0.4,0,0.8-0.3,1.2c-0.1,0.2-0.2,0.3-0.3,0.4c-0.1,0.1-0.1,0.3-0.1,0.5c0.1,0.2,0.2,0.4,0.5,0.3c0.2,0,0.4,0,0.6,0
		c0.1,0,0.2,0.1,0.2,0.2c-0.1,0.5-0.2,1.1-0.8,1.3c-0.3,0.1-0.3,0.3-0.1,0.6c0.1,0.1,0.2,0.2,0.4,0.2c0.2,0,0.4,0,0.6-0.1
		c0.3,0,0.7-0.1,1-0.1c0.2,0,0.4,0.1,0.5,0.1c0.3,0,0.5-0.2,0.3-0.5c-0.1-0.1-0.2-0.2-0.3-0.3c-0.2-0.2-0.3-0.5-0.2-0.7
		c0-0.2,0-0.3,0.1-0.5c0-0.1,0.1-0.2,0.2-0.3c0.1,0,0.1,0,0.2,0c0.3-0.1,0.4-0.3,0.1-0.6c-0.1-0.1-0.3-0.2-0.3-0.3
		c0-0.5,0-1,0.2-1.4c0-0.1,0.1-0.1,0.2-0.1c0.1,0,0.2,0.1,0.3,0.1c0.6,0.2,1.3,0.4,2,0.3l0,0l0,0h0c0.1,0,0.1,0,0.2,0
		c0.1,0,0.2,0,0.3,0c0.2,0,0.3,0.1,0.4,0.3c0,0.1,0.1,0.2,0.1,0.3c0.1,0.7,0.2,1.5,0.2,2.2c0,0.2-0.1,0.4-0.2,0.5
		c-0.1,0.1-0.2,0.1-0.3,0.2c-0.2,0.2-0.2,0.4-0.1,0.6c0.2,0.3,0.4,0.3,0.7,0.3c0.6-0.1,1.2-0.3,1.9-0.2c0,0,0.1,0,0.1,0
		c0.4-0.1,0.5-0.4,0.3-0.7c-0.1-0.2-0.3-0.3-0.5-0.4c-0.2-0.1-0.4-0.2-0.4-0.5c-0.1-0.4-0.3-0.7-0.3-1.1c-0.1-1-0.3-2.1-0.5-3.1
		c0,0,0-0.1,0-0.1c0-0.1,0-0.1,0.1-0.1c0.1,0,0.1,0,0.2,0c0.1,0.1,0.2,0.2,0.2,0.3c0.3,0.4,0.3,0.9,0.4,1.3c0.1,0.5,0.1,0.9,0.2,1.4
		c0,0.3,0.1,0.6,0.3,0.8c0.4,0.5,1.5,0.7,2,0.5c0,0,0.1,0,0.1-0.1c0.3-0.2,0.3-0.7,0-0.8c0,0-0.1,0-0.1,0c-0.4-0.1-0.6-0.4-0.8-0.8
		c-0.2-0.5-0.4-1.1-0.5-1.6c-0.1-0.7-0.3-1.5-1-1.9c-0.2-0.1-0.1-0.2,0-0.4c0.2-0.1,0.4-0.2,0.5-0.4c0.7-0.8,0.8-1.7,0.6-2.6
		c-0.2-0.8-1.1-1.5-1.9-1.6c-0.3,0-0.5,0-0.8-0.1c-0.2,0-0.2-0.1-0.2-0.3c0,0,0,0,0-0.1c0.2-0.3,0.1-0.6,0-0.8
		c-0.1-0.2-0.2-0.2-0.4-0.2c-0.5,0.1-1,0.1-1.5,0c-0.4-0.1-0.8-0.1-1.1-0.2c-0.3-0.1-0.6-0.1-0.8,0.1c-0.3,0.1-0.3,0.4-0.1,0.6
		c0.1,0.1,0.2,0.1,0.3,0.2c0.1,0.1,0.2,0.1,0.2,0.2c0.1,0.2,0,0.4-0.2,0.4c-0.4,0-0.8,0-1.2,0c-0.5,0-1.1,0-1.6-0.1
		c-0.5,0-0.8,0.4-0.6,0.9c0.1,0.1,0.1,0.2,0.2,0.3c0.1,0.2,0.2,0.4,0.2,0.7c0,0.8,0.1,1.6,0.1,2.4c0,0.1,0,0.3,0,0.4
		c0,0.3,0,0.6,0.1,0.8c0,0.1-0.1,0.2-0.2,0.2c-0.1,0-0.2,0-0.2,0c-0.8,0.2-1.3,0.8-1.4,1.6c0,0.4,0.1,0.7,0.3,0.9
		C8.8,21.3,9.1,21.3,9.3,21.3z M17.2,22.2c0.1,0.4,0.2,0.9,0.3,1.3c0.1,0.2,0.2,0.4,0.4,0.5c0.1,0.1,0.2,0.1,0.4,0.2
		c0.1,0.1,0.2,0.2,0.1,0.3c-0.1,0.1-0.1,0.1-0.2,0.1c-0.1,0-0.1,0-0.2-0.1c-0.1,0-0.3,0-0.4,0c-0.4,0.2-0.8,0.1-1.1,0.3
		c-0.1,0-0.1,0-0.2,0c-0.1,0-0.2-0.1-0.2-0.2c0-0.1,0-0.1,0.1-0.2c0,0,0.1-0.1,0.1-0.1c0.5-0.2,0.5-0.6,0.5-1.1
		c-0.1-0.9-0.2-1.7-0.3-2.6c0,0,0-0.1,0-0.1c0-0.2-0.1-0.3-0.3-0.2c-0.7,0.2-1.4,0.1-2,0c-0.3,0-0.6-0.2-0.8-0.3
		c-0.6-0.3-0.7-0.2-0.9,0.5c-0.1,0.2-0.1,0.5-0.1,0.7c0,0.6-0.2,1.2-0.3,1.9c0,0.2-0.1,0.3-0.1,0.5c0,0.4,0,0.8,0.4,1
		c0.1,0,0,0.2-0.1,0.2c-0.2,0-0.3,0-0.5,0l0,0l0,0c-0.3,0-0.6,0-0.9,0.1c-0.1,0-0.2,0-0.3,0c0,0-0.1,0-0.1-0.1c0-0.1,0-0.1,0-0.2
		c0,0,0,0,0,0c0.6-0.3,0.8-0.8,0.8-1.4c0-0.6,0.2-1.1,0.3-1.6s0.3-1.1,0.4-1.6c0-0.2,0-0.3-0.2-0.4c-0.1-0.1-0.2-0.2-0.2-0.3
		c-0.1-0.2,0-0.3,0.2-0.3c0.1,0,0.1,0,0.2,0c0.1,0,0.2-0.1,0.2-0.2c0-0.3,0.1-0.6,0.1-0.9c0-0.1,0.1-0.3,0.1-0.4
		c0.3-0.9,0.4-1.8,0.6-2.7c0-0.2,0.1-0.4,0.1-0.6c0-0.1,0.1-0.2,0.3-0.2c0.1,0,0.1,0,0.2,0c0.3,0,0.4,0.1,0.3,0.4
		c-0.2,0.5-0.3,0.9-0.4,1.4c-0.2,0.8-0.5,1.5-0.5,2.3c0,0.2-0.1,0.4-0.1,0.6c0,0.1-0.1,0.2-0.1,0.3c0,0.2,0.1,0.3,0.2,0.3
		c0.6,0.2,1.2,0.4,1.8,0.5c0.4,0.1,0.8,0,1.2-0.1c0.3-0.1,0.4-0.2,0.3-0.5c0-0.2-0.1-0.5-0.1-0.7c0-0.1,0.1-0.2,0.2-0.2
		c0.3,0,0.5,0.2,0.5,0.4c0,0.6,0.2,1.2,0.2,1.8C17,21.2,17.1,21.7,17.2,22.2z M11.6,18.5C11.6,18.5,11.7,18.5,11.6,18.5
		c0.1,0.2,0.1,0.2,0,0.2c-0.1,0-0.1,0-0.1-0.1C11.4,18.5,11.5,18.5,11.6,18.5z M11.6,17.3c-0.1-0.1-0.2-0.2-0.2-0.3
		c-0.1-0.5-0.1-1-0.1-1.5v0h0c0-0.3,0-0.6,0-0.9c0-0.2,0.1-0.3,0.3-0.3c0.2-0.1,0.5-0.1,0.7-0.1c0.2,0,0.3,0.1,0.3,0.3
		c-0.2,0.7-0.3,1.4-0.5,2.1c0,0.2-0.1,0.4-0.1,0.6C11.9,17.3,11.7,17.3,11.6,17.3z M13.7,15.3c0.1-0.4,0.2-0.7,0.3-1.1
		c0-0.2,0.2-0.2,0.3-0.2c0.1,0,0.2,0,0.3,0c0.4,0,0.4,0,0.5,0.4c0.1,0.7,0.2,1.4,0.3,2.1c0,0.1,0,0.1,0,0.2c0,0.2-0.1,0.3-0.3,0.3
		c-0.2,0-0.4,0-0.6,0c-0.4,0-0.7,0-1,0.1c-0.2,0-0.3-0.1-0.3-0.3C13.5,16.4,13.6,15.9,13.7,15.3z M14,18.5c0.4,0.1,0.8-0.1,1.2-0.1
		c0.5-0.1,0.5,0,0.5,0.4c0,0.1,0,0.2,0,0.3c0,0.3-0.1,0.5-0.4,0.5c-0.4,0.1-0.8,0-1.2-0.1c-0.4-0.1-0.7-0.3-1.1-0.4
		c-0.1,0-0.2-0.1-0.2-0.2c0-0.1,0.1-0.2,0.2-0.3c0.1,0,0.1-0.1,0.2-0.1C13.5,18.5,13.8,18.5,14,18.5L14,18.5z M16.6,13
		c0.3,0,0.6,0.1,0.9,0.1c0.3,0.1,0.5,0.2,0.7,0.4c0.4,0.4,0.8,0.8,0.8,1.4c0,0.1,0,0.1,0,0.2l0,0c0,0.8-0.3,1.4-0.9,1.9
		c-0.2,0.2-0.5,0.4-0.8,0.4c-0.1,0-0.1,0-0.1,0.1c0,0-0.1,0.1-0.1,0.1c0,0,0.1,0.1,0.1,0.1c0.1,0,0.1,0.1,0.2,0.1
		c0.4,0.1,0.7,0.3,0.9,0.7c0.2,0.3,0.3,0.6,0.3,1c0.1,0.5,0.2,1,0.4,1.5c0.1,0.2,0.2,0.5,0.3,0.7c0.1,0.3,0.3,0.5,0.6,0.7
		c0.1,0,0.1,0.1,0.2,0.1s0.1,0.1,0.1,0.2c0,0.1-0.1,0.1-0.2,0.1c-0.4,0.1-0.8,0-1.1-0.2c-0.2-0.1-0.4-0.3-0.4-0.6
		c-0.1-0.6-0.2-1.3-0.3-1.9c-0.1-0.4-0.2-0.8-0.4-1.2c-0.1-0.2-0.3-0.4-0.6-0.5c-0.1-0.1-0.2-0.1-0.3-0.2c-0.4-0.3-0.8-0.3-1.3-0.3
		c-0.3,0-0.6,0.1-0.9,0.1c-0.4,0-0.8,0-1.3,0.1c-0.2,0-0.3-0.1-0.3-0.2c0-0.2,0.1-0.4,0.3-0.4c0.1,0,0.3,0,0.4,0
		c0.6,0,1.1,0,1.7-0.1c0.4-0.1,0.8-0.1,1.1-0.2c0.4-0.1,0.7-0.3,1-0.5c0.5-0.4,0.7-0.9,0.7-1.5c0-0.5-0.2-0.8-0.7-1.1
		c-0.3-0.2-0.7-0.2-1-0.3c-0.3,0-0.3-0.1-0.4-0.3c0,0,0-0.1,0-0.1C16.2,13.1,16.3,13,16.6,13z M16.8,14.1c0.3,0.1,0.6,0.2,0.9,0.4
		c0.2,0.2,0.3,0.4,0.3,0.7c0,0.4-0.1,0.7-0.4,1c-0.2,0.2-0.4,0.3-0.6,0.4c-0.1,0.1-0.2,0-0.3-0.1c0-0.1-0.1-0.2-0.1-0.3
		c-0.1-0.6-0.2-1.2-0.2-1.6C16.4,14.2,16.4,14.1,16.8,14.1z M13,11.8c-0.1,0-0.1-0.1-0.1-0.2c0-0.1,0.1-0.1,0.2-0.1h0
		c0.1,0,0.2,0,0.3,0.1c0.3,0.1,0.6,0.1,0.9,0.2c0.4,0.1,0.9,0.1,1.3,0.1c0.1,0,0.2,0,0.3,0c0.2,0,0.3,0.2,0.2,0.4
		c0,0.1-0.1,0.2-0.1,0.2c-0.2,0.3-0.2,0.6-0.2,0.9c0.2,1,0.3,1.9,0.4,2.9c0,0.2,0,0.3,0,0.5c0,0.1-0.1,0.2-0.1,0.2
		c-0.2,0.1-0.4,0-0.4-0.2c0-0.2-0.1-0.5-0.1-0.7c-0.1-0.6-0.1-1.1-0.2-1.7c0-0.3-0.2-0.7-0.1-1c0-0.2-0.1-0.4-0.3-0.5
		c-0.1-0.1-0.2-0.1-0.3-0.1c-0.2,0-0.5,0-0.7,0.1c-0.1,0-0.2,0-0.3,0c-0.2,0-0.3-0.1-0.3-0.3C13.4,12.2,13.3,12,13,11.8z M9.9,13.7
		c-0.2-0.2,0-0.5,0.3-0.5c0.1,0,0.1,0,0.2,0c1.4,0.1,2.8,0.1,4.2,0c0.3,0,0.5,0.1,0.5,0.4c0,0.1-0.1,0.2-0.2,0.2c-0.1,0-0.3,0-0.4,0
		c-0.7,0-1.3,0-2,0c-0.3,0-0.5,0-0.8,0.1c-0.2,0-0.3,0.1-0.4,0.2c-0.1,0.1-0.2,0.2-0.2,0.3V16v0v0c0,0.2,0,0.6,0,1
		c0,0.1,0,0.2,0,0.3c0,0.2,0.1,0.3,0.3,0.3c0.1,0,0.1,0,0.2,0c0.1,0,0.2,0,0.2,0.1c0,0.1,0,0.3-0.1,0.4c-0.1,0.1-0.2,0.1-0.3,0.1
		c-0.3,0.1-0.4,0.3-0.4,0.6c-0.1,0.5-0.1,1,0.1,1.5c0.1,0.3,0.1,0.5,0,0.7c-0.1,0.4-0.2,0.8-0.3,1.2c0,0.1-0.1,0.2-0.3,0.2
		c-0.2,0-0.3,0.1-0.5,0.1c-0.2,0-0.3-0.2-0.2-0.4c0.4-0.5,0.6-1.2,0.5-1.8c-0.1-0.7,0-1.4,0-2.1c0-0.1,0-0.2,0-0.2
		c-0.1-0.4,0-0.9-0.1-1.3c-0.1-0.6-0.1-1.1-0.1-1.7c0-0.3-0.1-0.6-0.1-0.9C10.1,13.9,10,13.8,9.9,13.7z M8.8,19.7
		c0.1-0.4,0.7-0.9,1.2-0.8c0.1,0,0.1,0.1,0.1,0.1c0,0.2,0,0.3-0.1,0.4c-0.1,0.1-0.2,0.2-0.3,0.2c-0.4,0.1-0.5,0.3-0.6,0.7
		c0,0.1,0,0.2,0,0.3c0,0.1-0.1,0.1-0.1,0.2c-0.1,0-0.1,0-0.2-0.1c-0.2-0.2-0.1-0.4-0.2-0.6C8.7,20.1,8.7,19.9,8.8,19.7z"/>
</g>
</svg>
