<?xml version="1.0" encoding="utf-8"?>
<!-- Generator: Adobe Illustrator 27.5.0, SVG Export Plug-In . SVG Version: 6.00 Build 0)  -->
<svg version="1.1" id="Layer_1" xmlns:xodm="http://www.corel.com/coreldraw/odm/2003"
	 xmlns="http://www.w3.org/2000/svg" xmlns:xlink="http://www.w3.org/1999/xlink" x="0px" y="0px" viewBox="0 0 114.5 58.6"
	 style="enable-background:new 0 0 114.5 58.6;" xml:space="preserve">
<style type="text/css">
	.st0{fill:#371810;}
</style>
<g id="Layer_x0020_1">
	<path class="st0" d="M48,12.6c1,0,2.1-0.5,3.3-1.6c1.2-1,2.7-2.8,4.4-5.2c1-1.4,1.8-2.5,2.5-3.3c0.7-0.7,1.1-1.1,1.3-1.1
		c0,0,0.1,0,0.1,0c0,0,0,0.1,0,0.1c0,0-0.2,0.3-0.6,0.9c-0.4,0.6-0.9,1.2-1.3,1.9c-0.1,0.2-0.3,0.5-0.5,0.9
		c-1.7,2.9-3.2,4.9-4.4,5.9c-0.7,0.6-1.5,1.1-2.3,1.5c-0.8,0.3-1.6,0.5-2.3,0.5c-0.8,0-1.5-0.2-2-0.6c-0.5-0.4-0.7-0.9-0.7-1.5
		c0-0.4,0.1-0.6,0.3-0.9c0.2-0.2,0.5-0.3,0.8-0.3c0.2,0,0.4,0.1,0.6,0.2c0.1,0.1,0.2,0.3,0.2,0.5c0,0.2-0.1,0.4-0.2,0.5
		c-0.1,0.1-0.3,0.2-0.6,0.2c0,0-0.1,0-0.2,0c-0.1,0-0.2,0-0.2,0c0,0-0.1,0-0.1,0c0,0,0,0.1,0,0.1c0,0.3,0.2,0.6,0.6,0.9
		C47,12.5,47.5,12.6,48,12.6L48,12.6z M14,29c0,0.3,0,0.6,0,0.9c0,0.3-0.1,0.7-0.1,1c-0.1,0.3-0.2,0.7-0.3,0.9
		c-0.2,0.3-0.3,0.5-0.6,0.7c-0.2,0.1-0.4,0.2-0.6,0.2c-0.2,0-0.5,0-0.7,0c-0.4-0.1-1-0.4-1.4-1.3c-0.4-0.8-0.7-2.1-0.7-4.2v-0.1
		c0-1.5,0.2-2.8,0.6-3.7c0.4-1,1-1.6,1.8-1.8c0.8-0.2,1.6,0.3,1.9,0.6l1-1c-0.2-0.1-0.5-0.4-0.8-0.6c-0.6-0.3-1.5-0.6-2.4-0.4
		c-0.4,0.1-0.9,0.3-1.4,0.6c-0.4,0.3-0.7,0.7-1.1,1.2c-0.3,0.6-0.6,1.3-0.8,2.1c-0.2,0.8-0.3,1.8-0.3,2.9v0.1c0,1.1,0.1,2,0.2,2.9
		c0.2,0.8,0.4,1.5,0.7,2.1c0.3,0.6,0.6,1,1,1.3c0.5,0.4,0.9,0.5,1.3,0.6c0.1,0,0.3,0.1,0.4,0.1c0.1,0,0.3,0,0.4,0
		c0.3,0,0.6,0,0.9-0.1c0.3-0.1,0.5-0.2,0.8-0.4c0.4-0.3,0.7-0.6,0.9-1c0.3-0.4,0.4-0.9,0.5-1.5c0.1-0.4,0.1-0.8,0.1-1.2
		c0-0.4,0-0.7,0-1l0-0.4h0.7v-1.4h-3.6v1.4H14L14,29L14,29z M13.2,29.9c0-0.2,0-0.3,0-0.5h-1.5v-3H17v3h-0.7c0,0.2,0,0.5,0,0.7
		c0,0.4-0.1,0.8-0.1,1.3c-0.1,0.7-0.3,1.2-0.6,1.8c-0.3,0.5-0.7,1-1.2,1.3c-0.3,0.2-0.6,0.4-1,0.5c-0.4,0.1-0.7,0.2-1.1,0.2
		c-0.2,0-0.3,0-0.5,0c-0.2,0-0.3,0-0.5-0.1c-0.5-0.1-1.1-0.3-1.7-0.8c-0.4-0.3-0.8-0.8-1.2-1.5c-0.3-0.6-0.6-1.4-0.7-2.3
		c-0.2-0.9-0.2-1.9-0.2-3l0-0.1c0-1.1,0.1-2.2,0.3-3.1c0.2-0.9,0.5-1.7,0.9-2.4c0.4-0.7,0.8-1.1,1.3-1.5c0.6-0.5,1.2-0.7,1.7-0.8
		c1.2-0.2,2.2,0.1,2.9,0.5c0.7,0.4,1.2,0.8,1.2,0.9l0.4,0.4l-2.2,2.1L13.5,23c-0.1-0.1-0.7-0.7-1.4-0.5c-0.5,0.1-0.9,0.5-1.2,1.3
		c-0.3,0.8-0.5,2-0.5,3.4l0,0.1c0,2,0.3,3.2,0.6,3.9c0.3,0.6,0.6,0.8,0.9,0.9c0.2,0,0.3,0,0.5,0c0.1,0,0.2-0.1,0.3-0.1
		c0.1-0.1,0.2-0.2,0.3-0.4c0.1-0.2,0.2-0.4,0.2-0.7C13.2,30.5,13.2,30.2,13.2,29.9L13.2,29.9z M33.6,28.6l0.1-0.1
		c0.2-0.1,0.4-0.2,0.6-0.4c0.2-0.1,0.3-0.3,0.4-0.5c0.3-0.3,0.5-0.7,0.6-1.2c0.1-0.4,0.2-0.9,0.2-1.4c0-0.9-0.1-1.7-0.3-2.3
		c-0.2-0.6-0.5-1.2-0.9-1.6c-0.3-0.3-0.8-0.6-1.2-0.8c-0.5-0.2-1-0.3-1.6-0.3c-0.3,0-0.6,0-0.7,0l-0.8,0l0,13.8h1.4l0-5.5l0.7,1.3
		c0.2,0.4,0.5,1,0.9,1.6c0.5,0.8,1,1.8,1.4,2.6H36l-2.9-5.2L33.6,28.6L33.6,28.6z M34.7,28.8c-0.2,0.1-0.3,0.2-0.5,0.4l3.1,5.6h-3.5
		l-0.1-0.3c-0.4-0.8-1-1.8-1.5-2.7l-0.1-0.3l0,3.3h-3l0-15.4c0.5,0,1.1,0,1.6-0.1c0.2,0,0.5,0,0.8,0c0.7,0,1.3,0.1,1.9,0.3
		c0.6,0.2,1.1,0.6,1.5,1c0.5,0.5,0.9,1.2,1.1,1.9c0.2,0.7,0.3,1.6,0.3,2.6c0,0.6-0.1,1.1-0.3,1.6c-0.2,0.5-0.4,1-0.7,1.4
		C35.1,28.5,34.9,28.7,34.7,28.8L34.7,28.8z M34.1,25.2c0,0.6-0.1,1-0.3,1.4c-0.2,0.4-0.5,0.7-1,0.9c-0.2,0.1-0.3,0.2-0.5,0.2
		c-0.2,0.1-0.4,0.1-0.5,0.1l-0.5,0.1v-6.4l0.4,0c0.3,0,0.6,0.1,0.8,0.2c0.3,0.1,0.5,0.3,0.7,0.4c0.3,0.3,0.5,0.7,0.6,1.2
		C34,23.9,34.1,24.5,34.1,25.2z M33.1,26.2c0.2-0.3,0.2-0.6,0.2-1c0-0.6,0-1.1-0.1-1.5c-0.1-0.4-0.2-0.7-0.4-0.9
		c-0.1-0.1-0.2-0.2-0.4-0.3c-0.1,0-0.1,0-0.2-0.1v4.5c0.1,0,0.2-0.1,0.3-0.1C32.7,26.7,32.9,26.5,33.1,26.2z M53.7,20.1
		c-0.6,0-1.2,0.2-1.7,0.6c-0.5,0.4-1,0.9-1.4,1.7c-0.4,0.6-0.6,1.4-0.8,2.2c-0.2,0.8-0.3,1.7-0.3,2.6c0,0.9,0.1,1.8,0.3,2.6
		c0.2,0.8,0.5,1.6,0.8,2.2c0.4,0.7,0.9,1.3,1.4,1.7c0.5,0.4,1.1,0.6,1.7,0.6c0.6,0,1.2-0.2,1.7-0.6c0.5-0.4,1-0.9,1.4-1.7
		c0.4-0.6,0.6-1.4,0.8-2.2c0.2-0.8,0.3-1.7,0.3-2.6c0-0.9-0.1-1.8-0.3-2.6c-0.2-0.8-0.5-1.6-0.8-2.2c-0.4-0.7-0.9-1.3-1.4-1.7
		C54.8,20.3,54.3,20.1,53.7,20.1z M51.5,20c0.7-0.5,1.4-0.7,2.2-0.7c0.8,0,1.5,0.2,2.1,0.7c0.6,0.4,1.2,1.1,1.7,1.9
		c0.4,0.7,0.7,1.5,0.9,2.4c0.2,0.9,0.3,1.8,0.3,2.8c0,1-0.1,1.9-0.3,2.8c-0.2,0.9-0.5,1.7-0.9,2.4c-0.5,0.8-1,1.5-1.7,1.9
		c-0.7,0.5-1.4,0.7-2.1,0.7c-0.8,0-1.5-0.2-2.2-0.7c-0.6-0.4-1.2-1.1-1.7-1.9c-0.4-0.7-0.7-1.5-0.9-2.4c-0.2-0.9-0.3-1.8-0.3-2.8
		c0-1,0.1-1.9,0.3-2.8c0.2-0.9,0.5-1.7,0.9-2.4C50.3,21.1,50.9,20.4,51.5,20z M56.5,27.1c0,0.8-0.1,1.5-0.2,2.2
		c-0.2,0.7-0.4,1.4-0.7,1.9c-0.3,0.5-0.5,0.8-0.8,1.1c-0.3,0.3-0.7,0.4-1.1,0.4c-0.4,0-0.7-0.2-1.1-0.4c-0.3-0.3-0.6-0.6-0.8-1.1
		c-0.3-0.5-0.5-1.2-0.7-1.9c-0.2-0.7-0.2-1.5-0.2-2.2c0-0.8,0.1-1.5,0.2-2.2c0.2-0.7,0.4-1.4,0.7-1.9c0.3-0.5,0.5-0.8,0.8-1.1
		c0.3-0.3,0.7-0.4,1.1-0.4c0.4,0,0.7,0.2,1.1,0.4c0.3,0.3,0.6,0.6,0.8,1.1c0.3,0.5,0.5,1.2,0.7,1.9C56.4,25.6,56.5,26.4,56.5,27.1
		L56.5,27.1z M55.5,29.2c0.1-0.6,0.2-1.3,0.2-2.1c0-0.7-0.1-1.4-0.2-2.1c-0.1-0.6-0.4-1.2-0.6-1.7c-0.2-0.4-0.4-0.7-0.7-0.8
		c-0.2-0.2-0.4-0.2-0.5-0.2c-0.2,0-0.4,0.1-0.5,0.2c-0.2,0.2-0.5,0.5-0.7,0.8c-0.3,0.5-0.5,1.1-0.6,1.7c-0.1,0.6-0.2,1.3-0.2,2.1
		c0,0.7,0.1,1.4,0.2,2.1c0.1,0.6,0.4,1.2,0.6,1.7c0.2,0.4,0.4,0.7,0.7,0.8c0.2,0.2,0.4,0.2,0.5,0.2c0.2,0,0.3-0.1,0.5-0.2
		c0.2-0.2,0.5-0.5,0.7-0.8C55.1,30.4,55.3,29.8,55.5,29.2L55.5,29.2z M75.7,20.1c-0.6,0-1.2,0.2-1.7,0.6c-0.5,0.4-1,0.9-1.4,1.7
		c-0.4,0.6-0.6,1.4-0.8,2.2c-0.2,0.8-0.3,1.7-0.3,2.6c0,0.9,0.1,1.8,0.3,2.6c0.2,0.8,0.5,1.6,0.8,2.2c0.4,0.7,0.9,1.3,1.4,1.7
		c0.5,0.4,1.1,0.6,1.7,0.6c0.6,0,1.2-0.2,1.7-0.6c0.5-0.4,1-0.9,1.4-1.7c0.4-0.6,0.6-1.4,0.8-2.2c0.2-0.8,0.3-1.7,0.3-2.6
		c0-0.9-0.1-1.8-0.3-2.6c-0.2-0.8-0.5-1.6-0.8-2.2c-0.4-0.7-0.9-1.3-1.4-1.7C76.9,20.3,76.3,20.1,75.7,20.1z M73.5,20
		c0.7-0.5,1.4-0.7,2.2-0.7c0.8,0,1.5,0.2,2.1,0.7c0.6,0.4,1.2,1.1,1.7,1.9c0.4,0.7,0.7,1.5,0.9,2.4c0.2,0.9,0.3,1.8,0.3,2.8
		c0,1-0.1,1.9-0.3,2.8c-0.2,0.9-0.5,1.7-0.9,2.4c-0.5,0.8-1,1.5-1.7,1.9c-0.7,0.5-1.4,0.7-2.1,0.7c-0.8,0-1.5-0.2-2.2-0.7
		c-0.6-0.4-1.2-1.1-1.7-1.9c-0.4-0.7-0.7-1.5-0.9-2.4c-0.2-0.9-0.3-1.8-0.3-2.8c0-1,0.1-1.9,0.3-2.8c0.2-0.9,0.5-1.7,0.9-2.4
		C72.3,21.1,72.9,20.4,73.5,20z M78.5,27.1c0,0.8-0.1,1.5-0.2,2.2c-0.2,0.7-0.4,1.4-0.7,1.9c-0.3,0.5-0.5,0.8-0.8,1.1
		c-0.3,0.3-0.7,0.4-1.1,0.4c-0.4,0-0.7-0.2-1.1-0.4c-0.3-0.3-0.6-0.6-0.8-1.1c-0.3-0.5-0.5-1.2-0.7-1.9c-0.2-0.7-0.2-1.5-0.2-2.2
		c0-0.8,0.1-1.5,0.2-2.2c0.2-0.7,0.4-1.4,0.7-1.9c0.3-0.5,0.5-0.8,0.8-1.1c0.3-0.3,0.7-0.4,1.1-0.4c0.4,0,0.7,0.2,1.1,0.4
		c0.3,0.3,0.6,0.6,0.8,1.1c0.3,0.5,0.5,1.2,0.7,1.9C78.4,25.6,78.5,26.4,78.5,27.1L78.5,27.1z M77.5,29.2c0.1-0.6,0.2-1.3,0.2-2.1
		c0-0.7-0.1-1.4-0.2-2.1c-0.1-0.6-0.4-1.2-0.6-1.7c-0.2-0.4-0.4-0.7-0.7-0.8c-0.2-0.2-0.4-0.2-0.5-0.2c-0.2,0-0.4,0.1-0.5,0.2
		c-0.2,0.2-0.5,0.5-0.7,0.8c-0.3,0.5-0.5,1.1-0.6,1.7c-0.1,0.6-0.2,1.3-0.2,2.1c0,0.7,0.1,1.4,0.2,2.1c0.1,0.6,0.4,1.2,0.6,1.7
		c0.2,0.4,0.4,0.7,0.7,0.8c0.2,0.2,0.4,0.2,0.5,0.2c0.2,0,0.3-0.1,0.5-0.2c0.2-0.2,0.5-0.5,0.7-0.8C77.2,30.4,77.4,29.8,77.5,29.2
		L77.5,29.2z M104.3,20.4h-0.8l-3.8,11.7l-3.8-11.7h-0.8L93.2,34h1.4l1.4-8.8l2.8,8.8h1.7l2.8-8.8l1.4,8.8h1.4
		C106.2,34,104.3,20.4,104.3,20.4z M103.2,19.6h1.8c0.7,5.1,1.4,10.2,2.1,15.2h-3l-1-6.2l-2,6.2h-2.9l-2-6.1l-1,6.1h-3
		c0.8-5.1,1.4-10.2,2.1-15.2h2.1l3.2,9.9l3.2-9.9L103.2,19.6L103.2,19.6z M8.8,52.7l-1.3-0.6l-0.9,1.8l-3.8-6.5
		c-0.2-0.4-0.3-0.9-0.2-1.3c0.1-0.4,0.3-0.9,0.7-1.1c0.1-0.1,0.3-0.2,0.5-0.3c0.2-0.1,0.3-0.1,0.5-0.1c0.5,0,1,0.3,1.3,0.7
		c0.2,0.3,0.4,0.7,0.5,1.2h1.4c-0.1-0.9-0.4-1.6-1-2.2c-0.6-0.7-1.4-1.1-2.3-1.1c-0.3,0-0.7,0.1-1,0.2c-0.3,0.1-0.6,0.3-0.9,0.5
		c-0.6,0.5-1,1.2-1.2,2c-0.1,0.8,0,1.6,0.4,2.3l1.1,1.9l-0.3,0.2C2,50.5,1.6,51,1.3,51.6c-0.3,0.6-0.5,1.3-0.5,2
		c0,1.1,0.4,2.1,1.1,2.9c0.6,0.7,1.5,1.2,2.5,1.2c0.4,0,0.7-0.1,1-0.2c0.3-0.1,0.7-0.3,1-0.5l0.4-0.3l0.5,0.9l1.2-0.7l-0.9-1.5
		L8.8,52.7L8.8,52.7z M7.6,51.2l2.3,1.1l-1.5,2.9l1.1,1.8l-2.6,1.5l-0.5-0.8c-0.3,0.2-0.5,0.3-0.8,0.4c-0.4,0.1-0.9,0.2-1.3,0.2
		c-1.2,0-2.3-0.6-3.1-1.4C0.5,56.1,0,54.9,0,53.6c0-0.8,0.2-1.6,0.5-2.3c0.3-0.6,0.7-1.1,1.2-1.5L1,48.4c-0.5-0.9-0.7-1.9-0.5-2.8
		c0.2-0.9,0.7-1.8,1.5-2.5c0.3-0.3,0.7-0.5,1.1-0.6c0.4-0.1,0.8-0.2,1.2-0.2c1.1,0,2.1,0.5,2.9,1.3c0.7,0.8,1.2,1.9,1.2,3.1v0.4h-3
		v-0.4c0-0.4-0.1-0.8-0.3-1.1c-0.2-0.2-0.4-0.4-0.7-0.4c-0.1,0-0.2,0-0.3,0c-0.1,0-0.2,0.1-0.2,0.1l0,0c-0.2,0.2-0.3,0.4-0.4,0.6
		c0,0.3,0,0.5,0.1,0.8l3,5.2L7.2,51L7.6,51.2L7.6,51.2z M4.3,56.2c-0.6,0-1.2-0.3-1.6-0.8c-0.4-0.5-0.6-1.1-0.6-1.8
		c0-0.4,0.1-0.8,0.2-1.2c0.2-0.4,0.4-0.7,0.7-1l0.4-0.3L6,55.3l-0.2,0.2c-0.2,0.2-0.4,0.4-0.7,0.5C4.9,56.1,4.6,56.2,4.3,56.2
		L4.3,56.2z M3.4,54.9c0.2,0.3,0.6,0.5,0.9,0.5c0.1,0,0.3,0,0.4-0.1c0.1,0,0.1-0.1,0.2-0.1l-1.6-2.8c-0.1,0.1-0.1,0.2-0.1,0.3
		C3.1,52.9,3,53.2,3,53.6C3,54.1,3.2,54.6,3.4,54.9L3.4,54.9z M36.9,50.8c-0.2-0.2-0.4-0.3-0.6-0.4l0.3-0.3c0.3-0.3,0.5-0.7,0.6-1.1
		c0.1-0.4,0.2-0.9,0.2-1.4c0-0.6-0.1-1.2-0.3-1.7c-0.2-0.5-0.4-0.9-0.7-1.2c-0.5-0.5-1.1-0.7-1.6-0.9c-0.6-0.1-1.1-0.1-1.4-0.1
		c-0.4,0-0.7,0-0.8,0c-0.2,0-0.5,0-0.7,0l0,13.9l1.6,0c0.8,0,1.5-0.1,2.1-0.3c0.6-0.2,1-0.5,1.4-0.9c0.3-0.3,0.6-0.8,0.8-1.2
		c0.2-0.5,0.3-1.1,0.3-1.7c0-0.7-0.2-1.3-0.4-1.7C37.4,51.3,37.1,51,36.9,50.8L36.9,50.8z M38,49.2c-0.1,0.4-0.3,0.7-0.5,1
		c0.3,0.3,0.6,0.7,0.9,1.2c0.3,0.5,0.5,1.2,0.5,2.1c0,0.7-0.1,1.4-0.3,2c-0.2,0.6-0.5,1.1-1,1.5c-0.5,0.5-1,0.8-1.7,1
		c-0.7,0.2-1.4,0.3-2.3,0.3c0,0-2.4,0-2.4,0l0-15.4l1.5,0c0.1,0,0.5,0,0.9,0c0.3,0,0.9,0,1.6,0.1c0.7,0.2,1.4,0.5,2,1.1
		c0.4,0.4,0.7,0.9,0.9,1.5c0.2,0.6,0.3,1.2,0.3,1.9C38.2,48.1,38.2,48.6,38,49.2L38,49.2z M36,51.8c0.2,0.2,0.4,0.4,0.5,0.7
		c0.1,0.3,0.2,0.6,0.2,0.9c0,0.4,0,0.8-0.1,1.1c-0.1,0.3-0.3,0.6-0.5,0.8c-0.2,0.2-0.6,0.4-1,0.5c-0.4,0.1-0.8,0.2-1.3,0.2l-0.4,0
		l0-4.9l0.4,0c0.3,0,0.8,0,1.3,0.1C35.4,51.4,35.7,51.6,36,51.8L36,51.8z M35.7,52.8c-0.1-0.2-0.2-0.3-0.3-0.4
		c-0.2-0.2-0.4-0.3-0.7-0.3c-0.2-0.1-0.5-0.1-0.7-0.1l0,3.3c0.3,0,0.5-0.1,0.7-0.1c0.3-0.1,0.5-0.2,0.6-0.3c0.1-0.1,0.2-0.3,0.3-0.5
		c0.1-0.2,0.1-0.5,0.1-0.8C35.8,53.2,35.8,53,35.7,52.8L35.7,52.8z M33.7,45c0.3,0,0.6,0,0.9,0.1c0.3,0.1,0.6,0.2,0.9,0.5
		c0.2,0.2,0.3,0.5,0.4,0.8c0.1,0.3,0.1,0.7,0.1,1.1c0,0.4-0.1,0.7-0.2,1c-0.1,0.3-0.3,0.6-0.5,0.8c-0.3,0.2-0.6,0.4-0.9,0.5
		c-0.3,0.1-0.6,0.1-0.8,0.1l-0.4,0V45C33.3,45,33.7,45,33.7,45z M34.4,45.9c-0.1,0-0.2,0-0.3-0.1V49l0.2,0c0.2-0.1,0.4-0.2,0.6-0.3
		c0.1-0.1,0.2-0.3,0.3-0.4c0.1-0.2,0.1-0.5,0.1-0.7c0-0.3,0-0.6-0.1-0.9c-0.1-0.2-0.1-0.3-0.2-0.5C34.8,46,34.6,45.9,34.4,45.9
		L34.4,45.9z M55.6,52l0.1-0.1c0.2-0.1,0.4-0.2,0.6-0.4c0.2-0.1,0.3-0.3,0.4-0.5c0.3-0.3,0.5-0.7,0.6-1.2c0.1-0.4,0.2-0.9,0.2-1.4
		c0-0.9-0.1-1.7-0.3-2.3c-0.2-0.6-0.5-1.2-0.9-1.6c-0.3-0.3-0.8-0.6-1.2-0.8c-0.5-0.2-1-0.3-1.6-0.3c-0.3,0-0.6,0-0.7,0l-0.8,0
		l0,13.8h1.4l0-5.5l0.7,1.3c0.2,0.4,0.5,1,0.9,1.6c0.5,0.8,1,1.8,1.4,2.6h1.6l-2.9-5.2L55.6,52L55.6,52z M56.8,52.2
		c-0.2,0.1-0.3,0.2-0.5,0.4l3.1,5.6h-3.5l-0.1-0.3c-0.4-0.8-1-1.8-1.5-2.7l-0.1-0.3l0,3.3h-3l0-15.4c0.5,0,1.1,0,1.6-0.1
		c0.2,0,0.5,0,0.8,0c0.7,0,1.3,0.1,1.9,0.3c0.6,0.2,1.1,0.6,1.5,1c0.5,0.5,0.9,1.2,1.1,1.9c0.2,0.7,0.3,1.6,0.3,2.6
		c0,0.6-0.1,1.1-0.3,1.6c-0.2,0.5-0.4,1-0.7,1.4C57.2,51.8,57,52,56.8,52.2L56.8,52.2z M56.1,48.5c0,0.6-0.1,1-0.3,1.4
		c-0.2,0.4-0.5,0.7-1,0.9c-0.2,0.1-0.3,0.2-0.5,0.2c-0.2,0.1-0.4,0.1-0.5,0.1l-0.5,0.1v-6.4l0.4,0c0.3,0,0.6,0.1,0.8,0.2
		c0.3,0.1,0.5,0.3,0.7,0.4c0.3,0.3,0.5,0.7,0.6,1.2C56.1,47.3,56.2,47.8,56.1,48.5z M55.1,49.5c0.2-0.3,0.2-0.6,0.2-1
		c0-0.6,0-1.1-0.1-1.5c-0.1-0.4-0.2-0.7-0.4-0.9c-0.1-0.1-0.2-0.2-0.4-0.3c-0.1,0-0.1,0-0.2-0.1v4.5c0.1,0,0.2-0.1,0.3-0.1
		C54.8,50,55,49.8,55.1,49.5z M73.4,57.4V43.7H72v13.6H73.4z M74.2,43.3v14.8h-3V42.9h3C74.2,42.9,74.2,43.3,74.2,43.3z M92.6,44.7
		c-0.6-0.5-1.3-0.8-1.9-1c-0.6-0.2-1.1-0.2-1.4-0.2c-0.5,0-1,0-1.5,0l0,13.8c0.6,0,1.2,0,1.8,0c0.7,0,1.3-0.1,1.8-0.3
		c0.6-0.2,1-0.5,1.5-0.9c0.6-0.6,1-1.3,1.3-2.3c0.3-1,0.5-2.1,0.5-3.4c0-1.3-0.2-2.4-0.5-3.4C93.8,46.1,93.3,45.3,92.6,44.7z
		 M90.9,43c0.7,0.2,1.5,0.5,2.2,1.1c0.8,0.7,1.4,1.5,1.8,2.6c0.4,1,0.6,2.3,0.6,3.6c0,1.4-0.2,2.6-0.5,3.7c-0.3,1.1-0.9,1.9-1.5,2.6
		c-0.5,0.5-1.1,0.9-1.7,1.1c-0.6,0.3-1.4,0.4-2.1,0.4c-0.9,0-1.7,0-2.6,0c0-5.1,0-10.2,0-15.3c0.8,0,1.6,0,2.3-0.1
		C89.6,42.8,90.2,42.8,90.9,43z M93.3,50.4c0,1.1-0.1,2-0.3,2.8c-0.2,0.8-0.6,1.5-1,1.9c-0.3,0.3-0.6,0.5-1,0.7
		c-0.4,0.1-0.8,0.2-1.3,0.2h-0.4l0-11l0.4,0c0.2,0,0.6,0.1,0.9,0.2c0.4,0.1,0.7,0.3,1.1,0.6c0.5,0.5,1,1.1,1.2,1.9
		C93.2,48.4,93.3,49.3,93.3,50.4L93.3,50.4z M92.2,53c0.2-0.7,0.3-1.6,0.3-2.6c0-1-0.1-1.8-0.3-2.4c-0.2-0.6-0.6-1.1-1-1.5
		c-0.3-0.2-0.6-0.4-0.9-0.5c-0.1,0-0.2-0.1-0.3-0.1l0,9.3c0.2,0,0.4-0.1,0.6-0.1c0.3-0.1,0.5-0.3,0.7-0.5C91.7,54.2,92,53.6,92.2,53
		L92.2,53z M110.4,51.3h1.6v-1.4h-2l0-4.8l3.5,0l0-1.4l-4.9,0l0,13.6l5.1,0l0-1.4l-3.6,0l0-4.7L110.4,51.3L110.4,51.3z M112.5,52.1
		h-1.6l0,3.1l3.6,0l0,3l-6.6,0c0-5.1,0-10.1,0-15.2l6.5,0l0,3l-3.5,0l0,3.2h2v3L112.5,52.1L112.5,52.1z M55.8,2.3
		c0,0.2-0.1,0.4-0.2,0.8c-0.2,0.4-0.4,0.7-0.6,1c-0.5,0.7-1.1,1.3-1.8,1.7c-0.7,0.4-1.4,0.6-2.1,0.6c-0.7,0-1.2-0.2-1.6-0.6
		c-0.4-0.4-0.6-0.9-0.6-1.6c0-1.2,0.6-2.2,1.8-3C51.8,0.4,53.3,0,55.3,0c0.9,0,2.2,0.1,4,0.4l0.1,0c0.2,0,0.5,0.1,0.9,0.1
		c1.5,0.2,2.4,0.3,2.8,0.3c0.4,0,0.9-0.1,1.3-0.2c0.1,0,0.2,0,0.2,0c0.1,0,0.1,0,0.1,0c0,0,0.1,0.1,0.1,0.1c0,0.2-0.2,0.3-0.6,0.5
		c-0.4,0.2-0.9,0.2-1.4,0.2c-0.2,0-0.5,0-0.7,0c-0.3,0-0.5-0.1-0.8-0.1c-0.1,0-0.3-0.1-0.6-0.1c-2.3-0.6-3.9-0.8-5.1-0.8
		c-0.9,0-1.6,0.1-2.3,0.3c-0.7,0.2-1.3,0.5-1.8,0.9c-0.7,0.5-1.2,1-1.5,1.5c-0.3,0.5-0.5,0.9-0.5,1.3c0,0.4,0.2,0.8,0.5,1.1
		c0.3,0.3,0.7,0.4,1.3,0.4c0.7,0,1.3-0.2,2-0.6c0.6-0.4,1.2-1,1.8-1.9c0.1-0.2,0.3-0.5,0.4-0.8c0.1-0.3,0.3-0.5,0.3-0.5
		c0.1,0,0.1,0,0.1,0.1C55.8,2.2,55.8,2.3,55.8,2.3L55.8,2.3z M56.9,12.9c-0.1,0-0.1,0-0.2,0c-0.1,0-0.2,0-0.4,0c-0.2,0-0.3,0-0.4,0
		c-0.1,0-0.1-0.1-0.1-0.1c0-0.1,0.4-0.5,1.1-1.2c0.7-0.8,1.4-1.5,2-2.3c-0.4,0.3-0.8,0.6-1.2,1c-0.4,0.4-0.7,0.5-0.7,0.5
		c0,0-0.1,0-0.1,0c0,0,0-0.1,0-0.1c0-0.1,0.3-0.4,0.8-0.8c0.5-0.4,1.2-1,2.1-1.6l4.9-5.8c0.1-0.1,0.1-0.1,0.2-0.2c0.1,0,0.1,0,0.2,0
		c0.2,0,0.3,0,0.4,0.1c0.1,0,0.2,0.1,0.2,0.2c0,0.1,0,0.1-0.1,0.2c0,0,0,0,0,0.1l-5.8,6.9c0.6-0.4,1.1-0.8,1.5-1
		c0.4-0.2,0.7-0.3,1-0.3c0.2,0,0.3,0.1,0.4,0.2c0.1,0.1,0.2,0.3,0.2,0.5c0,0.2-0.1,0.4-0.2,0.6c-0.1,0.2-0.4,0.5-0.9,1
		c-0.1,0.1-0.3,0.3-0.5,0.5c-0.7,0.7-1.1,1.1-1.1,1.2c0,0.1,0,0.1,0.1,0.2c0.1,0,0.1,0.1,0.2,0.1c0.3,0,0.6-0.1,1.1-0.4
		c0.5-0.2,1-0.6,1.6-1c0.2-0.2,0.5-0.4,0.8-0.6c0.3-0.2,0.4-0.3,0.5-0.3c0,0,0.1,0,0.1,0c0,0,0,0.1,0,0.1c0,0.1-0.3,0.4-1,0.9l0,0
		c-0.6,0.5-1.2,0.9-1.8,1.2c-0.6,0.3-1,0.4-1.3,0.4c-0.3,0-0.5-0.1-0.6-0.2c-0.2-0.1-0.2-0.3-0.2-0.6c0-0.3,0.1-0.6,0.3-0.9
		c0.2-0.3,0.5-0.7,0.9-1c0.1-0.1,0.3-0.3,0.5-0.4c0.5-0.4,0.8-0.7,0.8-0.8c0,0,0-0.1-0.1-0.1c0,0-0.1,0-0.1,0c-0.4,0-1,0.4-2,1.1
		C58.8,10.8,57.9,11.8,56.9,12.9L56.9,12.9z M64.4,11.4c-0.1,0.1-0.1,0.2-0.1,0.3c0,0.1,0,0.2,0,0.3c0,0.2,0.1,0.3,0.2,0.4
		c0.1,0.1,0.3,0.2,0.5,0.2c0.4,0,0.8-0.1,1.3-0.4c0.5-0.3,1.1-0.6,1.7-1.1c0.2-0.1,0.3-0.3,0.6-0.5c0.2-0.2,0.4-0.3,0.4-0.3
		c0,0,0.1,0,0.1,0c0,0,0,0.1,0,0.1c0,0.1-0.1,0.2-0.2,0.3c-0.2,0.2-0.4,0.4-0.8,0.7c-0.6,0.5-1.2,0.9-1.7,1.1
		c-0.6,0.3-1.1,0.4-1.5,0.4c-0.4,0-0.7-0.1-1-0.4c-0.2-0.3-0.4-0.6-0.4-1c0-0.4,0.1-0.8,0.4-1.2c0.2-0.4,0.6-0.8,1.1-1.1
		C65.2,9,65.6,8.8,66,8.6c0.4-0.2,0.7-0.2,1-0.2c0.3,0,0.5,0,0.6,0.1c0.1,0.1,0.2,0.2,0.2,0.5c0,0.4-0.3,0.9-1,1.4
		C66.1,10.9,65.3,11.2,64.4,11.4L64.4,11.4z M64.6,10.9c0.8-0.2,1.4-0.4,2-0.8c0.5-0.4,0.8-0.7,0.8-1c0-0.1,0-0.2-0.1-0.2
		c0,0-0.1-0.1-0.2-0.1c-0.3,0-0.6,0.2-1.1,0.5C65.6,9.7,65.1,10.2,64.6,10.9z"/>
</g>
</svg>
