<?xml version="1.0" encoding="UTF-8"?>
<svg id="Layer_1" data-name="Layer 1" xmlns="http://www.w3.org/2000/svg" viewBox="0 0 278.52 120.1">
  <defs>
    <style>
      .cls-1 {
        fill: #371810;
      }
    </style>
  </defs>
  <path class="cls-1" d="m112.44,25.66c1.01.77,2.38,1.15,4.09,1.15,1.58,0,3.17-.34,4.76-1.02,1.59-.68,3.15-1.68,4.67-3,2.48-2.16,5.5-6.21,9.06-12.16.48-.79.84-1.39,1.08-1.79.84-1.38,1.7-2.67,2.58-3.86s1.33-1.81,1.33-1.84c0-.08-.02-.14-.07-.19-.05-.04-.12-.06-.21-.06-.48,0-1.4.77-2.73,2.3-1.34,1.53-3.04,3.76-5.09,6.69-3.56,5.03-6.57,8.61-9.01,10.76-2.44,2.15-4.71,3.22-6.8,3.22-1.13,0-2.1-.26-2.89-.77s-1.18-1.1-1.18-1.76c.01-.12.03-.2.06-.25.03-.05.09-.08.17-.09.09,0,.24.02.42.06s.32.06.41.06c.48,0,.87-.13,1.16-.38.29-.25.43-.6.43-1.03,0-.46-.15-.83-.44-1.12-.29-.29-.68-.43-1.15-.43-.64,0-1.16.23-1.57.69-.41.46-.61,1.05-.61,1.77,0,1.26.51,2.28,1.52,3.04Z"/>
  <path class="cls-1" d="m122.34,13.08c1.46,0,2.87-.4,4.23-1.19s2.59-1.94,3.7-3.45c.51-.7.93-1.41,1.26-2.13s.5-1.25.5-1.57c0-.12-.03-.21-.09-.28-.06-.07-.14-.11-.25-.11-.17,0-.39.33-.68.98-.29.66-.58,1.21-.88,1.66-1.11,1.69-2.31,2.97-3.6,3.84-1.29.87-2.63,1.31-4.01,1.31-1.05,0-1.91-.29-2.58-.87s-1.01-1.32-1.01-2.21c0-.85.34-1.75,1.03-2.69s1.73-1.95,3.11-3.01c1.1-.85,2.35-1.48,3.77-1.9,1.42-.42,3-.63,4.74-.63,2.26,0,5.72.57,10.35,1.7.53.13.94.23,1.22.3.51.12,1.02.21,1.55.27s1.04.09,1.53.09c1.12,0,2.11-.17,2.95-.51.85-.34,1.27-.67,1.27-1.02,0-.07-.04-.14-.11-.2-.08-.06-.17-.09-.28-.09-.06,0-.18.02-.37.07-.96.26-1.87.39-2.74.39-.8,0-2.71-.23-5.74-.69-.78-.12-1.38-.21-1.81-.28l-.23-.04c-3.67-.55-6.41-.83-8.23-.83-3.95,0-7.15.8-9.58,2.39-2.43,1.59-3.65,3.65-3.65,6.16,0,1.38.42,2.48,1.26,3.3.84.82,1.95,1.23,3.34,1.23Z"/>
  <path class="cls-1" d="m158.85,20.96c-.11,0-.39.21-.85.63-.46.42-.85.76-1.17,1.04-1.23,1-2.38,1.78-3.45,2.33-1.07.55-1.98.82-2.73.82-.42,0-.76-.11-1-.32-.24-.21-.36-.51-.36-.89,0-.17.03-.35.08-.57.05-.21.13-.43.24-.65,1.97-.4,3.62-1.09,4.96-2.07,1.33-.98,2-1.92,2-2.83,0-.45-.12-.76-.35-.95s-.64-.27-1.2-.27c-.64,0-1.33.15-2.07.46-.74.31-1.54.77-2.39,1.38-.97.72-1.71,1.48-2.21,2.27-.15.24-.23.47-.34.71-.36.3-.73.61-1.06.85-1.13.86-2.2,1.54-3.19,2.04-1,.5-1.76.75-2.28.75-.18,0-.32-.04-.42-.12-.11-.08-.16-.19-.16-.32,0-.28.72-1.1,2.16-2.44.46-.42.82-.75,1.08-.99.93-.9,1.55-1.57,1.84-2.01.3-.44.44-.88.44-1.3,0-.39-.11-.7-.33-.92s-.52-.34-.91-.34c-.55,0-1.24.21-2.07.63-.83.42-1.84,1.08-3.04,1.97l11.93-14.05s.05-.07.09-.11c.15-.18.23-.34.23-.48s-.11-.26-.34-.34c-.22-.09-.51-.13-.85-.13-.19,0-.34.03-.46.09s-.25.18-.41.35l-10.02,11.81c-1.83,1.27-3.28,2.35-4.35,3.24s-1.61,1.44-1.61,1.66c0,.11.02.19.05.24s.09.08.16.08c.14,0,.65-.37,1.52-1.11.87-.74,1.68-1.4,2.43-1.96-1.3,1.58-2.67,3.15-4.12,4.71s-2.18,2.4-2.18,2.51c0,.09.07.16.21.19.14.04.42.05.83.05.39,0,.66,0,.82-.03.16-.02.3-.05.42-.08,1.9-2.36,3.82-4.32,5.76-5.87,1.94-1.55,3.28-2.33,4.03-2.33.12,0,.22.03.3.09.08.06.12.13.12.21,0,.17-.55.71-1.65,1.63-.45.38-.8.68-1.06.9-.81.7-1.44,1.38-1.87,2.05s-.65,1.29-.65,1.86c0,.47.17.86.5,1.15.33.3.76.44,1.29.44.64,0,1.55-.31,2.75-.92,1.19-.61,2.43-1.42,3.71-2.43-.02.15-.07.3-.07.45,0,.9.25,1.61.76,2.12.51.52,1.19.78,2.04.78s1.92-.28,3.1-.84c1.18-.56,2.36-1.34,3.54-2.34.79-.67,1.35-1.17,1.66-1.5.32-.33.48-.55.48-.68-.01-.11-.04-.19-.09-.24-.05-.05-.12-.08-.21-.08Zm-5.81-1.85c.86-.73,1.59-1.09,2.18-1.09.2,0,.34.05.42.14s.12.25.12.48c0,.64-.54,1.32-1.63,2.05-1.09.73-2.43,1.26-4.02,1.59,1.09-1.39,2.06-2.45,2.92-3.18Z"/>
  <path class="cls-1" d="m46.07,60.2h2.99c-.01,1.12-.09,2.12-.23,2.95-.18,1.01-.59,1.82-1.11,2.17-.37.24-.87.29-1.55.15-.71-.15-3.01-1.31-3.01-9.89.02-5.55,1.32-9.14,3.46-9.58,1.45-.3,2.88,1.06,2.89,1.07l.75.73,4.4-4.29-.76-.77c-.15-.15-3.8-3.77-8.53-2.77-1.75.36-4.22,1.46-6.03,4.59-1.55,2.68-2.33,6.44-2.33,11.19v.22c.02,4.68.69,8.22,2.04,10.82,1.67,3.21,4.1,4.33,5.84,4.71.68.15,1.35.22,1.99.22,1.59,0,3.04-.43,4.3-1.28,1.93-1.3,3.26-3.51,3.73-6.22.24-1.39.32-2.85.33-4.01h1.47v-6.16h-10.63v6.16Zm1.64-4.52h7.35v2.89h-1.49l.02.83c.02,1.18-.02,2.92-.3,4.54-.4,2.26-1.48,4.09-3.04,5.14-1.4.94-3.13,1.22-5.03.82-1.4-.3-3.35-1.22-4.73-3.86-1.22-2.36-1.83-5.65-1.85-10.06v-.22c0-4.45.71-7.94,2.11-10.36,1.51-2.61,3.52-3.51,4.94-3.81.46-.1.9-.14,1.34-.14,2.47,0,4.44,1.38,5.27,2.08l-2.08,2.03c-.72-.56-2.23-1.5-3.95-1.14-3.04.64-4.73,4.6-4.76,11.34,0,8.6,2.34,10.91,4.31,11.34,1.13.24,2.07.11,2.81-.39.89-.6,1.55-1.78,1.8-3.24.2-1.14.28-2.5.25-4.07l-.02-.8h-2.97v-2.89Z"/>
  <path class="cls-1" d="m91.81,51.58c.05-2.79-.51-4.81-1.68-5.99-.75-.77-1.8-1.21-3.11-1.31l-.88-.07v13.07s.97-.18.97-.18c.74-.14,1.42-.37,2.02-.69,1.73-.92,2.63-2.55,2.67-4.83Zm-3.45,3.39c-.19.1-.39.19-.58.26v-9.16c.48.14.88.36,1.18.67.83.85,1.25,2.51,1.21,4.81-.03,1.69-.61,2.78-1.81,3.42Z"/>
  <path class="cls-1" d="m94.28,57.89c1.3-1.68,2.01-3.83,2.05-6.22.08-4.05-.92-7.16-2.97-9.24-1.73-1.76-4.14-2.69-6.96-2.69-.7,0-1.55.03-1.81.03l-2.98.1v31.5s6.17,0,6.17,0v-6.76c1,1.83,2.26,4.14,3.37,6.24l.22.49h7.1l-6.39-11.53c.86-.51,1.6-1.16,2.19-1.92Zm1.42,11.81h-3.28c-1.76-3.27-3.87-7.14-4.75-8.64l-1.53-2.6v11.26s-2.88,0-2.88,0v-28.28s1.43-.05,1.43-.05c.21,0,1.03-.03,1.71-.03,2.38,0,4.38.76,5.79,2.2,1.73,1.76,2.57,4.47,2.5,8.07-.04,2.04-.63,3.85-1.71,5.25-.53.68-1.21,1.25-2,1.67l-1.16.56,5.87,10.59Z"/>
  <path class="cls-1" d="m131.89,39.51c-3.11,0-5.89,1.91-7.83,5.39-1.63,2.91-2.53,6.71-2.53,10.71s.9,7.8,2.52,10.71c1.94,3.47,4.73,5.39,7.84,5.39s5.89-1.91,7.83-5.39c1.63-2.91,2.53-6.71,2.53-10.71s-.9-7.8-2.52-10.71c-1.94-3.48-4.72-5.39-7.83-5.39Zm6.4,26c-1.64,2.93-3.91,4.55-6.4,4.55s-4.76-1.62-6.4-4.55c-1.49-2.67-2.31-6.19-2.31-9.91s.82-7.24,2.32-9.91c1.64-2.93,3.91-4.55,6.4-4.55s4.76,1.62,6.4,4.55h0c1.49,2.67,2.31,6.19,2.31,9.91s-.82,7.24-2.32,9.91Z"/>
  <path class="cls-1" d="m135.77,47.11c-2.22-3.97-5.55-3.96-7.77,0-1.23,2.21-1.95,5.31-1.95,8.5s.71,6.29,1.95,8.5c1.11,1.98,2.49,3.07,3.89,3.07s2.78-1.09,3.89-3.07c1.24-2.22,1.95-5.31,1.95-8.5s-.71-6.28-1.95-8.5h0Zm-1.43,16.2c-.77,1.38-1.71,2.23-2.46,2.23s-1.69-.86-2.46-2.23c-1.1-1.98-1.74-4.78-1.74-7.7s.63-5.72,1.74-7.7c.77-1.38,1.72-2.23,2.46-2.23s1.68.86,2.46,2.23c1.1,1.98,1.74,4.78,1.74,7.7s-.63,5.72-1.74,7.7Z"/>
  <path class="cls-1" d="m173.17,47.11c-1.24,2.22-1.95,5.31-1.95,8.5s.71,6.28,1.95,8.5c1.11,1.98,2.49,3.07,3.88,3.07s2.78-1.09,3.88-3.07c1.24-2.21,1.95-5.31,1.95-8.5s-.71-6.29-1.95-8.5c-2.21-3.96-5.55-3.96-7.77,0Zm6.34,16.2c-.77,1.38-1.71,2.23-2.46,2.23s-1.69-.86-2.45-2.23c-1.11-1.98-1.74-4.78-1.74-7.7s.63-5.72,1.74-7.7c.77-1.38,1.71-2.23,2.46-2.23s1.69.86,2.46,2.23c1.1,1.97,1.74,4.78,1.74,7.7s-.63,5.72-1.74,7.7Z"/>
  <path class="cls-1" d="m184.89,66.32c1.63-2.91,2.53-6.71,2.53-10.71s-.9-7.8-2.52-10.71c-1.94-3.47-4.73-5.39-7.84-5.39s-5.89,1.91-7.84,5.39c-1.63,2.91-2.52,6.71-2.52,10.71s.9,7.8,2.52,10.71c1.94,3.47,4.73,5.39,7.84,5.39s5.89-1.91,7.83-5.39Zm-7.83,3.75c-2.49,0-4.76-1.62-6.4-4.55-1.49-2.67-2.31-6.19-2.31-9.91s.82-7.24,2.31-9.91c1.64-2.93,3.91-4.55,6.4-4.55s4.76,1.62,6.4,4.55h0c1.49,2.67,2.31,6.19,2.31,9.91s-.82,7.24-2.32,9.91c-1.64,2.93-3.91,4.55-6.4,4.55Z"/>
  <path class="cls-1" d="m237.09,40.17h-4.3l-6.54,20.29-6.53-20.29h-4.31l-4.3,31.2h6.17l1.95-12.58,4.05,12.58h5.93l4.06-12.59,1.95,12.59h6.17l-4.17-30.28-.13-.92Zm-.46,29.56l-2.8-18.04-5.81,18.04h-3.54l-5.8-18.04-2.8,18.04h-2.88l3.84-27.92h1.68l7.72,24,7.73-24h1.68l3.85,27.92h-2.88Z"/>
  <path class="cls-1" d="m6.39,105.31c-1.19,1.02-1.9,2.69-1.9,4.45,0,2.99,1.98,5.43,4.41,5.43,1.07,0,2.1-.48,2.91-1.36l.41-.45-5.08-8.72-.75.64Zm2.51,8.24c-1.5,0-2.76-1.73-2.76-3.79,0-.88.24-1.74.66-2.42l3.37,5.77c-.39.29-.83.44-1.26.44Z"/>
  <path class="cls-1" d="m14.81,104.49l-1.18,2.39-6.25-10.72c-.58-1-.38-2.26.47-2.93.22-.18.59-.39,1.04-.39,1.18,0,2.18,1.38,2.18,3.01v.82h6.14v-.82c0-5.04-3.73-9.15-8.32-9.15-1.74,0-3.41.58-4.83,1.69-3.26,2.55-4.12,7.22-2,10.86l1.49,2.56c-2.25,1.86-3.57,4.78-3.57,7.96,0,5.47,4,9.93,8.9,9.93,1.53,0,3.02-.44,4.35-1.27l.98,1.68,5.3-3.09-2.2-3.77,2.98-6.03-5.51-2.72Zm2.49,11.93l-2.47,1.44-1.08-1.85-.74.58c-1.22.96-2.64,1.46-4.11,1.46-4.01,0-7.26-3.72-7.26-8.29,0-2.92,1.3-5.56,3.47-7.08l.62-.43-2.24-3.83c-1.71-2.94-1.03-6.7,1.59-8.74,1.12-.88,2.44-1.34,3.82-1.34,3.44,0,6.28,2.93,6.64,6.69h-2.88c-.32-2.17-1.88-3.83-3.76-3.83-.92,0-1.63.4-2.06.74-1.5,1.17-1.88,3.34-.88,5.05l7.79,13.35,1.8-3.65,2.56,1.26-2.64,5.35,1.82,3.12Z"/>
  <path class="cls-1" d="m69.13,102.14c.82-.04,2.37-.25,3.45-1.24.89-.81,1.32-2.01,1.32-3.65,0-1.76-.39-3.06-1.18-3.84-.98-.98-2.53-1.13-3.61-1.17l-.85-.03v9.96s.86-.04.86-.04Zm.78-8.2c.62.08,1.27.25,1.65.63.46.46.7,1.39.7,2.68,0,1.16-.26,1.95-.79,2.44-.43.4-1.03.6-1.56.71v-6.46Z"/>
  <path class="cls-1" d="m76.76,102.9c1.07-1.52,1.62-3.42,1.63-5.64,0-3-.83-5.36-2.49-7.02-2.49-2.49-5.9-2.49-7.36-2.49-.83,0-1.85.04-1.79.03l-2.96.1v31.6s4.89.07,4.89.07c3.67,0,6.39-.92,8.29-2.81,1.76-1.75,2.64-4.17,2.6-7.17-.05-3.46-1.54-5.52-2.82-6.66Zm-.94,12.67c-1.58,1.57-3.92,2.34-7.14,2.34h-.83c-.4-.02-1.01-.03-1.02-.03l-1.4-.02v-28.39s1.38-.05,1.38-.05c.07,0,.98-.03,1.72-.03,1.25,0,4.19,0,6.2,2.01,1.34,1.34,2.01,3.31,2.01,5.86,0,2.16-.59,3.92-1.75,5.23l-.6.68.74.53c.16.12.32.24.46.36,1.04.9,2.3,2.58,2.34,5.52.03,2.54-.68,4.56-2.11,5.98Z"/>
  <path class="cls-1" d="m69.06,104.99l-.78.04v10.05s.84-.02.84-.02c2.2-.06,3.73-.55,4.7-1.5.88-.88,1.3-2.16,1.28-3.93-.02-1.52-.46-2.63-1.34-3.39-1.5-1.3-3.98-1.28-4.7-1.24Zm3.61,7.4c-.53.53-1.45.86-2.74.98v-6.74c1.04.05,2.15.31,2.77.84.5.44.75,1.15.77,2.17.02,1.3-.24,2.2-.79,2.75Z"/>
  <path class="cls-1" d="m115.08,99.42c.05-2.79-.51-4.81-1.68-5.99-.75-.76-1.8-1.21-3.11-1.31l-.89-.07v13.07s.97-.18.97-.18c.74-.14,1.42-.37,2.02-.69,1.73-.92,2.63-2.55,2.67-4.83Zm-3.45,3.39c-.19.1-.39.19-.58.26v-9.16c.49.14.88.37,1.18.67.83.85,1.25,2.51,1.21,4.81-.03,1.69-.61,2.78-1.81,3.42Z"/>
  <path class="cls-1" d="m117.56,105.73c1.3-1.68,2.01-3.83,2.05-6.22.08-4.05-.92-7.16-2.97-9.24-1.73-1.76-4.14-2.69-6.96-2.69-.7,0-1.55.03-1.81.03l-2.98.1v31.5s6.17,0,6.17,0v-6.76c1,1.83,2.26,4.14,3.37,6.24l.22.49h7.1l-6.39-11.53c.86-.51,1.6-1.16,2.19-1.92Zm1.42,11.81h-3.28c-1.76-3.27-3.87-7.14-4.75-8.64l-1.53-2.6v11.26s-2.88,0-2.88,0v-28.28s1.43-.05,1.43-.05c.21,0,1.03-.03,1.71-.03,2.38,0,4.38.76,5.79,2.2,1.73,1.76,2.57,4.47,2.5,8.07-.04,2.04-.63,3.85-1.71,5.25-.53.68-1.21,1.25-2,1.67l-1.16.56,5.87,10.59Z"/>
  <path class="cls-1" d="m145.9,119.21h6.17v-31.21h-6.17v31.21Zm1.64-29.57h2.88v27.94h-2.88v-27.94Z"/>
  <path class="cls-1" d="m190.78,90.45c-3.02-2.53-6.4-2.82-7.71-2.82-.48,0-1.47.02-1.77.03l-3,.09.02,31.44h3.07c.48.01,1.77.02,2.01.02h.24c3.12,0,5.86-1.06,7.9-3.08,2.78-2.73,4.19-7.07,4.19-12.89s-1.67-10.04-4.95-12.78Zm-.38,24.51c-1.73,1.71-4.07,2.61-6.75,2.61h-.21c-.25,0-1.56-.01-2.04-.01h-1.44s-.02-28.22-.02-28.22l1.4-.04c.29,0,1.26-.03,1.73-.03,1.13,0,4.05.26,6.66,2.44,2.9,2.42,4.37,6.3,4.37,11.53s-1.24,9.32-3.69,11.73Z"/>
  <path class="cls-1" d="m187.88,93.92c-1.46-1.22-3.06-1.61-4.15-1.73l-.91-.1.02,22.59h.82c1.93,0,3.51-.6,4.71-1.78,1.85-1.82,2.83-5.16,2.83-9.67s-1.12-7.47-3.33-9.32Zm-.65,17.81c-.71.7-1.64,1.12-2.75,1.26v-19.01c.72.19,1.56.54,2.35,1.19,1.82,1.52,2.74,4.24,2.74,8.06,0,4.06-.81,6.99-2.34,8.5Z"/>
  <path class="cls-1" d="m229.37,108.04h2.99c0,.89-.06,1.97-.23,2.95-.18,1.01-.59,1.82-1.1,2.16-.36.25-.87.29-1.55.15-.71-.15-3.01-1.31-3.01-9.89.02-5.55,1.32-9.14,3.46-9.58,1.43-.3,2.87,1.05,2.89,1.07l.75.72,4.39-4.29-.75-.77c-.15-.16-3.79-3.77-8.53-2.77-1.75.36-4.22,1.46-6.03,4.59-1.55,2.68-2.33,6.44-2.33,11.19v.22c.02,4.68.69,8.22,2.04,10.82,1.67,3.21,4.1,4.33,5.84,4.71.68.15,1.35.22,1.99.22,1.59,0,3.04-.43,4.3-1.28,1.93-1.3,3.26-3.51,3.73-6.22.25-1.39.32-2.85.33-4.01h1.47v-6.16h-10.63v6.16Zm1.64-4.52h7.35v2.89h-1.49l.02.84c.02,1.17-.01,2.91-.3,4.53-.4,2.26-1.48,4.09-3.04,5.14-1.4.94-3.13,1.22-5.03.82-1.4-.3-3.35-1.22-4.73-3.86-1.22-2.36-1.83-5.65-1.85-10.07v-.21c0-4.45.71-7.94,2.11-10.36,1.51-2.61,3.52-3.51,4.94-3.81.46-.1.9-.14,1.34-.14,2.47,0,4.44,1.38,5.27,2.07l-2.07,2.03c-.73-.56-2.25-1.49-3.95-1.14-3.04.64-4.73,4.61-4.76,11.34,0,8.6,2.34,10.91,4.31,11.34,1.14.25,2.06.12,2.81-.39.89-.6,1.55-1.78,1.8-3.24.25-1.43.28-3,.25-4.07l-.02-.8h-2.97v-2.89Z"/>
  <path class="cls-1" d="m271.05,113.09v-6.4s4.13,0,4.13,0v-6.11h-4.14v-6.47s7.12-.02,7.12-.02l-.02-6.11-13.27.05.02,31.17,13.62.02v-6.11s-7.46,0-7.46,0Zm5.82,4.48h-10.35s-.02-27.91-.02-27.91l9.99-.03v2.83s-7.11.02-7.11.02v9.74h4.15v2.83h-4.14v9.68s7.47,0,7.47,0v2.83Z"/>
</svg>