<?xml version="1.0" encoding="utf-8"?>
<!-- Generator: Adobe Illustrator 27.5.0, SVG Export Plug-In . SVG Version: 6.00 Build 0)  -->
<svg version="1.1" id="Layer_1" xmlns:xodm="http://www.corel.com/coreldraw/odm/2003"
	 xmlns="http://www.w3.org/2000/svg" xmlns:xlink="http://www.w3.org/1999/xlink" x="0px" y="0px" viewBox="0 0 36.8 38.5"
	 style="enable-background:new 0 0 36.8 38.5;" xml:space="preserve">
<style type="text/css">
	.st0{fill:#A48B50;}
</style>
<g id="Layer_x0020_1">
	<path class="st0" d="M33.1,26.2C33.1,26.2,33.1,26.2,33.1,26.2c-0.2,0.1-0.3,0.3-0.4,0.4c-2.6,2.6-7,3-10.1-0.2
		c-0.4-0.4-0.7-0.9-0.8-1.5c0-0.1-0.1-0.3-0.2-0.4c-0.4-0.7-1.3-0.7-1.6,0c-0.2,0.4-0.3,0.8-0.5,1.1c-0.4,0.9-1,1.5-2,1.6
		c-1.4,0.2-2.9-1.4-2.9-2.8c0-0.2,0.1-0.4,0.4-0.5c0.2-0.1,0.4,0,0.6,0.2c0.3,0.3,0.3,0.7,0.4,1c0.1,0.3,0.2,0.5,0.5,0.6
		c0.6,0.2,1.1,0.1,1.6-0.3c0.4-0.3,0.5-0.8,0.4-1.3c-0.1-0.4-0.3-0.8-0.2-1.2c0.1-0.8-0.2-1.3-0.8-1.7c-0.2-0.2-0.5-0.4-0.7-0.6
		c-0.5-0.4-0.5-0.5-0.2-1c0.3-0.4,0.6-0.8,0.5-1.4c0-0.2-0.2-0.4-0.4-0.4c-0.2,0-0.4,0.2-0.6,0.2c-1.1,0.5-2.2,0.5-3.2-0.3
		c-0.1-0.1-0.3-0.2-0.4-0.2c-1.7-0.9-2.9-2.2-3.5-4c-0.1-0.2-0.2-0.5-0.3-0.7C8.1,11.7,8,10.4,8,9c0.1-1.9,0.8-3.6,2.3-4.9
		c0.5-0.5,1.1-1,1.6-1.4c0.2-0.2,0.3-0.4,0.2-0.7c-0.1-0.3-0.3-0.4-0.6-0.5c-0.2,0-0.4,0-0.6,0c-0.5,0.1-0.9,0.3-1.3,0.6
		C8.8,2.7,7.9,3.4,6.9,3.8c-0.6,0.2-1,0.7-1.5,1.1C5.2,5.1,5.1,5.4,5.2,5.7c0.1,0.2,0.2,0.4,0.1,0.6C5.2,6.6,4.9,6.6,4.6,6.6
		C4.4,6.7,4.3,6.9,4.3,7.1C4.4,7.6,4.2,8,3.7,8.1C3.3,8.2,3.2,8.4,3.1,8.8c-0.1,0.5-0.4,1-0.6,1.4c-0.4,0.7-0.6,1.4-0.8,2.2
		c0,0.2,0,0.3,0.2,0.4c0.1,0,0.2,0,0.3-0.1c0.5-0.7,0.9-1.5,1.3-2.3C3.5,10.1,3.8,9.9,4,10c0.2,0.1,0.3,0.4,0.2,0.7
		C4.1,10.9,4,11,3.9,11.2c-0.6,0.7-1.1,1.3-1.7,2c-0.6,0.6-0.9,1.4-1.1,2.2c-0.1,0.2,0,0.4,0.2,0.5s0.4,0,0.5-0.2
		c0.3-0.3,0.4-0.7,0.6-1.1c0.1-0.3,0.2-0.6,0.4-0.8c0.2-0.3,0.5-0.4,0.8-0.2c0.3,0.2,0.3,0.5,0.1,0.8c-0.5,0.6-0.9,1.1-1.4,1.6
		c-0.5,0.6-0.9,1.2-1,2.1c0,0.2,0,0.4,0.2,0.5c0.2,0.1,0.4,0,0.5-0.2c0.3-0.5,0.6-1,0.8-1.5c0.1-0.2,0.2-0.5,0.4-0.7
		c0.1-0.1,0.3-0.1,0.4-0.1c0.2,0.1,0.3,0.2,0.3,0.5c0,0.3-0.2,0.5-0.3,0.7c-0.5,0.7-1,1.4-1.6,2.1c-0.4,0.5-0.5,1.1-0.4,1.7
		c0,0.1,0.2,0.3,0.3,0.3c0.2,0.1,0.4-0.1,0.5-0.3c0.1-0.4,0.2-0.9,0.4-1.3c0.1-0.3,0.4-0.4,0.6-0.3c0.2,0.1,0.3,0.3,0.2,0.5
		c-0.2,0.9-0.6,1.6-1.2,2.3c-0.3,0.4-0.2,0.7,0.2,0.9c0.5,0.2,0.6,0.5,0.5,1c-0.1,0.5-0.1,1,0.1,1.5C3.5,26,3.7,26.2,4,26.2
		c0.2,0,0.3-0.1,0.5-0.1c0.4,0,0.6,0.2,0.5,0.6c-0.1,0.4-0.2,0.7-0.3,1c-0.1,0.4,0.2,0.6,0.6,0.7c0,0,0.1,0,0.2,0
		c0.6,0,0.7,0,0.5,0.5c-0.1,0.5-0.2,0.8,0.4,1C6.7,30,6.9,30.3,7,30.6c0.1,0.5,0.3,0.9,0.7,1.2c1.3,1.2,2.6,2.3,4.2,3.2
		c1.1,0.6,2.3,0.9,3.4,1.3c2.4,0.9,5,0.8,7.5,1c0.4,0,0.8-0.1,1.2-0.2c1.2-0.2,2.3-0.4,3.5-0.7c0.6-0.1,1.2-0.3,1.8-0.6
		c1.2-0.6,2.3-1.3,3.3-2.3c1.7-1.6,2.6-3.5,3.2-5.7c0.2-0.8,0.1-1.6-0.2-2.4c-0.2-0.6-0.8-0.8-1.3-0.3
		C33.8,25.4,33.5,25.8,33.1,26.2L33.1,26.2L33.1,26.2L33.1,26.2z M9.6,21.3c0,0,0-0.1-0.1-0.1c0,0-0.1,0-0.1,0c0,0,0,0.1,0.1,0.1
		C9.5,21.4,9.5,21.4,9.6,21.3L9.6,21.3L9.6,21.3L9.6,21.3z M6.8,22.1c-0.1-0.1-0.2-0.2-0.4-0.3c0,0,0-0.1,0-0.1
		c0-0.1,0.1-0.2,0.2-0.2c0.3,0,0.6,0.1,0.9,0.2c0.1,0,0.3-0.1,0.4-0.2C8,21.3,8,21.1,7.9,21c-0.1-0.2-0.3-0.3-0.4-0.5
		c-0.1-0.2,0-0.3,0.2-0.4c0,0,0.1,0,0.1,0c0.8,0.3,1.3-0.1,1.8-0.6c0.6-0.5,1.2-0.7,2-0.6c0.2,0,0.4,0.2,0.4,0.4
		c0,0.1-0.2,0.3-0.3,0.3c-0.1,0.1-0.3,0.1-0.4,0.1c-0.5,0.2-0.8,0.5-0.6,1.1c0,0.2,0.1,0.3,0.1,0.4c0,0.6-0.4,1.1-0.9,1
		c-0.9-0.3-1.3,0.1-1.7,0.9c-0.2,0.5-0.5,0.9-0.8,1.3C7.2,24.7,7,24.9,6.8,25c-0.2,0.2-0.5,0.2-0.7,0c-0.2-0.2-0.1-0.5,0.1-0.7
		c0.2-0.1,0.3-0.3,0.4-0.4c0-0.1,0.1-0.2,0-0.3c0-0.1-0.2-0.2-0.2-0.2c-0.2,0-0.4,0.1-0.6,0.1c-0.4,0-0.6-0.1-0.5-0.4
		c0.1-0.3,0.3-0.4,0.6-0.4c0.3,0,0.6,0,0.9,0c0.2,0,0.4-0.1,0.5-0.3C7.2,22.3,7.1,22.2,6.8,22.1L6.8,22.1
		C6.8,22.1,6.8,22.1,6.8,22.1z M12,27.8c0.2,0.1,0.4,0.3,0.6,0.5c0.1,0.1,0.4-0.1,0.4-0.3c0-0.3,0-0.6-0.2-0.9
		c-0.2-0.2-0.6-0.3-0.8,0C11.8,27.3,11.8,27.6,12,27.8L12,27.8L12,27.8L12,27.8z M10.7,29c-0.1-0.2-0.3-0.3-0.4-0.5
		c-0.5-0.8-0.1-2,0.8-2.2c0.3-0.1,0.6-0.1,0.9-0.1c1.4,0.1,2.1,1.1,1.5,2.5c-0.3,0.8-2,1.5-2.6,0.6C11,29.2,10.8,29.1,10.7,29
		L10.7,29L10.7,29L10.7,29z M11.3,24.5c-0.5,0.3-1.1,0.4-1.4,1c-0.1,0.2-0.4,0.2-0.6,0.1c-0.5-0.2-0.8,0-1,0.4
		c-0.1,0.1-0.2,0.3-0.3,0.4c-0.2,0.2-0.4,0.3-0.7,0.2c-0.2-0.1-0.2-0.4,0-0.7c0.1-0.2,0.3-0.3,0.4-0.4c0.7-1.4,2.2-1.7,3.5-2.2
		c0.1,0,0.3,0,0.4,0.1c0.1,0.1,0.1,0.3,0,0.4C11.6,24,11.4,24.2,11.3,24.5L11.3,24.5L11.3,24.5L11.3,24.5z M21,23.6
		c0.3,0,0.5,0,0.7,0c0.8,0,0.9,0,1,0.8c0.1,0.8,0.7,1.2,1.3,1.7c0.5,0.4,1.1,0.8,1.7,1.1c0.6,0.4,1.4,0.5,2.1,0.5
		c1.6-0.1,2.9-0.6,4.1-1.7c0.9-0.8,1.9-1.6,2.2-2.9c0-0.2,0.2-0.4,0.3-0.5c0.5-0.6,1.2-0.5,1.4,0.3c0.3,0.9,0.6,1.9,0.9,2.8
		c0.2,0.7,0.3,1.4,0.1,2.1c-0.3,1.9-1.1,3.6-2.1,5.1c-0.2,0.3-0.6,0.6-0.8,0.9c-0.3,0.3-0.6,0.4-0.8,0.7c-0.6,0.9-1.6,1.4-2.6,1.9
		c-1.1,0.6-2.2,1.1-3.5,1.2c-1.3,0.2-2.5,0.5-3.8,0.7c-0.6,0.1-1.2,0.1-1.8,0c-1.4-0.2-2.9-0.3-4.3-0.6c-3.3-0.5-6.2-1.9-8.8-4
		c-1.8-1.5-3.1-3.3-4.4-5.2c-0.1-0.1-0.1-0.3-0.2-0.4c-1.8-2.2-2.3-4.9-3-7.5c-0.4-1.4-0.4-2.7-0.6-4.1c-0.1-0.7-0.1-1.4,0.1-2
		c0.3-1.4,0.4-2.9,1.1-4.2c0.1-0.3,0.2-0.6,0.2-0.9c0.1-0.5,0.3-1,0.6-1.4c0.4-0.5,0.8-1,1-1.6c0.5-1,1.1-1.8,1.8-2.7
		c0.4-0.5,0.8-0.8,1.3-1C7,2.6,7.7,2.2,8.4,1.7c1.3-0.9,2.8-1.3,4.3-1.6c0.7-0.1,1.3,0,2,0.3c0.4,0.2,0.6,0.5,0.6,1
		c-0.1,0.6-0.3,1-0.8,1.1c-0.5,0.1-0.9,0.3-1.2,0.6c-0.2,0.3-0.5,0.5-0.8,0.7c-0.6,0.3-1,0.7-1.4,1.2c-1.8,2.3-2.1,4.8-1,7.5
		c0.3,0.7,0.5,1.3,0.8,2c0.2,0.6,0.6,1.1,1.1,1.4c0.5,0.3,1,0.7,1.6,1c1,0.6,2,0.6,3-0.2c0.3-0.2,0.5-0.6,0.9-0.4
		c0.5,0.2,0.6,0.7,0.6,1.2c0,0.5-0.1,0.9-0.2,1.4c-0.1,0.6,0.1,1,0.5,1.4c0.3,0.3,0.7,0.5,1.1,0.6c1.2,0.3,1.6,1,1.5,2.2
		C20.8,23.3,20.9,23.4,21,23.6L21,23.6L21,23.6L21,23.6z"/>
</g>
</svg>
