<?xml version="1.0" encoding="utf-8"?>
<!-- Generator: Adobe Illustrator 27.5.0, SVG Export Plug-In . SVG Version: 6.00 Build 0)  -->
<svg version="1.1" id="Layer_1" xmlns:xodm="http://www.corel.com/coreldraw/odm/2003"
	 xmlns="http://www.w3.org/2000/svg" xmlns:xlink="http://www.w3.org/1999/xlink" x="0px" y="0px" viewBox="0 0 10.3 10.6"
	 style="enable-background:new 0 0 10.3 10.6;" xml:space="preserve">
<style type="text/css">
	.st0{fill:#FFFFFF;}
</style>
<g id="Layer_x0020_1">
	<path class="st0" d="M0.7,1.7h2.7v-1c0-0.2,0.1-0.4,0.2-0.5l0,0C3.8,0.1,4,0,4.2,0h4l0,0l0,0h0l0.9,0.9h0l0.4,0.4v0l0.9,0.9v6
		c0,0.2-0.1,0.4-0.2,0.5l0,0C10,8.8,9.8,8.9,9.6,8.9H6.9v1c0,0.2-0.1,0.4-0.2,0.5l0,0c-0.1,0.1-0.3,0.2-0.5,0.2H0.7
		c-0.2,0-0.4-0.1-0.5-0.2C0.1,10.2,0,10.1,0,9.9V2.5C0,2.3,0.1,2.1,0.2,2l0,0C0.4,1.8,0.5,1.7,0.7,1.7L0.7,1.7z M9.5,3.2H7.9
		C7.7,3.2,7.5,3.1,7.3,3C7.2,2.9,7.1,2.7,7.1,2.5V0.9H4.3V8h5.2V3.2L9.5,3.2z M8,1v1.4h1.4C9.3,2.4,8,1,8,1z M3.5,2.6H0.9v7.1H6V8.9
		H4.2C4,8.9,3.8,8.8,3.7,8.6C3.5,8.5,3.5,8.3,3.5,8.1C3.5,8.1,3.5,2.6,3.5,2.6z"/>
</g>
</svg>
