<?xml version="1.0" encoding="utf-8"?>
<!-- Generator: Adobe Illustrator 27.5.0, SVG Export Plug-In . SVG Version: 6.00 Build 0)  -->
<svg version="1.1" id="Layer_1" xmlns:xodm="http://www.corel.com/coreldraw/odm/2003"
	 xmlns="http://www.w3.org/2000/svg" xmlns:xlink="http://www.w3.org/1999/xlink" x="0px" y="0px" viewBox="0 0 72.5 88.4"
	 style="enable-background:new 0 0 72.5 88.4;" xml:space="preserve">
<style type="text/css">
	.st0{fill:#A48B50;}
</style>
<g id="Layer_x0020_1">
	<path class="st0" d="M4,8.4L4,8.4C4.1,8.4,4.1,8.4,4,8.4L4,8.4L4,8.4l0.1-0.1C4.3,8.2,4.5,8.1,4.6,8C4.8,7.9,4.9,7.7,5,7.6
		c0.2-0.3,0.4-0.7,0.5-1c0.1-0.4,0.2-0.8,0.2-1.3c0-0.8-0.1-1.5-0.3-2.1C5.3,2.6,5.1,2.1,4.7,1.8C4.4,1.5,4,1.2,3.6,1.1
		C3.2,0.9,2.7,0.8,2.2,0.8c-0.3,0-0.5,0-0.7,0l-0.7,0l0,12.4H2l0-5.1l0.7,1.3c0.2,0.3,0.5,0.9,0.8,1.5c0.4,0.7,0.9,1.6,1.3,2.3h1.4
		L3.6,8.6L4,8.4L4,8.4z M60.7,81.8L60.7,81.8c0.8-0.8,1.8-1.7,2.1-3.4l0,0c0.1-0.5,0.1-1,0-1.5c-0.1-0.4-0.3-0.8-0.6-1.2l0,0
		c-0.2-0.2-0.4-0.4-0.8-0.5c-0.4-0.2-0.8-0.3-1.5-0.3c-0.5,0-1.1,0.2-1.6,0.7c-0.3,0.4-0.5,0.9-0.6,1.7h1.2c0-0.3,0.1-0.6,0.3-0.8
		c0.2-0.3,0.5-0.6,1-0.6h0c0.8,0,1.2,0.4,1.4,0.9c0.1,0.4,0.1,0.9,0,1.3c-0.2,1.3-0.9,1.9-1.7,2.7l0,0c-1.2,1.1-2.6,2.5-2.6,6.1v0.6
		h5.2v-1.2h-3.6c-0.2,0-0.4-0.2-0.4-0.4l0-0.1c0.1-1.1,0.4-1.9,0.8-2.6C59.7,82.7,60.1,82.3,60.7,81.8L60.7,81.8z M61.2,82.4
		L61.2,82.4c-0.5,0.5-0.9,0.9-1.3,1.4c-0.3,0.5-0.5,1-0.6,1.8h3.5c0.2,0,0.4,0.2,0.4,0.4v2c0,0.2-0.2,0.4-0.4,0.4h-6
		c-0.2,0-0.4-0.2-0.4-0.4v-1c0-4,1.6-5.5,2.9-6.7l0,0c0.7-0.7,1.3-1.2,1.5-2.3c0-0.2,0.1-0.6,0-0.9c-0.1-0.2-0.2-0.4-0.6-0.4l0,0
		c-0.1,0-0.2,0.1-0.3,0.2c-0.1,0.2-0.2,0.4-0.2,0.7l0,0.1c0,0.2-0.2,0.4-0.4,0.4h-1.9c-0.2,0-0.4-0.2-0.4-0.4c0-1.2,0.3-2,0.8-2.6
		c0.6-0.8,1.6-1,2.2-1c0.8,0,1.4,0.1,1.8,0.3c0.5,0.2,0.8,0.5,1,0.7l0,0c0.4,0.4,0.6,0.9,0.7,1.5c0.1,0.6,0.1,1.2,0,1.8l0,0
		C63.2,80.5,62.1,81.5,61.2,82.4L61.2,82.4z M70.7,82v-6.7l-2.4,0l-2.6,8h3.4c0.2,0,0.4,0.2,0.4,0.4v3.9h1.2v-3.9
		c0-0.2,0.2-0.4,0.4-0.4h0.6v-0.9h-0.6C70.8,82.4,70.7,82.2,70.7,82z M71.4,74.9v6.7h0.6c0.2,0,0.4,0.2,0.4,0.4v1.7
		c0,0.2-0.2,0.4-0.4,0.4h-0.6V88c0,0.2-0.2,0.4-0.4,0.4h-2c-0.2,0-0.4-0.2-0.4-0.4v-3.9h-3.6c0,0-0.1,0-0.1,0
		c-0.2-0.1-0.3-0.3-0.3-0.5l2.9-8.8c0.1-0.2,0.2-0.3,0.4-0.3l3.1,0C71.3,74.5,71.4,74.7,71.4,74.9L71.4,74.9z M69,82.4l-1.4,0
		c-0.2,0-0.4-0.2-0.4-0.4c0,0,0-0.1,0-0.1l1.5-4.6c0.1-0.2,0.3-0.3,0.5-0.3c0.2,0.1,0.3,0.2,0.3,0.4V82C69.5,82.2,69.3,82.4,69,82.4
		L69,82.4L69,82.4z M68.2,81.6l0.5,0V80L68.2,81.6L68.2,81.6z M31.6,54.2l-2.3,0l0,1.2l1.1,0l0,11.1h1.2
		C31.6,66.5,31.6,54.2,31.6,54.2z M28.9,53.4l3.5,0c0,4.6,0,9.3,0,13.9h-2.8l0-11.1l-1.2,0l0-2.7L28.9,53.4L28.9,53.4z M37.8,54.2
		l-2.3,0l0,1.2l1.1,0l0,11.1h1.2C37.8,66.5,37.8,54.2,37.8,54.2z M35,53.4l3.5,0c0,4.6,0,9.3,0,13.9h-2.8l0-11.1l-1.2,0l0-2.7
		L35,53.4L35,53.4z M4.3,33l-2.3,0l0,1.2l1.1,0l0,11.1h1.2C4.3,45.3,4.3,33,4.3,33z M1.5,32.2l3.5,0c0,4.6,0,9.3,0,13.9H2.3l0-11.1
		l-1.2,0l0-2.7L1.5,32.2L1.5,32.2z M13.6,38.9c-0.2-0.2-0.4-0.4-0.6-0.5c-0.3-0.2-0.6-0.3-0.9-0.4l-0.4-0.1l2-4.8H8.6v1.2h3.3
		l-2,4.7h0.9c0.9,0,1.5,0.3,1.9,0.7c0.6,0.6,0.7,1.5,0.7,1.9c0,0.7-0.2,1.5-0.6,2c-0.4,0.5-0.9,0.9-1.6,0.9c-0.8,0-1.4-0.4-1.7-0.9
		c-0.1-0.2-0.2-0.4-0.3-0.6l-1.1,0.5l0.1,0.2c0.1,0.2,0.2,0.4,0.3,0.6c0.3,0.5,0.7,0.9,1.1,1.1c0.4,0.3,1,0.4,1.5,0.4l0.1,0
		c1,0,1.8-0.5,2.4-1.2c0.7-0.8,1-1.9,1-2.9c0-0.5-0.1-1-0.3-1.4C14.2,39.7,13.9,39.3,13.6,38.9L13.6,38.9z M13.5,37.7
		c0.3,0.2,0.6,0.5,0.8,0.7c0.4,0.4,0.6,0.9,0.8,1.4c0.2,0.5,0.3,1.1,0.3,1.7c0,1.2-0.4,2.5-1.2,3.4c-0.7,0.9-1.7,1.4-3,1.5
		c0,0-0.1,0-0.2,0c-0.7,0-1.3-0.2-1.9-0.5c-0.6-0.3-1-0.8-1.4-1.4c-0.1-0.2-0.3-0.4-0.3-0.7c-0.1-0.2-0.2-0.4-0.2-0.6L7.1,43
		l2.6-1.1l0.1,0.5c0,0.1,0.1,0.5,0.3,0.8c0.2,0.3,0.5,0.5,1,0.5c0.4,0,0.8-0.2,1-0.6c0.3-0.4,0.5-1,0.5-1.5c0-0.3-0.1-0.9-0.5-1.3
		c-0.3-0.3-0.7-0.4-1.3-0.4H8.7l2-4.7H7.8v-2.8h7.1l-2.2,5.1C13,37.5,13.3,37.6,13.5,37.7L13.5,37.7z M4.1,8.4L4.1,8.4L4.1,8.4
		L4.1,8.4L4.1,8.4z M4.1,8.4L4.1,8.4L4.1,8.4L4.1,8.4z M5.2,8.6C5,8.7,4.9,8.8,4.7,8.9l2.8,5.1H4.3l-0.1-0.3
		c-0.4-0.7-0.9-1.6-1.3-2.5l-0.1-0.1l0,2.9H0l0-14l1.5,0C1.6,0,2,0,2.2,0c0.6,0,1.2,0.1,1.7,0.3c0.5,0.2,1,0.5,1.4,0.9
		c0.5,0.5,0.8,1.1,1,1.8c0.2,0.7,0.3,1.5,0.3,2.4c0,0.5-0.1,1-0.2,1.5C6.2,7.3,6,7.7,5.7,8.1C5.5,8.3,5.3,8.5,5.2,8.6L5.2,8.6z
		 M4.6,5.3c0,0.5-0.1,0.9-0.3,1.3C4.1,6.9,3.8,7.2,3.4,7.5C3.2,7.5,3.1,7.6,2.9,7.6C2.8,7.7,2.6,7.7,2.5,7.8L2,7.8V2l0.4,0
		C2.7,2,3,2.1,3.2,2.2c0.2,0.1,0.4,0.2,0.6,0.4c0.3,0.3,0.5,0.7,0.6,1.1C4.5,4.2,4.6,4.7,4.6,5.3L4.6,5.3z M3.6,6.2
		C3.7,6,3.8,5.6,3.8,5.3c0-0.5,0-1-0.1-1.3C3.6,3.6,3.4,3.3,3.3,3.2C3.2,3.1,3,3,2.9,2.9l-0.1,0v4c0.1,0,0.1-0.1,0.2-0.1
		C3.3,6.6,3.4,6.4,3.6,6.2L3.6,6.2z M21.2,1l-2.9,12.3h1.2l0.6-2.6h3.4l0.6,2.6h1.2L22.5,1L21.2,1L21.2,1z M17.4,13.6l3.2-13.4h2.5
		l3.3,13.9h-2.9l-0.6-2.6h-2.1l-0.6,2.6h-2.9L17.4,13.6L17.4,13.6z M22.8,9.4h-2.3l1.4-5.9l1.4,5.9H22.8z M21.5,8.6h0.8L21.9,7
		L21.5,8.6z M42.3,7.4c-0.2-0.1-0.4-0.3-0.6-0.4l0.3-0.3c0.2-0.3,0.4-0.6,0.6-1c0.1-0.4,0.2-0.8,0.2-1.3c0-0.6-0.1-1.1-0.2-1.5
		c-0.1-0.4-0.4-0.8-0.7-1.1c-0.4-0.4-1-0.7-1.5-0.8c-0.5-0.1-1-0.1-1.3-0.1c-0.3,0-0.7,0-0.7,0l-0.6,0l0,12.5l1.4,0
		c0.7,0,1.3-0.1,1.9-0.3c0.5-0.2,0.9-0.4,1.3-0.8c0.3-0.3,0.5-0.7,0.7-1.1c0.2-0.4,0.2-0.9,0.2-1.5c0-0.6-0.2-1.2-0.4-1.6
		C42.8,7.8,42.6,7.6,42.3,7.4z M43.4,5.9c-0.1,0.3-0.3,0.7-0.5,0.9c0.3,0.2,0.6,0.6,0.8,1.1C44,8.4,44.1,9,44.1,9.8
		c0,0.7-0.1,1.3-0.3,1.8c-0.2,0.5-0.5,1-0.9,1.4c-0.4,0.4-1,0.7-1.6,1c-0.6,0.2-1.3,0.3-2.1,0.3c0,0-2.2,0-2.2,0l0-14.1l1.4,0
		c0.1,0,0.5,0,0.8,0c0.3,0,0.8,0,1.4,0.1c0.6,0.1,1.3,0.4,1.8,1c0.4,0.4,0.7,0.8,0.8,1.4c0.2,0.5,0.3,1.1,0.3,1.8
		C43.6,4.9,43.5,5.4,43.4,5.9z M41.6,8.3c0.2,0.2,0.4,0.4,0.5,0.7c0.1,0.2,0.1,0.5,0.1,0.9c0,0.4,0,0.7-0.1,1
		c-0.1,0.3-0.2,0.6-0.5,0.8c-0.2,0.2-0.5,0.4-0.9,0.5c-0.3,0.1-0.7,0.2-1.2,0.2l-0.4,0l0-4.5l0.4,0c0.3,0,0.8,0,1.2,0.1
		C41,7.9,41.3,8,41.6,8.3L41.6,8.3z M41.3,9.2C41.2,9.1,41.1,9,41,8.9c-0.2-0.1-0.4-0.2-0.6-0.3c-0.2,0-0.4-0.1-0.6-0.1l0,2.9
		c0.2,0,0.4-0.1,0.6-0.1c0.2-0.1,0.4-0.2,0.6-0.3c0.1-0.1,0.2-0.3,0.3-0.4c0.1-0.2,0.1-0.5,0.1-0.8C41.4,9.6,41.3,9.4,41.3,9.2z
		 M39.5,2.1c0.3,0,0.5,0,0.8,0.1c0.3,0.1,0.6,0.2,0.8,0.4c0.2,0.2,0.3,0.4,0.4,0.7c0.1,0.3,0.1,0.6,0.1,1c0,0.3,0,0.7-0.1,0.9
		C41.4,5.5,41.3,5.8,41,6c-0.3,0.2-0.6,0.4-0.8,0.4c-0.3,0.1-0.5,0.1-0.7,0.1l-0.4,0V2.1L39.5,2.1L39.5,2.1z M40.1,2.9
		c-0.1,0-0.2,0-0.2,0v2.8l0.1,0c0.2-0.1,0.4-0.1,0.5-0.3c0.1-0.1,0.2-0.2,0.2-0.4c0.1-0.2,0.1-0.4,0.1-0.7c0-0.3,0-0.6-0.1-0.8
		c0-0.2-0.1-0.3-0.2-0.4C40.4,3.1,40.3,3,40.1,2.9z M60.9,10.1c0,0.6-0.2,1.1-0.5,1.5C60,12,59.6,12.2,59,12.2c-0.5,0-1-0.3-1.3-0.7
		c-0.3-0.4-0.5-0.9-0.5-1.5V1.1H56v8.9c0,0.9,0.3,1.8,0.9,2.4c0.6,0.6,1.3,1,2.2,1c0.8,0,1.6-0.4,2.2-1c0.6-0.6,0.9-1.5,0.9-2.4V1.1
		h-1.2L60.9,10.1L60.9,10.1z M59.8,11c0.2-0.2,0.3-0.6,0.3-1V0.3h2.8v9.7c0,1.1-0.4,2.2-1.1,2.9c-0.7,0.8-1.7,1.2-2.8,1.2
		c-1.1,0-2-0.5-2.7-1.2c-0.7-0.8-1.1-1.8-1.1-2.9V0.3H58v9.7c0,0.4,0.1,0.7,0.3,1c0.2,0.2,0.5,0.4,0.7,0.4S59.6,11.3,59.8,11z"/>
</g>
</svg>
