<?xml version="1.0" encoding="utf-8"?>
<!-- Generator: Adobe Illustrator 27.5.0, SVG Export Plug-In . SVG Version: 6.00 Build 0)  -->
<svg version="1.1" id="Layer_1" xmlns:xodm="http://www.corel.com/coreldraw/odm/2003"
	 xmlns="http://www.w3.org/2000/svg" xmlns:xlink="http://www.w3.org/1999/xlink" x="0px" y="0px" viewBox="0 0 115.2 26.4"
	 style="enable-background:new 0 0 115.2 26.4;" xml:space="preserve">
<style type="text/css">
	.st0{fill:#A48B50;}
	.st1{fill:none;stroke:#371810;stroke-width:0.7994;stroke-miterlimit:2.5596;}
</style>
<g id="Layer_x0020_1">
	<path class="st0" d="M71.4,18.6c0.1,0,0.2,0,0.3,0c0.1,0,0.2,0,0.2,0c0.5,0,1.1-0.1,1.7-0.4c0.6-0.3,1.2-0.7,1.8-1.2
		c1-0.8,1.7-1.7,2.2-2.6c0.5-0.9,0.8-1.8,0.8-2.6c0-0.3,0-0.6-0.1-0.8c-0.1-0.3-0.2-0.5-0.5-0.8c-0.6,0.4-1.5,1.4-2.5,2.7
		C74.3,14.3,73,16.2,71.4,18.6L71.4,18.6z M106.9,25.3c0.1,0.2,0.2,0.3,0.3,0.4c0.2,0.1,0.4,0.1,0.7,0.1c0.8,0,1.5-0.4,1.9-1.3
		c0.5-0.9,0.7-2.2,0.8-4c-0.8,0.4-1.5,1-2.2,1.5l-0.3,0.2c0,0,0.1,0,0.1,0c0,0,0,0.1,0,0.1c0,0.2-0.2,0.4-0.7,0.7
		c-0.5,0.3-0.9,0.5-1.3,0.5c-0.3,0-0.5-0.1-0.7-0.2c-0.2-0.1-0.4-0.3-0.6-0.5c-1.1,1.1-2.1,1.9-3,2.4c-0.9,0.6-1.7,0.8-2.3,0.8
		c-0.4,0-0.8-0.1-1-0.4c-0.3-0.3-0.4-0.6-0.4-1c0-0.1,0-0.3,0-0.4c-0.7,0.5-1.4,1-2,1.3c-0.8,0.4-1.5,0.6-2,0.6
		c-0.4,0-0.7-0.1-0.9-0.3c-0.2-0.2-0.3-0.5-0.3-0.9c0-0.6,0.2-1.1,0.5-1.8c0.3-0.6,0.8-1.4,1.6-2.3c-0.5,0.4-1,0.8-1.6,1.3
		c0,0,0,0,0,0c0,0,0,0.1,0,0.1c0,0.2-0.2,0.4-0.7,0.7c-0.5,0.3-0.9,0.5-1.3,0.5c-0.3,0-0.5-0.1-0.7-0.2c-0.2-0.1-0.4-0.3-0.6-0.5
		c-1.1,1.1-2.1,1.9-3,2.4c-0.9,0.6-1.7,0.8-2.3,0.8c-0.4,0-0.8-0.1-1-0.4c-0.3-0.3-0.4-0.6-0.4-1c0-0.1,0-0.3,0-0.5
		c-0.7,0.5-1.3,0.9-2,1.2c-0.8,0.4-1.5,0.6-1.9,0.6c-0.4,0-0.7-0.1-0.9-0.3c-0.2-0.2-0.4-0.5-0.4-0.8c0-0.4,0.1-0.8,0.5-1.3
		c0.3-0.5,0.7-1,1.3-1.5c0.2-0.2,0.4-0.4,0.8-0.6c0.8-0.6,1.2-1,1.2-1.2c0-0.1,0-0.1-0.1-0.1c-0.1,0-0.1-0.1-0.2-0.1
		c-0.5,0-1.5,0.5-2.8,1.6c-1.4,1.1-2.7,2.5-4.1,4.1c-0.1,0-0.2,0-0.3,0.1c-0.1,0-0.3,0-0.6,0c-0.3,0-0.5,0-0.6,0
		c-0.1,0-0.1-0.1-0.1-0.1c0-0.1,0.5-0.7,1.5-1.8c1-1.1,2-2.2,2.9-3.3c-0.5,0.4-1.1,0.9-1.7,1.4c-0.6,0.5-1,0.8-1.1,0.8
		c0,0-0.1,0-0.1-0.1c0,0,0-0.1,0-0.2c0-0.2,0.4-0.6,1.1-1.2c0.8-0.6,1.8-1.4,3.1-2.3l7.1-8.3c0.1-0.1,0.2-0.2,0.3-0.3
		c0.1,0,0.2-0.1,0.3-0.1c0.2,0,0.4,0,0.6,0.1c0.2,0.1,0.2,0.1,0.2,0.2c0,0.1-0.1,0.2-0.2,0.3c0,0,0,0-0.1,0.1L79,21.5
		c0.9-0.6,1.6-1.1,2.2-1.4c0.6-0.3,1.1-0.4,1.5-0.4c0.3,0,0.5,0.1,0.6,0.2c0.2,0.2,0.2,0.4,0.2,0.7c0,0.3-0.1,0.6-0.3,0.9
		c-0.2,0.3-0.6,0.8-1.3,1.4c-0.2,0.2-0.4,0.4-0.8,0.7c-1,0.9-1.5,1.5-1.5,1.7c0,0.1,0,0.2,0.1,0.2c0.1,0.1,0.2,0.1,0.3,0.1
		c0.4,0,0.9-0.2,1.6-0.5c0.7-0.4,1.5-0.8,2.3-1.4c0.1-0.1,0.1-0.1,0.2-0.2c0.1-0.2,0.2-0.3,0.3-0.5c0.5-0.7,1.1-1.3,2-1.9
		c0.7-0.5,1.3-0.8,2-1.1c0.7-0.3,1.3-0.4,1.8-0.4c0.4,0,0.8,0.1,1,0.3c0.3,0.2,0.4,0.5,0.4,0.9c0,0.2-0.1,0.5-0.2,0.8
		c-0.1,0.3-0.4,0.6-0.7,1c0.1,0.2,0.2,0.3,0.4,0.4c0.2,0.1,0.4,0.1,0.6,0.1c0.2,0,0.4-0.1,0.6-0.2c0,0,0,0,0,0c0-0.2,1-1.1,3.1-2.6
		l1-0.8l1.1-1.2h-2.2l0.4-0.4h2.2l2.3-2.9c0.1-0.1,0.2-0.2,0.3-0.2c0.1,0,0.2-0.1,0.4-0.1c0.3,0,0.5,0,0.7,0.1
		c0.2,0.1,0.3,0.2,0.3,0.3c0,0.1,0,0.1,0,0.2c0,0-0.1,0.1-0.1,0.2l-2.1,2.5h2.5l-0.4,0.4h-2.5l-2.9,3.4c-0.7,0.8-1.2,1.5-1.5,2
		c-0.3,0.5-0.5,1-0.5,1.4c0,0.2,0,0.3,0.1,0.4c0.1,0.1,0.2,0.1,0.3,0.1c0.4,0,1-0.2,1.7-0.5c0.7-0.4,1.5-0.9,2.3-1.5l0.1-0.1
		c0.1-0.2,0.2-0.4,0.3-0.5c0.5-0.7,1.1-1.3,2-1.9c0.7-0.5,1.3-0.8,2-1.1c0.7-0.3,1.3-0.4,1.8-0.4c0.4,0,0.8,0.1,1,0.3
		c0.3,0.2,0.4,0.5,0.4,0.9c0,0.2-0.1,0.5-0.2,0.8c-0.1,0.3-0.4,0.6-0.7,1c0.1,0.2,0.2,0.3,0.4,0.4c0.2,0.1,0.4,0.1,0.6,0.1
		c0.3,0,0.6-0.1,0.9-0.3c0,0,0-0.1,0-0.1c0-0.2,0.3-0.5,1-1.1c0.7-0.5,1.6-1.1,2.7-1.8c0.1-0.5,0.2-0.9,0.4-1.2
		c0.2-0.3,0.5-0.4,0.7-0.4c0.1,0,0.2,0,0.3,0.1c0.1,0.1,0.1,0.2,0.1,0.4c0,0.2-0.1,0.5-0.3,0.7s-0.4,0.4-0.8,0.6
		c0.2,0.3,0.3,0.6,0.4,0.9c0.1,0.3,0.1,0.7,0.1,1.1c0,0.7-0.1,1.3-0.3,1.8c-0.2,0.5-0.5,0.9-1,1.3c1.1-0.4,2.1-1,3-1.8
		c0.9-0.7,1.4-1.1,1.4-1.1c0.1,0,0.1,0,0.1,0.1c0,0,0.1,0.1,0.1,0.2c0,0.1-0.2,0.4-0.5,0.7s-0.8,0.7-1.4,1.1
		c-0.9,0.6-1.8,1.1-2.7,1.5c-0.9,0.4-1.7,0.5-2.4,0.5c-0.5,0-1-0.1-1.3-0.4c-0.3-0.2-0.5-0.6-0.5-0.9c0-0.3,0.1-0.6,0.3-0.8
		c0.2-0.2,0.4-0.3,0.7-0.3c0.2,0,0.4,0.1,0.5,0.2c0.1,0.1,0.2,0.3,0.2,0.5c0,0.2-0.1,0.4-0.2,0.5c-0.1,0.1-0.4,0.2-0.6,0.2
		C107.1,25.3,107,25.3,106.9,25.3C107,25.3,106.9,25.3,106.9,25.3L106.9,25.3z M99.5,25.2c0,0.2,0,0.3,0.1,0.3
		c0.1,0.1,0.2,0.1,0.4,0.1c0.4,0,0.8-0.2,1.5-0.5c0.6-0.3,1.3-0.8,2.1-1.5c0.7-0.6,1.2-1.1,1.6-1.6c0.4-0.5,0.6-0.9,0.6-1.2
		c0-0.2-0.1-0.3-0.1-0.4c-0.1-0.1-0.2-0.1-0.4-0.1c-0.3,0-0.7,0.1-1.2,0.4c-0.5,0.3-1,0.6-1.6,1.1c-0.9,0.8-1.6,1.5-2.1,2.1
		C99.7,24.5,99.5,24.9,99.5,25.2z M84.8,25.2c0,0.2,0,0.3,0.1,0.3c0.1,0.1,0.2,0.1,0.4,0.1c0.4,0,0.8-0.2,1.5-0.5
		c0.6-0.3,1.3-0.8,2.1-1.5c0.7-0.6,1.2-1.1,1.6-1.6c0.4-0.5,0.6-0.9,0.6-1.2c0-0.2-0.1-0.3-0.1-0.4c-0.1-0.1-0.2-0.1-0.4-0.1
		c-0.3,0-0.7,0.1-1.2,0.4c-0.5,0.3-1,0.6-1.6,1.1c-0.9,0.8-1.6,1.5-2.1,2.1C85,24.5,84.8,24.9,84.8,25.2z M70.9,19.2
		c-1.6,2.4-3.3,4.2-5.2,5.4c-1.9,1.2-3.9,1.8-6,1.8c-1.4,0-2.5-0.3-3.4-0.8c-0.8-0.5-1.2-1.3-1.2-2.2c0-0.5,0.1-0.9,0.4-1.3
		c0.3-0.3,0.7-0.5,1.1-0.5c0.3,0,0.6,0.1,0.8,0.3c0.2,0.2,0.3,0.5,0.3,0.8c0,0.3-0.1,0.5-0.3,0.7c-0.2,0.2-0.5,0.3-0.8,0.3
		c-0.1,0-0.1,0-0.3,0c-0.1,0-0.2,0-0.3,0c0,0-0.1,0-0.1,0.1c0,0,0,0.1,0,0.2c0,0.5,0.3,0.9,1,1.3c0.6,0.4,1.4,0.6,2.4,0.6
		c1.6,0,3.1-0.5,4.6-1.6c1.5-1.1,3.3-3,5.5-5.8c-0.2-0.2-0.3-0.4-0.4-0.6c-0.1-0.2-0.1-0.4-0.1-0.7c0-0.5,0.2-1,0.6-1.4
		c0.4-0.4,0.8-0.6,1.2-0.6c0.1,0,0.2,0,0.3,0.1c0.1,0.1,0.1,0.1,0.1,0.2c0,0.1-0.2,0.3-0.6,0.4c-0.1,0-0.2,0.1-0.3,0.1
		c-0.2,0.1-0.4,0.3-0.6,0.5c-0.1,0.2-0.2,0.5-0.2,0.8c0,0.1,0,0.3,0.1,0.4c0.1,0.1,0.2,0.2,0.3,0.3l0.4-0.4c3.2-4,5.6-6.6,7.2-7.8
		c-0.7-0.5-1.5-0.9-2.4-1.2C74.1,8.2,73.2,8,72.1,8c-1.6,0-3.2,0.3-4.8,0.8s-3.1,1.3-4.5,2.4c-1.1,0.8-2,1.7-2.6,2.6
		c-0.6,0.9-0.9,1.8-0.9,2.6c0,0.6,0.2,1.2,0.7,1.6c0.5,0.4,1.1,0.6,1.8,0.6c1,0,2.1-0.4,3.3-1.2c1.2-0.8,2.3-1.9,3.3-3.3
		c0.5-0.7,0.9-1.4,1.3-2.2c0.3-0.8,0.6-1.2,0.7-1.2c0,0,0.1,0,0.1,0.1c0,0.1,0,0.1,0,0.3c0,0.4-0.1,1-0.3,1.6
		c-0.2,0.7-0.5,1.3-0.9,1.9c-0.9,1.5-2,2.6-3.3,3.4c-1.2,0.8-2.6,1.2-4,1.2c-1,0-1.8-0.3-2.4-0.8c-0.6-0.5-0.9-1.2-0.9-2.1
		c0-0.9,0.3-1.9,1-2.9c0.6-1,1.6-1.9,2.8-2.8c1.5-1.1,3-1.9,4.7-2.5c1.7-0.6,3.4-0.9,5.1-0.9c1.1,0,2.2,0.2,3.1,0.5
		c1,0.3,1.8,0.8,2.7,1.4c0.5-0.4,0.9-0.6,1.3-0.9c0.4-0.2,0.7-0.3,0.8-0.3c0.1,0,0.2,0,0.2,0.1c0.1,0,0.1,0.1,0.1,0.1
		c0,0.1-0.2,0.3-0.7,0.6c-0.5,0.3-0.9,0.6-1.3,0.8c0.4,0.4,0.6,0.8,0.8,1.3c0.2,0.5,0.3,1.1,0.3,1.7c0,1-0.2,1.9-0.7,2.7
		c-0.4,0.8-1.1,1.6-2,2.3c-0.6,0.5-1.3,0.9-2.1,1.1c-0.8,0.3-1.6,0.4-2.3,0.4c-0.2,0-0.4,0-0.7,0C71.5,19.3,71.2,19.2,70.9,19.2
		L70.9,19.2z"/>
	<path class="st1" d="M6.3,9.6c0,0.5,0,1.3-0.1,1.9c-0.1,0.6-0.4,1.1-0.7,1.3C5.2,13,4.8,13,4.4,12.9c-0.7-0.1-1.8-1-1.8-5.1V7.7
		c0-3,0.7-4.8,2-5.1c0.9-0.2,1.8,0.6,1.8,0.6l0.1,0.1L8,1.8L8,1.7C7.9,1.7,6.3,0.1,4.2,0.5C3.4,0.7,2.3,1.1,1.5,2.6
		c-0.7,1.2-1.1,3-1.1,5.3v0.1l0,0c0,2.2,0.3,3.9,0.9,5.1c0.7,1.4,1.8,1.9,2.6,2.1c0.3,0.1,0.6,0.1,0.9,0.1c0.7,0,1.3-0.2,1.9-0.6
		c0.9-0.6,1.4-1.6,1.7-2.8c0.1-0.8,0.2-1.7,0.2-2.3h0.7V7.4H4.8v2.2C4.8,9.6,6.3,9.6,6.3,9.6z M24.5,0.6L21,15h2.3l0.7-2.9h3
		l0.7,2.9H30L26.6,0.6C26.6,0.6,24.5,0.6,24.5,0.6z M26.5,9.9h-2l1-4.1L26.5,9.9z M45,0.6h-2.2l0,14.4h5.4v-2.2H45L45,0.6L45,0.6z
		 M63.1,8.9h2V6.7h-2l0-4l3.5,0l0-2.2l-5.7,0l0,14.4l5.8,0l0-2.2l-3.6,0L63.1,8.9L63.1,8.9z M83.9,9.6C84,9.6,84,9.5,84,9.5
		c0.5-0.2,0.8-0.5,1.1-0.9c0.6-0.7,0.9-1.7,0.9-2.8c0-1.9-0.4-3.3-1.3-4.2c-0.8-0.8-1.8-1.2-3.1-1.2c-0.4,0-0.8,0-0.9,0l-1.1,0
		l0,14.6h2.2l0-4.4c0.5,0.8,1.6,2.9,2.4,4.3l0,0.1h2.5L83.9,9.6C83.9,9.6,83.9,9.6,83.9,9.6L83.9,9.6z M83.9,5.8c0,1-0.4,1.6-1.1,2
		C82.5,8,82.2,8,81.9,8.1V2.6c0.5,0,1,0.2,1.3,0.5C83.7,3.6,83.9,4.5,83.9,5.8L83.9,5.8z M102.7,5.5l-2.3-4.9h-2.5l3.6,7.5V15h2.3
		v-7l3.7-7.5H105L102.7,5.5L102.7,5.5z"/>
</g>
</svg>
