<?xml version="1.0" encoding="utf-8"?>
<!-- Generator: Adobe Illustrator 27.5.0, SVG Export Plug-In . SVG Version: 6.00 Build 0)  -->
<svg version="1.1" id="Layer_1" xmlns:xodm="http://www.corel.com/coreldraw/odm/2003"
	 xmlns="http://www.w3.org/2000/svg" xmlns:xlink="http://www.w3.org/1999/xlink" x="0px" y="0px" viewBox="0 0 219.6 1.5"
	 style="enable-background:new 0 0 219.6 1.5;" xml:space="preserve">
<style type="text/css">
	.st0{fill:#A48B50;}
</style>
<g id="Layer_x0020_1">
	<path class="st0" d="M15.5,0.5c-3.6,0-7.1,0-10.6-0.2l0,0c-0.7,0-1.3,0-1.9,0.1C2.4,0.4,1.8,0.5,1.2,0.6C1,0.6,0.9,0.6,0.8,0.7
		c-0.1,0-0.1,0.1-0.1,0.2l0,0C0.8,0.9,0.8,1,1,1c0.1,0,0.3,0.1,0.5,0.1c0.4,0,0.9,0.1,1.3,0.1c0.4,0,0.9,0,1.3,0c0.7,0,1.4,0,2.1,0
		c0.6,0,1.3,0,1.9,0c2.5,0,5,0,7.5,0c3.4,0,6.9,0,10.3,0c4,0,8,0,12-0.1c3.6,0,7.2,0,10.8-0.1c4.2,0,8.3,0,12.5,0
		c3.8,0,7.5,0,11.2,0.1C77.6,1,82.8,1,88,1.1c2.9,0,5.7,0,8.6,0c2,0,4.1,0,6.1,0c1.1,0,2.2,0,3.3,0c1.1,0,2.3,0,3.4,0
		c4.3,0,8.6,0,13-0.1c6.3,0,12.5-0.1,18.8-0.1c8.9,0,17.7,0,26.6,0l2.1,0c3.8,0,7.7,0,11.5,0l1.5,0c1.3,0,2.5,0,3.8,0
		c2.5,0,4.9,0.1,7.4,0c3.9,0,7.7-0.1,11.6-0.1c3.9,0,7.7,0,11.6,0.1c0.2,0,0.4,0,0.6,0c0.2,0,0.4,0,0.5,0c0.2,0,0.3-0.1,0.5-0.1
		c0.1,0,0.1,0,0.1-0.1c0,0,0,0-0.1-0.1c-0.1,0-0.2-0.1-0.3-0.1c-1-0.1-2-0.2-3-0.2c-1,0-2,0-3.1,0c-2,0.1-4,0-6,0c-0.7,0-1.4,0-2,0
		c-1.2,0-2.5,0-3.7,0c-5.3,0-10.6-0.1-15.9,0.1c-2,0.1-4,0-6,0c-0.8,0-1.7,0-2.5,0c-0.4,0-0.7,0-1.1,0c-0.5,0-1.1,0-1.6,0
		c-4,0.1-8.1,0.1-12.2,0.1c-2.5,0-5,0-7.5,0c-5.7,0.1-11.5,0-17.2,0c-5.4,0-10.8-0.1-16.2,0c-0.9,0-1.8,0-2.7,0c-0.4,0-0.9,0-1.3,0
		c-0.3,0-0.6,0-1,0c-0.7,0-1.4,0-2.1,0c-6,0.2-12.1,0.2-18.1,0.1c-2,0-4,0-6-0.1c-5,0-10.1,0-15.1,0c-4.9,0-9.9,0-14.8,0
		c-8,0-15.9,0-23.9-0.1c-5.4,0-10.9,0-16.3,0C18,0.4,16.7,0.4,15.5,0.5L15.5,0.5z M5.1,0C8.5,0.2,12,0.2,15.5,0.2c1.2,0,2.5,0,3.7,0
		c5.4,0,10.9,0,16.3,0c8,0,15.9,0,23.9,0.1c4.9,0,9.9,0,14.8,0c5,0,10.1,0,15.1,0c2,0,4,0,6,0.1c6,0.1,12,0.1,18-0.1
		c0.7,0,1.5,0,2.2,0c0.3,0,0.6,0,0.9,0c0.5,0,0.9,0,1.3,0c0.9,0,1.8,0,2.7,0c5.4,0,10.8,0,16.3,0c5.7,0,11.5,0.1,17.2,0
		c2.5,0,5,0,7.5,0c4,0,8.1,0,12.1-0.1c0.6,0,1.1,0,1.7,0c0.4,0,0.7,0,1,0c0.8,0,1.7,0,2.5,0c2,0,4,0.1,5.9,0
		c5.3-0.2,10.7-0.1,16-0.1c1.2,0,2.5,0,3.7,0c0.7,0,1.4,0,2,0c2,0,3.9,0,5.9,0c1.1,0,2.1,0,3.2,0c1.1,0,2.1,0.1,3.1,0.2
		c0.2,0,0.5,0.1,0.6,0.2c0.2,0.1,0.3,0.2,0.3,0.3c0,0.1-0.2,0.2-0.4,0.2c-0.2,0.1-0.4,0.1-0.7,0.1c-0.2,0-0.5,0-0.7,0.1
		c-0.2,0-0.5,0-0.7,0h0c-3.9-0.1-7.7-0.1-11.6-0.1c-3.9,0-7.7,0-11.6,0.1c-2.5,0-4.9,0-7.4,0c-1.3,0-2.5,0-3.8,0l-1.5,0
		c-3.8,0-7.7,0-11.5,0l-2.1,0c-8.9,0-17.7,0-26.6,0c-6.3,0-12.5,0-18.8,0.1c-4.3,0-8.6,0-13,0.1c-1.1,0-2.3,0-3.4,0
		c-1.1,0-2.2,0-3.3,0c-2,0-4.1,0-6.1,0c-2.9,0-5.7,0-8.6,0c-5.2,0-10.4,0-15.6-0.1c-3.7,0-7.5,0-11.2-0.1c-4.2,0-8.3,0-12.5,0
		c-3.6,0-7.2,0-10.8,0.1c-4,0-8,0.1-12,0.1c-3.4,0-6.9,0-10.3,0c-2.5,0-5,0-7.5,0c-0.6,0-1.3,0-1.9,0c-0.7,0-1.4,0-2.1,0
		c-0.4,0-0.9,0-1.4,0c-0.5,0-0.9,0-1.3-0.1C1,1.3,0.7,1.3,0.5,1.2C0.2,1.1,0.1,1,0,0.9C0,0.8,0,0.7,0.2,0.6c0.2-0.1,0.4-0.2,0.7-0.2
		c0.6-0.1,1.2-0.2,1.9-0.2C3.5,0,4.2,0,5,0L5.1,0L5.1,0L5.1,0z"/>
</g>
</svg>
