<?xml version="1.0" encoding="utf-8"?>
<!-- Generator: Adobe Illustrator 27.5.0, SVG Export Plug-In . SVG Version: 6.00 Build 0)  -->
<svg version="1.1" id="Layer_1" xmlns:xodm="http://www.corel.com/coreldraw/odm/2003"
	 xmlns="http://www.w3.org/2000/svg" xmlns:xlink="http://www.w3.org/1999/xlink" x="0px" y="0px" viewBox="0 0 81.2 109.1"
	 style="enable-background:new 0 0 81.2 109.1;" xml:space="preserve">
<style type="text/css">
	.st0{fill-rule:evenodd;clip-rule:evenodd;fill:#FFFFFF;}
	.st1{fill:#A48B50;}
</style>
<path class="st0" d="M44.1,23c0.6-1.4,1.7-2.6,3-3.3c2.4-1.3,5-1.5,7.5-0.8c1.9,0.5,3.4,1.8,4.3,3.5c0.2,0.4,0.4,0.8,0.5,1.2
	c0.1,0,0.2,0,0.2,0c1.4,0.2,2.8,0.3,4.2,0.7c1.3,0.4,2.5,1,3.5,2.1c1.4,1.4,1.7,3.2,1.2,4.8c0.2,0.2,0.5,0.4,0.8,0.6
	c0.6,0.4,1.1,1,1.5,1.7c1.4,2.4,0.7,5.1-1.4,6.4c1.4,0.2,2.6,0.8,3.2,1.9c0,0,0.1,0,0.1,0c1.6,0.4,2.6,1.2,3,2.5
	c0.3,0.1,0.6,0.2,1,0.5c1.3,0.8,2,2,2.2,3.5c0.2,2-1,3.7-3,4.1c-0.6,0.1-1,0.3-1.5,0.4c-0.8,1.1-2,1.7-3.5,1.4c-1.8-0.3-3.2-0.3-5-1
	c-0.4-0.2-0.8-0.4-1.3-0.5c-0.1,0.3-0.3,0.6-0.5,0.8c0.3,0.8,0.4,1.7,0.2,2.7c1.4,0.1,2.9,0.2,4.3,0.5c2.4,0.5,4.6,1.5,6.8,2.5
	c0.8,0.4,1.5,0.8,2.3,1.2c0.1,0.1,0.2,0.1,0.3,0.2c1.4,0.9,2.4,2.2,2.2,4c-0.2,2-1.8,3.3-3.7,3.6c-0.1,0-0.2,0-0.3,0
	c0.4,0.2,0.8,0.5,1.1,0.8c0.8,0.7,1.2,1.7,1.4,2.8c0.2,1.1,0.3,2.1,0.3,3.2c1.1,0.6,1.8,1.9,1.8,3.2c0,0.1,0,0.3,0,0.4
	c0,0.5,0,0.9-0.1,1.4c-0.3,1.5-0.4,3-0.5,4.6c0,0.9-0.1,1.7-0.5,2.5c-1.1,2.3-4.1,2.9-5.9,1.3c-0.2,0.8-0.4,1.5-1.1,2.2
	c-1.7,2-4.7,1.7-6-0.3c-0.4,0.6-0.9,1.1-1.6,1.5c-0.6,0.3-1.3,0.5-2,0.5c-0.7,0.1-1.5,0-2.3,0.1c-2,0.2-3.3,0.7-5.2,1.6
	c-0.8,0.4-1.5,0.7-2.3,1c-0.1,0.1-0.3,0.1-0.4,0.2c-1.6,1.1-3.3,1.9-5.1,2.7c0.1,0.5,0.2,1,0.2,1.6c0.1,1.3-0.6,2.5-1.7,3.2
	c-0.3,1.5-1.6,2.8-3.1,3c-0.4,1.4-1.5,2.6-3,2.8c-0.6,0.1-1.2,0-1.7-0.2c-0.4,0.2-0.7,0.4-1.2,0.5c-1.6,0.4-3.2-0.3-4.1-1.6
	c-0.9-1.3-1.2-2.5-1.5-3.9c0-0.1-0.1-0.2-0.1-0.4c-0.1,0-0.3,0-0.4,0c-2.4,0.1-4.7-0.1-6.9-1.1c-2.9-1.4-4.3-4.2-3.6-7.1
	c-1.1-1-1.7-2.5-1.5-4.1c0.1-0.6,0.2-1.2,0.4-1.8c-1.2-1.1-2-2.5-2.2-4.3c-1.2,1.1-2.3,2.2-3.7,3c-1.4,0.8-3,0.9-4.3-0.2
	c-1.2-1-1.8-2.6-1.3-4.1c0.5-1.6,0.8-3.1,1.6-4.6c0.3-0.6,0.6-1.2,0.9-1.8c-0.2,0.1-0.4,0.1-0.7,0.2c-0.6,0.2-1.3,0.2-1.9,0.3
	c-1.2,0.1-2.4-0.3-3.4-1.1c0,0,0,0-0.1-0.1c-1.1-1-1.6-2.5-1.1-4c0.3-1,0.8-1.9,1.5-2.7c1.2-1.3,2.5-2.5,3.9-3.6
	c-0.6-0.4-1.2-0.9-1.7-1.5c-0.4-0.5-1-1-1.4-1.5c-0.1-0.1-0.2-0.3-0.3-0.3c-0.8-0.1-1.6-0.3-2.3-0.6c-3.4-1.5-4-5.8-1.2-8.2
	c-0.2-1-0.2-2.1,0.2-3.1c-0.3-0.2-0.5-0.4-0.7-0.6c-2.4-2.4-2-6.1,0.7-8c1.2-0.8,2.5-1.3,3.8-1.3C5.4,39,6,37.1,7.6,35.9
	c-0.1-0.4-0.2-0.9-0.3-1.4c-0.4-3.8,1.2-6,4.8-7.2c1.9-0.6,3.8-0.7,5.8-0.4c0.4,0.1,0.8,0.2,1.2,0.3c-0.1-0.5-0.2-1-0.3-1.6
	c0-0.3-0.1-0.5-0.1-0.8c0-0.1,0-0.2,0-0.3c-0.2-1.7-0.2-3.4,0.1-5.1c0.3-1.8,0.3-3.7,0.5-5.5c0.1-1.5-0.3-3.2-0.4-4.7
	c0-0.7-0.1-1.3-0.1-1.9c-0.1-1,0.1-2,0.5-3c0.9-2.1,3.1-3.1,5.1-2.6c0.8-0.6,1.8-0.9,2.8-0.7c1.4-1.3,3.1-1.5,4.6-0.7
	c1.5-0.3,3,0.3,4,1.7c0.3,0.5,0.6,1,0.7,1.5c0.3,1.2,0.6,2.4,0.9,3.6c0.2,0.9,0.4,1.8,0.7,2.7c0.1,0.2,0.3,0.4,0.5,0.6
	c0.8,1.1,1.7,2.1,2.5,3.2c0.1,0.2,0.3,0.3,0.4,0.5c1.3,2.1,2.2,4.5,2.2,7c0,0.6,0,1.1-0.1,1.7C43.8,23,43.9,23,44.1,23L44.1,23z"/>
<g>
	<path class="st1" d="M47.1,25.6L47.1,25.6L47.1,25.6c0.4,0.1,0.5-0.3,0.6-0.5c0.2-0.2,0.3-0.4,0.5-0.6c1.3-1.3,2.9-1.7,4.7-1.5
		c0.1,0,0.3,0.2,0.3,0.3c0.1,0.2-0.1,0.4-0.3,0.5c-0.5,0.1-0.9,0.2-1.4,0.3c-0.7,0.2-1.5,0.4-2,0.9c-0.1,0.1-0.2,0.3-0.1,0.4
		c0.1,0.1,0.2,0.2,0.4,0.2c0.1,0,0.3,0,0.5-0.1c1.1-0.5,2.2-1,3.4-1.5c0.3-0.1,0.6-0.2,0.9-0.1c0.2,0.1,0.4,0.2,0.4,0.5
		c0,0.1-0.1,0.4-0.2,0.4c-0.4,0.2-0.9,0.4-1.4,0.5c-0.4,0.1-0.8,0.1-1.3,0.2c-0.5,0.1-0.7,0.5-0.6,0.8c0.1,0.3,0.5,0.4,0.8,0.2
		c0.5-0.2,0.9-0.6,1.4-0.8c0.5-0.3,1-0.6,1.7-0.5c0.3,0,0.5,0.2,0.5,0.5c0,0.3-0.1,0.5-0.5,0.5c-0.4,0-0.9,0-1.2,0.3
		c-0.2,0.2-0.2,0.4-0.2,0.6c0.1,0.2,0.3,0.3,0.5,0.3c0.2,0,0.4-0.1,0.6-0.2c0.4-0.1,0.8-0.3,1.2-0.3c0.4-0.1,0.7,0.1,0.7,0.6
		c0,0.1,0,0.2,0,0.3c0,0.3,0.2,0.4,0.4,0.4c1.9-0.8,3.7-0.3,5.5,0.3c0.4,0.1,0.8,0.3,1.2,0.6c0.6,0.4,0.7,0.9,0.1,1.3
		c-0.3,0.3-0.7,0.5-1,0.7c-0.9,0.7-0.9,1.4,0.1,2c0.3,0.2,0.6,0.3,0.8,0.5c0.6,0.3,1.2,0.5,1.7,0.8c0.5,0.3,0.9,0.5,1.3,1
		c0.3,0.4,0.1,1.1-0.4,1.1c-0.6,0.1-1.3,0.2-1.9,0.2c-1,0-1.9,0-2.8,0.5c-0.5,0.3-1.1,0.3-1.7,0.2c-0.7-0.1-1.3,0.2-1.8,0.4
		c-0.1,0-0.2,0.3-0.1,0.4c0,0.1,0.2,0.3,0.3,0.3c0.3,0,0.6,0,1-0.1c0.6-0.1,1.1-0.3,1.7-0.5c0.3-0.1,0.5-0.1,0.8,0.1
		c0.1,0.1,0.2,0.2,0.2,0.3c0,0.1-0.1,0.2-0.2,0.2c-0.4,0.1-0.8,0.1-1.3,0.2c-0.2,0.1-0.4,0.3-0.3,0.5c0,0.3,0.2,0.4,0.5,0.3
		c0.4-0.1,0.7-0.1,1.1-0.2c0.3-0.1,0.6-0.3,0.9-0.3c0.4,0.1,0.4,0.5,0.5,0.8c0.1,0.3,0.5,0.3,0.7,0.4c0.2,0.2,0.2,0.5,0,0.7
		c-0.3,0.2-0.6,0.2-0.9,0.2c-1.2-0.1-2.3-0.5-3.4-0.9c-3.3-1.1-6.5-2.6-9.7-4c-1.3-0.6-2.5-1.3-3.5-2.3c-0.5-0.4-0.9-0.9-1-1.6
		c-0.2-0.8,0.1-1.2,0.9-1.4c0.5-0.1,1-0.1,1.4-0.2h0c2.2-0.4,4.4,0,6.5,0.5c1.2,0.3,2.4,0.6,3.3,1.5c0.6,0.5,0.7,1.1-0.2,1.7
		c-0.2,0.1-0.5,0.2-0.7,0.3c-0.5,0.1-0.7-0.1-0.6-0.5c0.1-0.9,0.1-1.1-0.7-1.4c-1.2-0.5-2.5-0.8-3.7-1c-1-0.2-2,0-3,0.3
		c-0.7,0.2-0.9,0.9-0.5,1.5c0.4,0.5,0.8,0.9,1.4,1.1c1.6,0.6,3.3,1.1,5,1.2c1.3,0.1,2.5-0.1,3.6-0.7c1.3-0.7,1.5-2,0.5-3
		c-0.3-0.3-0.7-0.6-1.2-0.8c-0.9-0.5-2-0.9-3-1.1c-1.9-0.4-3.8-0.6-5.7-0.7c-1.1,0-2.3,0-3.3,0.5c-0.9,0.4-1.3,1.1-1.2,2.1
		c0.1,0.6,0.3,1.2,0.7,1.6c0.5,0.5,1,1,1.5,1.4c1.4,0.9,2.9,1.8,4.3,2.8c1.9,1.4,4,2.1,6.1,2.9c1.8,0.6,3.7,0.7,5.5,1
		c0.4,0.1,0.7,0.1,1.1,0.1c1.3,0,1.9-0.8,1.7-2.1c-0.1-0.4-0.3-0.8-0.6-1.1c-0.2-0.2-0.4-0.4-0.5-0.6c-0.1-0.1,0-0.3,0.1-0.4
		c0.2-0.2,0.5-0.2,0.7-0.2c0.7,0,1.4,0,2.1-0.1c1.4-0.2,1.8-1.3,1.2-2.5c-0.2-0.3-0.4-0.5-0.6-0.7c-0.7-0.5-1.4-1.2-2.3-1.4
		c-0.4-0.1-0.7-0.3-1-0.5c-0.3-0.2-0.4-0.6-0.1-0.8c0.3-0.2,0.6-0.3,0.8-0.5c1-0.7,1.1-1.7,0.3-2.6c-0.6-0.6-1.4-1-2.2-1.3
		c-1.2-0.4-2.4-0.4-3.6-0.6c-1.4-0.2-2.6-0.6-2.8-2.3c0-0.2-0.1-0.4-0.2-0.6c-0.5-1-1.2-1.7-2.3-1.9c-1.8-0.4-3.6-0.4-5.3,0.5
		c-0.9,0.5-1.5,1.2-1.8,2.2C46.7,25,46.9,25.5,47.1,25.6z M55.5,34.7C55.4,34.9,55.2,35,55,35c-0.7-0.1-1.5-0.1-2.2-0.2
		c-0.9-0.2-1.9-0.5-2.8-0.7c-0.4-0.1-0.6-0.4-0.6-0.7c0.1-0.3,0.3-0.4,0.6-0.4c0.1,0,0.2,0,0.3,0c1.6-0.1,3.1,0.3,4.5,0.9
		c0.1,0.1,0.3,0.1,0.4,0.3C55.4,34.2,55.6,34.4,55.5,34.7L55.5,34.7z"/>
	<path class="st1" d="M39.7,26.6L39.7,26.6L39.7,26.6c-0.3,0-0.6,0.1-0.8,0.2c-1.3,0.4-1.5,1.3-0.7,2.3c0.3,0.3,0.6,0.6,0.9,0.9
		c0.3,0.3,0.2,0.9-0.2,1.1c-0.3,0.1-0.6,0.2-0.9,0.3c-1,0.4-2,0.7-2.9,1.3c-0.8,0.6-0.9,1.4-0.1,2c0.5,0.4,1.1,0.8,1.9,0.9
		c0.8,0.1,1.6,0.2,2.4,0.4c0.6,0.1,1.3,0.2,1.9,0.3c0.4,0.1,0.5,0.5,0.3,0.7c-0.1,0.2-0.3,0.3-0.4,0.5c-0.6,0.7-0.5,1.4,0.2,2
		c0.5,0.4,1,0.6,1.6,0.7c2,0.3,3.9,0.5,5.9,0.3c0.2,0,0.4-0.1,0.6-0.2c0.2-0.1,0.3-0.3,0.3-0.5c0-0.2-0.1-0.4-0.4-0.5
		c-0.5-0.2-0.9-0.2-1.4,0c-0.3,0.2-0.7,0.3-1.1,0.3c-1.2-0.1-2.4-0.3-3.7-0.5c-0.3,0-0.6-0.2-0.9-0.3c-0.3-0.1-0.4-0.6-0.2-0.8
		c0.3-0.3,0.7-0.5,1-0.8c0.4-0.3,0.4-0.8,0.1-1.1c-0.2-0.3-0.6-0.5-0.9-0.6c-0.7-0.2-1.3-0.4-2-0.5c-0.9-0.2-1.9-0.2-2.9-0.4
		c-0.5-0.1-1.1,0-1.2-0.6c-0.1-0.7,0.6-0.8,1.1-1c0.8-0.3,1.7-0.5,2.5-1c0.3-0.2,0.7-0.4,0.9-0.7c0.3-0.5,0.4-0.9,0-1.3
		c-0.3-0.3-0.6-0.6-0.8-1c-0.3-0.3-0.1-0.8,0.2-1c0.6-0.3,1.2-0.5,1.9-0.5c1.2,0,2.4-0.1,3.5-0.1c1,0,2,0,3,0.2
		c1.4,0.2,2.8,0.4,4.1,0.9c0.1,0.1,0.3,0,0.4-0.1c0.1-0.2,0.1-0.4-0.1-0.6c-0.4-0.4-0.9-0.6-1.4-0.7c-1.1-0.2-2.1-0.5-3.2-0.6
		c-2.2-0.3-4.5-0.7-6.7-0.3h0C40.9,26.4,40.3,26.5,39.7,26.6z"/>
	<path class="st1" d="M24.2,68.4c0-0.1-0.1-0.3-0.2-0.4c0,0-0.2,0-0.3,0l0,0c-0.1,0.1-0.2,0.2-0.3,0.3c-1.3,2.2-2.5,4.4-3.8,6.6
		c-0.9,1.6-1.9,3.2-2.9,4.8c-0.2,0.3-0.5,0.6-0.7,0.9c-0.2,0.2-0.4,0.4-0.7,0.4c-0.8,0-1.1,0.6-1.4,1.2c-0.1,0.2-0.1,0.4-0.2,0.6
		c-0.1,0.2-0.4,0.2-0.6,0.1c-0.1-0.1-0.2-0.3-0.1-0.4c0.3-0.6,0.4-1.4,1.1-1.7c0.3-0.1,0.4-0.4,0.3-0.7c-0.1-0.7,0.2-1.2,0.5-1.6
		c0.9-1.4,1.8-2.8,2.8-4.2c1.6-2.5,3.5-4.8,5.6-6.9c0.1-0.1,0.2-0.2,0.3-0.3c0.2-0.2,0.2-0.5,0-0.7c-0.2-0.2-0.5-0.3-0.7-0.1
		c-0.2,0.2-0.4,0.4-0.6,0.6c-1.4,1.3-3.1,2.3-4.7,3.3c-1.2,0.7-2.5,1.2-3.8,1.6c-1.4,0.5-2.8,0.9-4.1,1.3c-0.3,0.1-0.5,0.1-0.8,0.1
		c-0.2,0-0.4-0.3-0.3-0.5c0.1-0.1,0.1-0.3,0.2-0.4c0.8-0.7,1.7-1.5,2.5-2.2c0.1-0.1,0.3-0.2,0.4-0.3c0.3-0.2,0.7,0,0.7,0.4
		c0,0.3,0,0.5,0,0.8c0,0.1,0.1,0.2,0.2,0.2c0.1,0,0.2,0,0.3-0.1c0.4-0.3,0.5-0.8,0.5-1.3c0.1-0.7,0.5-1.2,1-1.6
		c0.2-0.2,0.5-0.2,0.7,0c0.2,0.2,0.1,0.4,0,0.6c-0.2,0.3-0.5,0.6-0.6,1c0,0.1,0.1,0.3,0.2,0.4c0.2,0.2,0.4,0.1,0.6-0.1
		c0.2-0.2,0.4-0.5,0.4-0.9c0.1-0.4,0.2-0.8,0.2-1.3c0.1-0.5,0.4-0.9,0.9-1.1c0.1,0,0.2,0,0.3,0c0.1,0,0.2,0.1,0.1,0.2
		c-0.1,0.3-0.1,0.5-0.2,0.8c-0.1,0.3-0.2,0.5,0.1,0.7c0.3,0.2,0.7-0.1,0.8-0.5c0.1-0.3,0.1-0.6,0.2-0.9c0.1-0.3,0.2-0.5,0.3-0.7
		c0.2-0.4,0.7-0.6,0.9-0.4c0.3,0.3,0.1,0.6,0.1,0.9c-0.1,0.2-0.1,0.5,0.2,0.5c0.1,0,0.3-0.1,0.4-0.2c0.1-0.1,0.1-0.3,0.2-0.4
		c0.1-1,0.7-1.4,1.6-1.5c0.4,0,0.7-0.2,1.1-0.2c0,0,0,0.1,0,0.1c0.3,0,0.5,0,0.8-0.1c0.1,0,0.2-0.2,0.3-0.3c0.1-0.2-0.1-0.4-0.3-0.5
		c-0.3-0.2-0.6-0.1-0.9,0c-1.5,0.4-3,0.7-4.5,1.1c-0.8,0.2-1.7,0.4-2.5,0.7c-3.3,1.3-5.9,3.5-8.3,6c-0.4,0.4-0.7,1-0.8,1.5
		c-0.1,0.3,0,0.5,0.3,0.7c0.3,0.3,0.7,0.4,1,0.3c0.5,0,1-0.1,1.4-0.2c2-0.6,4.1-1,6-1.9c0.4-0.2,0.8-0.3,1.3-0.2
		c0.3,0.1,0.6,0.5,0.4,0.7c-0.1,0.2-0.2,0.4-0.3,0.6c-0.6,0.7-1,1.5-1.5,2.3c-1,1.5-1.7,3.1-2.5,4.7c-0.7,1.3-0.9,2.7-1.4,4.1
		c-0.1,0.3,0.1,0.5,0.3,0.7c0.2,0.2,0.5,0.1,0.7,0c1.3-0.8,2.4-1.9,3.5-2.9c1.9-1.7,3.1-4,4.4-6.1c1.4-2.3,2.7-4.8,4-7.2
		C24.2,68.7,24.3,68.6,24.2,68.4z"/>
	<polygon class="st1" points="23.7,68.1 23.7,68.1 23.7,68.1 	"/>
	<path class="st1" d="M68.2,59.9c-2.1-0.4-4.2-0.5-6.2-0.5c-0.3,0-0.6,0.1-0.9,0.2c-0.2,0.1-0.3,0.3-0.3,0.5c0,0.2,0.1,0.4,0.3,0.5
		c0.1,0.1,0.3,0.1,0.5,0.1c2.6,0.1,5.2,0.7,7.7,1.3c0.4,0.1,0.7,0.1,0.9,0.5c0.1,0.2,0.2,0.2,0.3,0.1c0.3-0.2,0.6-0.2,0.9,0
		c0.4,0.4,0.9,0.5,1.5,0.5c0.5,0,1,0.1,1.4,0.4c0.2,0.1,0.4,0.4,0.2,0.5c-0.3,0.4-0.6,0.9-1.2,0.9c-0.7,0-1.4,0-2.1-0.2
		c-0.5-0.2-0.9-0.3-1.4-0.2s-1.1,0.1-1.6,0c-1-0.1-1.9-0.3-2.9-0.4c-1.7-0.2-3.4-0.3-5-1.2c-0.1,0-0.2-0.1-0.3-0.1
		c-0.5-0.1-1,0.1-1.1,0.4c-0.1,0.3,0.2,0.6,0.7,0.7c1.3,0.3,2.5,0.6,3.8,0.8c2.5,0.3,5,0.7,7.5,0.8c1.2,0,2.4,0.1,3.5-0.2
		c0.6-0.1,1.2-0.1,1.8-0.2c0.6-0.1,1.1-0.3,1.1-1c0.1-0.6-0.4-0.8-0.8-1.1l0,0l0,0c-0.7-0.4-1.4-0.7-2.2-1.1
		C72.3,61.2,70.3,60.4,68.2,59.9z"/>
	<path class="st1" d="M64.7,43.2c-0.4,0.1-0.8,0.3-1.2,0.4c-0.2,0.1-0.4,0.2-0.3,0.5c0.1,0.3,0.3,0.3,0.5,0.3l0,0h0
		c0.7-0.1,1.4-0.2,2.4-0.4h0c0.4,0,1.2-0.1,2-0.2c0.5,0,0.7,0.1,0.8,0.6c0,0.7,0.4,0.9,1,1.1c0.3,0.1,0.6,0.1,1,0.1
		c0.4,0,0.7,0.2,0.8,0.7c0.1,0.7,0.6,1,1.2,1.2c0.5,0.2,1,0.4,1.5,0.6c0.1,0.1,0.2,0.2,0.2,0.4c0,0.2-0.2,0.3-0.3,0.3
		c-0.6,0.1-1.2,0.1-1.8,0.2c-0.5,0-1.1,0.1-1.3,0.7c-0.2,0.4-0.5,0.5-0.9,0.4c-1.5-0.3-3.1-0.6-4.4-1.4c-0.6-0.4-1.2-0.7-1.8-1
		c-0.2-0.1-0.4-0.1-0.6,0.1c-0.2,0.2-0.2,0.5,0,0.7c0.1,0.2,0.3,0.3,0.5,0.4c1.2,0.5,2.3,1.1,3.5,1.6c1.4,0.6,2.8,0.6,4.3,0.8
		c0.4,0.1,0.5-0.1,0.7-0.7c0.2-0.7,0.2-0.8,0.8-0.7c0.9,0.1,1.6-0.3,2.4-0.4c0.4-0.1,0.6-0.4,0.5-0.9c0-0.5-0.3-0.9-0.7-1.2
		c-0.5-0.3-1.1-0.4-1.6-0.6c-0.4-0.2-0.5-0.4-0.5-0.9c0-0.8-0.1-0.9-0.8-1.1c-0.3-0.1-0.6-0.1-1-0.2c-0.5,0-0.8-0.2-0.9-0.7
		c-0.1-0.7-0.6-1-1.2-1C67.5,42.8,66.1,42.9,64.7,43.2z"/>
	<polygon class="st1" points="63,46.5 63,46.5 63,46.5 	"/>
	<path class="st1" d="M65.4,47c1.1,0.3,2.3,0.5,3.5,0.7c0.1,0,0.3,0,0.5,0c0.1-0.1,0.3-0.2,0.3-0.3c0-0.1,0-0.3-0.1-0.4
		c-0.2-0.2-0.4-0.3-0.7-0.4c-0.9-0.3-1.8-0.6-2.8-0.8c-0.9-0.2-1.8-0.3-2.7-0.4c-0.3,0-0.5,0.2-0.7,0.4c-0.2,0.2-0.3,0.3-0.2,0.6
		c0.1,0.3,0.3,0.3,0.5,0.3l0,0C63.9,46.5,64.6,46.8,65.4,47z"/>
	<path class="st1" d="M15.2,79.5c0,0.1,0.1,0.2,0.1,0.2c0.2,0.1,0.4-0.2,0.4-0.5c0-0.1-0.1-0.1-0.2-0.2v0
		C15.3,79.2,15.2,79.4,15.2,79.5z"/>
	<polygon class="st1" points="29.9,9.6 29.9,9.6 29.9,9.6 	"/>
	<path class="st1" d="M21.8,24.4c0,0.3,0.1,0.6,0.1,1c0.3,1.8,0.9,3.5,2.1,5c0.5,0.6,1,1.1,1.8,1.4c0.3,0.1,0.5,0.1,0.7-0.2
		c0.2-0.2,0.1-0.5,0-0.8c0-0.1-0.1-0.2-0.2-0.3c-1-0.9-1.6-2.1-2.1-3.4c-0.8-1.7-0.9-3.4-0.9-5.2c0-2.2,0.2-4.5,0.2-6.7
		c0-0.4,0-0.8,0.1-1.1c0-0.3,0.2-0.5,0.3-0.7c0.2-0.4,0.7-0.4,0.9,0c0.4,0.6,0.8,1.3,1.2,1.9c0.8,1.2,1.6,2.4,2.3,3.7
		c0.5,0.7,0.7,1.5,0.4,2.5c-0.4,1.3-0.4,2.7-0.4,4c0,2.2,0.7,4.2,1.8,6.1c0.3,0.4,0.6,0.8,1,1c0.2,0.1,0.5-0.1,0.6-0.3
		c0.1-0.5-0.2-0.8-0.4-1.2c-0.9-1.8-1.2-3.7-1.3-5.6c-0.1-1.2-0.1-2.5,0-3.7c0-1,0.2-1.9,0.5-2.8c0.1-0.3,0.3-0.7,0.4-1.1
		c0.7-2.1,1.7-4.1,1.8-6.3c0-0.1,0.1-0.2,0.1-0.3c0.1-0.3,0.4-0.4,0.7-0.2c0.8,0.5,1.2,1.4,1.7,2.1c0.2,0.3,0.1,0.6-0.2,0.8
		c-0.3,0.2-0.7,0.4-1,0.6c-0.5,0.3-0.9,0.6-1.1,1.1c-0.1,0.1,0,0.3,0,0.4c0.1,0.2,0.3,0.1,0.4,0.1c0.1-0.1,0.3-0.2,0.4-0.3
		c0.4-0.4,0.9-0.8,1.3-1.2c0.2-0.1,0.3-0.3,0.5-0.4c0.1,0,0.3,0,0.4,0.1c0.1,0.1,0.1,0.3,0.1,0.4c-0.7,1-1.4,1.9-2.6,2.4
		c-0.4,0.2-0.8,0.4-1.1,0.7c-0.2,0.2-0.3,0.7,0,0.9c0.2,0.2,0.5,0.2,0.7,0c0.7-0.5,1.3-1.1,1.8-1.8c0.4-0.6,0.9-1,1.5-1.4
		c0.2-0.1,0.4-0.1,0.6,0c0.2,0.1,0.3,0.4,0.2,0.6c-0.1,0.2-0.2,0.5-0.4,0.7c-0.7,0.8-1.5,1.6-2.3,2.3c-0.2,0.2-0.4,0.4-0.6,0.6
		c-0.1,0.1-0.1,0.3,0,0.4c0.2,0.2,0.4,0.2,0.6,0.1c0.4-0.2,0.6-0.6,0.9-0.9c0.6-0.7,1.3-1.5,1.9-2.2c0.2-0.2,0.5-0.3,0.7-0.1
		c0.2,0.2,0.3,0.6,0.1,0.9c-0.2,0.2-0.4,0.4-0.5,0.6c-0.3,0.3-0.6,0.5-0.8,0.8c-0.6,0.8-1.1,1.7-2.2,2c-0.2,0.1-0.3,0.5-0.1,0.7
		c0.1,0.2,0.3,0.3,0.6,0.2c0.7-0.2,1.3-0.6,1.5-1.3c0.3-0.8,0.8-1.4,1.3-2c0.2-0.2,0.5-0.5,0.8-0.2c0.3,0.2,0.4,0.6,0.1,1
		c-0.1,0.1-0.2,0.2-0.3,0.3c-0.5,0.5-1,1-1.4,1.5c-0.1,0.1-0.1,0.3,0,0.4c0.2,0.2,0.4,0.2,0.6,0.1c0.2-0.1,0.3-0.3,0.4-0.5
		c0.2-0.3,0.4-0.6,0.6-0.9c0.2-0.2,0.5-0.1,0.7,0.1c0.2,0.4,0.3,0.7,0.2,1.1c-0.2,1.1-0.1,2.4-1.3,3.1c-0.1,0-0.1,0.2,0,0.3
		c0,0.1,0.2,0.2,0.2,0.2c0.4,0,0.7,0,1.1,0c0.2,0,0.4-0.2,0.5-0.4c0.2-1.2,0.6-2.4,0.5-3.6c0-2-0.7-3.8-1.8-5.4l0,0l0,0
		c-0.8-1.2-1.7-2.3-2.6-3.5c-0.4-0.5-0.8-0.9-1-1.5c-0.3-1-0.5-2-0.7-3c-0.3-1.2-0.6-2.4-0.9-3.6c0-0.2-0.2-0.4-0.3-0.6
		c-0.3-0.4-0.7-0.6-1.1-0.3C31.6,4,31.2,4,30.7,3.5c-0.6-0.6-1.1-0.5-1.6,0.1c-0.3,0.3-0.4,0.7-0.6,1.1c-0.2,0.5-0.5,0.5-0.9,0.1
		c-0.2-0.1-0.3-0.3-0.4-0.5c-0.5-0.4-1.1-0.2-1.4,0.3c-0.2,0.3-0.2,0.7-0.3,1.1S25,6.3,24.8,6.1c-0.3-0.3-0.5-0.6-0.7-0.8
		c-0.7-0.6-1.6-0.4-2,0.5c-0.2,0.5-0.3,1-0.3,1.6c0,0.6,0.1,1.3,0.1,1.9c0.1,1.7,0.5,3.4,0.4,5.1c-0.1,1.9-0.2,3.9-0.5,5.8
		C21.6,21.6,21.6,23,21.8,24.4L21.8,24.4z M26.8,10.8L26.8,10.8L26.8,10.8C26.8,10.8,26.8,10.8,26.8,10.8z M29.4,18.3L29.4,18.3
		c-0.2,0.1-0.5-0.2-0.5-0.5c0-0.3,0.1-0.5,0.5-0.5c0.2,0,0.4,0.1,0.4,0.3C29.8,18,29.7,18.2,29.4,18.3z M30.4,16.3L30.4,16.3
		c-0.6,0.3-1.2,0.6-1.8,0.9c-0.1,0-0.2,0-0.3-0.1c0-0.1,0-0.2,0-0.3c0.5-0.5,1.1-1,1.7-1.4c0.2-0.1,0.6,0.1,0.6,0.4
		C30.6,15.9,30.6,16.2,30.4,16.3z M30.8,6.5c0-0.2,0.1-0.4,0.4-0.4c0.3,0,0.4,0.3,0.4,0.5c0,0.5,0,0.9,0,1.4l0,0
		c0,0.7-0.1,1.4-0.2,2.1c0,0.2-0.1,0.4-0.4,0.5c-0.3,0.1-0.3-0.2-0.3-0.4c-0.1-0.3-0.1-0.5-0.2-1.2C30.4,8.4,30.5,7.4,30.8,6.5z
		 M29.6,4.5c0.1-0.1,0.2-0.2,0.4-0.2c0.1,0,0.2,0.1,0.2,0.2c0.1,0.8,0.1,1.6-0.2,2.3C30,6.9,29.9,7,29.8,7c-0.1,0-0.2-0.1-0.3-0.1
		c-0.1-0.2-0.2-0.5-0.2-0.5C29.1,5.5,29.2,5,29.6,4.5z M29.9,9.6L29.9,9.6c-0.1,0-0.2,0.1-0.3,0.1c-0.1,0-0.2-0.1-0.1-0.2
		c0-0.1,0.2-0.1,0.2-0.1C29.8,9.5,29.9,9.5,29.9,9.6z M30.3,13.6c0.2-0.2,0.5-0.1,0.7,0.2c0.1,0.3,0.1,0.5-0.1,0.7v0l0,0
		c-0.2,0.1-0.4,0.1-0.6,0.2c-0.6,0.3-1.3,0.6-1.8,1.1c-0.2,0.2-0.4,0.3-0.9,0.2c0,0-0.1-0.1-0.2-0.2c-0.1-0.2-0.1-0.5,0.1-0.6
		C28.5,14.9,29.3,14.2,30.3,13.6z M28.4,6.7L28.4,6.7L28.4,6.7c0.1,0,0.2,0.1,0.3,0.1c0.3,0.3,0.2,0.7,0.3,1c0,0.2,0,0.4,0,0.5
		c0,0.5-0.2,0.7-0.4,0.7c-0.3-0.1-0.3-0.4-0.4-0.6c-0.1-0.5-0.1-0.9-0.2-1.4C28.1,6.8,28.3,6.7,28.4,6.7z M28.2,13.7
		c0.1,0.3-0.1,0.7-0.4,0.8c-0.4,0.1-0.7-0.1-0.8-0.6h0c-0.1-0.4,0-0.7,0.3-0.8C27.6,12.9,28.1,13.2,28.2,13.7z M26.4,5.9L26.4,5.9
		L26.4,5.9c0.1-0.1,0.2-0.3,0.3-0.3c0.2-0.1,0.4,0,0.5,0.2c0.2,0.8,0.4,1.5,0.7,2.4c0,0.1,0,0.4-0.1,0.5c-0.1,0.1-0.2,0.2-0.4,0.2
		c-0.1,0-0.2-0.1-0.3-0.1C27,8.7,27,8.6,26.9,8.4c-0.2-0.7-0.3-1.3-0.5-2C26.4,6.3,26.4,6.1,26.4,5.9z M25.8,7.8
		c0.2,0,0.3,0,0.4,0.1c0.4,0.9,0.9,1.8,0.7,2.9c-0.6-0.8-1.2-1.6-1.3-2.7C25.5,8,25.6,7.9,25.8,7.8z M25.1,9.2L25.1,9.2L25.1,9.2
		c0.2-0.1,0.2,0.2,0,0.5c0,0.1,0,0.2-0.1,0.3c0-0.1,0-0.2,0-0.3C25,9.6,24.9,9.4,25.1,9.2z M23,6.5c0-0.1,0.1-0.3,0.3-0.4
		c0.2-0.1,0.4,0,0.6,0.1c0.4,0.3,0.4,0.7,0.4,1.2c0,1,0.2,1.9,0.8,2.6c0,0.3,0,0.5,0,0.8c0,0.6,0,0.6,0.8,0.5c0.3-0.1,0.5,0,0.6,0.3
		s0,0.6-0.3,0.6v0l0,0c-0.1,0-0.2-0.1-0.3-0.1c-0.9,0.1-1.3-0.2-1.6-1.1c-0.3-0.8-0.6-1.6-0.8-2.4c-0.1-0.5-0.2-1-0.3-1.6
		C23,6.9,23,6.7,23,6.5z"/>
	<path class="st1" d="M38.5,22.8L38.5,22.8c0-0.1-0.1-0.2-0.2-0.2c-0.5-0.1-1.1,0.5-1.2,1.1c0.1,0.1,0.2,0.3,0.3,0.3
		C38,23.9,38.6,23.3,38.5,22.8z"/>
	<path class="st1" d="M25.2,17.9c0.1,0.2,0.3,0.3,0.5,0.2c0.3-0.1,0.4-0.3,0.4-0.6c-0.1-0.2-0.3-0.3-0.5-0.2l0,0v0
		C25.3,17.4,25.1,17.6,25.2,17.9z"/>
	<path class="st1" d="M33.3,22.8L33.3,22.8L33.3,22.8c-0.3,0-0.5,0.2-0.4,0.5c0,0.2,0.2,0.3,0.5,0.3c0.2,0,0.4-0.3,0.3-0.6
		C33.6,22.8,33.5,22.7,33.3,22.8z"/>
	<polygon class="st1" points="24.4,16.2 24.4,16.2 24.4,16.2 	"/>
	<path class="st1" d="M24.7,16.5c0.2,0.1,0.5-0.2,0.5-0.5c0-0.2-0.2-0.3-0.3-0.3c-0.2,0-0.4,0.2-0.4,0.4
		C24.4,16.3,24.6,16.5,24.7,16.5z"/>
	<path class="st1" d="M26.5,19c-0.2,0-0.4,0.2-0.3,0.4c0,0.2,0.2,0.2,0.3,0.2c0.2,0,0.3-0.2,0.2-0.3C26.8,19.1,26.7,19,26.5,19
		L26.5,19z"/>
	<path class="st1" d="M32.2,21c-0.2,0-0.3,0.2-0.2,0.3c0,0.2,0.2,0.2,0.3,0.2c0.2,0,0.3-0.2,0.2-0.3C32.5,21.1,32.4,21,32.2,21
		L32.2,21z"/>
	<path class="st1" d="M34.3,12.8c0,0-0.1-0.1-0.2-0.1c-0.2,0-0.2,0.2-0.2,0.3c0,0,0.1,0.1,0.1,0.1C34.2,13,34.3,12.9,34.3,12.8z"/>
	<path class="st1" d="M78.1,78.5L78.1,78.5C78.1,78.4,78.1,78.4,78.1,78.5C78.1,78.5,78.1,78.5,78.1,78.5L78.1,78.5z"/>
	<path class="st1" d="M77.6,77.8c-0.3,0.1-0.4,0.3-0.4,0.6c0,0.3,0,0.5,0,0.8c0,0.1-0.1,0.3-0.2,0.4c-0.1,0.1-0.2,0.2-0.4,0.2
		c-0.1,0-0.2-0.1-0.2-0.2c-0.1-0.1-0.1-0.3-0.1-0.5c0.2-0.9,0-1.8,0-2.7c0.1-1.3-0.1-2.7-0.3-4c-0.1-0.4-0.2-0.7-0.5-1
		c-0.5-0.4-1-0.5-1.4,0c-0.3,0.3-0.5,0.7-0.7,1.1c-0.4,0.9-0.7,1.8-1,2.7c-0.2,0.8-0.5,1.7-0.6,2.5c-0.3,2.2-0.5,4.5-0.8,6.7
		c0,0.4-0.2,0.7-0.3,1.1c0,0.1-0.2,0.1-0.3,0.1c-0.1,0-0.2-0.1-0.2-0.2c-0.1-0.3-0.1-0.6-0.1-1c-0.1-3.3-0.1-6.7-0.2-10
		c0-1-0.2-1.9-0.3-2.9c-0.1-0.7-0.5-1.3-0.9-1.9c-0.3-0.4-1-0.3-1.2,0.1c-0.1,0.1-0.1,0.3-0.2,0.5c-0.2,0.9-0.5,1.8-0.7,2.6
		c-0.1,0.2-0.2,0.4-0.5,0.4c-0.2,0-0.4-0.2-0.5-0.4c-0.1-0.5-0.2-1.1-0.3-1.6c-0.1-0.4-0.1-0.9-0.2-1.3c-0.1-0.7-0.5-1.2-1.2-1.4
		c-0.9-0.3-1.8-0.6-2.6-0.7c-1.3,0-2.5-0.5-3.8-0.8c-1.6-0.5-3-1.4-4.2-2.6c-0.7-0.7-1.4-1.3-2.1-2.1c-0.7-0.8-1.6-1.2-2.7-1.4
		c-2.8-0.6-5.5-0.6-8.2,0.4c-2.1,0.7-4.2,1.2-6.4,1.5c-0.7,0.1-1.5,0.1-2.2,0.1c-1.5,0-3.1-0.1-4.6,0.3c-0.9,0.2-1.4,1.2-1.3,2
		c0.1,0.7,0.3,1.4,0.9,1.8c0.7,0.6,1.4,1,2.2,1.3c0.3,0.1,0.6,0.2,0.9,0.4c0.2,0.1,0.2,0.6,0,0.7c-0.5,0.2-1,0.5-1.5,0.6
		c-1.3,0.4-2.3,1.1-3.4,1.9c-1,0.8-1.8,1.7-2.3,2.9c-0.6,1.5-0.3,2.5,1.1,3.5c0.3,0.2,0.6,0.4,0.9,0.6c0.2,0.1,0.2,0.4,0,0.6
		c-0.1,0.1-0.3,0.3-0.5,0.4c-1.2,0.5-1.9,1.5-2.8,2.4c-0.5,0.5-0.7,1.2-0.6,1.9c0.2,1.6,1,2.7,2.6,3.2c0.6,0.2,0.7,0.5,0.4,1
		c-0.2,0.4-0.5,0.8-0.7,1.3c-0.2,0.4-0.4,0.9-0.4,1.4c-0.1,0.8,0.2,1.4,0.9,1.8c0.3,0.2,0.7,0.3,1,0.5c0.3,0.1,0.3,0.4,0.2,0.7
		c-0.1,0.2-0.2,0.4-0.3,0.6c-0.9,1.9-0.4,3.6,1.5,4.5c1.8,0.8,3.6,0.9,5.5,0.8c0.6,0,1.3-0.1,1.9-0.2c1-0.1,1.2,0,1.4,1
		c0.1,0.6,0.2,1.3,0.3,1.9c0.2,1,0.4,2,1,2.9c0.2,0.3,0.4,0.5,0.8,0.4c0.3-0.1,0.6-0.3,0.7-0.6c0.1-0.3,0.1-0.5,0.1-0.8
		c-0.1-0.5-0.1-1.1-0.1-1.6c0-0.2,0.1-0.3,0.3-0.3c0.1,0,0.3,0.1,0.4,0.2c0.1,0.1,0.1,0.3,0.2,0.4c0.4,0.7,0.8,1.3,1.1,1.9
		c0.1,0.2,0.3,0.3,0.5,0.3c0.3,0,0.4-0.3,0.5-0.6c0-0.1,0-0.2,0-0.3c-0.1-1.1-0.1-2.1-0.2-3.2h0c0,0,0,0,0,0
		c-0.1-0.7-0.3-1.4-0.4-2.1c0-0.3-0.1-0.5-0.1-0.8c0-0.4,0.6-0.7,1.1-0.7c0.4,0,0.5,0.3,0.6,0.7c0.1,1,0.2,1.9,0.4,2.9
		c0,0.3,0.1,0.6,0.2,0.9c0.1,0.3,0.4,0.5,0.8,0.5c0.3,0,0.7-0.4,0.7-0.8c0-0.4-0.1-0.8-0.2-1.3c-0.2-0.9-0.5-1.9-0.7-2.8
		c0-0.2,0-0.4,0-0.6c0.1-0.3,0.3-0.4,0.6-0.5c0.3,0,0.5,0.1,0.7,0.3c0.1,0.2,0.1,0.4,0.1,0.6c0.1,0.7,0.3,1.4,0.4,2.1
		c0,0.2,0.2,0.3,0.5,0.3c0.2,0,0.3-0.2,0.3-0.4c0-0.4-0.1-0.7-0.1-1.1c-0.1-0.5-0.3-1-0.4-1.6c-0.2-0.8-0.1-1,0.6-1.3
		c2.2-0.9,4.4-1.9,6.4-3.2c0.2-0.1,0.4-0.1,0.6-0.2c0.7-0.3,1.5-0.6,2.2-1c2.3-1.1,3.8-1.6,6.2-1.9c0.8-0.1,1.6-0.1,2.4-0.1
		c0.3,0,0.5-0.1,0.8-0.2c0.3-0.1,0.6-0.4,0.5-0.8c0-0.3-0.3-0.4-0.6-0.5c-0.2-0.1-0.4-0.1-0.6-0.1c-1.8-0.2-3.6-0.4-5.4,0
		c-1.5,0.4-3,0.8-4.3,1.6c-1.7,1.1-3.4,2.2-5.1,3.3c-1,0.7-2.1,1.3-3.2,1.9c-0.5,0.3-0.8,0-0.9-0.5c-0.1-0.8,0-1.6-0.2-2.4
		c-0.4-2.3-0.8-4.6-1-7c0-0.2-0.1-0.4-0.1-0.6c-0.4-2-0.7-4-1-6c-0.3-2.5-0.5-5-1.2-7.5c0-0.1,0-0.2,0-0.3c0-0.3,0.3-0.6,0.7-0.5
		c0.3,0.1,0.4,0.3,0.3,0.6c0,0.1-0.1,0.2-0.1,0.3c-0.1,0.2-0.1,0.4,0.1,0.5c0.1,0,0.3,0,0.4-0.1c0.2-0.2,0.3-0.4,0.5-0.6
		c0.4-0.4,0.8-0.5,1.3-0.5c0.1,0,0.3,0.1,0.4,0.2c0.2,0.2,0.1,0.4,0,0.6c-0.1,0.2-0.3,0.4-0.5,0.6c-0.4,0.4-0.9,0.8-1.3,1.3
		c-0.1,0.1-0.2,0.4-0.2,0.6c0,0.2,0.1,0.4,0.3,0.5c0.2,0.1,0.3,0,0.4-0.2c0.2-0.3,0.4-0.7,0.6-1c0.1-0.2,0.3-0.4,0.4-0.5
		c0.2-0.1,0.4-0.2,0.6,0c0.1,0.1,0.2,0.3,0.1,0.4c-0.1,0.2-0.3,0.4-0.4,0.7c-0.1,0.2,0,0.4,0.2,0.6c0.2,0.1,0.5,0.1,0.6-0.1
		c0.5-0.7,1.4-1.1,1.5-2.2c0-0.4,0.5-0.7,1-0.6c0.3,0,0.5,0.1,0.6,0.4c0.1,0.2,0,0.4-0.2,0.6c-0.4,0.2-0.9,0.5-0.8,0.9
		c0.1,1.1-0.4,2-0.7,2.9c-0.3,1.1-0.3,2.1,0,3.2c0.5,2,1.8,3.3,3.7,3.8c0.5,0.1,1,0.2,1.6,0.4c1.1,0.3,2.2,0.3,3.3,0.8
		c0.3,0.1,0.5,0,0.7-0.2c0.2-0.2,0.2-0.5,0.1-0.8c-0.1-0.2-0.2-0.4-0.4-0.5c-1-1-2.2-1.2-3.6-0.8c-1.8,0.5-4-0.9-4.2-2.8
		c-0.2-1.4,0-2.7,0.8-3.9c0.6-0.9,0.9-1.9,1.1-3c0.1-0.6,0-1.2-0.3-1.7c-0.5-0.8-1.2-1.3-2-1.4c-1.4-0.2-2.8-0.5-4.2-0.4
		c-1.3,0.1-2.7,0.1-4,0c-2.1,0-4.3,0.2-6.4-0.4c-0.1,0-0.2,0-0.3,0c-1.7,0.2-3.2-0.4-4.6-1.1c-0.7-0.3-1.1-0.9-1.1-1.6
		c0-0.3,0.1-0.6,0.4-0.8c0.2-0.1,0.4-0.1,0.6,0.1c0.1,0.2,0.2,0.4,0.2,0.6c0.2,0.9,0.9,1.2,1.7,1.2c1.3,0.1,2.3-0.4,3-1.4
		c0.3-0.5,0.7-0.7,1.3-0.8c1.1-0.1,2.1-0.2,3.2-0.3c1.1-0.1,2.2-0.1,3.2-0.3c1.9-0.4,3.8-0.5,5.7-0.8c1.3-0.2,2.6,0.1,3.6,1
		c0.5,0.4,1.2,0.8,1.8,1.1c0.8,0.5,1.7,1,2.4,1.7c0.6,0.6,1.4,1,2.2,1.3c0.6,0.2,1.2,0.5,1.8,0.6c0.9,0.2,1.5,0.5,1.5,1.5
		c0,0,0,0.1,0.1,0.1c0.1,0.1,0.3,0.2,0.4,0.2c0.2,0,0.3-0.1,0.3-0.3c0-0.2,0-0.3,0-0.5c0-0.2,0.2-0.4,0.4-0.4c0.2,0,0.4,0.1,0.5,0.3
		c0.1,0.2,0,0.5,0.3,0.5c0.7,0,0.7,0.4,0.5,0.9c-0.1,0.4,0.1,0.8,0.1,1.3c0,0.2,0.1,0.3,0.3,0.2c0.2-0.1,0.2-0.2,0.2-0.4
		c0-0.1-0.2-0.3-0.2-0.4c0-0.3,0.2-0.5,0.5-0.5c0.2,0,0.4,0.1,0.4,0.4c0,0.6,0.3,1.1,0.8,1.5c0.2,0.1,0.3,0.4,0.4,0.7
		c0.2,0.9,0.3,1.7-0.6,2.3c0,0-0.1,0.1-0.1,0.1c-0.1,0.1-0.1,0.3,0,0.4c0.1,0.1,0.3,0.2,0.4,0.2c0.1,0,0.3-0.1,0.5-0.1
		c0.4-0.1,0.6,0.2,0.5,0.6c-0.1,0.2-0.2,0.5-0.4,0.7c-0.5,0.7-0.9,1.4-1.6,2c-0.3,0.3-0.6,0.6-0.6,1.1c0,0.1,0.1,0.2,0.1,0.3
		c0.1,0.1,0.3,0.1,0.4,0.1c0.2-0.1,0.4-0.3,0.6-0.5c0.3-0.4,0.5-0.8,0.7-1.2c0.2-0.3,0.4-0.6,0.7-0.5c0.3,0.1,0.4,0.6,0.2,1
		c-0.2,0.3-0.4,0.5-0.6,0.8c-0.5,0.5-0.9,1.1-1.4,1.6c-0.1,0.1-0.1,0.2-0.2,0.3c-0.2,0.2-0.1,0.6,0.1,0.7c0.2,0.1,0.4,0,0.6-0.2
		c0.2-0.3,0.3-0.7,0.5-1c0.1-0.2,0.2-0.4,0.4-0.5c0.1-0.1,0.2-0.1,0.3-0.1c0.1,0,0.2,0.1,0.2,0.2c0.1,0.6,0.2,1.2-0.1,1.7
		c-0.2,0.3-0.5,0.5-0.6,0.8c-0.1,0.4,0.5,0.4,0.5,0.7c0.1,0.2,0.1,0.4,0.1,0.6c0,0.2,0,0.4,0,0.6c0,0.2,0.2,0.4,0.4,0.4
		c0.2,0,0.4-0.2,0.5-0.4c0.1-0.2,0.2-0.4,0.1-0.6c-0.1-2.1,0.1-4.2,0.3-6.3c0.1-1,0.2-1.9,0.2-2.9c0-1.5,0.5-2.8,0.8-4.3
		c0,0,0-0.1,0.1-0.1c0.1-0.1,0.3-0.2,0.4-0.2s0.3,0.1,0.4,0.2c0.1,0.4,0.2,0.8,0.2,1.3c0,1.1,0.1,2.3,0.1,3.4
		c0,3.8,0.2,7.6,0.5,11.4c0,0.3,0,0.5,0.1,0.8c0.2,0.5,0.9,0.6,1.2,0.2c0.3-0.4,0.4-0.9,0.5-1.3c0.7-2.8,1.1-5.7,1.5-8.6
		c0.3-1.8,0.7-3.6,1.3-5.3c0.1-0.2,0.2-0.4,0.2-0.6c0.1-0.2,0.2-0.2,0.4-0.2c0.2,0,0.3,0.1,0.3,0.3c0.1,0.3,0.1,0.6,0.1,1
		c0,0.8,0,1.6,0,2.4c0.1,1.6,0.2,3.2,0.2,4.8c0,1.4,0.2,2.8,0.4,4.2c0,0.2,0.2,0.5,0.3,0.7c0.3,0.4,1,0.3,1.2-0.1
		c0.2-0.4,0.2-0.8,0.2-1.3c0-1.7,0.2-3.4,0.5-5.1c0.1-0.4,0-0.7,0-1.1C78,78,77.8,77.7,77.6,77.8z M45.5,70.8L45.5,70.8L45.5,70.8
		c0.1-0.3,0.3-0.6,0.6-0.6c0.2,0,0.5,0.2,0.5,0.5c0,0.1-0.1,0.2-0.2,0.4c-0.2,0.3-0.6,0.4-0.8,0.3C45.5,71.2,45.4,71,45.5,70.8z
		 M23.9,90.3L23.9,90.3L23.9,90.3c0.3-0.8,0.8-1.4,1.3-2c0.2-0.3,0.5-0.3,1-0.4c0.2,0,0.6,0,1,0.1c1.3,0.4,2.6,0.4,4,0.3
		c0.4,0,0.9,0,1.3,0.1c0.1,0,0.1,0.1,0.2,0.2c0,0.1,0,0.2-0.1,0.3c-0.5,0.2-1.1,0.5-1.6,0.6c-1.6,0.4-3.1,1.2-4.4,2.3
		c-0.5,0.4-1,0.6-1.6,0.4C23.9,92,23.6,91.4,23.9,90.3z M31.8,92.6L31.8,92.6c-0.9,0.1-1.8,0.2-2.7,0.3c-0.2,0-0.4-0.1-0.5-0.3
		c-0.1-0.2,0-0.4,0.2-0.6c2-1.4,4.2-2.3,6.7-2.4c0.7,0,1.3,0.1,1.8,0.6c0.4,0.4,0.4,1-0.2,1.2c-0.9,0.3-1.7,0.6-2.6,0.7
		C33.6,92.3,32.7,92.4,31.8,92.6C31.7,92.5,31.7,92.6,31.8,92.6L31.8,92.6z M37,88.6L37,88.6c-0.1,0-0.2-0.2-0.2-0.2
		c0-0.1,0.1-0.2,0.2-0.3c0.4-0.3,0.8-0.3,1.4-0.5c0.7-0.2,1.2,0.5,1.2,1.5c0,0.2-0.3,0.4-0.5,0.3C38.5,89,37.8,88.8,37,88.6z
		 M38.8,86.6L38.8,86.6L38.8,86.6c-1.3,0.3-2.5,0.9-4,0.8c-1.5,0.4-3.1-0.2-4.7,0.1c-0.1,0-0.3-0.1-0.4-0.1
		c-0.2-0.1-0.3-0.5-0.2-0.7c0.1-0.2,0.3-0.4,0.4-0.5c0.2-0.1,0.5-0.3,0.7-0.3c2.3-0.4,4.5-1.2,6.8-1.4c0.8,0,1.5,0,2.2,0.2
		c0.3,0.1,0.6,0.3,0.6,0.7c0,0.3-0.2,0.5-0.4,0.6C39.5,86.3,39.2,86.6,38.8,86.6z M33.5,98.6L33.5,98.6L33.5,98.6
		c-0.4,0.1-0.9,0.1-1.3,0.2c-1.5,0.3-2.9,0.1-4.3-0.2c-0.8-0.2-1.5-0.4-2.2-1c-0.6-0.5-0.9-1.1-0.6-1.8c0.1-0.3,0.1-0.5,0.2-0.8
		c0.4-1.1,0.7-1.3,1.9-1.1c1.8,0.2,3.6,0,5.4-0.4c0.5-0.1,0.8,0.1,0.7,0.5c0,1.2,0.2,2.3,0.7,3.4C34.5,98.1,34.2,98.5,33.5,98.6z
		 M35.4,97.5L35.4,97.5L35.4,97.5c0-0.3,0-0.6-0.1-0.9c-0.2-0.9-0.3-1.8-0.9-2.5c-0.2-0.2-0.3-0.5-0.1-0.7c0.2-0.3,0.6-0.3,0.9-0.3
		c0.2,0,0.4,0.2,0.4,0.4c0.1,0.2,0.1,0.4,0.1,0.6c0.1,0.4,0.1,0.8,0.1,1.1c0.1,0.5,0.3,0.9,0.3,1.3c0.1,0.4,0.1,0.7,0.1,1.1
		c0,0.3-0.1,0.5-0.4,0.6C35.7,98.2,35.5,98,35.4,97.5z M36.9,104L36.9,104L36.9,104c0,0.1-0.2,0.3-0.3,0.4c-0.1-0.1-0.3-0.2-0.4-0.3
		c-0.4-0.7-0.1-1.6-0.4-2.2c-0.1-0.7-0.2-1.3-0.2-1.9c0-0.2,0-0.4,0.1-0.6c0-0.1,0.2-0.2,0.4-0.2c0.1,0,0.2,0.1,0.3,0.1
		c0,0,0.1,0.1,0.1,0.1C36.9,100.9,37,102.5,36.9,104z M37,97.1L37,97.1L37,97.1c-0.1-0.6-0.1-1.3-0.1-1.9c0,0-0.1,0-0.1,0
		c-0.1-0.7-0.2-1.4-0.3-2.1c0-0.4,0.2-0.7,0.6-0.8c0.4-0.1,0.7,0,0.8,0.3c0.1,0.2,0.1,0.4,0.2,0.6c0.2,1.1,0.3,2.3,0.6,3.5
		c0.2,0.7-0.5,1.2-1.2,1C37.2,97.8,37.1,97.5,37,97.1z M39.4,102.6L39.4,102.6c-0.3,0.1-0.5,0-0.7-0.2c-0.1-0.1-0.2-0.3-0.2-0.4
		c-0.3-0.8-0.6-1.6-0.9-2.4c-0.1-0.3,0-0.7,0.3-0.8c0.4-0.2,1-0.1,1.2,0.2c0,0.1,0.1,0.2,0.1,0.3c0.2,0.9,0.1,1.8,0.6,2.5
		C39.7,102.2,39.6,102.5,39.4,102.6z M40.3,97L40.3,97c-0.4,0.1-0.8-0.1-0.8-0.5c-0.1-0.5-0.1-1-0.2-1.2c0-1-0.3-1.8-0.5-2.6
		c-0.1-0.5-0.2-0.9,0-1.4c0.2-0.6,0.6-1,0.8-0.9c0.4,0.2,0.4,0.6,0.5,1c0.4,1.5,0.7,2.9,1.1,4.4C41.3,96.4,41,96.8,40.3,97z
		 M41.2,79.8L41.2,79.8L41.2,79.8c0,0.2,0.1,0.3,0.1,0.5c0.1,1.3,0.4,2.6,0.7,3.9c0.1,0.5,0.2,1.1,0.2,1.6c0.2,1.4,0.3,2.9,0.6,4.3
		c0.3,1.6,0.3,3.2,0.7,4.8c0,0.2,0,0.4-0.1,0.6c-0.2,0.3-0.5,0.4-0.8,0.4c-0.3,0-0.5-0.2-0.6-0.5c-0.2-0.7-0.4-1.5-0.6-2.2
		c-0.4-1.6-0.8-3.1-1.2-4.7c-0.2-0.8-0.2-1.4,0.4-2.1c0.9-1,0.5-2.3-0.9-2.7c-0.9-0.3-1.8-0.4-2.7-0.4c-0.9,0.1-1.8,0.2-2.7,0.3
		c-2.5,0-4.9,0.8-7.1,1.9c-0.4,0.2-0.9,0.3-1.3,0.6c-0.5,0.4-1,0.5-1.6,0.3c-0.8-0.3-1.6-0.5-2.1-1.3c-0.5-0.7-0.4-1.7,0.4-2.3
		c1.1-1,2.3-1.9,3.6-2.7c0.4-0.2,0.8-0.3,1.2-0.2c0.2,0,0.3,0.1,0.5,0.1c2.4,1,4.8,0.9,7.3,0.6c1.2-0.1,2.5-0.2,3.6-0.7
		c0.6-0.2,1.1-0.5,1.6-0.8C40.8,79.2,41.1,79.4,41.2,79.8z M39.2,69.8L39.2,69.8c0.3-0.1,0.6,0,0.8,0.3c0.1,0.1,0.2,0.3,0.2,0.4
		c0.3,1.9,0.5,3.9,0.8,5.8c0,0.1,0,0.2,0,0.3c0,0.2-0.4,0.4-0.6,0.3c-0.5-0.2-0.7-0.5-0.7-0.9c-0.1-0.9-0.2-1.8-0.3-2.7h0
		c-0.1-1-0.3-2-0.4-3C38.8,70.1,38.9,69.9,39.2,69.8z M37.2,69.7L37.2,69.7c0.3,0,0.6,0.1,0.8,0.4c0.1,0.1,0.1,0.3,0.1,0.5
		c-0.1,0.9,0.2,1.7,0.2,2.6c0.1,0.8,0.2,1.6,0.3,2.4c0,0.3,0.1,0.7-0.2,0.9c-0.3,0.2-1.1,0.2-1.4,0c-0.2-0.1-0.2-0.4-0.2-0.6
		c0-1.3,0-2.7-0.1-4c0-0.5-0.1-1-0.1-1.4C36.6,70,36.9,69.8,37.2,69.7z M34.5,70.1L34.5,70.1L34.5,70.1c0.1-0.3,0.3-0.4,0.6-0.5
		s0.5,0.1,0.6,0.4c0.1,0.3,0.1,0.5,0.1,0.8c0.1,0.6,0.1,1.3,0.1,1.9h0c0.1,0.8,0.1,1.7,0.2,2.6c0,0.3,0,0.5-0.1,0.8
		c0,0.1-0.1,0.1-0.2,0.2c-0.2,0.1-0.3,0-0.4-0.1c-0.1-0.2-0.2-0.4-0.3-0.6c-0.1-1.7-0.3-3.4-0.6-5.1C34.4,70.5,34.4,70.3,34.5,70.1z
		 M33.5,70.1L33.5,70.1c0.2-0.1,0.3,0.1,0.3,0.3c0.1,1.8,0.5,3.5,0.7,5.3c0.1,0.6-0.1,1-0.5,1c-0.3,0-0.5-0.2-0.6-1
		c0-0.4,0-0.9,0-1.4c0-1.2-0.1-2.5-0.1-3.7C33.2,70.3,33.3,70.1,33.5,70.1z M34.8,78.1L34.8,78.1L34.8,78.1c1.2-0.3,2.5-0.1,3.7-0.1
		c0.1,0,0.3,0.1,0.4,0.1c0.3,0.2,0.4,0.7,0.1,1c-0.4,0.3-0.8,0.5-1.3,0.6c-0.6,0.1-1.3,0.2-1.7,0.2c-2,0.4-3.8,0.3-5.7,0.2
		c-0.3,0-0.7-0.1-0.9-0.3c-0.1-0.1-0.2-0.2-0.2-0.4c0-0.2,0.1-0.4,0.3-0.5c0.1-0.1,0.3-0.1,0.5-0.1C31.6,78.8,33.2,78.4,34.8,78.1z
		 M32.5,71.1L32.5,71.1L32.5,71.1c0,1.6,0,3.2,0.2,4.8c0.1,0.6-0.1,0.9-0.8,0.9c-1.7,0.2-3.2,0.8-4.7,1.5c-0.8,0.3-1.4,0.4-2.1-0.2
		c-0.4-0.4-0.8-0.7-1.2-1c-0.5-0.5-0.6-1-0.3-1.6c0.3-0.7,0.7-1.2,1.2-1.7c0.7-0.6,1.4-1.1,2.3-1.5c1.4-0.7,2.9-1.3,4.4-1.8
		C32.1,70.2,32.4,70.5,32.5,71.1z M31.4,65.1L31.4,65.1c-0.4,0.3-0.9,0.3-1.4,0.5c-0.3,0-0.6,0.1-0.9-0.1c-0.3-0.2-0.5-0.4-0.4-0.8
		c0-0.3,0.3-0.5,0.5-0.5c0.7-0.1,1.4-0.1,2.1,0.1c0.1,0,0.2,0.2,0.3,0.3C31.7,64.8,31.6,65,31.4,65.1z"/>
	<path class="st1" d="M61.9,73.3c-0.2,0.1-0.3,0.4-0.2,0.5c0.1,0.1,0.3,0.1,0.4,0.1c0.2-0.1,0.5-0.3,0.7-0.4c0.1,0,0.1-0.2,0.1-0.3
		c0-0.1-0.2-0.1-0.2-0.1v0C62.3,73.2,62.1,73.2,61.9,73.3z"/>
	<path class="st1" d="M43.3,75.7c0.1,0.2,0.3,0.3,0.5,0.3c0.2,0,0.4-0.2,0.3-0.4c0-0.3-0.3-0.4-0.6-0.4v0
		C43.2,75.2,43.2,75.4,43.3,75.7z"/>
	<polygon class="st1" points="43.5,75.2 43.5,75.2 43.5,75.2 	"/>
	<path class="st1" d="M45.1,74.9c-0.2,0.1-0.3,0.3-0.3,0.5v0c0,0.2,0.2,0.3,0.5,0.3c0.2-0.1,0.3-0.3,0.3-0.5
		C45.6,75,45.4,74.9,45.1,74.9z"/>
	<path class="st1" d="M62.9,78L62.9,78L62.9,78c0.1,0.2,0.2,0.3,0.4,0.2c0.3-0.2,0.4-0.5,0.3-0.8c-0.1-0.2-0.3-0.2-0.4-0.1
		C62.9,77.5,62.9,77.8,62.9,78z"/>
	<path class="st1" d="M64,74.1c0-0.2-0.2-0.3-0.3-0.2c-0.1,0-0.3,0.1-0.3,0.2c-0.1,0.1,0.2,0.3,0.4,0.3l0,0v0
		C63.8,74.4,64,74.3,64,74.1z"/>
	<path class="st1" d="M60.9,71.5c0,0.1,0.1,0.2,0.1,0.2c0.1-0.1,0.1-0.1,0.2-0.2c0-0.1-0.1-0.2-0.2-0.1v0
		C61,71.3,60.9,71.4,60.9,71.5z"/>
	<polygon class="st1" points="28.2,56.1 28.2,56.1 28.2,56.1 	"/>
	<path class="st1" d="M9.8,62.6c0.8,1,1.9,1.4,3.1,1.5c0.8,0.1,1.6,0.1,2.4,0c1.4-0.2,2.8-0.6,4.2-1c0.5-0.2,1-0.3,1.6-0.3
		c1.6,0.1,2.9-0.4,4.1-1.5c0.4-0.4,0.9-0.8,1.4-1.1c0.5-0.3,1-0.1,1.2,0.4c0.1,0.3,0.2,0.6,0.3,0.9c0.1,0.3,0.4,0.3,0.7,0.2
		c0.3-0.1,0.5-0.2,0.5-0.6c0-0.3,0-0.6-0.1-0.8c-0.7-0.8-0.4-1.7-0.3-2.6c0-0.4,0.2-0.6,0.6-0.7c0.6-0.2,1.2-0.4,1.9-0.5
		c1.3-0.3,1.6-0.1,1.9,1.2c0.4,1.7,1.7,2.3,3.3,1.7c0.1,0,0.2-0.1,0.3-0.1c1.4-0.7,2.8-1,4.3-0.2c0.2,0.1,0.5,0.2,0.8,0.1
		c0.3-0.1,0.5-0.3,0.5-0.6c0-0.3-0.2-0.5-0.3-0.5c-0.8,0-1.4-0.5-2.2-0.6c-0.8-0.2-1.5-0.4-2.3,0c-0.3,0.2-0.7,0.2-1.1,0.2
		c-0.6,0-1-0.3-1.3-0.8c-0.3-0.8-0.3-1.6,0.6-2.1c1.1-0.7,1.7-1.8,1.9-3c0.1-0.4,0.1-0.7,0.2-1.1c0.1-0.4,0.3-0.8,0.6-1.1
		c0.3-0.3,0.7-0.3,1-0.1c0.5,0.2,0.7,0.7,0.4,1.1c-0.7,1.1-0.8,2.5-1.9,3.3c-0.2,0.2-0.2,0.5,0,0.7c0.2,0.2,0.5,0.1,0.7-0.1
		c0.5-0.7,1-1.4,1.1-2.3c0-0.2,0.2-0.4,0.5-0.3c0.1,0.1,0.2,0.2,0.3,0.3c0.1,0.3,0.2,0.6,0,0.9c-0.3,0.7-0.6,1.4-1.2,1.8
		c-0.3,0.2-0.5,0.4-0.7,0.7c-0.2,0.2-0.1,0.4,0,0.6c0.1,0.2,0.5,0.2,0.7,0c0.4-0.5,0.7-0.9,1.1-1.4c0-0.1,0.2-0.1,0.3,0
		c0.1,0,0.2,0.2,0.2,0.2c-0.2,0.6,0,1,0.5,1.3c0.2,0.1,0.4,0.4,0.6,0.6c0.5,0.5,1.2,0.7,1.9,0.9c0.3,0.1,0.5-0.1,0.7-0.3
		c0.2-0.3,0.1-0.5-0.1-0.7c-0.1-0.1-0.2-0.2-0.4-0.3c-0.9-0.6-1.4-1.5-2.1-2.3c-0.2-0.3-0.4-0.6-0.4-1c0-0.4-0.1-0.7-0.1-1.1
		c0,0,0,0,0,0c-0.1-0.5-0.2-1-0.2-1.4c0-0.6,0.3-1.1,0.8-1.5c0.2-0.2,0.5-0.2,0.7-0.1c0.2,0.1,0.3,0.3,0.3,0.5c0,0.3-0.1,0.6,0,1
		c0.2,1.7,1.5,2.6,3.1,2.1c0.4-0.1,0.8-0.3,1.2-0.5c0.5-0.2,1-0.4,1.5-0.4c0.1,0,0.3,0.1,0.4,0.2c0.1,0.2,0.2,0.4,0.1,0.6
		c-0.2,0.3-0.4,0.5-0.6,0.8c-0.2,0.3-0.5,0.6-0.6,0.9c-0.4,1,0.3,1.9,1.5,2c0.8,0,1.6,0.2,2.4-0.1c0.3-0.1,0.5-0.1,0.8,0
		c0.2,0.1,0.4,0.2,0.4,0.5c0,0.1,0,0.3-0.1,0.4c-0.1,0.2-0.3,0.3-0.5,0.4c-1.2,0.7-2.6,1-4,1.2c-0.3,0-0.5,0-0.8,0.1
		c-0.3,0.1-0.4,0.3-0.3,0.7c0.1,0.2,0.2,0.4,0.5,0.4c0.2,0,0.4,0,0.6,0c1.4-0.1,2.6-0.6,3.9-1.1c0.8-0.3,1.5-0.8,1.8-1.7
		c0.1-0.3,0.3-0.6,0.7-0.6c0.8,0,1.4-0.5,1.8-1.2c0.1-0.2,0.3-0.5,0.6-0.5c0.9-0.1,1.8,0,2.7,0.4c0.6,0.3,0.7,0.9,0.3,1.5
		c-0.4,0.6-1,1-1.6,1.4c-0.7,0.5-1.2,1-0.8,2c0.2,0.4-0.1,0.7-0.4,0.9c-0.8,0.4-1.5,0.7-2.4,0.7c-0.8-0.1-1.5-0.3-1.9-1
		c-0.2-0.3-0.7-0.2-1,0.1c-0.3,0.3-0.2,0.7,0.2,1c0.3,0.2,0.6,0.4,1,0.6c0.7,0.3,1.4,0.6,2.1,0.6c1.5,0,2.8-0.6,3.7-1.9
		c0.2-0.3,0.3-0.7,0.2-1.1c-0.2-0.5,0-0.9,0.4-1.2c0.2-0.1,0.4-0.2,0.5-0.4c0.7-0.5,1.1-1.1,1.4-1.9c0.3-1,0.1-1.4-0.8-2l0.1-0.1
		l0,0c-0.3-0.2-0.8-0.3-0.8-0.7c0-0.3,0.4-0.4,0.7-0.6c0.1,0,0.2-0.1,0.3-0.1c0.9-0.5,1.3-1.4,1.1-2.5c-0.2-0.8-0.5-1.5-1.3-1.9
		c-0.2-0.1-0.4-0.2-0.6-0.3c-0.3-0.2-0.4-0.5-0.2-0.8c0.1-0.2,0.2-0.5,0.3-0.7c0.4-1,0.1-1.9-0.6-2.7c-0.6-0.6-1.3-0.9-2.2-0.9
		c-1.3,0-2.6,0.2-3.6,1.2c0,0-0.1,0.1-0.1,0.1c-0.3,0.2-0.5,0.2-0.7-0.1c-0.2-0.3-0.3-0.6-0.5-0.8c-0.2-0.3-0.4-0.6-0.7-0.7
		c-1.1-0.3-2.3-0.7-3.4-0.2c-0.9,0.4-1.7,0.8-2.1,1.9c-0.1,0.4-0.6,0.4-0.9,0.1c-0.1-0.2-0.2-0.5-0.4-0.7c-0.3-0.6-0.7-1.1-1.3-1.4
		c-1.2-0.4-2.4-0.7-3.6-0.4c-1.2,0.3-1.9,1.2-1.8,2.5c0,0.3,0.1,0.5,0.1,0.8c0,0.4-0.4,0.6-0.7,0.4c-0.6-0.5-1.3-0.8-2-1.1
		c-0.6-0.2-0.7-0.5-0.6-1.2c0.1-0.6,0.4-1.1,0.5-1.7c0.5-2-0.2-3-1.5-3.6c-0.4-0.2-0.7-0.2-1.1-0.2c-0.7,0-1.5,0.1-2.2,0
		c-0.8,0-1.2-0.3-1.2-1.2c-0.1-0.8-0.3-1.6-1-2.1c-1.5-1.1-3.1-1.7-5-1.2c-0.7,0.2-1.4,0.4-2,0.5c-1,0.1-1.5-0.2-1.9-1.1
		c-0.1-0.2-0.2-0.5-0.3-0.8c-0.4-1-1.2-1.5-2.2-1.7c-1.4-0.2-2.9-0.2-4.3,0.3c-2.2,0.7-2.8,1.6-2.6,3.9c0,0.5,0.2,1.1,0.5,1.5
		c0.1,0.2,0.4,0.4,0.7,0.4c0.3-0.1,0.4-0.3,0.4-0.6c0-0.5-0.2-1.1,0.1-1.6c0.2-0.6,0.6-1,0.8-0.9c0.4,0.2,0.2,0.6,0.3,0.9
		c0,0.1,0.1,0.1,0.2,0.2c0.1-0.1,0.2-0.2,0.2-0.2c0-0.5,0-1,0-1.4c0-0.7,0.5-1.1,1.2-1c0.3,0,0.5,0.2,0.5,0.5c0,0.3-0.1,0.6-0.2,0.9
		c-0.3,0.9-0.5,1.8-1,2.5c-0.1,0.2-0.1,0.5,0.1,0.7c0.2,0.2,0.5,0.3,0.7,0.2c0.3-0.1,0.4-0.4,0.4-0.6c0.1-0.6,0.1-1.2,0.2-1.8
		c0.2-0.8,0.4-1.7,0.6-2.5c0.1-0.3,0.5-0.5,0.8-0.4c0.3,0.1,0.5,0.4,0.4,0.7c-0.2,0.7-0.4,1.3-0.6,2c-0.1,0.2-0.1,0.4-0.1,0.6
		c0,0.2,0.1,0.4,0.3,0.5c0.2,0.1,0.4,0,0.5-0.2c0.3-0.5,0.4-1,0.3-1.5c0-0.3-0.1-0.6-0.1-1c0-0.1,0.2-0.3,0.3-0.4
		c0.1,0,0.4,0,0.4,0.1c0.7,0.8,1.1,1.6,0.5,2.6c-0.2,0.3-0.3,0.7-0.5,1c-0.1,0.3-0.3,0.7-0.6,0.9c-0.3,0.2-0.6-0.2-0.9-0.2
		c-0.2,0-0.3,0.1-0.3,0.3c0,0.1,0.1,0.4,0.2,0.4c0.2,0.1,0.4,0.1,0.6,0.1c1.2,0.2,1.9-0.3,2.1-1.5c0-0.3,0-0.7,0.1-1
		c0.1-0.3,0.6-0.5,1-0.3c0.3,0.1,0.3,0.4,0.2,0.7c-0.1,0.4-0.7,0.9-0.2,1.1c0.7,0.3,0.6-0.5,0.8-0.9c0.2-0.3,0.4-0.7,0.8-0.6
		c0.4,0.1,0.3,0.5,0.4,0.8c0.1,0.1,0.2,0.3,0.3,0.3c0.1,0,0.3-0.1,0.4-0.2c0.3-0.4,0.5-0.8,0.8-1.2c0.1-0.2,0.4-0.4,0.6-0.5
		c0.1,0,0.2,0,0.3,0.1s0.1,0.2,0.1,0.3c-0.1,0.3-0.3,0.7-0.4,1c0,0,0.1,0.2,0.2,0.2c0.1,0,0.2,0,0.3,0c0.2-0.2,0.3-0.4,0.4-0.7
		c0.2-0.3,0.3-0.6,0.6-0.7c0.1-0.1,0.3,0,0.4,0c0.1,0.1,0.3,0.2,0.2,0.4c-0.2,0.3-0.4,0.7-0.5,1c0,0.1,0,0.2,0.1,0.2
		c0.1,0,0.2,0,0.3,0c0.3-0.3,0.4-0.8,0.9-0.9c0.1,0,0.3,0,0.5,0c0.2,0.1,0.2,0.2,0.2,0.4c-0.1,0.2-0.2,0.4-0.3,0.6
		c-0.1,0.2,0,0.5,0.3,0.4c0.6-0.1,0.7,0.2,0.8,0.7c0.2,1.1,0.8,1.5,1.8,1.7c0.8,0.1,1.5,0,2.2,0c1.3,0.1,1.9,1.1,1.4,2.3
		c-0.2,0.3-0.4,0.7-0.5,1c-0.8,1.6-0.3,2.9,1.3,3.8c0.2,0.1,0.5,0.2,0.7,0.4c0.7,0.4,1,1,1,1.9c0,1.5-0.4,3-1.1,4.3
		c-0.7,1.4-1.8,2.2-3.3,2.6c-0.2,0.1-0.4,0.1-0.6-0.1c-0.2-0.2-0.2-0.5-0.1-0.7c0.1-0.2,0.3-0.4,0.5-0.6c0.4-0.4,0.8-0.9,1.3-1.2
		c0.7-0.6,1.1-1.3,1.4-2.1c0.4-1-0.1-2-1.1-2.3c-0.6-0.2-1.2-0.2-1.7-0.1c-1,0.1-1.3-0.3-1.1-1.2c0.1-0.3,0.2-0.5,0.3-0.8
		c0.2-0.6,0.3-1.3,0.3-1.9c0-1.4-1.1-2.4-2.5-2.2c-0.7,0.1-1.3,0.4-1.9,0.8c-0.4,0.3-0.8,0.1-1.2-0.1c-0.3-0.2-0.4-0.5-0.4-0.8
		c0-1.1-0.7-1.9-1-2.9c-0.3-0.8-1.2-1.5-2.3-1.3c-0.3,0.1-0.6,0.1-0.9,0.2c-2,0.5-2.9,2.1-2.3,4.1c0.5,1.5,0.8,3,0.9,4.6
		c0.1,1.5,0.4,2.9,1.4,4.1c0.2,0.2,0.3,0.5,0.4,0.7c0,0.1,0,0.3-0.1,0.4c-0.1,0.2-0.4,0.2-0.6,0.1c-0.5-0.3-0.9-0.8-1.2-1.3
		c-1.1-1.4-2.5-2.3-4.1-3c-1.1-0.4-2-0.2-2.9,0.3c-0.6,0.3-0.8,0.9-0.5,1.5c0.2,0.5,0.4,0.9,0.3,1.4c-0.2,0.7-0.2,1.5-0.3,2.2
		c-0.1,0.6-0.4,1-0.9,0.9c-0.9-0.2-1.7,0.1-2.5,0.4c-0.4,0.1-0.8,0.2-1.3,0.1c-0.7-0.2-1-0.6-0.9-1.3c0.1-0.4,0.2-0.8,0.3-1.2
		c0.5-1.5,0.3-2-0.9-2.9c-0.3-0.3-0.7-0.5-1-0.8C4,46.7,4.1,46,4.8,45.3c0.3-0.2,0.6-0.4,1-0.5c0.3,0,0.6-0.1,0.8,0.1
		c0.2,0.3,0,0.5-0.2,0.7c-0.2,0.2-0.4,0.5-0.6,0.8c-0.1,0.2-0.2,0.4,0,0.6c0,0.1,0.1,0.2,0.2,0.2c0.2,0.1,0.3,0,0.4-0.1
		c0.1-0.2,0.1-0.4,0.2-0.6c0.5-1.2,1-1.4,2.3-1.2c0.3,0,0.5,0.1,0.8,0.1c0.5,0.1,1,0.3,1.6,0.3c0.6,0.1,0.8-0.2,0.7-0.7
		c-0.2-0.7-0.4-1.5-0.6-2.2c-0.1-0.4,0-0.7,0.5-0.8c0.7-0.1,0.9-0.5,1-1.1c0-0.3,0-0.5,0-0.8c0-0.2,0.2-0.4,0.5-0.4
		c0.2,0,0.4,0.1,0.5,0.3c0.2,0.5,0,0.9-0.2,1.4c-0.2,0.3-0.5,0.6-0.5,1c0,0.1,0.1,0.3,0.2,0.4c0.1,0,0.2,0,0.3,0
		c0.2-0.1,0.3-0.4,0.4-0.7c0.1-0.3,0.3-0.7,0.4-1c0.1-0.1,0.3-0.2,0.4-0.1c0.1,0.1,0.3,0.2,0.3,0.3c0.1,0.1,0,0.3,0,0.5
		c-0.1,0.4-0.3,0.7-0.4,1c-0.1,0.2-0.3,0.6,0.1,0.7c0.2,0.1,0.3-0.2,0.4-0.4c0.1-0.2,0.2-0.5,0.3-0.7c0-0.1,0.2-0.1,0.3-0.1
		c0.2,0,0.3,0.1,0.3,0.3c0,0.2,0,0.3,0,0.5c-0.1,0.7-0.3,1.5-0.4,2.2c0,0.2,0.1,0.3,0.2,0.4c0.2,0.1,0.3,0,0.4-0.2
		c0.2-0.4,0.3-0.8,0.2-1.2c0-0.3,0-0.6,0.3-0.9c0.2-0.2,0.4-0.2,0.6-0.1c0.2,0.1,0.3,0.3,0.2,0.5c-0.1,0.3-0.4,0.6-0.3,1.1
		c0,0.1,0.1,0.2,0.2,0.2c0.1,0,0.2,0,0.3-0.1c0.4-0.5,0.1-1.1,0.2-1.7c0-0.5-0.2-0.8-0.6-1.1c-0.7-0.4-1.2-1-1.8-1.6
		c-0.5-0.6-1-1.1-1.6-1.6c-1.4-1.1-2.7-1.5-4.4-0.7c-0.9,0.4-1.1,1.2-0.5,2c0.1,0.1,0.2,0.2,0.3,0.4c0.7,0.8,0.8,1.7,0.8,2.7
		c0,0.8-0.5,1.3-1.4,1.2c-0.6-0.1-1.2-0.2-1.7-0.4c-1.2-0.3-2.2-0.1-3.2,0.6C2.9,45.5,2.8,47,3.8,48c0.2,0.2,0.4,0.4,0.6,0.5
		C6,49.7,6,49.8,5.4,51.6c-0.4,1-0.4,2,0.6,2.7c0.4,0.3,0.3,0.6-0.1,0.9c-0.6,0.4-1.2,0.7-1.7,1.1c-1.1,0.9-0.9,2.4,0.4,3
		c0.4,0.2,0.8,0.3,1.2,0.3c1,0.1,1.7,0.6,2.4,1.2C8.7,61.5,9.3,62,9.8,62.6z M53.2,47c0.2-0.5,0.5-1,1-1.2c0.8-0.3,1.7-0.8,2.3-0.8
		c0.9-0.1,1.6,0,2.2,0.3c0.4,0.2,0.5,0.6,0.4,1c-0.1,0.3-0.2,0.5-0.3,0.7c-0.3,0.8-0.3,1.3,0.5,1.8c0.3,0.2,0.6,0.3,0.8,0.5
		c1.1,0.7,1.1,1.8,0,2.4c-0.5,0.3-0.9,0.5-1,1.1l0,0v0c-0.2,0.5-0.7,0.4-1.1,0.3c-0.6-0.1-0.8-0.3-0.6-0.9c0.1-0.3,0.2-0.6,0.3-0.9
		c0.4-1.2-0.1-2.2-1.2-2.8c-0.6-0.3-1.3-0.5-2-0.6c-0.2,0-0.4,0-0.6-0.1C53.2,47.8,53,47.4,53.2,47z M45.2,48.9
		c1.2-0.5,1.7-1.5,2.1-2.7c0.4-1.3,2.3-2.5,3.7-2.4c0.1,0,0.3,0.1,0.4,0.2c0.2,0.2,0,0.5-0.1,0.6c-1.1,0.6-1.7,1.9-2.9,2.5
		c0,0-0.1,0.1-0.1,0.1c-0.2,0.2-0.2,0.4,0,0.6c0.1,0.1,0.3,0.1,0.4,0.1c0.6-0.2,1.1-0.7,1.4-1.3c0.3-0.5,0.6-1,1.1-1.3
		c0.1-0.1,0.3-0.1,0.4-0.1c0.2,0.1,0.3,0.3,0.3,0.5c0,0.1,0,0.2-0.1,0.3c-0.2,0.9-0.7,1.6-1.5,2c-0.3,0.1-0.7,0.3-0.7,0.8
		c0,0.1,0.2,0.3,0.3,0.3c0.5,0.2,0.8-0.1,1.1-0.4c0.2-0.2,0.4-0.4,0.6-0.5c0.3-0.1,0.5-0.1,0.7,0.2c0.1,0.2,0.1,0.4,0,0.6
		c-0.2,0.2-0.4,0.5-0.6,0.7c-0.1,0.1,0,0.3,0.1,0.4c0.1,0.1,0.3,0.1,0.4,0.1c0.4-0.1,0.6-0.4,0.9-0.7c0.2-0.2,0.4-0.5,0.7-0.6
		c0.3-0.1,0.6,0,0.6,0.3c0,0.2,0,0.4,0,0.6c0,0.2,0.2,0.2,0.4,0.1c0.1-0.1,0.2-0.2,0.4-0.3c0.6-0.4,1.3-0.1,1.4,0.6
		c0,0.3-0.1,0.5-0.1,0.8l0,0v0c-0.1,0.5-0.4,0.9-0.5,1.4c-0.3,1.1-1.2,1.5-2,1.9c-0.2,0.1-0.5,0.2-0.8,0.1c-1-0.2-2-0.4-3-0.3
		c-0.4,0-0.6-0.4-0.4-0.8c0.1-0.1,0.1-0.2,0.2-0.3c0.1-0.1,0.1-0.2,0.2-0.2c0.3-0.5,0.5-1.1,0.1-1.7c-0.4-0.6-1-1-1.8-0.8
		c-0.1,0-0.2,0-0.3,0c-0.6,0.1-1.2,0.2-1.6,0.6c-0.1,0.1-0.3,0.2-0.4,0.2c-0.7,0.3-1.2,0.3-1.5-0.1c-0.4-0.6-0.3-1.5,0.2-1.9
		C44.9,49.1,45.1,49,45.2,48.9z M38.9,46.5c0.4-0.6,0.5-1.3,0.5-2c0-1.2,0.5-1.7,1.7-1.7c0.9-0.1,1.7,0.3,2.5,0.6
		c0.2,0.1,0.4,0.4,0.5,0.6c0.3,0.5,0.4,1,0.5,1.5c0.1,0.7-0.1,1.3-0.4,1.8c-0.3,0.5-0.6,0.7-1.2,0.5c-0.8-0.3-1.4-0.1-2,0.5
		c-0.2,0.2-0.4,0.4-0.7,0.4c-0.5-0.1-1.1-0.2-1.5-0.6c-0.1-0.1-0.2-0.4-0.2-0.6C38.5,47.2,38.7,46.8,38.9,46.5z M11.7,39.1
		L11.7,39.1L11.7,39.1c0.2-0.1,0.4-0.2,0.6,0c0.2,0.1,0.3,0.4,0.2,0.5c-0.2,0.6-0.1,1.3-0.6,1.8c-0.2,0.3-0.7,0.3-0.8,0
		C11.1,41.2,11,41,11,40.9C10.9,40.1,11,39.5,11.7,39.1z M5.2,58.3c-0.8-0.2-0.9-0.7-0.4-1.3c1.1-0.9,2.4-1.7,3.7-2.2
		c0.1,0,0.2-0.1,0.3,0c0.1,0,0.3,0.1,0.4,0.2c0.1,0.1,0.1,0.3,0,0.4c-0.3,0.3-0.6,0.6-0.9,0.9c-0.2,0.2-0.4,0.5-0.6,0.8
		c-0.2,0.3,0,0.7,0.3,0.8c0.3,0.1,0.6,0,0.7-0.3c0.4-0.8,1-1.5,1.2-2.4c0.1-0.4,0.4-0.7,0.8-0.7c0.3,0,0.5,0,0.7,0.3
		c0.1,0.2,0.1,0.4,0,0.6c-0.2,0.5-0.6,0.8-0.9,1.1c-0.2,0.3-0.5,0.6-0.4,1c0,0.1,0.1,0.3,0.3,0.4c0.1,0,0.4,0,0.4-0.1
		c0.3-0.4,0.5-0.8,0.8-1.2c0.1-0.1,0.3-0.1,0.4-0.1c0.1,0,0.3,0.2,0.3,0.3c0.1,0.3,0,0.5,0.1,0.8c0,0.2,0.2,0.3,0.3,0.2
		c0.4-0.1,0.7,0,1,0.2c1.5,0.7,3.1,1.1,4.8,0.9c1.2-0.1,2.4-0.4,3.7,0.1c0.2,0.1,0.4-0.1,0.5-0.3c0.1-0.3,0-0.5-0.3-0.7
		c-0.9-0.5-1.8-1-2.9-0.9c-2.2,0.2-4-0.7-5.7-1.9c-0.3-0.2-0.5-0.4-0.6-0.7c-0.5-1-0.8-2.1-0.6-3.3c0.2-0.9,0.3-1.8,0.1-2.7
		c-0.1-0.5,0.1-0.7,0.6-0.8c0.2,0,0.3,0,0.5-0.1c0.4,0,0.8,0,1,0.3c0.3,0.4,0.1,0.7-0.1,1c-0.2,0.4-0.5,0.7-0.7,1.1
		c-0.1,0.2-0.2,0.5-0.3,0.7c0,0.2,0,0.5,0.3,0.5c0.2,0.1,0.4-0.1,0.5-0.3c0.1-0.2,0.2-0.4,0.2-0.6c0.2-0.5,0.3-0.9,0.5-1.4
		c0.1-0.4,0.2-0.7,0.7-0.8c0.3,0,0.5,0.1,0.7,0.3c0.3,0.4,0,0.7-0.2,1c-0.4,0.5-0.6,1-0.8,1.6c-0.1,0.2-0.1,0.4-0.1,0.6
		c0,0.1,0.2,0.3,0.3,0.3c0.2,0.1,0.3,0,0.4-0.2c0.2-0.4,0.3-0.8,0.4-1.2c0.1-0.4,0.2-0.7,0.4-1c0.1-0.2,0.3-0.3,0.5-0.2
		c0.2,0.1,0.3,0.3,0.3,0.5c0,0.3-0.1,0.5-0.2,0.8c-0.1,0.3-0.3,0.6-0.3,0.9c-0.1,0.2,0,0.4,0.2,0.5c0.2,0.1,0.3-0.1,0.4-0.2
		c0.1-0.3,0.2-0.6,0.4-0.9c0.1-0.1,0.2-0.2,0.4-0.2c0.2,0,0.3,0.1,0.3,0.3c0,0.4,0,0.8,0.6,0.6c0.3-0.1,0.5,0,0.7,0.2
		c0.9,0.7,2,1.3,3.1,1.6c0.9,0.3,1.4,0.9,1.6,1.8c0.1,0.4,0.2,0.8,0.3,1.3c0.1,0.3,0.2,0.5,0.5,0.6c0.1,0,0.3,0,0.5,0
		c0.1,0,0.1-0.2,0.1-0.3c0-0.2,0-0.4-0.1-0.9h0c0-0.5-0.4-1.3-0.7-2c-0.1-0.4-0.4-0.8-0.8-1c-0.6-0.3-1.1-0.7-1.4-1.3
		c-0.1-0.2-0.4-0.4-0.6-0.6c-0.5-0.4-0.8-0.8-1.2-1.3c-0.9-1.3-1.3-2.7-1.4-4.2c-0.1-1.4-0.3-2.7-0.6-4c-0.1-0.3-0.2-0.6-0.2-0.9
		c0-0.8,0.7-1.7,1.5-1.8c0.2,0,0.6,0.3,0.5,0.5c0,0.2-0.1,0.3-0.1,0.5c-0.2,0.4-0.3,0.8-0.3,1.2c0,0.2,0,0.5,0.2,0.6
		c0.2,0.1,0.4-0.1,0.5-0.3c0.2-0.4,0.4-0.9,0.6-1.3c0.1-0.3,0.3-0.4,0.6-0.3c0.3,0.1,0.4,0.3,0.4,0.6c-0.1,0.8-0.5,1.4-0.9,2.1
		c-0.1,0.2-0.3,0.4-0.5,0.7c-0.1,0.2,0,0.4,0.1,0.6c0.2,0.2,0.6,0.2,0.7-0.1c0.1-0.2,0.2-0.4,0.3-0.6c0.1-0.4,0.2-0.7,0.3-1.1
		c0.1-0.2,0.2-0.4,0.5-0.4c0.2,0,0.3,0.3,0.4,0.5c0.2,0.5,0,1-0.2,1.4c-0.3,0.4-0.6,0.9-0.9,1.3c-0.2,0.3,0,0.6,0.3,0.8
		c0.3,0.2,0.5,0,0.7-0.2c0.2-0.4,0.4-0.7,0.6-1.1c0.1-0.2,0.2-0.5,0.3-0.7c0.2-0.3,0.7-0.4,1-0.2c0.3,0.2,0.3,0.5,0.2,0.7
		c-0.3,0.5-0.6,1-0.9,1.5c-0.1,0.2-0.1,0.4,0.1,0.4c0.1,0,0.3,0,0.4-0.1c0.4-0.4,0.5-0.9,0.7-1.5c0.3-0.8,0.9-1.5,1.6-1.9
		c0.1-0.1,0.3-0.1,0.4,0.1c0.1,0.1,0.2,0.3,0.1,0.4c-0.1,0.1-0.2,0.2-0.3,0.4c-0.2,0.3-0.5,0.5-0.7,0.8c-0.1,0.1-0.1,0.3-0.1,0.5
		c0,0.2,0.1,0.4,0.4,0.5c0.2,0.1,0.4,0,0.6-0.2c0.1-0.2,0.2-0.4,0.2-0.6c0.1-0.3,0.2-0.6,0.3-0.9c0.1-0.3,0.3-0.6,0.7-0.6
		c0.3,0,0.4,0.4,0.5,0.9c0,0.6-0.1,1.2-0.4,1.7c-0.3,0.6-0.4,1.2-0.3,1.9c0.1,0.8,0.5,1.3,1.4,1.2c0.6-0.1,1.3,0,1.9,0
		c0.5,0,0.8,0.4,0.6,0.9c-0.1,0.3-0.2,0.5-0.3,0.7c-0.2,0.3-0.4,0.5-0.6,0.8c-1.5,1.6-2.9,3.4-4.6,5v0c-0.2,0.2-0.4,0.5-0.5,0.8
		c-0.2,0.9-0.7,1.5-1.5,2c-0.5,0.3-0.9,0.7-1.3,1.2c-1.1,1.1-2.3,1.7-3.9,1.5c-0.7-0.1-1.5,0.1-2.2,0.5c-2.1,0.9-4.2,1.1-6.5,0.8
		c-0.5,0-0.9-0.2-1.3-0.6c-0.5-0.4-1-0.9-1.4-1.4c-1-1.2-2.2-2-3.7-2.4C5.7,58.5,5.4,58.4,5.2,58.3z"/>
	<path class="st1" d="M8.2,46.2L8.2,46.2c-0.5,0.1-0.8,0.4-0.9,1c0,0.3,0,0.6,0.2,0.7c0.3,0.1,0.5-0.1,0.6-0.4
		c0.1-0.3,0.3-0.7,0.4-1C8.6,46.3,8.4,46.2,8.2,46.2L8.2,46.2z"/>
	<path class="st1" d="M13.5,44.3L13.5,44.3c-0.3,0-0.6,0.4-0.5,0.7c0.1,0.2,0.2,0.4,0.5,0.3c0.3,0,0.6-0.4,0.5-0.7
		C13.9,44.4,13.8,44.3,13.5,44.3z"/>
	<path class="st1" d="M9.3,46.9c-0.1,0.2-0.1,0.4,0,0.6c0,0,0.1,0.1,0.1,0.1c0.4,0.1,0.8-0.4,0.7-0.8c-0.1-0.1-0.1-0.2-0.2-0.2l0,0
		v0C9.6,46.6,9.4,46.7,9.3,46.9z"/>
	<path class="st1" d="M25.9,47.5c-0.1,0-0.2,0.1-0.2,0.2c0,0.2,0.1,0.3,0.3,0.3c0.1-0.1,0.2-0.1,0.2-0.2
		C26.2,47.7,26.1,47.5,25.9,47.5z"/>
	<polygon class="st1" points="27.7,46.3 27.7,46.3 27.7,46.3 	"/>
	<path class="st1" d="M27.6,46.8c0.2,0,0.3-0.1,0.3-0.2c0-0.2-0.1-0.3-0.2-0.3c-0.3,0-0.3,0.1-0.3,0.3
		C27.4,46.7,27.5,46.8,27.6,46.8z"/>
	<path class="st1" d="M28.5,48.3c0,0,0-0.1,0-0.1c0,0-0.1-0.1-0.1-0.1c0,0-0.1,0.1-0.1,0.1l0,0C28.3,48.3,28.4,48.3,28.5,48.3z"/>
</g>
</svg>
