<?xml version="1.0" encoding="utf-8"?>
<!-- Generator: Adobe Illustrator 27.5.0, SVG Export Plug-In . SVG Version: 6.00 Build 0)  -->
<svg version="1.1" id="Layer_1" xmlns:xodm="http://www.corel.com/coreldraw/odm/2003"
	 xmlns="http://www.w3.org/2000/svg" xmlns:xlink="http://www.w3.org/1999/xlink" x="0px" y="0px" viewBox="0 0 4.7 4.7"
	 style="enable-background:new 0 0 4.7 4.7;" xml:space="preserve">
<style type="text/css">
	.st0{fill:#371810;}
</style>
<g id="Layer_x0020_1">
	<path class="st0" d="M1.1,0h2.4c0.3,0,0.6,0.1,0.8,0.3c0.2,0.2,0.3,0.5,0.3,0.8v2.4c0,0.3-0.1,0.6-0.3,0.8C4.1,4.6,3.8,4.7,3.5,4.7
		H1.1c-0.3,0-0.6-0.1-0.8-0.3C0.1,4.2,0,3.8,0,3.5V1.2c0-0.3,0.1-0.6,0.3-0.8C0.5,0.1,0.8,0,1.1,0z M2.3,1.1c0.4,0,0.7,0.1,0.9,0.4
		C3.4,1.7,3.6,2,3.6,2.4S3.4,3,3.2,3.3C3,3.5,2.7,3.6,2.3,3.6S1.7,3.5,1.4,3.3C1.2,3,1.1,2.7,1.1,2.4s0.1-0.7,0.4-0.9
		C1.7,1.3,2,1.1,2.3,1.1z M2.8,1.8C2.7,1.7,2.5,1.6,2.3,1.6c-0.2,0-0.4,0.1-0.5,0.2S1.6,2.1,1.6,2.3c0,0.2,0.1,0.4,0.2,0.5
		C1.9,3,2.1,3.1,2.3,3.1c0.2,0,0.4-0.1,0.5-0.2C3,2.7,3.1,2.5,3.1,2.3C3.1,2.1,3,2,2.8,1.8z M3.6,0.9c0.2,0,0.3,0.1,0.3,0.3
		S3.7,1.4,3.6,1.4c-0.2,0-0.3-0.1-0.3-0.3S3.4,0.9,3.6,0.9z M3.5,0.5H1.1C1,0.5,0.8,0.6,0.7,0.7S0.5,1,0.5,1.2v2.4
		c0,0.2,0.1,0.3,0.2,0.4C0.8,4.1,1,4.2,1.1,4.2h2.4c0.2,0,0.3-0.1,0.4-0.2C4,3.9,4.1,3.7,4.1,3.5V1.2C4.1,1,4,0.8,3.9,0.7
		C3.8,0.6,3.7,0.5,3.5,0.5z"/>
</g>
</svg>
