<?xml version="1.0" encoding="utf-8"?>
<!-- Generator: Adobe Illustrator 27.5.0, SVG Export Plug-In . SVG Version: 6.00 Build 0)  -->
<svg version="1.1" id="Layer_1" xmlns:xodm="http://www.corel.com/coreldraw/odm/2003"
	 xmlns="http://www.w3.org/2000/svg" xmlns:xlink="http://www.w3.org/1999/xlink" x="0px" y="0px" viewBox="0 0 4.4 8.3"
	 style="enable-background:new 0 0 4.4 8.3;" xml:space="preserve">
<style type="text/css">
	.st0{fill:#F3F0E2;}
</style>
<g id="Layer_x0020_1">
	<path class="st0" d="M2.2,0C2.6,0,3,0.1,3.3,0.2c0.4,0.2,0.6,0.4,0.8,0.7c0.2,0.3,0.3,0.6,0.3,1.1c0,0.3-0.1,0.7-0.2,1.1l-2,5.2
		l-2-5.3C0,2.5-0.1,2.2-0.1,1.9c0-0.4,0.1-0.8,0.3-1.1c0.2-0.3,0.5-0.5,0.9-0.7C1.4,0,1.8,0,2.2,0L2.2,0z M3.1,0.6
		C2.8,0.5,2.6,0.4,2.2,0.4c-0.3,0-0.6,0.1-0.9,0.2C1,0.7,0.8,0.9,0.6,1.1C0.5,1.4,0.4,1.6,0.4,2c0,0.3,0.1,0.5,0.2,0.8l1.6,4.3
		l1.6-4.3C3.9,2.5,4,2.2,4,1.9c0-0.3-0.1-0.6-0.2-0.8C3.6,0.8,3.4,0.6,3.1,0.6L3.1,0.6z M2.2,0.8c0.4,0,0.6,0.1,0.9,0.4
		c0.2,0.2,0.4,0.5,0.4,0.9S3.3,2.7,3.1,3S2.5,3.4,2.2,3.4C1.8,3.4,1.6,3.2,1.3,3C1.1,2.7,1,2.4,1,2.1s0.1-0.7,0.4-0.9
		S1.9,0.8,2.2,0.8z M2.8,1.5C2.6,1.3,2.4,1.2,2.2,1.2S1.7,1.3,1.6,1.5C1.5,1.6,1.4,1.8,1.4,2.1s0.1,0.5,0.3,0.6
		C1.8,2.8,2,2.9,2.2,2.9s0.5-0.1,0.6-0.3C2.9,2.5,3,2.3,3,2.1S2.9,1.6,2.8,1.5z"/>
</g>
</svg>
