<?xml version="1.0" encoding="utf-8"?>
<!-- Generator: Adobe Illustrator 27.5.0, SVG Export Plug-In . SVG Version: 6.00 Build 0)  -->
<svg version="1.1" id="Layer_1" xmlns:xodm="http://www.corel.com/coreldraw/odm/2003"
	 xmlns="http://www.w3.org/2000/svg" xmlns:xlink="http://www.w3.org/1999/xlink" x="0px" y="0px" viewBox="0 0 57.4 47.2"
	 style="enable-background:new 0 0 57.4 47.2;" xml:space="preserve">
<style type="text/css">
	.st0{fill:#A48B50;}
</style>
<g id="Layer_x0020_1">
	<g id="_105553330762592">
		<path class="st0" d="M57,23.6c-1.2-0.2-2.3-0.4-3.5-0.3c-1.5,0-2.9,0-4.4-0.4c-0.4-0.1-0.9-0.1-1.3-0.2c-0.3,0-0.6,0.1-0.7-0.3
			c0-0.3,0.3-0.4,0.5-0.5c0.2-0.2,0.5-0.3,0.7-0.5c1-0.5,2-1.2,2.9-1.8c0.9-0.6,1.7-1.4,2.8-1.8c0.5-0.2,0.6-0.6,0.5-0.9
			c-0.2-0.4-0.6-0.3-0.9-0.3c-1.1,0.1-2.2,0.2-3.3,0.4c-1.2,0.3-2.3,0.5-3.5,0.6c-1.2,0.1-2.4,0-3.5,0.4c-0.2,0.1-0.5-0.2-0.4-0.5
			c0-0.2,0.1-0.3,0.2-0.4c0.7-0.6,1-1.5,1.5-2.2c0.7-1.1,1.4-2.2,2.3-3.2c0.6-0.7,1.2-1.4,1.8-2.2c0.3-0.5,0.6-0.9,1.2-1.2
			c0.3-0.1,0.6-0.4,0.7-0.8c0.1-0.3,0-0.5-0.2-0.7c-0.2-0.1-0.4-0.2-0.6-0.1c-0.5,0.2-0.9,0.5-1,1c-0.2,0.5-0.6,0.7-1.1,0.9
			c-2.1,1-4.2,1.9-6.2,3.1c-0.8,0.4-1.6,0.9-2.3,1.4c-0.4,0.3-0.8,0.5-1.2,0.7c-0.5,0.2-0.9,0-0.9-0.6c0-0.2,0-0.3,0-0.5
			c0.1-0.6,0.2-1.1,0.3-1.7C37.6,9.6,37.9,8,38,6.4c0.1-1.5,0.2-2.9,0.7-4.3c0-0.1,0-0.2,0-0.2c0-0.2-0.2-0.4-0.4-0.3
			c-0.4,0.2-0.8,0.5-1,0.9c-0.3,0.6-0.6,1.1-1,1.7c-1.7,2.3-3.4,4.6-4.6,7.3c0,0-0.1,0.1-0.1,0.1c-0.1,0.2-0.4,0.2-0.5,0
			c-0.1-0.2-0.2-0.4-0.2-0.6c-0.4-1.5-0.9-3-1.5-4.5c-0.1-0.2-0.2-0.5-0.2-0.7c-0.1-0.5-0.2-0.9-0.4-1.3c-0.2-0.6-0.5-1.2-0.6-1.9
			c-0.2-0.9-0.5-1.7-0.9-2.5v0h-0.5c-0.4,0.6-0.7,1.2-0.8,1.9c-0.1,0.7-0.1,1.4-0.3,2.1c-0.2,0.7-0.2,1.4-0.2,2.1c0,0.3,0,0.7-0.1,1
			c-0.2,2-0.7,4-0.6,6.1c0,0.2,0,0.4-0.1,0.6c-0.1,0.5-0.5,0.7-1,0.5c-0.2-0.1-0.3-0.1-0.4-0.2c-0.5-0.3-1-0.6-1.6-1
			c-0.3-0.2-0.6-0.4-0.8-0.7c-0.9-1.1-2-1.9-3.2-2.6c-0.5-0.3-1-0.6-1.4-0.9c-0.4-0.3-0.8-0.7-1.3-1c-0.6-0.4-1.2-0.7-1.8-1
			c-0.2-0.1-0.3-0.1-0.5,0.1c-0.2,0.2-0.2,0.4-0.1,0.6c0.1,0.2,0.2,0.3,0.4,0.5c0.3,0.4,0.6,0.8,0.9,1.2c0.6,0.8,1.1,1.6,1.7,2.4
			c0.2,0.2,0.3,0.5,0.4,0.7c0.4,0.7,0.7,1.4,1.1,2c0.4,0.7,0.7,1.4,1,2.1c0.1,0.2-0.1,0.4-0.3,0.4c-0.2,0-0.3,0-0.5-0.1
			c-1.5-0.4-2.9-0.7-4.5-0.7c-0.3,0-0.6,0-0.9-0.1c-0.4-0.1-0.9,0-1.3,0c-1.9,0-3.8,0.3-5.5-0.6c-0.5-0.2-1-0.1-1.1,0.2
			c-0.1,0.5,0.2,0.7,0.6,0.8c1.2,0.6,2.4,1.5,3.7,1.8c0.4,0.1,0.7,0.3,1.1,0.6c1.5,1,2.7,2.4,4.3,3.2c0,0,0.1,0.1,0.1,0.1
			c0.2,0.2,0.1,0.6-0.1,0.7c-0.1,0.1-0.3,0.1-0.5,0.2c-1.5,0.3-2.9,0.7-4.2,1.3c-1,0.4-2,0.7-3.1,0.8c-0.3,0-0.6,0.2-0.9,0.3
			c-0.8,0.4-1.6,0.6-2.5,0.6c-0.6,0-1.2,0.1-1.8,0.1c-0.3,0-0.6,0.3-0.6,0.5c0,0.3,0.1,0.5,0.4,0.6c0.5,0.3,1.1,0.5,1.8,0.4
			c0.2,0,0.5-0.1,0.7,0c0.9,0.4,1.8,0.2,2.7,0.1c1.4-0.3,2.8-0.3,4.3-0.1c1.2,0.2,2.4,0.4,3.7,0.3c0.6,0,1.1,0,1.7,0
			c0.2,0,0.3,0,0.5,0.1c0.1,0,0.2,0.1,0.2,0.2c0,0.1,0,0.3-0.1,0.3c-0.3,0.2-0.6,0.3-0.9,0.5c-0.6,0.3-1.2,0.7-1.6,1.3
			c-0.2,0.4-0.6,0.7-0.9,1c-0.8,0.7-1.6,1.4-2.5,2c-0.7,0.6-1.4,1.1-2.1,1.7c-0.4,0.3-0.9,0.6-1.1,1.1c-0.2,0.3-0.5,0.5-0.8,0.7
			c-0.4,0.2-0.8,0.5-1.1,0.7c-0.2,0.1-0.4,0.4-0.2,0.6c0.1,0.2,0.4,0.3,0.6,0.3c0.3,0,0.5,0,0.7-0.2C6,38.2,6.2,38,6.4,37.8
			c0.3-0.4,0.7-0.6,1.2-0.6c1,0,1.9-0.4,2.8-0.7c0.4-0.1,0.7-0.2,1.1-0.3c1.1-0.2,2.3-0.4,3.4-0.7c1.2-0.3,2.5-0.5,3.6-1.1
			c0.1-0.1,0.2-0.1,0.4-0.1c0.2,0,0.3,0,0.4,0.2c0.1,0.1,0.1,0.3,0,0.3c-0.3,0.6-0.7,1.2-1,1.9c-0.7,1.4-1.1,2.9-1.8,4.3
			c-0.2,0.4-0.4,0.7-0.5,1.1c-0.1,1.1-0.7,2.1-1.2,3c-0.1,0.1-0.1,0.2-0.1,0.3c-0.1,0.5,0.3,0.9,0.8,0.8c0.2-0.1,0.5-0.2,0.6-0.4
			c0.7-0.7,1.5-1.1,2.1-1.9c0.2-0.2,0.4-0.4,0.7-0.6c0.3-0.2,0.6-0.5,0.8-0.7c0.9-0.9,1.6-2,2.7-2.6c0.2-0.1,0.3-0.3,0.4-0.4
			c0.8-0.7,1.6-1.3,2.3-2c0,0,0.1,0,0.1,0c0.2-0.1,0.5,0,0.5,0.2c0,0.2,0.1,0.5,0,0.7c0,0.5,0,1,0.2,1.5c0.4,1.1,0.6,2.4,1.1,3.5
			c0.4,0.9,0.7,1.8,0.8,2.7c0.1,0.4,0.3,1,0.8,1c0.5,0,0.8-0.4,1-0.8c0.3-1,1-1.9,1.2-3c0-0.2,0.1-0.5,0.3-0.7
			c0.5-0.8,0.8-1.7,1.2-2.5c0.3-0.8,0.7-1.6,1.1-2.3c0.2-0.3,0.5-0.3,0.7-0.1c0.1,0.1,0.2,0.2,0.2,0.3c0.7,1.1,1.6,1.8,2.7,2.5
			c0.7,0.4,1.2,1,1.7,1.5c0.3,0.4,0.6,0.9,1,1.2c0.4,0.4,0.9,0.6,1.3,0.9c0.6,0.4,1.1,0.8,1.7,1.2c0.3,0.2,0.6,0.1,0.7-0.2
			c0.2-0.4,0.3-0.8,0-1.3c-0.6-1-1.2-2-1.3-3.3c0-0.2-0.1-0.4-0.2-0.6c-0.5-0.7-0.7-1.5-0.9-2.3c-0.2-0.8-0.5-1.7-0.9-2.4
			c-0.2-0.3-0.3-0.7-0.5-1c-0.1-0.3,0.1-0.6,0.4-0.6c0.4,0,0.8,0.1,1.2,0.3c2.5,1.1,5.1,1.7,7.8,2.1c0.9,0.1,1.8,0.1,2.7,0.3
			c1.1,0.2,2.3,0.1,3.4,0.3c0.5,0.1,0.8-0.4,0.6-0.9c-0.2-0.4-0.5-0.7-0.9-0.9c-0.6-0.3-1.3-0.6-1.9-0.9c-1.8-0.9-3.3-2.1-4.7-3.5
			c-0.3-0.3-0.7-0.6-1-0.9c-0.7-0.6-1.4-1.2-2-1.8c-0.4-0.3-0.3-0.7,0.2-0.8c0.6-0.2,1.3-0.3,1.9-0.5c3-0.7,5.9-1.3,8.9-2
			c0.2,0,0.4-0.1,0.6-0.2c0.2-0.1,0.4-0.2,0.4-0.4C57.4,23.7,57.2,23.6,57,23.6L57,23.6L57,23.6z M54.5,24.2
			c-0.7,0.3-1.2,0.4-1.7,0.5c-1.1,0.1-2.2,0.4-3.2,0.7c-1.1,0.3-2.3,0.6-3.5,0.9c-0.4,0.1-0.8,0.2-1.2,0.4c-0.5,0.2-0.6,0.6-0.4,1.1
			c0.3,0.6,0.8,1.1,1.2,1.5c0.8,0.7,1.7,1.4,2.5,2.2c1.1,1.2,2.4,2,3.7,2.8c0.7,0.5,1.4,0.6,2.1,0.9c0.2,0.1,0.5,0.1,0.6,0.4
			c0,0.1,0,0.2,0,0.2c0,0-0.1,0.1-0.1,0.1c-0.2,0-0.3,0.1-0.5,0c-0.4,0-0.7-0.1-1.1-0.2c-1.2-0.2-2.5-0.2-3.7-0.4
			c-2.5-0.4-5-0.8-7.4-1.8c-0.6-0.2-1.1-0.5-1.7-0.6c-0.5-0.1-0.9,0-1.2,0.4c-0.3,0.4-0.3,0.9,0,1.4c0.4,0.4,0.5,0.9,0.7,1.4
			c0.3,0.8,0.7,1.6,0.8,2.4c0.1,0.4,0.2,0.7,0.4,1c0.5,0.8,0.7,1.6,0.9,2.5c0.1,0.5,0.5,0.9,0.7,1.3c0.1,0.2,0.1,0.3,0,0.4
			c-0.1,0-0.2,0-0.3,0c-0.9-0.6-1.7-1.3-2.4-2.1c-0.4-0.4-0.7-0.8-1.1-1.1c-0.2-0.2-0.5-0.4-0.8-0.6c-1-0.7-2-1.4-2.7-2.5
			c-0.2-0.3-0.5-0.7-0.9-0.9c-0.6-0.3-1-0.3-1.4,0.3c0,0.1-0.1,0.1-0.1,0.2c-0.4,1.1-1,2-1.3,3.2c-0.1,0.4-0.3,0.8-0.5,1.1
			c-0.5,0.9-0.8,1.8-1.1,2.7c-0.1,0.4-0.3,0.8-0.5,1.1c-0.1,0.2-0.3,0.3-0.5,0.3c-0.2,0-0.3-0.2-0.3-0.3c-0.5-1.9-1.4-3.7-1.8-5.6
			c-0.1-0.4-0.1-0.9-0.1-1.3c0-0.5-0.2-0.9-0.4-1.3c-0.2-0.4-0.6-0.5-1-0.3c-0.1,0-0.2,0.1-0.2,0.1c-1,0.9-2.1,1.5-3,2.5
			c-0.1,0.1-0.2,0.2-0.3,0.3c-1.5,0.8-2.4,2.4-3.7,3.4c-0.4,0.3-0.6,0.8-0.9,1.1c-0.2,0.3-0.5,0.5-0.8,0.7c-0.1,0.1-0.2,0.1-0.3,0
			c-0.1-0.1-0.1-0.2-0.1-0.3c0.1-0.2,0.2-0.4,0.3-0.5c0.1-0.2,0.3-0.5,0.3-0.7c0-1,0.6-1.8,1-2.8c0.2-0.5,0.4-0.9,0.6-1.4
			c0.4-1.2,0.9-2.3,1.5-3.4c0.3-0.5,0.5-1.1,0.8-1.7c0.2-0.4-0.1-0.7-0.5-0.7c-0.4,0-0.9,0.1-1.3,0.3c-1.7,0.8-3.6,1-5.5,1.4
			c-1.5,0.3-3,0.5-4.4,1.1c-0.1,0.1-0.3,0.1-0.5,0.1c-0.1,0-0.2,0-0.3-0.1c0-0.1,0-0.3,0.1-0.3c0.4-0.3,0.7-0.7,1.1-1
			c1-0.6,1.8-1.4,2.7-2.1c1-0.8,2-1.5,2.7-2.5c0.4-0.5,1.1-0.7,1.6-1.1c0.2-0.2,0.5-0.3,0.7-0.4c0.4-0.3,0.4-0.7,0-1
			c-0.5-0.4-1.1-0.6-1.7-0.5c-0.7,0-1.4,0-2.1,0c-0.8,0-1.5-0.1-2.3-0.3c-1.2-0.3-2.4-0.5-3.6-0.5c-0.7,0-1.5,0-2.2,0.3
			C4.6,26.9,4.4,27,4.1,27c-0.2,0-0.6-0.2-0.6-0.3c0-0.2,0.2-0.3,0.4-0.4c1.1-0.3,2.2-0.7,3.3-0.8c0.7-0.1,1.3-0.3,1.9-0.6
			c0.7-0.2,1.3-0.5,2-0.7c0.4-0.2,0.7-0.1,0.9,0.3c0.1,0.2,0.4,0.1,0.5,0c0.4-0.3,0.7-0.5,1.1-0.8c0.1-0.1,0.2-0.1,0.3,0
			c0.1,0.1,0.1,0.2,0,0.3c0,0.1-0.1,0.2-0.1,0.3c0,0.1,0.1,0.3,0.2,0.2c0.2-0.2,0.4-0.4,0.6-0.5c0.2-0.2,0.4-0.3,0.7-0.2
			c0.5,0.3,0.9-0.1,1.2-0.3c0.2-0.1,0.2-0.5,0-0.7c-0.1-0.1-0.1-0.1-0.2-0.1c-0.8-0.3-1.5-0.8-2.2-1.3c-1.5-1.1-3.1-2.1-4.7-3.2
			c-0.4-0.3-0.8-0.4-1.2-0.6c-0.3-0.1-0.6-0.2-0.9-0.3C7.1,17,6.8,16.7,7,16.6c0.2-0.3,0.5-0.1,0.8-0.1c1.1,0.2,2.1,0.1,3.2,0.1
			c1.6,0,3.1,0.2,4.6,0.5c0.4,0.1,0.4,0.2,0.3,0.7c-0.1,0.2-0.1,0.3,0.1,0.4c0.1,0,0.2,0,0.4,0c0.1,0,0.1-0.1,0.2-0.1
			c0.5-0.6,1.1-0.6,1.8-0.4c0.4,0.1,0.7,0.1,1.1-0.2c0.2-0.1,0.3-0.5,0.2-0.6c-0.5-0.5-0.7-1.2-1.1-1.8c-0.4-0.5-0.7-1-1-1.5
			c-0.2-0.3-0.4-0.5-0.5-0.8c-0.3-0.7-0.8-1.4-1.2-2c-0.5-0.6-0.9-1.2-1.4-1.9c-0.1-0.1-0.1-0.2,0-0.3c0.1-0.1,0.2-0.1,0.3,0
			c0.3,0.2,0.6,0.4,0.8,0.6c0.8,0.7,1.7,1.2,2.5,1.8c0.9,0.6,1.8,1.2,2.4,2.1c0.1,0.2,0.4,0.3,0.5,0.5c0.2,0.2,0.6,0.2,0.6,0.5
			c0.1,0.4-0.4,0.4-0.5,0.6c-0.1,0.1-0.1,0.3,0,0.3c0.1,0.1,0.2,0.1,0.3,0.1c0.3,0,0.5-0.3,0.7-0.5c0.2-0.2,0.4-0.2,0.7-0.1
			c0.4,0.3,0.8,0.5,1.2,0.8c0.6,0.4,1.1,0.3,1.4-0.6c0.1-0.3,0.2-0.6,0.2-1c0.2-2.3,0.4-4.7,0.6-7c0.1-1.6,0.5-3.2,0.6-4.7
			c0-0.1,0.1-0.2,0.2-0.3c0.1,0,0.2,0.1,0.3,0.1c0.1,0,0.1,0.1,0.1,0.2c0.1,0.2,0.1,0.3,0.1,0.5c0,0.8,0.4,1.5,0.6,2.2
			c0.6,1.7,1.1,3.3,1.7,5c0.1,0.4,0.3,0.8,0.4,1.2c0.3,0.7,0.2,0.9-0.6,1.1c-0.4,0.1-0.7,0.2-1.1,0.3c-0.2,0-0.3,0.1-0.4,0.2
			c-0.2,0.2-0.2,0.4-0.1,0.6c0.1,0.2,0.3,0.3,0.5,0.2c0.2-0.1,0.3-0.2,0.5-0.4c0.4-0.3,0.8-0.5,1.2-0.5c0.2,0,0.4,0.1,0.5,0.3
			c0,0.2,0,0.3-0.2,0.4c-0.1,0.1-0.2,0.1-0.3,0.1c-0.2,0.1-0.4,0.1-0.4,0.4c0,0.2,0.2,0.2,0.3,0.3c0.2,0.1,0.1,0.3,0.1,0.4
			c0,0.4,0.1,0.6,0.5,0.7c0.2,0,0.4,0.1,0.6,0c0.5-0.1,0.8-0.4,0.6-0.9c-0.3-0.7-0.1-1.2,0.2-1.7c0.5-0.9,1-1.9,1.5-2.8
			c0.9-1.5,1.9-3,2.8-4.4c0.2-0.4,0.5-0.7,0.8-1.1c0,0,0.1,0,0.2-0.1c0.1,0,0.1,0.1,0.1,0.2c0,0.2,0,0.4,0,0.6c-0.3,2.5-0.6,5-1,7.5
			c-0.1,0.5-0.2,1.1-0.1,1.6c0,0.5,0,0.9-0.1,1.3c-0.1,0.2,0,0.4,0.1,0.6c0.2,0.3,0.5,0.3,0.7,0.1c0,0,0.1-0.1,0.1-0.1
			c0.3-0.8,1.1-1.1,1.7-1.6c1.6-1.2,3.4-2.1,5.2-3.1c1-0.6,2-1,3-1.5c0.1-0.1,0.3-0.1,0.3,0.1c0,0.1,0,0.3,0,0.3
			c-0.2,0.3-0.4,0.5-0.6,0.8c-1,1-1.7,2.1-2.5,3.2c-0.7,1.1-1.4,2.2-2.1,3.3c-0.2,0.3-0.4,0.6-0.8,0.7c-0.3,0.1-0.6,0.3-0.8,0.5
			c-0.1,0.1-0.2,0.3-0.2,0.4c0,0.2,0.2,0.3,0.3,0.3c0.4,0.1,0.9,0,1.3-0.1c0.8-0.3,1.7-0.4,2.5-0.6c0.4-0.1,0.8-0.2,1.2-0.1
			c1.7,0.1,3.3-0.3,4.9-0.7c0.5-0.1,1-0.2,1.6-0.1c0.1,0,0.2,0.2,0.2,0.3c0,0.1,0,0.2-0.1,0.2c-0.1,0.1-0.2,0.2-0.3,0.2
			c-1.7,0.8-3.1,1.9-4.7,2.9c-0.5,0.3-1,0.6-1.5,0.9c-0.5,0.3-1,0.5-1.6,0.4c-0.5,0-0.9,0.3-1.2,0.7c-0.2,0.4,0,0.9,0.5,0.9
			c0.3,0,0.7,0,0.9-0.2c0.7-0.5,1.4-0.6,2.2-0.5c1.1,0.1,2.2,0.1,3.3,0.4c0.4,0.1,0.9,0.1,1.3,0.1C52.2,23.8,53.2,23.9,54.5,24.2
			L54.5,24.2L54.5,24.2L54.5,24.2z"/>
		<path class="st0" d="M36.8,21.2c-0.5-0.6-1.1-1.1-1.6-1.7c-0.2-0.2-0.5-0.3-0.9-0.4c-1-0.3-2.7,0.3-3.3,1.4
			c-0.5,0.9-0.8,2-0.6,3.1c0.2,0.8,0.3,1.7,0.4,2.5c0,0.2,0.1,0.3,0.2,0.4c0,0,0.1,0.1,0.2,0.1c0.1,0,0.2-0.1,0.2-0.1
			c0-0.2,0-0.5,0.1-0.7l0,0c-0.1-0.4-0.1-0.8-0.2-1.2c-0.2-1.2-0.1-2.2,0.3-3.4c0.5-1.2,2-1.8,3.5-0.8c0.1,0.1,0.1,0.2,0.1,0.3
			c0,0.1-0.1,0.2-0.3,0.2c-0.6,0-1.2,0.2-1.8,0.4c-0.8,0.3-1.1,0.9-1.2,1.7c0,0.1,0.1,0.2,0.2,0.3c0.1,0.1,0.3,0,0.3-0.1
			c0.1-0.3,0.2-0.6,0.4-0.9c0.1-0.2,0.4-0.2,0.5-0.1c0.1,0.1,0.1,0.2,0.2,0.3c0.5,0.5,0.7,0.5,1.1,0c0.1-0.1,0.1-0.2,0.2-0.3
			c0.2-0.2,0.4-0.3,0.6-0.2c0.2,0.1,0.4,0.2,0.7,0.3c0.3,0.1,0.5,0.1,0.7-0.1c0.2-0.2,0.2-0.4,0.1-0.7
			C36.9,21.4,36.8,21.3,36.8,21.2C36.8,21.2,36.8,21.2,36.8,21.2z"/>
		<path class="st0" d="M26.5,21.5c1.2,0.8,1.7,1.8,1.5,3.2c0,0.3-0.1,0.6-0.1,0.8c-0.1,0.9-0.1,1.8-0.3,2.7c-0.1,0.5,0.1,0.7,0.5,1
			c0.4,0.2,0.7,0.3,1.1,0.5c0.3,0.1,0.5,0.1,0.7-0.1c0.5-0.4,1-0.5,1.6-0.6c0.4,0,0.6-0.4,0.6-0.8c0-0.3,0-0.6-0.2-0.8
			c0-0.1-0.1-0.1-0.2-0.1c-0.1,0-0.2,0.1-0.2,0.1c0,0.1-0.1,0.1-0.1,0.2c0,0.2,0.1,0.4,0,0.6c-0.1,0.2-0.4,0.2-0.6,0.2
			c-0.1,0-0.3,0-0.3,0.1c-0.5,0.5-1,0.3-1.6,0.1c-0.5-0.2-0.6-0.3-0.4-0.8c0.3-1.1,0.4-2.2,0.5-3.7h0c0.1-0.6-0.2-1.4-0.7-2.1
			c-0.6-0.9-1.5-1.5-2.5-1.9c-1.2-0.4-2.3-0.3-3.2,0.6c-0.2,0.2-0.5,0.5-0.7,0.7c-0.1,0.1-0.2,0.2-0.2,0.3c-0.1,0.2-0.2,0.4,0,0.6
			c0.2,0.2,0.4,0.1,0.5-0.1c0.2-0.2,0.4-0.4,0.6-0.6C23.7,20.7,25,20.6,26.5,21.5L26.5,21.5L26.5,21.5z"/>
		<path class="st0" d="M32.7,30.5c-0.4,0-0.7,0.3-1.1,0.1c-0.6-0.3-1.1-0.2-1.6,0.1c-0.3,0.2-0.6,0.2-0.9,0.1
			c-0.4-0.2-0.7-0.1-1,0.1c-0.4,0.3-0.8,0.4-1.3,0.3c-0.2,0-0.3,0-0.5,0c-0.1,0-0.2,0.2-0.2,0.3c0,0.1,0,0.2,0.2,0.3
			c0.5,0.2,1,0.1,1.4,0l0,0c1.6,0,3.1-0.2,4.6-0.4c0.3,0,0.6-0.1,0.8-0.3c0.1-0.2,0.1-0.3,0-0.5C32.9,30.6,32.8,30.6,32.7,30.5
			C32.7,30.5,32.7,30.5,32.7,30.5z"/>
		<path class="st0" d="M25,23.5c0.3-0.6,0.7-0.7,1.2-0.2c0.1,0.1,0.1,0.1,0.2,0.2c0.1,0,0.2,0,0.3,0c0.2-0.1,0.1-0.2,0.1-0.3
			c-0.3-0.4-0.6-0.7-1-1.1c-0.2-0.2-0.5-0.2-0.9-0.2l0,0c-0.8,0-1.6,0.3-2.3,0.9c-0.1,0.1-0.3,0.3-0.3,0.5c0,0.1,0,0.2,0.1,0.3
			c0.1,0.1,0.2,0.1,0.3,0c0.2-0.1,0.3-0.3,0.5-0.4c0.5-0.4,0.6-0.4,1,0.1c0.1,0.1,0.1,0.2,0.2,0.3C24.6,23.8,24.9,23.8,25,23.5
			L25,23.5L25,23.5z"/>
		<path class="st0" d="M31,32.3c-0.1,0.1-0.2,0.2-0.4,0.3c-0.6,0.4-1.3,0.5-1.9,0c-0.1-0.1-0.2-0.1-0.3-0.2c-0.1,0-0.2,0-0.2,0.1
			c-0.1,0.1-0.1,0.2-0.1,0.2c0.2,0.6,0.6,0.9,1.4,0.9l0,0c0.1,0,0.4,0,0.6-0.1c0.5-0.1,1-0.4,1.2-0.9c0-0.1,0-0.2,0-0.3
			C31.3,32.3,31.1,32.3,31,32.3L31,32.3L31,32.3z"/>
		<path class="st0" d="M33.6,28.6c0-0.1-0.2-0.1-0.2-0.1c-0.1,0-0.2,0.1-0.3,0.1c0,0-0.1,0.2,0,0.2c0,0.1,0.1,0.2,0.2,0.3
			c0.6,0.6,1.2,1.2,1.8,1.9c0.1,0.1,0.1,0.1,0.2,0.1c0.1,0,0.2-0.1,0.3-0.2c0-0.1,0-0.2-0.1-0.3C34.8,30,34.2,29.3,33.6,28.6
			L33.6,28.6L33.6,28.6z"/>
		<path class="st0" d="M35.5,31L35.5,31L35.5,31z"/>
		<path class="st0" d="M26.3,29.3c0-0.2,0-0.3-0.2-0.4c-0.2-0.1-0.3,0-0.4,0.1c-0.5,0.6-0.9,1.2-1.3,1.9c0,0,0,0.1,0,0.1
			c0,0.1,0.1,0.2,0.3,0.2l0,0c0.1,0,0.2,0,0.3-0.1c0.4-0.5,0.9-1,1.3-1.5C26.2,29.5,26.3,29.4,26.3,29.3L26.3,29.3L26.3,29.3z"/>
		<path class="st0" d="M34.4,14c0.5,0,0.9-0.2,1.2-0.5c0.1-0.1,0-0.2-0.1-0.3c-0.1-0.1-0.3-0.1-0.4-0.1l0,0c-0.4,0-0.8,0-1,0.3
			c-0.1,0.1-0.1,0.2-0.1,0.3C34.2,13.9,34.4,14,34.4,14L34.4,14L34.4,14z"/>
		<path class="st0" d="M22.1,15.9L22.1,15.9c0.1,0,0.3-0.1,0.4-0.1c0.2-0.1,0.3-0.3,0.2-0.5c-0.1-0.2-0.3-0.2-0.5-0.1
			c-0.1,0-0.2,0.1-0.2,0.1c-0.1,0.1-0.2,0.3-0.1,0.4C21.9,15.8,22.1,15.8,22.1,15.9L22.1,15.9L22.1,15.9z"/>
		<path class="st0" d="M17.4,18.2c-0.3-0.1-0.5,0.1-0.5,0.4c0,0.1,0,0.2,0.1,0.2c0.1,0.1,0.2,0.1,0.3,0c0.1-0.1,0.2-0.2,0.2-0.4l0,0
			C17.6,18.3,17.5,18.2,17.4,18.2L17.4,18.2L17.4,18.2z"/>
		<path class="st0" d="M28.9,11.3c0.2,0,0.3,0,0.4-0.2l0,0c0-0.1-0.1-0.2-0.2-0.3c-0.2-0.1-0.4,0-0.4,0.3
			C28.7,11.2,28.8,11.3,28.9,11.3L28.9,11.3L28.9,11.3z"/>
		<path class="st0" d="M41.3,17.1L41.3,17.1c0.2,0,0.3-0.2,0.2-0.3c0-0.1-0.1-0.2-0.2-0.2c-0.2,0-0.4,0.2-0.3,0.4
			C41.1,17.1,41.2,17.1,41.3,17.1L41.3,17.1z"/>
		<path class="st0" d="M35.5,14.6c0-0.1,0-0.2-0.1-0.2c-0.1,0-0.1,0-0.2,0.1c0,0.1,0,0.2,0.1,0.2l0,0C35.3,14.7,35.4,14.6,35.5,14.6
			L35.5,14.6L35.5,14.6z"/>
	</g>
</g>
</svg>
