<?xml version="1.0" encoding="utf-8"?>
<!-- Generator: Adobe Illustrator 27.5.0, SVG Export Plug-In . SVG Version: 6.00 Build 0)  -->
<svg version="1.1" id="Layer_1" xmlns:xodm="http://www.corel.com/coreldraw/odm/2003"
	 xmlns="http://www.w3.org/2000/svg" xmlns:xlink="http://www.w3.org/1999/xlink" x="0px" y="0px" viewBox="0 0 157.9 28.8"
	 style="enable-background:new 0 0 157.9 28.8;" xml:space="preserve">
<style type="text/css">
	.st0{fill:#ED3F23;}
</style>
<g id="Layer_x0020_1">
	<g id="_105553332101504">
		<g>
			<path class="st0" d="M71,16.3c-0.6-0.1-1.2-0.2-1.8-0.4c-0.5-0.2-0.9-0.6-1-1.1c-0.4-1.3-0.8-1.3-2-0.8c-0.6,0.3-1.2,0.5-1.9,0.8
				c-0.4,0.2-0.8,0.1-1.1-0.2c-0.2-0.2-0.3-0.5-0.6-0.5c-0.3,0-0.5,0.3-0.6,0.5c-0.8,0.8-1.8,1-2.8,1.4c-0.5,0.2-0.9-0.1-1.1-0.5
				c-0.1-0.2-0.2-0.4-0.3-0.6c-0.2-0.2-0.4-0.3-0.6-0.1c-0.1,0.1-0.3,0.2-0.4,0.4c-0.7,0.7-1.5,1-2.4,1.2c-0.5,0.1-1.1,0.2-1.6,0.3
				c-0.5,0.1-0.8-0.2-0.8-0.7c0-0.4,0-0.7,0.2-1.1c0.4-0.8,0.9-1.5,1.5-2c0.1-0.1,0.1-0.3,0-0.4c-0.1-0.1-0.2-0.1-0.4-0.1
				c-0.3,0.2-0.5,0.4-0.8,0.6c-0.8,0.8-1.6,1.5-2.4,2.3c-0.7,0.7-1.5,1.2-2.4,1.6c-0.9,0.4-1.4,0.2-2-0.6c-0.3-0.4-0.3-0.9-0.2-1.4
				c0.1-0.6,0.5-1,0.8-1.5c0.1-0.3,0-0.6-0.2-0.7c-0.7-0.3-1.2-0.2-1.7,0.3c-0.3,0.3-0.7,0.7-0.9,1.1c-0.8,1.3-2.1,2.2-3.2,3.2
				c-1.6,1.4-2.8,3-3.6,5.1c-0.7,1.9-1.6,3.7-2.9,5.3c-0.3,0.4-0.7,0.8-1.2,0.9c-0.5,0.2-1.1,0.2-1.5-0.3c-0.4-0.5-0.5-1-0.2-1.6
				c0.7-1.5,1.5-3,2.9-3.8c0.2-0.1,0.4-0.3,0.5-0.5c0.7-0.8,1.3-1.6,2-2.3c0.4-0.4,0.5-1,0.8-1.5c0.6-1.2,0.5-1.2-0.6-1.3
				c-0.7-0.1-0.9-0.4-0.9-1.1c0-0.3,0-0.7,0-1c0-0.2-0.3-0.3-0.4-0.2c-0.5,0.4-0.9,0.8-1.4,1.1c-0.7,0.5-1.1,0.4-1.6-0.3
				c-0.1-0.2-0.2-0.4-0.4-0.6c-0.1-0.2-0.3-0.2-0.5-0.1c-0.2,0.1-0.3,0.2-0.4,0.3c-0.7,0.7-1.6,0.9-2.4,1.2
				c-0.8,0.3-1.3-0.1-1.5-1.1c-0.1-0.2-0.1-0.5-0.4-0.5c-0.2,0-0.4,0.2-0.6,0.3c-0.2,0.3-0.5,0.6-0.8,0.8c-0.6,0.5-1.2,1-2,1.1
				c-0.6,0.1-1.1-0.2-1.2-0.8c-0.1-0.5-0.1-1.1,0.2-1.5c0.1-0.1,0.1-0.1,0.2-0.2c0.1-0.4,0.6-0.7,0.2-1.1c-0.4-0.3-0.8,0.1-1.1,0.3
				c-0.9,0.7-1.8,1.4-2.7,2.1c-0.3,0.2-0.6,0.4-0.9,0.5c-0.3,0.1-0.5,0.1-0.8-0.1c-0.2-0.1-0.4-0.5-0.3-0.7c0-0.1,0.1-0.3,0.2-0.4
				c0.7-0.9,0.9-2.1,1.7-2.9c0.1-0.1,0.1-0.2,0.1-0.3c0.1-0.3-0.1-0.6-0.4-0.6c-0.3,0-0.5,0.1-0.8,0.2c-1,0.5-2,0.8-3.1,1.1
				c-0.8,0.2-1.3,0.6-1.5,1.4c-0.2,0.6-0.5,1.2-0.7,1.8c-0.3,0.7-0.5,1.4-0.6,2.2c0,0.8-0.6,1.1-1.3,0.9c-0.5-0.1-0.9-0.5-1.1-1
				C9,17.9,9,17.5,9.2,17.2c0.3-0.4,0.6-0.7,0.9-1c0.2-0.2,0.5-0.4,0.5-0.6c0.2-0.5,0.6-1,0.4-1.5c-0.3-0.5-0.9,0-1.4,0
				c-0.4,0.1-0.9,0.3-1.3,0.4c-0.3,0.1-0.5,0-0.7-0.3c-0.1-0.3-0.1-0.7,0.3-0.9c0.9-0.5,1.8-1.1,2.9-1.2c0.5-0.1,1.1-0.2,1.6-0.2
				c0.6,0,1-0.4,1.2-1c0.2-0.6,0.5-1.2,0.7-1.8c0.6-1.8,1.7-3.2,2.3-5c0.2-0.6,0.5-1.1,0.9-1.6c0.3-0.4,0.2-0.6-0.3-0.9
				c-0.7-0.3-1.3-0.3-1.8,0.3c-0.9,1-2,1.8-2.8,2.9c-0.3,0.4-0.8,0.8-1.2,1.2C10.4,7,9.4,8,8.3,9C8,9.3,7.8,9.6,7.6,9.9
				c-0.7,1.4-1.7,2.5-2.6,3.8c-0.3,0.5-0.7,1-1,1.5c-0.3,0.7-0.8,1.1-1.4,1.5c-0.5,0.4-0.9,0.6-1.3,1.2c-0.4,0.5-0.8,0.7-1.2,0.5
				c-0.3-0.2-0.3-0.6,0-1.3c0.3-0.5,0.6-1,1.1-1.2c1-0.4,1.7-1.2,2.4-2c0.3-0.3,0.5-0.7,0.7-1c0.9-1.2,1.7-2.4,2.6-3.7
				c0.1-0.2,0.2-0.5,0.4-0.6C8.4,8.1,9,7.1,9.8,6.4c1.1-0.9,2-2,2.9-3c0.8-0.9,1.6-1.8,2.5-2.6c0.3-0.3,0.6-0.4,0.9-0.6
				c0.3-0.2,0.7-0.2,1,0c0.4,0.3,0.8,0.4,1.2,0.5c0.6,0.2,0.9,0.8,0.5,1.3c-1,1.5-1.8,3.2-2.6,4.8c-0.4,0.7-0.8,1.4-1.1,2.1
				c-0.2,0.6-0.5,1.1-0.8,1.7c-0.1,0.2-0.2,0.5,0,0.7c0.2,0.2,0.4,0.2,0.6,0.1c0.7-0.2,1.3-0.4,2-0.5c0.7-0.2,1.5-0.3,2.2-0.5
				c0.6-0.1,0.9,0.2,0.9,0.9c0,0.4-0.1,0.8-0.3,1.1c-0.2,0.4-0.5,0.7-0.7,1.1c-0.1,0.2-0.3,0.4,0,0.6c0.2,0.2,0.4,0,0.6-0.1
				c0.2-0.1,0.4-0.3,0.5-0.4c0.8-0.9,1.9-1.3,2.9-1.8c0.5-0.3,1.1,0.1,1.1,0.8c0,0.5,0,1.1-0.4,1.5c-0.3,0.3-0.4,0.8-0.5,1.2
				c0,0.1,0.1,0.3,0.1,0.4c0.1,0.1,0.3,0.1,0.4,0c0.9-0.6,1.7-1.2,2.3-2.1c0.4-0.7,1-1.2,1.6-1.8c0.2-0.2,0.4-0.2,0.6-0.1
				c0.2,0.2,0.3,0.4,0.3,0.6c0,0.4-0.1,0.6-0.3,0.9c-0.2,0.5-0.5,1-0.5,1.6c0,0.4,0.3,0.6,0.6,0.5c1.5-0.4,2.8-1.2,3.7-2.7
				c0.2-0.4,0.5-0.8,0.8-1.1c0.2-0.2,0.5-0.3,0.7-0.2c0.3,0.2,0.5,0.6,0.3,0.9c-0.3,0.6-0.6,1.2-0.8,1.8c-0.1,0.2-0.1,0.4-0.1,0.5
				c0,0.2,0.3,0.4,0.5,0.4c0.1-0.1,0.2-0.1,0.4-0.2c1-0.8,2-1.7,3.1-2.5c0.6-0.5,1.1-0.9,1.7-1.4c0.4-0.3,0.7-0.4,1.1,0
				c0.2,0.3,0.5,0.1,0.8,0.1c0.4,0,0.7,0.3,0.6,0.7c-0.5,1.4-0.7,2.9-1.7,4c-0.2,0.2-0.4,0.5-0.6,0.8c-0.1,0.2-0.2,0.5,0,0.6
				c0.1,0.1,0.3,0.1,0.5,0c0,0,0.1-0.1,0.1-0.1c0.9-1,2.1-1.8,2.9-3c0.2-0.3,0.5-0.6,0.8-0.9c0.5-0.5,0.8-1,0.7-1.8
				c-0.1-0.7,0.2-1.4,0.7-2C45,8.8,45.4,8.4,45.7,8c0.2-0.2,0.4-0.3,0.5-0.4c0.2-0.1,0.4-0.1,0.6,0.1c0.2,0.2,0.3,0.4,0.1,0.6
				c-0.4,0.6-0.5,1.4-1,2c-0.1,0.1-0.2,0.3-0.3,0.5c-0.1,0.2,0,0.4,0.2,0.5c0.4,0.3,0.8,0.4,1.3,0.4c0.3,0,0.5,0.1,0.8,0.1
				c0.4,0.1,0.5,0.6,0.2,0.9c-0.4,0.4-0.7,0.8-1,1.4c-0.1,0.2-0.2,0.4-0.3,0.6c-0.1,0.2-0.1,0.5,0.1,0.7c0.2,0.2,0.4,0.1,0.6,0
				c0.6-0.4,1.1-0.8,1.6-1.2c1-0.8,2.1-1.6,3.1-2.5c0.4-0.3,0.9-0.6,1.4-0.5c0.7,0.1,1.3-0.1,1.9-0.6c0.5-0.4,1-0.4,1.5,0
				c0.4,0.3,0.4,0.7,0,1c-0.8,0.6-1.6,1.2-2.5,1.7c-0.6,0.3-1,0.8-1.3,1.4c-0.1,0.1-0.1,0.3,0,0.4c0.1,0.1,0.2,0.2,0.3,0.2
				c0.9-0.2,1.8-0.4,2.5-1c0.2-0.2,0.5-0.5,0.7-0.7c0.5-0.4,0.9-0.8,0.9-1.5c0-0.3,0.2-0.5,0.5-0.5c0.3,0,0.6,0.2,0.6,0.6
				c0.1,0.5-0.1,1-0.2,1.6c-0.1,0.4-0.2,0.8,0.2,1c0.3,0.2,0.6,0,0.9-0.1c0.8-0.4,1.6-0.9,2.3-1.4c0.7-0.5,1-1.1,1.1-2
				c0.1-2.1,0.8-3.9,1.9-5.6c0.7-1,1.6-1.5,2.7-1.7C68.6,3.8,69.1,4,69.2,5c0,0.1,0,0.3,0,0.4C69,6.2,68.8,7,68.6,7.8
				c-0.5,1.8-1.7,2.9-3.1,3.8c-0.5,0.3-1,0.5-1.3,1c-0.1,0.2-0.2,0.5,0,0.7c0.2,0.2,0.4,0.2,0.6,0.1c0.6-0.3,1.1-0.6,1.7-0.8
				c0.3-0.1,0.6-0.2,0.9-0.3c0.6-0.1,1.1,0.1,1.4,0.7c0.2,0.4,0.4,0.8,0.6,1.2c0.2,0.4,0.5,0.6,1,0.7c0.7,0.2,1.4,0,2.2-0.1
				c0.7-0.1,1.3-0.3,2-0.4c0.3,0,0.5-0.2,0.7-0.3c0.5-0.4,1.1-0.3,1.7-0.2c0.1,0,0.2,0.1,0.3,0.2c0.3,0.3,0.1,1-0.3,1
				c-1.7,0.3-3.4,0.9-5.2,1.1C71.5,16.2,71.3,16.3,71,16.3L71,16.3L71,16.3L71,16.3z M64.9,10.9c0.1-0.1,0.3-0.1,0.4-0.2
				c0.5-0.5,1-1,1.5-1.5C67,9,67.3,8.7,67.4,8.3c0.2-0.9,0.5-1.7,0.7-2.6c0-0.1-0.1-0.3-0.2-0.4c-0.1-0.1-0.3-0.1-0.4-0.1
				c-0.1,0-0.2,0.1-0.2,0.1c-1.6,1.3-2.3,3.1-2.7,5.1c0,0.1,0,0.2,0.1,0.3C64.6,10.8,64.7,10.8,64.9,10.9L64.9,10.9L64.9,10.9
				L64.9,10.9z M39.9,12.1c0-0.4-0.4-0.6-0.6-0.4c-0.9,0.6-1.5,1.4-2,2.3c-0.3,0.4-0.4,1-0.6,1.4c-0.1,0.2-0.1,0.4,0.1,0.5
				c0.2,0.1,0.3,0.1,0.5,0.1c0.4-0.2,0.7-0.5,0.9-0.8c0.6-0.9,1.1-1.8,1.6-2.8C39.9,12.3,39.9,12.1,39.9,12.1L39.9,12.1L39.9,12.1
				L39.9,12.1z M34.8,24.1c0-0.2-0.1-0.3-0.2-0.3c-0.2,0-0.4,0.1-0.5,0.2c-0.8,0.8-1.5,1.8-2,2.8c0,0,0,0.1,0,0.1
				c0,0.1,0.1,0.3,0.1,0.4c0.1,0.1,0.3,0.1,0.4,0c0.2-0.1,0.3-0.2,0.4-0.3c0.8-0.8,1.3-1.8,1.8-2.8C34.8,24.2,34.8,24.2,34.8,24.1
				L34.8,24.1L34.8,24.1z"/>
		</g>
		<path class="st0" d="M85.4,18c1.3,0.1,2.4-0.5,3.5-1.2c0.4-0.3,0.7-0.7,1.1-1c0.2-0.2,0.1-0.6-0.2-0.7c-0.3-0.1-0.5-0.1-0.8-0.2
			c-0.3-0.1-0.6-0.3-0.6-0.7c0-0.4,0.1-0.7,0.4-0.9c0.6-0.4,1.3-0.7,2-0.3c0.7,0.4,1.3,0.3,2,0c1.3-0.6,2.7-0.8,4-1.1
			c0.5-0.1,1.1-0.2,1.6-0.3c0.4-0.1,0.7,0.1,0.8,0.5c0.1,0.4-0.1,0.8-0.5,0.9c-0.6,0.1-1.2,0.2-1.9,0.3c-1.5,0.2-3,0.7-4.4,1.2
			c-0.6,0.2-1,0.5-1.2,1.2c-0.3,0.9-1,1.5-1.7,2c-1,0.8-2.2,1.3-3.4,1.6c-0.8,0.2-1.6,0-2.4-0.3c-0.7-0.2-1-0.9-1.1-1.6
			c-0.3-1.7,0.3-3.1,1.5-4.2c0.3-0.3,0.7-0.5,1.1-0.8c0.4-0.3,0.4-0.5,0.2-0.9c0,0,0-0.1-0.1-0.1c-0.7-0.8-0.5-1.6-0.1-2.4
			c0.3-0.6,0.7-1.1,1.2-1.5C87,7,87.6,6.7,88.2,6.3c0.9-0.6,1.8-0.4,2.7-0.1c0.5,0.2,0.9,0.5,1,1.1c0.1,0.7,0,1.5-0.6,1.9
			c-0.2,0.1-0.4,0.2-0.6,0.1c-0.2-0.2-0.2-0.4-0.1-0.6c0,0,0-0.1,0-0.1C90.8,8.3,91,8,90.7,7.6c-0.3-0.3-0.7-0.5-1.1-0.4
			c-1.3,0.4-2.4,1-3.3,2.1C86.1,9.6,86,9.9,86,10.2c0,0.5,0.1,0.8,0.5,0.9c0.4,0.1,0.8,0.2,1.2,0.2c0.3,0,0.5,0.1,0.6,0.5
			c0.1,0.3-0.2,0.6-0.6,0.7c-0.8,0.2-1.4,0.6-2.1,1c-1.1,0.6-1.6,1.6-1.8,2.8c-0.2,1.1,0.2,1.5,1.2,1.6C85.2,17.9,85.3,17.9,85.4,18
			L85.4,18L85.4,18L85.4,18z"/>
		<path class="st0" d="M139.6,11.9c-0.8,0.1-1.6,0.1-2.4,0.2c-0.9,0.1-1.7,0.2-2.6,0.1c-0.7-0.1-1.2,0.2-1.5,0.9
			c-0.4,0.9-1,1.7-1.1,2.7c0,0.2,0,0.4,0.2,0.5c0.2,0.1,0.4,0,0.5,0c0.3-0.2,0.6-0.4,0.8-0.8c0.2-0.5,0.6-0.7,1.1-0.9
			c1.2-0.3,2.4-0.6,3.6-1.1c0.2-0.1,0.4-0.1,0.6-0.2c0.3,0,0.5,0.1,0.7,0.4c0.2,0.3,0.1,0.6-0.1,0.8c-0.2,0.2-0.4,0.4-0.5,0.6
			c-0.2,0.3-0.3,0.7-0.1,0.9c0.2,0.2,0.5,0.3,0.7,0.2c0.8-0.2,1.6-0.4,2.2-0.9c0.7-0.5,1.4-1.2,2.1-1.7c0.6-0.5,1.1-1.1,1.4-1.9
			c0.6-1.6,1.6-2.9,2.6-4.2c0.5-0.7,1.2-1.2,1.8-1.8c0.2-0.2,0.5-0.2,0.8-0.1c0.3,0.2,0.3,0.5,0.3,0.7c0,0.1,0,0.2,0,0.3
			c-0.5,1.5-0.9,3.1-2.3,4c-0.3,0.2-0.5,0.3-0.8,0.5c-0.7,0.5-1.2,1.1-1.5,1.9c-0.1,0.2-0.1,0.4,0,0.6c0.1,0.2,0.3,0.1,0.5,0.1
			c0.2-0.1,0.3-0.2,0.5-0.2c0.3-0.1,0.6-0.1,0.9,0.1c0.5,0.2,0.8,0.7,0.7,1.3c-0.1,0.4-0.3,0.8-0.5,1.2c-0.2,0.5,0.1,1,0.6,0.9
			c0.8-0.1,1.7-0.2,2.5-0.6c0.6-0.4,1.3-0.5,2-0.7c0.8-0.2,1.6,0,2.3,0.5c0.4,0.3,0.8,0.5,1.2,0.2c0.2-0.1,0.4,0,0.6,0.3
			c0.3,0.4,0.3,0.8,0.1,1.1c-0.2,0.2-0.4,0.3-0.6,0.2c-0.4-0.1-0.8-0.3-1.1-0.5c-1-0.8-2.1-0.9-3.2-0.4c-0.3,0.1-0.6,0.2-0.9,0.4
			c-1,0.6-2.1,0.6-3.3,0.8c-0.2,0-0.5,0-0.7-0.1c-0.7-0.2-1-0.7-0.8-1.5c0.1-0.4,0.2-0.8,0.4-1.2c0.1-0.2-0.2-0.5-0.4-0.4
			c-0.6,0.1-1,0.4-1.3,0.9c-0.3,0.4-0.7,0.7-1.2,0.9c-0.5,0.3-0.8,0.2-1-0.5c-0.1-0.1-0.1-0.3-0.1-0.4c-0.1-0.1-0.2-0.2-0.3-0.1
			c-0.2,0.1-0.5,0.3-0.7,0.5c-0.5,0.6-1.3,0.9-2,1.2c-0.7,0.3-1.4,0.2-2.1-0.1c-0.5-0.2-0.8-0.6-0.8-1.2c0-0.2,0.1-0.5,0.1-0.7
			c0-0.3-0.2-0.5-0.5-0.4c-1,0.2-2,0.4-2.7,1.3c-0.5,0.7-1.2,1-1.9,1.3c-0.1,0-0.2,0.1-0.3,0.1c-1,0.3-1.5-0.1-1.5-1.1
			c0-0.5,0-1,0-1.4c0-0.2-0.2-0.3-0.4-0.3c-0.2,0-0.3,0.1-0.5,0.2c-0.6,0.5-1.2,1-1.8,1.5c-0.6,0.5-1.2,1-1.8,1.5
			c-0.6,0.5-1.8,0.4-2.4-0.1c-0.3-0.2-0.4-0.5-0.5-0.8c-0.2-0.4-0.4-0.5-0.7-0.3c-0.6,0.5-1.4,0.8-2.1,1.2c-0.2,0.1-0.5,0.2-0.7,0.3
			c-1,0.3-1.5,0.1-1.9-1c-0.2-0.6-0.3-0.6-0.8-0.4c-1.1,0.6-2.2,1.1-3.5,1.4c-0.4,0.1-0.7,0.1-1.1,0.2c-0.8,0.2-1.5-0.1-2.1-0.7
			c-0.6-0.5-1-1.3-0.9-2.2c0-0.1,0-0.2,0-0.3c0-0.4-0.2-0.6-0.6-0.6c-0.3,0.1-0.5,0.2-0.8,0.2c-0.4,0.1-0.8-0.1-0.9-0.4
			c-0.2-0.3-0.1-0.7,0.3-1c0.7-0.6,1.6-0.9,2.5-0.6c0.6,0.2,1.2,0.3,1.7-0.1c1.1-0.8,2.2-1.4,3.1-2.4c0.5-0.6,0.9-1.4,1.3-2.1
			c0.1-0.2-0.1-0.6-0.3-0.7c-0.3-0.1-0.5-0.1-0.8,0c-1.1,0.2-2.3,0.4-3.4,1c-0.9,0.4-1.8,0.8-2.7,1.3c-0.9,0.5-1.6,1.1-2.2,2
			c-0.5,0.8-1.2,1.5-1.7,2.3c-0.9,1.2-1.7,2.5-2.5,3.8c-0.5,0.8-1.3,1.5-2,2.1c-0.2,0.2-0.4,0.1-0.6,0c-0.3-0.2-0.6-0.4-1-0.5
			c-0.8-0.4-0.9-1.4-0.4-1.9c0.4-0.5,0.8-0.9,1.2-1.3c1.2-1.1,2.4-2.3,3.6-3.4c0.2-0.2,0.5-0.4,0.8-0.5c1.4-1,2.5-2.3,3.4-3.9
			c0.1-0.2,0.2-0.4,0.3-0.6c0.1-0.6,0.4-1.1,0.8-1.6c0.1-0.1,0.2-0.2,0.2-0.3c0.1-0.2,0.1-0.4,0-0.5c-0.1-0.2-0.3-0.3-0.5-0.2
			c-0.3,0.1-0.5,0.2-0.8,0.2c-0.3,0.1-0.5,0.1-0.8,0c-0.4-0.2-0.6-0.5-0.5-1c0.1-0.4,0.4-0.6,0.7-0.4c0.4,0.2,0.7,0.2,1.2,0
			c1.2-0.3,2.2,0.8,1.8,2c-0.2,0.5-0.5,1-0.8,1.5c-0.2,0.4-0.6,0.7-0.2,1.1c0.3,0.3,0.7-0.1,1-0.3c1.1-0.8,2.4-1.1,3.6-1.4
			c1.1-0.4,2.3-0.2,3.5-0.1c0.4,0.1,0.5,0.3,0.4,0.7c-0.4,1.9-1.3,3.4-2.7,4.6c-0.9,0.8-1.8,1.6-3,2c-0.1,0-0.2,0.1-0.3,0.2
			c-0.3,0.4-0.2,2,0.1,2.4c0.2,0.3,0.6,0.5,0.9,0.5c0.3,0,0.6,0,0.9-0.1c1-0.3,1.9-0.6,2.8-0.9c0.9-0.3,1.6-0.8,2.2-1.6
			c0.5-0.7,1.2-1.2,1.9-1.7c1.1-0.8,2.3-0.8,3.5-0.1c0.4,0.2,0.8,0.4,1.2,0.5c0.4,0,0.6,0.4,0.5,0.8c-0.2,0.7-0.5,1.3-0.8,2
			c-0.2,0.6,0.2,1.1,0.8,1c0.5-0.1,0.9-0.3,1.3-0.7c0.9-0.8,1.8-1.6,2.8-2.2c0.5-0.3,1-0.7,1.5-0.8c0.1,0,0.3-0.1,0.4-0.2
			c0.2-0.2,0.4-0.4,0.4-0.7c0-0.2-0.3-0.4-0.6-0.4c-0.5,0-1.1,0.1-1.6,0.1c-0.3,0-0.6,0-0.9-0.1c-0.2-0.1-0.3-0.2-0.2-0.5
			c0-0.1,0.1-0.3,0.2-0.3c0.5-0.1,1.1-0.1,1.6-0.1c0.6,0,1.3,0,1.9,0c0.5,0,0.9-0.2,1.1-0.7c0.2-0.6,0.6-1,1.1-1.4
			c0.6-0.5,1-1.2,1.3-1.9c0.3-0.7,0.9-1,1.5-1.4c0.3-0.2,0.8,0,1,0.2c0.2,0.3,0.3,0.7,0,0.9c-1,1-1.6,2.3-2.8,3.2
			c-0.1,0.1-0.3,0.2-0.4,0.4c-0.1,0.1,0,0.4,0.2,0.5c0.4,0.1,0.7,0,1.1,0c0.7-0.1,1.3-0.3,2-0.1c0.3,0.1,0.6-0.1,0.8-0.4
			c0.7-1.1,1.8-1,2.9-1.1c0.3,0,0.7,0.6,0.6,1c-0.3,0.8-0.6,1.5-1.4,1.4c-0.2,0-0.5,0.1-0.7,0.1C140,12.1,139.8,12,139.6,11.9
			C139.6,12,139.6,11.9,139.6,11.9L139.6,11.9L139.6,11.9L139.6,11.9z M123.6,14.9c0.1-0.6-0.3-1-0.8-1.1c-1.8-0.1-3,1-3.5,2.9
			c-0.1,0.3,0.2,0.6,0.5,0.5c1.1-0.5,2.3-0.9,3.3-1.6c0.1-0.1,0.2-0.2,0.3-0.3C123.5,15.1,123.6,14.9,123.6,14.9L123.6,14.9
			L123.6,14.9L123.6,14.9z M100,18.9c0,0,0.2,0,0.4-0.1c0.2-0.1,0.4-0.3,0.5-0.5c0.6-0.8,1.2-1.7,1.8-2.4c0,0,0.1-0.1,0.1-0.1
			c0-0.1,0.1-0.3,0-0.4c-0.1-0.2-0.2-0.2-0.3-0.1c-0.2,0.1-0.5,0.2-0.7,0.4c-0.7,0.7-1.4,1.4-2.1,2.1c-0.1,0.1-0.2,0.2-0.2,0.3
			C99.3,18.5,99.5,18.9,100,18.9L100,18.9L100,18.9z M148.3,9.8c0.4,0,0.6-0.4,0.8-0.6c0.4-0.5,0.5-1.2,0.2-1.2
			c-0.4-0.1-0.6,0.3-0.8,0.6c-0.2,0.3-0.5,0.6-0.5,1C148.1,9.7,148.1,9.8,148.3,9.8L148.3,9.8L148.3,9.8L148.3,9.8z"/>
	</g>
</g>
</svg>
