<?xml version="1.0" encoding="utf-8"?>
<!-- Generator: Adobe Illustrator 27.5.0, SVG Export Plug-In . SVG Version: 6.00 Build 0)  -->
<svg version="1.1" id="Layer_1" xmlns:xodm="http://www.corel.com/coreldraw/odm/2003"
	 xmlns="http://www.w3.org/2000/svg" xmlns:xlink="http://www.w3.org/1999/xlink" x="0px" y="0px" viewBox="0 0 112.1 77.9"
	 style="enable-background:new 0 0 112.1 77.9;" xml:space="preserve">
<style type="text/css">
	.st0{fill:#ED3F23;}
</style>
<g id="Layer_x0020_1">
	<g id="_105553326181056">
		<g>
			<path class="st0" d="M103,23.7c-0.9-0.2-1.8-0.3-2.7-0.6c-0.7-0.2-1.2-0.9-1.4-1.6c-0.5-1.8-1.2-1.9-2.9-1.1
				c-0.9,0.4-1.8,0.8-2.7,1.2c-0.6,0.3-1.1,0.2-1.6-0.3c-0.3-0.3-0.5-0.7-0.9-0.7c-0.4,0.1-0.7,0.4-0.9,0.7c-1.1,1.2-2.6,1.4-4,2
				c-0.7,0.3-1.3-0.1-1.7-0.8c-0.2-0.3-0.3-0.6-0.5-0.9c-0.2-0.3-0.5-0.4-0.9-0.2c-0.2,0.2-0.4,0.3-0.6,0.5c-1,1-2.2,1.4-3.5,1.7
				c-0.8,0.2-1.5,0.3-2.3,0.4c-0.7,0.1-1.1-0.3-1.2-1c-0.1-0.6,0-1.1,0.3-1.6c0.5-1.1,1.2-2.1,2.2-2.9c0.2-0.1,0.2-0.4,0-0.5
				c-0.1-0.2-0.4-0.2-0.5-0.1c-0.4,0.3-0.8,0.5-1.1,0.8c-1.1,1.1-2.4,2.2-3.5,3.3c-1,1-2.2,1.8-3.4,2.4c-1.3,0.6-2,0.3-2.9-0.9
				c-0.4-0.6-0.5-1.2-0.3-2c0.2-0.8,0.8-1.4,1.1-2.2c0.2-0.4,0-0.8-0.4-1c-1-0.5-1.8-0.2-2.5,0.4c-0.5,0.5-1,1-1.3,1.5
				c-1.2,2-3,3.2-4.7,4.7c-2.3,2-4.1,4.4-5.2,7.4c-1,2.8-2.3,5.4-4.2,7.7c-0.5,0.6-1,1.1-1.7,1.3c-0.8,0.3-1.6,0.3-2.2-0.5
				c-0.6-0.7-0.7-1.5-0.3-2.3c1-2.2,2.1-4.3,4.3-5.5c0.3-0.2,0.5-0.4,0.7-0.7c1-1.1,1.9-2.3,2.9-3.4c0.5-0.6,0.8-1.4,1.1-2.2
				c0.8-1.7,0.8-1.7-0.9-1.9c-1-0.1-1.4-0.6-1.3-1.6c0-0.5,0.1-1,0.1-1.5c0-0.3-0.4-0.4-0.6-0.3c-0.7,0.5-1.3,1.1-2,1.6
				c-1,0.7-1.6,0.6-2.3-0.4c-0.2-0.3-0.3-0.6-0.5-0.9c-0.2-0.2-0.4-0.3-0.7-0.2c-0.2,0.1-0.4,0.3-0.6,0.5c-1,1-2.3,1.3-3.5,1.7
				c-1.2,0.4-1.9-0.2-2.2-1.6c-0.1-0.4-0.1-0.7-0.5-0.8c-0.4-0.1-0.6,0.2-0.8,0.5c-0.4,0.4-0.7,0.8-1.1,1.2
				c-0.9,0.7-1.8,1.4-2.9,1.7c-0.9,0.2-1.6-0.3-1.7-1.2c-0.1-0.8-0.2-1.5,0.3-2.2c0.1-0.1,0.2-0.2,0.2-0.3c0.2-0.5,0.9-1.1,0.3-1.6
				c-0.5-0.4-1.1,0.1-1.6,0.5c-1.3,1.1-2.6,2.1-4,3c-0.4,0.3-0.9,0.6-1.4,0.8C25.4,24,25,24,24.7,23.8c-0.4-0.2-0.6-0.7-0.5-1
				c0.1-0.2,0.1-0.4,0.3-0.6c1-1.3,1.3-3,2.5-4.2c0.1-0.1,0.1-0.3,0.2-0.4c0.2-0.4-0.2-0.9-0.6-0.8c-0.4,0.1-0.8,0.2-1.1,0.3
				c-1.4,0.7-2.9,1.1-4.4,1.6c-1.1,0.3-1.9,0.8-2.2,2c-0.3,0.9-0.7,1.8-1.1,2.7c-0.4,1-0.8,2-0.9,3.2c-0.1,1.2-0.8,1.6-1.9,1.3
				c-0.7-0.2-1.3-0.7-1.6-1.4c-0.2-0.5-0.2-1.1,0.2-1.6c0.4-0.5,0.9-1,1.4-1.5c0.3-0.3,0.7-0.5,0.8-0.9c0.2-0.7,0.9-1.5,0.5-2.1
				c-0.5-0.8-1.3-0.1-2,0c-0.6,0.1-1.2,0.4-1.9,0.6c-0.4,0.1-0.8,0-1-0.4c-0.2-0.4-0.1-1,0.4-1.3c1.3-0.7,2.6-1.6,4.1-1.8
				c0.8-0.1,1.5-0.3,2.3-0.3c0.9,0,1.4-0.6,1.7-1.5c0.3-0.9,0.8-1.8,1.1-2.7c0.9-2.6,2.5-4.7,3.4-7.2c0.3-0.8,0.7-1.6,1.3-2.3
				C25.9,3,25.7,2.6,25,2.3c-1-0.5-1.9-0.5-2.7,0.4c-1.3,1.4-2.9,2.6-4,4.2c-0.5,0.7-1.1,1.1-1.7,1.7c-1.5,1.5-3,3-4.6,4.5
				c-0.4,0.4-0.7,0.8-1,1.3c-1.1,2-2.5,3.7-3.8,5.5c-0.5,0.7-1.1,1.4-1.4,2.2c-0.4,1-1.2,1.7-2,2.2C3.2,24.9,2.5,25.3,2,26
				c-0.5,0.8-1.2,1-1.7,0.7c-0.5-0.3-0.4-0.9,0-1.9c0.4-0.8,0.8-1.4,1.6-1.7c1.5-0.6,2.4-1.8,3.4-3c0.4-0.5,0.7-1,1.1-1.5
				c1.2-1.8,2.5-3.5,3.7-5.3c0.2-0.3,0.3-0.7,0.6-0.8c1.3-0.9,2.2-2.4,3.4-3.4c1.5-1.3,2.8-2.9,4.1-4.4c1.1-1.3,2.4-2.5,3.6-3.8
				c0.4-0.4,0.9-0.6,1.3-0.9c0.5-0.3,1-0.3,1.5,0.1C25.4,0.7,26,0.8,26.6,1c0.9,0.3,1.3,1.1,0.7,2c-1.4,2.2-2.6,4.6-3.8,7
				c-0.5,1-1.1,2-1.6,3.1c-0.3,0.8-0.7,1.6-1.1,2.4c-0.1,0.3-0.3,0.7-0.1,1c0.2,0.3,0.6,0.3,0.9,0.2c1-0.3,1.9-0.6,2.8-0.8
				c1.1-0.3,2.2-0.5,3.3-0.7c0.9-0.2,1.4,0.4,1.4,1.3c0,0.6-0.2,1.1-0.5,1.6c-0.3,0.5-0.7,1-1,1.6c-0.2,0.3-0.4,0.6,0,0.9
				c0.3,0.3,0.6,0.1,0.9-0.1c0.3-0.2,0.6-0.4,0.8-0.6c1.1-1.3,2.7-1.8,4.1-2.7c0.8-0.5,1.6,0.2,1.7,1.2c0,0.8-0.1,1.5-0.5,2.2
				c-0.4,0.5-0.6,1.1-0.7,1.7c0,0.2,0.1,0.4,0.2,0.5c0.1,0.1,0.4,0.1,0.5,0c1.2-0.9,2.5-1.8,3.4-3.1c0.6-1,1.4-1.8,2.3-2.5
				c0.3-0.2,0.6-0.3,0.9-0.1c0.3,0.2,0.4,0.5,0.5,0.9c0,0.5-0.2,0.9-0.4,1.4c-0.4,0.7-0.8,1.4-0.8,2.3c0,0.6,0.4,0.9,0.9,0.7
				c2.2-0.6,4.1-1.8,5.3-3.9c0.3-0.6,0.8-1.1,1.2-1.6c0.3-0.3,0.7-0.4,1.1-0.2c0.4,0.2,0.7,0.8,0.5,1.2c-0.4,0.9-0.8,1.7-1.2,2.6
				c-0.1,0.2-0.2,0.5-0.2,0.8c-0.1,0.3,0.4,0.6,0.7,0.5c0.2-0.1,0.4-0.2,0.5-0.3c1.5-1.2,3-2.4,4.5-3.7c0.8-0.7,1.6-1.4,2.5-2
				c0.5-0.4,1-0.6,1.6,0c0.3,0.4,0.7,0.2,1.1,0.1c0.6-0.1,1.1,0.4,0.9,1c-0.7,2-1.1,4.2-2.5,5.8c-0.3,0.3-0.6,0.8-0.8,1.2
				c-0.2,0.3-0.2,0.7,0.1,0.9c0.2,0.2,0.5,0.1,0.7-0.1c0,0,0.1-0.1,0.2-0.1c1.4-1.5,3-2.6,4.2-4.3c0.3-0.5,0.8-0.9,1.2-1.4
				c0.7-0.7,1.1-1.4,1-2.6c-0.1-1,0.3-2,1-2.8c0.5-0.6,1-1.2,1.6-1.8c0.2-0.2,0.5-0.4,0.8-0.6c0.3-0.2,0.6-0.1,0.9,0.2
				c0.3,0.3,0.4,0.6,0.2,0.9c-0.5,0.9-0.7,2.1-1.5,2.9c-0.2,0.2-0.3,0.5-0.4,0.7c-0.1,0.3,0,0.6,0.2,0.7c0.6,0.4,1.2,0.5,1.9,0.6
				c0.4,0,0.8,0.1,1.2,0.2c0.6,0.2,0.7,0.9,0.3,1.3c-0.5,0.6-1.1,1.2-1.4,2c-0.1,0.3-0.3,0.6-0.4,0.9c-0.1,0.3-0.1,0.7,0.1,1
				c0.3,0.3,0.6,0.2,0.9,0c0.8-0.6,1.6-1.2,2.4-1.8c1.5-1.2,3-2.4,4.6-3.6c0.6-0.5,1.2-0.9,2-0.8c1,0.1,1.9-0.2,2.7-0.9
				c0.7-0.6,1.4-0.5,2.2,0.1c0.5,0.4,0.6,1,0,1.4c-1.2,0.9-2.4,1.7-3.6,2.5c-0.8,0.5-1.5,1.1-1.9,2c-0.1,0.2-0.1,0.4,0,0.6
				c0.1,0.1,0.3,0.3,0.5,0.2c1.3-0.2,2.6-0.6,3.6-1.5c0.4-0.3,0.7-0.7,1-0.9c0.8-0.5,1.2-1.2,1.3-2.2c0-0.5,0.3-0.8,0.8-0.8
				c0.5,0,0.8,0.3,0.9,0.9c0.1,0.8-0.1,1.5-0.3,2.3c-0.1,0.5-0.3,1.1,0.2,1.5c0.5,0.3,0.9,0,1.3-0.1c1.2-0.6,2.3-1.3,3.4-2.1
				c1-0.8,1.5-1.6,1.6-2.9c0.2-3,1.2-5.7,2.8-8.1c1-1.4,2.3-2.2,3.9-2.5c0.9-0.2,1.7,0.1,1.8,1.6c0,0.2,0,0.4,0,0.6
				c-0.3,1.1-0.5,2.3-0.8,3.4c-0.7,2.6-2.5,4.1-4.5,5.5c-0.7,0.4-1.4,0.8-1.8,1.5c-0.2,0.3-0.2,0.7,0,1c0.2,0.3,0.6,0.3,0.9,0.2
				c0.8-0.4,1.6-0.8,2.5-1.2c0.4-0.2,0.9-0.3,1.3-0.4c0.9-0.1,1.6,0.2,2,1c0.3,0.5,0.6,1.1,0.8,1.7c0.3,0.6,0.8,0.9,1.4,1.1
				c1.1,0.3,2.1,0,3.1-0.1c1-0.1,1.9-0.4,2.9-0.6c0.4-0.1,0.7-0.2,1.1-0.5c0.7-0.6,1.6-0.4,2.4-0.3c0.2,0,0.4,0.2,0.5,0.3
				c0.4,0.5,0.2,1.4-0.4,1.5c-2.5,0.4-4.9,1.3-7.5,1.5C103.7,23.5,103.4,23.6,103,23.7L103,23.7L103,23.7L103,23.7z M94,15.8
				c0.2-0.1,0.4-0.2,0.6-0.3c0.7-0.7,1.4-1.4,2.2-2.1c0.4-0.4,0.7-0.8,0.9-1.4c0.3-1.3,0.7-2.5,1-3.8c0-0.1-0.1-0.4-0.2-0.5
				c-0.1-0.1-0.4-0.1-0.5-0.1c-0.1,0-0.2,0.1-0.3,0.2c-2.3,1.9-3.3,4.5-4,7.3c0,0.1,0,0.3,0.1,0.4C93.7,15.6,93.8,15.7,94,15.8
				L94,15.8L94,15.8L94,15.8z M57.9,17.5c0-0.6-0.5-0.8-0.9-0.6c-1.2,0.8-2.1,2-2.9,3.3c-0.4,0.6-0.6,1.4-0.9,2.1
				c-0.1,0.3-0.1,0.5,0.2,0.8c0.2,0.2,0.5,0.2,0.7,0.1c0.6-0.2,1-0.7,1.4-1.2c0.9-1.3,1.6-2.7,2.3-4.1
				C57.9,17.8,57.9,17.5,57.9,17.5L57.9,17.5L57.9,17.5L57.9,17.5z M50.4,34.9c0-0.3-0.1-0.4-0.3-0.4c-0.2,0-0.5,0.1-0.7,0.2
				c-1.2,1.1-2.1,2.5-2.9,4.1c0,0.1,0,0.1,0,0.2c0,0.2,0.1,0.4,0.2,0.5c0.1,0.1,0.4,0.1,0.5,0c0.2-0.1,0.5-0.3,0.6-0.5
				c1.1-1.2,1.9-2.6,2.6-4.1C50.4,35.1,50.4,35,50.4,34.9L50.4,34.9L50.4,34.9z"/>
		</g>
		<path class="st0" d="M5.8,48.1c1.9,0.2,3.5-0.8,5.1-1.8c0.6-0.4,1.1-1,1.6-1.5c0.3-0.3,0.2-0.9-0.2-1c-0.4-0.1-0.8-0.1-1.2-0.2
			c-0.5-0.1-0.8-0.5-0.9-1c-0.1-0.5,0.1-1,0.5-1.3c0.9-0.6,1.9-1,3-0.5c1,0.5,1.9,0.4,2.8,0c1.9-0.9,3.9-1.2,5.8-1.6
			c0.8-0.2,1.5-0.3,2.3-0.5c0.6-0.2,1.1,0.2,1.2,0.8c0.1,0.5-0.2,1.1-0.7,1.3c-0.9,0.2-1.8,0.4-2.7,0.5c-2.2,0.2-4.3,1-6.4,1.7
			c-0.8,0.3-1.5,0.8-1.8,1.7c-0.5,1.3-1.5,2.1-2.4,2.9c-1.4,1.2-3.2,1.9-4.9,2.4c-1.2,0.3-2.3-0.1-3.5-0.5c-1-0.4-1.4-1.2-1.6-2.2
			c-0.4-2.5,0.4-4.5,2.1-6.1c0.5-0.5,1.1-0.8,1.6-1.2c0.5-0.4,0.6-0.7,0.3-1.2c0-0.1-0.1-0.1-0.1-0.2C4.6,37.3,5,36,5.5,34.9
			c0.4-0.9,1-1.6,1.8-2.2c0.8-0.6,1.7-1,2.5-1.5c1.3-0.9,2.6-0.6,4-0.2c0.7,0.2,1.3,0.8,1.4,1.6c0.1,1.1,0.1,2.1-0.8,2.8
			c-0.3,0.2-0.6,0.3-0.9,0.1c-0.3-0.2-0.3-0.6-0.2-0.9c0-0.1,0-0.1,0.1-0.2c0.2-0.4,0.5-0.9,0.2-1.3c-0.4-0.5-1-0.7-1.6-0.6
			c-1.8,0.6-3.5,1.4-4.8,3c-0.3,0.4-0.4,0.9-0.4,1.3c-0.1,0.7,0.2,1.1,0.8,1.3c0.6,0.2,1.2,0.3,1.7,0.4c0.4,0.1,0.8,0.2,0.9,0.7
			c0.1,0.4-0.2,0.8-0.8,0.9c-1.1,0.3-2,0.9-3,1.4c-1.6,0.9-2.4,2.3-2.6,4.1c-0.2,1.5,0.3,2.2,1.7,2.4C5.4,48,5.6,48,5.8,48.1
			L5.8,48.1L5.8,48.1L5.8,48.1z"/>
		<path class="st0" d="M59.9,65.9c-1.2,0.1-2.3,0.1-3.5,0.3c-1.2,0.2-2.5,0.3-3.7,0.1c-1.1-0.2-1.7,0.3-2.2,1.3
			c-0.6,1.3-1.4,2.5-1.5,4c0,0.3,0,0.5,0.2,0.7c0.3,0.2,0.5,0.1,0.7-0.1c0.4-0.3,0.9-0.6,1.1-1.1c0.3-0.8,0.9-1,1.7-1.2
			c1.8-0.4,3.5-0.9,5.2-1.6c0.3-0.1,0.6-0.2,0.9-0.2c0.4,0,0.8,0.2,1,0.6c0.2,0.4,0.2,0.8-0.1,1.1c-0.3,0.3-0.6,0.6-0.8,0.9
			c-0.3,0.5-0.4,1-0.1,1.3c0.3,0.4,0.7,0.5,1.1,0.4c1.1-0.3,2.3-0.6,3.2-1.3c1-0.8,2-1.7,3.1-2.5c0.9-0.7,1.6-1.6,2-2.7
			c0.9-2.3,2.4-4.2,3.8-6.2c0.7-1.1,1.7-1.8,2.7-2.6c0.3-0.3,0.7-0.4,1.1-0.1c0.4,0.2,0.5,0.7,0.5,1.1c0,0.1,0,0.3,0,0.4
			c-0.7,2.2-1.3,4.5-3.3,5.8c-0.4,0.2-0.8,0.5-1.2,0.7c-1,0.7-1.7,1.6-2.2,2.8c-0.1,0.3-0.2,0.5,0,0.8c0.2,0.3,0.5,0.2,0.7,0.1
			c0.2-0.1,0.5-0.2,0.7-0.3c0.5-0.1,0.9-0.1,1.3,0.1c0.8,0.3,1.2,1,1,1.8c-0.1,0.6-0.4,1.1-0.7,1.7c-0.3,0.8,0.1,1.4,0.9,1.3
			c1.2-0.2,2.5-0.3,3.6-0.9c0.9-0.6,1.9-0.7,3-1c1.2-0.3,2.3,0,3.4,0.7c0.6,0.4,1.1,0.7,1.8,0.3c0.3-0.2,0.6,0,0.8,0.4
			c0.4,0.6,0.5,1.2,0.2,1.5c-0.2,0.3-0.5,0.4-0.9,0.3c-0.6-0.1-1.1-0.4-1.6-0.7c-1.5-1.1-3-1.3-4.7-0.6c-0.4,0.2-0.9,0.3-1.3,0.5
			c-1.5,0.8-3.1,0.9-4.7,1.1c-0.3,0-0.7,0-1-0.1c-1-0.3-1.4-1.1-1.2-2.1c0.1-0.6,0.4-1.2,0.5-1.8c0.1-0.3-0.3-0.7-0.6-0.6
			c-0.8,0.1-1.4,0.6-1.9,1.2c-0.5,0.6-1,1-1.7,1.3c-0.8,0.4-1.1,0.2-1.5-0.7c-0.1-0.2-0.1-0.4-0.2-0.6c-0.1-0.2-0.3-0.3-0.5-0.2
			c-0.3,0.2-0.7,0.4-1,0.7c-0.8,0.9-1.8,1.3-2.8,1.7c-1,0.5-2.1,0.3-3.1-0.1c-0.8-0.3-1.1-0.9-1.1-1.8c0-0.3,0.1-0.7,0.1-1
			c0-0.4-0.3-0.7-0.7-0.6c-1.5,0.3-2.9,0.6-3.9,2c-0.7,0.9-1.7,1.4-2.7,1.9c-0.1,0.1-0.2,0.1-0.4,0.1c-1.4,0.5-2.2-0.1-2.2-1.6
			c0-0.7,0-1.4,0-2.1c0-0.3-0.3-0.5-0.6-0.4c-0.2,0.1-0.5,0.2-0.7,0.4c-0.9,0.7-1.7,1.5-2.5,2.2c-0.9,0.7-1.7,1.4-2.6,2.1
			c-0.9,0.7-2.6,0.6-3.5-0.1c-0.4-0.3-0.5-0.8-0.7-1.2c-0.3-0.6-0.6-0.8-1.1-0.4c-0.9,0.7-2,1.2-3.1,1.7c-0.3,0.2-0.7,0.4-1.1,0.5
			c-1.4,0.5-2.2,0.1-2.8-1.4c-0.3-0.8-0.4-0.9-1.1-0.5c-1.6,0.9-3.2,1.7-5,2c-0.5,0.1-1,0.1-1.5,0.3c-1.2,0.4-2.2-0.2-3.1-1
			c-0.9-0.8-1.4-1.9-1.3-3.2c0-0.1,0-0.3,0-0.4c0-0.6-0.3-0.9-0.9-0.8c-0.4,0.1-0.7,0.2-1.1,0.3c-0.6,0.1-1.1-0.1-1.4-0.6
			c-0.2-0.5-0.1-1,0.4-1.5c1.1-0.9,2.3-1.3,3.6-0.8c0.9,0.3,1.7,0.4,2.4-0.1c1.5-1.1,3.2-2.1,4.5-3.5c0.8-0.9,1.3-2,1.9-3
			c0.2-0.3-0.1-0.8-0.5-1c-0.4-0.1-0.8-0.1-1.2,0c-1.7,0.3-3.3,0.6-4.9,1.4c-1.3,0.6-2.6,1.1-3.9,1.8c-1.2,0.7-2.4,1.6-3.2,2.9
			c-0.8,1.2-1.7,2.2-2.5,3.3c-1.3,1.8-2.5,3.6-3.7,5.5c-0.8,1.2-1.8,2.1-2.8,3.1c-0.3,0.2-0.6,0.2-0.9,0C2,77.5,1.5,77.3,1,77
			c-1.2-0.6-1.3-2-0.6-2.8c0.5-0.7,1.2-1.3,1.8-1.9c1.7-1.6,3.4-3.3,5.2-4.9c0.3-0.3,0.8-0.5,1.1-0.8c2-1.5,3.7-3.4,4.9-5.7
			c0.2-0.3,0.4-0.6,0.4-0.9c0.2-0.9,0.6-1.7,1.2-2.3c0.1-0.1,0.2-0.3,0.4-0.5c0.2-0.2,0.1-0.5,0-0.8c-0.2-0.3-0.4-0.4-0.7-0.3
			c-0.4,0.1-0.7,0.2-1.1,0.3c-0.4,0.1-0.7,0.1-1.2,0c-0.6-0.3-0.9-0.8-0.7-1.5c0.1-0.5,0.5-0.8,1-0.6c0.6,0.3,1.1,0.2,1.7,0.1
			c1.8-0.5,3.2,1.1,2.6,2.9c-0.2,0.8-0.8,1.4-1.1,2.2c-0.2,0.5-0.9,1.1-0.3,1.6c0.5,0.4,1-0.1,1.4-0.4c1.6-1.2,3.4-1.5,5.2-2.1
			c1.7-0.5,3.4-0.3,5.1-0.1c0.6,0.1,0.7,0.4,0.6,1.1c-0.6,2.7-1.9,4.9-4,6.6c-1.4,1.2-2.7,2.4-4.4,3c-0.2,0.1-0.3,0.2-0.5,0.4
			c-0.4,0.6-0.3,2.8,0.1,3.4c0.3,0.5,0.8,0.7,1.4,0.7c0.5,0,0.9,0,1.4-0.1c1.4-0.4,2.7-0.8,4.1-1.3c1.3-0.4,2.3-1.2,3.1-2.3
			c0.8-1,1.8-1.8,2.8-2.5c1.6-1.2,3.3-1.1,5-0.1c0.6,0.3,1.1,0.6,1.8,0.7c0.6,0,0.9,0.6,0.7,1.2c-0.4,1-0.8,1.9-1.1,2.8
			c-0.3,0.9,0.3,1.6,1.1,1.4c0.7-0.1,1.3-0.5,1.9-1c1.3-1.1,2.5-2.3,4-3.2c0.7-0.4,1.4-1,2.2-1.1c0.2,0,0.4-0.1,0.5-0.2
			c0.3-0.2,0.6-0.6,0.5-1c0-0.3-0.5-0.7-0.9-0.6c-0.8,0-1.6,0.2-2.3,0.2c-0.5,0-0.9-0.1-1.4-0.2c-0.3-0.1-0.4-0.4-0.3-0.7
			c0-0.2,0.2-0.4,0.3-0.4c0.8-0.1,1.6-0.2,2.3-0.2c0.9,0,1.8,0,2.7,0c0.7,0,1.3-0.3,1.5-1c0.3-0.9,0.9-1.5,1.5-2
			c0.8-0.7,1.4-1.8,1.9-2.8c0.5-1,1.3-1.5,2.1-2c0.4-0.3,1.1-0.1,1.4,0.4c0.3,0.4,0.4,1,0,1.4c-1.4,1.5-2.4,3.4-4,4.7
			c-0.2,0.2-0.4,0.4-0.5,0.5c-0.1,0.2,0,0.6,0.3,0.7c0.5,0.2,1,0,1.6,0c1-0.1,1.9-0.4,2.9-0.2c0.5,0.1,0.9-0.1,1.2-0.6
			c1-1.6,2.7-1.4,4.2-1.5c0.5,0,1.1,0.9,0.9,1.5c-0.4,1.2-0.9,2.1-2.1,2.1c-0.3,0-0.7,0.1-1,0.1c-0.3,0-0.7-0.1-1-0.1
			C59.9,66,59.9,65.9,59.9,65.9L59.9,65.9L59.9,65.9L59.9,65.9z M36.8,70.2c0.1-0.9-0.4-1.5-1.1-1.6c-2.6-0.2-4.3,1.5-5,4.2
			c-0.1,0.4,0.3,0.9,0.7,0.7c1.6-0.7,3.3-1.3,4.7-2.3c0.2-0.1,0.3-0.3,0.4-0.4C36.6,70.6,36.7,70.3,36.8,70.2L36.8,70.2L36.8,70.2
			L36.8,70.2z M2.5,76.1c0.1,0,0.3-0.1,0.5-0.2c0.3-0.2,0.5-0.4,0.7-0.7c0.8-1.2,1.7-2.4,2.7-3.5c0,0,0.1-0.1,0.1-0.2
			c0-0.2,0.1-0.4,0-0.6c-0.1-0.3-0.3-0.2-0.5-0.1c-0.3,0.2-0.7,0.4-1,0.6c-1,1-2,2.1-3,3.1c-0.1,0.1-0.2,0.3-0.3,0.5
			C1.5,75.5,1.9,76.1,2.5,76.1L2.5,76.1L2.5,76.1z M72.6,62.8c0.5,0,0.8-0.5,1.1-0.9c0.5-0.7,0.7-1.8,0.3-1.8
			c-0.6-0.1-0.9,0.5-1.1,0.9c-0.3,0.4-0.7,0.8-0.7,1.4C72.2,62.7,72.3,62.8,72.6,62.8L72.6,62.8L72.6,62.8L72.6,62.8z"/>
	</g>
</g>
</svg>
