<?xml version="1.0" encoding="utf-8"?>
<!-- Generator: Adobe Illustrator 27.5.0, SVG Export Plug-In . SVG Version: 6.00 Build 0)  -->
<svg version="1.1" id="Layer_1" xmlns:xodm="http://www.corel.com/coreldraw/odm/2003"
	 xmlns="http://www.w3.org/2000/svg" xmlns:xlink="http://www.w3.org/1999/xlink" x="0px" y="0px" viewBox="0 0 38.2 19.6"
	 style="enable-background:new 0 0 38.2 19.6;" xml:space="preserve">
<style type="text/css">
	.st0{fill:#371810;}
</style>
<g id="Layer_x0020_1">
	<path class="st0" d="M2.4,18c0-0.1-0.1-0.1-0.1-0.2c-0.3-0.8-0.2-1.6,0.4-2.3c0.2-0.3,0.6-0.4,0.9-0.5c0.4-0.1,0.8-0.2,1.3-0.2
		c0.4,0,0.9,0.1,1.3,0.3c0.4,0.2,0.8,0.5,1.1,0.8c0.5,0.7,0.8,1.4,1,2.2c0,0.1,0.1,0.3,0.1,0.4c0,0.1,0,0.1-0.1,0.1
		C8,18.7,8,18.7,8,18.5c-0.1-0.4-0.3-0.9-0.6-1.2C7,16.6,6.3,16.2,5.5,16c-0.4-0.1-0.8-0.1-1.2-0.1c-0.3,0-0.5,0.1-0.8,0.2
		c-0.3,0.1-0.6,0.3-0.8,0.5c-0.2,0.3-0.2,0.7-0.1,1.1c0.1,0.3,0.2,0.5,0.3,0.7c0,0.1,0.1,0.1,0.1,0.2c0,0,0,0.1,0,0.1
		c0,0-0.1,0-0.1,0c-0.1,0-0.2-0.1-0.3-0.1c-0.5-0.2-0.9-0.4-1.3-0.7c-0.6-0.5-1-1.1-1.2-1.8c-0.2-1-0.1-2,0.5-2.8
		c0.3-0.4,0.7-0.7,1.2-1c0.7-0.3,1.5-0.5,2.2-0.6c0.6-0.1,1.1-0.2,1.7-0.3c0.6-0.2,1.1-0.5,1.4-0.9C7.5,10,7.7,9.6,7.7,9.1
		c0.1-0.5,0-0.9-0.1-1.4C7.5,7.4,7.3,7.1,6.9,7C6.6,6.9,6.4,6.9,6.1,7c-0.4,0.1-0.7,0.3-1,0.6C4.9,7.7,5,7.7,4.8,7.6
		C4.5,7.2,4.1,7,3.6,7c-0.4,0-0.7,0-1,0.3C2.3,7.5,2.2,7.8,2.2,8.1c0,0.4,0,0.8,0.2,1.2c0.1,0.3,0.3,0.5,0.5,0.7
		C2.9,10.1,3,10.2,3,10.3c0,0,0.1,0.1,0,0.1c0,0.1-0.1,0.1-0.2,0.1c-0.2-0.1-0.5-0.1-0.7-0.2c-0.3-0.1-0.7-0.2-1-0.4
		C0.8,9.7,0.6,9.4,0.6,9C0.5,8.5,0.6,8.1,0.9,7.6C0.9,7.5,1,7.4,1,7.4c0-0.1,0.1-0.1,0.1-0.2c0-0.1,0-0.2-0.2-0.2
		C0.8,6.9,0.7,7,0.6,7.1c-0.1,0.2-0.1,0.3,0,0.5c0,0,0,0.1,0,0.1c0,0,0,0.1,0,0.1c-0.1,0-0.1,0-0.2-0.1c-0.1-0.4-0.2-0.9,0-1.3
		C0.4,6.1,0.6,5.9,1,5.9c0.3,0,0.6,0.1,0.7,0.4c0.1,0.2,0,0.4,0,0.6C1.6,7.1,1.5,7.4,1.3,7.6C1.2,7.8,1.1,8,1,8.2
		C0.9,8.5,1,8.8,1.3,9c0.2,0.1,0.4,0.3,0.6,0.3c0,0,0,0,0.1,0c0,0,0,0,0-0.1C1.7,8.7,1.7,8.2,1.8,7.6C1.9,7.3,2,7,2.1,6.7
		c0.5-1,1.7-0.9,2.3-0.4c0.2,0.2,0.4,0.4,0.5,0.6c0,0,0,0.1,0.1,0.1C5,7,5,7,5,6.9c0.2-0.3,0.4-0.6,0.7-0.8c0.5-0.2,1-0.3,1.4-0.1
		c0.3,0.1,0.5,0.4,0.6,0.7C8,7.1,8.1,7.6,8.1,8c0,0.5,0.1,1,0,1.4c-0.1,0.7-0.3,1.4-0.8,2c-0.3,0.3-0.6,0.5-1,0.7
		c-0.5,0.2-0.9,0.3-1.4,0.3C4,12.6,3.1,12.7,2.3,13c-0.3,0.1-0.7,0.3-0.9,0.5c-0.6,0.4-0.9,1-0.9,1.7c0,0.6,0.2,1.2,0.5,1.7
		c0.3,0.4,0.7,0.7,1.1,0.9C2.2,17.9,2.2,17.9,2.4,18L2.4,18L2.4,18z M4.8,5C4.3,5,3.9,5,3.5,4.7C3.1,4.5,2.8,4.2,2.6,3.8
		C2.5,3.5,2.4,3.1,2.4,2.7c0-0.1,0-0.2,0-0.3c0-0.1,0-0.1,0.1-0.1c0.1,0,0.2,0,0.2,0.1c0,0.3,0.1,0.5,0.2,0.7C3,3.5,3.3,3.7,3.6,3.8
		c0.1,0,0.1,0,0.1-0.1c0-0.2,0-0.4,0.1-0.6C3.8,3,3.9,2.7,4.2,2.6c0.1-0.1,0.2-0.1,0.3-0.1c0.1,0,0.1-0.1,0.1-0.1
		c0-0.5,0-0.9,0.1-1.4c0-0.3,0-0.6,0-0.8C4.7,0,4.7,0,4.7,0c0.2,0,0.2,0,0.2,0.2C5,0.9,5,1.6,5,2.3c0,0.1,0,0.1,0.1,0.1
		c0.5,0.1,0.7,0.5,0.8,1c0,0.1,0,0.2,0,0.4c0,0.1,0,0.1,0.1,0.1c0.5-0.3,0.8-0.7,0.9-1.2c0,0,0-0.1,0-0.1c0-0.1,0-0.1,0.2-0.1
		c0.1,0,0.1,0,0.1,0.1c0,0.3,0,0.7-0.1,1C6.9,4.2,6.4,4.7,5.6,4.9C5.3,5,5.1,5,4.8,5L4.8,5L4.8,5z M4.8,4.1c0.3,0,0.6,0,0.8-0.1
		c0,0,0.1,0,0.1-0.1C5.6,3.7,5.5,3.5,5.4,3.3C5.1,3,4.6,3,4.3,3.3C4.1,3.4,4,3.7,3.9,3.9C3.9,4,3.9,4,4,4C4.2,4.1,4.5,4.1,4.8,4.1
		L4.8,4.1L4.8,4.1z M11,7c-0.6,0-1.1,0-1.7,0.2C9.1,7.2,8.8,7.3,8.6,7.5c-0.1,0.1-0.1,0-0.2,0c-0.1-0.1-0.1-0.1,0-0.2
		c0.4-0.6,1-1.1,1.7-1.3c0.4-0.1,0.9-0.2,1.3-0.1c0.5,0.1,1,0.2,1.4,0.6c0.3,0.3,0.5,0.6,0.5,1c0.1,0.6,0.1,1.3-0.2,1.9
		c-0.3,0.6-0.9,1-1.6,1.2c-0.3,0.1-0.5,0.1-0.8,0c-0.3,0-0.5-0.2-0.6-0.4C10.1,9.9,10,9.6,10,9.3c0-0.1,0.1-0.1,0.1-0.2s0.1,0,0.1,0
		c0.3,0.2,0.6,0.4,1,0.5c0.5,0.1,0.9,0.1,1.4-0.2c0.2-0.1,0.4-0.4,0.5-0.6c0.2-0.5,0.1-1.2-0.4-1.5c-0.2-0.2-0.5-0.3-0.8-0.3
		C11.6,7,11.3,7,11,7L11,7L11,7z M28.2,9c0,0.5,0,0.9,0,1.4c0,0.1,0,0.1-0.1,0.1c-0.2,0-0.2,0-0.2-0.2c0-0.6,0-1.2,0-1.9
		c0-0.3-0.1-0.6-0.2-0.9C27.5,7.2,27.3,7,27,7c-0.1,0-0.1,0-0.1,0.1c0,0.5,0,1,0,1.5c0,0.4-0.1,0.8-0.1,1.2c0,0.1-0.1,0.3-0.2,0.4
		c-0.2,0.3-0.5,0.4-0.9,0.4c-0.3,0-0.5-0.1-0.8-0.3c-0.3-0.2-0.5-0.4-0.8-0.6c-0.1-0.1-0.3-0.2-0.4-0.3c-0.1,0-0.1,0-0.1,0
		c0,0,0,0.1-0.1,0.1c-0.1,0.3-0.3,0.6-0.5,0.8c-0.2,0.2-0.5,0.3-0.9,0.2c-0.3-0.1-0.4-0.3-0.4-0.5c0-0.3,0-0.6,0.1-0.8
		c0.2-0.4,0.5-0.7,1-0.8c0.2,0,0.4-0.1,0.6-0.1c0,0,0.1,0,0.1-0.1c0-0.2,0.1-0.5,0.1-0.7c0-0.1,0-0.2,0-0.4
		c-0.1-0.3-0.3-0.5-0.7-0.4c-0.4,0-0.5,0.4-0.4,0.6c0,0.2,0.1,0.4,0.2,0.5c0,0.1,0,0.1,0,0.1c0,0-0.1,0-0.1,0
		c-0.5-0.4-0.7-1.1-0.4-1.7c0.1-0.3,0.3-0.4,0.6-0.5c0.2,0,0.4,0,0.6,0c0.4,0.1,0.5,0.4,0.6,0.7c0.1,0.4,0,0.8,0,1.2
		c0,0.2-0.1,0.3-0.1,0.5c0,0,0,0.1,0.1,0.1c0.4,0.1,0.7,0.3,1,0.5c0.2,0.2,0.5,0.4,0.7,0.5c0.1,0.1,0.2,0.1,0.4,0.2
		c0.2,0.1,0.4,0,0.5-0.2c0.1-0.2,0.1-0.4,0.1-0.6c0-0.3,0-0.7,0-1c0-0.6,0-1.2,0-1.8c0-0.1,0-0.1,0.1-0.1C27,6,27.3,6,27.6,6.2
		c0.3,0.2,0.5,0.6,0.6,1c0,0.2,0.1,0.4,0.1,0.6C28.2,8.2,28.2,8.6,28.2,9C28.2,9,28.2,9,28.2,9L28.2,9L28.2,9z M23,9.1
		c-0.2,0-0.4,0.1-0.5,0.2c-0.2,0.2-0.3,0.4-0.3,0.6c0,0.1,0.1,0.2,0.3,0.2c0.2,0,0.3-0.1,0.4-0.2c0.2-0.2,0.3-0.4,0.4-0.6
		C23.3,9.1,23.3,9.1,23,9.1z M38.2,9c0,0.5,0,0.9,0,1.4c0,0.1,0,0.1-0.1,0.1c-0.2,0-0.2,0-0.2-0.2c0-0.6,0-1.2,0-1.9
		c0-0.3-0.1-0.6-0.2-0.9C37.5,7.2,37.3,7,37,7c-0.1,0-0.1,0-0.1,0.1c0,0.5,0,1,0,1.4c0,0.4,0,0.8-0.1,1.2c0,0.1-0.1,0.3-0.2,0.4
		c-0.2,0.3-0.5,0.4-0.9,0.4c-0.3,0-0.5-0.1-0.8-0.3c-0.3-0.2-0.5-0.4-0.8-0.6c-0.1-0.1-0.3-0.2-0.4-0.3c-0.1,0-0.1,0-0.1,0
		c0,0.1,0,0.1-0.1,0.2c-0.1,0.3-0.3,0.6-0.5,0.8c-0.2,0.2-0.5,0.3-0.9,0.2c-0.2-0.1-0.4-0.2-0.4-0.4c-0.1-0.4,0-0.7,0.1-1
		c0.2-0.4,0.6-0.6,1-0.7c0.2,0,0.3,0,0.5-0.1c0.1,0,0.1,0,0.1-0.1c0-0.2,0.1-0.5,0.1-0.7c0-0.1,0-0.2,0-0.4
		c-0.1-0.3-0.3-0.5-0.7-0.5c-0.4,0-0.5,0.4-0.5,0.6c0,0.2,0.1,0.4,0.2,0.5c0,0,0,0.1,0,0.1c0,0.1-0.1,0.1-0.2,0
		c-0.5-0.4-0.6-1-0.4-1.6c0.1-0.3,0.3-0.5,0.7-0.6c0.2,0,0.4,0,0.6,0c0.4,0.1,0.5,0.4,0.6,0.7c0.1,0.4,0,0.8,0,1.2
		c0,0.2-0.1,0.3-0.1,0.5c0,0,0,0.1,0,0.1C34.3,8.5,34.6,8.8,35,9c0.2,0.2,0.4,0.3,0.7,0.5c0.1,0.1,0.2,0.1,0.3,0.1
		c0.2,0.1,0.3,0,0.4-0.2c0.1-0.2,0.1-0.4,0.2-0.6c0-0.3,0-0.6,0-0.8c0-0.7,0-1.3,0-2c0-0.1,0-0.1,0.1-0.1C37,6,37.3,6,37.5,6.2
		c0.3,0.2,0.5,0.6,0.6,1c0,0.2,0.1,0.4,0.1,0.6C38.2,8.2,38.2,8.6,38.2,9C38.2,9,38.2,9,38.2,9L38.2,9L38.2,9z M32.9,9.1
		c-0.2,0-0.4,0.1-0.5,0.2c-0.2,0.2-0.3,0.4-0.3,0.6c0,0.1,0.1,0.2,0.3,0.2c0.2,0,0.3-0.1,0.4-0.2c0.2-0.2,0.3-0.5,0.4-0.8
		c0,0,0-0.1-0.1-0.1C33.1,9.1,33,9.1,32.9,9.1L32.9,9.1L32.9,9.1z M28.2,14.8c0,0.3,0,0.7,0,1.1c0,0.1,0,0.1-0.1,0.1
		c0,0-0.1,0-0.1,0c-0.2,0-0.2,0-0.2-0.2c0-0.6,0-1.1,0-1.7c0-0.3,0-0.5-0.2-0.8c-0.2-0.4-0.5-0.7-1-0.8c-0.5-0.1-1-0.1-1.5,0
		c-0.1,0-0.2,0.1-0.3,0.1c-0.2,0.1-0.2,0.3,0,0.5c0.2,0.2,0.5,0.3,0.8,0.3c0.2,0.1,0.5,0.1,0.7,0.2c0.4,0.1,0.6,0.3,0.8,0.7
		c0.1,0.3,0,0.6-0.1,0.8c-0.2,0.4-0.5,0.7-0.9,0.8c-0.8,0.2-1.5,0.2-2.3-0.1c-0.7-0.3-0.9-0.8-0.9-1.4c0-0.3,0.1-0.6,0.3-0.9
		c0.1-0.2,0.2-0.3,0.3-0.5c0.1-0.1,0.1-0.2,0.1-0.3c0-0.1,0-0.2-0.2-0.2c-0.2,0-0.4,0.1-0.4,0.3c0,0.2,0,0.3,0,0.5
		c0,0,0,0.1-0.1,0.1c-0.1,0-0.1,0-0.1,0c-0.2-0.5-0.2-1,0-1.4c0.2-0.4,0.7-0.6,1.1-0.3c0.2,0.1,0.3,0.3,0.3,0.5
		c0,0.2-0.1,0.3-0.1,0.5c-0.1,0.2-0.3,0.4-0.4,0.7c-0.1,0.2-0.3,0.4-0.3,0.7c0,0.1-0.1,0.2-0.1,0.4c0,0.3,0.2,0.5,0.5,0.6
		c0.2,0.1,0.4,0.1,0.6,0.1c0.5,0,1,0,1.6,0c0.2,0,0.3,0,0.4-0.1c0.1,0,0.1,0,0.2-0.1c0.1,0,0.1-0.1,0.1-0.2c0-0.1-0.1-0.1-0.2-0.2
		c-0.3-0.1-0.5-0.2-0.8-0.2c-0.3-0.1-0.5-0.1-0.8-0.2c-0.5-0.3-0.7-0.7-0.6-1.2c0.1-0.4,0.4-0.8,0.8-1.1c0.2-0.1,0.5-0.2,0.7-0.2
		c0.4-0.1,0.8,0,1.1,0.1c0.3,0.1,0.6,0.3,0.8,0.6c0.2,0.3,0.3,0.7,0.4,1.1C28.2,13.7,28.2,14.2,28.2,14.8L28.2,14.8L28.2,14.8z
		 M30.7,14c0,1.8,0,3.7,0,5.5c0,0.1,0,0.1-0.1,0.1c-0.1,0-0.1,0-0.2,0c-0.1,0-0.1,0-0.1-0.1c0-0.5,0-1,0-1.4c0-2.9,0-5.8,0-8.7
		c0-0.5,0-1.1-0.2-1.6c-0.1-0.3-0.2-0.5-0.4-0.7C29.6,7,29.5,7,29.3,7c0,0-0.1,0-0.1,0.1c0.1,0.3,0.1,0.6,0.2,0.9c0.1,1,0.1,2,0.1,3
		c0,2.2,0,4.3,0,6.5c0,0.3-0.1,0.7-0.2,1c-0.2,0.5-0.7,0.9-1.2,1.1c-0.5,0.1-1,0.1-1.5,0c-0.7-0.2-1.1-0.8-1-1.5
		c0-0.5,0.2-0.9,0.7-1.3c0.2-0.2,0.5-0.3,0.7-0.4c0.1,0,0.2-0.1,0.4-0.1c0.1,0,0.1,0,0.1,0c0,0.1,0.1,0.1,0,0.2
		c-0.4,0.1-0.7,0.3-1,0.6c-0.2,0.2-0.3,0.4-0.3,0.7c0,0.3,0.1,0.6,0.4,0.7c0.4,0.2,0.8,0.2,1.2,0.2c0.2,0,0.4,0,0.6-0.1
		c0.4-0.1,0.7-0.4,0.8-0.8c0.1-0.3,0.1-0.6,0.1-1c0-2,0-4.1,0-6.1c0-0.8,0-1.6-0.1-2.4c-0.1-0.5-0.1-0.9-0.3-1.4
		c-0.1-0.2-0.2-0.5-0.4-0.7c-0.1-0.1,0-0.1,0-0.1c0.2-0.1,0.5-0.1,0.7-0.1c0.7,0.1,1,0.5,1.3,1.1c0.2,0.5,0.3,1,0.3,1.5
		c0,0.4,0,0.9,0,1.3C30.7,11.2,30.7,12.6,30.7,14L30.7,14L30.7,14L30.7,14z M38.2,15.4c0,0.5,0,1,0,1.6c0,0.6-0.1,1.1-0.3,1.6
		c-0.2,0.4-0.5,0.7-0.9,0.9c-0.2,0.1-0.5,0.1-0.7,0.1c-0.4-0.1-0.6-0.3-0.6-0.7c-0.1-0.4,0-0.9,0.2-1.2c0.3-0.6,0.7-1,1.2-1.5
		c0.1-0.1,0.2-0.2,0.4-0.3c0,0,0.1-0.1,0.1,0c0,0,0,0,0,0c0.1,0.1,0.1,0.1,0,0.2c-0.3,0.3-0.6,0.7-0.9,1c-0.2,0.3-0.4,0.5-0.5,0.8
		c0,0.1-0.1,0.3,0,0.4c0.1,0.3,0.3,0.4,0.6,0.3c0.1,0,0.2-0.1,0.3-0.2c0.4-0.3,0.5-0.7,0.6-1.1c0.1-0.5,0.1-1,0.1-1.6
		c0-0.5,0-1.1,0-1.6c0-0.3,0-0.6-0.2-0.9c-0.2-0.5-0.6-0.7-1.1-0.8c-0.4-0.1-0.9-0.1-1.3,0c-0.1,0-0.3,0.1-0.4,0.1
		c-0.2,0.1-0.2,0.3,0,0.5c0.2,0.2,0.5,0.3,0.8,0.3c0.2,0.1,0.5,0.1,0.7,0.2c0.4,0.1,0.6,0.3,0.8,0.7c0.1,0.3,0,0.6-0.1,0.8
		c-0.2,0.4-0.5,0.7-0.9,0.8c-0.8,0.2-1.5,0.2-2.3-0.1c-0.7-0.3-0.9-0.8-0.9-1.4c0-0.3,0.1-0.7,0.3-1c0.1-0.2,0.2-0.3,0.3-0.5
		c0.1-0.1,0.1-0.2,0.1-0.3c0-0.1,0-0.2-0.2-0.2c-0.2,0-0.3,0.1-0.4,0.3c0,0.2,0,0.3,0,0.5c0,0,0,0.1,0,0.1c-0.1,0-0.1,0-0.1,0
		c-0.2-0.5-0.2-0.9,0-1.4c0.2-0.6,0.7-0.6,1.1-0.4c0.2,0.1,0.3,0.3,0.3,0.5c0,0.1,0,0.3-0.1,0.4c-0.1,0.3-0.3,0.5-0.4,0.7
		c-0.1,0.2-0.3,0.4-0.4,0.7c0,0.1-0.1,0.2-0.1,0.4c0,0.3,0.2,0.5,0.5,0.6c0.2,0.1,0.4,0.1,0.6,0.1c0.5,0,1,0,1.6,0
		c0.2,0,0.3,0,0.4-0.1c0.1,0,0.1-0.1,0.2-0.1c0.2-0.1,0.2-0.2,0-0.3c-0.3-0.1-0.6-0.2-0.8-0.2c-0.3-0.1-0.5-0.1-0.8-0.2
		c-0.5-0.3-0.7-0.7-0.6-1.2c0.1-0.4,0.4-0.8,0.8-1.1c0.2-0.1,0.5-0.2,0.7-0.2c0.4-0.1,0.8,0,1.1,0.1c0.3,0.1,0.6,0.3,0.8,0.6
		c0.2,0.3,0.3,0.6,0.3,1c0.1,0.3,0.1,0.7,0.1,1C38.2,14.5,38.2,14.9,38.2,15.4C38.2,15.4,38.2,15.4,38.2,15.4z M20.4,12.7
		c0-0.7,0-1.4,0-2.2c0-0.7,0-1.4,0-2.1c0-0.3,0-0.6-0.1-0.9c-0.1-0.3-0.3-0.5-0.6-0.6c-0.1,0-0.1,0-0.1,0.1c0,0.5,0,1.1,0,1.6
		c0,0.4-0.1,0.7-0.1,1.1c0,0.1-0.1,0.3-0.2,0.4c-0.2,0.3-0.5,0.4-0.9,0.4c-0.3,0-0.6-0.1-0.8-0.3C17.2,10,17,9.8,16.8,9.6
		c-0.2-0.1-0.3-0.2-0.5-0.3c-0.1-0.1-0.1-0.1-0.2,0.1C16,9.6,15.9,9.8,15.8,10c-0.2,0.2-0.4,0.4-0.7,0.5c-0.2,0-0.3,0-0.5,0
		c-0.2-0.1-0.3-0.2-0.4-0.4c-0.1-0.3,0-0.7,0.1-1c0.2-0.4,0.6-0.6,1-0.7c0.2,0,0.3,0,0.5-0.1c0.1,0,0.1,0,0.1-0.1
		c0-0.2,0.1-0.4,0.1-0.7c0-0.1,0-0.3,0-0.4c-0.1-0.3-0.3-0.5-0.7-0.4c-0.4,0-0.5,0.4-0.4,0.6c0,0.1,0.1,0.3,0.2,0.4
		c0,0,0.1,0.1,0.1,0.1c0,0.1,0,0.1-0.1,0.1s-0.1,0-0.1,0c-0.5-0.4-0.6-1-0.5-1.6c0.1-0.3,0.3-0.5,0.7-0.6c0.2,0,0.4,0,0.6,0
		c0.4,0.1,0.5,0.4,0.6,0.7c0.1,0.4,0,0.8,0,1.2c0,0.2-0.1,0.3-0.1,0.5c0,0,0,0.1,0.1,0.1c0.4,0.1,0.7,0.3,1,0.5
		c0.2,0.2,0.5,0.4,0.7,0.5c0.1,0.1,0.2,0.1,0.4,0.2c0.2,0.1,0.3,0,0.4-0.2C19,9.3,19,9.1,19.1,8.9c0-0.3,0-0.6,0-0.8
		c0-0.7,0-1.3,0-2c0-0.1,0-0.1,0.1-0.1c0.3,0,0.6,0.1,0.9,0.3c0.3,0.2,0.5,0.6,0.6,1c0,0.2,0.1,0.4,0.1,0.7c0,0.8,0,1.6,0,2.5
		c0.1,1.4,0,2.8,0,4.2c0,0.7-0.1,1.3-0.2,1.9c-0.1,0.4-0.3,0.8-0.6,1.2c-0.5,0.6-1.1,0.9-1.8,1.1c-0.7,0.1-1.4,0.1-2-0.1
		c-0.4-0.1-0.8-0.4-1.1-0.7c-0.4-0.4-0.6-0.8-0.7-1.3c-0.1-0.3-0.1-0.6,0-1c0.1-0.7,0.2-1.3,0.6-1.9c0.4-0.6,1-1.1,1.6-1.5
		c0.7-0.4,1.4-0.6,2.2-0.7c0.4-0.1,0.9-0.1,1.3-0.1c0.1,0,0.1,0,0.1,0.1c0,0.2,0,0.2-0.2,0.2c-0.7,0-1.4,0.1-2,0.3
		c-0.9,0.3-1.7,0.7-2.3,1.4c-0.6,0.8-0.9,1.6-0.8,2.6c0.1,0.7,0.5,1.2,1.1,1.5c0.3,0.1,0.6,0.2,1,0.2c0.5,0,1.1,0,1.6-0.2
		c1-0.3,1.6-0.9,1.8-1.8c0.1-0.4,0.2-0.8,0.2-1.3C20.4,13.9,20.4,13.3,20.4,12.7C20.4,12.7,20.4,12.7,20.4,12.7L20.4,12.7L20.4,12.7
		z M15.5,9.1c-0.2,0-0.4,0.1-0.5,0.2c-0.2,0.2-0.3,0.4-0.3,0.6c0,0.1,0.1,0.2,0.3,0.2c0.2,0,0.3-0.1,0.4-0.2
		c0.2-0.2,0.3-0.4,0.4-0.6C15.8,9.1,15.8,9.1,15.5,9.1z"/>
</g>
</svg>
