<?xml version="1.0" encoding="utf-8"?>
<!-- Generator: Adobe Illustrator 27.5.0, SVG Export Plug-In . SVG Version: 6.00 Build 0)  -->
<svg version="1.1" id="Layer_1" xmlns:xodm="http://www.corel.com/coreldraw/odm/2003"
	 xmlns="http://www.w3.org/2000/svg" xmlns:xlink="http://www.w3.org/1999/xlink" x="0px" y="0px" viewBox="0 0 92.3 32.9"
	 style="enable-background:new 0 0 92.3 32.9;" xml:space="preserve">
<style type="text/css">
	.st0{fill:#ED3F23;}
	.st1{fill:#A48B50;}
</style>
<path class="st0" d="M4.4,15l0,4.4l-1.8-4.4l0,0H1.4v7.2h1.1v-4.4l1.8,4.3l0,0h1.1l0-7.3C5.5,15,4.4,15,4.4,15z M8.5,22.3V15H7.4
	v7.2C7.4,22.3,8.5,22.3,8.5,22.3z M15.9,14.9c-0.2,0-0.4,0-0.4,0l-0.5,0l0,7.3H16v-3.1c0.4,0,1-0.1,1.5-0.5c0.4-0.4,0.6-0.9,0.6-1.6
	c0-0.7-0.2-1.2-0.6-1.6C17,14.9,16.2,14.9,15.9,14.9z M16.8,17.8c-0.2,0.2-0.5,0.2-0.7,0.3v-2c0.3,0,0.6,0,0.8,0.2
	c0.2,0.2,0.2,0.4,0.2,0.8C17,17.4,16.9,17.7,16.8,17.8L16.8,17.8z M22.3,20.3c0,0.5-0.4,1-0.8,1c-0.5,0-0.8-0.4-0.8-1v-5.2h-1.1v5.2
	c0,1.1,0.9,2.1,1.9,2.1c1.1,0,1.9-0.9,1.9-2.1v-5.2h-1.1L22.3,20.3L22.3,20.3z M24.8,16.2h1.4l0,6.1h1.1l0-6.1h1.4V15h-3.9V16.2z
	 M32.8,20.3c0,0.5-0.4,1-0.8,1c-0.5,0-0.8-0.4-0.8-1v-5.2H30v5.2c0,1.1,0.9,2.1,1.9,2.1c1.1,0,1.9-0.9,1.9-2.1v-5.2h-1.1L32.8,20.3
	L32.8,20.3z M42.4,19.6C42.4,19.5,42.4,19.5,42.4,19.6c0.3-0.2,0.5-0.3,0.6-0.5c0.3-0.4,0.5-0.9,0.5-1.4c0-0.9-0.2-1.7-0.7-2.1
	c-0.4-0.4-0.9-0.6-1.6-0.6c-0.2,0-0.4,0-0.4,0l-0.5,0l0,7.3h1.1l0-2.2c0.2,0.4,0.8,1.4,1.2,2.2l0,0h1.3L42.4,19.6
	C42.3,19.6,42.4,19.6,42.4,19.6L42.4,19.6z M42.3,17.6c0,0.5-0.2,0.8-0.5,1c-0.2,0.1-0.3,0.1-0.4,0.1v-2.7c0.3,0,0.5,0.1,0.6,0.3
	C42.2,16.6,42.4,17,42.3,17.6z M46.7,15l-1.7,7.2h1.1l0.4-1.5h1.5l0.4,1.5h1.1L47.7,15L46.7,15L46.7,15z M47.7,19.7h-1l0.5-2.1
	L47.7,19.7L47.7,19.7z M49.8,16.2h1.4l0,6.1h1.1l0-6.1h1.4V15h-3.9V16.2z M56.2,22.3V15h-1.1v7.2C55.1,22.3,56.2,22.3,56.2,22.3z
	 M60.5,15l0,3.1h-1.3l0-3.1l-1.1,0l0,7.2h1.1l0-3h1.3l0,3h1.1l0-7.2C61.6,15,60.5,15,60.5,15z M3.3,28.1c-0.6-0.3-1-0.5-1-1.1
	c0-0.4,0.1-0.7,0.3-0.8c0.4-0.2,1,0,1.3,0.2l0.7-0.9C4.4,25.3,4,25.1,3.6,25c-0.5-0.1-1,0-1.3,0.2c-0.4,0.2-1,0.7-1,1.8
	c0,1.2,0.9,1.7,1.5,2.1c0.7,0.4,1,0.6,1,1.2c0,0.5-0.2,0.8-0.6,1c-0.4,0.1-1,0-1.3-0.4l-0.9,0.6c0.4,0.6,1.1,0.9,1.9,0.9
	c0.2,0,0.4,0,0.7-0.1c0.8-0.3,1.3-1,1.3-2C5,29,4,28.5,3.3,28.1L3.3,28.1z M7.9,25.1l-1.7,7.2h1.1l0.4-1.5h1.5l0.4,1.5h1.1l-1.7-7.2
	H7.9L7.9,25.1z M8.9,29.8h-1l0.5-2.1L8.9,29.8L8.9,29.8z M13.1,25c-0.2,0-0.4,0-0.4,0l-0.5,0l0,7.3h1.1v-3.1c0.4,0,1-0.1,1.5-0.5
	c0.4-0.4,0.6-0.9,0.6-1.6c0-0.7-0.2-1.2-0.6-1.6C14.2,25,13.4,25,13.1,25z M13.9,27.9c-0.2,0.2-0.5,0.2-0.7,0.3v-2
	c0.3,0,0.6,0,0.8,0.2c0.2,0.2,0.2,0.4,0.2,0.8C14.2,27.5,14.1,27.7,13.9,27.9L13.9,27.9z M16.4,26.2h1.4l0,6.1h1.1l0-6.1h1.4v-1.1
	h-3.9V26.2z M22.3,25.1l-1.7,7.2h1.1l0.4-1.5h1.5l0.4,1.5h1.1l-1.7-7.2H22.3L22.3,25.1z M23.4,29.8h-1l0.5-2.1L23.4,29.8L23.4,29.8z
	 M29.5,25.1l0,4.4l-1.8-4.4l0,0h-1.1v7.2h1.1V28l1.8,4.3l0,0h1.1l0-7.3C30.6,25.1,29.5,25.1,29.5,25.1z M35.2,25.7
	c-0.7-0.6-1.5-0.6-1.8-0.6c-0.1,0-0.4,0-0.4,0l-0.5,0l0,7.3l0.6,0c0.1,0,0.4,0,0.5,0c0,0,0,0,0.1,0c0.7,0,1.3-0.2,1.8-0.7
	c0.6-0.6,1-1.6,1-3C36.4,27.3,36,26.3,35.2,25.7L35.2,25.7z M35.3,28.6c0,1-0.2,1.8-0.6,2.2c-0.3,0.3-0.6,0.4-1,0.4l0-5.1
	c0.2,0,0.6,0.1,0.9,0.4C35,26.9,35.3,27.6,35.3,28.6L35.3,28.6z M39.2,25.1l-1.7,7.2h1.1l0.4-1.5h1.5l0.4,1.5h1.1l-1.7-7.2H39.2
	L39.2,25.1z M40.2,29.8h-1l0.5-2.1L40.2,29.8L40.2,29.8z M45.5,29.6C45.5,29.6,45.6,29.6,45.5,29.6c0.3-0.2,0.5-0.3,0.6-0.5
	c0.3-0.4,0.5-0.9,0.5-1.4c0-0.9-0.2-1.7-0.7-2.1C45.5,25.2,45,25,44.4,25c-0.2,0-0.4,0-0.4,0l-0.5,0l0,7.3h1.1l0-2.2
	c0.2,0.4,0.8,1.4,1.2,2.2l0,0H47L45.5,29.6C45.5,29.6,45.5,29.6,45.5,29.6L45.5,29.6z M45.5,27.7c0,0.5-0.2,0.8-0.5,1
	c-0.2,0.1-0.3,0.1-0.4,0.1v-2.7c0.3,0,0.5,0.1,0.6,0.3C45.4,26.6,45.5,27.1,45.5,27.7z M49.6,32.4v-7.2h-1.1v7.2H49.6z M51.2,31.2
	v1.1h0.3l-0.3,0.5h0.5l0.4-0.5h0v-1.1H51.2z M60.3,28.1c-0.6-0.3-1-0.5-1-1.1c0-0.4,0.1-0.7,0.3-0.8c0.4-0.2,1,0,1.3,0.2l0.7-0.9
	c-0.3-0.2-0.7-0.4-1.2-0.5c-0.5-0.1-1,0-1.3,0.2c-0.4,0.2-1,0.7-1,1.8c0,1.2,0.9,1.7,1.5,2.1c0.7,0.4,1,0.6,1,1.2
	c0,0.5-0.2,0.8-0.6,1c-0.4,0.1-1,0-1.3-0.4l-0.9,0.6c0.4,0.6,1.1,0.9,1.9,0.9c0.2,0,0.4,0,0.7-0.1c0.8-0.3,1.3-1,1.3-2
	C62,29,61,28.4,60.3,28.1L60.3,28.1z M64.3,32.4v-1.1h-1v1.1H64.3z M67,32.4v-7.2h-1.1v7.2H67z M69.7,32.4v-1.1h-1v1.1H69.7z
	 M72.3,25c-0.2,0-0.4,0-0.4,0l-0.5,0l0,7.3h1.1v-3.1c0.4,0,1-0.1,1.5-0.5c0.4-0.4,0.6-0.9,0.6-1.6c0-0.7-0.2-1.2-0.6-1.6
	C73.4,25,72.6,25,72.3,25z M73.1,27.9c-0.2,0.2-0.5,0.2-0.7,0.3v-2c0.3,0,0.6,0,0.8,0.2c0.2,0.2,0.2,0.4,0.2,0.8
	C73.4,27.5,73.3,27.7,73.1,27.9L73.1,27.9z M78.7,30.4c0,0.5-0.4,1-0.8,1c-0.5,0-0.8-0.4-0.8-1v-5.2H76v5.2c0,1.1,0.9,2.1,1.9,2.1
	c1.1,0,1.9-0.9,1.9-2.1v-5.2h-1.1L78.7,30.4L78.7,30.4z M83.6,28.1c-0.6-0.3-1-0.5-1-1.1c0-0.4,0.1-0.7,0.3-0.8c0.4-0.2,1,0,1.3,0.2
	l0.7-0.9c-0.3-0.2-0.7-0.4-1.2-0.5c-0.5-0.1-1,0-1.3,0.2c-0.4,0.2-1,0.7-1,1.8c0,1.2,0.9,1.7,1.5,2.1c0.7,0.4,1,0.6,1,1.2
	c0,0.5-0.2,0.8-0.6,1c-0.4,0.1-1,0-1.3-0.4l-0.9,0.6c0.4,0.6,1.1,0.9,1.9,0.9c0.2,0,0.4,0,0.7-0.1c0.8-0.3,1.3-1,1.3-2
	C85.2,29,84.2,28.4,83.6,28.1L83.6,28.1z M86.3,26.2h1.4l0,6.1h1.1l0-6.1h1.4v-1.1h-3.9V26.2z M92.3,32.4v-1.1h-1v1.1H92.3z"/>
<path class="st1" d="M33.3,6.5c-0.6,0.1-1.3,0.1-1.9,0.2c-0.7,0.1-1.4,0.2-2.1,0.1c-0.6-0.1-0.9,0.2-1.2,0.7
	c-0.4,0.7-0.8,1.4-0.9,2.2c0,0.2,0,0.3,0.1,0.4c0.1,0.1,0.3,0,0.4,0c0.2-0.2,0.5-0.3,0.6-0.6c0.2-0.4,0.5-0.6,0.9-0.7
	c1-0.2,2-0.5,2.9-0.9c0.2-0.1,0.3-0.1,0.5-0.1c0.2,0,0.4,0.1,0.5,0.3c0.1,0.2,0.1,0.4-0.1,0.6c-0.1,0.2-0.3,0.3-0.4,0.5
	c-0.2,0.3-0.2,0.6-0.1,0.7c0.2,0.2,0.4,0.3,0.6,0.2c0.6-0.2,1.3-0.3,1.8-0.7c0.6-0.4,1.1-0.9,1.7-1.4C37.4,7.5,37.7,7,38,6.4
	c0.5-1.3,1.3-2.3,2.1-3.4c0.4-0.6,1-1,1.5-1.5c0.2-0.2,0.4-0.2,0.6-0.1c0.2,0.1,0.3,0.4,0.3,0.6c0,0.1,0,0.2,0,0.2
	c-0.4,1.2-0.7,2.5-1.9,3.2c-0.2,0.1-0.4,0.3-0.6,0.4c-0.5,0.4-1,0.9-1.2,1.6c-0.1,0.1-0.1,0.3,0,0.4C38.8,8.1,39,8,39.1,8
	c0.1,0,0.3-0.1,0.4-0.2c0.3-0.1,0.5,0,0.7,0.1c0.4,0.2,0.7,0.5,0.5,1c-0.1,0.3-0.2,0.6-0.4,0.9c-0.2,0.4,0.1,0.8,0.5,0.7
	c0.7-0.1,1.4-0.1,2-0.5c0.5-0.3,1.1-0.4,1.6-0.5c0.7-0.2,1.3,0,1.9,0.4c0.3,0.2,0.6,0.4,1,0.1c0.2-0.1,0.3,0,0.5,0.2
	c0.2,0.3,0.3,0.7,0.1,0.9c-0.1,0.2-0.3,0.2-0.5,0.2c-0.3-0.1-0.6-0.2-0.9-0.4c-0.8-0.6-1.7-0.7-2.6-0.3c-0.2,0.1-0.5,0.2-0.7,0.3
	c-0.8,0.5-1.7,0.5-2.6,0.6c-0.2,0-0.4,0-0.5-0.1c-0.5-0.2-0.8-0.6-0.7-1.2c0.1-0.3,0.2-0.7,0.3-1c0-0.2-0.2-0.4-0.4-0.4
	c-0.4,0.1-0.8,0.3-1.1,0.7c-0.3,0.3-0.6,0.6-0.9,0.7c-0.4,0.2-0.6,0.1-0.8-0.4c0-0.1-0.1-0.2-0.1-0.3c-0.1-0.1-0.2-0.2-0.3-0.1
	c-0.2,0.1-0.4,0.2-0.5,0.4c-0.4,0.5-1,0.7-1.6,1c-0.6,0.3-1.1,0.2-1.7,0c-0.4-0.2-0.6-0.5-0.6-1c0-0.2,0-0.4,0-0.6
	c0-0.2-0.2-0.4-0.4-0.3c-0.8,0.2-1.6,0.3-2.2,1.1c-0.4,0.5-1,0.8-1.5,1c-0.1,0-0.1,0.1-0.2,0.1c-0.8,0.3-1.2,0-1.2-0.9
	c0-0.4,0-0.8,0-1.2c0-0.2-0.2-0.3-0.3-0.2c-0.1,0-0.3,0.1-0.4,0.2c-0.5,0.4-0.9,0.8-1.4,1.2c-0.5,0.4-1,0.8-1.4,1.2
	c-0.5,0.4-1.4,0.3-2-0.1c-0.2-0.2-0.3-0.4-0.4-0.7c-0.1-0.3-0.4-0.4-0.6-0.2c-0.5,0.4-1.1,0.7-1.7,1c-0.2,0.1-0.4,0.2-0.6,0.3
	c-0.8,0.3-1.2,0-1.5-0.8c-0.2-0.5-0.2-0.5-0.6-0.3c-0.9,0.5-1.8,0.9-2.8,1.1c-0.3,0.1-0.6,0.1-0.9,0.2c-0.7,0.2-1.2-0.1-1.7-0.5
	c-0.5-0.4-0.8-1-0.7-1.8c0-0.1,0-0.2,0-0.2c0-0.4-0.2-0.5-0.5-0.5C8.5,8.8,8.3,8.9,8.1,9C7.7,9,7.4,8.9,7.3,8.6
	C7.2,8.4,7.3,8.1,7.5,7.8c0.6-0.5,1.3-0.7,2-0.5c0.5,0.2,0.9,0.2,1.3-0.1c0.9-0.6,1.8-1.2,2.5-2c0.4-0.5,0.7-1.1,1.1-1.7
	c0.1-0.2,0-0.5-0.3-0.5c-0.2-0.1-0.4-0.1-0.6,0c-0.9,0.2-1.9,0.3-2.7,0.8c-0.7,0.4-1.5,0.6-2.2,1C8,5.3,7.4,5.8,6.9,6.5
	C6.5,7.1,6,7.7,5.5,8.3c-0.7,1-1.4,2-2.1,3c-0.4,0.7-1,1.2-1.6,1.7c-0.1,0.1-0.3,0.1-0.5,0c-0.3-0.2-0.5-0.3-0.8-0.4
	c-0.7-0.3-0.7-1.1-0.4-1.6c0.3-0.4,0.6-0.7,1-1c1-0.9,1.9-1.8,2.9-2.7c0.2-0.2,0.4-0.3,0.6-0.4C5.9,6.1,6.8,5,7.4,3.7
	c0.1-0.2,0.2-0.3,0.2-0.5C7.7,2.7,8,2.3,8.3,2c0.1-0.1,0.1-0.2,0.2-0.3c0.1-0.1,0.1-0.3,0-0.4C8.4,1.1,8.3,1,8.2,1.1
	C8,1.1,7.7,1.2,7.5,1.3c-0.2,0.1-0.4,0.1-0.6,0C6.5,1.1,6.4,0.8,6.5,0.4C6.6,0.1,6.8-0.1,7.1,0c0.3,0.1,0.6,0.1,0.9,0
	c1-0.3,1.8,0.6,1.4,1.6C9.3,2.1,9,2.5,8.8,2.9C8.7,3.2,8.3,3.5,8.6,3.8c0.3,0.2,0.5-0.1,0.8-0.2c0.9-0.6,1.9-0.9,2.9-1.2
	c0.9-0.3,1.9-0.2,2.8-0.1c0.3,0,0.4,0.2,0.3,0.6c-0.3,1.5-1.1,2.7-2.2,3.7c-0.8,0.6-1.5,1.3-2.4,1.7c-0.1,0-0.2,0.1-0.3,0.2
	c-0.2,0.3-0.2,1.6,0,1.9c0.2,0.3,0.5,0.4,0.8,0.4c0.3,0,0.5,0,0.8-0.1c0.8-0.2,1.5-0.5,2.3-0.7c0.7-0.2,1.3-0.7,1.8-1.3
	c0.4-0.6,1-1,1.5-1.4c0.9-0.6,1.8-0.6,2.8-0.1c0.3,0.2,0.6,0.3,1,0.4c0.3,0,0.5,0.4,0.4,0.7c-0.2,0.5-0.4,1-0.6,1.6
	c-0.2,0.5,0.2,0.9,0.6,0.8c0.4-0.1,0.7-0.3,1.1-0.5c0.7-0.6,1.4-1.3,2.2-1.8c0.4-0.2,0.8-0.6,1.2-0.6c0.1,0,0.2-0.1,0.3-0.1
	C26.9,7.5,27,7.3,27,7c0-0.2-0.3-0.4-0.5-0.3c-0.4,0-0.9,0.1-1.3,0.1c-0.3,0-0.5,0-0.8-0.1c-0.1,0-0.2-0.2-0.2-0.4
	c0-0.1,0.1-0.2,0.2-0.2C24.9,6,25.3,6,25.7,6c0.5,0,1,0,1.5,0c0.4,0,0.7-0.2,0.9-0.6c0.2-0.5,0.5-0.8,0.9-1.1c0.5-0.4,0.8-1,1.1-1.6
	c0.3-0.6,0.7-0.8,1.2-1.1c0.2-0.2,0.6,0,0.8,0.2c0.2,0.2,0.2,0.5,0,0.8c-0.8,0.8-1.3,1.9-2.2,2.6c-0.1,0.1-0.2,0.2-0.3,0.3
	c-0.1,0.1,0,0.3,0.2,0.4c0.3,0.1,0.6,0,0.9,0c0.5-0.1,1.1-0.2,1.6-0.1c0.3,0.1,0.5-0.1,0.6-0.3c0.6-0.9,1.5-0.8,2.3-0.9
	c0.3,0,0.6,0.5,0.5,0.8c-0.2,0.7-0.5,1.2-1.1,1.2c-0.2,0-0.4,0-0.5,0S33.5,6.6,33.3,6.5C33.3,6.5,33.3,6.5,33.3,6.5L33.3,6.5
	L33.3,6.5L33.3,6.5z M20.4,8.9C20.5,8.4,20.2,8,19.8,8c-1.4-0.1-2.4,0.8-2.8,2.3c-0.1,0.2,0.2,0.5,0.4,0.4c0.9-0.4,1.8-0.7,2.6-1.3
	c0.1-0.1,0.2-0.1,0.2-0.2C20.4,9.1,20.4,8.9,20.4,8.9L20.4,8.9L20.4,8.9L20.4,8.9z M1.4,12.1c0,0,0.2,0,0.3-0.1
	c0.1-0.1,0.3-0.2,0.4-0.4c0.4-0.7,0.9-1.3,1.5-1.9c0,0,0.1-0.1,0.1-0.1c0-0.1,0-0.2,0-0.3c0-0.1-0.2-0.1-0.3-0.1
	C3.2,9.3,3,9.4,2.8,9.5c-0.6,0.6-1.1,1.1-1.7,1.7C1.1,11.4,1,11.5,1,11.6C0.8,11.8,1,12.1,1.4,12.1L1.4,12.1L1.4,12.1z M40.4,4.8
	c0.3,0,0.5-0.3,0.6-0.5c0.3-0.4,0.4-1,0.2-1c-0.3,0-0.5,0.3-0.6,0.5c-0.2,0.2-0.4,0.5-0.4,0.8C40.1,4.7,40.2,4.8,40.4,4.8L40.4,4.8
	C40.4,4.8,40.4,4.8,40.4,4.8z"/>
</svg>
