<svg xml:space="preserve" style="max-height: 500px" viewBox="0 0 225.88036253776437 136.7604" y="0px" x="0px" xmlns:xlink="http://www.w3.org/1999/xlink" xmlns="http://www.w3.org/2000/svg" id="Layer_1" version="1.1" width="225.88036253776437" height="136.7604">
<style type="text/css">
	.st0{fill-rule:evenodd;clip-rule:evenodd;fill:#A48B50;}
	.st1{fill:#D6C59C;}
	.st2{fill:#FFFFFF;}
</style>
<g id="Layer_x0020_1">
	<path d="M10.3,0h204.6c5.7,0,10.3,4.6,10.3,10.3v115.9c0,5.7-4.6,10.3-10.3,10.3H10.3c-5.7,0-10.3-4.6-10.3-10.3V10.3&#10;&#9;&#9;C0,4.6,4.6,0,10.3,0z" class="st0"/>
	<g id="_105554128187712">
		<path d="M169.4,74.7c-0.7,0.3-1.3,0.9-1.9,1.4c-0.7,0.5-1.1,1.2-1,2.1c0,0.9,0.6,1.3,1.5,1.2c0.3-0.1,0.5-0.2,0.8-0.3&#10;&#9;&#9;&#9;c0.7-0.4,1.5-0.5,2.2-0.8c0.3-0.1,0.5,0.1,0.6,0.3c0.1,0.2,0.2,0.4,0.1,0.6c-0.1,0.2-0.2,0.3-0.3,0.4c-0.6,0.7-0.7,1.5-0.9,2.4&#10;&#9;&#9;&#9;c-0.1,0.7,0.2,1,0.9,1.1c0.4,0,0.8,0,1.1-0.2c0.6-0.3,1.3-0.5,1.8-1c0.2-0.1,0.3-0.3,0.5-0.4c0.4-0.2,1.1-0.1,1.3,0.6&#10;&#9;&#9;&#9;c0.1,0.4,0.2,0.7,0.3,1.1c0.3,0.7,0.7,0.8,1.4,0.6c1.3-0.4,2-1.4,2.5-2.5c0.2-0.3,0.2-0.7,0.1-1.1c-0.1-0.3-0.3-0.4-0.5-0.4&#10;&#9;&#9;&#9;c-0.2,0-0.4,0.2-0.4,0.4c-0.1,0.7-0.3,1.4-0.7,2c-0.5,0.8-1.3,0.7-1.8-0.1c-0.2-0.4-0.3-0.8-0.5-1.1c-0.3-0.6-0.8-0.8-1.3-0.5&#10;&#9;&#9;&#9;c-0.2,0.1-0.4,0.2-0.6,0.4c-0.4,0.3-0.9,0.6-1.3,0.9c-0.3,0.2-0.6,0.2-0.9,0c-0.6-0.4-0.7-0.9-0.4-1.5c0.1-0.2,0.3-0.5,0.5-0.7&#10;&#9;&#9;&#9;c0.2-0.4,0.4-0.8,0.5-1.3c0.1-0.5-0.3-1.1-0.9-1.1c-0.2,0-0.3,0-0.5,0.1c-0.4,0.1-0.8,0.3-1.3,0.5c-0.3,0.1-0.7,0.3-1,0.4&#10;&#9;&#9;&#9;c-0.4,0.1-0.9-0.1-1-0.5c-0.2-0.3,0-0.6,0.2-0.9c0.2-0.3,0.6-0.6,0.9-0.8c0.6-0.3,1.1-0.7,1.7-1.1c0.4-0.2,0.7-0.5,1-0.9&#10;&#9;&#9;&#9;c0.3-0.6,0.1-1.2-0.6-1.3c-0.2,0-0.5,0-0.7,0c-0.5,0-1,0-1.5,0.1c-0.4,0-0.8-0.1-1-0.4c-0.2-0.5,0.2-0.8,0.5-1&#10;&#9;&#9;&#9;c0.5-0.4,1-0.8,1.7-1c1.1-0.3,2-0.9,2.9-1.5c0.7-0.4,0.7-0.8,0.4-1.5c-0.2-0.4-0.5-0.7-0.7-1c-0.2-0.2-0.4-0.5-0.6-0.8&#10;&#9;&#9;&#9;c-0.2-0.3-0.2-0.6,0-0.9c0.6-0.7,1.4-1.2,2.4-1.1c1.3,0.1,2.3,0.8,2.7,2.2c0.1,0.2,0.1,0.4,0.2,0.6c0.1,0.1,0.2,0.3,0.3,0.3&#10;&#9;&#9;&#9;c0.2,0.1,0.5,0.1,0.7-0.1c0.2-0.2,0.3-0.4,0.2-0.7c-0.3-0.8-0.1-1.5,0.3-2.3c0.1-0.2,0.2-0.4,0.3-0.5c0.4-1.1,1.2-1.8,2.2-2.3&#10;&#9;&#9;&#9;c0.4-0.2,0.9-0.6,1.4-0.2c0.4,0.3,0.2,0.9,0.1,1.3c-0.1,0.6-0.3,1.2-0.4,1.8c-0.1,0.3-0.1,0.6,0,1c0.2,0.4,0.6,0.7,1,0.4&#10;&#9;&#9;&#9;c0.5-0.3,1-0.7,1.5-1c0.4-0.3,0.8-0.5,1.2-0.6c0.5-0.2,0.9,0.2,0.7,0.6c-0.2,0.5-0.2,1.1-0.6,1.6c-0.3,0.5-0.1,0.8,0.5,1&#10;&#9;&#9;&#9;c0.6,0.2,1.2,0.1,1.8-0.2c0.4-0.2,0.7-0.4,1.1-0.5c0.2-0.1,0.5-0.1,0.7-0.1c0.4,0,0.7,0.4,0.6,0.8c-0.1,0.2-0.2,0.5-0.3,0.7&#10;&#9;&#9;&#9;c-0.3,0.6-0.7,1.1-1,1.7c-0.2,0.3-0.4,0.6-0.2,0.9c0.2,0.3,0.6,0.2,0.9,0.2c0.2,0,0.4,0,0.7-0.1l0,0c0.5,0.1,1.2-0.1,1.7,0.2&#10;&#9;&#9;&#9;c0.4,0.2,0.5,0.6,0.1,0.8c-0.6,0.3-1.1,0.7-1.7,0.9c-0.5,0.2-1.1,0.4-1.6,0.7c-0.9,0.5-1,1.4-0.4,2.2c0.2,0.3,0.5,0.7,0.7,1&#10;&#9;&#9;&#9;c0.1,0.2,0.2,0.4,0.2,0.6c0.1,0.4-0.3,0.7-0.7,0.6c-0.2-0.1-0.5-0.2-0.7-0.3c-0.5-0.2-0.9,0.1-1.2,0.4c-0.3,0.3-0.4,0.7-0.2,1.1&#10;&#9;&#9;&#9;c0.2,0.4,0.4,0.8,0.5,1.3c0.1,0.3,0.3,0.6,0,0.9c-0.3,0.2-0.6,0.2-0.9,0.1c-0.2-0.1-0.4-0.2-0.5-0.3c-0.5-0.4-0.9-0.7-1.1-1.3&#10;&#9;&#9;&#9;c-0.2-0.5-0.5-0.9-0.8-1.2c-0.2-0.2-0.3-0.4-0.5-0.6c-0.1-0.1-0.1-0.3,0-0.5c0.2-0.2,0.4-0.2,0.5-0.1c0.3,0.2,0.5,0.4,0.8,0.6&#10;&#9;&#9;&#9;c0.2,0.1,0.4,0,0.5-0.2c0.1-0.1,0.2-0.4,0-0.4c-0.6-0.3-1.1-0.8-1.7-1.1c-0.4-0.2-1,0-1.3,0.3c-0.3,0.3-0.3,0.9-0.1,1.3&#10;&#9;&#9;&#9;c0.1,0.2,0.3,0.4,0.4,0.6c0.5,0.6,0.9,1.2,1.3,2c0.4,0.9,1.2,1.5,2.2,1.8c0.4,0.1,0.9,0.1,1.3,0c0.6-0.2,0.8-0.7,0.7-1.3&#10;&#9;&#9;&#9;c0-0.2-0.1-0.5-0.2-0.7c-0.1-0.2-0.2-0.4-0.2-0.6c-0.2-0.6,0-0.9,0.6-0.8c0.2,0,0.5,0.1,0.7,0.1c0.6,0.1,1-0.2,1.3-0.7&#10;&#9;&#9;&#9;c0.2-0.3,0.3-0.7,0.1-1.1c-0.2-0.5-0.5-1-0.7-1.4c-0.4-0.9-0.2-1.5,0.7-2c0.3-0.1,0.5-0.2,0.8-0.3c0.7-0.3,1.3-0.7,1.9-1.2&#10;&#9;&#9;&#9;c0.6-0.5,0.5-1.1-0.1-1.6c-0.2-0.1-0.3-0.2-0.5-0.3c-0.4-0.2-0.9-0.3-1.4-0.3c-0.6,0-0.9-0.5-0.6-1c0.2-0.4,0.5-0.8,0.7-1.2&#10;&#9;&#9;&#9;c0.3-0.7,0.1-1.2-0.5-1.6c-0.6-0.4-1.2-0.5-1.9-0.1c-0.4,0.2-0.8,0.4-1.2,0.6c-0.3,0.2-0.7,0-0.8-0.3c-0.1-0.2-0.1-0.4,0-0.6&#10;&#9;&#9;&#9;c0.1-0.2,0.2-0.4,0.2-0.6c0.2-0.8-0.2-1.5-1.1-1.6c-0.6-0.1-1.1,0-1.5,0.4c-0.3,0.2-0.5,0.4-0.8,0.6c-0.2,0.1-0.4,0.2-0.6,0&#10;&#9;&#9;&#9;c-0.2-0.1-0.2-0.4-0.1-0.6c0.1-0.4,0.2-0.8,0.3-1.2c0.1-0.3,0.2-0.6,0.2-1c0-1-0.8-1.7-1.8-1.3c-1.9,0.6-3.5,1.7-4.1,3.8&#10;&#9;&#9;&#9;c-0.1,0.2-0.1,0.3-0.2,0.5c-0.1,0.2-0.5,0.3-0.6,0.2c-0.2-0.2-0.5-0.3-0.7-0.5c-1.2-1.2-3.7-1.1-5,0.3c-0.8,0.9-0.8,1.7,0,2.6&#10;&#9;&#9;&#9;c0.3,0.3,0.6,0.7,0.9,1c0.3,0.4,0.2,0.7-0.2,0.9c-0.2,0.1-0.5,0.2-0.8,0.4c-1,0.4-2.1,0.8-3.1,1.2c-0.8,0.3-1.4,0.9-1.8,1.6&#10;&#9;&#9;&#9;c-0.2,0.4-0.2,0.9,0.1,1.1c0.6,0.4,1.2,0.9,2,0.8c0.3,0,0.7,0,1,0.1c0.4,0.1,0.6,0.6,0.3,0.9C169.9,74.3,169.7,74.5,169.4,74.7&#10;&#9;&#9;&#9;L169.4,74.7L169.4,74.7z" class="st1"/>
		<path d="M193.6,73.3c-0.3,0.4-0.4,0.8,0,1.2c0.3,0.4,0.8,0.8,1.1,1.1c0.2,0.2,0.3,0.5,0.1,0.8&#10;&#9;&#9;&#9;c-0.1,0.3-0.3,0.5-0.7,0.5c-0.2,0-0.4,0-0.6,0c-0.4,0-0.7,0.1-1.1,0.2c-0.6,0.2-0.9,0.7-0.9,1.3c0,0.6,0.2,1.1,0.8,1.5&#10;&#9;&#9;&#9;c0.3,0.2,0.7,0.3,1,0.5c0.8,0.5,1.3,0.7,0.5,1.7c-0.1,0.1-0.1,0.2-0.2,0.3c-0.1,0.2-0.1,0.3,0,0.5c0.5,1.2,1.7,1.8,3,1.5&#10;&#9;&#9;&#9;c0.2,0,0.3-0.2,0.3-0.4c0-0.2-0.1-0.3-0.3-0.3c-0.3,0-0.7,0-1-0.1c-0.8-0.2-1.1-0.8-0.7-1.6c0.1-0.1,0.1-0.2,0.2-0.3&#10;&#9;&#9;&#9;c0.2-0.5,0.2-0.9-0.2-1.3c-0.4-0.4-0.8-0.7-1.3-1c-0.3-0.1-0.5-0.2-0.8-0.4c-0.3-0.2-0.4-0.4-0.3-0.7c0-0.3,0.2-0.4,0.5-0.5&#10;&#9;&#9;&#9;c0.3-0.1,0.6-0.1,0.8-0.2c0.6,0,1.2,0,1.9,0c0.4,0,0.8-0.1,1-0.6c0.2-0.4,0-0.8-0.2-1.1c-0.3-0.4-0.7-0.7-1.1-1&#10;&#9;&#9;&#9;c-0.2-0.2-0.4-0.4-0.6-0.6c-0.1-0.1-0.1-0.3,0-0.5c0.1-0.2,0.3-0.3,0.5-0.3c0.2,0.1,0.5,0.1,0.7,0.3c0.7,0.4,1.4,0.5,2.1,0.8&#10;&#9;&#9;&#9;c0.4,0.2,0.8,0.2,1.2,0.1c0.5-0.1,0.7-0.4,0.7-0.8c-0.1-0.6-0.3-1.1-0.6-1.6c-0.2-0.3-0.4-0.7-0.6-1.1c-0.2-0.5,0.1-0.8,0.5-0.7&#10;&#9;&#9;&#9;c1.5,0.3,2.7,1,3.6,2.4c0.2,0.2,0.3,0.5,0.4,0.8c0.2,0.3,0.6,0.4,0.8,0.1c0.4-0.5,0.9-1,1.1-1.6c0.2-0.5,0.5-0.9,0.8-1.2&#10;&#9;&#9;&#9;c0.2-0.2,0.5-0.3,0.8-0.3c0.8,0,1.4,0.4,2,0.9c0.4,0.4,0.6,1,0.1,1.5c-0.1,0.1-0.2,0.2-0.2,0.3c-0.5,1-0.5,2,0.8,2.5&#10;&#9;&#9;&#9;c0.6,0.2,1.3,0.4,2,0.3l0,0c0.3,0,0.6,0,0.9,0.1c0.9,0.1,1.6,0.6,2.2,1.2c0.3,0.3,0.2,0.6-0.2,0.8c-0.3,0.1-0.5,0.2-0.8,0.3&#10;&#9;&#9;&#9;c-0.6,0.1-1,0.4-1.1,1c-0.1,0.6,0.4,0.8,0.9,1.1c0.5,0.3,1.1,0.6,1.6,0.9c0.8,0.4,1.4,1,1.9,1.7c0.4,0.5,0.4,0.8,0.1,1.1&#10;&#9;&#9;&#9;c-0.3,0.3-0.7,0.2-1,0c-0.5-0.3-1-0.4-1.5-0.4c-0.6,0-0.9,0.4-0.7,1c0.1,0.2,0.2,0.4,0.3,0.5c0.4,0.6,0.9,1.2,1.3,1.8&#10;&#9;&#9;&#9;c0.3,0.3,0.5,0.7,0.6,1.1c0.1,0.3,0,0.7-0.3,0.9c-0.3,0.2-0.6,0.3-0.9,0.2c-0.1,0-0.2-0.1-0.3-0.2c-0.6-0.5-1.4-0.6-2-1&#10;&#9;&#9;&#9;c-0.3-0.2-0.7-0.2-1.1-0.1c-0.5,0.1-0.9,0.7-0.7,1.3c0.2,0.4,0.3,0.8,0.6,1.2c0.5,0.7,0.4,1.8-0.2,2.5c-0.2,0.2-0.4,0.3-0.7,0.2&#10;&#9;&#9;&#9;c-1.2-0.4-1.8-1.3-2.4-2.3c-0.1-0.2-0.1-0.4-0.1-0.6c0-0.1,0-0.2,0-0.4c-0.1-0.4-0.4-0.7-0.7-0.8c-0.4-0.1-0.8,0.1-1,0.4&#10;&#9;&#9;&#9;c-0.3,0.5-0.6,1-0.8,1.7c-0.2,0.6-1,1.2-1.6,1.2c-0.5,0-0.8-0.3-0.7-0.8c0-0.3,0.1-0.6,0.2-1c0.1-0.5,0.1-1,0-1.5&#10;&#9;&#9;&#9;c-0.2-0.7-0.7-1-1.4-0.7c-0.1,0-0.2,0.1-0.3,0.2c-0.7,0.2-1.2-0.2-1.2-0.8c0-0.5-0.1-1.1-0.2-1.6c-0.1-0.6-0.4-1.1-1-1.5&#10;&#9;&#9;&#9;c-0.3-0.2-0.6-0.1-0.8,0.3c-0.1,0.2-0.1,0.5,0.2,0.6c0.7,0.2,0.9,0.7,0.9,1.3c0,0.3,0,0.7,0,1c0,0.8,0.2,1.5,0.4,2.3&#10;&#9;&#9;&#9;c0.1,0.4,0.4,0.5,0.8,0.3c0.3-0.1,0.6-0.4,0.8-0.6c0.1-0.2,0.3-0.3,0.5-0.4c0.1-0.1,0.3-0.1,0.5,0c0.1,0.1,0.2,0.2,0.2,0.3&#10;&#9;&#9;&#9;c0,0.2-0.1,0.3-0.1,0.5c-0.1,0.5-0.2,1-0.3,1.4c-0.1,0.8,0.3,1.3,1,1.4c1.2,0.3,2.5-0.4,3-1.6c0.1-0.2,0.1-0.3,0.2-0.5&#10;&#9;&#9;&#9;c0.1-0.2,0.5-0.3,0.6-0.1c0.1,0.2,0.2,0.3,0.3,0.5c0.1,0.5,0.5,0.8,0.8,1.1c0.5,0.5,1.1,0.9,1.7,1.2c0.7,0.4,1.2,0.3,1.8-0.2&#10;&#9;&#9;&#9;c0.5-0.5,0.8-1,0.8-1.7c0-0.7-0.2-1.4-0.5-2c-0.2-0.3,0.1-0.7,0.5-0.6c0.3,0,0.6,0.1,0.9,0.3c0.4,0.3,0.9,0.5,1.4,0.5&#10;&#9;&#9;&#9;c0.7,0.1,1.3,0,1.8-0.6c0.5-0.6,0.6-1.1,0.3-1.8c-0.2-0.6-0.6-1-1-1.5c-0.2-0.2-0.4-0.4-0.5-0.5c-0.1-0.2-0.1-0.4,0-0.6&#10;&#9;&#9;&#9;c0.1-0.2,0.3-0.2,0.4-0.2c0.3,0.1,0.5,0.2,0.8,0.3c0.5,0.2,1,0.3,1.6,0.2c0.6-0.1,0.9-0.6,0.6-1.1c-1-1.9-2.4-3.3-4.4-4.2&#10;&#9;&#9;&#9;c-0.2-0.1-0.3-0.1-0.4-0.2c-0.2-0.1-0.1-0.5,0-0.5c0.3-0.1,0.7-0.2,1-0.4c0.7-0.3,0.9-1.2,0.5-1.8c-0.9-1.2-2.1-2-3.8-2&#10;&#9;&#9;&#9;c-0.7,0-1.3,0-1.9-0.3c-0.4-0.2-0.6-0.6-0.4-1c0.1-0.3,0.3-0.5,0.4-0.7c0.4-0.5,0.3-1.1,0-1.6c-0.7-1.3-1.8-1.7-3.1-1.8&#10;&#9;&#9;&#9;c-0.5,0-1,0.2-1.3,0.5c-0.4,0.5-0.9,0.9-1.1,1.5c-0.1,0.2-0.2,0.4-0.3,0.5c-0.2,0.3-0.6,0.4-0.8,0c-0.4-1-1.2-1.4-2-2&#10;&#9;&#9;&#9;c-0.8-0.6-1.7-0.7-2.7-0.8c-0.3,0-0.5,0.2-0.7,0.5c-0.1,0.3-0.2,0.6-0.1,0.8c0.2,0.5,0.3,1.1,0.7,1.6c0.1,0.2,0.3,0.3,0.4,0.5&#10;&#9;&#9;&#9;c0.1,0.1,0.2,0.3,0.2,0.4c0.1,0.2-0.1,0.5-0.4,0.5c-0.8-0.2-1.5-0.5-2.2-0.8c-0.7-0.3-1.5-0.4-2.3-0.4&#10;&#9;&#9;&#9;C194,73,193.8,73.1,193.6,73.3L193.6,73.3L193.6,73.3z" class="st1"/>
		<path d="M206.3,78.4c-0.1-0.9-0.5-1.6-1.4-2c-0.8-0.4-1.5-0.3-2.2,0.2c-0.8,0.6-1.3,1.4-1.4,2.5c-0.1,0.9,0,1.9,0,2.8&#10;&#9;&#9;&#9;l0,0c0,0.2,0,0.4,0,0.6c0,0.2,0.1,0.3,0.2,0.4c0.1,0,0.3,0,0.3-0.1c0.7-0.8,1.5-0.8,2.5-0.5c0.2,0.1,0.5,0.2,0.7,0.2&#10;&#9;&#9;&#9;c0.8,0.2,1.6,0.5,2.4,0.7c0.7,0.2,1.4,0.1,2-0.4c0.2-0.2,0.3-0.4,0.2-0.7c-0.3-1.2-1.3-2-2.5-2.2c-0.9-0.1-1-0.1-0.9-1&#10;&#9;&#9;&#9;C206.3,78.8,206.4,78.6,206.3,78.4L206.3,78.4L206.3,78.4z M202.9,78.4c0.1,0,0.2,0.1,0.1,0.1c-0.1,0.2-0.2,0.3-0.3,0.5l0,0&#10;&#9;&#9;&#9;c0-0.2-0.1-0.4-0.1-0.6C202.7,78.4,202.8,78.4,202.9,78.4L202.9,78.4z M205.5,81.4c-0.1,0.1-0.2,0.2-0.3,0.1&#10;&#9;&#9;&#9;c-0.2-0.2-0.4-0.4-0.8-0.2c-0.2,0.1-0.5,0.3-0.6-0.1c-0.1-0.2,0.1-0.4,0.3-0.5c0.1-0.1,0.2-0.2,0.2-0.3c-0.5,0-0.9,0.1-1.4,0.2&#10;&#9;&#9;&#9;c-0.1,0-0.3,0-0.3-0.1c0-0.1,0-0.2,0.1-0.3c0.1-0.2,0.4-0.3,0.5-0.6c0.5,0,0.9-0.2,1.3-0.5c-0.5,0-0.9,0.2-1.2,0.5l0,0&#10;&#9;&#9;&#9;c-0.4,0-0.3-0.3-0.4-0.6c0.3-0.1,0.5-0.2,0.8-0.4c0.2-0.1,0.2-0.2,0.1-0.4c-0.3-0.2-0.1-0.4,0.1-0.6c0.3-0.2,0.7-0.3,0.9,0&#10;&#9;&#9;&#9;c0.2,0.2,0.3,0.5,0.5,0.6c0.3,0.2,0.2,0.4-0.1,0.6c-0.2,0.1-0.4,0.2-0.7,0.3c0.2-0.1,0.5-0.1,0.6,0.1c0.2,0.2,0.1,0.5-0.1,0.6&#10;&#9;&#9;&#9;c-0.1,0.1-0.3,0.3-0.4,0.4c0.2,0,0.4,0,0.6,0C205.4,80.4,205.7,81,205.5,81.4L205.5,81.4L205.5,81.4z M208.5,81.5&#10;&#9;&#9;&#9;c0.2,0,0.4,0.3,0.4,0.5c0,0.2-0.2,0.4-0.4,0.4c-0.1,0-0.2,0.1-0.4,0.1v0c-0.2-0.1-0.5-0.1-0.8-0.2c-0.1,0-0.2-0.1-0.2-0.3&#10;&#9;&#9;&#9;c0-0.1,0.1-0.2,0.2-0.3c0.3-0.2,0.6-0.3,0.9-0.3C208.3,81.5,208.4,81.5,208.5,81.5L208.5,81.5L208.5,81.5z M207.8,81&#10;&#9;&#9;&#9;C207.8,81,207.8,81,207.8,81c-0.1,0.2-0.2,0.2-0.3,0.2c-0.1,0-0.2-0.1-0.3-0.2c0.1,0,0.2-0.1,0.3-0.1&#10;&#9;&#9;&#9;C207.6,80.8,207.7,80.9,207.8,81L207.8,81L207.8,81z M207.2,81c0,0.5-0.3,0.9-0.8,1c-0.1,0-0.2,0-0.3-0.1c-0.1-0.1-0.1-0.2,0-0.3&#10;&#9;&#9;&#9;c0.1-0.2,0.3-0.3,0.5-0.5C206.8,81.1,207,81.2,207.2,81L207.2,81z M206.6,81.1L206.6,81.1L206.6,81.1L206.6,81.1z M206.5,80.6&#10;&#9;&#9;&#9;c0.2,0,0.2,0.1,0.1,0.3c0,0.1-0.1,0.1-0.1,0.2c-0.2,0-0.4,0-0.4-0.3C206.2,80.7,206.4,80.6,206.5,80.6L206.5,80.6L206.5,80.6z" class="st1"/>
		<path d="M182.3,74.4c0.3-0.5,0.3-1.1,0.5-1.6l0,0c0-0.2-0.1-0.3-0.1-0.5c-0.2-1-0.9-1.3-1.8-0.7&#10;&#9;&#9;&#9;c-0.1,0.1-0.2,0.2-0.4,0.3c-0.2,0.2-0.3,0.7-0.6,0.7c-0.5,0-0.5-0.5-0.7-0.7c-0.4-0.5-1-0.6-1.5-0.1c-0.2,0.2-0.3,0.4-0.4,0.6&#10;&#9;&#9;&#9;c-0.4,1-0.2,1.8,0.6,2.5c1,0.8,2.1,1.6,2.6,2.9c0,0.1,0.2,0.1,0.3,0.1c0.2,0,0.3-0.2,0.3-0.3c-0.2-1,0.4-1.7,0.8-2.5&#10;&#9;&#9;&#9;C182,74.8,182.2,74.6,182.3,74.4L182.3,74.4L182.3,74.4z M177.9,73.3c-0.1-0.2,0-0.5,0.2-0.6c0.1-0.1,0.2-0.2,0.3-0.1&#10;&#9;&#9;&#9;c0.1,0.1,0.1,0.2,0.2,0.2l0,0c0,0.1,0,0.1,0,0.2c-0.1,0.2-0.2,0.5-0.5,0.5C178,73.5,177.9,73.4,177.9,73.3L177.9,73.3L177.9,73.3z&#10;&#9;&#9;&#9; M180.8,76c0,0.1-0.2,0.1-0.3,0.1c-0.2,0-0.3-0.2-0.3-0.3c0-0.3,0.3-0.5,0.1-0.8c-0.1,0.2-0.2,0.3-0.4,0.2&#10;&#9;&#9;&#9;c-0.6-0.3-1.1-0.7-1.6-1.1c-0.1-0.1-0.1-0.2,0-0.3c0.2-0.2,0.7-0.3,1-0.1c1.1,0.8,1.1,0.8,1.8-0.4c0.1-0.2,0.2-0.5,0.3-0.7&#10;&#9;&#9;&#9;c0.1-0.2,0.2-0.3,0.4-0.2c0.1,0,0.2,0.2,0.2,0.3c-0.2,0.4,0.4,0.7,0.2,1.2c-0.2,0.3-0.4,0.6-0.6,0.9C181.2,75.2,181,75.6,180.8,76&#10;&#9;&#9;&#9;L180.8,76L180.8,76z" class="st1"/>
		<path d="M196.2,87.4L196.2,87.4L196.2,87.4z" class="st1"/>
		<path d="M178.1,103.1c0.8,1,1.7,1.9,2.5,2.9c0.9,1,1.8,1.9,2.2,3.2c0.1,0.3,0.3,0.6,0.5,0.9c0.1,0.2,0.3,0.2,0.5,0.1&#10;&#9;&#9;&#9;c0.2-0.1,0.2-0.3,0.2-0.5c0-0.2-0.1-0.3-0.2-0.5c-0.8-1.3-1.7-2.6-2.7-3.8c-1.4-1.5-2.6-3.2-4.3-4.4c0,0-0.1-0.1-0.1-0.1&#10;&#9;&#9;&#9;c-0.8-0.9-1.7-1.8-2.5-2.7c-0.8-0.8-1.5-1.7-2.3-2.6c-0.2-0.3-0.4-0.5-0.3-0.9c0-0.3-0.1-0.5-0.4-0.5c-0.2,0-0.3,0-0.5,0&#10;&#9;&#9;&#9;c-0.2,0-0.3-0.2-0.3-0.4c0-0.2,0.1-0.3,0.2-0.4c0.1-0.1,0.3-0.1,0.4-0.2c0,0,0-0.2,0-0.2c0,0-0.1,0-0.1,0c-0.1,0-0.2,0.1-0.3,0.1&#10;&#9;&#9;&#9;c-0.6,0.2-0.7,0.2-1-0.3c-0.8-1.1-1.7-2-2.1-3.3c0.6-0.2,0.9,0.2,1.2,0.5c0.4,0.5,0.9,0.9,1.5,1.3c0.2,0.1,0.3,0.4,0.5,0.5&#10;&#9;&#9;&#9;c0.2,0.2,0.3,0.4,0.5,0.5c1.3,0.8,2.3,1.9,3.6,2.6c0.2,0.1,0.4,0.3,0.6,0.5c0.5,0.6,1,1.1,1.6,1.6c0.1,0.1,0.2,0.3,0.3,0.4&#10;&#9;&#9;&#9;c0,0.1,0,0.2-0.1,0.2c-0.1,0.1-0.2,0.1-0.2,0.1c-0.2-0.1-0.3-0.1-0.4-0.2c-0.2-0.1-0.3-0.3-0.5-0.1c-0.1,0.1,0,0.3,0.3,0.5&#10;&#9;&#9;&#9;c0.1,0.1,0.3,0.2,0.4,0.3c-0.1,0.2-0.2,0.3-0.3,0.4c-0.2,0.3-0.2,0.5,0.2,0.7c0.4,0.2,0.8,0.3,1.2,0.2c0.6,0,1.1,0.2,1.6,0.5&#10;&#9;&#9;&#9;c0.2,0.1,0.4,0.5,0.2,0.6c-0.1,0.2-0.4,0.2-0.6,0.1c-0.3-0.1-0.5-0.2-0.8-0.4c-0.2-0.1-0.4-0.1-0.5,0.1c-0.1,0.2,0.1,0.4,0.3,0.5&#10;&#9;&#9;&#9;c0.2,0.1,0.5,0.1,0.7,0.2c0.2,0,0.4,0,0.6,0.1c0.2,0.1,0.5,0.1,0.7,0.2c0.2,0.1,0.3,0.3,0.1,0.5c-0.1,0.1-0.3,0.2-0.2,0.4&#10;&#9;&#9;&#9;c0.2,0.2,0.5,0.2,0.7,0.3c0.3,0.1,0.5,0.3,0.4,0.7c-0.1,0.2,0,0.4,0.2,0.4c0.5,0.1,0.7,0.4,0.8,0.8c0.1,0.6,0.5,0.9,0.7,1.4&#10;&#9;&#9;&#9;c0.2,0.4,0.5,0.9,0.7,1.3c0.1,0.2,0.2,0.4,0.3,0.5c0.1,0,0.2,0,0.2,0c0,0,0.1-0.1,0.1-0.1c0-0.2,0-0.4,0-0.6&#10;&#9;&#9;&#9;c-0.3-0.7-0.5-1.4-0.8-2.1c-1.3-2.3-2.5-4.8-4.2-6.9c-1.3-1.6-2.6-3.1-4.2-4.3c-1.3-1-2.5-2.2-3.8-3.1c-0.6-0.4-1.1-1-1.7-1.5&#10;&#9;&#9;&#9;c-1.8-1.7-3.6-3.4-5.3-5.1c-0.2-0.2-0.4-0.3-0.6-0.5c-0.1-0.1-0.3,0-0.3,0c-0.1,0.1-0.2,0.2-0.1,0.3c0.1,0.3,0.2,0.5,0.3,0.8&#10;&#9;&#9;&#9;c0.5,0.9,0.9,1.7,1.5,2.6c0.9,1.5,1.8,2.9,2.8,4.4c0.3,0.4,0.7,0.8,1,1.3c0.6,1,1.4,2,2.2,2.8c1,1.1,2.1,2.2,3.2,3.2&#10;&#9;&#9;&#9;c1.2,1.1,2.3,2.3,3.6,3.3C177.7,102.6,177.9,102.8,178.1,103.1L178.1,103.1L178.1,103.1z M178.5,99c0,0,0,0.1,0,0.1v0&#10;&#9;&#9;&#9;c0,0.1-0.1,0.2-0.1,0.2c-0.5,0-1-0.2-1.4-0.7c0,0,0-0.2,0-0.2c0-0.1,0.1-0.1,0.2-0.1C177.8,98.3,178.2,98.5,178.5,99L178.5,99&#10;&#9;&#9;&#9;L178.5,99z M166.9,89.3c-0.1-0.1-0.1-0.3,0.1-0.4c0.2-0.1,0.3-0.1,0.4,0.1c0.2,0.2,0.1,0.4,0.1,0.6&#10;&#9;&#9;&#9;C167.3,89.5,167,89.5,166.9,89.3L166.9,89.3L166.9,89.3z" class="st1"/>
		<path d="M219.1,118.1c-0.2-0.6-0.5-1-1.1-1.3c-0.6-0.3-1.2,0.1-1.2,0.8c0,0.2,0,0.3,0,0.5c0,0.6-0.3,1.2-0.7,1.7&#10;&#9;&#9;&#9;c-1.2,1.4-3.9,1.7-5.3,0.6c-0.5-0.4-0.5-0.8-0.1-1.1c0.8-0.6,1.2-1.5,1.6-2.3c0.4-0.7,0.5-1.4,0.5-2.1c0.1-0.8-0.3-1.4-0.7-2.1&#10;&#9;&#9;&#9;c-0.2-0.2-0.6-0.3-0.8-0.1c-0.2,0.2-0.1,0.4,0,0.6c0.1,0.1,0.1,0.1,0.2,0.2c0.5,0.6,0.5,1.3,0.4,2.1c-0.3,1.3-1.1,2.3-1.8,3.3&#10;&#9;&#9;&#9;c0,0-0.1,0.1-0.1,0.1c-0.2,0.1-0.5,0.1-0.7-0.1c-0.1-0.1-0.2-0.3-0.2-0.5c-0.1-1-0.3-2-0.4-3.1c-0.1-1-0.1-2-0.7-2.8&#10;&#9;&#9;&#9;c-0.2-0.4-0.1-0.6,0.4-0.6c2.5-0.1,3.7-1.5,4.4-3.5c0.3-0.8,0.4-1.6,0.1-2.4c-0.3-0.9-0.8-1.6-1.4-2.3c-0.2-0.2-0.5-0.4-0.8-0.5&#10;&#9;&#9;&#9;c-1-0.2-2.1-0.5-3.1-0.5c-3.4,0.1-6.8,0.2-10.2,0.3c-0.6,0-1.1,0.1-1.7-0.2c-0.4-0.2-0.9-0.2-1.3-0.1c-0.3,0.1-0.6,0.4-0.5,0.7&#10;&#9;&#9;&#9;c0.1,0.3,0.3,0.4,0.5,0.4c0.2,0,0.5,0,0.7,0c0.3,0,0.6,0,0.9,0c0.3,0,0.5,0.3,0.4,0.5c-0.2,0.7-0.5,1.3-0.8,1.9&#10;&#9;&#9;&#9;c-0.5,1-1,1.9-1.4,2.9c-0.7,1.8-1.6,3.5-2.4,5.3c-0.2,0.4-0.4,0.7-0.6,1c-0.3,0.4-0.5,0.4-0.8,0.2c-0.2-0.2-0.5-0.3-0.7-0.5&#10;&#9;&#9;&#9;c-0.6-0.6-1.3-1.2-2.1-1.5c-0.4-0.2-0.5-0.4-0.3-0.8c0.4-1,0.4-2.1,0.7-3.1c0.4-1.3,0.7-2.6,1-3.9c0.6-2.1,1.3-4.2,2-6.2&#10;&#9;&#9;&#9;c0.6-1.8,1.4-3.5,2.1-5.2c0.4-1,0.9-2,1.6-2.9c0.5-0.7,0.9-1.4,1.4-2.2c0.1-0.2,0.1-0.4-0.1-0.5c-0.2-0.1-0.4-0.1-0.5,0.1&#10;&#9;&#9;&#9;c-0.2,0.2-0.3,0.4-0.4,0.6c-0.3,0.5-0.6,0.9-0.9,1.3c-0.1,0.1-0.3,0.2-0.4,0.1c-0.1-0.1-0.1-0.2-0.1-0.3c0.4-1.1,0.9-2.1,1.6-3.1&#10;&#9;&#9;&#9;c0.2-0.3,0.4-0.5,0.5-0.8c0.3-0.5,0.3-0.7,0.1-0.9c-0.2-0.2-0.5,0-0.9,0.5c-1.3,1.9-2.1,4.1-3.1,6.1c-0.8,1.7-1.4,3.5-2.1,5.3&#10;&#9;&#9;&#9;c-0.1,0.2-0.2,0.5-0.2,0.7c-0.3,1.1-0.6,2.1-1,3.2c-0.2,0.7-0.4,1.3-0.6,2c-0.1,0.4-0.2,0.7-0.3,1.1c-0.2,0.7-0.4,1.4-0.5,2.2&#10;&#9;&#9;&#9;c-0.3,1.7-0.5,3.5-0.8,5.2c-0.1,0.8-0.3,1.1-0.5,0.9c-0.4-0.3-0.2-0.7-0.2-1c0.1-1.3,0.3-2.7,0.4-4.1c0.1-1.6,0.1-3.3,0.1-4.9&#10;&#9;&#9;&#9;c0-1.7,0.2-3.5-0.1-5.2c-0.1-0.5,0.2-1,0-1.5c-0.1-0.4-0.1-0.8-0.1-1.2c0-0.7,0-1.3-0.1-2c-0.2-2.3-0.4-4.7-0.7-7&#10;&#9;&#9;&#9;c-0.2-1.8-0.6-3.5-0.9-5.2c0-0.2-0.1-0.3-0.1-0.5c-0.1-0.2-0.3-0.3-0.5-0.1c-0.1,0.1-0.2,0.3-0.4,0.3c-0.2,0-0.3,0.1-0.3,0.3&#10;&#9;&#9;&#9;c0,0.2,0.2,0.2,0.4,0.2c0.2,0,0.5,0.1,0.4,0.3c-0.2,0.6,0.2,1.1,0.3,1.7c0.6,3,0.8,6,1.2,8.9c0,0.2,0.1,0.5-0.1,0.7&#10;&#9;&#9;&#9;c-0.1,0.1-0.3,0.2-0.4,0.1c-0.1-0.1-0.2-0.3-0.2-0.4c0-0.7-0.2-1.4-0.3-2.1c-0.2-1.9-0.6-3.7-0.9-5.6c-0.2-1.3-0.7-2.5-0.9-3.8&#10;&#9;&#9;&#9;c0-0.1-0.1-0.2-0.2-0.3c-0.1-0.1-0.2-0.2-0.4-0.2c-0.1,0.1-0.2,0.2-0.1,0.3c0.2,0.8,0.4,1.6,0.6,2.4c0.5,2.6,1.1,5.2,1.3,7.8&#10;&#9;&#9;&#9;c0,0.2,0.1,0.4,0.1,0.6c0.4,2.1,0.6,4.3,0.8,6.5c0.1,1.4,0.1,2.8,0.2,4.2c0,0.9,0.1,1.8,0.2,2.7l0,0c0,0,0,0-0.1,0&#10;&#9;&#9;&#9;c0,0.4,0.1,0.8,0.1,1.2c0.1,2,0.1,4,0.1,6c0,0.5-0.2,0.7-0.7,0.6c-2.1-0.4-4-0.1-5.8,1.1c-1.8,1.1-2.9,2.7-2.7,4.9&#10;&#9;&#9;&#9;c0.1,1.2,0.7,2.2,1.7,2.9c1.7,1.1,3.5,1.2,5.5,0.8c0.2,0,0.5-0.1,0.7-0.2c0.3,0,0.5,0.2,0.4,0.5c-0.3,1.5-0.6,3-0.8,4.5&#10;&#9;&#9;&#9;c-0.1,0.4-0.2,0.7-0.1,1.1c0,0.1,0.1,0.2,0.3,0.2c0.1,0,0.2,0,0.2-0.1c0.1-0.1,0.2-0.2,0.2-0.3c0.2-1,0.6-2,0.6-3&#10;&#9;&#9;&#9;c0-0.2,0-0.4,0.1-0.6c0-0.1,0.2-0.2,0.3-0.2c0.1,0,0.3,0.1,0.3,0.2c0.1,0.3,0.1,0.6,0.1,0.9c0,1.3-0.1,2.5,0.1,3.8&#10;&#9;&#9;&#9;c0,0.3,0.1,0.7,0.3,0.9c0.1,0.1,0.2,0.1,0.3,0.1c0.1,0,0.2-0.1,0.3-0.2c0-0.2,0-0.4,0-0.6c-0.2-2.4-0.3-4.7-0.1-7.1&#10;&#9;&#9;&#9;c0.1-0.7,0.3-1.1,0.8-1.4c1.1-0.5,2-1.3,2.8-2.2c0.9-1,1-1,1.9,0c0.5,0.6,1.1,1.2,1.8,1.7c0.2,0.2,0.4,0.4,0.7,0.6&#10;&#9;&#9;&#9;c1.1,0.9,2.3,1.6,3.7,2c1.6,0.5,3.3,0.5,4.9,0.4c1.9-0.2,3.8-0.7,5.5-1.8c0.8-0.5,0.8-0.5,1.3,0.3c0,0.1,0.1,0.1,0.1,0.2&#10;&#9;&#9;&#9;c0.4,0.7,0.9,1.2,1.6,1.5c0.3,0.1,0.6,0.3,0.9,0.5c0.2,0.1,0.4,0.2,0.7,0.3c2.9,0.3,4.9-0.5,6.2-3.3&#10;&#9;&#9;&#9;C219.4,119.9,219.3,119,219.1,118.1L219.1,118.1L219.1,118.1z M185.1,114.7c0,0.2,0,0.3-0.1,0.5l0,0c0,1.7-0.3,3.4-0.5,5.1&#10;&#9;&#9;&#9;c0,0.1,0,0.2-0.1,0.4c-0.1,0.4-0.3,0.7-0.7,0.7c-1.1,0.2-2.3,0.4-3.4,0.2c-0.9-0.1-1.7-0.4-2.5-1c-1.3-1-1.6-3-0.7-4.4&#10;&#9;&#9;&#9;c0.7-1.1,1.7-1.9,3-2.4c1.2-0.5,2.5-0.6,3.7-0.5C185,113.4,185.2,113.6,185.1,114.7L185.1,114.7L185.1,114.7z M184.9,93.9&#10;&#9;&#9;&#9;c-0.1-0.2-0.1-0.5,0.1-0.7c0,0,0.2,0,0.2,0c0.2,0.1,0.2,0.3,0.2,0.5c0,0.1,0,0.2-0.1,0.2c0,0.1-0.1,0.1-0.2,0.1l0,0&#10;&#9;&#9;&#9;C185.1,94.1,185,94,184.9,93.9L184.9,93.9L184.9,93.9z M185.5,95.6c0,0.1-0.1,0.2-0.3,0.2c-0.2,0-0.2-0.2-0.2-0.4&#10;&#9;&#9;&#9;c0-0.1,0.1-0.2,0.2-0.2C185.5,95.3,185.6,95.4,185.5,95.6L185.5,95.6L185.5,95.6z M189.8,117.5c-0.8,0.9-1.8,1.6-2.7,2.3&#10;&#9;&#9;&#9;c0,0-0.1,0.1-0.1,0.1c-0.2,0.1-0.3,0.1-0.5,0c-0.2-0.1-0.2-0.3-0.2-0.5v0c0.1-0.4,0.2-0.9,0.2-1.4c0.1-0.9,0.2-1.8,0.3-2.7&#10;&#9;&#9;&#9;c0-0.2,0.1-0.4,0.2-0.6c0.1-0.2,0.4-0.3,0.5-0.2c0.1,0,0.1,0.1,0.2,0.1c0.7,0.6,1.3,1.2,2,1.8&#10;&#9;&#9;&#9;C190.1,116.9,190.1,117.1,189.8,117.5L189.8,117.5z M207.5,103.2c0.3,0,0.6,0.1,0.8,0.1c0.5,0.1,1,0.2,1.6,0.3&#10;&#9;&#9;&#9;c0.7,0.1,1.2,0.5,1.6,1c0.8,1.2,0.9,2.5,0.3,3.8c-0.1,0.2-0.2,0.4-0.4,0.6c-0.5,1.1-1.4,1.6-2.6,1.8c-0.5,0.1-0.9,0.3-1.4,0.2h0&#10;&#9;&#9;&#9;c-0.1,0-0.2,0-0.2,0c-0.2,0-0.4,0-0.4-0.2c0-0.1,0.1-0.2,0.2-0.3c0.3-0.2,0.5-0.4,0.8-0.6c1.5-0.9,1.9-3.9,0.7-5&#10;&#9;&#9;&#9;c-0.4-0.4-0.7-1-1.3-1.2c-0.1,0-0.2-0.2-0.2-0.3C207.2,103.2,207.3,103.2,207.5,103.2L207.5,103.2L207.5,103.2z M199,116.6&#10;&#9;&#9;&#9;c0.1-1.3,0.2-2.5,0.2-3.8c0.1-2.5,0.2-4.9,0.4-7.4c0-0.4-0.1-0.7-0.1-1.1c-0.1-0.5,0.1-0.8,0.6-0.8c1.1,0,2.1-0.2,3.2-0.2&#10;&#9;&#9;&#9;c0.2,0,0.3,0.1,0.4,0.2c0,0.1-0.1,0.2-0.1,0.3c0,0.1-0.1,0.1-0.2,0.2c-1.4,1-1.6,2.5-1.7,4c-0.1,1.6,0,3.2-0.3,4.8&#10;&#9;&#9;&#9;c-0.1,0.8,0,1.6,0,2.3l-0.1,0l0,0c0,0.7,0,1.5,0,2.2c0,0.5-0.2,0.7-0.7,0.7C198.9,118.1,198.8,118.4,199,116.6L199,116.6&#10;&#9;&#9;&#9;L199,116.6z M194.8,110c0.3-0.7,0.6-1.3,1-2c0.6-1.2,1.1-2.4,1.5-3.6c0.1-0.5,0.5-0.7,1-0.7c0.4,0,0.7,0.3,0.7,0.7&#10;&#9;&#9;&#9;c0,0.3-0.1,0.6-0.1,1c-0.1,1.4-0.1,2.9-0.2,4.3c0,0.1,0,0.2,0,0.4c-0.1,0.4-0.3,0.6-0.8,0.6c-0.2,0-0.4-0.1-0.6-0.1&#10;&#9;&#9;&#9;c-0.2,0-0.3,0-0.5,0l0,0c-0.5,0.1-1.1,0.1-1.6,0C194.8,110.6,194.6,110.3,194.8,110L194.8,110L194.8,110z M208.1,120.4&#10;&#9;&#9;&#9;c-1.1,0.7-2.3,1.2-3.6,1.5c-1,0.2-2,0.3-3,0.3l0,0c-1.8,0.2-3.3-0.2-4.8-0.9c-0.6-0.3-1.2-0.7-1.7-1.2c-1-0.9-2-1.9-2.9-2.8&#10;&#9;&#9;&#9;c-0.1-0.1-0.2-0.2-0.2-0.3c-0.2-0.3-0.3-0.5,0-0.8c1-1.2,1.6-2.7,2.2-4.1c0.2-0.4,0.4-0.6,0.8-0.6c0.9,0,1.9-0.1,2.8-0.2&#10;&#9;&#9;&#9;c0.7,0,0.9,0.1,0.9,0.8c-0.1,1.3,0,2.5-0.2,3.8c-0.1,0.4,0,0.9-0.1,1.4c0,0.6-0.1,1.1-0.2,1.7c-0.1,0.2,0.2,0.4,0.4,0.3&#10;&#9;&#9;&#9;c0.2-0.1,0.3-0.1,0.5-0.2c0.3-0.2,0.7-0.2,1.1-0.2c0.6,0,1.2,0,1.9,0c0.3,0,0.5-0.3,0.4-0.6c-0.3-0.6-0.2-1.2-0.2-1.8&#10;&#9;&#9;&#9;c0-1.5,0.1-3,0.2-4.4c0.1-1.4,0.3-2.7,0.3-4.1c0-0.8,0.3-1.5,0.5-2.3c0.3-0.8,1-1.3,1.7-1.7c0.2-0.1,0.4-0.1,0.6-0.1&#10;&#9;&#9;&#9;c1.1,0,2.1,0.4,2.6,1.5c0.4,0.8,0.7,1.7,0.5,2.6c-0.3,1.2-1.2,1.8-2.3,2.3c-0.6,0.2-1.2,0.4-1.8,0.3c-0.2,0-0.5,0-0.7,0.1&#10;&#9;&#9;&#9;c-0.2,0-0.3,0.2-0.3,0.4c0,0.2,0.1,0.4,0.3,0.4c0.6,0.1,1.2,0.3,1.8,0.4c0.2,0,0.4,0,0.6,0.1c1.2,0.2,1.8,0.8,1.9,2&#10;&#9;&#9;&#9;c0.1,1.1,0.2,2.1,0.2,3.2c0,0.9,0.1,1.7,0.4,2.5C208.6,120,208.6,120.1,208.1,120.4L208.1,120.4L208.1,120.4z M218.3,120.5&#10;&#9;&#9;&#9;c-0.4,0.7-0.8,1.2-1.3,1.8c-0.4,0.5-1,0.7-1.6,0.8c-0.4,0.1-0.9,0.1-1.3,0.2l0,0c-1,0-1.9-0.4-2.7-0.9c-0.2-0.1-0.3-0.3-0.4-0.4&#10;&#9;&#9;&#9;c0-0.1-0.1-0.2,0-0.2c0-0.1,0.2-0.2,0.3-0.1c0.3,0.1,0.6,0.2,1,0.2c1.5,0.3,2.8,0,4.1-0.9c0.8-0.6,1.1-1.4,1.3-2.3&#10;&#9;&#9;&#9;c0-0.2,0-0.4,0.1-0.6c0-0.3,0.4-0.4,0.6-0.2c0.1,0.1,0.3,0.3,0.4,0.5C218.6,119,218.7,119.8,218.3,120.5L218.3,120.5L218.3,120.5z" class="st1"/>
		<path d="M196.2,87.4c0,0.2,0.2,0.3,0.4,0.5c0.1,0.1,0.2,0.1,0.3,0c0-0.1,0-0.2,0-0.2c-0.1-0.1-0.2-0.2-0.4-0.3&#10;&#9;&#9;&#9;C196.4,87.4,196.3,87.4,196.2,87.4L196.2,87.4z" class="st1"/>
		<path d="M182.7,79.7c0,0.1,0.2,0.3,0.3,0.2c0.1-0.1,0.1-0.2,0.1-0.3c0-0.1-0.1-0.2-0.2-0.2&#10;&#9;&#9;&#9;C182.8,79.5,182.7,79.6,182.7,79.7L182.7,79.7L182.7,79.7z" class="st1"/>
		<path d="M204.3,80.4L204.3,80.4L204.3,80.4z" class="st1"/>
		<polygon points="180.2,74.9 180.2,74.9 180.2,74.9 180.2,74.9" class="st1"/>
		<path d="M186.3,70.9c0.1,0,0.3,0,0.3-0.1c0.1-0.1,0.2-0.2,0.2-0.3c0-0.1-0.1-0.2-0.2-0.3c-0.1-0.1-0.3-0.1-0.5-0.1&#10;&#9;&#9;&#9;c-0.3,0.1-0.6,0.2-0.9,0.3c-0.2,0.1-0.3,0-0.4-0.1c-0.1-0.2,0-0.3,0.1-0.4c0.3-0.2,0.6-0.4,0.9-0.6c0.1-0.1,0.2-0.2,0.2-0.4l0,0&#10;&#9;&#9;&#9;c0-0.3-0.5-0.6-0.7-0.4c-0.5,0.4-1,0.8-1.5,1.3c-0.2,0.2-0.2,0.5-0.1,0.8c0.2,0.5,0.7,0.8,1.2,0.6C185.3,71,185.8,70.9,186.3,70.9&#10;&#9;&#9;&#9;L186.3,70.9L186.3,70.9z" class="st1"/>
		<path d="M209.1,79.3c0.1,0,0.2-0.1,0.2-0.1c0-0.1,0.1-0.2,0.1-0.2c-0.1-0.1-0.2-0.3-0.3-0.4c-0.4-0.2-0.7-0.5-0.6-1&#10;&#9;&#9;&#9;c0-0.2-0.1-0.3-0.3-0.3c-0.7,0-0.7-0.4-0.6-0.9c0-0.3-0.1-0.5-0.3-0.6c-0.1,0-0.2-0.1-0.2,0c-0.1,0-0.2,0.1-0.2,0.1&#10;&#9;&#9;&#9;c0,0.2,0,0.4,0,0.6l0,0c0,0.4-0.1,0.8,0.1,1.1c0.2,0.4,0.5,0.8,0.8,1.1C208.1,79,208.6,79.2,209.1,79.3L209.1,79.3L209.1,79.3z" class="st1"/>
		<path d="M176.7,75.9c0.2-0.1,0.2-0.3,0.2-0.4c0-0.2-0.2-0.3-0.3-0.3c-0.1,0-0.2,0-0.4,0c-0.7,0.2-1.3,0.4-2,0.6&#10;&#9;&#9;&#9;c-0.2,0.1-0.2,0.3-0.2,0.5c0.1,0.2,0.2,0.2,0.4,0.3c0.6-0.2,1.2-0.2,1.8-0.4C176.4,76.1,176.5,76,176.7,75.9L176.7,75.9&#10;&#9;&#9;&#9;L176.7,75.9z" class="st1"/>
		<path d="M174.4,76.6L174.4,76.6L174.4,76.6z" class="st1"/>
		<path d="M177.7,77.2L177.7,77.2c-0.5,0.2-1.2,0.5-1.9,0.7c-0.2,0.1-0.2,0.3-0.2,0.4c0,0.2,0.2,0.3,0.4,0.3&#10;&#9;&#9;&#9;c0.7-0.1,1.4-0.4,2.1-0.6c0.2-0.1,0.2-0.2,0.2-0.4C178.3,77.3,178.1,77.2,177.7,77.2L177.7,77.2L177.7,77.2z" class="st1"/>
		<path d="M199.3,78.5c0.4,0.1,0.8,0,1.2-0.2c0.2-0.1,0.3-0.2,0.4-0.5c0.2-0.6-0.2-1.3-0.9-1.3c-0.1,0-0.2,0.1-0.3,0.2&#10;&#9;&#9;&#9;c-0.1,0.1-0.1,0.2,0,0.3c0.1,0.1,0.2,0.3,0.3,0.4c0.1,0.1,0.2,0.3,0.1,0.4c-0.1,0.2-0.3,0.1-0.5,0.1l0,0c-0.1,0-0.2,0-0.2-0.1&#10;&#9;&#9;&#9;c-0.2,0-0.4,0-0.5,0.3C198.9,78.4,199.1,78.5,199.3,78.5L199.3,78.5L199.3,78.5z" class="st1"/>
		<path d="M203,86.3c-0.2-0.5-0.3-1.1-0.3-1.7c0-0.2,0-0.4-0.2-0.5c-0.2-0.1-0.4,0.2-0.5,0.5c0,0.1,0,0.2-0.1,0.5h0&#10;&#9;&#9;&#9;c0,0.3,0.1,0.6,0.2,1c0.1,0.3,0.2,0.5,0.3,0.8c0.1,0.2,0.2,0.3,0.5,0.3c0.2,0,0.3-0.3,0.3-0.6C203.1,86.4,203.1,86.3,203,86.3&#10;&#9;&#9;&#9;L203,86.3L203,86.3z" class="st1"/>
		<path d="M187.3,71.9c-0.7,0-1.4,0.1-2,0.4c-0.2,0.1-0.2,0.2-0.2,0.4c0.1,0.2,0.2,0.2,0.4,0.3c0.6-0.1,1.2-0.2,1.9-0.3&#10;&#9;&#9;&#9;c0.1,0,0.3-0.2,0.3-0.4C187.7,72,187.5,71.9,187.3,71.9L187.3,71.9L187.3,71.9z" class="st1"/>
		<path d="M174.3,73.5c0.6,0,0.9,0,1.3-0.1c0.2-0.1,0.3-0.2,0.2-0.4c0-0.1-0.1-0.2-0.2-0.3c-0.1-0.1-0.2-0.2-0.3-0.1&#10;&#9;&#9;&#9;c-0.6,0.1-1.2,0.2-1.8,0c-0.2,0-0.3,0.2-0.4,0.4c0,0.2,0.1,0.3,0.2,0.4C173.7,73.5,174.1,73.5,174.3,73.5L174.3,73.5L174.3,73.5z" class="st1"/>
		<path d="M182.6,67.4c-0.2,0-0.3,0.1-0.4,0.2c-0.2,0.4-0.4,0.8-0.3,1.4l0,0c0,0,0,0.1,0,0.2c0,0.2,0.1,0.3,0.3,0.3&#10;&#9;&#9;&#9;c0.2,0,0.3,0,0.4-0.2c0.2-0.3,0.4-1.3,0.3-1.7C182.9,67.5,182.8,67.4,182.6,67.4L182.6,67.4L182.6,67.4z" class="st1"/>
		<path d="M174.2,70.6c0.5,0.2,1.1,0.3,1.7,0.4c0.2,0,0.4-0.1,0.5-0.3c0.1-0.2-0.1-0.4-0.3-0.5c-0.5-0.1-1-0.2-1.4-0.3&#10;&#9;&#9;&#9;h0c-0.1,0-0.3,0-0.4,0.1c-0.2,0.1-0.3,0.2-0.2,0.4C174,70.4,174.1,70.6,174.2,70.6L174.2,70.6L174.2,70.6z" class="st1"/>
		<path d="M186.4,74.3c-0.5-0.3-1-0.4-1.6-0.5c-0.1,0-0.2,0.1-0.3,0.2c-0.1,0.1,0,0.3,0.1,0.3c0.5,0.4,1.1,0.7,1.8,0.7&#10;&#9;&#9;&#9;c0.2,0,0.3-0.2,0.3-0.3C186.7,74.5,186.6,74.4,186.4,74.3L186.4,74.3L186.4,74.3z" class="st1"/>
		<path d="M199.3,81.2L199.3,81.2L199.3,81.2z" class="st1"/>
		<path d="M199.4,81.2c-0.1,0-0.1,0-0.1,0c-0.6,0-1.1,0.1-1.5,0.3c-0.2,0.1-0.3,0.3-0.2,0.5c0.1,0.2,0.3,0.3,0.5,0.3&#10;&#9;&#9;&#9;c0.1,0,0.2-0.1,0.3-0.1c0.4-0.1,0.7-0.2,1-0.3c0.2-0.1,0.3-0.2,0.3-0.4C199.7,81.3,199.6,81.2,199.4,81.2L199.4,81.2L199.4,81.2z" class="st1"/>
		<path d="M198,79.4c-0.2,0.1-0.3,0.2-0.3,0.4c0,0.2,0.1,0.3,0.3,0.4c0.3,0.1,0.6,0.1,0.9,0.1v0c0.2,0,0.4,0,0.6,0&#10;&#9;&#9;&#9;c0.2,0,0.3-0.1,0.3-0.3c0-0.1-0.1-0.3-0.2-0.3C199.2,79.3,198.6,79.2,198,79.4L198,79.4L198,79.4z" class="st1"/>
		<path d="M203.8,84.4c-0.1,0-0.1,0.1-0.1,0.2c0,0.8,0.4,1.5,0.8,2.1c0,0,0.2,0.1,0.2,0c0.1,0,0.2-0.2,0.2-0.5l0,0&#10;&#9;&#9;&#9;c-0.1-0.6-0.5-1.2-0.9-1.8C203.9,84.4,203.8,84.4,203.8,84.4L203.8,84.4z" class="st1"/>
		<polygon points="178.5,69.7 178.5,69.7 178.5,69.7" class="st1"/>
		<path d="M177.5,68.3c-0.2,0.1-0.3,0.2-0.3,0.4c0,0.5,0.2,0.9,0.6,1.3c0.1,0.1,0.2,0.1,0.3,0.1c0.2,0,0.2-0.2,0.3-0.4&#10;&#9;&#9;&#9;c0-0.5-0.2-1-0.5-1.3C177.9,68.3,177.7,68.2,177.5,68.3L177.5,68.3L177.5,68.3z" class="st1"/>
		<path d="M180.6,69.3c0.1-0.3,0.1-0.6,0.1-0.7l0,0c0-0.5,0-0.8-0.2-1.1c-0.1-0.1-0.2-0.2-0.3-0.2&#10;&#9;&#9;&#9;c-0.1,0-0.3,0.1-0.3,0.2c0,0.6,0,1.1,0,1.7c0,0.1,0.2,0.2,0.3,0.2C180.4,69.6,180.6,69.5,180.6,69.3L180.6,69.3L180.6,69.3z" class="st1"/>
		<path d="M207.4,84.6L207.4,84.6c-0.2,0-0.4,0.2-0.3,0.3c0.1,0.5,0.4,1,0.7,1.4c0,0.1,0.1,0.1,0.2,0.1&#10;&#9;&#9;&#9;c0.2,0.1,0.3,0.1,0.4-0.1c0.1-0.1,0.1-0.2,0.1-0.3c-0.2-0.5-0.5-0.9-0.8-1.3C207.6,84.6,207.4,84.6,207.4,84.6&#10;&#9;&#9;&#9;C207.4,84.6,207.4,84.6,207.4,84.6z" class="st1"/>
		<path d="M206.5,85.9c-0.3-0.5-0.5-0.9-0.8-1.3c0-0.1-0.2-0.1-0.2-0.1c-0.1,0.1-0.2,0.2-0.2,0.2c0,0.7,0.3,1.1,0.8,1.6&#10;&#9;&#9;&#9;c0.1,0.1,0.5,0,0.5-0.2l0,0C206.5,86,206.5,85.9,206.5,85.9L206.5,85.9L206.5,85.9z" class="st1"/>
		<path d="M200.7,83.2c-0.2,0-0.4,0.2-0.5,0.5c0,0.3,0,0.6,0.3,0.8c0.1,0.1,0.2,0.1,0.3,0c0.3-0.2,0.3-0.5,0.2-0.8&#10;&#9;&#9;&#9;C201.1,83.4,200.9,83.3,200.7,83.2L200.7,83.2L200.7,83.2z" class="st1"/>
		<path d="M209.5,84.5c-0.2,0-0.3,0.1-0.4,0.3c0,0.1,0,0.3,0,0.3c0.2,0.3,0.6,0.5,0.9,0.5c0.1,0,0.3-0.1,0.3-0.2&#10;&#9;&#9;&#9;s0-0.2,0-0.3C210.2,84.7,209.9,84.5,209.5,84.5L209.5,84.5L209.5,84.5z" class="st1"/>
		<path d="M210.2,83.2c-0.2,0.1-0.1,0.4,0,0.5c0.3,0.2,0.5,0.2,0.8,0c0.1,0,0.2-0.2,0.2-0.2c0-0.1,0-0.2-0.1-0.3&#10;&#9;&#9;&#9;C210.9,83,210.5,83,210.2,83.2L210.2,83.2L210.2,83.2z" class="st1"/>
		<polygon points="210.9,81.1 210.9,81.1 210.9,81.1" class="st1"/>
		<path d="M210.6,81.4c0.2,0,0.3-0.1,0.3-0.3c0-0.2-0.2-0.5-0.5-0.4c-0.2,0-0.3,0.1-0.3,0.3&#10;&#9;&#9;&#9;C210.1,81.2,210.3,81.4,210.6,81.4L210.6,81.4L210.6,81.4z" class="st1"/>
		<polygon points="182.9,79.5 182.9,79.5 182.9,79.5" class="st1"/>
		<path d="M180.8,74.7c-0.2,0.1-0.4,0.2-0.5,0.2l0,0l0,0C180.4,74.9,180.6,74.8,180.8,74.7&#10;&#9;&#9;&#9;C180.8,74.7,180.8,74.7,180.8,74.7L180.8,74.7c0.1,0.1,0.2,0.1,0.2,0c0,0-0.1-0.1-0.1-0.1C180.8,74.6,180.8,74.6,180.8,74.7&#10;&#9;&#9;&#9;L180.8,74.7L180.8,74.7z" class="st1"/>
	</g>
	<path d="M14.4,43.6h0.8l2.6,4.2v-4.2h0.7v5.2h-0.8l-2.6-4.2v4.2h-0.7L14.4,43.6L14.4,43.6z M22.3,43.4&#10;&#9;&#9;c0.9,0,1.6,0.3,2,0.9c0.3,0.5,0.5,1,0.5,1.8c0,0.8-0.2,1.4-0.6,1.9c-0.5,0.6-1.1,0.9-2,0.9c-0.8,0-1.4-0.3-1.9-0.8&#10;&#9;&#9;c-0.4-0.5-0.6-1.1-0.6-1.9c0-0.7,0.2-1.3,0.5-1.8C20.7,43.8,21.4,43.4,22.3,43.4L22.3,43.4z M22.3,48.3c0.6,0,1.1-0.2,1.3-0.7&#10;&#9;&#9;c0.3-0.4,0.4-0.9,0.4-1.5c0-0.6-0.2-1.1-0.5-1.5c-0.3-0.4-0.8-0.6-1.3-0.6c-0.5,0-1,0.2-1.3,0.5c-0.3,0.4-0.5,0.9-0.5,1.6&#10;&#9;&#9;c0,0.6,0.1,1.1,0.4,1.4C21.2,48.1,21.7,48.3,22.3,48.3L22.3,48.3z M26.1,43.6h1l1.5,4.4l1.5-4.4h1v5.2h-0.7v-3c0-0.1,0-0.3,0-0.5&#10;&#9;&#9;c0-0.2,0-0.5,0-0.8l-1.5,4.4h-0.7l-1.5-4.4v0.2c0,0.1,0,0.3,0,0.6c0,0.3,0,0.4,0,0.6v3h-0.7L26.1,43.6L26.1,43.6z M34.7,43.4&#10;&#9;&#9;c0.9,0,1.6,0.3,2,0.9c0.3,0.5,0.5,1,0.5,1.8c0,0.8-0.2,1.4-0.6,1.9c-0.5,0.6-1.1,0.9-2,0.9c-0.8,0-1.4-0.3-1.9-0.8&#10;&#9;&#9;c-0.4-0.5-0.6-1.1-0.6-1.9c0-0.7,0.2-1.3,0.5-1.8C33.2,43.8,33.9,43.4,34.7,43.4L34.7,43.4z M34.8,48.3c0.6,0,1.1-0.2,1.3-0.7&#10;&#9;&#9;c0.3-0.4,0.4-0.9,0.4-1.5c0-0.6-0.2-1.1-0.5-1.5c-0.3-0.4-0.8-0.6-1.3-0.6c-0.5,0-1,0.2-1.3,0.5C33.1,45,33,45.5,33,46.2&#10;&#9;&#9;c0,0.6,0.1,1.1,0.4,1.4C33.7,48.1,34.2,48.3,34.8,48.3L34.8,48.3z M41,46c0.3,0,0.6-0.1,0.8-0.2c0.2-0.1,0.3-0.4,0.3-0.7&#10;&#9;&#9;c0-0.4-0.1-0.6-0.4-0.8c-0.1-0.1-0.3-0.1-0.6-0.1h-1.7V46C39.3,46,41,46,41,46z M38.6,43.6H41c0.4,0,0.7,0.1,1,0.2&#10;&#9;&#9;c0.5,0.2,0.7,0.6,0.7,1.2c0,0.3-0.1,0.6-0.2,0.8c-0.1,0.2-0.3,0.4-0.5,0.5c0.2,0.1,0.4,0.2,0.5,0.3c0.1,0.1,0.2,0.4,0.2,0.6l0,0.7&#10;&#9;&#9;c0,0.2,0,0.3,0,0.4c0,0.2,0.1,0.3,0.2,0.3v0.1h-0.9c0,0,0-0.1-0.1-0.2c0-0.1,0-0.2,0-0.4l0-0.9c0-0.3-0.1-0.6-0.4-0.7&#10;&#9;&#9;c-0.1-0.1-0.3-0.1-0.6-0.1h-1.6v2.2h-0.7L38.6,43.6L38.6,43.6z M50.2,46c0.3,0,0.6-0.1,0.8-0.2c0.2-0.1,0.3-0.4,0.3-0.7&#10;&#9;&#9;c0-0.4-0.1-0.6-0.4-0.8c-0.1-0.1-0.3-0.1-0.6-0.1h-1.7V46C48.6,46,50.2,46,50.2,46z M47.9,43.6h2.4c0.4,0,0.7,0.1,1,0.2&#10;&#9;&#9;C51.8,44,52,44.4,52,45c0,0.3-0.1,0.6-0.2,0.8c-0.1,0.2-0.3,0.4-0.5,0.5c0.2,0.1,0.4,0.2,0.5,0.3c0.1,0.1,0.2,0.4,0.2,0.6l0,0.7&#10;&#9;&#9;c0,0.2,0,0.3,0,0.4c0,0.2,0.1,0.3,0.2,0.3v0.1h-0.9c0,0,0-0.1-0.1-0.2c0-0.1,0-0.2,0-0.4l0-0.9c0-0.3-0.1-0.6-0.4-0.7&#10;&#9;&#9;c-0.1-0.1-0.3-0.1-0.6-0.1h-1.6v2.2h-0.7L47.9,43.6L47.9,43.6z M53.6,43.6h3.8v0.6h-3.1v1.6h2.8v0.6h-2.8v1.7h3.1v0.6h-3.8&#10;&#9;&#9;C53.6,48.7,53.6,43.6,53.6,43.6z M58.7,43.6h0.7v2.5l2.5-2.5h1l-2.1,2.1l2.2,3.1H62l-1.8-2.6l-0.8,0.8v1.8h-0.7L58.7,43.6&#10;&#9;&#9;L58.7,43.6z M64,43.6h3.8v0.6h-3.1v1.6h2.8v0.6h-2.8v1.7h3.1v0.6H64V43.6z M69.2,43.6H70l2.6,4.2v-4.2h0.7v5.2h-0.8l-2.6-4.2v4.2&#10;&#9;&#9;h-0.7L69.2,43.6L69.2,43.6z M75,43.6h0.7v5.2H75V43.6z M77.3,43.6h0.8l2.6,4.2v-4.2h0.7v5.2h-0.8L78,44.6v4.2h-0.7L77.3,43.6&#10;&#9;&#9;L77.3,43.6z M85.2,43.5c0.5,0,0.9,0.1,1.3,0.3c0.5,0.3,0.8,0.7,0.9,1.4h-0.7c-0.1-0.4-0.3-0.7-0.5-0.8c-0.3-0.2-0.6-0.3-1-0.3&#10;&#9;&#9;c-0.5,0-0.9,0.2-1.2,0.5c-0.3,0.4-0.5,0.9-0.5,1.6c0,0.6,0.1,1.1,0.4,1.5c0.3,0.4,0.7,0.6,1.3,0.6c0.5,0,0.9-0.1,1.2-0.4&#10;&#9;&#9;c0.3-0.3,0.5-0.7,0.5-1.3h-1.6V46h2.3v2.8H87l-0.2-0.7c-0.2,0.3-0.4,0.4-0.6,0.5c-0.3,0.2-0.7,0.3-1.2,0.3c-0.6,0-1.1-0.2-1.6-0.6&#10;&#9;&#9;c-0.5-0.5-0.7-1.2-0.7-2c0-0.9,0.2-1.6,0.7-2.1C83.9,43.7,84.5,43.5,85.2,43.5L85.2,43.5z" class="st1"/>
	<path d="M17.8,54.4c1.4,0,2.5,0.6,3.1,1.8c0.5,0.9,0.7,2.2,0.7,3.7c0,1.5-0.2,2.7-0.7,3.7c-0.6,1.4-1.7,2.1-3.2,2.1&#10;&#9;&#9;c-1.3,0-2.3-0.6-3-1.7c-0.5-1-0.8-2.2-0.8-3.9c0-1.3,0.2-2.3,0.5-3.2C15.1,55.2,16.2,54.4,17.8,54.4L17.8,54.4z M17.8,64.4&#10;&#9;&#9;c0.7,0,1.3-0.3,1.7-1c0.4-0.6,0.6-1.8,0.6-3.6c0-1.3-0.2-2.3-0.5-3.1c-0.3-0.8-0.9-1.2-1.8-1.2c-0.8,0-1.4,0.4-1.8,1.2&#10;&#9;&#9;c-0.4,0.8-0.6,1.9-0.6,3.4c0,1.1,0.1,2,0.4,2.7C16.3,63.9,16.9,64.4,17.8,64.4L17.8,64.4z M25.2,62.6c0.1,0.8,0.5,1.3,1.1,1.6&#10;&#9;&#9;c0.3,0.2,0.7,0.2,1.1,0.2c0.8,0,1.4-0.3,1.8-0.8c0.4-0.5,0.6-1.1,0.6-1.7c0-0.8-0.2-1.4-0.7-1.8c-0.5-0.4-1-0.6-1.7-0.6&#10;&#9;&#9;c-0.5,0-0.9,0.1-1.2,0.3c-0.3,0.2-0.6,0.4-0.9,0.8l-1.2-0.1l0.8-5.9h5.7v1.3h-4.7L25.6,59c0.3-0.2,0.5-0.3,0.7-0.4&#10;&#9;&#9;c0.4-0.2,0.9-0.3,1.4-0.3c1,0,1.9,0.3,2.6,1c0.7,0.7,1.1,1.5,1.1,2.5c0,1-0.3,2-1,2.8c-0.6,0.8-1.7,1.2-3.1,1.2&#10;&#9;&#9;c-0.9,0-1.7-0.3-2.4-0.8c-0.7-0.5-1.1-1.3-1.2-2.3L25.2,62.6L25.2,62.6z M38.2,61.5v-5l-3.5,5H38.2z M38.3,65.4v-2.7h-4.8v-1.4&#10;&#9;&#9;l5.1-7h1.2v7.2h1.6v1.2h-1.6v2.7L38.3,65.4L38.3,65.4z M47,54.4c1.4,0,2.5,0.6,3.1,1.8c0.5,0.9,0.7,2.2,0.7,3.7&#10;&#9;&#9;c0,1.5-0.2,2.7-0.7,3.7c-0.6,1.4-1.7,2.1-3.2,2.1c-1.3,0-2.3-0.6-3-1.7c-0.5-1-0.8-2.2-0.8-3.9c0-1.3,0.2-2.3,0.5-3.2&#10;&#9;&#9;C44.4,55.2,45.5,54.4,47,54.4L47,54.4z M47,64.4c0.7,0,1.3-0.3,1.7-1c0.4-0.6,0.6-1.8,0.6-3.6c0-1.3-0.2-2.3-0.5-3.1&#10;&#9;&#9;c-0.3-0.8-0.9-1.2-1.8-1.2c-0.8,0-1.4,0.4-1.8,1.2c-0.4,0.8-0.6,1.9-0.6,3.4c0,1.1,0.1,2,0.4,2.7C45.5,63.9,46.1,64.4,47,64.4&#10;&#9;&#9;L47,64.4z M61,65.4c0.1-0.9,0.2-1.8,0.6-2.5c0.3-0.7,1-1.3,2-1.9l1.5-0.9c0.7-0.4,1.1-0.7,1.4-1c0.4-0.4,0.6-0.9,0.6-1.5&#10;&#9;&#9;c0-0.6-0.2-1.2-0.6-1.5c-0.4-0.4-0.9-0.6-1.5-0.6c-0.9,0-1.6,0.4-2,1.1c-0.2,0.4-0.3,0.9-0.3,1.6h-1.4c0-1,0.2-1.7,0.5-2.3&#10;&#9;&#9;c0.6-1.1,1.7-1.6,3.2-1.6c1.3,0,2.2,0.3,2.8,1c0.6,0.7,0.9,1.4,0.9,2.3c0,0.9-0.3,1.6-0.9,2.3c-0.4,0.4-1,0.8-1.9,1.3l-1.1,0.6&#10;&#9;&#9;c-0.5,0.3-0.9,0.5-1.2,0.8c-0.5,0.4-0.8,0.9-1,1.5h6v1.3L61,65.4L61,65.4z M71.8,57.6v-1.1c1-0.1,1.7-0.3,2.1-0.5&#10;&#9;&#9;c0.4-0.2,0.7-0.8,0.9-1.6h1.1v11h-1.5v-7.8H71.8z M82,62.6c0.1,0.8,0.5,1.3,1.1,1.6c0.3,0.2,0.7,0.2,1.1,0.2c0.8,0,1.4-0.3,1.8-0.8&#10;&#9;&#9;c0.4-0.5,0.6-1.1,0.6-1.7c0-0.8-0.2-1.4-0.7-1.8c-0.5-0.4-1-0.6-1.7-0.6c-0.5,0-0.9,0.1-1.2,0.3c-0.3,0.2-0.6,0.4-0.9,0.8l-1.2-0.1&#10;&#9;&#9;l0.8-5.9h5.7v1.3h-4.7L82.3,59c0.3-0.2,0.5-0.3,0.7-0.4c0.4-0.2,0.9-0.3,1.4-0.3c1,0,1.9,0.3,2.6,1c0.7,0.7,1.1,1.5,1.1,2.5&#10;&#9;&#9;c0,1-0.3,2-1,2.8c-0.6,0.8-1.7,1.2-3.1,1.2c-0.9,0-1.7-0.3-2.4-0.8c-0.7-0.5-1.1-1.3-1.2-2.3L82,62.6L82,62.6z M94,54.4&#10;&#9;&#9;c1.4,0,2.5,0.6,3.1,1.8c0.5,0.9,0.7,2.2,0.7,3.7c0,1.5-0.2,2.7-0.7,3.7c-0.6,1.4-1.7,2.1-3.2,2.1c-1.3,0-2.3-0.6-3-1.7&#10;&#9;&#9;c-0.5-1-0.8-2.2-0.8-3.9c0-1.3,0.2-2.3,0.5-3.2C91.4,55.2,92.5,54.4,94,54.4L94,54.4z M94,64.4c0.7,0,1.3-0.3,1.7-1&#10;&#9;&#9;c0.4-0.6,0.6-1.8,0.6-3.6c0-1.3-0.2-2.3-0.5-3.1c-0.3-0.8-0.9-1.2-1.8-1.2c-0.8,0-1.4,0.4-1.8,1.2c-0.4,0.8-0.6,1.9-0.6,3.4&#10;&#9;&#9;c0,1.1,0.1,2,0.4,2.7C92.5,63.9,93.1,64.4,94,64.4L94,64.4z M111.8,54.4c1.4,0,2.5,0.6,3.1,1.8c0.5,0.9,0.7,2.2,0.7,3.7&#10;&#9;&#9;c0,1.5-0.2,2.7-0.7,3.7c-0.6,1.4-1.7,2.1-3.2,2.1c-1.3,0-2.3-0.6-3-1.7c-0.5-1-0.8-2.2-0.8-3.9c0-1.3,0.2-2.3,0.5-3.2&#10;&#9;&#9;C109.1,55.2,110.2,54.4,111.8,54.4L111.8,54.4z M111.8,64.4c0.7,0,1.3-0.3,1.7-1c0.4-0.6,0.6-1.8,0.6-3.6c0-1.3-0.2-2.3-0.5-3.1&#10;&#9;&#9;c-0.3-0.8-0.9-1.2-1.8-1.2c-0.8,0-1.4,0.4-1.8,1.2c-0.4,0.8-0.6,1.9-0.6,3.4c0,1.1,0.1,2,0.4,2.7C110.2,63.9,110.9,64.4,111.8,64.4&#10;&#9;&#9;L111.8,64.4z M121.4,65.7c-1.3,0-2.2-0.4-2.8-1.1c-0.6-0.7-0.9-1.6-0.9-2.6h1.4c0.1,0.7,0.2,1.2,0.4,1.6c0.4,0.6,1,0.9,1.9,0.9&#10;&#9;&#9;c0.7,0,1.3-0.2,1.8-0.6c0.4-0.4,0.7-0.9,0.7-1.5c0-0.8-0.2-1.3-0.7-1.6c-0.5-0.3-1.1-0.5-1.9-0.5c-0.1,0-0.2,0-0.3,0&#10;&#9;&#9;c-0.1,0-0.2,0-0.3,0v-1.2c0.1,0,0.3,0,0.4,0c0.1,0,0.2,0,0.3,0c0.5,0,0.9-0.1,1.3-0.2c0.6-0.3,0.9-0.8,0.9-1.5c0-0.5-0.2-1-0.6-1.3&#10;&#9;&#9;c-0.4-0.3-0.8-0.4-1.4-0.4c-0.9,0-1.6,0.3-1.9,0.9c-0.2,0.3-0.3,0.8-0.3,1.4h-1.4c0-0.8,0.2-1.5,0.5-2.1c0.6-1,1.6-1.5,3-1.5&#10;&#9;&#9;c1.1,0,2,0.2,2.6,0.7c0.6,0.5,0.9,1.2,0.9,2.2c0,0.7-0.2,1.2-0.5,1.6c-0.2,0.3-0.5,0.5-0.9,0.6c0.6,0.2,1,0.5,1.4,0.9&#10;&#9;&#9;c0.3,0.5,0.5,1,0.5,1.7c0,1.1-0.3,1.9-1,2.6C123.6,65.4,122.6,65.7,121.4,65.7L121.4,65.7z M129.1,62.7c0,0.8,0.3,1.3,0.9,1.6&#10;&#9;&#9;c0.3,0.2,0.6,0.2,1,0.2c0.7,0,1.2-0.3,1.7-0.8c0.5-0.6,0.8-1.7,1-3.4c-0.3,0.5-0.7,0.8-1.1,1c-0.5,0.2-0.9,0.3-1.5,0.3&#10;&#9;&#9;c-1.1,0-1.9-0.3-2.5-1c-0.6-0.7-0.9-1.5-0.9-2.6c0-1,0.3-1.9,0.9-2.6c0.6-0.8,1.5-1.1,2.7-1.1c1.6,0,2.7,0.7,3.3,2.2&#10;&#9;&#9;c0.3,0.8,0.5,1.8,0.5,3c0,1.3-0.2,2.5-0.6,3.6c-0.7,1.7-1.8,2.6-3.4,2.6c-1.1,0-1.9-0.3-2.5-0.8c-0.6-0.6-0.8-1.3-0.8-2.1&#10;&#9;&#9;L129.1,62.7L129.1,62.7z M131.2,60.5c0.5,0,1.1-0.2,1.5-0.5c0.5-0.4,0.7-1,0.7-1.9c0-0.8-0.2-1.4-0.6-1.8c-0.4-0.4-0.9-0.6-1.6-0.6&#10;&#9;&#9;c-0.7,0-1.2,0.2-1.6,0.7c-0.4,0.5-0.6,1.1-0.6,1.8c0,0.7,0.2,1.3,0.5,1.7C129.9,60.3,130.5,60.5,131.2,60.5L131.2,60.5z M142,61.5&#10;&#9;&#9;v-5l-3.5,5H142z M142,65.4v-2.7h-4.8v-1.4l5.1-7h1.2v7.2h1.6v1.2h-1.6v2.7L142,65.4L142,65.4z M158.8,59c0.6,0,1.1-0.2,1.4-0.5&#10;&#9;&#9;c0.3-0.3,0.5-0.7,0.5-1.2c0-0.4-0.2-0.8-0.5-1.1c-0.3-0.3-0.8-0.5-1.5-0.5c-0.7,0-1.1,0.2-1.4,0.5c-0.3,0.3-0.4,0.7-0.4,1.2&#10;&#9;&#9;c0,0.5,0.2,0.9,0.6,1.2C157.8,58.9,158.3,59,158.8,59L158.8,59z M158.9,64.5c0.6,0,1.2-0.2,1.6-0.5c0.4-0.3,0.6-0.9,0.6-1.6&#10;&#9;&#9;c0-0.7-0.2-1.3-0.7-1.6c-0.4-0.4-1-0.6-1.7-0.6c-0.7,0-1.2,0.2-1.6,0.6c-0.4,0.4-0.6,0.9-0.6,1.6c0,0.6,0.2,1.1,0.6,1.5&#10;&#9;&#9;C157.5,64.3,158.1,64.5,158.9,64.5L158.9,64.5z M156.9,59.5c-0.4-0.2-0.7-0.4-0.9-0.6c-0.4-0.4-0.6-0.9-0.6-1.6&#10;&#9;&#9;c0-0.8,0.3-1.5,0.9-2.1c0.6-0.6,1.4-0.9,2.5-0.9c1.1,0,1.9,0.3,2.5,0.8c0.6,0.6,0.9,1.2,0.9,2c0,0.7-0.2,1.2-0.5,1.7&#10;&#9;&#9;c-0.2,0.2-0.5,0.5-0.9,0.7c0.5,0.2,0.8,0.5,1.1,0.7c0.5,0.5,0.7,1.2,0.7,2c0,1-0.3,1.8-1,2.5c-0.7,0.7-1.6,1-2.8,1&#10;&#9;&#9;c-1.1,0-2-0.3-2.7-0.9c-0.7-0.6-1.1-1.4-1.1-2.5c0-0.7,0.2-1.2,0.5-1.7C155.8,60.1,156.3,59.8,156.9,59.5L156.9,59.5z" class="st2"/>
	<path d="M17,91l-0.8-2.3L15.4,91H17z M15.9,88h0.8l1.9,5.2h-0.8l-0.5-1.5h-2l-0.6,1.5H14L15.9,88L15.9,88z M22.9,88&#10;&#9;&#9;v0.6h-1.7v4.5h-0.7v-4.5h-1.7V88H22.9L22.9,88z M26.1,91l-0.8-2.3L24.5,91H26.1z M24.9,88h0.8l1.9,5.2h-0.8l-0.5-1.5h-2l-0.6,1.5&#10;&#9;&#9;H23L24.9,88L24.9,88z M29.1,91.5c0,0.3,0.1,0.5,0.2,0.7c0.2,0.3,0.6,0.5,1.2,0.5c0.3,0,0.5,0,0.7-0.1c0.4-0.1,0.6-0.4,0.6-0.8&#10;&#9;&#9;c0-0.3-0.1-0.5-0.3-0.6c-0.2-0.1-0.5-0.2-0.8-0.3l-0.7-0.2c-0.5-0.1-0.8-0.2-1-0.3c-0.3-0.2-0.5-0.5-0.5-1c0-0.5,0.2-0.8,0.5-1.1&#10;&#9;&#9;c0.3-0.3,0.8-0.4,1.4-0.4c0.5,0,1,0.1,1.4,0.4c0.4,0.3,0.6,0.7,0.6,1.3h-0.7c0-0.3-0.1-0.5-0.2-0.6c-0.2-0.3-0.6-0.4-1.1-0.4&#10;&#9;&#9;c-0.4,0-0.7,0.1-0.9,0.3c-0.2,0.2-0.3,0.4-0.3,0.6c0,0.3,0.1,0.4,0.3,0.6c0.1,0.1,0.5,0.2,0.9,0.3l0.7,0.2c0.3,0.1,0.6,0.2,0.8,0.3&#10;&#9;&#9;c0.3,0.2,0.5,0.6,0.5,1.1c0,0.6-0.2,1-0.6,1.2c-0.4,0.2-0.9,0.4-1.4,0.4c-0.6,0-1.1-0.2-1.5-0.5c-0.4-0.3-0.5-0.8-0.5-1.3&#10;&#9;&#9;L29.1,91.5L29.1,91.5z M37.6,88h0.8l2.6,4.2V88h0.7v5.2h-0.8L38.2,89v4.2h-0.7L37.6,88L37.6,88z M45.8,91l-0.8-2.3L44.2,91&#10;&#9;&#9;C44.2,91,45.8,91,45.8,91z M44.7,88h0.8l1.9,5.2h-0.8l-0.5-1.5h-2l-0.6,1.5h-0.7L44.7,88L44.7,88z M48.4,88h1l1.5,4.4l1.5-4.4h1&#10;&#9;&#9;v5.2h-0.7v-3c0-0.1,0-0.3,0-0.5c0-0.2,0-0.5,0-0.8l-1.5,4.4h-0.7l-1.5-4.4V89c0,0.1,0,0.3,0,0.6c0,0.3,0,0.4,0,0.6v3h-0.7L48.4,88&#10;&#9;&#9;L48.4,88z M57.5,91l-0.8-2.3L55.9,91H57.5z M56.4,88h0.8l1.9,5.2h-0.8l-0.5-1.5h-2l-0.6,1.5h-0.7L56.4,88L56.4,88z" class="st1"/>
	<path d="M14.9,98.4H16l3.5,5.6v-5.6h0.9v6.9h-1.1l-3.5-5.6v5.6h-0.9V98.4z M22.6,98.4h0.9v6.9h-0.9V98.4z M30.7,98.4&#10;&#9;&#9;h3.1c0.6,0,1.1,0.2,1.5,0.5c0.4,0.3,0.6,0.8,0.6,1.5c0,0.5-0.2,1-0.5,1.4c-0.3,0.4-0.9,0.6-1.6,0.6h-2.2v2.9h-0.9L30.7,98.4&#10;&#9;&#9;L30.7,98.4z M34.9,100.4c0-0.5-0.2-0.9-0.6-1c-0.2-0.1-0.5-0.1-0.9-0.1h-1.9v2.4h1.9c0.4,0,0.8-0.1,1-0.3&#10;&#9;&#9;C34.8,101.2,34.9,100.8,34.9,100.4z M38.6,98.4v4.3c0,0.5,0.1,0.9,0.3,1.3c0.3,0.5,0.7,0.8,1.4,0.8c0.8,0,1.3-0.3,1.6-0.8&#10;&#9;&#9;c0.2-0.3,0.2-0.7,0.2-1.2v-4.3h1v3.9c0,0.9-0.1,1.5-0.3,2c-0.4,0.8-1.2,1.3-2.4,1.3c-1.2,0-2-0.4-2.4-1.3c-0.2-0.5-0.3-1.1-0.3-2&#10;&#9;&#9;v-3.9L38.6,98.4L38.6,98.4z M50.2,98.4v0.8h-2.3v6.1h-1v-6.1h-2.3v-0.8H50.2L50.2,98.4z M52.7,98.4v4.3c0,0.5,0.1,0.9,0.3,1.3&#10;&#9;&#9;c0.3,0.5,0.7,0.8,1.4,0.8c0.8,0,1.3-0.3,1.6-0.8c0.2-0.3,0.2-0.7,0.2-1.2v-4.3h1v3.9c0,0.9-0.1,1.5-0.3,2c-0.4,0.8-1.2,1.3-2.4,1.3&#10;&#9;&#9;c-1.2,0-2-0.4-2.4-1.3c-0.2-0.5-0.3-1.1-0.3-2v-3.9L52.7,98.4L52.7,98.4z M67.4,101.6c0.4,0,0.8-0.1,1-0.3c0.3-0.2,0.4-0.5,0.4-1&#10;&#9;&#9;c0-0.5-0.2-0.8-0.5-1c-0.2-0.1-0.4-0.1-0.8-0.1h-2.3v2.4C65.2,101.6,67.4,101.6,67.4,101.6z M64.3,98.4h3.2c0.5,0,1,0.1,1.3,0.2&#10;&#9;&#9;c0.6,0.3,1,0.8,1,1.6c0,0.4-0.1,0.8-0.3,1c-0.2,0.3-0.4,0.5-0.7,0.6c0.3,0.1,0.5,0.3,0.6,0.4c0.1,0.2,0.2,0.5,0.2,0.9l0,0.9&#10;&#9;&#9;c0,0.3,0,0.5,0.1,0.6c0.1,0.2,0.2,0.4,0.3,0.4v0.2h-1.1c0-0.1-0.1-0.1-0.1-0.2c0-0.1,0-0.3,0-0.5l-0.1-1.2c0-0.5-0.2-0.8-0.5-0.9&#10;&#9;&#9;c-0.2-0.1-0.5-0.1-0.8-0.1h-2.1v3h-0.9L64.3,98.4L64.3,98.4z M75.3,102.5l-1.1-3.1l-1.1,3.1H75.3z M73.7,98.4h1.1l2.5,6.9h-1&#10;&#9;&#9;l-0.7-2.1h-2.7l-0.7,2.1h-1L73.7,98.4L73.7,98.4z M83.1,98.4v0.8h-2.3v6.1h-1v-6.1h-2.3v-0.8H83.1L83.1,98.4z M84.8,98.4h0.9v6.9&#10;&#9;&#9;h-0.9V98.4z M87.8,98.4h0.9v2.9h3.6v-2.9h0.9v6.9h-0.9v-3.2h-3.6v3.2h-0.9V98.4z M100.9,103.1c0,0.4,0.1,0.7,0.3,1&#10;&#9;&#9;c0.3,0.5,0.9,0.7,1.6,0.7c0.4,0,0.7-0.1,1-0.2c0.6-0.2,0.8-0.5,0.8-1c0-0.4-0.1-0.6-0.4-0.8c-0.2-0.2-0.6-0.3-1.1-0.4l-0.9-0.2&#10;&#9;&#9;c-0.6-0.1-1-0.3-1.3-0.5c-0.4-0.3-0.7-0.7-0.7-1.3c0-0.6,0.2-1.1,0.6-1.5s1-0.6,1.8-0.6c0.7,0,1.3,0.2,1.8,0.5&#10;&#9;&#9;c0.5,0.3,0.8,0.9,0.8,1.7h-0.9c0-0.4-0.1-0.7-0.3-0.9c-0.3-0.4-0.8-0.5-1.5-0.5c-0.6,0-1,0.1-1.2,0.3c-0.2,0.2-0.4,0.5-0.4,0.8&#10;&#9;&#9;c0,0.3,0.1,0.6,0.4,0.7c0.2,0.1,0.6,0.2,1.3,0.4l1,0.2c0.5,0.1,0.8,0.3,1.1,0.4c0.4,0.3,0.7,0.8,0.7,1.4c0,0.8-0.3,1.3-0.8,1.6&#10;&#9;&#9;c-0.6,0.3-1.2,0.5-1.9,0.5c-0.9,0-1.5-0.2-2-0.7c-0.5-0.4-0.7-1-0.7-1.8C100,103.1,100.9,103.1,100.9,103.1z M110.9,102.5l-1.1-3.1&#10;&#9;&#9;l-1.1,3.1H110.9z M109.3,98.4h1.1l2.5,6.9h-1l-0.7-2.1h-2.7l-0.7,2.1h-1L109.3,98.4L109.3,98.4z M114.4,98.4h3.1&#10;&#9;&#9;c0.6,0,1.1,0.2,1.5,0.5c0.4,0.3,0.6,0.8,0.6,1.5c0,0.5-0.2,1-0.5,1.4c-0.3,0.4-0.9,0.6-1.6,0.6h-2.2v2.9h-0.9V98.4L114.4,98.4z&#10;&#9;&#9; M118.7,100.4c0-0.5-0.2-0.9-0.6-1c-0.2-0.1-0.5-0.1-0.9-0.1h-1.9v2.4h1.9c0.4,0,0.8-0.1,1-0.3&#10;&#9;&#9;C118.5,101.2,118.7,100.8,118.7,100.4L118.7,100.4z M126.4,98.4v0.8h-2.3v6.1h-1v-6.1h-2.3v-0.8H126.4L126.4,98.4z M130.7,102.5&#10;&#9;&#9;l-1.1-3.1l-1.1,3.1H130.7L130.7,102.5z M129.2,98.4h1.1l2.5,6.9h-1l-0.7-2.1h-2.7l-0.7,2.1h-1L129.2,98.4L129.2,98.4z M134.2,98.4&#10;&#9;&#9;h1.1l3.5,5.6v-5.6h0.9v6.9h-1.1l-3.5-5.6v5.6h-0.9L134.2,98.4L134.2,98.4z M144.4,104.5c0.3,0,0.6,0,0.8-0.1&#10;&#9;&#9;c0.4-0.1,0.7-0.4,0.9-0.7c0.2-0.3,0.3-0.6,0.4-1.1c0-0.3,0.1-0.5,0.1-0.7c0-0.9-0.2-1.5-0.5-2c-0.3-0.5-0.9-0.7-1.6-0.7h-1.7v5.3&#10;&#9;&#9;H144.4L144.4,104.5z M141.8,98.4h2.8c1,0,1.7,0.3,2.2,1c0.5,0.6,0.7,1.4,0.7,2.3c0,0.7-0.1,1.4-0.4,2c-0.5,1.1-1.3,1.6-2.5,1.6&#10;&#9;&#9;h-2.8L141.8,98.4L141.8,98.4z M152.9,102.5l-1.1-3.1l-1.1,3.1H152.9L152.9,102.5z M151.4,98.4h1.1l2.5,6.9h-1l-0.7-2.1h-2.7&#10;&#9;&#9;l-0.7,2.1h-1L151.4,98.4L151.4,98.4z M159.6,101.6c0.4,0,0.8-0.1,1-0.3c0.3-0.2,0.4-0.5,0.4-1c0-0.5-0.2-0.8-0.5-1&#10;&#9;&#9;c-0.2-0.1-0.4-0.1-0.8-0.1h-2.3v2.4C157.4,101.6,159.6,101.6,159.6,101.6z M156.5,98.4h3.2c0.5,0,1,0.1,1.3,0.2&#10;&#9;&#9;c0.6,0.3,1,0.8,1,1.6c0,0.4-0.1,0.8-0.3,1c-0.2,0.3-0.4,0.5-0.7,0.6c0.3,0.1,0.5,0.3,0.6,0.4c0.1,0.2,0.2,0.5,0.2,0.9l0,0.9&#10;&#9;&#9;c0,0.3,0,0.5,0.1,0.6c0.1,0.2,0.2,0.4,0.3,0.4v0.2h-1.1c0-0.1-0.1-0.1-0.1-0.2c0-0.1,0-0.3,0-0.5l-0.1-1.2c0-0.5-0.2-0.8-0.5-0.9&#10;&#9;&#9;c-0.2-0.1-0.5-0.1-0.8-0.1h-2.1v3h-0.9L156.5,98.4L156.5,98.4z M164.2,98.4h0.9v6.9h-0.9V98.4z" class="st2"/>
	<path d="M16.3,121.2c0.3,0,0.5,0,0.7-0.1c0.3-0.1,0.4-0.4,0.4-0.7c0-0.3-0.1-0.6-0.4-0.7c-0.2-0.1-0.4-0.1-0.7-0.1&#10;&#9;&#9;h-1.2v1.6L16.3,121.2L16.3,121.2z M16.6,123.6c0.4,0,0.7-0.1,0.9-0.4c0.1-0.2,0.2-0.3,0.2-0.6c0-0.4-0.2-0.6-0.5-0.8&#10;&#9;&#9;c-0.2-0.1-0.4-0.1-0.7-0.1h-1.4v1.8L16.6,123.6L16.6,123.6z M14.4,119.1h2.2c0.6,0,1,0.2,1.3,0.5c0.2,0.2,0.2,0.5,0.2,0.7&#10;&#9;&#9;c0,0.3-0.1,0.6-0.3,0.8c-0.1,0.1-0.2,0.2-0.4,0.3c0.3,0.1,0.5,0.2,0.6,0.3c0.2,0.2,0.3,0.5,0.3,0.9c0,0.3-0.1,0.6-0.3,0.9&#10;&#9;&#9;c-0.3,0.4-0.8,0.6-1.5,0.6h-2.2L14.4,119.1L14.4,119.1z M20,123.2c0,0.2,0.1,0.3,0.2,0.4c0.1,0.1,0.3,0.2,0.5,0.2&#10;&#9;&#9;c0.2,0,0.4-0.1,0.6-0.2c0.4-0.2,0.5-0.5,0.5-0.8v-0.5c-0.1,0-0.2,0.1-0.3,0.1c-0.1,0-0.2,0.1-0.4,0.1l-0.4,0&#10;&#9;&#9;c-0.2,0-0.4,0.1-0.5,0.1C20.1,122.8,20,123,20,123.2L20,123.2z M21.6,121.9c0.1,0,0.2-0.1,0.3-0.2c0-0.1,0-0.1,0-0.2&#10;&#9;&#9;c0-0.2-0.1-0.4-0.2-0.5c-0.2-0.1-0.4-0.1-0.7-0.1c-0.3,0-0.6,0.1-0.7,0.3c-0.1,0.1-0.1,0.2-0.2,0.4h-0.6c0-0.5,0.2-0.8,0.5-1&#10;&#9;&#9;c0.3-0.2,0.6-0.3,1-0.3c0.4,0,0.8,0.1,1.1,0.3c0.3,0.2,0.4,0.4,0.4,0.8v2.2c0,0.1,0,0.1,0,0.2c0,0,0.1,0.1,0.2,0.1c0,0,0.1,0,0.1,0&#10;&#9;&#9;c0,0,0.1,0,0.1,0v0.5c-0.1,0-0.2,0-0.2,0.1c-0.1,0-0.1,0-0.2,0c-0.2,0-0.4-0.1-0.5-0.2c-0.1-0.1-0.1-0.2-0.1-0.3&#10;&#9;&#9;c-0.1,0.2-0.3,0.3-0.6,0.4c-0.2,0.1-0.5,0.2-0.8,0.2c-0.3,0-0.6-0.1-0.9-0.3c-0.2-0.2-0.3-0.5-0.3-0.8c0-0.3,0.1-0.6,0.3-0.8&#10;&#9;&#9;c0.2-0.2,0.5-0.3,0.9-0.4L21.6,121.9L21.6,121.9z M24,120.5h0.6v0.5c0.2-0.2,0.4-0.4,0.6-0.5c0.2-0.1,0.4-0.1,0.7-0.1&#10;&#9;&#9;c0.5,0,0.9,0.2,1.1,0.6c0.1,0.2,0.2,0.5,0.2,0.9v2.4h-0.6v-2.4c0-0.2,0-0.4-0.1-0.6c-0.1-0.2-0.3-0.4-0.6-0.4c-0.2,0-0.3,0-0.4,0&#10;&#9;&#9;c-0.2,0.1-0.3,0.2-0.5,0.3c-0.1,0.1-0.2,0.3-0.2,0.4c0,0.1,0,0.3,0,0.6v2H24L24,120.5L24,120.5z M28.4,119.1H29v3l1.6-1.6h0.8&#10;&#9;&#9;l-1.4,1.4l1.5,2.4h-0.8l-1.2-1.9l-0.5,0.5v1.4h-0.6L28.4,119.1L28.4,119.1z M38.2,121.2c0.3,0,0.5,0,0.7-0.1&#10;&#9;&#9;c0.3-0.1,0.4-0.4,0.4-0.7c0-0.3-0.1-0.6-0.4-0.7c-0.2-0.1-0.4-0.1-0.7-0.1h-1.2v1.6L38.2,121.2L38.2,121.2z M38.4,123.6&#10;&#9;&#9;c0.4,0,0.7-0.1,0.9-0.4c0.1-0.2,0.2-0.3,0.2-0.6c0-0.4-0.2-0.6-0.5-0.8c-0.2-0.1-0.4-0.1-0.7-0.1h-1.4v1.8L38.4,123.6L38.4,123.6z&#10;&#9;&#9; M36.2,119.1h2.2c0.6,0,1,0.2,1.3,0.5c0.2,0.2,0.2,0.5,0.2,0.7c0,0.3-0.1,0.6-0.3,0.8c-0.1,0.1-0.2,0.2-0.4,0.3&#10;&#9;&#9;c0.3,0.1,0.5,0.2,0.6,0.3c0.2,0.2,0.3,0.5,0.3,0.9c0,0.3-0.1,0.6-0.3,0.9c-0.3,0.4-0.8,0.6-1.5,0.6h-2.2L36.2,119.1L36.2,119.1z&#10;&#9;&#9; M41.5,119.1h2.3c0.5,0,0.8,0.1,1.1,0.4c0.3,0.3,0.4,0.6,0.4,1.1c0,0.4-0.1,0.8-0.4,1.1s-0.6,0.4-1.2,0.4h-1.6v2.2h-0.7&#10;&#9;&#9;C41.5,124.2,41.5,119.1,41.5,119.1z M44.7,120.5c0-0.4-0.1-0.6-0.4-0.8c-0.2-0.1-0.4-0.1-0.6-0.1h-1.4v1.8h1.4&#10;&#9;&#9;c0.3,0,0.6-0.1,0.8-0.2C44.6,121.1,44.7,120.9,44.7,120.5L44.7,120.5z M48.7,123.6c0.2,0,0.4,0,0.6-0.1c0.3-0.1,0.5-0.3,0.7-0.5&#10;&#9;&#9;c0.1-0.2,0.2-0.5,0.3-0.8c0-0.2,0.1-0.4,0.1-0.5c0-0.6-0.1-1.1-0.4-1.5c-0.3-0.4-0.7-0.5-1.2-0.5h-1.2v4L48.7,123.6L48.7,123.6z&#10;&#9;&#9; M46.7,119.1h2.1c0.7,0,1.3,0.3,1.7,0.8c0.3,0.5,0.5,1,0.5,1.7c0,0.5-0.1,1-0.3,1.5c-0.4,0.8-1,1.2-1.9,1.2h-2.1V119.1L46.7,119.1z&#10;&#9;&#9; M57.9,121.2c0.3,0,0.5,0,0.7-0.1c0.3-0.1,0.4-0.4,0.4-0.7c0-0.3-0.1-0.6-0.4-0.7c-0.2-0.1-0.4-0.1-0.7-0.1h-1.2v1.6L57.9,121.2&#10;&#9;&#9;L57.9,121.2z M58.2,123.6c0.4,0,0.7-0.1,0.9-0.4c0.1-0.2,0.2-0.3,0.2-0.6c0-0.4-0.2-0.6-0.5-0.8c-0.2-0.1-0.4-0.1-0.7-0.1h-1.4v1.8&#10;&#9;&#9;L58.2,123.6L58.2,123.6z M56,119.1h2.2c0.6,0,1,0.2,1.3,0.5c0.2,0.2,0.2,0.5,0.2,0.7c0,0.3-0.1,0.6-0.3,0.8&#10;&#9;&#9;c-0.1,0.1-0.2,0.2-0.4,0.3c0.3,0.1,0.5,0.2,0.6,0.3c0.2,0.2,0.3,0.5,0.3,0.9c0,0.3-0.1,0.6-0.3,0.9c-0.3,0.4-0.8,0.6-1.5,0.6H56&#10;&#9;&#9;L56,119.1L56,119.1z M61.6,123.2c0,0.2,0.1,0.3,0.2,0.4c0.1,0.1,0.3,0.2,0.5,0.2c0.2,0,0.4-0.1,0.6-0.2c0.4-0.2,0.5-0.5,0.5-0.8&#10;&#9;&#9;v-0.5c-0.1,0-0.2,0.1-0.3,0.1c-0.1,0-0.2,0.1-0.4,0.1l-0.4,0c-0.2,0-0.4,0.1-0.5,0.1C61.7,122.8,61.6,123,61.6,123.2L61.6,123.2z&#10;&#9;&#9; M63.2,121.9c0.1,0,0.2-0.1,0.3-0.2c0-0.1,0-0.1,0-0.2c0-0.2-0.1-0.4-0.2-0.5c-0.2-0.1-0.4-0.1-0.7-0.1c-0.3,0-0.6,0.1-0.7,0.3&#10;&#9;&#9;c-0.1,0.1-0.1,0.2-0.2,0.4h-0.6c0-0.5,0.2-0.8,0.5-1c0.3-0.2,0.6-0.3,1-0.3c0.4,0,0.8,0.1,1.1,0.3c0.3,0.2,0.4,0.4,0.4,0.8v2.2&#10;&#9;&#9;c0,0.1,0,0.1,0,0.2c0,0,0.1,0.1,0.2,0.1c0,0,0.1,0,0.1,0c0,0,0.1,0,0.1,0v0.5c-0.1,0-0.2,0-0.2,0.1c-0.1,0-0.1,0-0.2,0&#10;&#9;&#9;c-0.2,0-0.4-0.1-0.5-0.2c-0.1-0.1-0.1-0.2-0.1-0.3c-0.1,0.2-0.3,0.3-0.6,0.4c-0.2,0.1-0.5,0.2-0.8,0.2c-0.3,0-0.6-0.1-0.9-0.3&#10;&#9;&#9;c-0.2-0.2-0.3-0.5-0.3-0.8c0-0.3,0.1-0.6,0.3-0.8c0.2-0.2,0.5-0.3,0.9-0.4L63.2,121.9L63.2,121.9z M65.6,119.1h0.6v5.2h-0.6V119.1z&#10;&#9;&#9; M67.7,120.5h0.6v3.7h-0.6V120.5z M67.7,119.1h0.6v0.7h-0.6V119.1z" class="st2"/>
	<path d="M0.8,152h223.6c0.4,0,0.8,0.4,0.8,0.8v16.4c0,0.4-0.4,0.8-0.8,0.8H0.8c-0.4,0-0.8-0.4-0.8-0.8v-16.4&#10;&#9;&#9;C0,152.4,0.4,152,0.8,152z" class="st0"/>
	<path d="M56.9,161.9c0,0.3,0.1,0.5,0.2,0.7c0.2,0.3,0.6,0.5,1.2,0.5c0.3,0,0.5,0,0.7-0.1c0.4-0.1,0.6-0.4,0.6-0.8&#10;&#9;&#9;c0-0.3-0.1-0.5-0.3-0.6c-0.2-0.1-0.5-0.2-0.8-0.3l-0.7-0.2c-0.5-0.1-0.8-0.2-1-0.3c-0.3-0.2-0.5-0.5-0.5-1c0-0.5,0.2-0.8,0.5-1.1&#10;&#9;&#9;c0.3-0.3,0.8-0.4,1.4-0.4c0.5,0,1,0.1,1.4,0.4c0.4,0.3,0.6,0.7,0.6,1.3h-0.7c0-0.3-0.1-0.5-0.2-0.6c-0.2-0.3-0.6-0.4-1.1-0.4&#10;&#9;&#9;c-0.4,0-0.7,0.1-0.9,0.3c-0.2,0.2-0.3,0.4-0.3,0.6c0,0.3,0.1,0.4,0.3,0.6c0.1,0.1,0.5,0.2,0.9,0.3l0.7,0.2c0.3,0.1,0.6,0.2,0.8,0.3&#10;&#9;&#9;c0.3,0.2,0.5,0.6,0.5,1.1c0,0.6-0.2,1-0.6,1.2c-0.4,0.2-0.9,0.4-1.4,0.4c-0.6,0-1.1-0.2-1.5-0.5c-0.4-0.3-0.5-0.8-0.5-1.3&#10;&#9;&#9;L56.9,161.9L56.9,161.9z M64.9,161.4l-0.8-2.3l-0.8,2.3H64.9z M63.7,158.4h0.8l1.9,5.2h-0.8l-0.5-1.5h-2l-0.6,1.5h-0.7L63.7,158.4&#10;&#9;&#9;L63.7,158.4z M68,158.4h0.7v4.5h2.6v0.6H68V158.4z M73.1,158.4h0.7v5.2h-0.7V158.4z M76,158.4h0.8l2.6,4.2v-4.2h0.7v5.2h-0.8&#10;&#9;&#9;l-2.6-4.2v4.2H76L76,158.4L76,158.4z M87.6,158.4h0.8l2.6,4.2v-4.2h0.7v5.2h-0.8l-2.6-4.2v4.2h-0.7L87.6,158.4L87.6,158.4z&#10;&#9;&#9; M96,158.2c0.9,0,1.6,0.3,2,0.9c0.3,0.5,0.5,1,0.5,1.8c0,0.8-0.2,1.4-0.6,1.9c-0.5,0.6-1.1,0.9-2,0.9c-0.8,0-1.4-0.3-1.9-0.8&#10;&#9;&#9;c-0.4-0.5-0.6-1.1-0.6-1.9c0-0.7,0.2-1.3,0.5-1.8C94.5,158.6,95.2,158.2,96,158.2L96,158.2z M96.1,163.1c0.6,0,1.1-0.2,1.3-0.7&#10;&#9;&#9;c0.3-0.4,0.4-0.9,0.4-1.5c0-0.6-0.2-1.1-0.5-1.5c-0.3-0.4-0.8-0.6-1.3-0.6c-0.5,0-1,0.2-1.3,0.5s-0.5,0.9-0.5,1.6&#10;&#9;&#9;c0,0.6,0.1,1.1,0.4,1.4C95,162.9,95.5,163.1,96.1,163.1L96.1,163.1z M100.4,158.4h1l1.5,4.4l1.5-4.4h1v5.2h-0.7v-3&#10;&#9;&#9;c0-0.1,0-0.3,0-0.5c0-0.2,0-0.5,0-0.8l-1.5,4.4h-0.7l-1.5-4.4v0.2c0,0.1,0,0.3,0,0.6c0,0.3,0,0.4,0,0.6v3h-0.7L100.4,158.4&#10;&#9;&#9;L100.4,158.4z M109.6,158.2c0.9,0,1.6,0.3,2,0.9c0.3,0.5,0.5,1,0.5,1.8c0,0.8-0.2,1.4-0.6,1.9c-0.5,0.6-1.1,0.9-2,0.9&#10;&#9;&#9;c-0.8,0-1.4-0.3-1.9-0.8c-0.4-0.5-0.6-1.1-0.6-1.9c0-0.7,0.2-1.3,0.5-1.8C108.1,158.6,108.7,158.2,109.6,158.2L109.6,158.2z&#10;&#9;&#9; M109.7,163.1c0.6,0,1.1-0.2,1.3-0.7c0.3-0.4,0.4-0.9,0.4-1.5c0-0.6-0.2-1.1-0.5-1.5c-0.3-0.4-0.8-0.6-1.3-0.6&#10;&#9;&#9;c-0.5,0-1,0.2-1.3,0.5s-0.5,0.9-0.5,1.6c0,0.6,0.1,1.1,0.4,1.4C108.5,162.9,109,163.1,109.7,163.1L109.7,163.1z M116.3,160.7&#10;&#9;&#9;c0.3,0,0.6-0.1,0.8-0.2c0.2-0.1,0.3-0.4,0.3-0.7c0-0.4-0.1-0.6-0.4-0.8c-0.1-0.1-0.3-0.1-0.6-0.1h-1.7v1.8L116.3,160.7L116.3,160.7&#10;&#9;&#9;z M114,158.4h2.4c0.4,0,0.7,0.1,1,0.2c0.5,0.2,0.7,0.6,0.7,1.2c0,0.3-0.1,0.6-0.2,0.8c-0.1,0.2-0.3,0.4-0.5,0.5&#10;&#9;&#9;c0.2,0.1,0.4,0.2,0.5,0.3c0.1,0.1,0.2,0.4,0.2,0.6l0,0.7c0,0.2,0,0.3,0,0.4c0,0.2,0.1,0.3,0.2,0.3v0.1h-0.9c0,0,0-0.1-0.1-0.2&#10;&#9;&#9;c0-0.1,0-0.2,0-0.4l0-0.9c0-0.3-0.1-0.6-0.4-0.7c-0.1-0.1-0.3-0.1-0.6-0.1h-1.6v2.2H114V158.4L114,158.4z M128,160.7&#10;&#9;&#9;c0.3,0,0.6-0.1,0.8-0.2c0.2-0.1,0.3-0.4,0.3-0.7c0-0.4-0.1-0.6-0.4-0.8c-0.1-0.1-0.3-0.1-0.6-0.1h-1.7v1.8L128,160.7L128,160.7z&#10;&#9;&#9; M125.7,158.4h2.4c0.4,0,0.7,0.1,1,0.2c0.5,0.2,0.7,0.6,0.7,1.2c0,0.3-0.1,0.6-0.2,0.8c-0.1,0.2-0.3,0.4-0.5,0.5&#10;&#9;&#9;c0.2,0.1,0.4,0.2,0.5,0.3c0.1,0.1,0.2,0.4,0.2,0.6l0,0.7c0,0.2,0,0.3,0,0.4c0,0.2,0.1,0.3,0.2,0.3v0.1h-0.9c0,0,0-0.1-0.1-0.2&#10;&#9;&#9;c0-0.1,0-0.2,0-0.4l0-0.9c0-0.3-0.1-0.6-0.4-0.7c-0.1-0.1-0.3-0.1-0.6-0.1h-1.6v2.2h-0.7V158.4L125.7,158.4z M131.9,158.4h3.8v0.6&#10;&#9;&#9;h-3.1v1.6h2.8v0.6h-2.8v1.7h3.1v0.6h-3.8V158.4L131.9,158.4z M137.6,158.4h0.7v2.5l2.5-2.5h1l-2.1,2.1l2.2,3.1h-0.9l-1.8-2.6&#10;&#9;&#9;l-0.8,0.8v1.8h-0.7L137.6,158.4L137.6,158.4z M143.4,158.4h3.8v0.6h-3.1v1.6h2.8v0.6h-2.8v1.7h3.1v0.6h-3.8V158.4L143.4,158.4z&#10;&#9;&#9; M149.1,158.4h0.8l2.6,4.2v-4.2h0.7v5.2h-0.8l-2.6-4.2v4.2h-0.7L149.1,158.4L149.1,158.4z M155.5,158.4h0.7v5.2h-0.7V158.4z&#10;&#9;&#9; M158.3,158.4h0.8l2.6,4.2v-4.2h0.7v5.2h-0.8l-2.6-4.2v4.2h-0.7L158.3,158.4L158.3,158.4z M166.7,158.3c0.5,0,0.9,0.1,1.3,0.3&#10;&#9;&#9;c0.5,0.3,0.8,0.7,0.9,1.4h-0.7c-0.1-0.4-0.3-0.7-0.5-0.8c-0.3-0.2-0.6-0.3-1-0.3c-0.5,0-0.9,0.2-1.2,0.5c-0.3,0.4-0.5,0.9-0.5,1.6&#10;&#9;&#9;c0,0.6,0.1,1.1,0.4,1.5c0.3,0.4,0.7,0.6,1.3,0.6c0.5,0,0.9-0.1,1.2-0.4c0.3-0.3,0.5-0.7,0.5-1.3h-1.6v-0.6h2.3v2.8h-0.4l-0.2-0.7&#10;&#9;&#9;c-0.2,0.3-0.4,0.4-0.6,0.5c-0.3,0.2-0.7,0.3-1.2,0.3c-0.6,0-1.1-0.2-1.6-0.6c-0.5-0.5-0.7-1.2-0.7-2c0-0.9,0.2-1.6,0.7-2.1&#10;&#9;&#9;C165.4,158.5,166,158.3,166.7,158.3L166.7,158.3z" class="st2"/>
	<path d="M8.7,157.6h2.7v-1c0-0.2,0.1-0.4,0.2-0.5l0,0c0.1-0.1,0.3-0.2,0.5-0.2h4l0,0l0,0h0l0.9,0.9h0l0.4,0.4v0&#10;&#9;&#9;l0.9,0.9v6c0,0.2-0.1,0.4-0.2,0.5l0,0c-0.1,0.1-0.3,0.2-0.5,0.2h-2.7v1c0,0.2-0.1,0.4-0.2,0.5l0,0c-0.1,0.1-0.3,0.2-0.5,0.2H8.7&#10;&#9;&#9;c-0.2,0-0.4-0.1-0.5-0.2c-0.1-0.1-0.2-0.3-0.2-0.5v-7.4c0-0.2,0.1-0.4,0.2-0.5l0,0C8.4,157.6,8.5,157.6,8.7,157.6L8.7,157.6z&#10;&#9;&#9; M17.5,159h-1.6c-0.2,0-0.4-0.1-0.5-0.2c-0.1-0.1-0.2-0.3-0.2-0.5v-1.6h-2.8v7.1h5.2V159z M16,156.8v1.4h1.4L16,156.8z M11.5,158.4&#10;&#9;&#9;H8.9v7.1H14v-0.9h-1.8c-0.2,0-0.4-0.1-0.5-0.2c-0.1-0.1-0.2-0.3-0.2-0.5V158.4L11.5,158.4z" class="st2"/>
	<g id="_105554128205344">
		<path d="M188,34.1c0.3-0.2,0.5-0.4,0.8-0.7c0,0,0.1-0.1,0.1-0.1c0,0.1,0,0.1,0.1,0.2c0.1,0.4,0.4,0.7,0.8,0.9&#10;&#9;&#9;&#9;c0.2,0.1,0.3,0.1,0.5,0.2c0.7,0.2,1.3,0.7,1.6,1.4c0,0.1,0.1,0.1,0.1,0.1c0.8-0.2,1.5-0.1,2.2,0.2c0.2,0.1,0.5,0.2,0.7,0.3&#10;&#9;&#9;&#9;c0.4,0.1,0.7,0.1,1-0.2c0.1,0,0.1-0.1,0.2-0.2c0,0.4,0,0.9,0,1.3c0,0.1,0,0.1-0.1,0.1c-0.4,0-0.9,0-1.3-0.1&#10;&#9;&#9;&#9;c-0.9-0.1-1.8-0.3-2.7-0.7c-1.4-0.5-2.6-1.3-3.7-2.2c-0.2-0.1-0.3-0.3-0.5-0.4C187.9,34.2,187.9,34.2,188,34.1L188,34.1L188,34.1z" class="st2"/>
		<path d="M187.7,17c0.3,0.3,0.6,0.6,0.8,0.9c-0.1,0-0.1,0-0.2,0.1c-0.4,0.1-0.7,0.4-0.9,0.8c-0.1,0.2-0.1,0.4-0.2,0.5&#10;&#9;&#9;&#9;c-0.2,0.7-0.7,1.2-1.3,1.6c-0.1,0-0.1,0.1-0.1,0.2c0.2,0.7,0.1,1.5-0.2,2.1c-0.1,0.2-0.2,0.4-0.3,0.6c-0.2,0.4-0.1,0.9,0.2,1.2&#10;&#9;&#9;&#9;c0,0,0.1,0.1,0.1,0.1c-0.5,0-0.9,0-1.4,0c-0.1,0,0-0.1,0-0.1c0-1.9,0.5-3.7,1.4-5.4c0.2-0.4,0.5-0.8,0.8-1.2&#10;&#9;&#9;&#9;c0.2-0.3,0.4-0.5,0.6-0.8c0.2-0.2,0.3-0.4,0.5-0.6C187.6,17.1,187.6,17.1,187.7,17L187.7,17L187.7,17z" class="st2"/>
		<path d="M184.3,25.7c0.4,0,0.8,0,1.3,0.1c0,0.1-0.1,0.1-0.1,0.2c-0.2,0.4-0.2,0.8,0,1.2c0.1,0.2,0.2,0.4,0.2,0.5&#10;&#9;&#9;&#9;c0.3,0.7,0.4,1.4,0.2,2.1c0,0.1,0,0.1,0.1,0.2c0.7,0.4,1.1,0.9,1.4,1.7c0.1,0.2,0.1,0.3,0.2,0.5c0.2,0.6,0.6,0.9,1.2,0.9&#10;&#9;&#9;&#9;c-0.3,0.3-0.6,0.7-0.9,1c-0.1,0.1-0.1,0-0.1,0c-0.6-0.6-1.2-1.3-1.6-2.1c-0.8-1.3-1.3-2.7-1.6-4.3&#10;&#9;&#9;&#9;C184.3,26.9,184.3,26.4,184.3,25.7C184.2,25.8,184.2,25.7,184.3,25.7L184.3,25.7L184.3,25.7z" class="st2"/>
		<path d="M208.6,25.3c-0.4,0-0.8,0-1.3-0.1c0-0.1,0.1-0.1,0.1-0.2c0.2-0.4,0.2-0.8,0-1.1c-0.1-0.2-0.2-0.4-0.3-0.6&#10;&#9;&#9;&#9;c-0.3-0.7-0.4-1.3-0.2-2c0-0.1,0-0.1-0.1-0.2c-0.7-0.4-1.1-1-1.4-1.7c-0.1-0.2-0.1-0.4-0.2-0.6c-0.2-0.5-0.5-0.7-1-0.8&#10;&#9;&#9;&#9;c0,0-0.1,0-0.1,0c0,0,0-0.1,0.1-0.1c0.3-0.3,0.6-0.6,0.8-0.8c0.1-0.1,0.1-0.1,0.2,0c0.5,0.5,1,1.1,1.4,1.7c0,0,0,0.1,0.1,0.1l0,0&#10;&#9;&#9;&#9;c0,0.1,0.1,0.2,0.1,0.3l0,0c0,0,0.1,0.1,0.1,0.1l0,0c0,0,0,0,0,0l0,0c0,0,0,0.1,0,0.1c0.2,0.3,0.3,0.6,0.5,1&#10;&#9;&#9;&#9;c0.2,0.5,0.4,0.9,0.5,1.4c0,0,0.1,0.1,0,0.1c0,0,0,0.1,0,0.1l0,0c0,0.1,0,0.1,0,0.2c0.1,0.2,0.1,0.4,0.2,0.5c0,0.2,0,0.4,0.1,0.5&#10;&#9;&#9;&#9;c0,0.1,0,0.3,0,0.4C208.5,24.1,208.6,24.7,208.6,25.3L208.6,25.3L208.6,25.3z" class="st2"/>
		<path d="M205.1,33.8c-0.3-0.3-0.5-0.6-0.8-0.9c0.1,0,0.1,0,0.1,0c0.5-0.1,0.8-0.4,0.9-0.9c0.1-0.2,0.1-0.4,0.2-0.5&#10;&#9;&#9;&#9;c0.2-0.7,0.7-1.2,1.3-1.6c0.1-0.1,0.1-0.1,0.1-0.2c-0.2-0.7-0.1-1.5,0.2-2.1c0.1-0.2,0.2-0.4,0.3-0.7c0.1-0.4,0.1-0.7-0.2-1.1&#10;&#9;&#9;&#9;c0-0.1-0.1-0.1-0.1-0.2c0.5,0,0.9,0,1.4,0c0,0,0,0.1,0,0.1c0,0.7-0.1,1.4-0.2,2c-0.2,1.1-0.6,2.2-1.1,3.3&#10;&#9;&#9;&#9;c-0.5,0.9-1.1,1.8-1.8,2.6c-0.1,0.1-0.1,0.1-0.2,0.2C205.2,33.9,205.2,33.9,205.1,33.8L205.1,33.8L205.1,33.8z" class="st2"/>
		<path d="M196.6,14.7c0-0.5,0-0.9,0-1.3c0-0.1,0-0.1,0.1-0.1c1.5,0,2.9,0.3,4.2,0.9c1.4,0.6,2.7,1.5,3.9,2.5&#10;&#9;&#9;&#9;c0,0,0.1,0.1,0,0.1c-0.3,0.3-0.6,0.5-0.9,0.8c0,0,0,0,0,0c-0.1-0.7-0.6-1-1.2-1.2c-0.4-0.1-0.8-0.3-1.2-0.6&#10;&#9;&#9;&#9;c-0.3-0.2-0.5-0.5-0.6-0.8c0-0.1-0.1-0.1-0.1-0.1c-0.8,0.2-1.5,0.1-2.2-0.2c-0.2-0.1-0.5-0.2-0.7-0.3c-0.3-0.1-0.6,0-0.9,0.1&#10;&#9;&#9;&#9;C196.8,14.6,196.7,14.6,196.6,14.7L196.6,14.7L196.6,14.7z" class="st2"/>
		<path d="M188.8,17.8c-0.3-0.3-0.6-0.6-1-0.9c-0.1-0.1,0-0.1,0-0.1c0.3-0.3,0.7-0.6,1-0.9c1.6-1.3,3.4-2,5.4-2.4&#10;&#9;&#9;&#9;c0.5-0.1,1.1-0.2,1.6-0.2c0.1,0,0.1,0,0.1,0.1c0,0.4,0,0.7,0,1.1c0,0.1,0,0.1-0.1,0.1c-0.5-0.3-0.9-0.3-1.4,0&#10;&#9;&#9;&#9;c-0.3,0.2-0.7,0.4-1.1,0.5c-0.5,0.1-0.9,0.1-1.4,0c-0.1,0-0.1,0-0.1,0.1c-0.4,0.7-1,1.2-1.7,1.4c-0.2,0.1-0.4,0.2-0.7,0.3&#10;&#9;&#9;&#9;c-0.4,0.2-0.6,0.5-0.7,1C188.9,17.6,188.9,17.7,188.8,17.8C188.9,17.7,188.9,17.7,188.8,17.8L188.8,17.8L188.8,17.8z" class="st2"/>
		<path d="M204.9,34c-0.3-0.3-0.6-0.6-1-0.9c0,0,0,0.1,0,0.1c0,0.5-0.3,0.9-0.8,1.1c-0.2,0.1-0.4,0.2-0.6,0.2&#10;&#9;&#9;&#9;c-0.7,0.3-1.2,0.7-1.6,1.3c-0.1,0.1-0.1,0.2-0.3,0.1c-0.6-0.2-1.3-0.1-1.9,0.2c-0.2,0.1-0.4,0.2-0.6,0.3c-0.4,0.2-0.8,0.2-1.2,0&#10;&#9;&#9;&#9;c0,0-0.1-0.1-0.2-0.1c0,0.4,0,0.7-0.1,1.1c0,0.1,0,0.2,0.2,0.1c0.5,0,1-0.1,1.5-0.2c1.5-0.2,2.9-0.7,4.2-1.5&#10;&#9;&#9;&#9;c0.9-0.5,1.7-1.1,2.4-1.8C204.9,34.1,204.9,34.1,204.9,34L204.9,34L204.9,34z" class="st2"/>
		<path d="M196.4,7.6c-9.9,0-17.9,8-17.9,17.9s8,17.9,17.9,17.9s17.9-8,17.9-17.9S206.3,7.6,196.4,7.6z M196.4,42.7&#10;&#9;&#9;&#9;c-9.5,0-17.2-7.7-17.2-17.2c0-9.5,7.7-17.2,17.2-17.2c9.5,0,17.2,7.7,17.2,17.2C213.6,35,205.9,42.7,196.4,42.7L196.4,42.7&#10;&#9;&#9;&#9;L196.4,42.7z" class="st2"/>
		<path d="M210,24.8c0.2,0,0.5,0.1,0.7,0.1c0,0,0.1,0,0.1,0c0-0.1,0-0.1-0.1-0.1c-0.2-0.1-0.3-0.2-0.5-0.3&#10;&#9;&#9;&#9;c-0.1-0.1-0.2-0.2-0.2-0.3c0-0.1,0-0.2,0.1-0.2c0.1,0,0.1-0.1,0.2,0c0.2,0.1,0.3,0.2,0.4,0.4c0.1,0.1,0.1,0.2,0.2,0.3&#10;&#9;&#9;&#9;c0,0,0,0.1,0.1,0.1c0.1,0,0-0.1,0-0.1c0-0.3-0.1-0.5-0.1-0.8c0-0.1,0-0.2,0.1-0.2c0.1-0.1,0.2-0.1,0.3,0.1c0.1,0.1,0.1,0.2,0,0.4&#10;&#9;&#9;&#9;c0,0.2-0.1,0.4-0.1,0.6c0,0,0,0.1,0,0.1c0,0,0.1,0,0.1-0.1c0.1-0.1,0.1-0.3,0.2-0.4c0.1-0.1,0.1-0.2,0.2-0.3&#10;&#9;&#9;&#9;c0.1-0.1,0.2-0.1,0.3,0c0.1,0.1,0.1,0.2,0,0.3c-0.1,0.1-0.2,0.2-0.3,0.3c-0.1,0.1-0.2,0.2-0.4,0.2c0,0-0.1,0-0.1,0.1&#10;&#9;&#9;&#9;c0,0.1,0.1,0,0.1,0c0.2,0,0.3-0.1,0.5-0.1c0.1,0,0.2,0,0.3,0c0.1,0,0.2,0.1,0.2,0.2c0,0.1-0.1,0.2-0.2,0.2c-0.2,0-0.5,0-0.7-0.1&#10;&#9;&#9;&#9;c-0.1,0-0.1,0-0.1,0c0,0-0.1,0-0.1,0c0,0,0,0.1,0,0.1c0.1,0.1,0.3,0.2,0.4,0.3c0.1,0.1,0.2,0.1,0.2,0.2c0.1,0.1,0.1,0.3,0,0.3&#10;&#9;&#9;&#9;c-0.1,0.1-0.2,0.1-0.3,0c-0.1-0.1-0.2-0.2-0.3-0.4c-0.1-0.1-0.1-0.2-0.2-0.3c0,0,0-0.1-0.1-0.1c0,0,0,0.1,0,0.1&#10;&#9;&#9;&#9;c0,0.2,0.1,0.5,0.1,0.7c0,0.1,0,0.1-0.1,0.2c0,0.1-0.1,0.1-0.2,0.1c-0.1,0-0.1-0.1-0.2-0.2c-0.1-0.1,0-0.3,0-0.4&#10;&#9;&#9;&#9;c0-0.2,0.1-0.3,0.1-0.5c0,0,0.1-0.1,0-0.1c-0.1,0-0.1,0-0.1,0.1c-0.1,0.2-0.2,0.4-0.4,0.6c-0.1,0.1-0.3,0.2-0.4,0.1&#10;&#9;&#9;&#9;c-0.1-0.1,0-0.3,0.1-0.4c0.2-0.2,0.4-0.2,0.6-0.4c0,0,0,0,0.1,0c0,0,0.1,0,0-0.1c0,0,0,0-0.1,0c-0.2,0-0.4,0.1-0.6,0.1&#10;&#9;&#9;&#9;c-0.1,0-0.2,0-0.3,0c-0.1,0-0.3-0.1-0.2-0.2c0-0.1,0.1-0.2,0.2-0.2C209.9,24.8,209.9,24.8,210,24.8L210,24.8L210,24.8z" class="st2"/>
		<path d="M181.9,24c0,0.2-0.1,0.4-0.1,0.6c0,0,0,0.1,0,0.1c0.1,0,0.1-0.1,0.1-0.1c0.1-0.2,0.2-0.5,0.4-0.6&#10;&#9;&#9;&#9;c0.1-0.1,0.3-0.2,0.4-0.1c0.1,0.1,0.1,0.2-0.1,0.4c-0.2,0.2-0.4,0.3-0.6,0.5c0,0-0.1,0-0.1,0.1c0,0.1,0.1,0,0.1,0&#10;&#9;&#9;&#9;c0.2-0.1,0.4-0.1,0.7-0.2c0.1,0,0.2,0,0.2,0c0.1,0,0.2,0.1,0.2,0.2c0,0.1-0.1,0.2-0.2,0.2c-0.2,0-0.3,0-0.5,0&#10;&#9;&#9;&#9;c-0.1,0-0.3-0.1-0.4-0.1c0,0-0.1,0-0.1,0c0,0.1,0,0.1,0.1,0.1c0.2,0.1,0.4,0.2,0.6,0.4c0.1,0.1,0.1,0.1,0.1,0.3&#10;&#9;&#9;&#9;c0,0.2-0.1,0.2-0.3,0.2c-0.1-0.1-0.2-0.2-0.3-0.3c-0.1-0.1-0.2-0.3-0.2-0.4c0,0,0-0.1-0.1-0.1c-0.1,0,0,0.1,0,0.1&#10;&#9;&#9;&#9;c0,0.2,0.1,0.4,0.1,0.5c0,0.1,0,0.2,0,0.3c0,0.1-0.1,0.2-0.2,0.2c-0.1,0-0.2-0.1-0.2-0.2c0-0.2,0-0.3,0.1-0.5&#10;&#9;&#9;&#9;c0-0.1,0.1-0.2,0.1-0.3c0,0,0-0.1,0-0.1c0,0-0.1,0-0.1,0.1c-0.2,0.2-0.3,0.5-0.5,0.7c-0.2,0.1-0.3,0.1-0.4-0.1&#10;&#9;&#9;&#9;c0-0.1,0-0.2,0.1-0.2c0.2-0.2,0.4-0.3,0.6-0.4c0,0,0.2,0,0.1-0.1c0-0.1-0.1,0-0.2,0c-0.2,0-0.4,0.1-0.6,0.1c-0.1,0-0.2,0-0.3-0.1&#10;&#9;&#9;&#9;c-0.1,0-0.1-0.1-0.1-0.2c0-0.1,0.1-0.1,0.2-0.2c0.2-0.1,0.3,0,0.5,0c0.1,0,0.2,0.1,0.4,0.1c0,0,0.1,0.1,0.1,0c0-0.1,0-0.1-0.1-0.1&#10;&#9;&#9;&#9;c-0.2-0.1-0.3-0.2-0.5-0.3c-0.1-0.1-0.2-0.1-0.2-0.2c-0.1-0.1-0.1-0.2,0-0.3c0.1-0.1,0.2,0,0.3,0c0.1,0.1,0.2,0.2,0.3,0.4&#10;&#9;&#9;&#9;c0.1,0.1,0.1,0.2,0.2,0.3c0,0,0,0.1,0.1,0.1c0,0,0-0.1,0-0.1c0-0.1-0.1-0.3-0.1-0.4c0-0.1,0-0.2,0-0.3c0-0.1,0.1-0.3,0.2-0.3&#10;&#9;&#9;&#9;c0.1,0,0.2,0.1,0.2,0.2C181.9,23.9,181.9,24,181.9,24L181.9,24L181.9,24z" class="st2"/>
		<path d="M186.3,15.8c-0.1-0.1-0.3-0.2-0.5-0.2c-0.1,0-0.2,0-0.3,0.1c0-0.1,0-0.2,0-0.3c0-0.1-0.1-0.3-0.2-0.4&#10;&#9;&#9;&#9;c-0.1-0.1-0.3-0.2-0.4-0.2h0c-0.2,0-0.3,0.1-0.5,0.2c-0.1,0.1-0.2,0.2-0.4,0.4l-0.8,0.9l0.1,0.1l0.1-0.1c0.1-0.1,0.1-0.1,0.2-0.1&#10;&#9;&#9;&#9;c0,0,0.1,0,0.2,0.1l1.3,1.1c0.1,0.1,0.2,0.2,0.2,0.2c0,0.1,0,0.1-0.1,0.2l-0.1,0.1l0.1,0.1l0.9-1c0.2-0.2,0.3-0.4,0.4-0.6&#10;&#9;&#9;&#9;c0.1-0.2,0.1-0.3,0-0.5C186.4,16.1,186.4,15.9,186.3,15.8L186.3,15.8L186.3,15.8z M184.9,15.5c0.1,0.1,0.1,0.1,0.1,0.2&#10;&#9;&#9;&#9;c0,0.1,0,0.2,0,0.3c0,0.1-0.1,0.2-0.2,0.3c0,0.1-0.1,0.1-0.1,0.1c0,0-0.1,0.1-0.1,0.1l-0.7-0.6c0-0.1,0.1-0.2,0.2-0.2&#10;&#9;&#9;&#9;c0.1-0.2,0.3-0.3,0.4-0.3C184.7,15.4,184.8,15.4,184.9,15.5L184.9,15.5L184.9,15.5z M185.6,17.4l-0.7-0.6c0,0,0,0,0-0.1&#10;&#9;&#9;&#9;c0,0,0.1-0.1,0.1-0.2c0.1-0.1,0.2-0.2,0.3-0.3c0.1-0.1,0.2-0.1,0.3-0.1c0.1,0,0.2,0.1,0.2,0.1c0.1,0.1,0.2,0.2,0.2,0.4&#10;&#9;&#9;&#9;c0,0.1-0.1,0.3-0.2,0.5C185.8,17.2,185.7,17.3,185.6,17.4L185.6,17.4L185.6,17.4z" class="st2"/>
		<path d="M189.3,14.3c-0.1,0.1-0.2,0.1-0.2,0.1l0,0c0,0-0.1,0-0.3-0.1l-2.1-1.2l-0.1,0.1l0.6,2.3c0,0.2,0.1,0.3,0,0.4&#10;&#9;&#9;&#9;c0,0,0,0.1-0.1,0.2l0,0l0.1,0.1l0.8-0.6l-0.1-0.1l0,0c-0.1,0.1-0.2,0.1-0.2,0.1c0,0-0.1,0-0.1,0c0,0,0-0.1-0.1-0.2l-0.1-0.4&#10;&#9;&#9;&#9;l0.8-0.6l0.3,0.2c0.1,0.1,0.2,0.1,0.2,0.2c0,0,0,0,0,0.1c0,0,0,0.1-0.1,0.1l0,0l0.1,0.1l0.9-0.7L189.3,14.3L189.3,14.3L189.3,14.3&#10;&#9;&#9;&#9;L189.3,14.3z M187.2,14.6l-0.2-0.9l0.8,0.5L187.2,14.6z" class="st2"/>
		<path d="M191.3,12.6L191.3,12.6c0,0.2,0,0.3,0,0.4c0,0.1-0.1,0.2-0.1,0.2c-0.1,0.1-0.2,0.1-0.3,0.2l-0.2,0.1&#10;&#9;&#9;&#9;c-0.2,0.1-0.3,0.1-0.3,0.1c0,0,0,0-0.1,0c0,0-0.1-0.1-0.1-0.2l-0.7-1.5c-0.1-0.2-0.1-0.2-0.1-0.3c0,0,0-0.1,0-0.1&#10;&#9;&#9;&#9;c0,0,0.1-0.1,0.2-0.1l0.1,0l-0.1-0.2l-1.2,0.5l0.1,0.2l0.1-0.1c0.1,0,0.1,0,0.2,0c0,0,0.1,0,0.1,0.2l0.7,1.5&#10;&#9;&#9;&#9;c0.1,0.2,0.1,0.2,0.1,0.2c0,0.1-0.1,0.1-0.1,0.2l-0.1,0.1l0.1,0.2l1.9-0.9l-0.1-0.8L191.3,12.6L191.3,12.6L191.3,12.6z" class="st2"/>
		<path d="M193.1,12.7c-0.1,0-0.1,0-0.2,0c0,0-0.1,0-0.1,0c0,0,0-0.1-0.1-0.2l-0.5-1.6c-0.1-0.2,0-0.3,0-0.3&#10;&#9;&#9;&#9;c0-0.1,0.1-0.1,0.2-0.1l0.1,0l-0.1-0.2l-1.2,0.3l0.1,0.2l0.1,0c0.1,0,0.1,0,0.2,0c0,0,0.1,0,0.1,0c0,0,0,0.1,0.1,0.2l0.5,1.6&#10;&#9;&#9;&#9;c0.1,0.2,0,0.3,0,0.3c0,0.1-0.1,0.1-0.2,0.1l-0.1,0l0.1,0.2l1.2-0.3l-0.1-0.2L193.1,12.7L193.1,12.7L193.1,12.7z" class="st2"/>
		<path d="M198.3,10c-0.2-0.1-0.5-0.2-0.9-0.2l-1.1-0.1l0,0.2l0.2,0c0.1,0,0.1,0,0.2,0.1c0,0,0,0.1,0,0.3l-0.1,1.7&#10;&#9;&#9;&#9;c0,0.2,0,0.2-0.1,0.3c0,0.1-0.1,0.1-0.2,0.1l-0.2,0l0,0.2l1.2,0.1c0.1,0,0.1,0,0.2,0c0.4,0,0.8-0.1,1-0.3c0.3-0.2,0.4-0.5,0.4-0.9&#10;&#9;&#9;&#9;c0-0.3,0-0.5-0.1-0.8C198.7,10.3,198.5,10.2,198.3,10L198.3,10L198.3,10z M197.1,10.1c0.1,0,0.2,0,0.3,0c0.3,0,0.5,0.1,0.7,0.4&#10;&#9;&#9;&#9;c0.2,0.2,0.2,0.5,0.2,0.8c0,0.3-0.1,0.6-0.3,0.8c-0.2,0.2-0.4,0.3-0.7,0.2c-0.1,0-0.2,0-0.3-0.1L197.1,10.1&#10;&#9;&#9;&#9;C197.1,10.1,197.1,10.1,197.1,10.1z" class="st2"/>
		<path d="M203.2,11.6c0.1,0,0.1-0.1,0.1-0.1c0,0,0.1,0,0.1,0l0.1,0l0.1-0.2l-0.8-0.3l-0.1,0.2l0.1,0&#10;&#9;&#9;&#9;c0.1,0,0.1,0.1,0.2,0.1c0,0,0,0,0,0c0,0,0,0,0,0.1c0,0-0.1,0.1-0.2,0.3l-0.8,1.1v-1.3c0-0.2,0-0.3,0-0.3c0,0,0-0.1,0.1-0.1&#10;&#9;&#9;&#9;c0,0,0.1,0,0.1,0l0.1,0l0.1-0.2l-1.1-0.4l-0.1,0.2l0.1,0c0.1,0,0.1,0,0.1,0c0,0,0,0,0.1,0.1c0,0,0,0,0,0.1c0,0.1,0,0.1,0,0.2v0.4&#10;&#9;&#9;&#9;l-0.7,0.9l0-1.4c0-0.2,0-0.3,0-0.3c0,0,0,0,0.1-0.1c0,0,0.1,0,0.1,0l0.1,0l0.1-0.2l-1-0.4l-0.1,0.2l0.1,0c0.1,0,0.1,0,0.1,0.1&#10;&#9;&#9;&#9;c0,0,0,0.1,0,0.1c0,0,0,0.1,0,0.3l0,2.4l0.1,0.1l1-1.3l0,1.7l0.2,0.1l1.4-1.8C203.1,11.7,203.2,11.6,203.2,11.6L203.2,11.6&#10;&#9;&#9;&#9;L203.2,11.6z" class="st2"/>
		<path d="M203.8,14.5C203.7,14.4,203.7,14.4,203.8,14.5c0-0.1,0-0.2,0.1-0.3l0.9-1.5c0.1-0.2,0.2-0.2,0.2-0.2&#10;&#9;&#9;&#9;c0.1,0,0.1,0,0.2,0l0.1,0.1l0.1-0.2l-1.1-0.6l-0.1,0.2l0.1,0.1c0,0,0.1,0.1,0.1,0.1c0,0,0,0.1,0,0.1c0,0,0,0.1-0.1,0.2l-0.9,1.5&#10;&#9;&#9;&#9;c-0.1,0.2-0.2,0.2-0.2,0.2c-0.1,0-0.1,0-0.2,0l-0.1-0.1l-0.1,0.2l1.1,0.6l0.1-0.2l-0.1-0.1C203.8,14.5,203.8,14.5,203.8,14.5&#10;&#9;&#9;&#9;L203.8,14.5L203.8,14.5z" class="st2"/>
		<path d="M206.5,15.1L206.5,15.1c0.2,0,0.4-0.1,0.5-0.3c0.1-0.1,0.2-0.3,0.2-0.4c0-0.2,0-0.3-0.1-0.4&#10;&#9;&#9;&#9;c-0.1-0.1-0.2-0.3-0.4-0.4l-0.8-0.6l-0.1,0.1l0.1,0.1c0.1,0.1,0.1,0.1,0.1,0.2c0,0,0,0.1-0.1,0.2l-1.1,1.3&#10;&#9;&#9;&#9;c-0.1,0.1-0.2,0.2-0.2,0.2c-0.1,0-0.1,0-0.2-0.1l-0.1-0.1l-0.1,0.1l1,0.8l0.1-0.1l-0.1-0.1c-0.1-0.1-0.1-0.1-0.1-0.2&#10;&#9;&#9;&#9;c0,0,0-0.1,0.1-0.2l0.4-0.5c0,0,0.1,0.1,0.1,0.1c0.1,0.1,0.1,0.1,0.2,0.1C206.1,15,206.3,15.1,206.5,15.1L206.5,15.1L206.5,15.1z&#10;&#9;&#9;&#9; M206.4,13.6c0.1,0,0.1,0.1,0.2,0.1c0.1,0.1,0.1,0.1,0.2,0.2c0,0.1,0,0.2,0,0.3c0,0.1-0.1,0.2-0.1,0.3c-0.1,0.1-0.2,0.2-0.3,0.2&#10;&#9;&#9;&#9;c-0.1,0-0.2,0-0.3-0.1c0,0-0.1-0.1-0.1-0.1c0,0-0.1-0.1-0.1-0.1L206.4,13.6L206.4,13.6L206.4,13.6z" class="st2"/>
		<path d="M208.9,15.5l-0.1-0.1l-2.3,0.7c-0.2,0.1-0.3,0.1-0.4,0.1c0,0-0.1,0-0.2-0.1l0,0l-0.1,0.1l0.6,0.7l0.1-0.1l0,0&#10;&#9;&#9;&#9;c-0.1-0.1-0.1-0.2-0.1-0.2c0,0,0-0.1,0-0.1c0,0,0.1,0,0.2-0.1l0.4-0.1l0.6,0.7l-0.2,0.3c-0.1,0.1-0.1,0.2-0.1,0.2c0,0,0,0-0.1,0&#10;&#9;&#9;&#9;c0,0-0.1,0-0.1-0.1l0,0l-0.1,0.1l0.7,0.9l0.1-0.1l0,0c-0.1-0.1-0.1-0.1-0.1-0.2c0,0,0-0.1,0.1-0.3L208.9,15.5L208.9,15.5&#10;&#9;&#9;&#9;L208.9,15.5z M208.2,15.9l-0.4,0.8l-0.5-0.6L208.2,15.9L208.2,15.9L208.2,15.9z" class="st2"/>
		<path d="M186.9,35.2l0.1,0.1c0,0,0,0.1,0.1,0.1c0,0,0,0,0,0.1c0,0,0,0.1-0.1,0.2l-1.1,1c-0.1,0.1-0.1,0.1-0.1,0.1&#10;&#9;&#9;&#9;c0,0,0,0,0,0c0,0,0,0,0-0.1c0.1-0.1,0.1-0.2,0.1-0.2c0-0.1,0-0.1-0.1-0.1c0,0-0.1-0.1-0.2-0.1c-0.1,0-0.1,0-0.2,0.1&#10;&#9;&#9;&#9;c-0.1,0.1-0.1,0.1-0.1,0.2c0,0.1,0,0.2,0.1,0.3c0.1,0.1,0.2,0.2,0.3,0.2c0,0,0.1,0,0.1,0c0.1,0,0.2,0,0.3-0.1&#10;&#9;&#9;&#9;c0.1,0,0.2-0.1,0.4-0.2l0.8-0.7c0.1-0.1,0.2-0.1,0.2-0.1c0,0,0.1,0,0.1,0.1l0.1,0.1l0.1-0.1l-0.7-0.8L186.9,35.2L186.9,35.2&#10;&#9;&#9;&#9;L186.9,35.2z" class="st2"/>
		<path d="M193.1,41.1c0,0-0.1-0.1-0.1-0.3l-0.2-2l-0.1,0l-1.3,1.5c-0.1,0.2-0.2,0.2-0.3,0.2c0,0,0,0-0.2,0l0,0&#10;&#9;&#9;&#9;l-0.1,0.2l0.8,0.2l0.1-0.2l-0.1,0c-0.1,0-0.2-0.1-0.2-0.1c0,0,0,0,0,0c0,0,0-0.1,0.1-0.1l0.2-0.3l0.7,0.2l0,0.3c0,0.1,0,0.2,0,0.2&#10;&#9;&#9;&#9;c0,0,0,0,0,0c0,0,0,0-0.1,0l-0.1,0l-0.1,0.2l0.9,0.3l0.1-0.2l-0.1,0C193.1,41.2,193.1,41.1,193.1,41.1L193.1,41.1L193.1,41.1z&#10;&#9;&#9;&#9; M192.5,40.1l-0.6-0.2l0.5-0.6L192.5,40.1L192.5,40.1z" class="st2"/>
		<path d="M199.7,38.9l0,0.2l0.1,0c0.1,0,0.1,0,0.1,0c0,0,0,0,0.1,0c0,0,0,0,0,0c0,0,0,0.1,0,0.2l-0.2,0.7l-0.6-0.5&#10;&#9;&#9;&#9;c-0.1-0.1-0.1-0.1-0.1-0.2c0,0,0,0,0-0.1c0,0,0.1,0,0.1-0.1l0.1,0l0-0.2l-1,0.3l0,0.2l0.1,0c0,0,0.1,0,0.1,0c0.1,0,0.1,0,0.2,0.1&#10;&#9;&#9;&#9;c0,0,0.1,0.1,0.2,0.2l0.8,0.7l0.1,0.5c0,0.2,0,0.2,0,0.2c0,0-0.1,0.1-0.1,0.1l-0.1,0l0,0.2l1-0.3l0-0.2l-0.1,0c-0.1,0-0.1,0-0.2,0&#10;&#9;&#9;&#9;c0,0,0,0-0.1-0.2l-0.1-0.5l0.3-0.9c0-0.1,0.1-0.2,0.1-0.3c0-0.1,0.1-0.1,0.1-0.1c0.1,0,0.1-0.1,0.1-0.1l0.1,0l0-0.2L199.7,38.9&#10;&#9;&#9;&#9;L199.7,38.9L199.7,38.9z" class="st2"/>
		<path d="M207.5,36.5L207.5,36.5c-0.1,0.1-0.2,0.1-0.2,0.1c0,0-0.1,0-0.3-0.1l-1.9-0.8l-0.1,0.1l0.7,1.9&#10;&#9;&#9;&#9;c0.1,0.2,0.1,0.3,0.1,0.3c0,0,0,0-0.1,0.1l0,0l0.1,0.1l0.6-0.6l-0.1-0.1l0,0c-0.1,0.1-0.1,0.1-0.2,0.1c0,0,0,0,0,0&#10;&#9;&#9;&#9;c0,0,0-0.1-0.1-0.2l-0.1-0.3l0.6-0.5l0.3,0.1c0.1,0.1,0.2,0.1,0.2,0.1c0,0,0,0,0,0.1c0,0,0,0-0.1,0.1l0,0l0.1,0.1l0.7-0.7&#10;&#9;&#9;&#9;L207.5,36.5L207.5,36.5L207.5,36.5z M206.1,36.6l-0.4,0.4l-0.3-0.7L206.1,36.6L206.1,36.6L206.1,36.6z" class="st2"/>
		<path d="M189.4,27.7c-0.1,0-0.2,0-0.3,0c-0.3,0-0.5,0.3-0.5,0.6c0,0.5,0.1,0.9,0.3,1.3c0.5,0.9,1.2,1.6,2.2,2&#10;&#9;&#9;&#9;c0.6,0.2,1.2,0.3,1.9,0.2c0.5-0.1,1-0.1,1.5-0.3c1.1-0.5,1.7-1.3,1.8-2.5c0-0.9-0.2-1.7-0.9-2.3c-0.9-0.8-2.4-0.7-3.1,0.2&#10;&#9;&#9;&#9;c-0.2,0.2-0.2,0.4-0.3,0.8c-0.7-0.4-1.1-1.2-0.3-1.9c0.1-0.1,0.1-0.1,0.2-0.2c0.5-0.3,1-0.5,1.6-0.7c0.4-0.1,0.9-0.2,1.2-0.5&#10;&#9;&#9;&#9;c0.3-0.2,0.6-0.5,0.8-0.9c0.3-0.7,0-1.3-0.6-1.6c-0.1-0.1-0.2-0.1-0.1-0.2c0-0.5,0-1,0-1.5c0-0.1,0-0.1,0.1-0.1&#10;&#9;&#9;&#9;c1,0,1.8,0.3,2.5,1.1c0.7,0.8,0.7,1.9,0.1,2.9c-0.3,0.5-0.7,0.9-1.2,1.3c-0.1,0.1-0.1,0.1,0,0.2c0.6,0.4,1.1,0.9,1.5,1.5&#10;&#9;&#9;&#9;c0.9,1.4,0.8,3-0.4,4.2c-0.8,0.8-1.8,1.3-2.9,1.5c-1.9,0.3-3.5-0.3-4.9-1.6c-0.4-0.4-0.9-0.8-1.2-1.3c-0.4-0.6-0.7-1.3-0.6-2&#10;&#9;&#9;&#9;c0-0.3,0.1-0.7,0.3-1c0.3-0.4,0.7-0.4,1.1-0.1C189.2,27.2,189.3,27.4,189.4,27.7L189.4,27.7L189.4,27.7z" class="st2"/>
		<path d="M192,27.9c-0.1-0.2-0.8-1.3-0.1-1.9c0.8-0.6,2.3-0.6,2.8-1.1c0.4-0.3,1.2-0.8,1-1.9c-0.2-1.1-0.8-0.9-0.8-1.1&#10;&#9;&#9;&#9;c0-0.2,0.1-1.6,0.1-1.6h-0.2c-0.1,0-0.1,0-0.1,0.1c0,0.5,0,1,0,1.5c0,0.1,0,0.2,0.1,0.2c0.7,0.3,0.9,0.9,0.6,1.6&#10;&#9;&#9;&#9;c-0.2,0.4-0.4,0.7-0.8,0.9c-0.4,0.3-0.8,0.4-1.2,0.5c-0.6,0.1-1.1,0.3-1.6,0.7c-0.1,0-0.1,0.1-0.2,0.2c-0.4,0.4-0.5,0.7-0.4,1.1&#10;&#9;&#9;&#9;C191.5,27.5,192,27.9,192,27.9L192,27.9L192,27.9z" class="st2"/>
		<path d="M196.7,29c-0.1-1.2-0.8-2.7-1.9-3c-1.1-0.3-2.3,0.4-2.3,0.4s-0.4,0.2-0.5,0.5c-0.2,0.2-0.1,1,0,1.1&#10;&#9;&#9;&#9;c0-0.4,0.1-0.6,0.3-0.8c0.7-0.9,2.3-1,3.1-0.2c0.7,0.6,0.9,1.4,0.9,2.3c-0.1,1.2-0.7,2-1.8,2.5c-0.5,0.2-1,0.3-1.5,0.3&#10;&#9;&#9;&#9;c-0.6,0.1-1.3,0-1.9-0.2c-1-0.4-1.7-1.1-2.2-2c-0.2-0.4-0.4-0.9-0.3-1.3c0-0.3,0.2-0.6,0.5-0.6c0.1,0,0.2,0,0.3,0&#10;&#9;&#9;&#9;c-0.1-0.3-0.2-0.6-0.4-0.8c-0.4-0.4-0.8-0.3-1.1,0.1c0,0,0.5-0.3,0.8,0c0.3,0.4,0.3,0.5,0.3,0.5s-0.6,0.1-0.6,0.9&#10;&#9;&#9;&#9;c0,0.7,0.3,1.3,0.4,1.5c0.1,0.2,0.6,1.1,1.4,1.5c0.8,0.5,1.6,0.8,2.5,0.8c0.9-0.1,2.2-0.2,2.8-0.7S196.8,30.2,196.7,29L196.7,29&#10;&#9;&#9;&#9;L196.7,29z" class="st2"/>
		<path d="M191.2,19c0.2,0.1,0.4,0.2,0.6,0.2c0.8,0.2,1.6,0.2,2.4-0.1c0.7-0.2,1.4-0.5,2-0.8c0.8-0.3,1.5-0.6,2.3-0.7&#10;&#9;&#9;&#9;c0.7-0.1,1.3,0,2,0.1c0.8,0.2,1.5,0.5,2.1,1c0.8,0.6,1.2,1.4,1.4,2.4c0.1,0.7,0.1,1.5-0.1,2.2c-0.1,0.4-0.3,0.8-0.6,1.1&#10;&#9;&#9;&#9;c-0.5,0.8-1.2,1.4-2.1,1.8c-0.3,0.1-0.6,0.2-0.9,0.3c0-0.3,0-0.7,0-1c0,0,0-0.1,0.1-0.1c0.9-0.4,1.4-1.2,1.8-2.1&#10;&#9;&#9;&#9;c0.1-0.3,0.3-0.7,0.3-1.1c0-0.7-0.1-1.3-0.6-1.9c-0.6-0.8-1.4-1.2-2.3-1.4c-0.7-0.2-1.5-0.2-2.2,0c-0.4,0.1-0.8,0.3-1.3,0.5&#10;&#9;&#9;&#9;c-0.8,0.3-1.7,0.5-2.6,0.5c-0.9,0-1.7-0.2-2.4-0.9C191.3,19,191.2,19,191.2,19L191.2,19L191.2,19L191.2,19z" class="st2"/>
		<path d="M198.2,31.2c0.3,0.1,0.5,0.1,0.8,0.2c0.8,0.1,1.5,0.1,2.2-0.3c0.6-0.3,0.9-0.8,1.2-1.4c0.5-1,0.7-2.1,0.7-3.3&#10;&#9;&#9;&#9;c0-0.4,0-0.7-0.1-1c0-0.1,0-0.1,0-0.1c0.4-0.4,0.8-1,1-1.5c0,0,0,0,0,0c0.3,0.5,0.5,0.9,0.6,1.5c0.1,0.6,0.1,1.2,0.1,1.8&#10;&#9;&#9;&#9;c0,0.4-0.1,0.9-0.1,1.3c-0.1,0.9-0.5,1.7-1.1,2.4c-0.6,0.8-1.4,1.2-2.4,1.4c-0.8,0.2-1.6,0.1-2.3-0.3&#10;&#9;&#9;&#9;C198.6,31.6,198.4,31.4,198.2,31.2L198.2,31.2L198.2,31.2z" class="st2"/>
		<path d="M189.7,21.8c0.2,0.1,0.3,0.2,0.5,0.3c0.2,0.1,0.5,0.2,0.7,0.2c0.1,0,0.1,0,0.1,0.1c0,1,0,1.9,0,2.9&#10;&#9;&#9;&#9;c0,1.5,0,3,0,4.5c0,0.1,0,0.2,0.1,0.3c0.2,0.2,0.3,0.4,0.5,0.7c0.1,0.1,0.1,0.2,0.1,0.3c0,0.2,0,0.3-0.2,0.3&#10;&#9;&#9;&#9;c-0.2,0-0.4-0.1-0.6-0.1c-0.5-0.2-1-0.5-1.4-1c-0.1-0.1-0.2-0.2-0.2-0.4c0-0.2,0.1-0.3,0.2-0.4c0.1,0,0.1-0.1,0.1-0.2&#10;&#9;&#9;&#9;c0-2.4,0-4.8,0-7.2C189.7,21.9,189.7,21.9,189.7,21.8L189.7,21.8L189.7,21.8z" class="st2"/>
		<path d="M190,22c-0.2-0.1-0.2-0.1-0.3-0.2c0,0.1,0,0.1,0,0.1c0,2.4,0,4.8,0,7.2c0,0.1,0,0.1-0.1,0.2&#10;&#9;&#9;&#9;c-0.1,0.1-0.2,0.2-0.2,0.4c0,0.1,0.1,0.3,0.2,0.4l0.6,0.6c0,0-0.4-0.6-0.3-1C190.1,29.3,190,22,190,22L190,22L190,22z" class="st2"/>
		<path d="M198.9,22.3c0.5,0.2,1,0.4,1.4,0.8c0,0,0,0.1,0,0.1c0,0.8,0,1.5,0,2.3c0,1.4,0,2.9,0,4.3c0,0.1,0,0.1,0.1,0.1&#10;&#9;&#9;&#9;c0.1,0.1,0.2,0.1,0.3,0.2c0.3,0.3,0.2,0.5-0.1,0.7c-0.2,0.1-0.4,0.1-0.5,0.2c-0.4,0.1-0.8,0-1.1-0.1c-0.4-0.1-0.5-0.4-0.3-0.8&#10;&#9;&#9;&#9;c0,0,0.1-0.1,0.1-0.1c0.2-0.1,0.2-0.3,0.2-0.5c0-1,0-2,0-3c0-1.4,0-2.8,0-4.2C198.9,22.4,198.9,22.3,198.9,22.3L198.9,22.3&#10;&#9;&#9;&#9;L198.9,22.3z" class="st2"/>
		<path d="M198.9,22.3c0,0.1,0,0.1,0,0.1c0,1.4,0,2.8,0,4.2c0,1,0,2,0,3c0,0.2,0,0.3-0.2,0.5c0,0-0.1,0.1-0.1,0.1&#10;&#9;&#9;&#9;c-0.3,0.4-0.2,0.7,0.3,0.8c0.2,0.1,0.4,0.1,0.6,0.1c0,0-0.2-0.3-0.5-0.3c-0.3,0-0.2-0.4,0.1-0.6c0.5-0.4,0.2-7.5,0.2-7.5l0-0.2&#10;&#9;&#9;&#9;C199.3,22.4,199.3,22.3,198.9,22.3L198.9,22.3L198.9,22.3z" class="st2"/>
		<path d="M194.5,28.2c0,0.5,0,1,0,1.6c0,0.1,0,0.2,0.1,0.2c0.1,0.1,0.3,0.3,0.3,0.4c0.2,0.3,0.1,0.5-0.2,0.7&#10;&#9;&#9;&#9;c-0.2,0.1-0.5,0.1-0.7,0.1c-0.5,0-0.9,0-1.4-0.1c-0.5-0.2-0.6-0.5-0.3-0.9c0.1-0.1,0.2-0.2,0.3-0.3c0.1-0.1,0.1-0.1,0.1-0.2&#10;&#9;&#9;&#9;c0-0.9,0-1.8,0-2.7c0-0.1,0-0.1,0.1-0.2c0.5-0.3,1-0.4,1.5-0.4c0.1,0,0.1,0,0.1,0.1C194.5,27.2,194.5,27.7,194.5,28.2&#10;&#9;&#9;&#9;C194.5,28.2,194.5,28.2,194.5,28.2L194.5,28.2L194.5,28.2z" class="st2"/>
		<path d="M192.9,26.9c-0.1,0-0.1,0.1-0.1,0.2c0,0.9,0,1.8,0,2.7c0,0.1,0,0.2-0.1,0.2c-0.1,0.1-0.2,0.2-0.3,0.3&#10;&#9;&#9;&#9;c-0.4,0.4-0.2,0.8,0.3,0.9l0.5,0.1c0,0,0.2-0.2-0.1-0.3c-0.3-0.1-0.7-0.2-0.3-0.6c0.5-0.4,0.3-0.4,0.3-1.1c0-0.7,0-2.5,0-2.5&#10;&#9;&#9;&#9;L192.9,26.9L192.9,26.9L192.9,26.9z" class="st2"/>
		<path d="M192.7,25.2c0-0.1,0-0.2,0-0.3c0-1.3,0-2.6,0-3.9c0-0.2,0-0.2,0.2-0.3c0.5-0.2,0.9-0.3,1.4-0.3&#10;&#9;&#9;&#9;c0.1,0,0.1,0,0.1,0.1c0,1,0,2,0,3c0,0.2,0,0.5,0,0.7c0,0.1,0,0.2-0.1,0.3c-0.2,0.1-0.4,0.2-0.6,0.3C193.4,25,193.1,25,192.7,25.2&#10;&#9;&#9;&#9;L192.7,25.2L192.7,25.2z" class="st2"/>
		<path d="M192.7,25.2c0-0.1,0-0.2,0-0.3c0-1.3,0-2.6,0-3.9c0-0.2,0-0.2,0.2-0.3l0.1-0.1L193,25L192.7,25.2L192.7,25.2&#10;&#9;&#9;&#9;L192.7,25.2z" class="st2"/>
		<path d="M197.1,20c0.3,0.2,0.5,0.4,0.8,0.6c0.5,0.4,1,0.6,1.6,0.6c0.5,0,1,0,1.5,0.1c0.5,0.1,0.9,0.4,1.4,0.6&#10;&#9;&#9;&#9;c0.1,0.1,0.1,0.1,0.1,0.2c0,0.4-0.2,0.8-0.3,1.2c0,0.1-0.1,0.2-0.1,0.3c-0.5-0.5-1.1-0.9-1.7-1.2c-0.4-0.2-0.9-0.3-1.3-0.5&#10;&#9;&#9;&#9;c-0.4-0.2-0.8-0.3-1.1-0.6C197.5,21,197.2,20.6,197.1,20L197.1,20L197.1,20z" class="st2"/>
		<path d="M188.9,19.8c0.2,0.3,0.4,0.5,0.6,0.7c0.6,0.6,1.4,0.7,2.2,0.6c0.3,0,0.5-0.1,0.7-0.2c0.1,0,0.1,0,0.1,0.1&#10;&#9;&#9;&#9;c0,0.4,0,0.8,0,1.1c0,0.1,0,0.1-0.1,0.1c-0.7,0.1-1.5,0.1-2.2-0.2c-0.8-0.3-1.2-0.9-1.4-1.7C189,20.1,189,20,188.9,19.8&#10;&#9;&#9;&#9;L188.9,19.8L188.9,19.8z" class="st2"/>
		<path d="M188.9,19.8c0.9,2.7,3.7,1.9,3.7,2.3c0,0.1,0,0.1-0.1,0.1c-0.7,0.1-1.5,0.1-2.2-0.2c-0.8-0.3-1.2-0.9-1.4-1.7&#10;&#9;&#9;&#9;C189,20.1,189,20,188.9,19.8L188.9,19.8L188.9,19.8z" class="st2"/>
		<path d="M196.9,25.4c0.4,0.1,0.8,0.2,1.2,0.3c0.2,0,0.4,0.1,0.6,0.1c0.1,0,0.1,0,0.1,0.1c0,0.2,0,0.4,0,0.6&#10;&#9;&#9;&#9;c0,0.1,0,0.1-0.1,0.1C198,26.3,197.4,26,196.9,25.4C196.9,25.4,196.9,25.4,196.9,25.4z" class="st2"/>
		<path d="M196.9,25.4c0.4,0.1,0.8,0.2,1.2,0.3c0.2,0,0.4,0.1,0.6,0.1c0.1,0,0.1,0,0.1,0.1c0,0,0,0.1,0,0.1&#10;&#9;&#9;&#9;C198.8,26,197.6,26,196.9,25.4L196.9,25.4L196.9,25.4z" class="st2"/>
		<path d="M191.2,19C191.2,19,191.2,19,191.2,19C191.2,18.9,191.2,18.9,191.2,19C191.2,18.9,191.2,18.9,191.2,19&#10;&#9;&#9;&#9;L191.2,19L191.2,19z" class="st2"/>
		<g>
			<path d="M191.2,19c0,0,0.3,0.2,0.5,0.3c1,0.6,2.8,0.4,4.8-0.4c1.2-0.5,2.3-0.6,3.6-0.4c1.3,0.2,2.3,1.4,2.6,2&#10;&#9;&#9;&#9;&#9;c0.3,0.7,0.8,2.6-0.7,4.1c-0.7,0.7-1.5,1.1-1.5,1.1c0-0.1,0-0.2,0-0.3c0,0,0-0.1,0.1-0.1c0.9-0.4,1.4-1.2,1.8-2.1&#10;&#9;&#9;&#9;&#9;c0.1-0.3,0.3-0.7,0.3-1.1c0-0.7-0.1-1.3-0.6-1.9c-0.6-0.8-1.4-1.2-2.3-1.4c-0.7-0.2-1.5-0.2-2.2,0c-0.4,0.1-0.8,0.3-1.3,0.5&#10;&#9;&#9;&#9;&#9;c-0.8,0.3-1.7,0.5-2.6,0.5c-0.9,0-1.7-0.2-2.4-0.9C191.3,19.1,191.2,19,191.2,19L191.2,19L191.2,19z M191.2,19L191.2,19L191.2,19&#10;&#9;&#9;&#9;&#9;z" class="st2"/>
		</g>
		<path d="M198.2,31.2c0.3,0.1,0.5,0.1,0.8,0.2c0.8,0.1,1.5,0.1,2.2-0.3c0.6-0.3,0.9-0.8,1.2-1.4c0.5-1,0.7-2.1,0.7-3.3&#10;&#9;&#9;&#9;c0-0.4,0-0.7-0.1-1c0-0.1,0-0.1,0-0.1c0.4-0.4,1-1.4,1.1-1.6c0,0,0.2,0.1,0,0.5c-0.2,0.4-0.8,1-0.7,1.2c0.1,0.6,0.3,1.5,0.1,2.4&#10;&#9;&#9;&#9;c-0.1,0.9-0.8,2.2-1.1,2.6c-0.3,0.4-1.7,1.7-3.4,1.2L198.2,31.2L198.2,31.2L198.2,31.2z" class="st2"/>
		<path d="M197.1,20c0,0,0.1,0.7,0.6,1.3c0.4,0.4,0.9,0.6,1.3,0.8c0.4,0.2,0.9,0.3,1.3,0.5c0.6,0.3,1.2,0.7,1.7,1.2&#10;&#9;&#9;&#9;c0.1-0.1,0.1-0.2,0.1-0.3c0,0-1-1-2.2-1.4C198.8,21.6,198.4,21.7,197.1,20L197.1,20z" class="st2"/>
	</g>
</g>
</svg>