<?xml version="1.0" encoding="utf-8"?>
<!-- Generator: Adobe Illustrator 27.5.0, SVG Export Plug-In . SVG Version: 6.00 Build 0)  -->
<svg version="1.1" id="Layer_1" xmlns:xodm="http://www.corel.com/coreldraw/odm/2003"
	 xmlns="http://www.w3.org/2000/svg" xmlns:xlink="http://www.w3.org/1999/xlink" x="0px" y="0px" viewBox="0 0 225.2 136.5"
	 style="enable-background:new 0 0 225.2 136.5;" xml:space="preserve">
<style type="text/css">
	.st0{fill-rule:evenodd;clip-rule:evenodd;fill:#A48B50;}
	.st1{fill:#D6C59C;}
	.st2{fill:#FFFFFF;}
	.st3{fill-rule:evenodd;clip-rule:evenodd;fill:#FFFFFF;}
</style>
<g id="Layer_x0020_1">
	<path class="st0" d="M10.3,0h204.6c5.7,0,10.3,4.6,10.3,10.3v115.9c0,5.7-4.6,10.3-10.3,10.3H10.3c-5.7,0-10.3-4.6-10.3-10.3V10.3
		C0,4.6,4.6,0,10.3,0z"/>
	<g id="_105553321043520">
		<path class="st1" d="M169.4,74.7c-0.7,0.3-1.3,0.9-1.9,1.4c-0.7,0.5-1.1,1.2-1,2.1c0,0.9,0.6,1.3,1.5,1.2c0.3-0.1,0.5-0.2,0.8-0.3
			c0.7-0.4,1.5-0.5,2.2-0.8c0.3-0.1,0.5,0.1,0.6,0.3c0.1,0.2,0.2,0.4,0.1,0.6c-0.1,0.1-0.1,0.3-0.3,0.4c-0.6,0.7-0.7,1.5-0.9,2.4
			c-0.1,0.7,0.2,1,0.9,1.1c0.4,0,0.7,0,1.1-0.2c0.6-0.3,1.3-0.5,1.8-1c0.2-0.1,0.3-0.3,0.5-0.4c0.4-0.2,1.1-0.1,1.3,0.6
			c0.1,0.4,0.2,0.7,0.3,1.1c0.3,0.7,0.7,0.8,1.4,0.6c1.3-0.4,2-1.4,2.6-2.5c0.2-0.3,0.2-0.7,0.1-1.1c-0.1-0.3-0.3-0.4-0.5-0.4
			c-0.2,0-0.4,0.2-0.4,0.4c-0.1,0.7-0.3,1.4-0.7,2c-0.5,0.8-1.3,0.7-1.8-0.1c-0.2-0.4-0.3-0.8-0.5-1.1c-0.3-0.6-0.7-0.8-1.3-0.5
			c-0.2,0.1-0.4,0.2-0.6,0.4c-0.4,0.3-0.9,0.6-1.3,0.9c-0.3,0.2-0.6,0.2-0.9,0c-0.6-0.4-0.7-0.9-0.4-1.5c0.1-0.2,0.3-0.5,0.5-0.7
			c0.2-0.4,0.4-0.8,0.5-1.3c0.1-0.5-0.3-1.1-0.9-1.1c-0.2,0-0.3,0-0.5,0.1c-0.4,0.1-0.8,0.3-1.3,0.5c-0.3,0.1-0.7,0.3-1,0.4
			c-0.4,0.1-0.9-0.1-1.1-0.5c-0.2-0.3,0-0.6,0.2-0.9c0.2-0.3,0.6-0.6,0.9-0.8c0.6-0.3,1.1-0.7,1.7-1.1c0.4-0.2,0.7-0.5,1-0.9
			c0.3-0.6,0.1-1.2-0.6-1.3c-0.2,0-0.5,0-0.7,0c-0.5,0-1,0-1.5,0.1c-0.4,0-0.8-0.1-1-0.4c-0.2-0.5,0.2-0.8,0.5-1.1
			c0.5-0.4,1-0.8,1.7-1c1.1-0.3,2-0.9,2.9-1.5c0.7-0.4,0.7-0.8,0.4-1.5c-0.2-0.4-0.5-0.7-0.7-1c-0.2-0.2-0.4-0.5-0.6-0.8
			c-0.2-0.3-0.2-0.6,0-0.9c0.6-0.7,1.4-1.2,2.4-1.1c1.3,0.1,2.3,0.8,2.7,2.2c0.1,0.2,0.1,0.4,0.2,0.6c0.1,0.1,0.2,0.3,0.3,0.3
			c0.2,0.1,0.5,0.1,0.7-0.1c0.2-0.2,0.3-0.4,0.2-0.7c-0.3-0.8-0.1-1.5,0.3-2.3c0.1-0.2,0.2-0.4,0.3-0.5c0.4-1.1,1.2-1.8,2.2-2.3
			c0.4-0.2,0.9-0.6,1.4-0.2c0.4,0.3,0.1,0.9,0.1,1.3c-0.1,0.6-0.3,1.2-0.4,1.8c-0.1,0.3-0.1,0.6,0,1c0.2,0.4,0.6,0.7,1,0.4
			c0.5-0.3,1-0.7,1.5-1c0.4-0.3,0.8-0.5,1.2-0.6c0.5-0.1,0.9,0.2,0.7,0.6c-0.1,0.5-0.2,1.1-0.6,1.6c-0.3,0.5-0.1,0.8,0.5,1
			c0.6,0.2,1.2,0.1,1.8-0.1c0.4-0.2,0.7-0.4,1.1-0.5c0.2-0.1,0.5-0.1,0.7-0.1c0.4,0,0.7,0.4,0.6,0.8c-0.1,0.2-0.2,0.5-0.3,0.7
			c-0.3,0.6-0.7,1.1-1,1.7c-0.2,0.3-0.4,0.6-0.2,0.9c0.2,0.3,0.6,0.2,0.9,0.2c0.2,0,0.4,0,0.7-0.1l0,0c0.5,0.1,1.2-0.1,1.7,0.2
			c0.4,0.1,0.5,0.6,0.1,0.8c-0.6,0.3-1.1,0.7-1.7,0.9c-0.5,0.2-1.1,0.4-1.6,0.7c-0.9,0.5-1,1.4-0.4,2.2c0.2,0.3,0.5,0.7,0.7,1
			c0.1,0.2,0.1,0.4,0.2,0.6c0.1,0.4-0.3,0.7-0.7,0.6c-0.2-0.1-0.5-0.2-0.7-0.3c-0.5-0.2-0.9,0.1-1.2,0.4c-0.3,0.3-0.4,0.7-0.2,1.1
			c0.2,0.4,0.4,0.8,0.5,1.3c0.1,0.3,0.3,0.6,0,0.9c-0.3,0.2-0.6,0.2-0.9,0.1c-0.2-0.1-0.4-0.2-0.5-0.3c-0.5-0.4-0.9-0.7-1.1-1.3
			c-0.2-0.5-0.5-0.9-0.8-1.2c-0.2-0.2-0.3-0.4-0.5-0.6c-0.1-0.1-0.1-0.3,0-0.5c0.1-0.2,0.4-0.2,0.5-0.1c0.3,0.2,0.5,0.4,0.8,0.6
			c0.2,0.1,0.4,0,0.5-0.2c0.1-0.1,0.2-0.4,0-0.4c-0.6-0.3-1.1-0.8-1.7-1.1c-0.4-0.2-1,0-1.3,0.3c-0.3,0.3-0.3,0.9-0.1,1.3
			c0.1,0.2,0.3,0.4,0.4,0.6c0.5,0.6,0.9,1.2,1.3,1.9c0.4,0.9,1.2,1.5,2.2,1.8c0.4,0.1,0.9,0.1,1.3,0c0.6-0.2,0.8-0.7,0.7-1.3
			c0-0.2-0.1-0.5-0.2-0.7c-0.1-0.2-0.2-0.4-0.2-0.6c-0.2-0.6,0-0.9,0.6-0.8c0.2,0,0.5,0.1,0.7,0.1c0.6,0.1,1-0.2,1.3-0.7
			c0.2-0.3,0.3-0.7,0.1-1.1c-0.2-0.5-0.5-1-0.7-1.4c-0.4-0.9-0.2-1.5,0.7-2c0.3-0.1,0.5-0.2,0.8-0.3c0.7-0.3,1.3-0.7,1.9-1.2
			c0.6-0.5,0.5-1.1-0.1-1.6c-0.2-0.1-0.3-0.2-0.5-0.3c-0.4-0.2-0.9-0.3-1.4-0.3c-0.6,0-0.9-0.5-0.6-1.1c0.2-0.4,0.5-0.8,0.7-1.2
			c0.3-0.7,0.1-1.2-0.5-1.6c-0.6-0.4-1.2-0.5-1.9-0.1c-0.4,0.2-0.8,0.4-1.2,0.6c-0.3,0.2-0.7,0-0.8-0.3c-0.1-0.2-0.1-0.4,0-0.6
			c0.1-0.2,0.2-0.4,0.2-0.6c0.2-0.8-0.2-1.5-1.1-1.6c-0.6-0.1-1.1,0-1.5,0.4c-0.3,0.2-0.5,0.4-0.8,0.6c-0.2,0.1-0.4,0.2-0.6,0
			c-0.2-0.1-0.2-0.4-0.1-0.6c0.1-0.4,0.2-0.8,0.3-1.2c0.1-0.3,0.2-0.6,0.2-1c0-1-0.8-1.7-1.8-1.4c-1.9,0.6-3.4,1.7-4.1,3.8
			c-0.1,0.2-0.1,0.3-0.2,0.5c-0.1,0.2-0.5,0.3-0.6,0.2c-0.2-0.2-0.5-0.3-0.7-0.5c-1.2-1.2-3.7-1.1-5,0.3c-0.8,0.9-0.8,1.7,0,2.6
			c0.3,0.3,0.6,0.7,0.9,1c0.3,0.4,0.2,0.7-0.2,0.9c-0.2,0.1-0.5,0.2-0.8,0.4c-1,0.4-2.1,0.8-3.1,1.2c-0.8,0.3-1.4,0.9-1.8,1.6
			c-0.2,0.4-0.2,0.9,0.1,1.1c0.6,0.4,1.2,0.9,2,0.8c0.3,0,0.7,0,1,0.1c0.4,0.1,0.6,0.6,0.3,0.9C169.9,74.3,169.7,74.5,169.4,74.7
			L169.4,74.7L169.4,74.7z"/>
		<path class="st1" d="M193.6,73.3c-0.3,0.4-0.4,0.8,0,1.2c0.3,0.4,0.8,0.8,1.1,1.1c0.2,0.2,0.3,0.5,0.1,0.8
			c-0.1,0.3-0.3,0.5-0.7,0.5c-0.2,0-0.4,0-0.6,0c-0.4,0-0.7,0.1-1.1,0.2c-0.6,0.2-0.9,0.7-0.9,1.3c0,0.6,0.2,1.1,0.8,1.5
			c0.3,0.2,0.7,0.3,1,0.5c0.8,0.5,1.3,0.7,0.5,1.7c-0.1,0.1-0.1,0.2-0.2,0.3c-0.1,0.1-0.1,0.3,0,0.5c0.5,1.2,1.7,1.8,3,1.5
			c0.2,0,0.3-0.2,0.3-0.4c0-0.2-0.1-0.3-0.3-0.3c-0.3,0-0.7,0-1-0.1c-0.8-0.2-1.1-0.8-0.7-1.6c0.1-0.1,0.1-0.2,0.2-0.3
			c0.2-0.5,0.2-0.9-0.2-1.3c-0.4-0.4-0.8-0.7-1.3-1c-0.3-0.1-0.5-0.2-0.8-0.4c-0.3-0.2-0.4-0.4-0.3-0.7c0-0.3,0.2-0.4,0.5-0.5
			c0.3-0.1,0.6-0.1,0.8-0.1c0.6,0,1.2,0,1.9,0c0.4,0,0.8-0.1,1-0.6c0.2-0.4,0-0.8-0.2-1.1c-0.3-0.4-0.7-0.7-1.1-1
			c-0.2-0.2-0.4-0.4-0.6-0.6c-0.1-0.1-0.1-0.3,0-0.5c0.1-0.2,0.3-0.3,0.5-0.3c0.2,0.1,0.5,0.1,0.7,0.3c0.7,0.4,1.4,0.5,2.1,0.8
			c0.4,0.1,0.8,0.2,1.2,0.1c0.5-0.1,0.7-0.4,0.7-0.8c-0.1-0.6-0.3-1.1-0.6-1.6c-0.2-0.3-0.4-0.7-0.6-1.1c-0.2-0.5,0.1-0.8,0.5-0.7
			c1.5,0.3,2.7,1.1,3.6,2.4c0.1,0.2,0.3,0.5,0.4,0.8c0.2,0.3,0.6,0.4,0.8,0.1c0.4-0.5,0.9-1,1.1-1.6c0.2-0.5,0.5-0.9,0.8-1.2
			c0.2-0.2,0.5-0.3,0.8-0.3c0.8,0,1.4,0.4,2,0.9c0.4,0.4,0.6,1.1,0.1,1.5c-0.1,0.1-0.2,0.2-0.2,0.3c-0.5,1-0.5,2,0.8,2.5
			c0.6,0.2,1.3,0.4,2,0.3l0,0c0.3,0,0.6,0,0.9,0.1c0.9,0.1,1.6,0.6,2.2,1.2c0.3,0.3,0.2,0.6-0.1,0.8c-0.3,0.1-0.5,0.2-0.8,0.3
			c-0.6,0.1-1,0.4-1.1,1c-0.1,0.6,0.4,0.8,0.9,1.1c0.5,0.3,1.1,0.6,1.6,0.9c0.8,0.4,1.4,1,1.9,1.7c0.4,0.5,0.4,0.8,0.1,1.1
			c-0.3,0.3-0.7,0.2-1,0c-0.5-0.3-1-0.4-1.5-0.4c-0.6,0-0.9,0.4-0.7,1c0.1,0.2,0.2,0.4,0.3,0.5c0.4,0.6,0.9,1.2,1.4,1.8
			c0.3,0.3,0.5,0.7,0.6,1.1c0.1,0.3,0,0.7-0.3,0.9c-0.3,0.2-0.6,0.3-0.9,0.1c-0.1,0-0.2-0.1-0.3-0.2c-0.6-0.5-1.4-0.6-2-1
			c-0.3-0.2-0.7-0.2-1.1-0.1c-0.5,0.1-0.9,0.7-0.7,1.3c0.2,0.4,0.3,0.8,0.6,1.2c0.5,0.7,0.4,1.8-0.2,2.5c-0.2,0.2-0.4,0.3-0.7,0.2
			c-1.2-0.4-1.8-1.3-2.4-2.3c-0.1-0.2-0.1-0.4-0.1-0.6c0-0.1,0-0.2,0-0.4c-0.1-0.4-0.4-0.7-0.7-0.7c-0.4-0.1-0.8,0.1-1,0.4
			c-0.3,0.5-0.6,1-0.8,1.7c-0.2,0.6-1,1.2-1.6,1.2c-0.5,0-0.8-0.3-0.7-0.8c0-0.3,0.1-0.6,0.2-1c0.1-0.5,0.1-1,0-1.5
			c-0.2-0.7-0.7-1-1.4-0.7c-0.1,0-0.2,0.1-0.3,0.1c-0.7,0.2-1.2-0.2-1.2-0.8c0-0.5-0.1-1.1-0.2-1.6c-0.1-0.6-0.4-1.1-1-1.5
			c-0.3-0.2-0.6-0.1-0.8,0.3c-0.1,0.2-0.1,0.5,0.2,0.6c0.7,0.2,0.9,0.7,0.9,1.3c0,0.3,0,0.7,0,1c0,0.8,0.2,1.5,0.4,2.3
			c0.1,0.4,0.4,0.5,0.8,0.3c0.3-0.1,0.6-0.4,0.8-0.6c0.1-0.1,0.3-0.3,0.5-0.4c0.1-0.1,0.3-0.1,0.5,0c0.1,0.1,0.2,0.2,0.2,0.3
			c0,0.2-0.1,0.3-0.1,0.5c-0.1,0.5-0.2,1-0.3,1.4c-0.1,0.8,0.3,1.3,1,1.4c1.2,0.3,2.5-0.4,3-1.6c0.1-0.1,0.1-0.3,0.2-0.5
			c0.1-0.2,0.5-0.3,0.6-0.1c0.1,0.2,0.2,0.3,0.3,0.5c0.1,0.5,0.5,0.8,0.8,1.1c0.5,0.5,1.1,0.9,1.7,1.2c0.7,0.4,1.2,0.3,1.8-0.2
			c0.5-0.5,0.8-1,0.8-1.7c0-0.7-0.2-1.4-0.5-2c-0.2-0.3,0.1-0.7,0.5-0.6c0.3,0,0.6,0.1,0.9,0.3c0.4,0.3,0.9,0.5,1.4,0.5
			c0.7,0.1,1.3,0,1.8-0.6c0.5-0.6,0.6-1.1,0.3-1.8c-0.2-0.6-0.6-1.1-1-1.5c-0.2-0.2-0.4-0.4-0.5-0.5c-0.1-0.2-0.1-0.4,0-0.6
			c0.1-0.2,0.3-0.2,0.4-0.2c0.3,0.1,0.5,0.2,0.8,0.3c0.5,0.2,1,0.3,1.6,0.2c0.6-0.1,0.9-0.6,0.6-1.1c-1-1.9-2.4-3.3-4.4-4.2
			c-0.1-0.1-0.3-0.1-0.4-0.2c-0.2-0.1-0.1-0.5,0-0.5c0.3-0.1,0.7-0.2,1-0.4c0.7-0.3,0.9-1.2,0.5-1.8c-0.9-1.2-2.1-2-3.8-2
			c-0.7,0-1.3,0-1.9-0.3c-0.4-0.2-0.6-0.6-0.4-1c0.1-0.3,0.3-0.5,0.4-0.7c0.4-0.5,0.3-1.1,0-1.6c-0.7-1.3-1.8-1.7-3.2-1.8
			c-0.5,0-1,0.2-1.3,0.5c-0.4,0.5-0.9,0.9-1.1,1.5c-0.1,0.2-0.2,0.4-0.3,0.5c-0.2,0.3-0.6,0.4-0.8,0c-0.4-1-1.2-1.4-2-2
			c-0.8-0.6-1.7-0.7-2.7-0.7c-0.3,0-0.5,0.2-0.7,0.5c-0.1,0.3-0.2,0.6-0.1,0.8c0.2,0.5,0.3,1.1,0.7,1.6c0.1,0.1,0.3,0.3,0.4,0.5
			c0.1,0.1,0.2,0.3,0.2,0.4c0.1,0.2-0.1,0.5-0.4,0.5c-0.8-0.2-1.5-0.5-2.2-0.8c-0.7-0.3-1.5-0.4-2.3-0.4
			C194,73,193.8,73.1,193.6,73.3L193.6,73.3L193.6,73.3z"/>
		<path class="st1" d="M206.3,78.4c-0.1-0.9-0.5-1.6-1.4-2c-0.8-0.4-1.5-0.3-2.2,0.2c-0.8,0.6-1.3,1.4-1.4,2.5c-0.1,0.9,0,1.9,0,2.8
			l0,0c0,0.2,0,0.4,0,0.6c0,0.2,0.1,0.3,0.2,0.4c0.1,0,0.3,0,0.3-0.1c0.7-0.8,1.5-0.8,2.5-0.5c0.2,0.1,0.5,0.2,0.7,0.2
			c0.8,0.2,1.6,0.5,2.4,0.7c0.7,0.2,1.4,0.1,2-0.4c0.2-0.2,0.3-0.4,0.2-0.7c-0.3-1.2-1.3-2-2.5-2.2c-0.9-0.1-1-0.1-0.9-1
			C206.3,78.8,206.4,78.6,206.3,78.4C206.3,78.4,206.3,78.4,206.3,78.4z M202.9,78.4c0.1,0,0.2,0.1,0.1,0.1
			c-0.1,0.2-0.2,0.3-0.3,0.5l0,0c0-0.2-0.1-0.4-0.1-0.6C202.7,78.4,202.8,78.4,202.9,78.4L202.9,78.4L202.9,78.4z M205.5,81.4
			c-0.1,0.1-0.2,0.2-0.3,0.1c-0.2-0.2-0.4-0.4-0.7-0.2c-0.2,0.1-0.5,0.3-0.6-0.1c-0.1-0.2,0.1-0.4,0.3-0.5c0.1-0.1,0.2-0.2,0.2-0.3
			c-0.5,0-0.9,0.1-1.4,0.2c-0.1,0-0.3,0-0.3-0.1c0-0.1,0-0.2,0.1-0.3c0.1-0.2,0.4-0.3,0.5-0.6c0.5,0,0.9-0.2,1.3-0.5
			c-0.5,0-0.9,0.2-1.2,0.5l0,0c-0.4,0-0.3-0.3-0.4-0.6c0.3-0.1,0.5-0.2,0.8-0.4c0.2-0.1,0.2-0.2,0.1-0.4c-0.3-0.2-0.1-0.4,0.1-0.6
			c0.3-0.2,0.7-0.3,0.9,0c0.2,0.2,0.3,0.5,0.5,0.6c0.3,0.2,0.2,0.4-0.1,0.6c-0.2,0.1-0.4,0.2-0.7,0.3c0.2-0.1,0.5-0.1,0.6,0.1
			c0.2,0.2,0.1,0.5-0.1,0.6c-0.1,0.1-0.3,0.3-0.4,0.4c0.2,0,0.4,0,0.6,0C205.4,80.4,205.7,81,205.5,81.4L205.5,81.4L205.5,81.4z
			 M208.5,81.5c0.2,0,0.4,0.3,0.4,0.5c0,0.2-0.1,0.4-0.4,0.4c-0.1,0-0.2,0.1-0.4,0.1v0c-0.2-0.1-0.5-0.1-0.8-0.2
			c-0.1,0-0.2-0.1-0.2-0.3c0-0.1,0.1-0.2,0.2-0.3c0.3-0.2,0.6-0.3,0.9-0.3C208.3,81.5,208.4,81.5,208.5,81.5L208.5,81.5L208.5,81.5z
			 M207.8,81C207.8,81,207.8,81,207.8,81c-0.1,0.2-0.2,0.2-0.3,0.2c-0.1,0-0.2-0.1-0.3-0.2c0.1,0,0.2-0.1,0.3-0.1
			C207.6,80.8,207.7,80.9,207.8,81L207.8,81L207.8,81z M207.2,81c0,0.5-0.3,0.9-0.8,1c-0.1,0-0.2,0-0.3-0.1c-0.1-0.1-0.1-0.2,0-0.3
			c0.1-0.2,0.3-0.3,0.5-0.5C206.8,81.1,207,81.2,207.2,81L207.2,81L207.2,81z M206.6,81.1L206.6,81.1L206.6,81.1L206.6,81.1z
			 M206.5,80.6c0.2,0,0.2,0.1,0.1,0.3c0,0.1-0.1,0.1-0.1,0.2c-0.2,0-0.4,0-0.4-0.3C206.2,80.7,206.4,80.6,206.5,80.6L206.5,80.6z"/>
		<path class="st1" d="M182.3,74.4c0.3-0.5,0.3-1.1,0.5-1.6l0,0c0-0.2-0.1-0.3-0.1-0.5c-0.2-1-0.9-1.3-1.8-0.7
			c-0.1,0.1-0.2,0.2-0.4,0.3c-0.2,0.2-0.3,0.7-0.6,0.7c-0.5,0-0.5-0.5-0.7-0.7c-0.4-0.5-1-0.6-1.5-0.1c-0.2,0.2-0.3,0.4-0.4,0.6
			c-0.4,1-0.2,1.8,0.6,2.5c1,0.8,2.1,1.6,2.6,2.9c0,0.1,0.2,0.1,0.3,0.1c0.2,0,0.3-0.1,0.3-0.3c-0.2-1,0.4-1.7,0.8-2.5
			C182,74.8,182.2,74.6,182.3,74.4L182.3,74.4L182.3,74.4z M177.9,73.3c-0.1-0.2,0-0.5,0.1-0.6c0.1-0.1,0.2-0.2,0.3-0.1
			c0.1,0.1,0.1,0.2,0.2,0.2l0,0c0,0.1,0,0.1,0,0.1c-0.1,0.2-0.2,0.5-0.5,0.5C178,73.5,177.9,73.4,177.9,73.3L177.9,73.3L177.9,73.3z
			 M180.8,76c0,0.1-0.2,0.1-0.3,0.1c-0.2,0-0.3-0.2-0.3-0.3c0-0.3,0.3-0.5,0.1-0.8c-0.1,0.2-0.2,0.3-0.4,0.2
			c-0.6-0.3-1.1-0.7-1.6-1.1c-0.1-0.1-0.1-0.2,0-0.3c0.2-0.2,0.7-0.3,1-0.1c1.1,0.7,1.1,0.7,1.8-0.4c0.1-0.2,0.2-0.5,0.3-0.7
			c0.1-0.1,0.2-0.3,0.4-0.2c0.1,0,0.2,0.2,0.2,0.3c-0.2,0.4,0.4,0.7,0.2,1.2c-0.2,0.3-0.4,0.6-0.6,0.9C181.2,75.2,181,75.6,180.8,76
			L180.8,76L180.8,76z"/>
		<path class="st1" d="M196.2,87.4L196.2,87.4L196.2,87.4z"/>
		<path class="st1" d="M178.1,103.1c0.8,1,1.7,1.9,2.5,2.9c0.9,1,1.8,1.9,2.2,3.2c0.1,0.3,0.3,0.6,0.5,0.9c0.1,0.2,0.3,0.2,0.5,0.1
			c0.2-0.1,0.2-0.3,0.2-0.5c0-0.2-0.1-0.3-0.2-0.5c-0.8-1.3-1.7-2.6-2.7-3.8c-1.4-1.5-2.6-3.2-4.3-4.4c0,0-0.1-0.1-0.1-0.1
			c-0.8-0.9-1.7-1.8-2.5-2.7c-0.8-0.8-1.5-1.7-2.3-2.6c-0.2-0.3-0.4-0.5-0.3-0.9c0-0.3-0.1-0.5-0.4-0.5c-0.2,0-0.3,0-0.5,0
			c-0.2,0-0.3-0.2-0.3-0.4c0-0.2,0.1-0.3,0.2-0.4c0.1-0.1,0.3-0.1,0.4-0.2c0,0,0-0.1,0-0.2c0,0-0.1,0-0.1,0c-0.1,0-0.2,0.1-0.3,0.1
			c-0.6,0.2-0.7,0.2-1-0.3c-0.7-1.1-1.7-2-2.1-3.3c0.6-0.2,0.9,0.2,1.2,0.5c0.4,0.5,0.9,0.9,1.5,1.3c0.2,0.1,0.3,0.4,0.5,0.5
			c0.2,0.2,0.3,0.4,0.5,0.5c1.3,0.8,2.3,1.9,3.6,2.6c0.2,0.1,0.4,0.3,0.6,0.5c0.5,0.6,1,1.1,1.6,1.6c0.1,0.1,0.2,0.3,0.3,0.4
			c0,0.1,0,0.2-0.1,0.2c-0.1,0.1-0.2,0.1-0.2,0.1c-0.1-0.1-0.3-0.1-0.4-0.2c-0.2-0.1-0.3-0.3-0.5-0.1c-0.1,0.1,0,0.3,0.3,0.5
			c0.1,0.1,0.3,0.2,0.4,0.3c-0.1,0.2-0.2,0.3-0.3,0.4c-0.2,0.3-0.2,0.5,0.2,0.7c0.4,0.2,0.8,0.3,1.2,0.2c0.6,0,1.1,0.2,1.6,0.5
			c0.2,0.1,0.4,0.5,0.2,0.6c-0.1,0.2-0.4,0.2-0.6,0.1c-0.3-0.1-0.5-0.2-0.8-0.4c-0.2-0.1-0.4-0.1-0.5,0.1c-0.1,0.2,0.1,0.4,0.3,0.5
			c0.2,0.1,0.5,0.1,0.7,0.2c0.2,0,0.4,0,0.6,0.1c0.2,0.1,0.5,0.1,0.7,0.2c0.2,0.1,0.3,0.3,0.1,0.5c-0.1,0.1-0.3,0.2-0.2,0.4
			c0.2,0.2,0.5,0.2,0.7,0.3c0.3,0.1,0.5,0.3,0.4,0.7c-0.1,0.2,0,0.4,0.2,0.4c0.5,0.1,0.7,0.4,0.8,0.8c0.1,0.6,0.5,0.9,0.7,1.4
			c0.2,0.4,0.5,0.9,0.7,1.3c0.1,0.2,0.1,0.4,0.3,0.5c0.1,0,0.2,0,0.2,0c0,0,0.1-0.1,0.1-0.1c0-0.2,0-0.4,0-0.6
			c-0.3-0.7-0.5-1.4-0.8-2.1c-1.3-2.3-2.5-4.8-4.2-6.9c-1.3-1.6-2.6-3.1-4.2-4.3c-1.3-1-2.5-2.2-3.8-3.1c-0.6-0.4-1.1-1-1.7-1.5
			c-1.8-1.7-3.6-3.4-5.3-5.1c-0.2-0.2-0.4-0.3-0.6-0.5c-0.1-0.1-0.3,0-0.3,0c-0.1,0.1-0.1,0.2-0.1,0.3c0.1,0.3,0.2,0.5,0.3,0.8
			c0.5,0.9,0.9,1.7,1.5,2.6c0.9,1.5,1.8,2.9,2.8,4.4c0.3,0.4,0.7,0.8,1,1.3c0.6,1,1.4,1.9,2.2,2.8c1,1.1,2.1,2.2,3.2,3.2
			c1.2,1.1,2.3,2.3,3.6,3.3C177.7,102.6,177.9,102.8,178.1,103.1L178.1,103.1L178.1,103.1z M178.5,99c0,0,0,0.1,0,0.1v0
			c0,0.1-0.1,0.2-0.1,0.2c-0.5,0-1-0.2-1.4-0.7c0,0,0-0.2,0-0.2c0-0.1,0.1-0.1,0.2-0.1C177.8,98.3,178.2,98.5,178.5,99L178.5,99
			L178.5,99z M166.9,89.3c-0.1-0.1-0.1-0.3,0.1-0.4c0.2-0.1,0.3-0.1,0.4,0.1c0.2,0.2,0.1,0.4,0.1,0.6
			C167.3,89.5,167,89.5,166.9,89.3L166.9,89.3L166.9,89.3z"/>
		<path class="st1" d="M219.1,118.1c-0.1-0.6-0.5-1-1.1-1.3c-0.6-0.3-1.2,0.1-1.2,0.8c0,0.2,0,0.3,0,0.5c0,0.6-0.3,1.2-0.7,1.7
			c-1.2,1.4-3.9,1.7-5.3,0.6c-0.5-0.4-0.5-0.7-0.1-1.1c0.8-0.6,1.2-1.5,1.6-2.3c0.4-0.7,0.5-1.4,0.5-2.1c0.1-0.8-0.3-1.4-0.7-2.1
			c-0.2-0.2-0.6-0.3-0.8-0.1c-0.2,0.2-0.1,0.4,0,0.6c0.1,0.1,0.1,0.1,0.1,0.2c0.5,0.6,0.5,1.3,0.4,2.1c-0.3,1.3-1.1,2.3-1.8,3.3
			c0,0-0.1,0.1-0.1,0.1c-0.2,0.1-0.5,0.1-0.7-0.1c-0.1-0.1-0.2-0.3-0.2-0.5c-0.1-1-0.3-2-0.4-3.1c-0.1-1-0.1-2-0.7-2.8
			c-0.2-0.4-0.1-0.6,0.4-0.6c2.5-0.1,3.7-1.5,4.4-3.4c0.3-0.8,0.4-1.6,0.1-2.4c-0.3-0.9-0.8-1.6-1.4-2.3c-0.2-0.2-0.5-0.4-0.8-0.5
			c-1-0.2-2.1-0.5-3.2-0.5c-3.4,0.1-6.8,0.2-10.2,0.3c-0.6,0-1.1,0.1-1.7-0.2c-0.4-0.2-0.9-0.2-1.3-0.1c-0.3,0.1-0.6,0.4-0.5,0.7
			c0.1,0.3,0.3,0.4,0.5,0.4c0.2,0,0.5,0,0.7,0c0.3,0,0.6,0,0.9,0c0.3,0,0.5,0.3,0.4,0.5c-0.2,0.7-0.5,1.3-0.8,1.9
			c-0.5,1-1,1.9-1.4,2.9c-0.7,1.8-1.6,3.5-2.4,5.3c-0.2,0.4-0.4,0.7-0.6,1.1c-0.3,0.4-0.5,0.4-0.8,0.1c-0.2-0.2-0.5-0.3-0.7-0.5
			c-0.6-0.6-1.3-1.2-2.1-1.5c-0.4-0.1-0.5-0.4-0.3-0.8c0.4-1,0.4-2.1,0.7-3.1c0.4-1.3,0.7-2.6,1-3.9c0.6-2.1,1.3-4.2,2-6.2
			c0.6-1.8,1.4-3.5,2.1-5.2c0.4-1,0.9-2,1.6-2.9c0.5-0.7,0.9-1.4,1.4-2.2c0.1-0.2,0.1-0.4-0.1-0.5c-0.2-0.1-0.4-0.1-0.5,0.1
			c-0.1,0.2-0.3,0.4-0.4,0.6c-0.3,0.5-0.6,0.9-0.9,1.3c-0.1,0.1-0.3,0.2-0.4,0.1c-0.1-0.1-0.1-0.2-0.1-0.3c0.4-1.1,0.9-2.1,1.6-3.1
			c0.2-0.3,0.4-0.5,0.5-0.8c0.3-0.5,0.3-0.7,0.1-0.9c-0.2-0.2-0.5,0-0.9,0.5c-1.3,1.9-2.1,4.1-3.1,6.1c-0.8,1.7-1.4,3.5-2.1,5.3
			c-0.1,0.2-0.2,0.5-0.2,0.7c-0.3,1.1-0.6,2.1-1,3.2c-0.2,0.7-0.4,1.3-0.6,2c-0.1,0.4-0.2,0.7-0.3,1.1c-0.2,0.7-0.4,1.4-0.5,2.2
			c-0.3,1.7-0.5,3.5-0.8,5.2c-0.1,0.8-0.3,1.1-0.5,0.9c-0.4-0.3-0.2-0.7-0.2-1c0.1-1.4,0.3-2.7,0.4-4.1c0.1-1.6,0.1-3.3,0.1-4.9
			c0-1.7,0.2-3.4-0.1-5.2c-0.1-0.5,0.2-1,0-1.5c-0.1-0.4-0.1-0.8-0.1-1.2c0-0.7,0-1.3-0.1-2c-0.2-2.3-0.4-4.7-0.7-7
			c-0.2-1.8-0.6-3.5-0.9-5.2c0-0.2-0.1-0.3-0.1-0.5c-0.1-0.2-0.3-0.3-0.5-0.1c-0.1,0.1-0.2,0.3-0.4,0.3c-0.2,0-0.3,0.1-0.3,0.3
			c0,0.2,0.2,0.2,0.4,0.2c0.2,0,0.5,0.1,0.4,0.3c-0.2,0.6,0.2,1.1,0.3,1.7c0.6,3,0.8,6,1.2,8.9c0,0.2,0.1,0.5-0.1,0.7
			c-0.1,0.1-0.3,0.2-0.4,0.1c-0.1-0.1-0.2-0.3-0.2-0.4c0-0.7-0.2-1.4-0.3-2.1c-0.2-1.9-0.6-3.7-0.9-5.6c-0.2-1.3-0.7-2.5-0.9-3.8
			c0-0.1-0.1-0.2-0.2-0.3c-0.1-0.1-0.2-0.2-0.4-0.1c-0.1,0.1-0.2,0.2-0.1,0.3c0.2,0.8,0.4,1.6,0.6,2.4c0.5,2.6,1.1,5.2,1.3,7.8
			c0,0.2,0.1,0.4,0.1,0.6c0.4,2.1,0.6,4.3,0.8,6.5c0.1,1.4,0.1,2.8,0.2,4.2c0,0.9,0.1,1.8,0.2,2.7l0,0c0,0,0,0-0.1,0
			c0,0.4,0.1,0.8,0.1,1.2c0.1,2,0.1,4,0.1,6c0,0.5-0.2,0.7-0.7,0.6c-2.1-0.4-4-0.1-5.8,1.1c-1.8,1.1-2.9,2.7-2.7,4.9
			c0.1,1.2,0.7,2.2,1.7,2.9c1.7,1.1,3.5,1.2,5.5,0.8c0.2,0,0.5-0.1,0.7-0.2c0.3,0,0.5,0.2,0.4,0.5c-0.3,1.5-0.6,3-0.8,4.5
			c-0.1,0.4-0.2,0.7-0.1,1.1c0,0.1,0.1,0.2,0.3,0.2c0.1,0,0.2,0,0.2-0.1c0.1-0.1,0.2-0.2,0.2-0.3c0.2-1,0.6-2,0.6-3
			c0-0.2,0-0.4,0.1-0.6c0-0.1,0.2-0.2,0.3-0.2s0.3,0.1,0.3,0.2c0.1,0.3,0.1,0.6,0.1,0.9c0,1.3-0.1,2.6,0.1,3.8
			c0,0.3,0.1,0.7,0.3,0.9c0.1,0.1,0.2,0.1,0.3,0.1c0.1,0,0.2-0.1,0.3-0.2c0-0.2,0-0.4,0-0.6c-0.2-2.4-0.3-4.7-0.1-7.1
			c0.1-0.7,0.3-1.1,0.8-1.4c1.1-0.5,2-1.3,2.8-2.2c0.9-1.1,1-1,1.9,0c0.5,0.6,1.1,1.2,1.8,1.7c0.2,0.2,0.4,0.4,0.7,0.6
			c1.1,0.9,2.3,1.6,3.7,2c1.6,0.5,3.3,0.5,4.9,0.4c1.9-0.2,3.8-0.7,5.5-1.8c0.8-0.5,0.8-0.5,1.3,0.3c0,0.1,0.1,0.1,0.1,0.2
			c0.4,0.7,0.9,1.2,1.6,1.5c0.3,0.1,0.6,0.3,0.9,0.5c0.2,0.1,0.4,0.2,0.7,0.3c2.9,0.3,4.9-0.5,6.2-3.3
			C219.4,119.9,219.3,119,219.1,118.1L219.1,118.1L219.1,118.1z M185.1,114.7c0,0.2,0,0.3-0.1,0.5l0,0c0,1.7-0.3,3.4-0.5,5.1
			c0,0.1,0,0.2-0.1,0.4c-0.1,0.4-0.3,0.7-0.7,0.7c-1.1,0.2-2.3,0.4-3.4,0.2c-0.9-0.1-1.7-0.4-2.5-1c-1.3-1-1.6-3-0.7-4.4
			c0.7-1.1,1.7-1.9,3-2.4c1.2-0.5,2.5-0.6,3.7-0.5C185,113.4,185.2,113.6,185.1,114.7L185.1,114.7L185.1,114.7z M184.9,93.9
			c-0.1-0.2-0.1-0.5,0.1-0.7c0,0,0.2,0,0.2,0c0.2,0.1,0.2,0.3,0.2,0.5c0,0.1,0,0.2-0.1,0.2c0,0.1-0.1,0.1-0.2,0.1l0,0
			C185.1,94.1,185,94,184.9,93.9L184.9,93.9L184.9,93.9z M185.5,95.6c0,0.1-0.1,0.2-0.3,0.2c-0.2,0-0.2-0.2-0.2-0.4
			c0-0.1,0.1-0.2,0.2-0.2C185.5,95.3,185.6,95.4,185.5,95.6L185.5,95.6L185.5,95.6z M189.8,117.5c-0.8,0.9-1.8,1.6-2.7,2.3
			c0,0-0.1,0.1-0.1,0.1c-0.1,0.1-0.3,0.1-0.5,0c-0.1-0.1-0.2-0.3-0.2-0.5v0c0.1-0.4,0.1-0.9,0.2-1.4c0.1-0.9,0.2-1.8,0.3-2.7
			c0-0.2,0.1-0.4,0.1-0.6c0.1-0.2,0.4-0.3,0.5-0.2c0.1,0,0.1,0.1,0.2,0.1c0.7,0.6,1.3,1.2,2,1.8
			C190.1,116.9,190.1,117.1,189.8,117.5L189.8,117.5z M207.5,103.2c0.3,0,0.6,0.1,0.8,0.1c0.5,0.1,1.1,0.2,1.6,0.3
			c0.7,0.1,1.2,0.5,1.6,1c0.8,1.2,0.9,2.5,0.3,3.8c-0.1,0.2-0.2,0.4-0.4,0.6c-0.5,1.1-1.4,1.6-2.6,1.8c-0.5,0.1-0.9,0.3-1.4,0.2h0
			c-0.1,0-0.2,0-0.2,0c-0.2,0-0.4,0-0.4-0.2c0-0.1,0.1-0.2,0.2-0.3c0.3-0.2,0.5-0.4,0.8-0.6c1.5-0.9,1.9-3.9,0.7-5
			c-0.4-0.4-0.7-1-1.3-1.2c-0.1,0-0.2-0.2-0.1-0.3C207.2,103.2,207.3,103.2,207.5,103.2L207.5,103.2L207.5,103.2z M199,116.6
			c0.1-1.3,0.2-2.5,0.2-3.8c0.1-2.5,0.2-4.9,0.4-7.4c0-0.4-0.1-0.7-0.1-1.1c-0.1-0.5,0.1-0.8,0.6-0.8c1.1,0,2.1-0.2,3.2-0.2
			c0.2,0,0.3,0.1,0.4,0.2c0,0.1-0.1,0.2-0.1,0.3c0,0.1-0.1,0.1-0.2,0.2c-1.4,1-1.6,2.5-1.7,4c-0.1,1.6,0,3.2-0.3,4.8
			c-0.1,0.8,0,1.6,0,2.3l-0.1,0l0,0c0,0.7,0,1.5,0,2.2c0,0.5-0.2,0.7-0.7,0.7C198.9,118.1,198.8,118.4,199,116.6L199,116.6
			L199,116.6z M194.8,110c0.3-0.7,0.6-1.3,1-2c0.6-1.2,1.1-2.4,1.5-3.6c0.1-0.5,0.5-0.7,1-0.7c0.4,0,0.7,0.3,0.7,0.7
			c0,0.3-0.1,0.6-0.1,1c-0.1,1.4-0.1,2.9-0.2,4.3c0,0.1,0,0.2,0,0.4c-0.1,0.4-0.3,0.6-0.7,0.6c-0.2,0-0.4-0.1-0.6-0.1
			c-0.2,0-0.3,0-0.5,0l0,0c-0.5,0.1-1.1,0.1-1.6,0C194.8,110.6,194.6,110.3,194.8,110L194.8,110L194.8,110z M208.1,120.4
			c-1.1,0.7-2.3,1.2-3.6,1.5c-1,0.2-2,0.3-3,0.3l0,0c-1.8,0.2-3.3-0.2-4.8-0.9c-0.6-0.3-1.2-0.7-1.7-1.2c-1-0.9-2-1.9-2.9-2.8
			c-0.1-0.1-0.2-0.2-0.2-0.3c-0.2-0.3-0.3-0.5,0-0.8c1-1.2,1.6-2.7,2.2-4.1c0.2-0.4,0.4-0.6,0.8-0.6c0.9,0,1.9-0.1,2.8-0.2
			c0.7,0,0.9,0.1,0.9,0.8c-0.1,1.3,0,2.6-0.2,3.8c-0.1,0.4,0,0.9-0.1,1.4c0,0.6-0.1,1.1-0.2,1.7c-0.1,0.2,0.2,0.4,0.4,0.3
			c0.2-0.1,0.3-0.1,0.5-0.2c0.3-0.2,0.7-0.2,1.1-0.2c0.6,0,1.2,0,1.9,0c0.3,0,0.5-0.3,0.4-0.6c-0.3-0.6-0.2-1.2-0.2-1.8
			c0-1.5,0.1-3,0.2-4.4c0.1-1.4,0.3-2.7,0.3-4.1c0-0.8,0.3-1.5,0.5-2.3c0.3-0.8,1-1.3,1.7-1.7c0.1-0.1,0.4-0.1,0.6-0.1
			c1.1,0,2.1,0.4,2.6,1.5c0.4,0.8,0.7,1.7,0.5,2.6c-0.3,1.2-1.2,1.8-2.2,2.3c-0.6,0.2-1.2,0.4-1.8,0.3c-0.2,0-0.5,0-0.7,0.1
			c-0.1,0-0.3,0.2-0.3,0.4c0,0.2,0.1,0.4,0.3,0.4c0.6,0.1,1.2,0.3,1.8,0.4c0.2,0,0.4,0,0.6,0.1c1.2,0.2,1.8,0.7,1.9,2
			c0.1,1.1,0.2,2.1,0.2,3.2c0,0.9,0.1,1.7,0.4,2.6C208.6,120,208.6,120.1,208.1,120.4L208.1,120.4L208.1,120.4z M218.3,120.5
			c-0.4,0.7-0.8,1.2-1.3,1.8c-0.4,0.5-1,0.7-1.6,0.8c-0.4,0.1-0.9,0.1-1.3,0.2l0,0c-1,0-1.9-0.4-2.7-0.9c-0.2-0.1-0.3-0.3-0.4-0.4
			c0-0.1-0.1-0.2,0-0.2c0-0.1,0.2-0.2,0.3-0.1c0.3,0.1,0.6,0.2,1,0.2c1.5,0.3,2.8,0,4.1-0.9c0.8-0.6,1.1-1.4,1.3-2.3
			c0-0.2,0-0.4,0.1-0.6c0-0.3,0.4-0.4,0.6-0.2c0.1,0.1,0.3,0.3,0.4,0.5C218.6,119,218.7,119.8,218.3,120.5L218.3,120.5L218.3,120.5z
			"/>
		<path class="st1" d="M196.2,87.4c0,0.2,0.2,0.3,0.4,0.5c0.1,0.1,0.2,0.1,0.3,0c0-0.1,0-0.2,0-0.2c-0.1-0.1-0.2-0.2-0.4-0.3
			C196.4,87.4,196.3,87.4,196.2,87.4L196.2,87.4z"/>
		<path class="st1" d="M182.7,79.7c0,0.1,0.2,0.3,0.3,0.2c0.1-0.1,0.1-0.2,0.1-0.3c0-0.1-0.1-0.2-0.2-0.2
			C182.8,79.5,182.7,79.6,182.7,79.7L182.7,79.7L182.7,79.7z"/>
		<path class="st1" d="M204.3,80.4L204.3,80.4L204.3,80.4z"/>
		<polygon class="st1" points="180.2,74.9 180.2,74.9 180.2,74.9 180.2,74.9 		"/>
		<path class="st1" d="M186.3,70.9c0.1,0,0.3,0,0.3-0.1c0.1-0.1,0.2-0.2,0.2-0.3c0-0.1-0.1-0.2-0.2-0.3c-0.1-0.1-0.3-0.1-0.5-0.1
			c-0.3,0.1-0.6,0.2-0.9,0.3c-0.2,0.1-0.3,0-0.4-0.1c-0.1-0.2,0-0.3,0.1-0.4c0.3-0.2,0.6-0.4,0.9-0.6c0.1-0.1,0.2-0.2,0.2-0.4l0,0
			c0-0.3-0.5-0.6-0.7-0.4c-0.5,0.4-1,0.8-1.5,1.3c-0.2,0.2-0.2,0.5-0.1,0.8c0.2,0.5,0.7,0.8,1.2,0.6C185.3,71,185.8,70.9,186.3,70.9
			L186.3,70.9L186.3,70.9z"/>
		<path class="st1" d="M209.1,79.3c0.1,0,0.1-0.1,0.2-0.1c0-0.1,0.1-0.2,0.1-0.2c-0.1-0.1-0.1-0.3-0.3-0.4c-0.4-0.2-0.7-0.5-0.6-1
			c0-0.2-0.1-0.3-0.3-0.3c-0.7,0-0.7-0.4-0.6-0.9c0-0.3-0.1-0.5-0.3-0.6c-0.1,0-0.2-0.1-0.2,0c-0.1,0-0.2,0.1-0.2,0.1
			c0,0.2,0,0.4,0,0.6l0,0c0,0.4-0.1,0.7,0.1,1.1c0.2,0.4,0.5,0.8,0.8,1.1C208.1,79,208.6,79.2,209.1,79.3L209.1,79.3L209.1,79.3z"/>
		<path class="st1" d="M176.7,75.9c0.1-0.1,0.2-0.3,0.1-0.4c0-0.2-0.2-0.3-0.3-0.3c-0.1,0-0.2,0-0.4,0c-0.7,0.2-1.3,0.4-2,0.6
			c-0.2,0.1-0.2,0.3-0.2,0.5c0.1,0.2,0.2,0.2,0.4,0.3c0.6-0.1,1.2-0.2,1.8-0.4C176.4,76.1,176.5,76,176.7,75.9
			C176.7,75.9,176.7,75.9,176.7,75.9z"/>
		<path class="st1" d="M174.4,76.6L174.4,76.6L174.4,76.6z"/>
		<path class="st1" d="M177.7,77.2L177.7,77.2c-0.5,0.2-1.2,0.5-1.9,0.7c-0.1,0.1-0.2,0.3-0.2,0.4c0,0.2,0.2,0.3,0.4,0.3
			c0.7-0.1,1.4-0.4,2.1-0.6c0.2-0.1,0.2-0.2,0.2-0.4C178.3,77.3,178.1,77.2,177.7,77.2L177.7,77.2z"/>
		<path class="st1" d="M199.3,78.5c0.4,0.1,0.8,0,1.2-0.2c0.2-0.1,0.3-0.2,0.4-0.5c0.2-0.6-0.2-1.3-0.9-1.4c-0.1,0-0.2,0.1-0.3,0.1
			c-0.1,0.1-0.1,0.2,0,0.3c0.1,0.1,0.2,0.3,0.3,0.4c0.1,0.1,0.2,0.3,0.1,0.4c-0.1,0.1-0.3,0.1-0.5,0.1l0,0c-0.1,0-0.2,0-0.2-0.1
			c-0.2,0-0.4,0-0.5,0.3C198.9,78.4,199.1,78.5,199.3,78.5L199.3,78.5L199.3,78.5z"/>
		<path class="st1" d="M203,86.3c-0.2-0.5-0.3-1.1-0.3-1.7c0-0.2,0-0.4-0.2-0.5c-0.2-0.1-0.4,0.2-0.5,0.5c0,0.1,0,0.2-0.1,0.5h0
			c0,0.3,0.1,0.6,0.2,1c0.1,0.3,0.1,0.5,0.3,0.8c0.1,0.2,0.2,0.3,0.5,0.3c0.2,0,0.3-0.3,0.3-0.6C203.1,86.4,203.1,86.3,203,86.3
			L203,86.3L203,86.3z"/>
		<path class="st1" d="M187.3,71.9c-0.7,0-1.4,0.1-2,0.4c-0.1,0.1-0.2,0.2-0.2,0.4c0.1,0.2,0.2,0.2,0.4,0.3c0.6-0.1,1.2-0.2,1.9-0.3
			c0.1,0,0.3-0.2,0.3-0.4C187.7,72,187.5,71.9,187.3,71.9L187.3,71.9L187.3,71.9z"/>
		<path class="st1" d="M174.3,73.5c0.6,0,0.9,0,1.3-0.1c0.1-0.1,0.3-0.2,0.2-0.4c0-0.1-0.1-0.2-0.2-0.3c-0.1-0.1-0.2-0.2-0.3-0.1
			c-0.6,0.1-1.2,0.2-1.8,0c-0.2,0-0.3,0.2-0.4,0.4c0,0.2,0.1,0.3,0.2,0.4C173.7,73.5,174.1,73.5,174.3,73.5L174.3,73.5L174.3,73.5z"
			/>
		<path class="st1" d="M182.6,67.4c-0.2,0-0.3,0.1-0.4,0.2c-0.2,0.4-0.4,0.8-0.3,1.4l0,0c0,0,0,0.1,0,0.2c0,0.2,0.1,0.3,0.3,0.3
			c0.2,0,0.3,0,0.4-0.2c0.2-0.3,0.4-1.4,0.3-1.7C182.9,67.5,182.8,67.4,182.6,67.4L182.6,67.4L182.6,67.4z"/>
		<path class="st1" d="M174.2,70.6c0.5,0.1,1.1,0.3,1.7,0.4c0.2,0,0.4-0.1,0.5-0.3c0.1-0.2-0.1-0.4-0.3-0.5c-0.5-0.1-1-0.2-1.4-0.3
			h0c-0.1,0-0.3,0-0.4,0.1c-0.1,0.1-0.3,0.2-0.2,0.4C174,70.4,174.1,70.6,174.2,70.6L174.2,70.6L174.2,70.6z"/>
		<path class="st1" d="M186.4,74.3c-0.5-0.3-1.1-0.4-1.6-0.5c-0.1,0-0.2,0.1-0.3,0.2c-0.1,0.1,0,0.3,0.1,0.3
			c0.5,0.4,1.1,0.7,1.8,0.7c0.2,0,0.3-0.2,0.3-0.3C186.7,74.5,186.6,74.4,186.4,74.3L186.4,74.3L186.4,74.3z"/>
		<path class="st1" d="M199.3,81.2L199.3,81.2L199.3,81.2z"/>
		<path class="st1" d="M199.4,81.2c-0.1,0-0.1,0-0.1,0c-0.6,0-1.1,0.1-1.5,0.3c-0.2,0.1-0.3,0.3-0.2,0.5c0.1,0.2,0.3,0.3,0.5,0.3
			c0.1,0,0.2-0.1,0.3-0.1c0.4-0.1,0.7-0.2,1.1-0.3c0.2-0.1,0.3-0.2,0.3-0.4C199.7,81.3,199.6,81.2,199.4,81.2L199.4,81.2L199.4,81.2
			z"/>
		<path class="st1" d="M198,79.4c-0.2,0.1-0.3,0.2-0.3,0.4c0,0.2,0.1,0.3,0.3,0.4c0.3,0.1,0.6,0.1,0.9,0.1v0c0.2,0,0.4,0,0.6,0
			c0.2,0,0.3-0.1,0.3-0.3c0-0.1-0.1-0.3-0.1-0.3C199.2,79.3,198.6,79.2,198,79.4L198,79.4L198,79.4z"/>
		<path class="st1" d="M203.8,84.4c-0.1,0-0.1,0.1-0.1,0.2c0,0.8,0.4,1.5,0.8,2.1c0,0,0.2,0.1,0.2,0c0.1,0,0.2-0.1,0.2-0.5l0,0
			c-0.1-0.6-0.5-1.2-0.9-1.8C203.9,84.4,203.8,84.4,203.8,84.4L203.8,84.4L203.8,84.4z"/>
		<polygon class="st1" points="178.5,69.7 178.5,69.7 178.5,69.7 		"/>
		<path class="st1" d="M177.5,68.3c-0.2,0.1-0.3,0.2-0.3,0.4c0,0.5,0.2,0.9,0.6,1.3c0.1,0.1,0.2,0.1,0.3,0.1c0.2,0,0.2-0.2,0.3-0.4
			c0-0.5-0.2-1-0.5-1.3C177.9,68.3,177.7,68.2,177.5,68.3L177.5,68.3L177.5,68.3z"/>
		<path class="st1" d="M180.6,69.3c0.1-0.3,0.1-0.6,0.1-0.7l0,0c0-0.5,0-0.8-0.2-1.1c-0.1-0.1-0.2-0.2-0.3-0.1s-0.3,0.1-0.3,0.2
			c0,0.6,0,1.1,0,1.7c0,0.1,0.2,0.2,0.3,0.2C180.4,69.6,180.6,69.5,180.6,69.3L180.6,69.3L180.6,69.3z"/>
		<path class="st1" d="M207.4,84.6L207.4,84.6c-0.2,0-0.4,0.2-0.3,0.3c0.1,0.5,0.4,1,0.7,1.4c0,0.1,0.1,0.1,0.2,0.1
			c0.2,0.1,0.3,0.1,0.4-0.1c0.1-0.1,0.1-0.2,0.1-0.3c-0.2-0.5-0.5-0.9-0.8-1.3C207.6,84.6,207.4,84.6,207.4,84.6L207.4,84.6
			L207.4,84.6z"/>
		<path class="st1" d="M206.5,85.9c-0.3-0.5-0.5-0.9-0.8-1.3c0-0.1-0.2-0.1-0.2-0.1c-0.1,0.1-0.2,0.2-0.2,0.2c0,0.7,0.3,1.1,0.8,1.6
			c0.1,0.1,0.5,0,0.5-0.2l0,0C206.5,86,206.5,85.9,206.5,85.9L206.5,85.9L206.5,85.9z"/>
		<path class="st1" d="M200.7,83.2c-0.2,0-0.4,0.2-0.5,0.5c0,0.3,0,0.6,0.3,0.7c0.1,0.1,0.2,0.1,0.3,0c0.3-0.2,0.3-0.5,0.2-0.8
			C201.1,83.4,200.9,83.3,200.7,83.2L200.7,83.2L200.7,83.2z"/>
		<path class="st1" d="M209.5,84.5c-0.2,0-0.3,0.1-0.4,0.3c0,0.1,0,0.3,0,0.3c0.2,0.3,0.6,0.5,0.9,0.5c0.1,0,0.3-0.1,0.3-0.1
			c0-0.1,0-0.2,0-0.3C210.2,84.7,209.9,84.5,209.5,84.5L209.5,84.5L209.5,84.5z"/>
		<path class="st1" d="M210.2,83.2c-0.2,0.1-0.1,0.4,0,0.5c0.3,0.1,0.5,0.2,0.8,0c0.1,0,0.1-0.2,0.2-0.2c0-0.1,0-0.2-0.1-0.3
			C210.9,83,210.5,83,210.2,83.2C210.2,83.2,210.2,83.2,210.2,83.2z"/>
		<polygon class="st1" points="210.9,81.1 210.9,81.1 210.9,81.1 		"/>
		<path class="st1" d="M210.6,81.4c0.2,0,0.3-0.1,0.3-0.3c0-0.2-0.2-0.5-0.5-0.4c-0.2,0-0.3,0.1-0.3,0.3
			C210.1,81.2,210.3,81.4,210.6,81.4C210.6,81.4,210.6,81.4,210.6,81.4z"/>
		<polygon class="st1" points="182.9,79.5 182.9,79.5 182.9,79.5 		"/>
		<path class="st1" d="M180.8,74.7c-0.2,0.1-0.4,0.2-0.5,0.2l0,0l0,0C180.4,74.9,180.6,74.8,180.8,74.7
			C180.8,74.7,180.8,74.7,180.8,74.7L180.8,74.7c0.1,0.1,0.2,0.1,0.2,0c0,0-0.1-0.1-0.1-0.1C180.8,74.6,180.8,74.6,180.8,74.7
			L180.8,74.7L180.8,74.7z"/>
	</g>
	<path class="st1" d="M14.4,43.6h0.8l2.6,4.2v-4.2h0.7v5.2h-0.8l-2.6-4.2v4.2h-0.7V43.6z M22.3,43.4c0.9,0,1.6,0.3,2,0.9
		c0.3,0.5,0.5,1,0.5,1.8c0,0.8-0.2,1.4-0.6,1.9c-0.5,0.6-1.1,0.9-2,0.9c-0.8,0-1.4-0.3-1.9-0.8c-0.4-0.5-0.6-1.1-0.6-1.9
		c0-0.7,0.2-1.3,0.5-1.8C20.7,43.8,21.4,43.4,22.3,43.4L22.3,43.4z M22.3,48.3c0.6,0,1.1-0.2,1.3-0.7c0.3-0.4,0.4-0.9,0.4-1.5
		c0-0.6-0.2-1.1-0.5-1.5c-0.3-0.4-0.8-0.6-1.3-0.6c-0.5,0-1,0.2-1.3,0.5c-0.3,0.4-0.5,0.9-0.5,1.6c0,0.6,0.1,1.1,0.4,1.4
		C21.2,48.1,21.7,48.3,22.3,48.3L22.3,48.3z M26.1,43.6h1l1.5,4.4l1.5-4.4h1v5.2h-0.7v-3c0-0.1,0-0.3,0-0.5c0-0.2,0-0.5,0-0.8
		l-1.5,4.4h-0.7l-1.5-4.4v0.2c0,0.1,0,0.3,0,0.6c0,0.3,0,0.4,0,0.6v3h-0.7L26.1,43.6L26.1,43.6z M34.7,43.4c0.9,0,1.6,0.3,2,0.9
		c0.3,0.5,0.5,1,0.5,1.8c0,0.8-0.2,1.4-0.6,1.9c-0.5,0.6-1.1,0.9-2,0.9c-0.8,0-1.4-0.3-1.9-0.8c-0.4-0.5-0.6-1.1-0.6-1.9
		c0-0.7,0.2-1.3,0.5-1.8C33.2,43.8,33.9,43.4,34.7,43.4L34.7,43.4z M34.8,48.3c0.6,0,1.1-0.2,1.3-0.7c0.3-0.4,0.4-0.9,0.4-1.5
		c0-0.6-0.2-1.1-0.5-1.5c-0.3-0.4-0.8-0.6-1.3-0.6c-0.5,0-1,0.2-1.3,0.5C33.1,45,33,45.5,33,46.2c0,0.6,0.1,1.1,0.4,1.4
		C33.7,48.1,34.2,48.3,34.8,48.3L34.8,48.3z M41,46c0.3,0,0.6-0.1,0.8-0.2c0.2-0.1,0.3-0.4,0.3-0.7c0-0.4-0.1-0.6-0.4-0.8
		c-0.1-0.1-0.3-0.1-0.6-0.1h-1.7V46L41,46L41,46z M38.6,43.6H41c0.4,0,0.7,0.1,1,0.2c0.5,0.2,0.7,0.6,0.7,1.2c0,0.3-0.1,0.6-0.2,0.8
		c-0.1,0.2-0.3,0.4-0.5,0.5c0.2,0.1,0.4,0.2,0.5,0.3c0.1,0.1,0.2,0.4,0.2,0.6l0,0.7c0,0.2,0,0.3,0,0.4c0,0.2,0.1,0.3,0.2,0.3v0.1
		h-0.9c0,0,0-0.1-0.1-0.2c0-0.1,0-0.2,0-0.4l0-0.9c0-0.3-0.1-0.6-0.4-0.7c-0.1-0.1-0.3-0.1-0.6-0.1h-1.6v2.2h-0.7L38.6,43.6
		L38.6,43.6z M50.2,46c0.3,0,0.6-0.1,0.8-0.2c0.2-0.1,0.3-0.4,0.3-0.7c0-0.4-0.1-0.6-0.4-0.8c-0.1-0.1-0.3-0.1-0.6-0.1h-1.7V46
		L50.2,46L50.2,46z M47.9,43.6h2.4c0.4,0,0.7,0.1,1,0.2C51.8,44,52,44.4,52,45c0,0.3-0.1,0.6-0.2,0.8c-0.1,0.2-0.3,0.4-0.5,0.5
		c0.2,0.1,0.4,0.2,0.5,0.3c0.1,0.1,0.2,0.4,0.2,0.6l0,0.7c0,0.2,0,0.3,0,0.4c0,0.2,0.1,0.3,0.2,0.3v0.1h-0.9c0,0,0-0.1-0.1-0.2
		c0-0.1,0-0.2,0-0.4l0-0.9c0-0.3-0.1-0.6-0.4-0.7c-0.1-0.1-0.3-0.1-0.6-0.1h-1.6v2.2h-0.7L47.9,43.6L47.9,43.6z M53.6,43.6h3.8v0.6
		h-3.1v1.6h2.8v0.6h-2.8v1.7h3.1v0.6h-3.8L53.6,43.6L53.6,43.6z M58.7,43.6h0.7v2.5l2.5-2.5h1l-2.1,2.1l2.2,3.1H62l-1.8-2.6L59.4,47
		v1.8h-0.7L58.7,43.6L58.7,43.6z M64,43.6h3.8v0.6h-3.1v1.6h2.8v0.6h-2.8v1.7h3.1v0.6H64L64,43.6L64,43.6z M69.2,43.6H70l2.6,4.2
		v-4.2h0.7v5.2h-0.8l-2.6-4.2v4.2h-0.7V43.6z M75,43.6h0.7v5.2H75V43.6z M77.3,43.6h0.8l2.6,4.2v-4.2h0.7v5.2h-0.8L78,44.6v4.2h-0.7
		V43.6z M85.2,43.5c0.5,0,0.9,0.1,1.3,0.3c0.5,0.3,0.8,0.7,0.9,1.4h-0.7c-0.1-0.4-0.3-0.7-0.5-0.8c-0.3-0.2-0.6-0.3-1-0.3
		c-0.5,0-0.9,0.2-1.2,0.5c-0.3,0.4-0.5,0.9-0.5,1.6c0,0.6,0.1,1.1,0.4,1.5c0.3,0.4,0.7,0.6,1.3,0.6c0.5,0,0.9-0.1,1.2-0.4
		c0.3-0.3,0.5-0.7,0.5-1.3h-1.6V46h2.3v2.8H87l-0.2-0.7c-0.2,0.3-0.4,0.4-0.6,0.5c-0.3,0.2-0.7,0.3-1.2,0.3c-0.6,0-1.1-0.2-1.6-0.6
		c-0.5-0.5-0.7-1.2-0.7-2c0-0.9,0.2-1.6,0.7-2.1C83.9,43.7,84.5,43.5,85.2,43.5L85.2,43.5z"/>
	<path class="st2" d="M21.8,54.6v1.2c-0.4,0.3-0.8,0.9-1.4,1.8c-0.6,0.9-1.1,1.8-1.6,2.8c-0.4,1-0.8,1.8-1,2.6
		c-0.1,0.5-0.3,1.3-0.6,2.5h-1.5c0.3-2.1,1.1-4.2,2.3-6.3c0.7-1.2,1.4-2.3,2.2-3.2h-6.1v-1.4H21.8z M31.5,54.6v1.2
		c-0.4,0.3-0.8,0.9-1.4,1.8c-0.6,0.9-1.1,1.8-1.6,2.8c-0.4,1-0.8,1.8-1,2.6c-0.1,0.5-0.3,1.3-0.6,2.5h-1.5c0.3-2.1,1.1-4.2,2.3-6.3
		c0.7-1.2,1.4-2.3,2.2-3.2h-6.1v-1.4C23.9,54.6,31.5,54.6,31.5,54.6z M37.1,65.7c-1.3,0-2.2-0.4-2.8-1.1c-0.6-0.7-0.9-1.6-0.9-2.6
		h1.4c0.1,0.7,0.2,1.2,0.4,1.6c0.4,0.6,1,0.9,1.9,0.9c0.7,0,1.3-0.2,1.8-0.6c0.4-0.4,0.7-0.9,0.7-1.5c0-0.8-0.2-1.3-0.7-1.6
		c-0.5-0.3-1.1-0.5-1.9-0.5c-0.1,0-0.2,0-0.3,0c-0.1,0-0.2,0-0.3,0v-1.2c0.1,0,0.3,0,0.4,0c0.1,0,0.2,0,0.3,0c0.5,0,0.9-0.1,1.3-0.2
		c0.6-0.3,0.9-0.8,0.9-1.5c0-0.5-0.2-1-0.6-1.3c-0.4-0.3-0.8-0.4-1.4-0.4c-0.9,0-1.6,0.3-1.9,0.9c-0.2,0.3-0.3,0.8-0.3,1.4h-1.4
		c0-0.8,0.2-1.5,0.5-2.1c0.6-1,1.6-1.5,3-1.5c1.1,0,2,0.2,2.6,0.7c0.6,0.5,0.9,1.2,0.9,2.2c0,0.7-0.2,1.2-0.5,1.6
		c-0.2,0.3-0.5,0.5-0.9,0.6c0.6,0.2,1,0.5,1.4,0.9c0.3,0.5,0.5,1,0.5,1.7c0,1.1-0.3,1.9-1,2.6C39.4,65.4,38.4,65.7,37.1,65.7
		L37.1,65.7z M47,54.4c1.4,0,2.5,0.6,3.1,1.8c0.5,0.9,0.7,2.2,0.7,3.7c0,1.5-0.2,2.7-0.7,3.7c-0.6,1.4-1.7,2.1-3.2,2.1
		c-1.3,0-2.3-0.6-3-1.7c-0.5-1-0.8-2.2-0.8-3.9c0-1.3,0.2-2.3,0.5-3.2C44.4,55.2,45.5,54.4,47,54.4L47,54.4z M47,64.4
		c0.7,0,1.3-0.3,1.7-1c0.4-0.6,0.6-1.8,0.6-3.6c0-1.3-0.2-2.3-0.5-3.1c-0.3-0.8-0.9-1.2-1.8-1.2c-0.8,0-1.4,0.4-1.8,1.2
		c-0.4,0.8-0.6,1.9-0.6,3.4c0,1.1,0.1,2,0.4,2.7C45.5,63.9,46.1,64.4,47,64.4L47,64.4z M62.5,62.6c0.1,0.8,0.5,1.3,1.1,1.6
		c0.3,0.2,0.7,0.2,1.1,0.2c0.8,0,1.4-0.3,1.8-0.8s0.6-1.1,0.6-1.7c0-0.8-0.2-1.4-0.7-1.8c-0.5-0.4-1-0.6-1.7-0.6
		c-0.5,0-0.9,0.1-1.2,0.3c-0.3,0.2-0.6,0.4-0.9,0.8l-1.2-0.1l0.8-5.9H68v1.3h-4.7L62.8,59c0.3-0.2,0.5-0.3,0.7-0.4
		c0.4-0.2,0.9-0.3,1.4-0.3c1,0,1.9,0.3,2.6,1c0.7,0.7,1.1,1.5,1.1,2.5c0,1-0.3,2-1,2.8c-0.6,0.8-1.7,1.2-3.1,1.2
		c-0.9,0-1.7-0.3-2.4-0.8c-0.7-0.5-1.1-1.3-1.2-2.3L62.5,62.6L62.5,62.6z M72.2,62.6c0.1,0.8,0.5,1.3,1.1,1.6
		c0.3,0.2,0.7,0.2,1.1,0.2c0.8,0,1.4-0.3,1.8-0.8c0.4-0.5,0.6-1.1,0.6-1.7c0-0.8-0.2-1.4-0.7-1.8c-0.5-0.4-1-0.6-1.7-0.6
		c-0.5,0-0.9,0.1-1.2,0.3c-0.3,0.2-0.6,0.4-0.9,0.8l-1.2-0.1l0.8-5.9h5.7v1.3h-4.7L72.6,59c0.3-0.2,0.5-0.3,0.7-0.4
		c0.4-0.2,0.9-0.3,1.4-0.3c1,0,1.9,0.3,2.6,1c0.7,0.7,1.1,1.5,1.1,2.5c0,1-0.3,2-1,2.8c-0.6,0.8-1.7,1.2-3.1,1.2
		c-0.9,0-1.7-0.3-2.4-0.8c-0.7-0.5-1.1-1.3-1.2-2.3L72.2,62.6L72.2,62.6z M81.5,57.6v-1.1c1-0.1,1.7-0.3,2.1-0.5
		c0.4-0.2,0.7-0.8,0.9-1.6h1.1v11h-1.5v-7.8H81.5z M94.4,54.3c1.2,0,2.1,0.3,2.6,1c0.5,0.6,0.7,1.3,0.7,2h-1.4
		c-0.1-0.4-0.2-0.8-0.4-1c-0.3-0.5-0.8-0.7-1.5-0.7c-0.8,0-1.4,0.4-1.8,1.1c-0.5,0.7-0.7,1.7-0.8,3.1c0.3-0.5,0.7-0.8,1.2-1
		c0.4-0.2,0.9-0.3,1.5-0.3c0.9,0,1.7,0.3,2.4,0.9c0.7,0.6,1,1.5,1,2.6c0,1-0.3,1.9-1,2.7c-0.7,0.8-1.6,1.2-2.8,1.2
		c-1,0-1.9-0.4-2.7-1.2c-0.7-0.8-1.1-2.1-1.1-4c0-1.4,0.2-2.5,0.5-3.5C91.5,55.3,92.7,54.3,94.4,54.3L94.4,54.3z M94.3,64.5
		c0.7,0,1.3-0.2,1.6-0.7c0.4-0.5,0.5-1.1,0.5-1.7c0-0.6-0.2-1.1-0.5-1.6c-0.3-0.5-0.9-0.8-1.8-0.8c-0.6,0-1.1,0.2-1.6,0.6
		c-0.4,0.4-0.7,1-0.7,1.8c0,0.7,0.2,1.3,0.6,1.8C93,64.2,93.6,64.5,94.3,64.5L94.3,64.5z M109.5,62.6c0.1,0.8,0.5,1.3,1.1,1.6
		c0.3,0.2,0.7,0.2,1.1,0.2c0.8,0,1.4-0.3,1.8-0.8c0.4-0.5,0.6-1.1,0.6-1.7c0-0.8-0.2-1.4-0.7-1.8c-0.5-0.4-1-0.6-1.7-0.6
		c-0.5,0-0.9,0.1-1.2,0.3c-0.3,0.2-0.6,0.4-0.9,0.8l-1.2-0.1l0.8-5.9h5.7v1.3h-4.7l-0.5,3.1c0.3-0.2,0.5-0.3,0.7-0.4
		c0.4-0.2,0.9-0.3,1.4-0.3c1,0,1.9,0.3,2.6,1c0.7,0.7,1.1,1.5,1.1,2.5c0,1-0.3,2-1,2.8c-0.6,0.8-1.7,1.2-3.1,1.2
		c-0.9,0-1.7-0.3-2.4-0.8c-0.7-0.5-1.1-1.3-1.2-2.3L109.5,62.6L109.5,62.6z M118.8,57.6v-1.1c1-0.1,1.7-0.3,2.1-0.5
		c0.4-0.2,0.7-0.8,0.9-1.6h1.1v11h-1.5v-7.8H118.8z"/>
	<path class="st1" d="M17,91l-0.8-2.3L15.4,91H17z M15.9,88h0.8l1.9,5.2h-0.8l-0.5-1.5h-2l-0.6,1.5H14L15.9,88L15.9,88z M22.9,88
		v0.6h-1.7v4.5h-0.7v-4.5h-1.7V88H22.9L22.9,88z M26.1,91l-0.8-2.3L24.5,91H26.1z M24.9,88h0.8l1.9,5.2h-0.8l-0.5-1.5h-2l-0.6,1.5
		H23L24.9,88L24.9,88z M29.1,91.5c0,0.3,0.1,0.5,0.2,0.7c0.2,0.3,0.6,0.5,1.2,0.5c0.3,0,0.5,0,0.7-0.1c0.4-0.1,0.6-0.4,0.6-0.8
		c0-0.3-0.1-0.5-0.3-0.6c-0.2-0.1-0.5-0.2-0.8-0.3l-0.7-0.2c-0.5-0.1-0.8-0.2-1-0.3c-0.3-0.2-0.5-0.5-0.5-1c0-0.5,0.2-0.8,0.5-1.1
		c0.3-0.3,0.8-0.4,1.4-0.4c0.5,0,1,0.1,1.4,0.4c0.4,0.3,0.6,0.7,0.6,1.3h-0.7c0-0.3-0.1-0.5-0.2-0.6c-0.2-0.3-0.6-0.4-1.1-0.4
		c-0.4,0-0.7,0.1-0.9,0.3c-0.2,0.2-0.3,0.4-0.3,0.6c0,0.3,0.1,0.4,0.3,0.6c0.1,0.1,0.5,0.2,0.9,0.3l0.7,0.2c0.3,0.1,0.6,0.2,0.8,0.3
		c0.3,0.2,0.5,0.6,0.5,1.1c0,0.6-0.2,1-0.6,1.2c-0.4,0.2-0.9,0.4-1.4,0.4c-0.6,0-1.1-0.2-1.5-0.5c-0.4-0.3-0.5-0.8-0.5-1.3
		L29.1,91.5L29.1,91.5z M37.6,88h0.8l2.6,4.2V88h0.7v5.2h-0.8L38.2,89v4.2h-0.7V88z M45.8,91l-0.8-2.3L44.2,91H45.8z M44.7,88h0.8
		l1.9,5.2h-0.8l-0.5-1.5h-2l-0.6,1.5h-0.7L44.7,88L44.7,88z M48.4,88h1l1.5,4.4l1.5-4.4h1v5.2h-0.7v-3c0-0.1,0-0.3,0-0.5
		c0-0.2,0-0.5,0-0.8l-1.5,4.4h-0.7l-1.5-4.4V89c0,0.1,0,0.3,0,0.6c0,0.3,0,0.4,0,0.6v3h-0.7L48.4,88L48.4,88z M57.5,91l-0.8-2.3
		L55.9,91H57.5z M56.4,88h0.8l1.9,5.2h-0.8l-0.5-1.5h-2l-0.6,1.5h-0.7L56.4,88L56.4,88z"/>
	<path class="st2" d="M15.1,98.4h1v7.5h-1V98.4L15.1,98.4z M24.2,98.4l1.4,6.1l1.7-6.1h1.1l1.7,6.1l1.4-6.1h1.1l-2,7.5h-1.1
		l-1.7-6.2l-1.7,6.2h-1.1l-2-7.5L24.2,98.4L24.2,98.4z M37.7,102.8l-1.1-3.3l-1.2,3.3H37.7L37.7,102.8z M36,98.4h1.1l2.7,7.5h-1.1
		l-0.8-2.2h-3l-0.8,2.2h-1L36,98.4L36,98.4z M40.1,98.4h1.2l2.2,3.6l2.2-3.6h1.2l-2.8,4.5v3h-1v-3L40.1,98.4z M51.4,102.8l-1.1-3.3
		l-1.2,3.3H51.4L51.4,102.8z M49.7,98.4h1.1l2.7,7.5h-1.1l-0.8-2.2h-3l-0.8,2.2h-1L49.7,98.4L49.7,98.4z M55.2,98.4h1.2l3.8,6.1
		v-6.1h1v7.5H60l-3.8-6.1v6.1h-1V98.4L55.2,98.4z M71.9,102.8l-1.1-3.3l-1.2,3.3H71.9L71.9,102.8z M70.3,98.4h1.1l2.7,7.5H73
		l-0.8-2.2h-3l-0.8,2.2h-1L70.3,98.4L70.3,98.4z M75.7,98.4h1.2l3.8,6.1v-6.1h1v7.5h-1.1l-3.8-6.1v6.1h-1V98.4L75.7,98.4z M85,98.4
		v4.6c0,0.5,0.1,1,0.3,1.4c0.3,0.5,0.8,0.8,1.5,0.8c0.9,0,1.4-0.3,1.8-0.9c0.2-0.3,0.3-0.8,0.3-1.3v-4.6h1v4.2
		c0,0.9-0.1,1.6-0.4,2.1c-0.5,0.9-1.3,1.4-2.6,1.4c-1.3,0-2.1-0.5-2.6-1.4c-0.2-0.5-0.4-1.2-0.4-2.1v-4.2C84,98.4,85,98.4,85,98.4z
		 M95.4,98.2c0.7,0,1.3,0.1,1.8,0.4c0.7,0.4,1.2,1.1,1.4,2.1h-1c-0.1-0.5-0.4-0.9-0.8-1.2c-0.4-0.3-0.9-0.4-1.5-0.4
		c-0.7,0-1.3,0.3-1.8,0.8c-0.5,0.5-0.7,1.3-0.7,2.3c0,0.9,0.2,1.6,0.6,2.2c0.4,0.6,1,0.8,1.9,0.8c0.7,0,1.2-0.2,1.7-0.6
		c0.4-0.4,0.7-1,0.7-1.9h-2.3v-0.8h3.3v4H98l-0.2-1c-0.3,0.4-0.6,0.6-0.9,0.8c-0.4,0.3-1,0.4-1.7,0.4c-0.9,0-1.7-0.3-2.3-0.9
		c-0.7-0.7-1-1.7-1-3c0-1.3,0.3-2.3,1-3C93.5,98.6,94.3,98.2,95.4,98.2L95.4,98.2z M104.4,101.8c0.5,0,0.9-0.1,1.1-0.3
		c0.3-0.2,0.4-0.5,0.4-1c0-0.5-0.2-0.9-0.6-1.1c-0.2-0.1-0.5-0.2-0.8-0.2H102v2.6H104.4L104.4,101.8z M101,98.4h3.5
		c0.6,0,1,0.1,1.4,0.3c0.7,0.3,1.1,0.9,1.1,1.8c0,0.4-0.1,0.8-0.3,1.1c-0.2,0.3-0.4,0.5-0.8,0.7c0.3,0.1,0.5,0.3,0.7,0.5
		c0.1,0.2,0.2,0.5,0.2,0.9l0,1c0,0.3,0,0.5,0.1,0.6c0.1,0.2,0.2,0.4,0.3,0.5v0.2H106c0-0.1-0.1-0.1-0.1-0.3c0-0.1,0-0.3-0.1-0.6
		l-0.1-1.3c0-0.5-0.2-0.8-0.5-1c-0.2-0.1-0.5-0.1-0.9-0.1H102v3.2h-1V98.4L101,98.4z M112.9,102.8l-1.1-3.3l-1.2,3.3H112.9
		L112.9,102.8z M111.3,98.4h1.1l2.7,7.5H114l-0.8-2.2h-3l-0.8,2.2h-1L111.3,98.4L111.3,98.4z M116.7,98.4h1v3.1h3.9v-3.1h1v7.5h-1
		v-3.5h-3.9v3.5h-1V98.4L116.7,98.4z"/>
	<path class="st2" d="M16.3,121.2c0.3,0,0.5,0,0.7-0.1c0.3-0.1,0.4-0.4,0.4-0.7c0-0.3-0.1-0.6-0.4-0.7c-0.2-0.1-0.4-0.1-0.7-0.1
		h-1.2v1.6H16.3L16.3,121.2z M16.6,123.6c0.4,0,0.7-0.1,0.9-0.4c0.1-0.2,0.2-0.3,0.2-0.6c0-0.4-0.2-0.6-0.5-0.8
		c-0.2-0.1-0.4-0.1-0.7-0.1h-1.4v1.8L16.6,123.6L16.6,123.6z M14.4,119.1h2.2c0.6,0,1,0.2,1.3,0.5c0.1,0.2,0.2,0.5,0.2,0.7
		c0,0.3-0.1,0.6-0.3,0.8c-0.1,0.1-0.2,0.2-0.4,0.3c0.3,0.1,0.5,0.2,0.6,0.3c0.2,0.2,0.3,0.5,0.3,0.9c0,0.3-0.1,0.6-0.3,0.9
		c-0.3,0.4-0.8,0.6-1.5,0.6h-2.2L14.4,119.1L14.4,119.1z M20,123.2c0,0.2,0.1,0.3,0.2,0.4c0.1,0.1,0.3,0.2,0.5,0.2
		c0.2,0,0.4-0.1,0.6-0.2c0.4-0.2,0.5-0.5,0.5-0.8v-0.5c-0.1,0-0.2,0.1-0.3,0.1c-0.1,0-0.2,0.1-0.4,0.1l-0.4,0
		c-0.2,0-0.4,0.1-0.5,0.1C20.1,122.8,20,123,20,123.2L20,123.2z M21.6,121.9c0.1,0,0.2-0.1,0.3-0.2c0-0.1,0-0.1,0-0.2
		c0-0.2-0.1-0.4-0.2-0.5c-0.2-0.1-0.4-0.1-0.7-0.1c-0.3,0-0.6,0.1-0.7,0.3c-0.1,0.1-0.1,0.2-0.2,0.4h-0.6c0-0.5,0.2-0.8,0.5-1
		c0.3-0.2,0.6-0.3,1-0.3c0.4,0,0.8,0.1,1.1,0.3c0.3,0.2,0.4,0.4,0.4,0.8v2.2c0,0.1,0,0.1,0,0.2c0,0,0.1,0.1,0.2,0.1c0,0,0.1,0,0.1,0
		c0,0,0.1,0,0.1,0v0.5c-0.1,0-0.2,0-0.2,0.1c-0.1,0-0.1,0-0.2,0c-0.2,0-0.4-0.1-0.5-0.2c-0.1-0.1-0.1-0.2-0.1-0.3
		c-0.1,0.2-0.3,0.3-0.6,0.4c-0.2,0.1-0.5,0.2-0.8,0.2c-0.3,0-0.6-0.1-0.9-0.3c-0.2-0.2-0.3-0.5-0.3-0.8c0-0.3,0.1-0.6,0.3-0.8
		c0.2-0.2,0.5-0.3,0.9-0.4L21.6,121.9L21.6,121.9z M24,120.5h0.6v0.5c0.2-0.2,0.4-0.4,0.6-0.5c0.2-0.1,0.4-0.1,0.7-0.1
		c0.5,0,0.9,0.2,1.1,0.6c0.1,0.2,0.2,0.5,0.2,0.9v2.4h-0.6v-2.4c0-0.2,0-0.4-0.1-0.6c-0.1-0.2-0.3-0.4-0.6-0.4c-0.1,0-0.3,0-0.4,0
		c-0.2,0.1-0.3,0.2-0.5,0.3c-0.1,0.1-0.2,0.3-0.2,0.4c0,0.1,0,0.3,0,0.6v2H24L24,120.5L24,120.5z M28.4,119.1H29v3l1.6-1.6h0.8
		l-1.4,1.4l1.5,2.4h-0.8l-1.2-1.9l-0.5,0.5v1.4h-0.6V119.1L28.4,119.1z M38.2,121.2c0.3,0,0.5,0,0.7-0.1c0.3-0.1,0.4-0.4,0.4-0.7
		c0-0.3-0.1-0.6-0.4-0.7c-0.2-0.1-0.4-0.1-0.7-0.1h-1.2v1.6H38.2L38.2,121.2z M38.4,123.6c0.4,0,0.7-0.1,0.9-0.4
		c0.1-0.2,0.2-0.3,0.2-0.6c0-0.4-0.2-0.6-0.5-0.8c-0.2-0.1-0.4-0.1-0.7-0.1h-1.4v1.8L38.4,123.6L38.4,123.6z M36.2,119.1h2.2
		c0.6,0,1,0.2,1.3,0.5c0.1,0.2,0.2,0.5,0.2,0.7c0,0.3-0.1,0.6-0.3,0.8c-0.1,0.1-0.2,0.2-0.4,0.3c0.3,0.1,0.5,0.2,0.6,0.3
		c0.2,0.2,0.3,0.5,0.3,0.9c0,0.3-0.1,0.6-0.3,0.9c-0.3,0.4-0.8,0.6-1.5,0.6h-2.2L36.2,119.1L36.2,119.1z M43.6,118.9
		c0.7,0,1.2,0.2,1.5,0.5c0.4,0.3,0.6,0.7,0.6,1.2h-0.7c-0.1-0.3-0.2-0.6-0.5-0.8c-0.2-0.2-0.6-0.3-1-0.3c-0.5,0-0.9,0.2-1.2,0.5
		c-0.3,0.4-0.5,0.9-0.5,1.6c0,0.6,0.1,1.1,0.4,1.5c0.3,0.4,0.7,0.6,1.3,0.6c0.5,0,0.9-0.2,1.2-0.6c0.1-0.2,0.2-0.5,0.3-0.8h0.7
		c-0.1,0.5-0.3,1-0.6,1.4c-0.4,0.4-1,0.7-1.7,0.7c-0.6,0-1.1-0.2-1.5-0.5c-0.5-0.5-0.8-1.2-0.8-2.2c0-0.8,0.2-1.4,0.6-1.9
		C42.3,119.2,42.9,118.9,43.6,118.9L43.6,118.9z M49.8,122.1l-0.8-2.3l-0.8,2.3H49.8z M48.6,119.1h0.8l1.9,5.2h-0.8l-0.5-1.5h-2
		l-0.6,1.5h-0.7L48.6,119.1L48.6,119.1z"/>
	<path class="st3" d="M189.9,18.1c3.1-1.4,3.5-5.9-0.8-5.9h-5l-1.9,3.7h0.9l-2.2,8.7h5.8C190.9,24.6,192.8,19.5,189.9,18.1
		L189.9,18.1z M201.9,16.8l1.9-3.4l-2.6-1.4l-0.3,0.4c-1.4-0.7-8.7,0.3-9.2,7.5c0.3,6.1,7.1,5,7.7,4.6l1.9-3.9
		c-1.8,1.2-5.6,1.8-5.7-1.8C195.9,15.9,199.4,14.8,201.9,16.8L201.9,16.8z M211.4,12.1h-5.9l-1.9,3.5h1l-4.4,8.8h4.3l0.9-2.1h2.6
		l0.1,2.1h4L211.4,12.1L211.4,12.1z M206.5,19.5l1.4-3.4l0.1,3.4H206.5L206.5,19.5z M186.6,21.3h-1.5l0.5-2h1.4
		C188.7,19.7,187.7,21.4,186.6,21.3L186.6,21.3z M187.5,17.1h-1.2l0.4-1.7h1.4C189.4,15.7,188.2,17.2,187.5,17.1z"/>
</g>
</svg>
