<?xml version="1.0" encoding="utf-8"?>
<!-- Generator: Adobe Illustrator 27.5.0, SVG Export Plug-In . SVG Version: 6.00 Build 0)  -->
<svg version="1.1" id="Layer_1" xmlns:xodm="http://www.corel.com/coreldraw/odm/2003"
	 xmlns="http://www.w3.org/2000/svg" xmlns:xlink="http://www.w3.org/1999/xlink" x="0px" y="0px" viewBox="0 0 89.9 17.2"
	 style="enable-background:new 0 0 89.9 17.2;" xml:space="preserve">
<style type="text/css">
	.st0{fill:#371810;}
</style>
<g id="Layer_x0020_1">
	<path class="st0" d="M4,14.1c-0.6,0-1.1,0.1-1.5,0.4c-0.4,0.3-0.6,0.7-0.6,1.1c0,0.4,0,0.8,0.1,1.2c0,0,0,0.1,0,0.1
		c0,0-0.1,0-0.1,0c-0.6-0.1-1-0.4-1.3-0.9c-0.2-0.4-0.4-0.8-0.5-1.2C0,14.5,0,14.1,0,13.8c0.2-1,0.6-1.9,1.7-2.3
		c0.5-0.2,1.1-0.4,1.7-0.5c0.7-0.2,1.4-0.4,2-0.7C5.9,10,6.3,9.6,6.6,9c0.2-0.5,0.3-1,0.3-1.6c0-0.3-0.1-0.6-0.3-0.9
		C6.3,6,5.9,5.9,5.3,6C5,6,4.8,6.2,4.7,6.4C4.6,6.5,4.5,6.6,4.5,6.6c-0.1,0.1-0.1,0.1-0.2,0C4.1,6.5,4,6.4,3.9,6.2
		C3.8,6.1,3.7,6.1,3.6,6C2.7,5.9,2.2,6.3,2.1,7.1c0,0.4,0,0.7,0,1.1c0,0.2,0.1,0.4,0.3,0.6C2.4,8.9,2.5,9,2.6,9.1c0,0.1,0,0.1,0,0.1
		c-0.5,0-1-0.1-1.3-0.6C1.1,8.4,1.1,8.1,1,7.8C1,7.4,1.1,7,1.2,6.6c0-0.2,0-0.3,0-0.4C1.1,6,1,5.9,0.9,5.9C0.8,5.9,0.7,6,0.6,6.1
		c0,0.1,0,0.2,0,0.3c0,0.1,0,0.3,0,0.4c0,0.1,0,0.1-0.1,0.1c-0.1,0-0.1,0-0.1-0.1C0.3,6.4,0.2,5.9,0.4,5.5c0.1-0.3,0.3-0.4,0.6-0.4
		c0.2,0,0.3,0.1,0.4,0.3c0.1,0.3,0.1,0.6,0,0.9c0,0.5-0.1,1-0.1,1.5c0,0.2,0,0.4,0.1,0.6c0.1,0.2,0.2,0.4,0.4,0.4c0,0,0.1,0,0.1,0
		c0,0,0-0.1,0-0.1C1.7,8,1.6,7.4,1.7,6.7c0.1-0.4,0.1-0.8,0.4-1.2C2.4,5.2,2.7,5,3.2,5C3.8,5.1,4.1,5.4,4.3,6c0,0,0,0.1,0.1,0.1
		C4.4,6.1,4.4,6,4.4,6c0.1-0.2,0.2-0.4,0.4-0.6C5,5.1,5.4,5,5.7,5c0.6,0.1,1,0.5,1.2,1.1c0.2,0.8,0.2,1.6,0,2.4
		C6.9,9,6.8,9.5,6.5,9.9c-0.4,0.6-0.9,1-1.5,1.3c-0.6,0.3-1.3,0.4-2,0.6c-0.7,0.2-1.3,0.4-1.9,0.8c-0.4,0.3-0.6,0.6-0.7,1
		c-0.2,0.7-0.1,1.4,0.3,2.1C0.8,16,1,16.3,1.4,16.4c0.2,0.1,0.2,0.1,0.2-0.1c0-0.4,0-0.8,0.1-1.1c0-0.2,0.1-0.4,0.2-0.6
		c0.6-1,1.6-1.5,2.8-1.2c0.8,0.2,1.4,0.6,1.8,1.3c0.2,0.2,0.2,0.5,0.2,0.8c0,0.4,0,0.7-0.1,1.1c-0.1,0.2-0.2,0.4-0.3,0.6
		c0,0.1-0.1,0.1-0.1,0c-0.1,0,0-0.1,0-0.1c0.1-0.2,0.2-0.4,0.2-0.7c0.2-0.8,0-1.4-0.7-1.8c-0.4-0.2-0.9-0.3-1.3-0.4
		C4.3,14.1,4.1,14.1,4,14.1L4,14.1L4,14.1z M37.3,8.9c0,0,0,0.1,0,0.2c0,0,0,0.1-0.1,0.1c-0.1,0-0.1,0-0.1-0.1C37,9,37,8.8,37,8.7
		c-0.1-0.4-0.2-0.8-0.4-1.2c-0.1-0.1-0.1-0.1-0.3-0.1c-0.1,0.1-0.2,0.1-0.2,0.1c-0.1,0-0.1,0-0.1-0.1c0.1-0.3,0.2-0.6,0.3-0.8
		c0.1-0.1,0.1-0.1,0.2,0c0.3,0.2,0.4,0.5,0.5,0.9C37.2,8,37.3,8.4,37.3,8.9C37.3,8.9,37.3,8.9,37.3,8.9z M56.7,9
		c0,0.1-0.1,0.2-0.2,0.2c-0.1,0-0.1,0-0.1-0.1c0-0.4-0.1-0.7-0.3-1.1c-0.1-0.2-0.2-0.4-0.3-0.5c-0.1-0.1-0.1-0.1-0.2,0
		c-0.1,0-0.1,0.1-0.2,0.1c0,0-0.1,0.1-0.1,0c0,0,0-0.1,0-0.2c0.1-0.2,0.2-0.5,0.3-0.7c0.1-0.2,0.2-0.2,0.3,0
		c0.2,0.2,0.4,0.5,0.5,0.8C56.6,8,56.6,8.5,56.7,9L56.7,9L56.7,9z M17.9,8.9c0,0,0,0.1,0,0.1c0,0.1,0,0.1-0.1,0.1
		c-0.1,0-0.1,0-0.1-0.1c-0.1-0.2-0.1-0.5-0.2-0.7c-0.1-0.3-0.2-0.7-0.4-0.9c-0.1-0.1-0.1-0.1-0.2,0c-0.1,0.1-0.1,0.1-0.2,0.1
		c-0.1,0.1-0.2,0-0.2-0.1c0-0.3,0.1-0.6,0.3-0.8c0.1-0.1,0.2-0.1,0.2,0c0.2,0.2,0.4,0.5,0.5,0.8C17.8,7.9,17.9,8.4,17.9,8.9
		L17.9,8.9L17.9,8.9z M89.9,11.8c0,0.1,0,0.2,0,0.3c0,0.1,0,0.1-0.1,0.1c-0.1,0.1-0.2,0-0.2-0.1c0-0.2,0-0.4,0-0.6
		c-0.1-0.8-0.2-1.6-0.4-2.3c-0.3-1.1-0.7-2.1-1.2-3.1C88,6,88,5.9,87.9,5.9c-0.1,0-0.1,0.1-0.2,0.1c-0.1,0.1-0.1,0.2-0.2,0.3
		c0,0-0.1,0.1-0.1,0.1c-0.1,0-0.1-0.1-0.1-0.1c0-0.3,0.1-0.5,0.2-0.7c0.1-0.3,0.3-0.6,0.3-0.9c0-0.1,0-0.1,0.1-0.1
		c0.1,0,0.1,0,0.1,0.1c0.2,0.2,0.3,0.5,0.4,0.8c0.2,0.6,0.5,1.1,0.6,1.7c0.2,0.6,0.3,1.2,0.4,1.9c0.1,0.8,0.2,1.6,0.3,2.4
		C89.9,11.5,89.9,11.7,89.9,11.8L89.9,11.8L89.9,11.8z M88.3,11.7c0,0.1,0,0.3-0.1,0.4c0,0.1,0,0.1-0.1,0.1c-0.1,0-0.1-0.1-0.1-0.1
		c-0.1-0.3-0.1-0.7-0.2-1c-0.1-0.7-0.3-1.3-0.5-2c-0.2-0.6-0.4-1.2-0.6-1.7c-0.2-0.4-0.4-0.7-0.6-1c0-0.1-0.1-0.2-0.1-0.2
		C86,6,86,6,85.9,6c-0.1,0-0.1,0.1-0.1,0.1c0,0.1-0.1,0.2-0.2,0.3c0,0-0.1,0.1-0.1,0.1c-0.1,0-0.1-0.1-0.1-0.1
		c0-0.2,0.1-0.4,0.1-0.6c0.1-0.4,0.3-0.8,0.4-1.2c0-0.1,0-0.1,0.1-0.1c0.1,0,0.1,0,0.2,0.1c0.2,0.3,0.3,0.7,0.5,1
		c0.3,0.5,0.5,1,0.7,1.6c0.2,0.5,0.3,1,0.4,1.5c0.2,0.7,0.3,1.5,0.4,2.2C88.2,11.1,88.2,11.4,88.3,11.7L88.3,11.7L88.3,11.7z
		 M12.6,7.5c0,0.5-0.1,0.9-0.4,1.2c-0.4,0.5-0.8,0.6-1.4,0.5c-0.4,0-0.6-0.4-0.4-0.8c0.2-0.4,0.4-0.4,0.7-0.1
		c0.1,0.1,0.2,0.2,0.3,0.2c0.2,0.1,0.4,0.1,0.5-0.1c0.3-0.3,0.4-0.7,0.3-1.1c-0.1-0.7-0.5-1.1-1.1-1.3C10.6,5.9,9.8,5.8,9.1,6
		C8.8,6,8.6,6.1,8.3,6.2c-0.1,0-0.1,0.1-0.2,0c0-0.1,0-0.1,0-0.2c0.5-0.9,1.6-1.2,2.5-1c0.9,0.2,1.4,0.7,1.7,1.5
		C12.5,6.9,12.6,7.2,12.6,7.5L12.6,7.5L12.6,7.5z M81.7,5.9c-0.5,0-0.9,0.1-1.3,0.2c-0.1,0-0.3,0.1-0.4,0.1c0,0-0.1,0-0.1,0
		c0,0,0-0.1,0-0.1c0.2-0.4,0.5-0.6,0.9-0.8C81.1,5.1,81.5,5,82,5c0.9,0,1.8,0.6,2.1,1.4c0.2,0.5,0.3,1.1,0.2,1.6
		c-0.2,0.8-0.9,1.3-1.7,1.2c-0.4-0.1-0.6-0.5-0.4-0.9c0.1-0.2,0.4-0.3,0.6-0.1c0.1,0.1,0.2,0.2,0.3,0.2c0.2,0.2,0.4,0.2,0.6,0
		c0.2-0.2,0.3-0.4,0.4-0.7c0.1-0.7-0.3-1.3-0.9-1.6C82.7,6,82.2,5.9,81.7,5.9L81.7,5.9L81.7,5.9z M64.8,1.5c-0.3,0-0.7,0-1,0.1
		c-0.3,0.1-0.4,0.3-0.5,0.6c-0.2,0.7,0,1.2,0.5,1.6C64,3.9,64.1,4,64.3,4.1c0.1,0,0.2,0.1,0.1,0.2c-0.1,0.1-0.2,0.1-0.3,0.1
		c-0.1,0-0.1,0-0.2-0.1c-0.5-0.3-1-0.6-1.4-1c-0.1-0.1-0.2-0.2-0.3-0.3c0-0.1,0-0.1,0-0.2c0,0,0.1-0.1,0.1,0c0.1,0,0.1,0,0.2,0.1
		c0.1,0.1,0.2,0.2,0.3,0.3c0,0,0.1,0.1,0.1,0.1c0,0,0-0.1,0-0.1c-0.1-0.3-0.1-0.7-0.1-1c0-0.5,0.2-0.9,0.6-1.2
		c0.7-0.5,1.7-0.5,2.4-0.1c0.5,0.3,0.7,0.8,0.8,1.3C66.7,2.9,66.5,3.5,66,4c-0.1,0.1-0.3,0.2-0.5,0.3c-0.1,0-0.1,0-0.2,0
		c-0.1,0-0.1,0-0.1-0.1c0-0.1,0-0.1,0.1-0.1c0.2-0.1,0.3-0.2,0.5-0.3c0.8-0.5,0.8-1.6,0.1-2.1c-0.2-0.1-0.4-0.2-0.6-0.2
		C65,1.5,64.9,1.5,64.8,1.5L64.8,1.5L64.8,1.5z M45.4,1.5c-0.4,0-0.7,0-0.9,0.2c-0.4,0.2-0.6,0.4-0.6,0.8c-0.1,0.5,0.1,1,0.6,1.3
		c0.2,0.1,0.4,0.2,0.5,0.4c0.1,0,0.1,0.1,0.1,0.2c-0.1,0.1-0.1,0.1-0.2,0.1c-0.2-0.1-0.4-0.2-0.6-0.3c-0.4-0.2-0.8-0.5-1.1-0.9
		C43,3.2,42.9,3.1,42.9,3c0-0.1,0-0.1,0-0.2c0-0.1,0.1-0.1,0.2,0c0.1,0,0.1,0.1,0.2,0.1c0.1,0.1,0.2,0.2,0.3,0.3
		c0,0,0.1,0.1,0.1,0.1c0,0,0-0.1,0-0.1c-0.1-0.3-0.1-0.7-0.1-1c0.1-0.8,0.6-1.4,1.4-1.5c0.8-0.1,1.4,0,2,0.6c0.3,0.3,0.4,0.6,0.4,1
		c0.1,0.7-0.2,1.4-0.7,1.9c-0.1,0.1-0.3,0.2-0.4,0.3c-0.1,0-0.2,0-0.2,0c-0.1,0-0.1-0.1-0.1-0.2C45.9,4.1,46,4,46.1,4
		c0.7-0.3,1.1-1.4,0.7-2c-0.2-0.2-0.4-0.4-0.7-0.5C45.8,1.5,45.6,1.5,45.4,1.5L45.4,1.5L45.4,1.5z M26,1.5c-0.3,0-0.6,0-0.9,0.1
		c-0.4,0.1-0.5,0.4-0.6,0.8c-0.1,0.7,0.2,1.4,0.9,1.7c0,0,0,0,0,0c0.1,0,0.2,0,0.2,0.1c0,0.1-0.1,0.2-0.2,0.2c-0.1,0-0.2,0-0.3-0.1
		c-0.5-0.3-1-0.7-1.5-1.1c-0.1-0.1-0.2-0.2-0.2-0.4c0-0.1,0-0.1,0.1-0.2c0.1,0,0.1,0,0.1,0.1c0.1,0.2,0.3,0.3,0.4,0.4
		c0,0,0.1,0.1,0.1,0c0,0,0-0.1,0-0.1c0-0.1-0.1-0.2-0.1-0.3c-0.2-0.6,0.1-1.6,0.8-2c0.8-0.5,2-0.4,2.6,0.5c0.3,0.4,0.4,0.8,0.4,1.2
		c0,0.6-0.2,1.1-0.7,1.6c-0.2,0.2-0.3,0.3-0.5,0.3c-0.1,0-0.2,0-0.3-0.1c0-0.1,0.1-0.2,0.2-0.2c0.4-0.2,0.7-0.5,0.9-0.9
		c0.2-0.7-0.1-1.4-0.8-1.6C26.4,1.5,26.2,1.5,26,1.5L26,1.5L26,1.5z M4.1,4.4C3.3,4.3,2.4,4,1.9,3.1C1.6,2.7,1.5,2.2,1.5,1.7
		c0-0.1,0-0.2,0.2-0.1C1.8,1.7,1.9,1.8,1.9,2C2,2.2,2,2.4,2.1,2.5C2.2,2.7,2.3,2.9,2.6,3c0.1,0,0.2,0,0.2-0.1
		c0.1-0.3,0.1-0.7,0.3-0.9c0.2-0.3,0.4-0.5,0.8-0.6C4,1.3,4.1,1.2,4.1,1c0-0.3,0.1-0.6,0.1-0.9C4.1,0,4.2,0,4.3,0
		c0.1,0,0.1,0.1,0.1,0.1c0,0.2,0,0.4,0,0.5c0,0.3,0.1,0.6,0.4,0.7c0.2,0.1,0.5,0.3,0.6,0.5c0.2,0.3,0.2,0.6,0.3,1
		C5.7,3.1,5.8,3.1,6,3c0.3-0.2,0.5-0.5,0.6-0.8c0-0.1,0.1-0.3,0.1-0.5c0-0.2,0.1-0.1,0.2-0.1C7,1.6,7,1.6,7,1.7c0,1-0.5,1.8-1.4,2.3
		C5.2,4.3,4.8,4.4,4.1,4.4L4.1,4.4L4.1,4.4z M4.3,3.4c0.3,0,0.6,0,0.9-0.1C5.3,3.3,5.4,3.2,5.4,3c0-0.3-0.1-0.6-0.3-0.8
		c-0.4-0.6-1.2-0.6-1.7,0C3.2,2.4,3.1,2.7,3.1,3c0,0.2,0,0.3,0.2,0.3C3.6,3.4,3.9,3.4,4.3,3.4L4.3,3.4L4.3,3.4z M76.1,0.6
		c0,0.2,0,0.3,0,0.5c0,0.1,0,0.1,0.1,0.2c0.7,0.2,1,0.6,1.1,1.3c0,0.1,0.1,0.3,0.1,0.4c0,0.1,0.1,0.2,0.2,0.1
		C77.9,3,78,2.8,78.1,2.6c0.1-0.3,0.2-0.6,0.3-0.9c0-0.1,0.2-0.2,0.3-0.1c0.1,0,0.1,0.1,0.1,0.2c-0.1,1-0.5,1.8-1.4,2.3
		c-1,0.5-2.3,0.4-3.2-0.3c-0.6-0.5-0.9-1.2-1-2c0-0.1,0-0.1,0.1-0.2c0.1,0,0.2,0,0.2,0.1c0.1,0.3,0.2,0.6,0.3,0.9
		c0.1,0.2,0.2,0.3,0.4,0.3c0.1,0.1,0.2,0,0.2-0.1c0.1-0.6,0.3-1,0.7-1.4c0.1-0.1,0.3-0.2,0.4-0.2c0.1,0,0.1-0.1,0.1-0.2
		c0-0.3,0-0.6,0-0.9c0-0.1,0-0.2,0.2-0.2c0.1,0,0.1,0,0.1,0.1C76.1,0.3,76.1,0.5,76.1,0.6L76.1,0.6C76.1,0.6,76.1,0.6,76.1,0.6z
		 M75.9,3.4c0.4,0,0.7,0,1.1-0.1c0.1,0,0.2-0.1,0.2-0.2c0-0.3-0.1-0.6-0.3-0.9c-0.4-0.6-1.2-0.7-1.6-0.2c-0.3,0.3-0.4,0.6-0.4,1
		c0,0.2,0.1,0.2,0.2,0.3C75.3,3.4,75.6,3.4,75.9,3.4C75.9,3.4,75.9,3.4,75.9,3.4z M49.8,15.1c0-0.7,0.1-1.3,0.3-1.9
		c0.2-0.7,0.5-1.5,0.7-2.2c0.2-0.6,0.3-1.2,0.1-1.8c-0.1-0.5-0.4-0.8-0.9-1C49.9,8.1,49.6,8,49.4,8c-0.1,0-0.1-0.1-0.1-0.1
		c0,0,0-0.1,0-0.1c0-0.3,0.1-0.3,0.3-0.2c0.4,0.1,0.7,0,1.1-0.2c0.2-0.2,0.3-0.6,0.2-0.8C50.8,6.1,50.6,6,50.2,6c-0.1,0-0.2,0-0.3,0
		c-0.3,0-0.5,0.2-0.5,0.5c0,0.1,0,0.2,0,0.3c0,0.1,0,0.1-0.1,0.1c-0.1,0-0.1-0.1-0.1-0.1C49.1,6.5,49,6.3,49,6.1
		c0.1-0.3,0.2-0.5,0.4-0.7c0.5-0.4,1.3-0.5,1.7,0c0.2,0.2,0.2,0.3,0.3,0.6c0,0.4,0,0.8-0.2,1.2c-0.1,0.3-0.3,0.5-0.6,0.6
		c0,0-0.1,0-0.1,0c0,0-0.1,0-0.1,0.1c0,0.1,0,0.1,0.1,0.1c0.5,0.3,0.7,0.8,0.9,1.3c0.2,0.7,0.1,1.4-0.1,2c-0.2,0.8-0.5,1.6-0.7,2.4
		c-0.2,0.6-0.3,1.1-0.4,1.7c0,0.5,0.1,0.9,0.2,1.4c0,0.1,0,0.2,0,0.2c0,0,0,0.1-0.1,0.1c-0.1,0-0.1,0-0.1-0.1
		C50,16.4,49.7,15.8,49.8,15.1L49.8,15.1L49.8,15.1z M69.2,15.1c0-0.8,0.1-1.4,0.3-2c0.2-0.7,0.5-1.5,0.7-2.2c0.1-0.5,0.2-1,0.1-1.6
		c-0.1-0.6-0.5-1.1-1.1-1.2C69.1,8,68.9,8,68.7,8c-0.1,0-0.1-0.1-0.1-0.2c0.1-0.1,0-0.2,0.2-0.3c0.1-0.1,0.2,0,0.3,0.1
		c0.6,0.1,1.1-0.2,1.2-0.8c0.1-0.3-0.1-0.6-0.3-0.7c-0.3-0.1-0.6-0.2-0.9-0.1c-0.2,0.1-0.3,0.2-0.3,0.4c0,0.2-0.1,0.3-0.1,0.4
		c0,0.1-0.1,0.1-0.1,0.1c-0.1,0-0.1-0.1-0.1-0.1c0-0.4-0.1-0.8,0.1-1.1c0.1-0.3,0.4-0.4,0.7-0.5c0.2-0.1,0.4-0.1,0.6-0.1
		c0.4,0,0.8,0.2,0.9,0.6c0.2,0.6,0.1,1.1-0.2,1.7c-0.1,0.2-0.3,0.3-0.5,0.4c0,0-0.1,0-0.1,0.1c0,0.1,0.1,0.1,0.1,0.1
		c0.8,0.6,1,1.4,1,2.3c0,0.7-0.2,1.3-0.4,2c-0.2,0.8-0.5,1.7-0.7,2.5c-0.1,0.3-0.1,0.6-0.1,0.9c0,0.3,0.1,0.6,0.1,0.9
		c0,0.1,0.1,0.3,0.1,0.4c0,0.1,0,0.1,0,0.1c-0.1,0-0.1,0-0.1-0.1C69.4,16.4,69.2,15.7,69.2,15.1L69.2,15.1L69.2,15.1z M32.1,10.1
		c0,0.6-0.1,1.1-0.2,1.6c-0.2,0.8-0.5,1.7-0.7,2.5c-0.1,0.6-0.2,1.1-0.2,1.7c0,0.3,0.1,0.6,0.2,0.9c0,0,0,0.1,0,0.2
		c0,0.1,0,0.1-0.1,0.1c0,0-0.1,0-0.1,0c-0.1,0-0.1-0.1-0.1-0.2c-0.3-0.7-0.5-1.5-0.4-2.3c0-0.5,0.2-1,0.3-1.4
		c0.2-0.8,0.5-1.5,0.7-2.3c0.1-0.6,0.2-1.2,0.1-1.8c-0.1-0.5-0.5-0.9-1-1.1C30.4,8,30.2,8,30,8c-0.1,0-0.1,0-0.1-0.1
		c0-0.3,0.1-0.3,0.4-0.3c0.3,0,0.6,0.1,0.9-0.2c0.4-0.3,0.5-0.9,0.2-1.2C31.3,6.1,31.2,6,31.1,6c-0.3-0.1-0.6,0-0.8,0.1
		c-0.1,0-0.2,0.1-0.2,0.3C30,6.5,30,6.6,30,6.8c0,0.1,0,0.2-0.1,0.2c-0.1,0-0.1-0.1-0.2-0.1c0,0,0-0.1-0.1-0.1
		c-0.1-0.7,0.2-1.3,0.8-1.6c0.5-0.2,1.3,0,1.6,0.7c0.2,0.6-0.1,1.4-0.5,1.7c-0.1,0.1-0.2,0.1-0.3,0.1C31,7.8,31,7.8,31.2,8
		c0.2,0.1,0.3,0.3,0.5,0.4C32,8.9,32.1,9.5,32.1,10.1L32.1,10.1L32.1,10.1z M67,12.7c0,0.3,0,0.7,0,1c0,0.1,0,0.2-0.1,0.2
		c-0.1,0-0.1-0.1-0.1-0.2c0-0.5,0-0.9,0-1.4c0-0.3-0.1-0.6-0.1-0.9c-0.1-0.5-0.5-0.7-1-0.8c-0.4-0.1-0.8-0.1-1.2,0
		c-0.3,0.1-0.5,0.1-0.7,0.3c-0.1,0.1-0.1,0.1,0,0.3c0.1,0.2,0.3,0.3,0.5,0.2c0.2,0,0.3,0,0.5,0c0.2,0,0.4,0.1,0.5,0.3
		c0.4,0.7,0.1,1.7-0.7,2c-0.6,0.2-1.2,0.2-1.8,0c-0.5-0.2-0.7-0.6-0.7-1.1c0-0.4,0-0.8,0.1-1.1c0.1-0.3,0.1-0.6,0.1-0.9
		c0,0,0-0.1,0-0.1c-0.1-0.1-0.4,0-0.4,0.1c-0.1,0.3-0.2,0.6-0.1,0.9c0,0.1,0,0.1-0.1,0.1c-0.1,0-0.2,0-0.2-0.1
		c-0.1-0.4-0.1-0.7,0-1.1c0.1-0.3,0.2-0.5,0.4-0.6c0.3-0.2,0.6-0.1,0.7,0.1c0.1,0.1,0.1,0.2,0.1,0.3c0,0.3-0.1,0.7-0.1,1
		c0,0.2-0.1,0.4-0.1,0.6c0,0.5,0.2,0.9,0.7,1.1c0.3,0.2,0.6,0.2,1,0.1c0.3,0,0.7-0.1,1-0.2c0.1,0,0.1-0.1,0.1-0.2
		c0-0.4,0.1-0.4-0.4-0.4c-0.3,0-0.6,0-0.9-0.2c-0.3-0.1-0.4-0.4-0.4-0.6c-0.1-0.7,0.2-1.2,0.8-1.5c0.6-0.4,1.2-0.4,1.9-0.1
		c0.4,0.2,0.7,0.5,0.8,1C67,11.5,67,12.1,67,12.7L67,12.7L67,12.7z M28.2,12.7c0,0.4,0,0.7,0,1.1c0,0.1,0,0.2-0.1,0.2
		c-0.1,0-0.1-0.1-0.1-0.2c0-0.5,0-1.1,0-1.6c0-0.3-0.1-0.5-0.1-0.7c-0.2-0.4-0.5-0.7-0.9-0.7c-0.5-0.1-1.1-0.1-1.6,0.1
		c-0.1,0-0.3,0.1-0.4,0.2c-0.1,0.1-0.1,0.2-0.1,0.3c0,0.1,0.1,0.2,0.3,0.2c0.2,0,0.4,0,0.6,0c0.1,0,0.3,0,0.4,0.1
		c0.2,0.1,0.3,0.2,0.3,0.4c0.1,0.4,0,0.8-0.1,1.2c-0.1,0.4-0.5,0.6-0.9,0.7c-0.4,0.1-0.7,0.1-1.1,0.1c-0.7,0-1.1-0.4-1.2-1
		c-0.1-0.6,0-1.2,0.1-1.8c0-0.1,0-0.2,0-0.3c0-0.2-0.1-0.3-0.2-0.3c-0.2,0-0.2,0.1-0.3,0.2c-0.1,0.3-0.1,0.5-0.1,0.8
		c0,0.1,0,0.2-0.2,0.2c-0.1,0-0.1,0-0.1-0.1c0-0.4-0.1-0.8,0.1-1.2c0.1-0.3,0.3-0.5,0.7-0.6c0,0,0.1,0,0.1,0
		c0.4,0.2,0.5,0.5,0.3,0.9c-0.1,0.4-0.2,0.8-0.2,1.3c0,0.5,0.2,0.8,0.7,1c0.6,0.2,1.2,0.2,1.8,0c0.3-0.1,0.3-0.3,0.2-0.5
		c0-0.1-0.1-0.1-0.2-0.1c-0.2,0-0.5,0-0.7,0c-0.6-0.1-0.9-0.8-0.7-1.3c0.2-0.7,0.6-1.1,1.3-1.3c0.4-0.1,0.8-0.1,1.1,0
		c0.5,0.1,0.8,0.5,1,1C28.3,11.4,28.2,12,28.2,12.7C28.2,12.7,28.2,12.7,28.2,12.7L28.2,12.7L28.2,12.7z M47.6,12.7c0,0.3,0,0.7,0,1
		c0,0.1,0.1,0.2-0.1,0.2c-0.2,0-0.1-0.1-0.1-0.2c0-0.5,0-0.9,0-1.4c0-0.4-0.1-0.7-0.3-1c-0.2-0.3-0.5-0.5-0.8-0.6
		c-0.6-0.1-1.1,0-1.7,0.1c-0.2,0-0.3,0.2-0.3,0.4c0,0.2,0.1,0.3,0.3,0.3c0.2,0,0.3,0,0.5,0c0.4,0,0.7,0.1,0.8,0.6
		c0,0.2,0.1,0.3,0.1,0.5c0,0.5-0.2,0.9-0.6,1.2c-0.3,0.2-0.6,0.3-0.9,0.3c-0.3,0-0.6,0-0.8-0.1c-0.4-0.1-0.7-0.4-0.8-0.8
		c-0.2-0.5-0.2-1.1,0-1.6c0.1-0.3,0.1-0.5,0.1-0.8c0-0.1-0.1-0.2-0.2-0.2c-0.3,0-0.3,0-0.4,0.3c0,0.2-0.1,0.5,0,0.7
		c0,0.1,0,0.1-0.1,0.2c-0.1,0-0.1,0-0.2-0.1c-0.1-0.5-0.1-0.9,0.1-1.3c0.1-0.3,0.4-0.4,0.6-0.5c0.1,0,0.1,0,0.2,0
		c0.3,0.2,0.4,0.4,0.3,0.7c0,0.3-0.1,0.5-0.1,0.8c0,0.2-0.1,0.5-0.1,0.7c0,0.4,0.2,0.7,0.5,0.9c0.4,0.2,0.8,0.3,1.3,0.2
		c0.2,0,0.4-0.1,0.6-0.1c0.3-0.1,0.3-0.2,0.3-0.5c0-0.1-0.1-0.1-0.1-0.1c-0.2,0-0.4,0-0.5,0c-0.9,0-1.1-0.8-1-1.4
		c0.2-0.8,0.8-1.1,1.5-1.2c0.4-0.1,0.8,0,1.1,0.1c0.4,0.2,0.7,0.5,0.8,0.9C47.7,11.4,47.6,12.1,47.6,12.7L47.6,12.7L47.6,12.7z
		 M59.7,7.9c0,0.4,0,0.8,0,1.2c0,0.1,0,0.2-0.1,0.2c-0.1,0-0.1-0.1-0.1-0.2c0.1-0.5,0.1-1,0.1-1.5c0-0.5-0.1-0.9-0.3-1.4
		c0,0,0-0.1-0.1-0.1c0,0-0.1-0.1-0.1-0.1c-0.1,0-0.1,0.1-0.1,0.1c0,0.4,0,0.8,0,1.2c0,0.4-0.1,0.8-0.2,1.2c-0.2,0.3-0.4,0.6-0.8,0.7
		c-0.2,0.1-0.4,0.1-0.6,0.1c0,0-0.1,0-0.1,0c0,0,0-0.1,0-0.1c0.2-0.3,0.4-0.5,0.6-0.8c0.3-0.6,0.3-1.2,0-1.7
		c-0.2-0.4-0.6-0.5-1.1-0.6c-0.6-0.1-1.2,0-1.8,0.3c-0.4,0.2-0.5,0.5-0.6,0.9c0,0.6,0.2,1,0.4,1.5c0.1,0.1,0.1,0.3,0.2,0.4
		c0.1,0.1,0,0.1-0.1,0.1c-0.7,0.1-1.3-0.4-1.4-1.1c-0.1-0.4-0.1-0.9,0-1.3c0-0.2,0-0.5,0-0.7c0-0.1,0-0.2-0.1-0.3
		c-0.1,0-0.2,0-0.3,0.1c-0.1,0.1-0.2,0.3-0.2,0.4c0,0.2,0,0.4,0.1,0.5c0,0.1,0,0.1-0.1,0.2c-0.1,0-0.2,0-0.2-0.1c0,0,0-0.1,0-0.2
		c0-0.3,0-0.6,0-0.9c0-0.4,0.2-0.7,0.6-0.9c0.3-0.1,0.5,0,0.6,0.2c0.1,0.2,0.1,0.4,0,0.6c0,0.5-0.1,1-0.2,1.4c0,0.3,0,0.7,0.1,1
		c0.1,0.2,0.2,0.3,0.3,0.4c0,0,0.1,0.1,0.2,0c0.1,0,0-0.1,0-0.2c-0.1-0.2-0.1-0.5-0.2-0.7c-0.1-0.7-0.1-1.4,0.4-2
		c0.5-0.7,1.2-0.9,2-0.8c0.5,0.1,1,0.3,1.3,0.7c0.4,0.5,0.5,1,0.5,1.6c0,0.5-0.2,0.9-0.4,1.3c0,0-0.1,0.1,0,0.1c0,0,0.1,0,0.1,0
		c0.3-0.1,0.4-0.3,0.5-0.6c0.1-0.3,0.1-0.6,0.2-0.9c0-0.6-0.1-1.1-0.1-1.7c0-0.2,0-0.3,0-0.5c0-0.1,0-0.1,0.2-0.1
		c0.5,0.1,0.7,0.4,0.9,0.9C59.8,6.6,59.7,7.2,59.7,7.9L59.7,7.9L59.7,7.9z M40.3,7.9c0,0.4,0,0.8,0,1.2c0,0.1,0,0.1-0.1,0.1
		c-0.1,0-0.1,0-0.2,0c-0.1,0,0-0.1,0-0.1c0.1-0.6,0.1-1.3,0-1.9c0-0.3-0.1-0.6-0.2-0.9c0-0.1-0.1-0.2-0.2-0.2c-0.1,0-0.1,0-0.1,0.1
		c0,0,0,0.1,0,0.1c0,0.4,0,0.9,0,1.3c0,0.4-0.1,0.7-0.3,1.1c-0.3,0.4-0.7,0.6-1.2,0.6c-0.1,0-0.2,0.1-0.2,0c0-0.1,0.1-0.1,0.1-0.2
		c0.3-0.4,0.5-0.8,0.7-1.2c0.2-0.7-0.1-1.4-0.8-1.7c-0.7-0.3-1.5-0.2-2.2,0.1c-0.5,0.3-0.7,0.8-0.6,1.4c0.1,0.5,0.3,1,0.6,1.4
		c0,0,0.1,0.1,0,0.1c0,0.1-0.1,0-0.1,0c-0.3,0-0.5-0.1-0.8-0.2c-0.4-0.2-0.5-0.5-0.6-0.9c0-0.3-0.1-0.5,0-0.8C34,7,34,6.7,34,6.3
		c0-0.1,0-0.2-0.1-0.3c0-0.1-0.1-0.1-0.2-0.1c-0.2,0.1-0.3,0.3-0.3,0.5c0,0.2,0,0.3,0,0.5c0,0.1,0,0.2-0.1,0.2
		c-0.1,0-0.2-0.1-0.2-0.1c0,0,0-0.1,0-0.1c0-0.3,0-0.5,0-0.8c0-0.3,0.1-0.7,0.4-0.9c0.3-0.2,0.6-0.1,0.7,0.2c0.1,0.2,0,0.4,0,0.6
		c0,0.3-0.1,0.7-0.1,1c0,0.3-0.1,0.6,0,0.9c0,0.3,0.1,0.6,0.4,0.8c0,0,0.1,0.1,0.1,0c0.1,0,0-0.1,0-0.2c-0.1-0.3-0.2-0.5-0.2-0.8
		c-0.1-0.6-0.1-1.2,0.3-1.8c0.5-0.8,1.2-1,2.1-1c0.7,0.1,1.2,0.3,1.6,0.9c0.3,0.4,0.3,0.9,0.3,1.4c-0.1,0.4-0.2,0.8-0.4,1.2
		c0,0-0.1,0.1,0,0.1c0,0,0.1,0,0.2,0c0.4-0.1,0.5-0.5,0.6-0.8c0.1-0.5,0.1-1,0.1-1.5c0-0.4-0.1-0.8-0.1-1.2c0-0.2,0-0.2,0.2-0.2
		c0.4,0.1,0.7,0.4,0.8,0.8c0.2,0.5,0.2,1,0.2,1.5C40.4,7.5,40.3,7.7,40.3,7.9C40.3,7.9,40.3,7.9,40.3,7.9L40.3,7.9L40.3,7.9z
		 M21,7.9c0,0.3,0,0.7,0,1c0,0.1,0,0.2-0.1,0.3c0,0-0.1,0.1-0.1,0c0,0,0-0.1,0-0.1c0-0.2,0-0.3,0-0.5c0-0.5,0-1,0-1.5
		c0-0.3-0.1-0.6-0.3-0.8c-0.1-0.1-0.1-0.2-0.2-0.2c-0.1-0.1-0.1,0-0.1,0.1c0,0.2,0,0.3,0,0.5c0,0.4,0,0.9,0,1.3
		c-0.1,0.5-0.3,0.9-0.7,1.1c-0.3,0.1-0.6,0.2-0.9,0.2c-0.1,0-0.2,0-0.1-0.1c0.1-0.1,0.1-0.2,0.2-0.3c0.3-0.3,0.4-0.6,0.5-1
		c0-0.3,0.1-0.6,0-0.8c0-0.4-0.3-0.6-0.6-0.8c-0.5-0.2-1-0.3-1.5-0.2c-0.3,0-0.7,0.1-1,0.3c-0.3,0.2-0.5,0.5-0.5,0.9
		c0,0.3,0,0.5,0,0.8c0.1,0.4,0.3,0.8,0.5,1.1c0,0.1,0.1,0.1,0.1,0.2c0,0.1-0.1,0-0.2,0c-0.2,0-0.5-0.1-0.7-0.2
		C15,9,14.8,8.7,14.7,8.3c-0.1-0.4-0.1-0.9,0-1.3c0-0.2,0-0.4,0.1-0.7c0-0.1,0-0.2,0-0.3c-0.1-0.1-0.1-0.2-0.3-0.2
		c-0.1,0-0.3,0.2-0.3,0.3c0,0.2,0,0.4,0,0.6c0,0,0,0.1,0,0.1c0,0.1,0,0.1-0.1,0.1c0,0-0.1,0-0.1-0.1c-0.1-0.6-0.2-1.2,0.2-1.7
		c0.1-0.1,0.2-0.2,0.4-0.3C14.8,4.9,15,5,15,5.4c0,0.3,0,0.6,0,0.9c-0.1,0.5-0.1,1-0.1,1.5c0,0.2,0,0.5,0.2,0.7
		c0.1,0.2,0.2,0.3,0.4,0.3c0,0,0.1,0,0.1,0c0,0,0-0.1,0-0.1c-0.3-0.8-0.4-1.6,0-2.4c0.2-0.6,0.7-0.9,1.2-1.1C17.4,4.9,18,5,18.6,5.3
		c0.6,0.3,0.8,0.9,0.9,1.5c0.1,0.5-0.1,1-0.3,1.5c0,0.1-0.1,0.2-0.1,0.3c0,0,0,0.1,0,0.1c0,0,0.1,0,0.1,0c0.3-0.1,0.5-0.4,0.5-0.7
		c0.2-0.6,0.1-1.2,0-1.8c0-0.3-0.1-0.7-0.1-1c0-0.2,0-0.2,0.2-0.2c0.5,0.1,0.8,0.5,0.9,1C21,6.6,21,7.3,21,7.9L21,7.9L21,7.9z
		 M67,7.9c0,0.4,0,0.8,0,1.2c0,0.1,0,0.2-0.1,0.2s-0.1-0.1-0.1-0.2c0-0.5,0-1,0-1.5c0-0.3,0-0.6-0.1-0.9C66.6,6.4,66.3,6.2,66,6
		c-0.6-0.2-1.2-0.2-1.8-0.1C64,6,63.8,6,63.5,6.1c-0.3,0.1-0.4,0.3-0.5,0.6c0,0.1,0,0.1,0.1,0.1c0.4,0,0.7,0.1,1.1,0.2
		c0.4,0.1,0.8,0.3,1.2,0.6C65.9,8,66,8.5,65.7,9c-0.1,0.2-0.3,0.3-0.5,0.3C64.8,9.4,64.4,9.2,64,9c-0.5-0.3-0.9-0.6-1.1-1.2
		c-0.1-0.1-0.2-0.2-0.4-0.1c-0.1,0,0,0.1,0,0.2c0,0.3,0,0.7-0.2,1c-0.1,0.1-0.1,0.3-0.3,0.4c-0.3,0.2-0.7,0-0.7-0.3
		c0-0.4,0-0.9,0.3-1.3c0.1-0.1,0.2-0.3,0.4-0.4c0.2-0.1,0.3-0.3,0.3-0.5c0-0.2,0-0.4-0.1-0.6C62.1,6,62,5.9,61.9,5.9
		c-0.2,0-0.3,0.1-0.4,0.2c-0.1,0.2-0.1,0.4-0.2,0.6c0,0.2-0.1,0.3-0.1,0.5c0,0.1,0,0.1-0.1,0.1c-0.1,0-0.1,0-0.1-0.1
		c0-0.5,0-1,0.1-1.5c0.1-0.3,0.2-0.5,0.5-0.6c0.4-0.1,0.6,0,0.7,0.4c0.1,0.4,0.2,0.9,0.2,1.3c0,0.1,0,0.1,0,0.2c0.1,0,0.1,0,0.2-0.1
		c0.1-0.1,0.1-0.2,0.1-0.3c0-0.5,0.2-1,0.7-1.2c0.2-0.1,0.5-0.2,0.8-0.3c0.5-0.1,1-0.1,1.5,0.1c0.5,0.2,0.8,0.6,1,1.1
		C67.1,6.8,67.1,7.4,67,7.9C67,7.9,67,7.9,67,7.9L67,7.9L67,7.9z M65,8.9c0.1,0,0.1,0,0.2,0c0.3,0,0.4-0.2,0.2-0.4
		c-0.1-0.1-0.1-0.2-0.2-0.3c-0.5-0.4-1.1-0.5-1.8-0.5c-0.1,0-0.1,0-0.1,0.1c0.1,0.2,0.2,0.4,0.3,0.6C64,8.8,64.5,8.9,65,8.9L65,8.9
		L65,8.9z M62.3,8.2c0-0.1,0-0.1,0-0.2c0,0,0-0.1,0-0.1c0,0-0.1,0-0.1,0c-0.2,0.2-0.3,0.4-0.4,0.6c0,0,0,0.1,0,0.1
		c0,0.1,0.1,0.2,0.2,0.3s0.2,0,0.2-0.1C62.3,8.6,62.3,8.4,62.3,8.2L62.3,8.2L62.3,8.2z M47.6,8.1c0,0.3,0,0.7,0,1
		c0,0.1,0,0.2-0.1,0.1c-0.1,0-0.1-0.1-0.1-0.2c0-0.4,0-0.8,0-1.3c0-0.4,0-0.8-0.1-1.2c-0.1-0.3-0.3-0.5-0.6-0.6
		c-0.7-0.2-1.4-0.2-2.2-0.1c-0.4,0.1-0.6,0.3-0.8,0.7c0,0.1,0,0.1,0.1,0.2c0.4,0,0.7,0.1,1.1,0.2c0.5,0.1,0.9,0.3,1.2,0.6
		C46.6,8,46.5,8.6,46.3,9c-0.1,0.2-0.3,0.3-0.5,0.3C45.4,9.4,45,9.2,44.6,9c-0.5-0.3-0.9-0.6-1.1-1.2c-0.1-0.2-0.2-0.1-0.3-0.1
		c-0.1,0-0.1,0.1-0.1,0.2c0,0.4,0,0.8-0.2,1.1c-0.1,0.2-0.3,0.3-0.5,0.3C42.1,9.2,42,9,42,8.8C42,8.4,42,8,42.2,7.7
		c0.1-0.2,0.2-0.3,0.4-0.4c0.2-0.1,0.3-0.3,0.2-0.5c0-0.3,0-0.5-0.2-0.7c-0.1-0.2-0.3-0.3-0.5-0.1C42,6.2,42,6.5,41.9,6.7
		c0,0.1,0,0.3-0.1,0.4c0,0,0,0.1-0.1,0.1c-0.1,0-0.1-0.1-0.1-0.1c0-0.1,0-0.1,0-0.2c0-0.4,0-0.8,0.1-1.2c0.1-0.4,0.4-0.7,0.7-0.7
		c0.2,0,0.4,0.1,0.5,0.4c0.1,0.4,0.2,0.9,0.2,1.3c0,0.1,0,0.2,0.1,0.2c0.1,0,0.3-0.1,0.3-0.2c0-0.2,0-0.4,0.1-0.5
		c0.1-0.5,0.5-0.8,0.9-1c0.6-0.2,1.2-0.2,1.9-0.1c0.6,0.1,1,0.5,1.2,1.1C47.7,6.8,47.7,7.5,47.6,8.1L47.6,8.1L47.6,8.1z M45.6,8.9
		c0.1,0,0.1,0,0.1,0c0.1,0,0.2,0,0.3-0.1c0.1-0.1,0-0.2,0-0.3c-0.1-0.1-0.2-0.2-0.3-0.3c-0.2-0.2-0.5-0.3-0.7-0.3
		c-0.3-0.1-0.6-0.1-1-0.1c-0.1,0-0.1,0-0.1,0.1C43.9,8,44,8.2,44.2,8.4C44.6,8.8,45.1,8.9,45.6,8.9L45.6,8.9L45.6,8.9z M42.9,8.2
		c0-0.1,0-0.2,0-0.3c0,0,0-0.1,0-0.1c0,0-0.1,0-0.1,0c-0.2,0.1-0.3,0.3-0.4,0.5c-0.1,0.2-0.1,0.3,0,0.4c0,0.1,0.1,0.1,0.2,0.1
		C42.8,8.7,42.9,8.5,42.9,8.2C42.9,8.2,42.9,8.2,42.9,8.2z M28.3,8c0,0.4,0,0.7,0,1.1c0,0.1,0,0.2-0.1,0.2c-0.1,0-0.2-0.1-0.2-0.2
		c0-0.1,0-0.1,0-0.2C28,8.4,28,7.9,28,7.4c0-0.3-0.1-0.6-0.2-0.9c-0.3-0.4-0.7-0.6-1.1-0.7c-0.6-0.1-1.2,0-1.8,0.2
		c-0.3,0.1-0.5,0.3-0.5,0.6c0,0.1,0,0.2,0.1,0.2C25,6.9,25.6,7,26,7.2c0.4,0.2,0.8,0.4,1,0.8c0.2,0.5,0.1,1-0.3,1.2
		c-0.3,0.2-0.6,0.2-0.9,0.1C25,9,24.5,8.5,24.2,7.8c-0.1-0.1-0.3-0.2-0.4-0.1c-0.1,0,0,0.1,0,0.1c0,0.3,0,0.6-0.1,0.8
		c0,0.1-0.1,0.3-0.2,0.4c-0.2,0.3-0.6,0.2-0.8-0.1c-0.1-0.2-0.1-0.4-0.1-0.6c0.1-0.5,0.3-0.9,0.7-1.2c0,0,0,0,0,0
		c0.2-0.1,0.3-0.2,0.2-0.4c0-0.2-0.1-0.4-0.2-0.6c-0.1-0.1-0.1-0.2-0.3-0.3c-0.2,0-0.3,0.1-0.3,0.2c-0.1,0.1-0.1,0.3-0.2,0.5
		c0,0.2,0,0.3-0.1,0.5c0,0.1-0.1,0.2-0.2,0.2c-0.1,0-0.1-0.1-0.1-0.2c0-0.4,0-0.8,0.1-1.1c0.1-0.2,0.1-0.5,0.3-0.7
		c0.2-0.3,0.5-0.3,0.8-0.2c0.2,0.1,0.2,0.3,0.3,0.5c0.1,0.3,0.1,0.6,0.1,0.9c0,0.1,0,0.2,0,0.3c0,0.1,0,0.2,0.1,0.1
		c0.1,0,0.2-0.1,0.2-0.2c0-0.2,0.1-0.5,0.2-0.7c0.2-0.5,0.6-0.8,1.1-0.9c0.5-0.1,1-0.1,1.5,0c0.6,0.1,1,0.5,1.2,1.1
		C28.3,6.7,28.3,7.4,28.3,8L28.3,8L28.3,8z M26.2,8.9c0.1,0,0.3,0,0.4-0.1c0.2-0.1,0.2-0.2,0.1-0.3c-0.1-0.1-0.2-0.2-0.3-0.3
		c-0.5-0.3-1.1-0.5-1.7-0.5c0,0,0,0-0.1,0c-0.1,0-0.1,0-0.1,0.1c0,0.1,0.1,0.2,0.1,0.3c0.1,0.2,0.3,0.3,0.5,0.4
		C25.4,8.8,25.7,8.9,26.2,8.9L26.2,8.9L26.2,8.9z M23.5,8.3L23.5,8.3c0-0.1,0-0.2,0-0.3c0-0.1,0-0.1-0.1-0.1C23,8,22.8,8.5,23,8.8
		c0,0.1,0.1,0.1,0.2,0.1c0.2-0.1,0.3-0.2,0.3-0.5C23.5,8.4,23.5,8.3,23.5,8.3L23.5,8.3L23.5,8.3z M73.1,6.8c0,0.4,0,0.8,0,1.2
		c0,0.2,0,0.3,0.1,0.4c0.1,0.2,0.2,0.3,0.4,0.3c0.1,0,0.2,0,0.1-0.1c-0.3-0.6-0.3-1.3-0.3-2c0-0.5,0.2-0.9,0.5-1.3
		c0.6-0.6,1.5-0.4,1.9,0.3C75.9,5.8,76,5.9,76,6c0,0,0,0.1,0.1,0.1c0.1,0,0.1-0.1,0.1-0.1c0.1-0.1,0.1-0.3,0.2-0.4
		c0.5-0.9,1.4-0.7,1.9-0.1c0.2,0.3,0.4,0.6,0.4,0.9c0.2,1.2,0.1,2.3-0.4,3.4c-0.4,0.8-1,1.3-1.8,1.5c-0.6,0.2-1.2,0.4-1.8,0.6
		c-0.4,0.1-0.8,0.2-1.2,0.4c-1.1,0.4-1.7,1.5-1.4,2.6c0.1,0.6,0.4,1,0.9,1.4c0.1,0.1,0.2,0.1,0.3,0.2c0.1,0,0.2,0,0.1-0.1
		c0-0.1,0-0.2,0-0.4c0-0.6,0.1-1.1,0.4-1.6c0.3-0.6,0.8-0.9,1.5-1c1-0.2,1.9,0,2.6,0.7c0.6,0.6,0.8,1.3,0.7,2.1
		c0,0.2-0.1,0.5-0.2,0.7c0,0.1-0.1,0.2-0.2,0.2c0,0-0.1,0.1-0.1,0c0,0,0-0.1,0-0.1c0.1-0.2,0.1-0.3,0.2-0.5c0.1-0.3,0.1-0.6,0.1-1
		c-0.1-0.5-0.4-0.8-0.8-1.1c-0.8-0.4-1.7-0.5-2.6-0.3c-1,0.3-1.5,1.2-1.3,2.2c0,0.1,0.1,0.3,0.1,0.4c0,0,0.1,0.1,0,0.2
		c0,0-0.1,0-0.2,0c-0.6-0.1-1-0.5-1.3-1c-0.5-0.8-0.6-1.6-0.5-2.5c0.1-1,0.7-1.6,1.6-2c0.6-0.3,1.2-0.4,1.8-0.6
		c0.7-0.2,1.4-0.4,2-0.7c0.7-0.4,1.1-1,1.3-1.7c0.1-0.4,0.1-0.8,0.1-1.2c0-0.3-0.1-0.7-0.3-1c-0.5-0.7-1.6-0.5-2,0.1
		c-0.1,0.2-0.1,0.2-0.3,0c-0.1-0.1-0.1-0.2-0.2-0.3C75.5,6.1,75.3,6,75.1,6c-0.6,0-1,0.3-1.2,0.8c-0.1,0.3-0.1,0.7-0.1,1.1
		c0.1,0.4,0.2,0.8,0.5,1.2c0,0,0.1,0.1,0.1,0.1c0,0.1-0.1,0-0.1,0c-0.3,0-0.7-0.1-0.9-0.3c-0.3-0.2-0.4-0.4-0.4-0.7
		c-0.1-0.4,0-0.8,0-1.2c0-0.2,0.1-0.5,0-0.7c0-0.2-0.1-0.3-0.2-0.4c-0.1-0.1-0.1,0-0.2,0c-0.1,0.1-0.2,0.2-0.2,0.4
		c0,0.2,0,0.3,0,0.5c0,0.1,0,0.1-0.1,0.1c-0.1,0-0.1-0.1-0.1-0.1c-0.1-0.5-0.1-1,0.1-1.5C72.4,5,72.8,5,73.1,5.3c0,0,0,0.1,0,0.2
		C73.2,5.9,73.1,6.3,73.1,6.8C73.1,6.8,73.1,6.8,73.1,6.8z"/>
</g>
</svg>
