<?xml version="1.0" encoding="utf-8"?>
<!-- Generator: Adobe Illustrator 27.5.0, SVG Export Plug-In . SVG Version: 6.00 Build 0)  -->
<svg version="1.1" id="Layer_1" xmlns:xodm="http://www.corel.com/coreldraw/odm/2003"
	 xmlns="http://www.w3.org/2000/svg" xmlns:xlink="http://www.w3.org/1999/xlink" x="0px" y="0px" viewBox="0 0 170.1 170.1"
	 style="enable-background:new 0 0 170.1 170.1;" xml:space="preserve">
<style type="text/css">
	.st0{fill:#A48B50;}
</style>
<g id="Layer_x0020_1">
	<path class="st0" d="M23.3,68.6c0.2,0.1,0.3,0.1,0.4,0.2c0.2,0.2,0.5,0.4,0.7,0.6c0.2,0.1,0.5,0.4,0.8,0.6c0.1,0.1,0.2,0.1,0.3,0.2
		c0.1,0,0.3,0.1,0.4,0.2c0.3,0.2,0.6,0.4,0.8,0.7c0.1,0.2,0.3,0.3,0.6,0.4c0,0,0,0,0.1,0.1c0.1,0.2,0.4,0.3,0.6,0.4
		c0.1,0.1,0.2,0.1,0.3,0.2c0.2,0,0.3,0.2,0.4,0.3c0,0,0,0.1,0.1,0.1c0.3,0.2,0.6,0.4,0.9,0.6c0.4,0.2,0.7,0.5,1,0.8l0.4,0.3
		c0.2,0.1,0.4,0.1,0.5,0.2c0.1,0.1,0.2,0.1,0.3,0.2c0.2,0.2,0.5,0.4,0.8,0.5l0.4-0.1l0.2-0.7c0.1-0.2,0.2-0.5,0.1-0.8
		c0-0.2,0-0.5-0.2-0.7l-0.3-0.3c-0.2-0.1-0.3-0.3-0.6-0.3c0,0-0.1,0-0.1-0.1c-0.2-0.2-0.5-0.4-0.8-0.6c-0.3-0.2-0.5-0.7-0.3-1.1
		c0.1-0.5,0.4-0.8,0.5-1.3c0.1-0.2,0.2-0.4,0.2-0.7c0,0,0-0.1,0-0.1c0.1-0.1,0.1-0.2,0.2-0.4c0-0.1,0-0.2,0-0.2l0.6-1.6
		c0.1-0.2,0.3-0.4,0.5-0.5c0.1,0,0.2,0,0.3,0c0.1,0,0.2,0,0.3,0s0.2,0,0.4,0c0.1,0,0.2,0,0.3,0c0.2,0.1,0.4,0,0.6,0
		c0.2,0,0.5,0,0.7,0l0.4,0c0.2-0.1,0.3-0.3,0.4-0.6c0-0.1,0-0.2,0.1-0.3c0.1-0.1,0.1-0.3,0.2-0.4c0-0.2,0-0.5-0.1-0.8l-0.5-0.2
		c-0.1,0-0.3-0.1-0.5,0c-0.4,0-0.8,0-1.3,0c-0.2,0-0.4,0-0.6,0c-0.1,0-0.1,0-0.2,0c-0.2-0.1-0.5-0.1-0.8-0.1c-0.2,0-0.5,0-0.8,0
		c-0.2,0-0.4,0-0.6,0c-0.2,0-0.3,0-0.5,0c-0.1,0-0.2,0.1-0.3,0c-0.4-0.1-0.8,0-1.2-0.1c-0.3,0-0.7-0.1-1-0.1c-0.3,0-0.5,0-0.8-0.1
		c-0.2,0-0.4,0-0.6-0.1c-0.4,0-0.5,0.1-0.8,0c-0.2,0-0.3,0-0.5,0.1c-0.1,0-0.2,0-0.3,0c-0.3,0-0.6-0.1-0.9,0c-0.1,0-0.1,0-0.2,0
		c-0.3,0-0.6-0.1-0.9,0c-0.2,0-0.4-0.1-0.6-0.1c-0.4,0-0.7,0-1.1-0.1l-0.4,0c-0.2,0-0.4,0-0.6,0c-0.2-0.1-0.5-0.1-0.8-0.1
		c-0.3,0-0.6,0-0.9-0.1c-0.1,0-0.3,0-0.4,0.1c-0.2,0.2-0.4,0.5-0.5,0.8c-0.2,0.3-0.3,0.7-0.3,1c0.1,0.3,0.3,0.6,0.6,0.9
		c0.2,0,0.4,0.1,0.5,0.3c0.1,0.1,0.2,0.2,0.3,0.2c0.2,0.1,0.4,0.2,0.6,0.5c0.2,0.1,0.3,0.3,0.5,0.4c0.2,0.3,0.5,0.5,0.9,0.7
		c0.1,0.1,0.3,0.2,0.4,0.3c0.2,0.1,0.4,0.3,0.7,0.4c0.3,0.1,0.5,0.3,0.6,0.5L23.3,68.6z M92.7,25.9c0.2-0.1,0.3-0.2,0.4-0.3
		c0.2-0.1,0.3-0.2,0.5-0.3c0.1-0.1,0.2-0.1,0.3-0.2c0.2-0.1,0.3-0.3,0.5-0.5c0.1-0.1,0.2-0.3,0.3-0.5c0.1-0.3,0.2-0.5,0.4-0.8
		c0.4-0.8,0.4-0.6,0.4-1.3c0-0.1,0-0.2,0-0.2c0.1-0.1,0.1-0.3,0.1-0.4c-0.1-0.1,0-0.3-0.1-0.5c0-0.1,0-0.3,0-0.5l0-0.5
		c0-0.2,0-0.3-0.1-0.5c-0.1-0.2-0.2-0.4-0.3-0.7c-0.1-0.2-0.1-0.4-0.2-0.6c0-0.3-0.2-0.5-0.4-0.6c-0.2-0.1-0.4-0.3-0.5-0.5
		c0-0.1-0.1-0.1-0.2-0.2c-0.3-0.3-0.7-0.5-1.1-0.7c0,0-0.1,0-0.2-0.1L92,15.6l-0.7-0.2c0,0-0.2,0-0.2,0c-0.1,0-0.1,0-0.2,0
		c-0.2,0-0.4,0-0.5,0c-0.1-0.1-0.3,0-0.5-0.1c0,0-0.2,0-0.2,0c-0.1,0-0.1,0-0.2,0c-0.2,0-0.4-0.1-0.7-0.1c-0.5,0-1-0.1-1.5,0
		c-0.1,0-0.3,0-0.5-0.1c-0.3-0.1-0.5,0-0.8,0l0,0l-0.4,0.2c0,0.1-0.2,0.3-0.2,0.4s-0.1,0.3-0.1,0.5c0,0.1,0,0.3,0,0.5
		c0,0.2,0,0.5,0,0.7c0,0.2,0,0.5,0,0.7s0,0.5-0.1,0.8c0,0.1,0,0.3,0,0.4c0,0.1-0.1,0.2-0.1,0.4c0,0.4,0,0.8,0,1.3c0,0.1,0,0.2,0,0.3
		c0,0.2,0.1,0.4,0,0.7c0,0.1-0.1,0.3-0.1,0.4c0,0.3-0.1,0.6,0,0.9c0,0.1,0,0.2,0,0.3c0,0.1,0,0.2-0.1,0.3c0,0,0,0.2-0.1,0.3
		c0,0,0,0.1,0,0.2c0.1,0.1,0,0.2,0,0.3c0,0.2-0.1,0.4-0.1,0.6c-0.1,0.7,0,1.4-0.1,2c0,0,0,0.1,0,0.1c-0.1,0.2,0,0.4,0,0.6
		s-0.1,0.4-0.1,0.6c0,0.2,0,0.5,0,0.7c0,0.2,0.1,0.5,0,0.7c0,0.1-0.1,0.3-0.1,0.4l0,0.5c0,0.1,0,0.2,0,0.3c-0.1,0.1-0.1,0.2,0,0.3
		c0,0.3,0,0.7,0,1v0.1c0,0.2,0.2,0.2,0.3,0.3c0.1,0.1,0.3,0.2,0.5,0c0,0,0.1,0,0.1,0c0.2,0,0.3,0,0.6,0c0.1,0,0.1,0,0.2,0
		c0.2-0.1,0.4-0.2,0.4-0.4c0.1-0.1,0.2-0.3,0.1-0.4c0-0.1,0-0.2-0.1-0.3c0-0.1,0-0.3,0-0.5c0-0.1,0-0.3,0-0.4c0,0,0-0.1,0-0.1
		c0.1-0.1,0-0.2,0.1-0.3l0.1-0.3c0,0,0-0.1,0-0.1c-0.1-0.1,0-0.2,0-0.3c0,0,0-0.1,0-0.1c0-0.4,0-0.4,0-0.8c0-0.1,0-0.2,0-0.3
		c0-0.1,0-0.2,0-0.4c0-0.1,0-0.2,0-0.3c0-0.4,0.1-0.7,0.1-1.1c0-0.2,0-0.4,0.3-0.5c0.2-0.1,0.4-0.2,0.7-0.2c0.2,0,0.5,0,0.7,0
		c0.1,0,0.1,0,0.2,0c0.3,0,0.5,0,0.7,0.2l0,0c0.3,0.2,0.3,0.3,0.5,0.6c0,0,0,0.1,0.1,0.2c0.1,0.2,0.2,0.4,0.3,0.6s0.1,0.4,0.2,0.6
		s0.1,0.4,0.2,0.6c0,0,0,0.1,0.1,0.2c0.1,0.4,0.1,0.8,0.3,1.1c0,0,0,0.1,0,0.1c0.1,0.4,0.2,0.8,0.4,1.2c0,0,0,0.1,0,0.2
		c0,0.2,0.1,0.4,0.2,0.5c0.1,0.1,0.2,0.3,0.2,0.5c0,0.3,0.2,0.5,0.4,0.6c0.4,0.1,0.8,0,1.1,0.1h0.1c0.2-0.1,0.4,0,0.6-0.2
		c0.1-0.1,0.1-0.3,0-0.5c0-0.1-0.1-0.2-0.1-0.3c0-0.1-0.1-0.4-0.1-0.4c-0.1-0.1-0.1-0.2-0.1-0.4c0-0.1,0-0.2-0.1-0.3
		c0-0.1-0.1-0.2-0.1-0.3c-0.1-0.4-0.3-0.8-0.4-1.1c0-0.3-0.2-0.5-0.2-0.8c0-0.2,0-0.3-0.2-0.5c-0.1-0.2-0.2-0.4-0.2-0.6
		c0-0.2-0.2-0.4-0.2-0.6c0-0.2-0.1-0.4-0.2-0.7C92.2,26.4,92.4,26.2,92.7,25.9L92.7,25.9z M62.6,141.5c0.2,0,0.4-0.1,0.5-0.1
		c0.2,0,0.4-0.1,0.6-0.1c0.1,0,0.3-0.1,0.4-0.1c0.2-0.1,0.4-0.1,0.6-0.3c0.2-0.1,0.3-0.2,0.4-0.3c0.2-0.2,0.4-0.4,0.6-0.6
		c0.6-0.6,0.6-0.5,0.8-1.1c0-0.1,0.1-0.1,0.1-0.2c0.1-0.1,0.2-0.2,0.2-0.4c-0.1-0.2,0.1-0.3,0-0.5c0-0.1,0.1-0.3,0.2-0.5l0.2-0.5
		c0.1-0.2,0-0.3,0.1-0.5c0-0.2,0-0.5,0-0.7c0-0.2,0-0.4,0-0.6c0-0.3,0-0.5-0.2-0.7c-0.1-0.2-0.3-0.4-0.3-0.6c0-0.1-0.1-0.2-0.1-0.3
		c-0.2-0.4-0.5-0.7-0.8-1.1c0,0-0.1-0.1-0.2-0.1l-0.5-0.3l-0.6-0.4c0,0-0.2,0-0.2-0.1c0-0.1-0.1,0-0.2,0c-0.1-0.1-0.4-0.1-0.5-0.2
		c-0.1-0.1-0.3-0.1-0.4-0.3c0-0.1-0.1-0.1-0.2-0.1s-0.1,0-0.2,0c-0.2,0-0.4-0.2-0.6-0.3c-0.5-0.2-0.9-0.4-1.4-0.5
		c-0.1,0-0.3-0.1-0.4-0.2c-0.2-0.2-0.5-0.1-0.8-0.2h0l-0.4,0c-0.1,0.1-0.2,0.2-0.3,0.3c0,0.1-0.2,0.2-0.2,0.4c0,0.1-0.1,0.3-0.1,0.5
		c0,0.2-0.1,0.4-0.2,0.7s-0.1,0.4-0.2,0.7c-0.1,0.2-0.1,0.4-0.3,0.7c-0.1,0.1-0.1,0.2-0.2,0.4c0,0.1-0.1,0.2-0.2,0.3
		c-0.1,0.4-0.3,0.8-0.4,1.2c0,0.1-0.1,0.2,0,0.3c0,0.2,0,0.5-0.2,0.6c-0.1,0.1-0.1,0.2-0.2,0.3c-0.1,0.3-0.2,0.5-0.3,0.9
		c0,0.1,0,0.2-0.1,0.3c0,0.1-0.1,0.2-0.2,0.3c-0.1,0,0,0.2-0.1,0.2c-0.1,0-0.1,0.1,0,0.2c0,0.1,0,0.2,0,0.3c0,0.2-0.2,0.3-0.3,0.5
		c-0.3,0.6-0.4,1.3-0.7,1.9c0,0,0,0.1,0,0.1c-0.1,0.2-0.2,0.4-0.2,0.6c-0.1,0.2-0.2,0.3-0.2,0.5c0,0.2-0.1,0.4-0.2,0.6
		c-0.1,0.2,0,0.5-0.2,0.7c-0.1,0.1-0.1,0.2-0.2,0.4l-0.2,0.4c0,0.1-0.1,0.2,0,0.3c-0.1,0.1-0.2,0.2-0.1,0.3c0,0.4-0.2,0.6-0.3,0.9
		l0,0.1c-0.1,0.2,0.1,0.3,0.2,0.4c0.1,0.1,0.2,0.3,0.4,0.2c0,0,0.1,0,0.1,0c0.2,0.1,0.3,0.1,0.5,0.2c0.1,0,0.1,0,0.2,0
		c0.2,0,0.4-0.1,0.5-0.2c0.1-0.1,0.3-0.2,0.2-0.4c0-0.1,0.1-0.2,0-0.3c0.1-0.1,0.1-0.3,0.2-0.4c0.1-0.1,0.1-0.2,0.1-0.4
		c0,0,0-0.1,0-0.1c0.1,0,0.1-0.2,0.1-0.2l0.2-0.3c0,0,0-0.1,0-0.1c0-0.1,0-0.2,0.1-0.3c0,0,0-0.1,0-0.1c0-0.4,0-0.4,0.3-0.7
		c0-0.1,0-0.2,0.1-0.3c0.1-0.1,0.1-0.2,0.1-0.3c0-0.1,0-0.2,0-0.3c0.1-0.3,0.3-0.6,0.5-1c0.1-0.2,0.2-0.4,0.4-0.4c0.2,0,0.5,0,0.7,0
		c0.2,0.1,0.4,0.2,0.6,0.2c0.1,0,0.1,0,0.2,0c0.4,0,0.4,0.1,0.6,0.4l0,0c0.2,0.3,0.2,0.4,0.3,0.7c0,0,0,0.1,0,0.2
		c0,0.2,0.1,0.4,0.1,0.7s0,0.4,0,0.7c0,0.2,0,0.4,0,0.6c0,0,0,0.1,0,0.2c0,0.4-0.1,0.8,0,1.2c0,0,0,0.1,0,0.1c0,0.4,0,0.8,0,1.3
		c0,0.1,0,0.1,0,0.2c0,0.2,0,0.4,0,0.6c0,0.2,0.1,0.4,0.1,0.6c0,0.3,0,0.5,0.2,0.7c0.3,0.2,0.7,0.2,1,0.5l0.1,0c0.2,0,0.4,0.1,0.7,0
		c0.1-0.1,0.2-0.2,0.2-0.4c0-0.1,0-0.2,0-0.3s0-0.4,0-0.5c0-0.1,0-0.3,0-0.4c0-0.1,0-0.2,0-0.3s-0.1-0.2,0-0.4c0-0.4,0-0.8,0-1.2
		c0-0.3,0-0.6,0-0.9c0-0.2,0-0.3,0-0.5c-0.1-0.2,0-0.4,0-0.6c0-0.2,0-0.4,0-0.7s0-0.4,0-0.8C62.1,141.7,62.4,141.6,62.6,141.5
		L62.6,141.5z M130.5,117.4C130.5,117.4,130.6,117.4,130.5,117.4c0.3,0.1,0.5,0.3,0.8,0.5c0.2,0.1,0.3,0.2,0.5,0.4
		c0.2,0.2,0.3,0.4,0.3,0.6c0,0.1,0,0.2,0,0.3c0,0-0.1,0.1-0.1,0.2c0,0.2-0.2,0.3-0.3,0.5c-0.2,0.2-0.2,0.2-0.3,0.4
		c0,0.1-0.1,0.3-0.2,0.4c-0.2,0.1-0.3,0.3-0.4,0.4c-0.4,0.5-0.9,0.9-1.2,1.4c-0.1,0.1-0.4,0.2-0.5,0.3c-0.2,0-0.4,0-0.7-0.1
		c-0.2-0.1-0.2-0.3-0.5-0.4c-0.3-0.2-0.5-0.4-0.9-0.6c-0.1-0.1-0.3-0.2-0.4-0.4c0,0-0.1-0.1-0.1-0.1c-0.3-0.2-0.5-0.5-0.9-0.6
		c-0.1,0-0.2-0.2-0.3-0.3c-0.3-0.2-0.6-0.4-0.9-0.7c0,0,0,0-0.1,0c0,0,0,0,0-0.1c-0.1-0.2-0.2-0.3-0.4-0.4c-0.1-0.1-0.2-0.1-0.3-0.2
		c-0.2-0.2-0.4-0.2-0.5-0.2c-0.3,0-0.6,0.2-0.8,0.4c-0.1,0.1-0.2,0.3-0.3,0.4c-0.1,0.1-0.1,0.2-0.1,0.4c0,0.2,0.1,0.4,0.2,0.7
		c0.1,0.1,0.1,0.2,0.2,0.2c0.1,0,0.2,0.2,0.3,0.2c0.2,0,0.3,0.1,0.4,0.2c0,0,0.1,0.1,0.1,0.1c0.2,0.1,0.5,0.3,0.7,0.4
		c0.1,0.1,0.3,0.2,0.4,0.4c0,0.1,0.2,0.1,0.3,0.2c0.1,0.1,0.1,0.2,0.2,0.3c0,0,0,0,0.1,0c0.1,0,0.1,0,0.3,0.1
		c0.1,0.1,0.3,0.2,0.4,0.3c0.1,0.1,0.2,0.1,0.3,0.3c0,0.1,0.1,0.2,0.3,0.2c0.2,0,0.3,0.3,0.5,0.3c0,0,0,0.1,0,0.1c0,0,0.1,0,0.1,0
		c0.1,0.1,0.3,0.2,0.4,0.4c0.1,0.1,0.2,0.2,0.3,0.3c0.1,0.1,0.2,0.2,0.4,0.4c0.1,0.1,0.4,0.2,0.5,0.3c0.4,0.4,0.9,0.7,1.3,1.1
		c0.1,0.1,0.1,0.1,0.2,0.2c0.1,0.1,0.2,0.2,0.4,0.3c0.4,0.1,0.7,0.4,1,0.7c0.2,0.2,0.3,0.4,0.6,0.4c0,0,0.1,0,0.1,0.1
		c0,0.2,0.1,0.2,0.2,0.3l0.2,0.3c0.1,0.1,0.2,0.2,0.4,0.3c0.2,0.1,0.3,0.1,0.4,0.3c0,0,0,0,0,0c0.2,0,0.3,0.1,0.4,0.3
		c0,0.1,0.1,0.2,0.2,0.2c0.2,0.3,0.6,0.4,0.9,0.6c0.1,0,0.1,0,0.2,0.1c0.2,0.1,0.8-0.1,0.9-0.4c0,0,0-0.1,0.1-0.1
		c0.1-0.1,0.2-0.2,0.3-0.4c0.1-0.1,0.1-0.3,0.2-0.4c0-0.1,0-0.2-0.1-0.3c-0.2-0.1-0.4-0.4-0.7-0.5c-0.1,0-0.2-0.1-0.3-0.3
		c0-0.1-0.2-0.1-0.2-0.2c0-0.1-0.1-0.2-0.2-0.3c-0.1-0.1-0.3-0.2-0.5-0.3c-0.4-0.2-0.7-0.6-1.1-0.8c-0.4-0.2-0.7-0.4-1-0.8
		c-0.3-0.2-0.5-0.5-0.7-0.7c-0.3-0.2-0.5-0.5-0.5-0.9c0,0,0-0.1,0-0.2c0-0.2,0.1-0.4,0.3-0.6c0.2-0.2,0.4-0.3,0.5-0.5
		c0.2-0.3,0.5-0.6,0.7-0.9c0.1-0.2,0.3-0.4,0.5-0.7c0,0,0.1,0,0.1,0c0.1,0,0.1-0.2,0.1-0.3c0.2-0.3,0.4-0.4,0.7-0.5
		c0.3-0.1,0.4-0.1,0.6,0c0.1,0,0.1,0.1,0.2,0.1c0.2,0.1,0.4,0.2,0.6,0.4c0.1,0.1,0.3,0.2,0.4,0.4c0.1,0.1,0.2,0.2,0.4,0.4
		c0.3,0.3,0.7,0.4,0.9,0.7c0.1,0.1,0.1,0.1,0.3,0.2c0.1,0,0.1,0.1,0.2,0.2c0,0,0.1,0.1,0.2,0.2c0,0.1,0.1,0.1,0.2,0.1
		c0.1,0,0.1,0.1,0.1,0.1c0.1,0.2,0.3,0.3,0.4,0.4l0.3,0.1c0.3,0.2,0.6,0.6,1.1,0.8c0.4,0,0.7-0.1,0.9-0.5c0-0.1,0.1-0.1,0.2-0.3
		c0.1-0.2,0.3-0.4,0.2-0.7l0-0.2c0,0-0.1-0.1-0.1-0.2c-0.4-0.4-0.9-0.7-1.3-1.2c-0.3-0.3-0.7-0.6-1.1-0.8c-0.2-0.2-0.3-0.4-0.6-0.4
		c0,0-0.1,0-0.1-0.1c0-0.1-0.1-0.1-0.2-0.2c0-0.1-0.1-0.1-0.2-0.2c-0.2-0.2-0.6-0.3-0.8-0.6c-0.1-0.1-0.3-0.2-0.4-0.4
		c-0.1-0.1-0.2-0.2-0.3-0.3c-0.1-0.1-0.2-0.3-0.4-0.2c-0.1,0-0.1,0-0.1-0.1c0-0.1-0.2-0.3-0.3-0.3c-0.1,0-0.2-0.1-0.3-0.2
		c-0.1-0.1-0.3-0.2-0.4-0.3c-0.2-0.2-0.5-0.3-0.7-0.7c0,0,0-0.1-0.1-0.1c-0.2,0-0.3-0.1-0.4-0.3c-0.1,0-0.1-0.2-0.3-0.1
		c-0.1-0.2-0.3-0.2-0.4-0.4c-0.1-0.2-0.3-0.4-0.6-0.4c0-0.1-0.1-0.1-0.2-0.2c-1.2-1-2.3-1.8-3.4-2.8c0,0-0.1-0.1-0.1-0.1
		c0,0-0.2-0.1-0.3,0c-0.2,0-0.4,0.2-0.6,0.3c-0.2,0.2-0.4,0.5-0.5,0.8c-0.1,0.2-0.2,0.4,0,0.6l0.1,0c0.2,0.2,0.4,0.3,0.6,0.6
		c0,0.1,0.2,0.2,0.3,0.3c0.2,0.1,0.4,0.3,0.7,0.4l0,0c0.2,0,0.3,0.1,0.4,0.2c0.1,0.2,0.3,0.2,0.3,0.4c0,0,0.1,0,0.1,0.1
		c0.2,0.1,0.3,0.1,0.5,0.3c0,0,0.1,0.1,0.1,0.2c0.2,0.1,0.2,0.4,0.5,0.5C130.4,117.3,130.5,117.3,130.5,117.4L130.5,117.4z M26,103
		L26,103l-0.2,0.1c0,0,0,0-0.1,0l-0.6,0.1l0,0.1l-0.2,0c0,0-0.1,0-0.1,0l-0.2,0c-0.1,0-0.2-0.1-0.3-0.1c0-0.1,0-0.2,0-0.3
		c0-0.1,0-0.1,0-0.2c0-0.1,0-0.1,0-0.3l0.2-0.3c0-0.1,0.2-0.2,0.2-0.3c0-0.1,0.1-0.2,0.2-0.4c0-0.1,0.1-0.2,0.2-0.3h0
		c0-0.1,0-0.3,0.1-0.5c0.1-0.1,0.1-0.3,0.3-0.3c0,0,0,0,0-0.1c0.1-0.1,0-0.2,0.1-0.3c0.1-0.1,0-0.2,0.1-0.3c0-0.1,0-0.2,0.1-0.3
		c0,0,0-0.1,0-0.2c0-0.1,0.1-0.1,0.1-0.2c0-0.1,0-0.1,0-0.2c0-0.1,0.1-0.1,0.1-0.2c0-0.1,0.1-0.2,0.1-0.3c0.1-0.1,0-0.2,0.1-0.3
		c0.1,0,0-0.2,0-0.3c0,0,0-0.1,0-0.2s0-0.1,0-0.2l-0.1-0.3c0-0.1,0-0.2,0.1-0.3l-0.1-0.5c0,0,0-0.1,0-0.1l-0.2-0.9l-0.1,0L26,94.4
		c-0.1-0.1-0.2-0.2-0.3-0.4c0,0,0,0-0.1,0l0-0.1c-0.1,0-0.2,0-0.2-0.1c0-0.1-0.2-0.1-0.2-0.2c0-0.1-0.2-0.1-0.2-0.2
		c-0.1-0.1-0.2-0.1-0.3-0.3c-0.1,0-0.2-0.1-0.3-0.1c-0.1,0-0.3,0-0.4-0.1s-0.2-0.1-0.3-0.1c-0.1,0-0.2-0.1-0.4,0c0,0,0,0-0.1,0
		l-0.7,0.1l-0.1,0l-0.3,0c0,0,0,0,0,0l0,0.1l-0.5,0.1c0,0,0,0.1-0.1,0.1c-0.1,0.1-0.2,0.2-0.3,0.3c-0.1,0.1-0.2,0.2-0.3,0.3
		c-0.1,0.2-0.3,0.2-0.3,0.4c0,0.2-0.1,0.3-0.2,0.4c0,0.1-0.1,0.2-0.2,0.3c0,0.2-0.1,0.4,0,0.6c0,0,0,0.1-0.1,0.2v0.1l0,0.1l0,0.2
		l0,0.2l0.1,0l-0.2,0.1l0.1,0.5l0.1,0.2l0.4,0.1l0.7-0.1c0,0,0,0,0-0.1c0.1,0,0.2-0.1,0.2-0.2s0-0.2,0.1-0.3l0-0.1l0.1-0.2
		c0-0.1,0-0.3,0-0.4c0-0.1,0.1-0.2,0.1-0.3c0-0.3,0.1-0.3,0.4-0.5c0.1,0,0.1-0.1,0.2-0.1c0,0,0.1-0.1,0.1-0.2l0.6-0.1c0,0,0,0,0,0
		c0,0,0,0,0.1,0c0.1,0,0.2,0,0.2,0l0.1,0l0.1,0c0,0,0,0,0,0c0,0,0.1,0,0.1,0c0.1,0,0.2,0.1,0.3,0.1c0,0,0,0,0,0h0l0.1,0.2
		c0.1,0.2,0.3,0.3,0.5,0.6l0,0.2c0,0,0.1,0,0.1,0.1l0,0.2l0.1,0.7l0,0.1c0,0,0,0.1,0,0.2l0,0.1l0,0.2c0,0.1,0,0.3-0.1,0.4
		c0,0.1-0.1,0.2,0,0.4l-0.2,0.4v0.1c0,0.1-0.1,0.2-0.1,0.3c0,0.1-0.1,0.2-0.1,0.3l0,0.1l0,0.1v0.1c-0.1,0.2-0.2,0.3-0.2,0.5
		c0,0.1-0.2,0.2-0.1,0.4l-0.2,0.4v0.1c-0.1,0.2-0.3,0.5-0.4,0.7v0.1l-0.2,0.4l0,0.3l-0.1,0.2c-0.1,0-0.1,0.2-0.2,0.3
		c0,0.2-0.1,0.3-0.2,0.4c0,0,0,0,0,0.1l-0.5,0.8l0,0.3c0,0,0,0,0,0l0.2,1c0,0.1,0.1,0.1,0.1,0.1l0.3,0.2l2.2-0.5
		c0,0,0.1-0.1,0.1-0.1c0.1,0,0.1,0,0.1,0l0.7-0.1l0-0.1l0.4-0.1l0.1,0l0.8-0.2c0,0,0,0,0,0l0,0l0.4-0.1c0,0,0,0,0.1,0l0.5-0.1
		c0-0.1,0.1-0.1,0.2-0.2c0-0.1,0-0.2,0.1-0.3L28,103c-0.1-0.1-0.1-0.2-0.3-0.3c-0.1-0.1-0.2-0.1-0.4-0.1c0,0,0,0.1-0.1,0.1
		c-0.1,0-0.1,0-0.3,0l0,0L26,103L26,103z M36.7,108.1c-0.1,0-0.2,0-0.3,0c-0.1,0-0.2,0-0.3-0.1c-0.1,0-0.2-0.1-0.3-0.1l-0.3,0.1
		c-0.1-0.1-0.2,0-0.3,0c0,0,0,0-0.1,0l-0.9,0.2l0,0.1l-0.6,0.1l0,0.1l-0.1,0c0,0.2-0.2,0.2-0.3,0.4c0,0.1-0.1,0.1-0.2,0.2
		c0,0,0,0-0.1,0c-0.1,0.1-0.1,0.2-0.3,0.3c-0.1,0.1-0.1,0.3-0.3,0.4c0,0,0,0.1,0,0.2c0,0.1-0.1,0.2-0.1,0.4c0,0-0.1,0.1-0.1,0.2
		l-0.1,0.3l0.1,0.4l-0.1,0.3l0.1,0.5c0,0,0,0,0,0.1l0.1,0.7l0.1,0l1.4,5.8c0,0,0,0,0.1,0c0.1,0.2,0.2,0.3,0.3,0.4
		c0.1,0.1,0.2,0.3,0.4,0.4c0,0.1,0.2,0.1,0.2,0.2c0,0.1,0.1,0.1,0.2,0.1c0.1,0,0.4,0,0.5,0.3c0,0,0,0,0.1,0c0.1,0,0.2,0.1,0.3,0.1
		l0.2,0c0.1,0,0.2,0,0.4,0.1l0.2,0c0,0,0.1,0,0.1,0l0.7-0.2l0.1,0l0.8-0.2c0,0,0,0,0-0.1c0.1,0,0.2,0,0.2-0.1c0.1,0,0.1-0.1,0.2-0.2
		c0.1,0,0.2-0.1,0.3-0.1l0.3-0.3c0.1,0,0.1-0.2,0.2-0.2c0,0,0.1-0.1,0.1-0.2h0.1l0.2-0.3c0-0.1,0.1-0.1,0.1-0.2
		c0-0.1,0.1-0.2,0.2-0.3c0,0,0,0,0,0c0-0.1,0-0.3,0.1-0.5c0-0.1,0-0.2,0-0.3c0,0,0,0,0-0.1c0,0,0-0.1,0-0.2l-0.2-0.9l0-0.1l-0.1-0.4
		c0,0,0,0-0.1,0l0-0.2c0,0,0,0,0-0.1l-0.1-0.7c0,0,0-0.1-0.1-0.1c0,0,0-0.1,0-0.1l-0.1-0.4l-0.1,0l0-0.1l-0.1-0.3c0,0-0.1,0-0.1-0.1
		c0,0,0,0,0-0.1l-0.2-0.9c0-0.1,0-0.1,0-0.1l-0.1-0.1l-0.4-1.6c0,0,0,0-0.1,0l0-0.2l0-0.1l-0.1,0l-0.1-0.3c-0.2-0.1-0.5-0.5-0.7-0.9
		l-0.3-0.1c0,0,0,0,0-0.1l-0.9-0.5L36.7,108.1z M149.4,69.2c-0.2,0-0.2-0.1-0.3-0.2l-0.2-0.9l-0.1,0c0,0,0,0,0-0.1l-0.1-0.7
		c0,0,0,0-0.1,0l0-0.1l0-0.1l-0.2-0.8c0,0,0,0-0.1,0l0-0.2l0-0.1l-0.3-1.4c0,0,0,0,0,0c0,0,0,0-0.1,0l-0.1-0.7l0-0.1
		c0-0.1-0.1-0.2-0.3-0.3l-0.1,0l-0.1,0l-0.7,0.2l0,0.1l-0.3,0.1l-0.4,0.7c0,0,0,0,0,0.1c0,0.1-0.1,0.1-0.1,0.2c0,0.1,0,0.2-0.1,0.2
		c0,0.1,0,0.1-0.1,0.2c0,0.1-0.1,0.1-0.1,0.2c0,0,0,0,0,0.1c0,0.1-0.1,0.2-0.1,0.3c0,0,0,0.1-0.1,0.2c-0.1,0.1-0.1,0.1-0.1,0.2
		l0,0.3l-0.2,0.3c0,0.1,0,0.2,0,0.3c-0.1,0.1-0.1,0.2-0.2,0.4l0,0.1l-0.1,0.2l-0.1,0.2c0,0.1,0,0.1-0.1,0.2l-0.2,0.3
		c0,0.1-0.1,0.2-0.1,0.3c-0.1,0.2-0.1,0.3-0.2,0.5c-0.1,0.1-0.1,0.2-0.2,0.3c0,0.1,0,0.2-0.1,0.3c-0.1,0,0,0.2-0.1,0.2
		c0,0.1,0,0.1-0.1,0.3c0,0,0,0.1,0,0.2l0.3,1.3c0.1,0,0.1,0.1,0.2,0.2l0.9-0.2c0,0,0,0,0.1,0l1.5-0.4c0,0,0,0,0-0.1l0.4-0.1
		c0,0,0.1,0,0.1,0l0.3-0.1l0-0.1c0.1,0,0.2-0.1,0.3,0l0.1,0l0.3-0.1c0.1,0,0.1,0.2,0.2,0.2c0.1,0,0.1,0.2,0.3,0.2l0.3,1.5
		c-0.1,0.1,0,0.2,0,0.3l0.1,0.1l0.3,1.5l0.2,0.2l0.2,0l0.1,0l0.4-0.1c0.3-0.1,0.4-0.3,0.4-0.6l-0.3-1.4c0,0,0,0,0,0c0,0,0,0-0.1,0
		l-0.1-0.4l0-0.1l0-0.2l-0.1,0l0-0.1c0,0,0-0.1,0-0.1l-0.1-0.6c0.1-0.1,0-0.3,0.1-0.4c0-0.1,0.2-0.2,0.3-0.3c0-0.1,0-0.1,0-0.3
		l-0.1-0.5l0-0.1l0-0.2c0-0.1-0.1-0.1-0.1-0.2c-0.1-0.1-0.3-0.2-0.4-0.2L149.4,69.2z M144.6,93.2L144.6,93.2l-0.2,0.1c0,0,0,0-0.1,0
		l-0.6,0.1l0,0.1l-0.2,0c0,0-0.1,0-0.1,0l-0.2,0c-0.1,0-0.2-0.1-0.3-0.1c0-0.1,0-0.2,0-0.3c0-0.1,0-0.1,0-0.2c0-0.1,0-0.1,0-0.3
		l0.2-0.3c0-0.1,0.2-0.2,0.2-0.3c0-0.1,0.1-0.2,0.2-0.4c0-0.1,0.1-0.2,0.2-0.3h0c0-0.1,0-0.3,0.1-0.5c0.1-0.1,0.1-0.3,0.3-0.3
		c0,0,0,0,0-0.1c0.1-0.1,0-0.2,0.1-0.3c0.1-0.1,0-0.2,0.1-0.3c0-0.1,0-0.2,0.1-0.3c0,0,0-0.1,0-0.2c0-0.1,0.1-0.1,0.1-0.2
		c0-0.1,0-0.1,0.1-0.2c0-0.1,0.1-0.1,0.1-0.2c0-0.1,0.1-0.2,0.1-0.3c0.1-0.1,0-0.2,0.1-0.3c0.1,0,0-0.2,0-0.3c0,0,0-0.1,0-0.2
		s0-0.1,0-0.2l-0.1-0.3c0-0.1,0-0.2,0.1-0.3l-0.1-0.5c0,0,0-0.1,0-0.1l-0.2-0.9l-0.1,0l-0.1-0.4c-0.1-0.1-0.2-0.2-0.3-0.4
		c0,0,0,0-0.1,0l0-0.1c-0.1,0-0.2,0-0.2-0.1c0-0.1-0.2-0.1-0.2-0.2c0-0.1-0.2-0.1-0.2-0.2c-0.1-0.1-0.2-0.1-0.3-0.3
		c-0.1,0-0.2-0.1-0.3-0.1c-0.1,0-0.3,0-0.4-0.1c-0.1,0-0.2-0.1-0.3-0.1c-0.1,0-0.2-0.1-0.4,0c0,0,0,0-0.1,0l-0.7,0.1l-0.1,0l-0.3,0
		c0,0,0,0,0,0l0,0.1l-0.5,0.1c0,0,0,0.1-0.1,0.1c0,0.1-0.2,0.2-0.3,0.3c-0.1,0.1-0.2,0.2-0.3,0.3c-0.1,0.2-0.3,0.2-0.3,0.4
		c0,0.2-0.1,0.3-0.2,0.4c0,0.1-0.1,0.2-0.2,0.3c0,0.2-0.1,0.4,0,0.6c0,0,0,0.1-0.1,0.2v0.1l0,0.1l0,0.2l0,0.2l0.1,0l-0.2,0.1
		l0.1,0.5l0.1,0.2l0.4,0.1l0.7-0.1c0,0,0,0,0-0.1c0.1,0,0.2-0.1,0.2-0.2c0-0.1,0-0.2,0.1-0.3l0-0.1l0.1-0.2c0-0.1,0-0.3,0-0.4
		c0-0.1,0.1-0.2,0.1-0.3c0-0.3,0.1-0.3,0.4-0.5c0.1,0,0.1-0.1,0.2-0.1c0,0,0.1-0.1,0.1-0.2l0.6-0.1c0,0,0,0,0,0c0,0,0,0,0.1,0
		c0.1,0,0.2,0,0.2,0l0.1,0l0.1,0c0,0,0,0,0,0c0,0,0.1,0,0.1,0c0.1,0,0.2,0.1,0.3,0.1c0,0,0,0,0,0h0l0.1,0.2c0.1,0.2,0.3,0.3,0.5,0.6
		l0,0.2c0,0,0.1,0,0.1,0.1l0,0.2l0.1,0.7l0,0.1c0,0,0,0.1,0,0.2l0,0.1l0,0.2c0,0.1,0,0.3-0.1,0.4c0,0.1-0.1,0.2,0,0.4l-0.2,0.4v0.1
		c0,0.1-0.1,0.2-0.1,0.3c0,0.1-0.1,0.2-0.1,0.3l0,0.1l0,0.1v0.1c-0.1,0.2-0.2,0.3-0.3,0.5c0,0.1-0.2,0.2-0.1,0.4l-0.2,0.4v0.1
		c-0.1,0.2-0.3,0.5-0.4,0.7v0.1l-0.2,0.4l0,0.3l-0.1,0.2c-0.1,0-0.1,0.2-0.2,0.3c0,0.2-0.1,0.3-0.2,0.4c0,0,0,0,0,0.1l-0.5,0.8
		l0,0.3c0,0,0,0,0,0l0.2,1c0,0.1,0.1,0.1,0.1,0.1l0.3,0.2l2.2-0.5c0,0,0.1-0.1,0.1-0.1c0.1,0,0.1,0,0.1,0l0.7-0.1l0-0.1l0.4-0.1
		l0.1,0l0.8-0.2c0,0,0,0,0,0l0,0l0.4-0.1c0,0,0,0,0.1,0l0.5-0.1c0-0.1,0.1-0.1,0.2-0.2c0-0.1,0-0.2,0.1-0.3l-0.1-0.6
		c-0.1-0.1-0.1-0.2-0.3-0.3c-0.1-0.1-0.2-0.1-0.4-0.1c0,0,0,0.1-0.1,0.1c-0.1,0-0.1,0-0.3,0l0,0L144.6,93.2L144.6,93.2z M82.8,65.9
		c0.2,0,0.4,0,0.6-0.3c0.1-0.2,0-0.4-0.1-0.6c-0.1-0.1-0.3-0.3-0.5-0.4c-0.1-0.1-0.4,0-0.5,0.1c0,0.1-0.1,0.3-0.1,0.5
		C82.1,65.7,82.3,65.9,82.8,65.9C82.8,65.9,82.8,65.9,82.8,65.9z M66.9,8.8c21-5,42.1-1,59.2,9.5c17,10.5,30.2,27.5,35.2,48.6
		s1,42.1-9.5,59.2c-10.5,17-27.5,30.2-48.6,35.2c-21,5-42.1,1-59.2-9.5c-17-10.5-30.2-27.5-35.2-48.6s-1-42.1,9.5-59.2
		C28.8,27,45.9,13.9,66.9,8.8z M124.8,20.4c-16.6-10.2-37-14.1-57.4-9.2C47,16,30.5,28.7,20.3,45.3s-14.1,37-9.2,57.4
		c4.9,20.4,17.5,36.9,34.1,47.1s37,14.1,57.4,9.2c20.4-4.9,36.9-17.5,47.1-34.1s14.1-37,9.2-57.4C154,47.1,141.4,30.6,124.8,20.4z
		 M93.8,100.1c-0.4,0-0.7,0.3-1,0.5c-0.9,0.7-1.8,1.4-2.8,2c-1.5,1.1-2.9,2.2-4.3,3.4c-0.5,0.4-0.9,0.8-1.6,1.1
		c-0.9,0.4-1,1.1-0.3,1.8c0.1,0.1,0.3,0.3,0.5,0.4c0.4,0.2,0.8,0.5,1.2,0.9c0.7,0.7,1.4,1.3,2,2.1c0.3,0.5,0.8,0.9,1.2,1.4
		c0.1,0.1,0.1,0.1,0.2,0.2c0.1,0.1,0.4,0,0.5-0.1c0-0.1,0.1-0.2,0.1-0.3c0.3-1.3,0.6-2.6,1.2-3.8c0-0.1,0.1-0.3,0.1-0.4
		c0.2-1,0.6-1.9,1-2.8c0.2-0.5,0.4-1.1,0.6-1.7c0.5-1.4,0.8-2.8,1.5-4.1c0-0.1,0-0.2,0-0.3C94,100.1,93.9,100.1,93.8,100.1
		L93.8,100.1L93.8,100.1z M104.2,67.6c-0.1-0.6,0-1.3-0.2-2c-0.2-0.7-0.5-1.3-0.7-2c-0.2-0.7-0.7-1.3-1-2c-0.2-0.5-0.5-0.9-0.9-1.3
		c-1.3-1-2.5-1.9-4.1-2.1c-0.2,0-0.3-0.1-0.5-0.2c-0.6-0.2-1.1-0.4-1.7-0.4c-0.6,0-1.2,0-1.8-0.1c-0.5-0.1-1.1,0-1.6,0.1
		c-0.8,0.3-1.6,0.5-2.3,0.8c-0.4,0.1-0.7,0.3-1.1,0.5c-0.6,0.4-1.2,0.8-1.7,1.2c-1.2,0.7-2.1,1.7-3.1,2.7c-0.4,0.4-0.3,0.7,0,1.1
		c0.1,0.1,0.1,0.1,0.2,0.2c0.4,0.3,0.5,0.7,0.6,1.2c0.1,0.4,0,0.8-0.5,1c-0.4,0.1-0.7,0.3-1.2,0.4c-0.8,0.1-1.3-0.2-1.4-1.1
		c0-0.2,0-0.4,0-0.7c0-0.3,0.2-0.6,0.3-0.9c0.1-0.5,0.1-0.6-0.3-0.9c-0.3-0.1-0.7-0.3-1-0.6c-0.1-0.1-0.4-0.2-0.6-0.2
		c-0.6-0.1-1.3-0.3-1.8-0.4c-0.6-0.1-1.2-0.2-1.8-0.1c-0.8,0.2-1.7,0.3-2.5,0.5c-0.3,0-0.6,0.1-0.9,0.2c-2.1,0.7-3.6,2.2-5.2,3.8
		c0,0,0,0,0,0.1c-0.9,1.1-1.3,2.3-1.7,3.6c0,0,0,0.1,0,0.1c0,0.2,0.1,0.5,0.3,0.5c0.2,0,0.4,0,0.5,0c1.2-0.1,2.3-0.1,3.4-0.3
		c1.6-0.3,3.3-0.3,4.9-0.8c0.1,0,0.2,0,0.3,0c1-0.2,2.1-0.3,3.1-0.5c0.5-0.1,1-0.1,1.6-0.1c0.3,0,0.7,0,1,0c0.8,0,1.7-0.1,2.4,0.1
		c0.1,0,0.2,0,0.3,0c0.6-0.1,1.3,0,1.9,0c0.7,0,1.4,0.1,2.1,0.3c0.2,0,0.4,0.1,0.7,0.1c0.4,0,0.7,0.1,1.1,0.3
		c1.1,0.3,2.1,0.8,3.2,1.1c0.5,0.1,1,0.3,1.4,0.7c0.6,0.4,1.2,0.8,1.8,1.1c1.1,0.5,2.3,1,3.4,1.5c0.4,0.2,0.9,0.3,1.4,0.5
		c0.8,0.2,1.5,0.4,2.2,0.7c0.4,0.1,0.6,0.1,0.6-0.4c0-0.3,0.1-0.6,0.2-0.8c0.2-0.5,0.4-1,0.5-1.6c0.1-0.8,0.4-1.6,0.2-2.3
		c-0.1-0.8-0.2-1.6-0.2-2.4l0,0l0,0L104.2,67.6z M67.9,74.7c1.5,0,2.9-0.3,4.4-0.3c0.1,0,0.1,0,0.2,0c1.2,0.3,2.5,0.2,3.7,0.5
		c0.2,0,0.4,0,0.6,0.2c0.1,0.2,0.3,0.3,0.2,0.6c-0.1,0.2-0.3,0.4-0.5,0.3c-1.1-0.1-1.8,0.4-2.5,1.2c0,0.1-0.1,0.1-0.2,0.2
		c0,0-0.2,0-0.2,0c-0.1,0-0.2-0.2-0.1-0.2c0-0.2,0.1-0.4,0.2-0.6c0-0.1,0.1-0.3,0-0.4c-0.1-0.1-0.3-0.1-0.4-0.1
		c-0.3,0-0.6,0.2-0.8,0.5c-0.4,0.5-0.7,0.9-1.1,1.4c-0.1,0.1-0.3,0.1-0.4,0c-0.1-0.1-0.3-0.3-0.1-0.5c0.1-0.1,0.2-0.3,0.3-0.4
		c0.1-0.1,0.3-0.3,0.5-0.4c0.1-0.1,0.2-0.2,0.1-0.4c0-0.1-0.1-0.1-0.2-0.1c-0.8-0.1-1.4,0.3-1.7,1c-0.3,0.6-0.8,1.1-1.2,1.6
		C68.3,79,68,79,67.8,78.8c-0.2-0.2-0.3-0.6,0-0.8c0.2-0.2,0.5-0.4,0.8-0.6c0.2-0.2,0.5-0.3,0.6-0.6c0-0.1,0-0.2,0-0.3
		c0-0.1-0.1-0.1-0.2-0.1c-0.5,0-1,0.1-1.4,0.5c-0.9,1.1-1.9,2.1-2.5,3.4c0,0,0,0.1-0.1,0.2c-0.2,0.2-0.5,0.3-0.8,0.2
		c-0.2-0.1-0.3-0.5-0.1-0.8c0.6-0.8,1.2-1.7,2-2.2c0.2-0.1,0.4-0.3,0.5-0.5c0,0,0-0.1,0-0.2c0-0.1-0.1-0.1-0.2-0.2
		c-0.3,0-0.5,0-0.7,0.2c-0.5,0.3-0.9,0.7-1.2,1.2c-0.3,0.6-0.7,1.1-1.1,1.6c-0.6,0.7-1.2,1.5-1.5,2.3c-0.2,0.4-0.4,0.5-0.7,0.3
		c-0.3-0.2-0.4-0.5-0.1-0.9c0.5-0.9,1.2-1.6,2-2.3c0.4-0.3,0.7-0.7,1-1c0,0,0-0.2,0-0.3c0-0.1-0.2-0.2-0.4-0.1
		c-0.9,0.4-1.7,0.9-2.4,1.8c-0.8,1.1-1.4,2.3-1.9,3.5c-0.3,0.6-0.3,1.2,0,1.8s0.7,1.2,1.2,1.7c0.4,0.6,1.1,0.7,1.7,1
		c0.7,0.3,1.5,0.5,2.2,0.8c1,0.3,2,0.4,3,0.4c0.8,0,1.6,0.1,2.3,0.1c0.3,0,0.6,0.1,0.9,0c0.6-0.2,1.3-0.2,1.9-0.2c0.2,0,0.4,0,0.7,0
		c1.4-0.3,2.8-0.3,4.2-0.5c0.4,0,0.8-0.1,1.2-0.2c0.6-0.1,1.3-0.3,2-0.3c0,0,0.1,0,0.1,0c1.1-0.5,2.3-0.3,3.4-0.5
		c0.7-0.1,1.3,0.1,1.8,0.3c0.1,0,0.1,0.1,0.2,0.2c0.1,0.2,0.1,0.5-0.1,0.6c-0.1,0.1-0.3,0.1-0.5,0.2c-0.7,0.2-1.5,0.1-2.1,0.5
		c0,0-0.1,0-0.2,0c-1.3,0-2.6,0.3-3.9,0.5c-1,0.1-1.9,0.2-2.9,0.2c-2.1,0.1-4.3,0.1-6.4,0c-0.9,0-1.7,0-2.6,0
		c-1.2,0-2.4-0.1-3.5-0.5C63.7,89.2,63.3,89,63,89c-1.3-0.1-2.4-0.9-3.3-1.7c-0.3-0.3-0.6-0.8-0.7-1.2c-0.1-0.4-0.3-0.8-0.5-1.1
		c-0.3-0.6-0.4-1.2-0.1-1.8c0.3-0.8,0.5-1.7,1.1-2.3c0.2-0.2,0.3-0.5,0.4-0.8c0.2-0.4,0.5-0.9,0.8-1.4c0.4-0.6,0.9-1.1,1.6-1.5
		c1.1-0.5,2.1-1.2,3.1-1.8c0.9-0.5,1.7-0.9,2.7-0.8l0,0v0L67.9,74.7z M62.1,106.6c-1.3,0.3-2.4,0-3.5-0.8c-0.2-0.1-0.5-0.2-0.7-0.3
		c-0.7-0.4-1.3-1.1-2-1.6c-0.2-0.2-0.4-0.5-0.4-0.9c0-0.5-0.2-1-0.3-1.5c-0.1-0.6-0.1-1.2,0-1.7c0.1-0.4,0.2-0.9,0.3-1.4
		c0.2-0.6,0.3-1.3,0.9-1.7c0.1-0.1,0.2-0.1,0.4-0.2c0.1,0,0.2,0,0.3,0c0,0.1,0.1,0.2,0,0.3c-0.1,0.3-0.3,0.6-0.5,0.9
		c-0.3,0.6-0.6,1.1-0.4,1.8c0.1,0.2,0,0.3-0.2,0.5c-0.1,0.1-0.3,0.3-0.3,0.5c0,0.1,0,0.2,0.1,0.3c0,0.1,0.2,0.1,0.3,0
		c0.1,0,0.2-0.1,0.3-0.1c0.1-0.1,0.3-0.2,0.4,0c0.1,0.1,0,0.3-0.1,0.4c-0.1,0.1-0.3,0.3-0.5,0.5c-0.1,0.1-0.1,0.3-0.1,0.5
		c0,0.3,0.3,0.4,0.6,0.3c0.3-0.2,0.5-0.4,0.8-0.6c0.2-0.1,0.5-0.1,0.6,0.1c0.1,0.2,0,0.4-0.2,0.6c-0.3,0.1-0.7,0.2-1,0.4
		c-0.3,0.1-0.3,0.5,0,0.7c0.3,0.2,0.5,0.2,0.8,0c0.4-0.3,0.9-0.6,1.2-1.2c0-0.1,0.1-0.2,0.2-0.3c0.1-0.1,0.4-0.2,0.6,0
		c0.1,0.1,0.2,0.4,0.1,0.6c-0.2,0.4-0.6,0.6-1,0.9c-0.2,0.1-0.4,0.1-0.6,0.2c-0.3,0.1-0.4,0.3-0.3,0.5c0.1,0.3,0.4,0.5,0.7,0.4
		c0.4-0.2,0.8-0.5,1.2-0.8c0.6-0.6,1.2-1.1,1.8-1.7c0.1-0.1,0.2-0.2,0.4-0.2c0.1,0,0.2,0,0.3,0.1c0,0,0.1,0.2,0,0.3
		c0,0.1-0.1,0.2-0.2,0.3c-0.6,0.4-1,0.9-1.6,1.3c-0.3,0.2-0.6,0.4-0.9,0.7c-0.1,0.1-0.3,0.3-0.2,0.5s0.2,0.2,0.4,0.3
		c0.6,0.1,1.2,0,1.6-0.6c0.4-0.5,0.8-1,1.1-1.6c0.1-0.2,0.3-0.3,0.6-0.1c0.2,0.1,0.3,0.5,0.1,0.7c-0.5,0.4-0.9,1-1.4,1.4
		c0,0,0,0.1,0,0.2c0,0,0.1,0.1,0.1,0.1c0.4,0,0.8-0.1,1.2-0.2c0.3,0,0.5-0.3,0.6-0.6c0.1-0.3,0.2-0.6,0.5-0.7c0.1,0,0.2,0,0.3,0
		c0.1,0,0.1,0.1,0.1,0.2c0,0,0,0.1,0,0.2c-0.1,0.2-0.1,0.3,0,0.5c0.2,0.1,0.4,0.1,0.6,0c0.4-0.2,0.5-0.6,0.7-1
		c0-0.1,0.1-0.1,0.3-0.2c0.1,0,0.3,0,0.3,0.2c0,0,0,0.1,0,0.1c0.2,0.5,0.4,0.6,0.8,0.5c1.5-0.3,2.9-0.6,4.3-1.1
		c1-0.3,1.9-0.8,2.9-1.2c0.4-0.2,0.8-0.4,1.3-0.5c1-0.2,1.9-0.7,2.9-1c1.6-0.6,3.3-1.2,4.9-1.7c0.6-0.2,1.1-0.4,1.6-0.8
		c0.2-0.2,0.5-0.2,0.8-0.1c0.2,0.1,0.3,0.3,0.2,0.5c0,0.1-0.1,0.2-0.2,0.3c-0.5,0.6-1.2,1-1.7,1.7c-0.1,0.1-0.3,0.2-0.5,0.2
		c-0.7,0.2-1.4,0.4-2,0.6c-0.8,0.1-1.5,0.5-2.2,0.7c-2.2,0.6-4.5,1.3-6.7,2c-1.1,0.3-2.2,0.5-3.3,0.9c-0.9,0.3-1.8,0.7-2.8,0.8
		c-1,0.1-1.8,0.5-2.8,0.5c0,0-0.1,0-0.2,0C63.4,106.7,62.7,106.5,62.1,106.6L62.1,106.6L62.1,106.6L62.1,106.6z M51.1,73.2
		c0.2,0,0.4,0,0.5,0.1c0.1,0.1,0.2,0.3,0.3,0.4c0.3,0.4,0.4,0.5,0.8,0.2c0.1,0,0.2-0.1,0.3-0.2c0.3-0.2,0.6-0.1,0.9,0.1
		c0.4,0.3,0.4,0.6,0,0.9c-0.5,0.4-1,0.8-1.1,1.5c0,0.2-0.3,0.3-0.5,0.1c-0.4-0.3-0.9-0.7-1.3-1c-0.5-0.4-0.7-1.3-0.4-1.8
		C50.7,73.4,50.9,73.3,51.1,73.2L51.1,73.2z M49.7,89.7c0,0.1,0,0.2-0.1,0.4c-0.1,0.2-0.3,0.5-0.4,0.8c-0.4,0.5-0.4,1.2-0.9,1.6
		c-0.5-0.5-1.1-1.1-1.6-1.7c-0.2-0.2-0.2-0.5-0.1-0.7c0.1-0.3,0.5-0.5,0.8-0.3c0.2,0.2,0.4,0.6,0.8,0.5c0.3-0.1,0.4-0.4,0.5-0.7
		c0.1-0.1,0.2-0.2,0.3-0.3c0.1-0.1,0.3-0.1,0.5,0C49.7,89.4,49.7,89.5,49.7,89.7L49.7,89.7L49.7,89.7L49.7,89.7z M59,100
		c0.2,0,0.4,0.2,0.4,0.4c0,0.2-0.2,0.5-0.5,0.5c-0.2,0-0.4-0.2-0.5-0.4C58.4,100.3,58.7,100.1,59,100L59,100L59,100z M66.6,80
		c0,0,0.2,0,0.2,0.1c0.1,0,0.2,0.1,0.1,0.3c-0.1,0.3-0.5,0.5-0.8,0.4c-0.1,0-0.2-0.1-0.2-0.2c0-0.1,0-0.3,0.1-0.4
		C66.3,80.1,66.4,80.1,66.6,80L66.6,80L66.6,80L66.6,80z M69.9,79.4c0,0.3-0.1,0.5-0.4,0.5c-0.2,0-0.4-0.1-0.4-0.3
		c0-0.3,0.1-0.5,0.4-0.6C69.8,79,70,79.2,69.9,79.4L69.9,79.4L69.9,79.4z M58.8,98.7c0,0.2-0.2,0.4-0.5,0.3c-0.2,0-0.4-0.2-0.4-0.5
		c0-0.2,0.1-0.4,0.3-0.3C58.5,98.2,58.8,98.4,58.8,98.7z M53.2,88.4c0,0.2-0.1,0.3-0.3,0.4s-0.5-0.1-0.4-0.3c0-0.2,0.1-0.3,0.3-0.3
		C53,88.1,53.2,88.2,53.2,88.4z M117.1,92.3c-0.2,0-0.3-0.1-0.3-0.3c0-0.1,0-0.3,0.2-0.3c0.2,0,0.4,0.1,0.4,0.3
		C117.4,92.2,117.3,92.3,117.1,92.3L117.1,92.3z M54.5,89.1c0-0.2,0.1-0.3,0.3-0.3c0.2,0,0.3,0.2,0.3,0.4c0,0.1-0.1,0.2-0.3,0.3
		S54.5,89.3,54.5,89.1L54.5,89.1z M71.9,79.4c0,0.2-0.2,0.4-0.4,0.4c-0.1,0-0.3-0.1-0.3-0.2c0-0.2,0.2-0.4,0.4-0.4
		C71.7,79.1,71.8,79.2,71.9,79.4L71.9,79.4z M47.4,100.2c0.1,0,0.2,0,0.2,0.2s-0.1,0.2-0.2,0.3c-0.1,0-0.2,0-0.2-0.1
		C47.1,100.4,47.2,100.3,47.4,100.2L47.4,100.2z M118.7,91.3c0.1,0,0.2,0,0.2,0.1c0,0.1-0.1,0.3-0.2,0.3c-0.1,0-0.2-0.1-0.2-0.2
		C118.5,91.5,118.5,91.4,118.7,91.3L118.7,91.3L118.7,91.3L118.7,91.3z M48.4,99.9c0-0.1,0.1-0.1,0.2-0.1c0.1,0,0.1,0.1,0.1,0.2
		c0,0.1-0.1,0.1-0.2,0.1C48.5,100.1,48.4,100.1,48.4,99.9L48.4,99.9L48.4,99.9z M48.5,102.5c0,0,0,0.1-0.1,0.1c-0.1,0-0.2,0-0.2-0.2
		c0,0,0.1-0.1,0.1-0.1S48.4,102.5,48.5,102.5L48.5,102.5L48.5,102.5L48.5,102.5z M73.9,64.4c0,0.2-0.3,0.5-0.5,0.5
		c-0.3,0-0.6-0.2-0.6-0.4c0-0.2,0.3-0.5,0.6-0.5C73.6,63.9,73.9,64.2,73.9,64.4C73.9,64.4,73.9,64.4,73.9,64.4z M100.6,65.4
		c0.2,0,0.5,0.2,0.6,0.4c0,0.3-0.2,0.6-0.5,0.6c-0.2,0-0.5-0.2-0.5-0.5C100.1,65.7,100.3,65.4,100.6,65.4L100.6,65.4z M92.7,65.8
		c0.2,0,0.4,0.2,0.4,0.4c0,0.3-0.3,0.6-0.6,0.6c-0.2,0-0.3-0.1-0.3-0.4C92.1,66,92.4,65.7,92.7,65.8L92.7,65.8L92.7,65.8z
		 M88.9,68.1c-0.2,0-0.5-0.1-0.5-0.4c0-0.2,0.1-0.5,0.4-0.6c0.2,0,0.4,0.1,0.5,0.3C89.4,67.6,89.2,68,88.9,68.1L88.9,68.1z
		 M97.2,60.6c0.2,0,0.6,0.1,0.7,0.4c0,0.1,0,0.3-0.1,0.4c-0.2,0.1-0.4,0.1-0.6,0c-0.2-0.1-0.3-0.2-0.2-0.4
		C96.9,60.8,97.1,60.6,97.2,60.6z M97.4,70.3c0,0.2-0.2,0.5-0.5,0.4c-0.2,0-0.4-0.2-0.4-0.4c0-0.2,0.2-0.5,0.5-0.5
		C97.1,69.7,97.4,70,97.4,70.3L97.4,70.3z M79.8,66.4c0,0.3-0.1,0.5-0.4,0.5c-0.2,0-0.4-0.1-0.4-0.4c0-0.3,0.1-0.5,0.4-0.5
		C79.6,66,79.8,66.2,79.8,66.4L79.8,66.4z M98.7,65.7c0,0.2-0.1,0.4-0.4,0.4c-0.3,0-0.6-0.1-0.6-0.4c0-0.2,0.2-0.5,0.5-0.5
		C98.5,65.2,98.7,65.4,98.7,65.7L98.7,65.7z M94.7,66.9c0-0.3,0.2-0.6,0.5-0.6c0.2,0,0.5,0.3,0.5,0.5c0,0.2-0.2,0.5-0.5,0.5
		C95,67.4,94.8,67.1,94.7,66.9L94.7,66.9L94.7,66.9z M77.4,68.1c-0.2,0-0.4-0.1-0.4-0.3c0-0.3,0.1-0.6,0.5-0.6c0.2,0,0.4,0,0.4,0.2
		C78.1,67.7,77.8,68.1,77.4,68.1L77.4,68.1z M86.6,67.7c-0.2,0-0.3-0.1-0.4-0.3c-0.1-0.3,0.2-0.6,0.4-0.6c0.2,0,0.4,0.2,0.4,0.4
		C87,67.5,86.8,67.7,86.6,67.7L86.6,67.7z M100.5,69.1c0.2,0,0.3,0,0.4,0.2c0.1,0.2,0,0.4,0,0.6c-0.1,0.1-0.3,0.2-0.5,0.2
		s-0.2-0.2-0.2-0.4C100.1,69.4,100.3,69.2,100.5,69.1L100.5,69.1z M93.9,60.3c0,0.2-0.2,0.4-0.4,0.4c-0.3,0-0.5-0.2-0.5-0.5
		c0-0.2,0.1-0.3,0.4-0.3C93.6,59.8,93.9,60,93.9,60.3L93.9,60.3z M67.7,69.1c0,0.3-0.3,0.6-0.6,0.5c-0.2,0-0.3-0.2-0.3-0.4
		c0-0.3,0.2-0.5,0.5-0.4C67.6,68.9,67.7,69,67.7,69.1L67.7,69.1L67.7,69.1z M102.8,66.4c0.2,0,0.4,0.2,0.4,0.4
		c0,0.3-0.2,0.4-0.5,0.4c-0.2,0-0.5-0.1-0.5-0.3C102.2,66.7,102.5,66.4,102.8,66.4L102.8,66.4z M70.8,67.5c-0.3,0-0.5-0.1-0.6-0.3
		c0-0.2,0.2-0.5,0.4-0.5c0.3,0,0.5,0.2,0.5,0.4C71.2,67.3,71,67.5,70.8,67.5z M72.9,68.4c0,0.2-0.1,0.3-0.3,0.4
		c-0.3,0.1-0.7-0.2-0.7-0.5c0-0.2,0.1-0.3,0.3-0.4C72.5,67.8,72.8,68.1,72.9,68.4C72.9,68.4,72.9,68.4,72.9,68.4z M99.2,68.1
		c0,0.2-0.2,0.4-0.4,0.4c-0.3,0-0.5-0.2-0.5-0.4c0-0.2,0.2-0.4,0.4-0.4C99,67.6,99.2,67.8,99.2,68.1z M97.1,63.3
		c0,0.3-0.1,0.5-0.4,0.5c-0.2,0-0.4-0.1-0.5-0.4c0-0.3,0.1-0.5,0.4-0.5S97,63.1,97.1,63.3L97.1,63.3L97.1,63.3z M94.4,68.8
		c0,0.2-0.2,0.5-0.5,0.5c-0.2,0-0.4-0.2-0.3-0.5c0-0.2,0.2-0.4,0.4-0.4C94.2,68.3,94.4,68.5,94.4,68.8L94.4,68.8z M95.7,59.3
		c0,0.2-0.1,0.4-0.3,0.5c-0.3,0-0.5-0.1-0.5-0.4c0-0.2,0.1-0.4,0.3-0.5C95.4,58.9,95.7,59.1,95.7,59.3L95.7,59.3z M72.9,66.7
		c-0.3,0-0.6-0.2-0.6-0.5c0-0.2,0.2-0.4,0.5-0.4c0.3,0,0.5,0.1,0.5,0.4C73.4,66.5,73.2,66.7,72.9,66.7L72.9,66.7L72.9,66.7z
		 M89.8,66.1c-0.2,0-0.4-0.2-0.4-0.5c0-0.2,0.2-0.4,0.4-0.4c0.3,0,0.4,0.3,0.4,0.5C90.3,65.9,90,66.1,89.8,66.1L89.8,66.1L89.8,66.1
		z M91.5,64.7c-0.3,0-0.6-0.2-0.6-0.5c0-0.2,0-0.3,0.3-0.4c0.4-0.1,0.7,0.1,0.7,0.5C91.8,64.5,91.7,64.6,91.5,64.7L91.5,64.7
		C91.5,64.7,91.5,64.7,91.5,64.7z M88.3,60.9c0,0.2-0.1,0.5-0.3,0.5c-0.2,0-0.4-0.1-0.4-0.4c0-0.2,0.2-0.4,0.4-0.4
		C88.2,60.5,88.3,60.7,88.3,60.9L88.3,60.9L88.3,60.9z M80.1,64.9c-0.2,0-0.4-0.1-0.5-0.3c0-0.2,0.1-0.4,0.3-0.5
		c0.2,0,0.5,0.1,0.5,0.3C80.5,64.6,80.3,64.9,80.1,64.9z M70.3,68.9c0,0.2-0.1,0.5-0.4,0.5c-0.2,0-0.4,0-0.4-0.3
		c0-0.3,0.1-0.5,0.4-0.6C70,68.5,70.2,68.6,70.3,68.9z M74.7,67.9c0-0.2,0.1-0.4,0.3-0.4c0.2,0,0.5,0.1,0.6,0.4
		c0,0.2-0.1,0.3-0.3,0.4C74.9,68.4,74.7,68.2,74.7,67.9z M84.3,67.9c0,0,0,0.1,0,0.2c-0.2,0.2-0.5,0.2-0.8,0c-0.1-0.1-0.1-0.2,0-0.3
		c0.1-0.3,0.5-0.4,0.8-0.1C84.3,67.7,84.3,67.8,84.3,67.9L84.3,67.9z M92.6,62.7c-0.2,0-0.5-0.2-0.4-0.5c0-0.2,0.1-0.3,0.3-0.3
		c0.3,0,0.5,0.2,0.5,0.5C93,62.6,92.8,62.7,92.6,62.7L92.6,62.7L92.6,62.7z M90.2,62.4c0,0.3-0.1,0.4-0.3,0.5
		c-0.3,0-0.6-0.2-0.5-0.5c0-0.2,0.1-0.3,0.4-0.3C90,62,90.2,62.2,90.2,62.4L90.2,62.4C90.2,62.4,90.2,62.4,90.2,62.4z M75.1,65.8
		c0.2,0,0.3,0.1,0.4,0.3c0,0.3-0.1,0.5-0.4,0.5c-0.2,0-0.4-0.1-0.4-0.4C74.6,66,74.9,65.9,75.1,65.8L75.1,65.8L75.1,65.8z M91,60.1
		c0,0.2-0.1,0.4-0.3,0.4c-0.2,0-0.5,0-0.5-0.2c0-0.2,0.1-0.4,0.3-0.5C90.6,59.7,90.9,59.8,91,60.1L91,60.1z M87.1,62.5
		c0.2,0,0.4,0.1,0.5,0.3c0,0.2-0.1,0.4-0.3,0.5c-0.2,0-0.4-0.1-0.5-0.3C86.7,62.7,86.8,62.6,87.1,62.5L87.1,62.5L87.1,62.5
		L87.1,62.5z M95,61.4c0.2,0,0.4,0.1,0.4,0.4c0,0.2-0.2,0.4-0.4,0.4c-0.2,0-0.4-0.1-0.4-0.4C94.5,61.6,94.7,61.4,95,61.4L95,61.4z
		 M90.9,68.3c0,0,0-0.1,0.1-0.2c0.1-0.1,0.4-0.1,0.6,0c0.2,0.2,0.2,0.4,0,0.6c-0.1,0.1-0.3,0.1-0.5,0C91,68.6,90.9,68.5,90.9,68.3z
		 M68.8,67.3c0,0.2-0.1,0.4-0.4,0.4c-0.2,0-0.4,0-0.4-0.2c-0.1-0.2,0.1-0.5,0.3-0.6C68.5,66.9,68.7,67.1,68.8,67.3L68.8,67.3z
		 M85,63.9c-0.2,0-0.4-0.2-0.4-0.4s0.1-0.4,0.4-0.4c0.2,0,0.3,0.1,0.4,0.3C85.3,63.7,85.2,63.9,85,63.9z M99.5,72.2
		c0,0.2-0.2,0.4-0.4,0.4c-0.2,0-0.4-0.2-0.4-0.5c0-0.2,0.1-0.3,0.3-0.3C99.3,71.7,99.5,71.9,99.5,72.2L99.5,72.2L99.5,72.2z
		 M98.7,63.3c0-0.2,0.1-0.4,0.3-0.5c0.2,0,0.5,0.2,0.5,0.4c0,0.2-0.2,0.4-0.4,0.4S98.7,63.5,98.7,63.3L98.7,63.3L98.7,63.3z
		 M103,69.3c0,0.3-0.1,0.5-0.4,0.5c-0.2,0-0.3-0.1-0.4-0.3c0-0.2,0.1-0.5,0.4-0.5C102.8,68.9,102.9,69.1,103,69.3L103,69.3z
		 M94.6,64.2c0,0.2-0.2,0.5-0.5,0.5c-0.2,0-0.3-0.1-0.4-0.3c0-0.3,0.1-0.5,0.4-0.5C94.4,63.8,94.6,64,94.6,64.2L94.6,64.2z
		 M77.3,66.3c-0.2,0-0.4-0.1-0.5-0.3c0-0.2,0.1-0.4,0.4-0.4c0.2,0,0.4,0.1,0.4,0.3C77.7,66,77.5,66.2,77.3,66.3L77.3,66.3L77.3,66.3
		z M76.2,63.9c0,0.2-0.1,0.5-0.3,0.5c-0.2,0-0.4-0.2-0.4-0.4s0.2-0.4,0.4-0.4C76.1,63.5,76.2,63.7,76.2,63.9L76.2,63.9z M102.6,72.2
		c0,0.2-0.3,0.4-0.5,0.3c-0.2,0-0.3-0.2-0.3-0.4c0-0.2,0.2-0.4,0.4-0.4C102.4,71.7,102.6,72,102.6,72.2L102.6,72.2L102.6,72.2
		L102.6,72.2z M71.4,65.2c0,0.2-0.2,0.4-0.4,0.4c-0.2,0-0.4-0.2-0.4-0.4c0-0.2,0.1-0.3,0.3-0.4C71.2,64.8,71.4,65,71.4,65.2
		L71.4,65.2z M101.4,63.9c-0.3,0-0.5-0.1-0.6-0.4c0-0.1,0.1-0.4,0.3-0.4c0.2,0,0.5,0.2,0.5,0.4C101.7,63.7,101.6,63.8,101.4,63.9
		L101.4,63.9z M88.3,64.8c0,0.2-0.1,0.3-0.3,0.4c-0.2,0-0.4-0.1-0.4-0.4c0-0.2,0.1-0.3,0.3-0.4C88.1,64.4,88.3,64.6,88.3,64.8
		L88.3,64.8z M85.9,65.1c0.2,0,0.3,0.1,0.3,0.3c0,0.2-0.1,0.4-0.4,0.5c-0.2,0-0.4-0.2-0.4-0.4C85.4,65.3,85.7,65.1,85.9,65.1z
		 M78.7,63.5c0,0.2-0.2,0.4-0.4,0.4c-0.2,0-0.4,0-0.4-0.2c0-0.2,0.2-0.5,0.5-0.5C78.5,63.1,78.7,63.2,78.7,63.5
		C78.7,63.5,78.7,63.5,78.7,63.5z M99.6,61.3c-0.2,0-0.4-0.1-0.4-0.3c0-0.2,0.1-0.3,0.3-0.4c0.2,0,0.4,0.1,0.5,0.3
		C100,61.1,99.9,61.3,99.6,61.3L99.6,61.3L99.6,61.3z M81.2,68.2c0,0.1-0.2,0.3-0.4,0.2s-0.3-0.1-0.3-0.4s0.2-0.3,0.4-0.3
		C81.1,67.7,81.2,67.9,81.2,68.2L81.2,68.2z M87,108.2c0.2,0,0.5,0.3,0.5,0.5c0,0.2-0.3,0.5-0.5,0.4c-0.2,0-0.3-0.3-0.3-0.5
		C86.6,108.4,86.8,108.2,87,108.2L87,108.2z M91.4,103.3c0.2,0,0.5,0.2,0.4,0.5c0,0.2-0.2,0.4-0.5,0.4c-0.2,0-0.5-0.2-0.5-0.4
		C90.9,103.6,91.1,103.3,91.4,103.3L91.4,103.3z M91.1,106.6c-0.2,0-0.3-0.1-0.3-0.3c0-0.3,0.2-0.6,0.5-0.6c0.2,0,0.3,0.1,0.3,0.3
		C91.6,106.3,91.3,106.6,91.1,106.6L91.1,106.6L91.1,106.6z M86.7,107.3c-0.1,0-0.2-0.1-0.2-0.2c0-0.1,0-0.3,0.1-0.4
		c0.1-0.2,0.3-0.3,0.5-0.2c0.2,0.1,0.2,0.3,0,0.6C87,107.1,86.9,107.3,86.7,107.3L86.7,107.3L86.7,107.3z M89.7,104.8
		c0,0.3-0.1,0.5-0.4,0.5c-0.2,0-0.4-0.1-0.4-0.3c0-0.3,0.1-0.5,0.4-0.6C89.6,104.5,89.7,104.6,89.7,104.8L89.7,104.8z M89.2,106.8
		c0,0.2-0.1,0.3-0.3,0.4c-0.2,0-0.5-0.2-0.4-0.4c0-0.2,0.2-0.4,0.5-0.4C89.1,106.4,89.2,106.6,89.2,106.8L89.2,106.8z M85.9,108.1
		c0,0.2-0.1,0.4-0.3,0.4c-0.2,0-0.4-0.1-0.5-0.3c0-0.2,0.1-0.3,0.3-0.4C85.6,107.8,85.8,107.9,85.9,108.1L85.9,108.1z M87.5,110.7
		c-0.2,0-0.4-0.2-0.4-0.4c0-0.2,0.1-0.3,0.3-0.4c0.2,0,0.4,0.2,0.4,0.4C87.9,110.5,87.7,110.7,87.5,110.7L87.5,110.7z M92.6,101.9
		c0,0,0.1,0,0.2,0.1c0.1,0.1,0.1,0.3,0,0.5c-0.1,0.2-0.3,0.3-0.5,0.2c0,0-0.1-0.1-0.1-0.1C92.1,102.3,92.3,102,92.6,101.9
		L92.6,101.9z M90,108.5c-0.2,0-0.3-0.1-0.4-0.4c0-0.2,0.2-0.4,0.4-0.4c0.2,0,0.3,0.1,0.3,0.3C90.4,108.3,90.2,108.5,90,108.5
		L90,108.5z M88.7,109.7c-0.2,0-0.4-0.1-0.4-0.3c0-0.2,0-0.3,0.2-0.4c0.2,0,0.5,0.1,0.5,0.3C89.1,109.5,88.9,109.7,88.7,109.7
		L88.7,109.7L88.7,109.7L88.7,109.7z M89,111.6c0,0.2,0,0.3-0.2,0.4c-0.2,0.1-0.4-0.1-0.5-0.3c0-0.2,0-0.3,0.2-0.4
		C88.7,111.2,89,111.4,89,111.6L89,111.6z M47.7,102.1c-0.2,0.3-0.4,0.5-0.6,0.8c0,0.1-0.1,0.2-0.1,0.3c0.3,0.5-0.1,0.8-0.4,1.2
		c-0.4,0.4-0.6,1-1,1.4c-0.2,0.2-0.2,0.5,0,0.7c0.1,0.2,0.5,0.3,0.6,0c0.2-0.3,0.3-0.6,0.5-0.8c0.1-0.2,0.3-0.2,0.5-0.1
		c0.1,0.1,0.1,0.3,0,0.5c0,0.1-0.1,0.1-0.2,0.2c-0.1,0.1-0.3,0.2-0.4,0.4c-0.2,0.3-0.2,0.5,0,0.7c0.2,0.2,0.5,0.1,0.7,0
		c0.1-0.1,0.2-0.1,0.3-0.2c0,0,0.1,0,0.2,0c0,0,0.1,0.1,0,0.2c0,0.1-0.1,0.2-0.2,0.4c0,0.1-0.1,0.2-0.2,0.4c0,0.2,0.1,0.4,0.2,0.5
		c0.2,0.1,0.3,0.1,0.5-0.1s0.2-0.4,0.5-0.3c0.3,0.1,0.2,0.4,0.1,0.7c0,0.1-0.1,0.3-0.1,0.4c0,0.2,0.2,0.4,0.4,0.5
		c0.2,0.1,0.3,0.1,0.5-0.1c0.1-0.1,0.2-0.2,0.3-0.3c0.1-0.1,0.4,0,0.4,0.2c0,0.1,0,0.2,0,0.3c-0.1,0.5,0,0.7,0.5,0.7
		c0.4,0,0.6,0.1,0.8,0.5c0.1,0.2,0.3,0.4,0.5,0.4c1.1,0.4,2.1,1.1,3.3,1.4c0.2,0,0.4,0.2,0.7,0.1c0.4-0.1,0.7,0,1.1,0.1
		c0.1,0,0.3,0.1,0.4,0.1c0.6-0.1,1.2,0.1,1.8,0.2c1.9,0.4,3.8,0.1,5.7,0c0.2,0,0.5-0.1,0.8-0.2c0.6-0.2,1.3-0.4,2-0.3
		c0.3,0,0.6,0,0.9-0.1c1.4-0.6,2.8-1.1,4.2-1.5c1-0.2,1.8-0.8,2.9-0.9c0.1,0,0.2,0,0.3-0.1c0.4-0.4,1.1-0.6,1.6-0.9
		c1.2-0.8,2.4-1.3,3.5-2.1c0.2-0.1,0.4-0.2,0.7-0.4c0.3-0.2,0.7-0.3,1-0.6c0.7-0.6,1.6-1.1,2.5-1.5c1.6-0.8,2.9-1.8,4.3-2.9
		c0.2-0.1,0.3-0.3,0.5-0.4c0.8-0.3,1.5-1,2.2-1.5c0.9-0.6,1.8-1,2.9-1.3c0.6-0.2,1.3-0.4,1.9-0.6c0.8-0.3,1.7-0.6,2.5-0.9
		c0.2,0,0.5,0,0.6-0.3c0.3-0.6,0.9-0.8,1.4-1.1c0.1-0.1,0.3-0.1,0.5-0.2c0.3-0.2,0.5-0.6,0.9-0.7c1.3-0.3,2.6-0.9,4-1
		c1,0,1.9-0.1,2.9,0c1,0,2,0,3,0c0.3,0,0.6-0.1,0.8-0.3c0.1-0.1,0.3-0.3,0.5-0.5c0.1-0.1,0.3-0.2,0.5-0.1c0.3,0.1,0.1,0.3,0.1,0.6
		c0,0.2,0.1,0.4,0.3,0.4c0.3,0,0.6,0,0.8-0.2c0.2-0.2,0.4-0.4,0.6-0.7c0.1-0.1,0.2-0.1,0.4,0c0.1,0,0.1,0.2,0.1,0.3c0,0,0,0,0,0.1
		c0,0.2-0.2,0.4,0,0.6c0.2,0.1,0.4,0,0.6-0.2c0.3-0.3,0.6-0.6,0.9-0.9c0.1-0.1,0.2-0.3,0.4-0.4c0.1-0.1,0.3-0.1,0.4,0
		c0.1,0.1,0.1,0.3,0,0.4c-0.2,0.3-0.6,0.4-0.9,0.7c-0.1,0.1-0.1,0.2,0,0.3c0,0.1,0.2,0.1,0.3,0.1c0.2,0,0.4,0,0.5-0.1
		c0.4-0.3,0.8-0.6,1.2-1c0.1-0.1,0.2-0.3,0.3-0.4c0.2-0.3,0.5-0.3,0.7-0.1c0.1,0.2,0.1,0.4,0,0.7c-0.2,0.3-0.6,0.4-0.9,0.6
		c-0.1,0-0.2,0.2-0.2,0.3c0,0.1,0.1,0.2,0.3,0.3c0.5,0.1,0.9,0,1.2-0.4c0.3-0.4,0.6-0.7,1-1.1c0.1-0.1,0.2-0.2,0.3-0.2
		c0.1,0,0.3,0,0.4,0.1c0.1,0.1,0,0.3,0,0.4c-0.3,0.4-0.7,0.6-1,0.9c0,0-0.1,0.2-0.1,0.3c0,0.1,0.1,0.2,0.2,0.2
		c0.6,0.2,1.1,0.2,1.6-0.3c0.3-0.3,0.7-0.6,0.9-1.1c0.1-0.3,0.6-0.3,0.8,0c0.1,0.2,0.1,0.5-0.1,0.7c-0.2,0.1-0.5,0.3-0.8,0.4
		c-0.1,0-0.1,0.1-0.1,0.3c0,0.1,0.1,0.2,0.2,0.2c0.8,0.1,1.6,0.3,2.4,0.4c0.3,0,0.5-0.1,0.4-0.4c-0.1-0.4,0-0.6,0.2-1
		c0.1-0.3,0-0.5-0.2-0.6c-0.2-0.1-0.5-0.2-0.7-0.3c-0.2-0.1-0.4-0.3-0.5-0.6c0-0.2,0.1-0.4,0.3-0.6c0.2-0.3,0.1-0.6-0.2-0.7
		c-0.1,0-0.1,0-0.2,0c-1.4,0.3-2.7-0.1-4-0.2c-1.1-0.1-2.1-0.3-3.1-0.1c-0.9,0.1-1.7,0.1-2.6,0c-0.4,0-0.9,0-1.4,0
		c-1.4,0.1-2.8,0.2-4.1,0c-0.2,0-0.4,0-0.7,0.1c-0.4,0.1-0.9,0.2-1.3,0.2c-0.3,0-0.5-0.1-0.6-0.4c-0.1-0.3,0-0.6,0.2-0.8
		c0.5-0.3,0.9-0.5,1.6-0.4c1.3,0.1,2.5,0.1,3.8,0.2c1.6,0.1,3.2,0.2,4.7,0.3c2.2,0.1,4.3,0.4,6.5,0.7c0.1,0,0.2,0,0.3,0
		c0.1,0,0.3,0,0.3-0.2c0.1-0.2-0.1-0.3-0.3-0.4c-0.6-0.2-1.2-0.3-1.8-0.4c-2.4-0.3-4.9-0.7-7.3-0.9c-2.1-0.2-4.2-0.5-6.4-0.5
		c-1.4,0-2.7-0.2-4-0.3c-0.6,0-1.1-0.1-1.4-0.7c-0.1-0.2-0.3-0.2-0.5-0.2s-0.4,0-0.6,0c-0.1,0-0.3-0.1-0.3-0.3
		c0-0.1,0.1-0.3,0.2-0.3c0.2,0,0.4-0.1,0.6-0.1c0.9,0,1.8,0.1,2.7,0.2c1,0.1,1.9,0.3,2.9,0.3c0.1,0,0.3,0,0.4,0c1,0.3,2,0.2,3,0.4
		c1.7,0.3,3.4,0.3,5,0.7c0.5,0.1,1,0.1,1.5,0.2c2,0.2,3.9,0.6,5.9,0.9c0.7,0.1,1.4,0.1,2.1,0.3c0.1,0,0.3,0,0.4,0.1
		c0.4,0.2,0.5,0.6,0.1,1c0,0-0.1,0-0.1,0c-0.4,0.3-0.4,0.4,0,0.6c0.2,0.1,0.4,0.2,0.6,0.3c0.2,0.1,0.3,0.4,0,0.6
		c-0.1,0.1-0.2,0.1-0.3,0.2c-0.2,0.2-0.2,0.4,0,0.5c0,0,0.1,0.1,0.2,0.1c0.6,0.3,0.5,0.6,0.3,1.1c0,0,0,0,0,0.1
		c-0.2,0.3-0.1,0.6,0.1,0.9c0.1,0.1,0.2,0.2,0.3,0.3c0.1,0.2,0.1,0.4-0.1,0.5c-0.3,0.2-0.7,0.3-1.1,0.3c-1.1-0.1-2.2,0-3.3-0.5
		c-0.3-0.1-0.6-0.2-0.9-0.2c-1.7-0.1-3.5-0.3-5.2-0.5c-0.2,0-0.4,0-0.6,0.1c-0.4,0.3-0.8,0.4-1.4,0.4c-0.4,0-0.9,0-1.3,0.3
		c-0.2,0.1-0.4,0.2-0.6,0.1c-1.2-0.3-2.5-0.1-3.7,0c-1.4,0.1-2.7,0.3-4,0.5c-0.3,0-0.6,0.2-1,0.2c-1.4,0.4-2.8,0.7-4.1,1
		c-1.7,0.4-3.3,0.9-5,1.4c-0.7,0.2-1.2,0.6-1.5,1.4c-0.8,1.9-1.7,3.9-2.6,5.8c-0.2,0.4-0.4,0.7-0.6,1.1c-0.3,0.6-0.6,1.3-0.7,2
		c0,0.4-0.1,0.9-0.4,1.3c-0.7,1.3-0.8,2.7-1.3,4c-0.1,0.4,0,0.7,0,1.1c0,0.2,0.1,0.5,0.1,0.8c0,0.2-0.1,0.4-0.4,0.5s-0.4,0-0.6-0.2
		c0,0,0,0,0-0.1c-0.1-1.3-1.1-2-1.9-2.8c-0.4-0.4-0.8-0.8-1.2-1.2c-0.8-0.9-1.7-1.7-2.8-2.4c-0.4-0.2-0.7-0.5-1-0.9
		c-0.4-0.4-0.5-0.4-0.9-0.2c-1,0.6-2,1.3-3.1,1.9c-0.5,0.3-1.1,0.5-1.7,0.7c-0.7,0.1-1.3,0.4-1.9,0.7c-1.3,0.6-2.7,0.9-4,1.3
		c-0.8,0.3-1.7,0.3-2.5,0.5c-0.2,0-0.4,0.1-0.6,0.1c-1.2,0.4-2.4,0.5-3.6,0.6c-0.2,0-0.3,0.1-0.5,0.1c-0.1,0-0.3,0.1-0.4,0.1
		c-1.1-0.2-2.2,0.1-3.3-0.1c-0.3,0-0.6,0-0.9-0.1c-0.6-0.2-1.2-0.2-1.8-0.3c-1.1,0-2.1-0.3-3.2-0.6c-1-0.3-1.9-0.7-2.8-1.2
		c-1.1-0.7-2.2-1.4-3.3-2.2c-0.6-0.5-1.2-1.1-1.6-1.7c-0.4-0.5-0.8-1-1.2-1.5c-0.5-0.7-0.9-1.5-1.3-2.2c0,0,0-0.1-0.1-0.2
		c-0.1-1.2-0.6-2.4-0.6-3.6c0-1.6,0.3-3,1.2-4.2c0.2-0.2,0.3-0.5,0.5-0.7c0.1-0.1,0.1-0.3,0.1-0.5c-0.7-1.6-0.8-3.3-1.1-4.9
		c-0.2-0.9,0-1.9,0.8-2.7c1.1-0.9,2.1-1.7,3.5-2.2c1.3-0.4,2.5-0.7,3.8-1.1c0.3-0.1,0.7,0,1.1-0.1c0.1,0,0.3,0,0.3-0.2
		c0-0.1,0-0.2-0.1-0.3c-0.9-0.7-1.7-1.5-2.7-2.1c-0.5-0.3-1.1-0.4-1.7-0.4c-1.6-0.1-3.2,0.1-4.8,0.1c-0.3,0-0.6,0.1-0.8,0.2
		c-0.2,0.1-0.4,0.3-0.5,0.4c-0.1,0-0.2,0-0.3,0s-0.1-0.2-0.1-0.3c0-0.3,0.2-0.7,0.5-0.9c0.7-0.4,1.2-1.1,1.7-1.7
		c0.7-0.9,1.5-1.7,2.5-2.2c0.2-0.1,0.4-0.3,0.6-0.5c0.1-0.1,0.2-0.2,0.2-0.4c0-0.5,0.1-1.2-0.2-1.7c-0.3-0.5-0.2-1.1-0.1-1.5
		c0.1-0.5,0.2-1.1,0.6-1.6c0.1-0.1,0.2-0.4,0.3-0.6c0-0.1,0.1-0.3,0.2-0.4c0.7-0.4,1.3-0.9,2-1.2c0.9-0.3,1.8-0.5,2.7-0.5
		c0.9,0,1.8,0,2.7,0.1c0.4,0.1,0.9,0,1.4,0c0.7,0.1,1.5,0.2,2.2,0.4c1.5,0.5,3.1,0.5,4.7,0.8c0.4,0,0.5-0.1,0.7-0.4
		c0-0.2,0.1-0.4,0.1-0.5c0.1-1.3,0.9-2.3,1.5-3.4c0.1-0.2,0.4-0.5,0.6-0.7c0.2-0.2,0.4-0.4,0.6-0.6c1-1.2,2.3-2,3.6-2.9
		c0.8-0.5,1.7-0.7,2.6-0.9c0.7-0.1,1.5-0.1,2.2-0.2c0.8-0.1,1.7-0.1,2.4,0.2c0.2,0.1,0.5,0.1,0.8,0.1c1,0.1,1.8,0.5,2.5,1.2
		c0.1,0.1,0.1,0.1,0.2,0.2c0.2,0.1,0.4,0.1,0.5-0.1c0.5-1,1.4-1.7,2.1-2.6c0.7-0.9,1.6-1.6,2.6-2c0.7-0.3,1.4-0.7,2.2-0.9
		c1-0.3,2.1-0.6,3.2-0.7c0.7,0,1.3,0.1,2,0.2c1.1,0.2,2.1,0.6,3.2,0.8c0.8,0.1,1.6,0.5,2.3,0.9c1,0.4,1.7,1.3,2.6,1.9
		c0,0,0.1,0.1,0.1,0.1c0.5,0.9,1.1,1.8,1.4,2.8c0.1,0.4,0.2,0.9,0.4,1.3c0.1,0.3,0.2,0.7,0.3,1.1c0,0.9,0.1,1.8,0.2,2.7
		c0,0.5,0.1,1,0.1,1.5c0,1.1,0,2.1-0.3,3.2c-0.2,0.7-0.4,1.5-0.6,2.3c-0.1,0.3,0,0.5,0.3,0.6c1.2,0.3,2.3,0.5,3.5,0.6
		c0.7,0,1.5,0.2,2.2,0.2c1.1,0,2.1,0.4,3.2,0.4c1.3,0.5,2.6,0.3,3.9,0.5c1.3,0.3,2.6,0.4,3.9,0.5c1.6,0.1,3,0.4,4.5,0.7
		c0.2,0,0.5,0.1,0.8,0.1c0.8,0,1.2,0.6,1.5,1.2c0.1,0.2,0,0.3-0.1,0.5c-0.2,0.2-0.4,0.2-0.7,0.2c-0.3,0-0.6-0.1-1-0.2
		c-0.3,0-0.6,0-0.9,0.1c-0.1,0-0.1,0.3,0,0.4c0.1,0.1,0.2,0.2,0.4,0.2c0.2,0.1,0.4,0.1,0.6,0.1c0.6,0.2,0.7,0.4,0.3,1
		c0,0-0.1,0.1-0.1,0.2c-0.1,0.2,0,0.4,0.1,0.4c0.2,0,0.3,0.1,0.5,0.1c0.2,0,0.5,0.1,0.7,0.4c0.2,0.3-0.1,0.5-0.2,0.7
		c-0.1,0.2-0.2,0.5,0,0.7c0.1,0.1,0.3,0.2,0.4,0.4c0.4,0.4,0.2,1-0.4,1.1c-0.4,0.1-0.8,0.1-1.2,0.1c-0.9-0.1-1.8-0.1-2.7-0.3
		c-1-0.2-2.1-0.3-3.1-0.4c-0.8-0.1-1.7-0.2-2.4-0.3c-0.9-0.1-1.8-0.3-2.8-0.4c-0.9-0.1-1.7-0.3-2.6-0.4c-1.1-0.1-2.2-0.1-3.3-0.2
		c-0.4,0-0.7-0.1-1.1-0.1c-0.2,0-0.4-0.1-0.7-0.1c-1.7,0-3.5-0.2-5.2-0.5c-0.3,0-0.6,0-0.9,0c-0.2,0-0.4,0-0.6,0s-0.4,0-0.5-0.2
		c-0.1-0.1,0-0.3,0-0.5c0.1-0.1,0.3-0.3,0.3-0.4c0.2-0.8,0.7-0.8,1.4-0.8c2.2,0,4.5,0,6.7,0.3c1.6,0.2,3.1,0.3,4.7,0.4
		c0.8,0.1,1.6,0.2,2.3,0.3c1.2,0.1,2.3,0.1,3.4,0c0.1,0,0.1,0,0.2,0c0.3,0,0.5,0.2,0.5,0.6c0,0.3-0.2,0.5-0.5,0.5c0,0,0,0-0.1,0
		c-3.6-0.3-7.1-0.6-10.7-1.1c-0.8-0.1-1.6-0.1-2.3-0.2c-0.2,0-0.4,0-0.6,0.1c-0.1,0.1-0.1,0.2,0,0.3c0,0,0.1,0.1,0.2,0.1
		c0.2,0,0.5,0.1,0.8,0.2c3.3,0.4,6.5,0.9,9.8,1.3c1.1,0.1,2.1,0.3,3.2,0.5c0.6,0.1,1.2,0,1.8,0c1,0.1,2.1,0.2,3.1,0.4
		c0.2,0,0.5,0.1,0.8,0.1c0.7,0.1,0.8,0,0.6-0.7c-0.1-0.2-0.1-0.5,0-0.8c0.1-0.4,0-0.5-0.4-0.6c-0.7-0.1-1.3-0.2-2-0.4
		c-0.2,0-0.4-0.1-0.6-0.2c-0.1-0.1-0.2-0.3-0.2-0.5c0-0.2,0.2-0.3,0.4-0.3c0.3,0,0.6,0,0.9,0c0.1,0,0.3-0.1,0.3-0.3
		c0-0.1,0-0.3-0.2-0.3c-0.2-0.1-0.5-0.2-0.7-0.2c-0.5,0-0.8-0.3-1.2-0.5c-0.3-0.1-0.2-0.5,0-0.7c0.2-0.1,0.5-0.2,0.7-0.1
		c0.4,0,0.7,0,1.1-0.1c0.1,0,0.2-0.2,0.2-0.2c0-0.1-0.1-0.2-0.2-0.2c-0.6-0.1-1.3-0.2-1.9-0.2c-0.5,0-1,0-1.5-0.1
		c-0.7-0.2-1.2,0.1-1.7,0.5c-0.4,0.3-0.8,0.7-1.2,1c-0.1,0.1-0.3,0.1-0.5,0c-0.1-0.1-0.1-0.4,0-0.6c0.2-0.2,0.4-0.3,0.7-0.4
		c0.2-0.1,0.5-0.2,0.7-0.4c0.1-0.1,0-0.3,0-0.4c-0.6-0.2-1.2-0.2-1.7,0c-0.2,0.1-0.4,0.3-0.5,0.6c-0.1,0.3-0.3,0.5-0.6,0.7
		c-0.2,0.1-0.5,0.1-0.6,0c-0.2-0.2-0.1-0.6,0.1-0.8c0.2-0.1,0.4-0.2,0.6-0.3c0.1,0,0.1-0.2,0.1-0.3c0-0.1-0.1-0.2-0.2-0.2
		c-0.7-0.1-1.2-0.3-1.7,0.5c-0.1,0.2-0.2,0.4-0.4,0.5c-0.1,0.1-0.2,0.1-0.4,0.2s-0.3,0-0.4-0.1c-0.1-0.1,0-0.3,0-0.4
		c0.2-0.2,0.4-0.3,0.6-0.5c0.1-0.1,0.1-0.4-0.1-0.5c-0.4-0.3-0.8-0.2-1.2,0.1c-0.2,0.3-0.4,0.6-0.7,0.9c-0.1,0.2-0.4,0.2-0.5,0
		c-0.1-0.1-0.1-0.3,0-0.5c0.1-0.2,0.3-0.3,0.4-0.5c0.1-0.1,0-0.4-0.2-0.5c-0.5-0.2-1,0-1.3,0.4c-0.1,0.2-0.2,0.5-0.4,0.8
		c-0.1,0.2-0.4,0.2-0.6,0.1c-0.2-0.1-0.2-0.4,0-0.6c0.1-0.1,0.3-0.2,0.4-0.4c0.1-0.2,0.1-0.4-0.1-0.5c-0.5-0.2-0.8-0.1-1.1,0.3
		c-0.1,0.2-0.2,0.4-0.4,0.6c-0.1,0.2-0.4,0.2-0.6,0c-0.2-0.1-0.2-0.3-0.1-0.6c0,0,0.1-0.1,0.1-0.1c0.2-0.3,0.2-0.4-0.1-0.4
		c-0.5-0.1-1-0.2-1.3,0.4c-0.1,0.1-0.3,0.1-0.4,0c-0.1-0.1-0.1-0.2-0.2-0.3c-0.1-0.1-0.2-0.2-0.3-0.3c-0.9-0.1-1.7-0.6-2.6-0.7
		c-2-0.4-3.9-1-5.8-1.8c-1.4-0.6-2.7-1.1-4.1-1.5c-1.1-0.3-2.1-0.6-3.1-0.9c-1.6-0.4-3.3-0.5-4.9-0.7c-1.6-0.1-3.2-0.1-4.8-0.1
		c-1,0-2,0.2-3,0.1c-0.8-0.1-1.7,0.1-2.6,0.3c-1.1,0.2-2.3,0.4-3.4,0.3c-0.5,0-1.1-0.1-1.5,0.2c-0.1,0-0.2,0.1-0.3,0
		c-0.4-0.2-0.9-0.1-1.3,0.1c-0.2,0.1-0.4,0-0.6-0.1c-0.5-0.3-0.6-0.3-1,0c-0.1,0.1-0.1,0.2-0.2,0.2c-0.1,0.1-0.2,0.2-0.4,0.2
		c-0.2-0.1-0.1-0.3-0.1-0.5c0,0,0.1-0.1,0-0.2c0-0.1-0.1-0.2-0.2-0.2c0,0-0.1,0-0.2,0c-0.3,0.2-0.5,0.5-0.8,0.7c0,0-0.2,0.1-0.3,0
		c-0.1,0-0.2-0.2-0.1-0.4c0-0.1,0.1-0.2,0.1-0.3c0-0.2-0.1-0.3-0.2-0.3c-0.3,0-0.7,0-0.9,0.3c-0.1,0.2-0.2,0.4-0.4,0.6
		c-0.1,0.1-0.3,0.2-0.5,0.2c-0.1,0-0.3,0-0.3-0.2c0-0.1,0-0.2,0-0.3c0.1-0.1,0.2-0.2,0.4-0.2c0.1-0.1,0.2-0.2,0.2-0.3
		c0-0.2-0.2-0.3-0.4-0.3c-0.5,0-0.9,0-1.2,0.4c-0.2,0.2-0.4,0.4-0.6,0.6c-0.1,0.1-0.2,0.1-0.4,0.1c-0.1,0-0.2-0.1-0.2-0.2
		c0-0.1,0-0.2,0-0.3c0-0.1,0.1-0.1,0.2-0.2c0.2-0.1,0.6-0.1,0.5-0.5C60.4,71,60.1,71,59.8,71c-0.4,0-0.7,0-1,0.4
		c-0.2,0.3-0.5,0.5-0.8,0.8c-0.1,0.1-0.3,0.2-0.4,0.3c-0.2,0.1-0.5,0-0.6-0.1c-0.1-0.1,0-0.5,0.1-0.6c0.1-0.1,0.2-0.1,0.4-0.2
		c0.2-0.1,0.4-0.2,0.7-0.4c0.1-0.1,0.2-0.2,0.2-0.3c0-0.2-0.2-0.2-0.3-0.2c-0.6-0.2-1,0-1.4,0.5c-0.2,0.3-0.5,0.6-0.7,0.8
		c0,0-0.2,0.1-0.3,0c0,0,0-0.1,0-0.2c0.1-0.2,0.3-0.3,0.4-0.5c0.1-0.2,0.1-0.4,0-0.6c-0.1-0.2-0.5-0.2-0.7,0
		c-0.1,0.1-0.2,0.2-0.3,0.3C55,71,55,71.1,54.9,71.2c-0.1,0.1-0.2,0.2-0.4,0.1c-0.1,0-0.2-0.2-0.2-0.3c0-0.1,0-0.2,0-0.3
		c0-0.1-0.1-0.2-0.2-0.2c-0.2,0-0.3,0.1-0.5,0.2c-0.1,0.1-0.2,0.2-0.4,0.1c-0.4-0.2-0.6-0.1-0.8,0.2c-0.1,0.3-0.3,0.2-0.5,0.1
		c-0.2-0.2-0.5-0.2-0.7,0c-0.3,0.3-0.7,0.5-1.1,0.7c-0.9,0.4-1.6,1.7-1.4,2.7c0,0.4,0.1,0.7,0.1,1.1c0,0.4,0.3,0.8,0.5,1.1
		c0.2,0.3,0.2,0.6,0,0.9c-0.2,0.2-0.5,0.5-0.9,0.4c-0.5,0-0.9,0.2-1.4,0.5c-0.6,0.4-1.2,0.9-1.7,1.4c-0.1,0.1-0.3,0.4-0.1,0.6
		c0.1,0.1,0.3,0.1,0.5,0c1.1-0.6,2.3-0.8,3.5-1.1c0.3-0.1,0.6,0,0.9,0c0.1,0,0.2,0.1,0.2,0.3c0,0.1-0.1,0.2-0.2,0.2
		c-0.6,0.1-1.3,0.3-1.8,0.4c-0.4,0.1-0.8,0.2-1.2,0.3c-0.1,0-0.2,0.1-0.2,0.3c0,0.1,0.1,0.1,0.2,0.2c0.1,0,0.1,0,0.2,0
		c1.1-0.2,2.2,0,3.4-0.3c0.7-0.1,1.5,0.1,1.9,0.7c0.7,0.7,1.4,1.5,1.8,2.4c0.1,0.2,0.3,0.4,0.4,0.6c0.6,0.9,1.3,1.7,1.8,2.7
		c0.7,1.2,1.8,2.1,3,2.9c1.3,0.9,2.7,1.5,4.1,2.1c0.9,0.3,1.8,0.5,2.7,0.8c0.3,0.1,0.7,0.2,1.1,0.3c0.3,0.1,0.6,0.2,1,0.2
		c0.6,0,1.3,0.3,1.8,0.3c1,0.1,1.9,0.5,3,0.1c0.3-0.1,0.6-0.1,0.9-0.1c0.4,0,0.7-0.1,1.1,0.2c0.2,0.2,0.5,0.2,0.7,0.2
		c0.3,0,0.5,0,0.7-0.3c0.1-0.2,0.2-0.3,0.5-0.5c0.2-0.1,0.4,0,0.5,0.2c0,0.1,0,0.2,0,0.3c0,0.1,0.1,0.2,0.2,0.2
		c0.4-0.1,0.9-0.1,1.2-0.6c0.1-0.3,0.4-0.6,0.6-0.8c0.1-0.1,0.3-0.1,0.5,0c0.1,0.1,0.1,0.2,0,0.4c0,0-0.1,0.1-0.1,0.2
		c-0.1,0.3-0.1,0.5,0,0.5c0.4,0.1,0.8,0,0.8-0.3c0-0.4,0.2-0.7,0.4-1c0-0.1,0.2-0.1,0.3-0.2c0.1,0,0.3,0.1,0.3,0.2
		c0,0.2-0.1,0.4-0.1,0.6c0,0.1,0,0.3,0.1,0.4c0.1,0.1,0.3,0,0.4,0c0.3-0.1,0.4-0.3,0.5-0.6c0.1-0.3,0.2-0.7,0.5-1
		c0.1-0.1,0.3-0.2,0.5-0.1c0.2,0.1,0.2,0.3,0.1,0.5c0,0.2-0.2,0.3-0.3,0.5c0,0.1-0.1,0.2,0,0.3c0.1,0.1,0.2,0.2,0.4,0.1
		c0.5-0.1,0.9-0.4,1-0.9c0.1-0.4,0.4-0.8,0.6-1.2c0-0.1,0.1-0.1,0.2-0.2c0.1-0.1,0.3-0.1,0.4,0c0.2,0.1,0.2,0.3,0.1,0.5
		s-0.1,0.2-0.2,0.4c-0.1,0.2-0.3,0.3-0.5,0.5c-0.1,0.1-0.1,0.3,0,0.5c0.1,0.1,0.3,0.1,0.4,0c0.5-0.4,1.2-0.6,1.3-1.5
		c0-0.4,0.2-0.7,0.5-1c0.1-0.1,0.3-0.1,0.5,0s0.2,0.4,0.1,0.6c-0.1,0.1-0.2,0.3-0.4,0.4c-0.1,0.1-0.2,0.3-0.1,0.5
		c0.1,0.2,0.3,0.1,0.5,0c0.6-0.1,1.1-0.5,1.2-1.2c0.1-0.5,0.3-1,0.6-1.5c0.1-0.1,0.2-0.3,0.4-0.3c0.2,0,0.5,0.1,0.4,0.4
		c-0.1,0.2-0.2,0.5-0.3,0.7c-0.1,0.2-0.3,0.4-0.4,0.6c-0.1,0.2-0.3,0.3-0.2,0.6c0,0.2,0.4,0.2,0.7,0c0.6-0.3,1.3-0.7,1.2-1.6
		c0-0.3,0.1-0.6,0.3-0.8c0.2-0.2,0.4-0.5,0.5-0.8c0-0.2,0.3-0.2,0.4-0.2c0.2,0,0.4,0.1,0.5,0.3c0,0.1,0,0.3-0.1,0.4
		c-0.2,0.2-0.5,0.5-0.8,0.7c-0.3,0.2-0.5,0.5-0.6,0.9c0,0.1,0,0.2,0,0.3c0,0.1,0.2,0.1,0.3,0c0.9-0.3,1.6-0.9,1.8-1.7
		c0.2-0.9,0.8-1.6,1.2-2.4c0.1-0.2,0.2-0.4,0.4-0.5c0.1-0.1,0.3-0.1,0.5,0c0.1,0.1,0.2,0.3,0.2,0.5c-0.1,0.4-0.3,0.6-0.6,0.9
		c-0.3,0.4-0.6,0.7-1,1.1c-0.1,0.1-0.2,0.4-0.3,0.6c0,0,0,0.1,0.1,0.2c0,0,0.1,0.1,0.2,0c0.3-0.2,0.7-0.4,1.1-0.6
		c0.7-0.5,1.4-0.8,1.9-1.6c0.1-0.2,0.4-0.4,0.6-0.5c0.4-0.2,0.9-0.5,1.3-0.9c0.3-0.3,0.7-0.4,1.2-0.3c0.2,0,0.4,0.1,0.4,0.3
		c0,0.2,0,0.4-0.1,0.5c-0.1,0.1-0.2,0.2-0.3,0.3c-0.8,0.5-1.4,1.2-2,1.9c-0.8,1-1.9,1.8-3.1,2.4c-0.7,0.3-1.4,0.7-2.1,1.1
		c-0.8,0.4-1.7,0.7-2.5,0.9c-0.8,0.2-1.6,0.5-2.3,0.7c-0.4,0.1-0.9,0.2-1.3,0.3c-0.3,0-0.6,0.1-0.8,0.2c-0.3,0.1-0.5,0.2-0.9,0.1
		c0,0-0.1,0-0.2,0c-1.2,0.4-2.5,0.1-3.7,0.6c-0.1,0-0.4,0-0.5,0c-1.1,0-2.1,0.1-3.3,0.1c-0.3,0-0.6,0.1-0.9,0.1
		c-1.9,0-3.8,0-5.7-0.1c-1.7-0.1-3.3-0.4-4.9-0.7c-0.2,0-0.3-0.1-0.5-0.2c-0.6-0.4-1.4-0.6-2.1-0.7c-0.6-0.1-1.2-0.2-1.7-0.5
		c-0.9-0.4-1.7-0.8-2.5-1.3c-0.5-0.2-0.9-0.5-1.4-0.7c-0.6-0.2-1.1-0.8-1.6-1.3c-0.5-0.5-1.1-0.8-1.4-1.5c0,0-0.1-0.1-0.1-0.1
		c-0.5,0-0.6-0.4-0.6-0.9c0-0.1-0.1-0.2-0.2-0.1c-0.1,0-0.2,0.1-0.3,0.2c-0.1,0.1-0.3,0.3-0.5,0.1c-0.2-0.2,0-0.4,0.1-0.5
		c0.1-0.1,0.2-0.2,0.3-0.3c0.1-0.2,0-0.5-0.1-0.6c-0.2-0.1-0.4,0-0.5,0.1c-0.1,0.1-0.2,0.3-0.3,0.5c-0.1,0.1-0.2,0.3-0.3,0.5
		c-0.3,0.3-0.7,0.4-0.9,0.2c-0.1-0.2,0-0.4,0.3-0.8c0,0,0,0,0.1,0c0.5-0.4,0.6-0.7,0.4-0.7c-0.4-0.1-0.6,0.1-0.9,0.4
		c-0.5,0.5-1.2,1-1.6,1.6c-0.1,0.1-0.2,0.1-0.4,0.1s-0.2-0.3-0.1-0.5c0.1-0.1,0.2-0.2,0.3-0.3c0.2-0.2,0.5-0.3,0.8-0.5
		c0.1,0,0.2-0.1,0.3-0.1c0,0,0.1-0.2,0.1-0.3c0-0.2-0.2-0.2-0.3-0.1c-0.1,0-0.2,0-0.3,0.1c-1,0.4-2.1,0.9-3.1,1.3
		c-0.2,0.1-0.4,0.2-0.7,0.4c-0.5,0.3-1,0.7-1.5,1.1c-0.1,0.1-0.3,0.2-0.4,0.3c-0.9,0.6-1.1,1.5-0.9,2.5c0.2,1.2,0.3,2.4,0.8,3.5
		c0.2,0.4,0.2,0.9,0.3,1.4c0,0.2,0,0.4,0.3,0.4c0.3,0,0.3-0.3,0.3-0.5c0-0.3,0.1-0.6,0.2-0.9c0.1-0.4,0.5-0.6,0.9-0.3
		c0.3,0.2,0.5,0.5,0.8,0.8c0,0,0.1,0,0.2,0c0,0,0.1-0.1,0-0.2c0-0.3-0.2-0.5-0.3-0.8c-0.1-0.4-0.2-0.9,0-1.3c0-0.1,0.1-0.1,0.2-0.2
		c0.1,0,0.3,0,0.3,0.2c0.2,0.2,0.1,0.6,0.2,0.9c0.1,0.3,0.4,0.5,0.7,0.3c0.9-0.5,1.7-1.1,2.7-1.5c0.4-0.2,0.8-0.3,1.3-0.5
		c0.1,0,0.3-0.1,0.4,0c0.1,0,0.2,0.1,0.2,0.1c0.1,0.1,0,0.2,0,0.3c-0.2,0.3-0.5,0.5-0.8,0.5c-1,0.2-1.8,0.6-2.6,1.3
		c-0.3,0.3-0.7,0.3-1.1,0.5c-0.5,0.2-0.6,0.3-0.5,0.9c0,0.3,0.1,0.6,0.1,0.9c0,0.2-0.1,0.3-0.3,0.4c-0.1,0-0.3,0-0.4-0.1
		c-0.2-0.1-0.3-0.4-0.4-0.6c-0.2-0.3-0.3-0.7-0.8-0.6c-0.4,0.1-0.5,0.5-0.6,0.9c-0.1,0.4-0.1,0.9-0.2,1.3c0,0.3-0.1,0.6-0.2,0.9
		c0,0.2-0.2,0.3-0.4,0.3c-0.2,0-0.3-0.2-0.3-0.4c0-0.3,0-0.7-0.1-1c0-0.3,0-0.6-0.1-0.9c0-0.1-0.1-0.3-0.3-0.3s-0.3,0-0.4,0.2
		c-0.1,0.3-0.2,0.5-0.3,0.8c-0.3,0.8-0.6,1.6-0.7,2.4c0,0.2,0,0.4,0,0.7c0,0.1,0,0.3,0.1,0.4c0.1,0.1,0.3,0,0.4-0.1
		c0.1-0.2,0.2-0.5,0.5-0.6c0,0,0.1,0,0.2,0c0.1,0,0.1,0.2,0.1,0.3c-0.1,0.2-0.2,0.3-0.4,0.5c-0.2,0.3-0.4,0.6-0.6,0.9
		c-0.2,0.3-0.1,0.7,0.2,0.9c0.1,0,0.2,0,0.3,0c0,0,0.1-0.1,0.1-0.2c0.1-0.8,0.7-1.2,1.2-1.7c0.1-0.1,0.2-0.1,0.3,0
		c0.1,0.1,0.1,0.2,0,0.3c0,0,0,0.1-0.1,0.2c-0.7,0.5-0.9,1.4-1.4,2c-0.2,0.2-0.2,0.5,0,0.8c0,0.1,0.1,0.2,0.2,0.2
		c0.1,0,0.3,0,0.3-0.2c0.2-0.6,0.5-1.2,1-1.7c0.1-0.1,0.1-0.3,0.1-0.5C46.9,102,46.9,102,47.7,102.1L47.7,102.1L47.7,102.1
		L47.7,102.1c0.2-0.2,0.4-0.3,0.6-0.5c0.1-0.1,0.2-0.2,0-0.3c-0.1-0.1-0.3,0-0.4,0c-0.3,0.2-0.3,0.4-0.1,0.7l0,0L47.7,102.1
		L47.7,102.1z M147.3,67.9L147.3,67.9c0,0.1,0,0.1,0,0.1l0.1,0.6c0,0,0,0,0.1,0c0,0,0,0,0,0l0.1,0.4c0,0.1,0,0.2-0.1,0.3
		s-0.1,0.1-0.2,0.2l-1.7,0.4l-0.1,0l-0.1,0c0,0-0.1,0-0.1-0.1l0-0.2l0-0.2l0.2-0.3c0-0.1,0-0.2,0-0.4c0.1-0.1,0.2-0.3,0.3-0.6v0
		c0-0.1,0.1-0.2,0.2-0.4v0c0-0.1,0.1-0.3,0.2-0.4s0.1-0.2,0.2-0.4c0-0.1,0.2-0.2,0.3-0.3l0.3,0c0,0,0,0,0,0.1c0,0,0,0,0.1,0.1
		L147.3,67.9L147.3,67.9z M38.1,118.6c0,0.1-0.2,0.2-0.3,0.3l-1.3,0.3c-0.1-0.1-0.4,0-0.6-0.2h-0.1c-0.1-0.1-0.3-0.1-0.4-0.3
		c0-0.1-0.2-0.2-0.2-0.3c-0.1,0,0-0.3-0.2-0.2l-0.1-0.3c-0.1,0-0.1-0.2-0.2-0.2l-0.1-0.4l0-0.1l-0.1-0.4c0,0,0,0-0.1,0
		c0-0.1-0.1-0.2,0-0.3c0,0,0-0.1,0-0.1c0,0-0.1,0-0.1-0.1l0-0.2c0,0,0-0.1,0-0.1l-0.7-3.1l-0.1-0.1c0,0,0-0.1,0-0.2l-0.1-0.5l0-0.1
		c0-0.1,0-0.2,0-0.3c0-0.1,0-0.1,0-0.2l0.1-0.2v-0.1l0.2-0.4h0.1c0-0.1,0.1-0.2,0.2-0.3c0.1,0,0.2,0,0.2-0.1l0.3-0.1l0.1-0.1
		l0.9-0.2l0.1,0l0.2,0c0.1,0.1,0.3,0.1,0.4,0.2c0.1,0.1,0.3,0.1,0.4,0.2c0,0.1,0.2,0.1,0.1,0.2c0.2,0,0.3,0.3,0.4,0.4l0.4,1.9
		c0,0-0.1,0.1,0,0.2c0,0,0.1,0,0.1,0l0.2,0.8c0,0,0,0.1-0.1,0.1L38,114l0.2,1.1c0,0,0,0,0,0.1l0.1,0.3c0,0,0,0,0.1,0l0.2,1.1l0,0.1
		l0.1,0.5c0,0,0,0.1,0,0.1l0,0.1c-0.1,0.1-0.1,0.3-0.1,0.5l-0.3,0.5h-0.1V118.6z M60.4,132.1c0.2,0,0.5,0,0.8,0
		c0.1,0,0.1,0.1,0.2,0.1c0.2,0.1,0.5,0.2,0.8,0.3c0.4,0.1,0.7,0.3,1.1,0.5c0.1,0,0.2,0,0.3,0c0.1,0,0.2,0,0.3,0.2
		c0.1,0.1,0.1,0.2,0.2,0.3c0,0.1,0.2,0.2,0.3,0.2c0.1,0.1,0.2,0.2,0.3,0.4c0.1,0.2,0.2,0.4,0.3,0.7c0.1,0.3,0.1,0.6,0,0.9
		c0,0.3,0,0.6-0.1,0.9c0,0,0,0-0.1,0.1c0,0.1-0.1,0.2-0.1,0.4c-0.1,0.3-0.3,0.6-0.5,0.8c-0.1,0.1-0.1,0.2-0.2,0.3
		c0,0.1-0.1,0.2-0.3,0.2c-0.2,0-0.3,0.1-0.4,0.2s-0.2,0.1-0.4,0.1c-0.3,0-0.5,0.1-0.8,0.2c-0.1,0-0.3-0.2-0.5-0.2
		c-0.2,0-0.5-0.1-0.7-0.2s-0.4-0.2-0.6-0.3c-0.2-0.1-0.4-0.1-0.6-0.1c-0.2,0-0.5-0.1-0.7-0.2s-0.4-0.2-0.6-0.3
		c-0.3-0.1-0.4-0.4-0.3-0.8c0.1-0.3,0.2-0.5,0.3-0.8c0-0.1,0-0.2,0.1-0.3c0-0.1,0.1-0.2,0.2-0.3l0.4-1c0,0,0-0.1,0.1-0.2
		c0.1-0.1,0.1-0.3,0.1-0.5c0-0.1,0-0.3,0.1-0.4c0.1-0.1,0.2-0.2,0.2-0.5c0-0.1,0.1-0.2,0.1-0.4L60.4,132.1L60.4,132.1z M78.7,141.5
		c0,0.2,0,0.3-0.1,0.5c-0.1,0.3-0.3,0.6-0.4,0.9c-0.1,0.3-0.2,0.6-0.3,0.9c0,0.1,0,0.2-0.1,0.3c0,0.1,0,0.3-0.1,0.4
		c-0.1,0.3-0.2,0.7-0.4,1c-0.1,0.2-0.2,0.4-0.2,0.7c0,0,0,0.1,0,0.1c-0.1,0.2-0.1,0.5-0.2,0.7c0,0.1-0.1,0.2-0.1,0.3
		c0,0.2-0.1,0.4-0.2,0.5c0,0-0.1,0.1-0.1,0.1c-0.1,0.3-0.2,0.7-0.3,1.1c-0.1,0.4-0.3,0.8-0.5,1.2l-0.2,0.5c0,0.2,0,0.4-0.1,0.5
		c0,0.1,0,0.2-0.1,0.4c-0.1,0.3-0.3,0.6-0.2,1L75,153l0.7,0c0.3,0,0.6,0,0.8-0.1c0.2-0.1,0.5-0.1,0.6-0.4l0.2-0.4
		c0-0.2,0.2-0.4,0.1-0.6c0,0,0-0.1,0-0.1c0.1-0.3,0.2-0.6,0.4-0.9c0.1-0.4,0.5-0.6,0.9-0.6c0.5,0,0.9,0.1,1.5,0.1
		c0.2,0,0.5,0.1,0.7,0c0,0,0.1,0,0.1,0c0.1,0.1,0.3,0.1,0.4,0c0.1,0,0.2,0,0.2,0l1.7,0.1c0.2,0,0.4,0.2,0.6,0.3
		c0,0.1,0.1,0.2,0.1,0.3c0,0.1,0.1,0.2,0.1,0.3c0,0.1,0.1,0.2,0.1,0.3c0,0.1,0,0.2,0,0.3c0,0.2,0,0.4,0.1,0.6
		c0.1,0.2,0.1,0.4,0.1,0.7l0.1,0.3c0.2,0.1,0.4,0.2,0.7,0.2c0.1,0,0.2,0,0.3,0c0.1,0,0.3,0,0.5,0.1c0.2-0.1,0.5-0.1,0.7-0.3l0-0.5
		c0-0.2,0-0.3,0-0.5c-0.1-0.4-0.2-0.8-0.3-1.3c0-0.2,0-0.4-0.1-0.6c0-0.1,0-0.1,0-0.2c0-0.2,0-0.5-0.1-0.8c-0.1-0.2-0.1-0.5-0.2-0.8
		c-0.1-0.2-0.1-0.4-0.1-0.6c0-0.2,0-0.3-0.1-0.5c0-0.1-0.1-0.2-0.1-0.3c0-0.4-0.2-0.7-0.2-1.1c-0.1-0.3-0.1-0.7-0.2-1
		c0-0.3-0.1-0.5-0.1-0.8c0-0.2-0.1-0.4-0.1-0.6c-0.2-0.4-0.2-0.5-0.2-0.7c0-0.2-0.1-0.3-0.2-0.5c0-0.1,0-0.2,0-0.3
		c0-0.3-0.1-0.6-0.2-0.9c0-0.1,0-0.1,0-0.2c-0.1-0.3-0.1-0.6-0.2-0.8c0-0.2,0-0.4-0.1-0.6c-0.1-0.4-0.1-0.7-0.2-1.1l-0.1-0.4
		c0-0.2-0.2-0.4-0.2-0.6c0-0.2,0-0.5-0.1-0.8c-0.1-0.3-0.2-0.6-0.2-0.9c0-0.1-0.1-0.3-0.2-0.4c-0.3-0.2-0.6-0.2-0.9-0.3
		c-0.4-0.1-0.7-0.1-1.1,0c-0.3,0.2-0.5,0.4-0.6,0.8c0,0.2,0,0.4-0.1,0.6c-0.1,0.1-0.1,0.3-0.1,0.4c0,0.3-0.1,0.5-0.3,0.7
		c-0.1,0.2-0.2,0.4-0.2,0.6c-0.2,0.3-0.3,0.7-0.4,1c0,0.1-0.1,0.3-0.1,0.4c-0.1,0.3-0.2,0.5-0.2,0.8c0,0.3-0.1,0.5-0.3,0.7
		L78.7,141.5z M82.9,143.9c0,0.1,0,0.3,0.2,0.4c0.1,0.1,0.1,0.3,0.1,0.4c0,0.1,0,0.2,0,0.3s0,0.3,0.1,0.4c0,0.1,0.1,0.2,0.1,0.4
		c0,0.2,0,0.5,0.1,0.7c0,0.2,0,0.4,0,0.7c-0.1,0.1-0.2,0.2-0.3,0.3l-0.7,0l-0.7,0c-0.2,0-0.4,0-0.7,0c-0.2,0-0.4-0.1-0.7-0.1
		c-0.2,0-0.4,0-0.6,0l-0.1,0c-0.2-0.1-0.3-0.3-0.3-0.6c0-0.3,0.1-0.6,0.1-0.9c0-0.2,0.2-0.4,0.2-0.6c0-0.1,0-0.1,0-0.3
		c0.1-0.2,0.3-0.4,0.3-0.7c0-0.1,0-0.2,0.1-0.3c0-0.1,0.1-0.3,0.1-0.5c0-0.3,0.2-0.4,0.3-0.7c0.1-0.3,0.2-0.6,0.4-0.9
		c0,0,0-0.1,0-0.2c0-0.2,0.1-0.4,0.2-0.5c0.1-0.2,0.2-0.4,0.4-0.5h0.2c0.3,0.1,0.3,0.4,0.4,0.6c0.1,0.3,0.2,0.5,0.2,0.8
		c0.1,0.1,0,0.3,0.1,0.4c0,0.3,0.1,0.5,0.1,0.7c0,0.1,0.1,0.3,0.1,0.5C83,143.7,83,143.7,82.9,143.9L82.9,143.9z M100.2,136.2
		c0,0,0.1,0.1,0.1,0.3c0,0.2,0,0.3,0.2,0.4c0.1,0.1,0.3,0.5,0.3,0.7c0,0.1,0.1,0.2,0.1,0.3c0,0.1,0,0.2,0.1,0.4
		c0.1,0.3,0.3,0.6,0.4,0.9l0.6,1.5c0,0.1,0.1,0.2,0.1,0.4c0,0,0,0.1,0,0.1c0.1,0,0.1,0.1,0.1,0.3l0.4,1.1l0,0.2
		c0.1,0.2,0.1,0.2,0.2,0.5c0,0.1,0,0.2,0.1,0.2c0.1,0,0.1,0.1,0.1,0.2c0.1,0.3,0.2,0.6,0.2,0.9c0,0.1,0,0.2,0.1,0.2
		c0.1,0.1,0.1,0.3,0.2,0.3c0.1,0.1,0.1,0.2,0.2,0.4c0.1,0.2,0.1,0.4,0.2,0.5c0,0,0,0.1,0.1,0.1c0.1,0.1,0.1,0.3,0.2,0.4
		c0,0.1,0,0.2,0,0.3l0.9,2.4c0.1,0.2,0.2,0.3,0.4,0.4c0.2,0.1,0.4,0,0.6,0c0.1,0,0.3-0.1,0.4-0.1c0.2-0.1,0.5-0.2,0.6-0.4
		c0-0.1,0-0.1,0-0.2V149c0,0,0-0.1,0-0.2c0,0,0,0,0,0c0-0.2-0.1-0.6-0.3-0.8s-0.2-0.4-0.3-0.6c0.1-0.1-0.1-0.2-0.1-0.4
		c0-0.2-0.1-0.3-0.1-0.4c-0.1-0.3-0.3-0.6-0.4-0.9l-0.4-0.9l-0.5-1.3c0,0,0-0.1-0.1-0.2c0,0-0.1-0.1,0-0.1c0-0.1,0-0.2,0-0.2
		l-0.2-0.6c0,0,0-0.1,0-0.2c0,0-0.1-0.1-0.1-0.2c-0.1-0.3-0.3-0.6-0.4-0.9c0-0.1,0-0.2,0-0.3l-0.1-0.3l-0.4-1.2
		c0-0.1-0.1-0.2-0.1-0.3s0-0.3-0.2-0.4c-0.1-0.2-0.2-0.4-0.3-0.6c-0.1-0.2-0.2-0.3-0.1-0.5l-0.5-1.2l0,0c-0.1-0.2-0.2-0.4-0.3-0.6
		c0-0.1,0-0.3,0.1-0.5c0.1-0.3,0.3-0.4,0.6-0.6c0.1,0,0.1-0.1,0.1-0.1l0.4-0.1c0.3,0,0.7-0.2,1-0.4c0.1-0.1,0.2-0.1,0.3-0.2l1.1-0.4
		c0.1,0,0.2-0.1,0.3-0.3c0.1-0.2,0.1-0.8,0-1.1c0,0-0.1-0.1-0.1-0.1c-0.1-0.3-0.3-0.4-0.6-0.5l-0.4,0.1c-0.1,0-0.1,0.1-0.2,0
		c-0.2,0.1-0.3,0-0.5,0.1c-0.1,0-0.1,0.1-0.2,0.1c-0.1,0-0.3,0.1-0.5,0.1c-0.1,0-0.3,0.1-0.4,0.2c-0.3,0.1-0.6,0.2-0.9,0.4
		c-0.1,0.1-0.3,0-0.4,0.1c-0.2,0.1-0.5,0.1-0.7,0.3c-0.1,0.1-0.2,0.1-0.3,0.1c-0.1,0-0.2,0-0.4,0.1c-0.4,0.2-0.8,0.2-1.2,0.5
		c-0.2,0.1-0.4,0.1-0.6,0.2l-1.4,0.5c-0.1,0-0.3,0.1-0.4,0.1c0,0-0.1,0-0.1,0c0,0.1-0.2,0.1-0.2,0.1c-0.1,0-0.1,0.1-0.3,0.1
		c-0.2,0.1-0.5,0.1-0.7,0.2c-0.1,0.1-0.3,0.3-0.3,0.5c0,0.2,0,0.4,0,0.7c0.1,0.1,0.1,0.3,0.2,0.5c0.1,0.1,0.1,0.2,0.3,0.3l0.2,0.1
		c0.1,0,0.2,0,0.4,0c0.1,0,0.2-0.1,0.4-0.1c0.1,0,0.3,0,0.4-0.1c0.1,0,0.2-0.2,0.4-0.2c0.1,0,0.3,0,0.4-0.1c0.2-0.1,0.3-0.1,0.5-0.2
		c0.2-0.1,0.5-0.2,0.8-0.2c0,0,0.1,0,0.2,0c0.1,0,0.2,0,0.3,0c0.1,0,0.3,0.1,0.5,0.3L100.2,136.2z M114.7,128.8
		C114.7,128.8,114.7,128.8,114.7,128.8c0.1,0.3,0.2,0.6,0.4,0.8c0.1,0.1,0.2,0.2,0.3,0.3c0.1,0.2,0.3,0.4,0.4,0.7
		c0.1,0.2,0.3,0.5,0.5,0.8c0.1,0.1,0.3,0.3,0.4,0.5c0.1,0.2,0.3,0.3,0.4,0.5c0.1,0.1,0.1,0.3,0.2,0.4c0.4,0.5,0.7,1.2,1.2,1.6
		c0.1,0.1,0.1,0.3,0.2,0.4c0.1,0.3,0.4,0.6,0.5,0.9c0,0.1,0.1,0.2,0.2,0.3c0.1,0.1,0.2,0.2,0.3,0.3l1.7,2.5c0,0,0.1,0.1,0.1,0.1
		c0.1,0.3,0.1,0.3,0.3,0.5c0.1,0.1,0.3,0.3,0.4,0.5c0,0.1,0.1,0.3,0.2,0.4l0.2,0.4c0.2,0.3,0.4,0.4,0.8,0.4c0.1,0,0.3-0.1,0.5-0.1
		c0.2-0.1,0.4-0.4,0.7-0.6c0-0.2,0.1-0.4,0.1-0.6c0,0,0,0,0-0.1c0-0.3-0.3-0.5-0.5-0.8c-0.1,0-0.1-0.2-0.2-0.2
		c-0.1,0-0.2-0.1-0.2-0.2c-0.1-0.2-0.2-0.3-0.3-0.5c-0.2-0.3-0.4-0.7-0.6-1c-0.1-0.2-0.3-0.4-0.5-0.6c-0.1-0.1-0.3-0.2-0.4-0.4
		c-0.1-0.1-0.1-0.4-0.2-0.5c-0.2-0.3-0.4-0.7-0.7-0.9c-0.2-0.2-0.4-0.6-0.6-0.9c0,0,0-0.1,0-0.1c0-0.2-0.1-0.3-0.2-0.4
		c-0.2-0.2-0.2-0.2-0.3-0.5c0-0.2-0.1-0.3-0.2-0.4c0,0-0.1-0.1-0.1-0.1c-0.1-0.2-0.3-0.5-0.5-0.7s-0.3-0.4-0.5-0.7
		c-0.1-0.1-0.1-0.2-0.2-0.2c0-0.1,0-0.2-0.1-0.2c-0.3-0.5-0.7-0.9-0.9-1.5c-0.2-0.3-0.5-0.6-0.7-0.9c-0.5-0.7-0.9-1.4-1.5-2.1
		c-0.1,0-0.2-0.1-0.3-0.1l-0.3,0.2c-0.1,0-0.1,0.1-0.2,0.2c-0.1,0.1-0.2,0.1-0.3,0.2c-0.2,0-0.3,0.2-0.4,0.4c-0.1,0.2-0.2,0.3,0,0.6
		c0,0,0,0,0,0.1c0,0,0.1,0,0.1,0c0,0,0,0,0.1,0.1c0.1,0.1,0.2,0.3,0.4,0.4c0.1,0,0.1,0.1,0.2,0.3
		C114.3,128.4,114.5,128.6,114.7,128.8C114.7,128.8,114.7,128.8,114.7,128.8L114.7,128.8L114.7,128.8z M87.7,17.6
		c0.2-0.1,0.5-0.2,0.8-0.3c0.1,0,0.1,0,0.2,0c0.3,0,0.5,0,0.8,0c0.4,0,0.8,0.1,1.2,0.1c0.1,0,0.2,0,0.3,0c0.1,0,0.2,0,0.4,0.1
		c0.1,0.1,0.2,0.1,0.3,0.2c0.1,0,0.2,0.1,0.3,0.1c0.1,0,0.3,0.1,0.4,0.3c0.2,0.2,0.3,0.3,0.5,0.6c0.2,0.2,0.3,0.5,0.3,0.9
		c0,0.3,0.1,0.5,0.2,0.9c0,0,0,0.1,0,0.1c0,0.1,0,0.2,0,0.4c0,0.3-0.1,0.6-0.2,0.9c0,0.1-0.1,0.2-0.1,0.3c0,0.1-0.1,0.2-0.2,0.3
		c-0.1,0.1-0.2,0.2-0.3,0.4c-0.1,0.1-0.2,0.2-0.3,0.2c-0.2,0.1-0.5,0.2-0.7,0.4c-0.1,0-0.3-0.1-0.5,0c-0.2,0.1-0.5,0-0.7,0
		c-0.2,0-0.4,0-0.6-0.1c-0.2,0-0.4,0-0.6,0c-0.2,0-0.5,0-0.7,0c-0.2,0-0.4-0.1-0.6-0.1c-0.3,0-0.5-0.3-0.5-0.6c0-0.3,0-0.6,0-0.9
		c0-0.1-0.1-0.2,0-0.3c0-0.1,0-0.2,0.1-0.3l0.1-1.1c0-0.1,0-0.1,0.1-0.2c0.1-0.1,0-0.3,0-0.5c0-0.1,0-0.3,0-0.4c0-0.2,0.1-0.3,0-0.5
		c0-0.1,0-0.2,0-0.4L87.7,17.6L87.7,17.6z M108.6,25.7c-0.1,0.1-0.1,0.3-0.3,0.4c-0.2,0.2-0.5,0.4-0.7,0.7c-0.2,0.2-0.4,0.5-0.6,0.7
		c-0.1,0.1-0.1,0.1-0.2,0.3c0,0.1-0.1,0.2-0.2,0.3c-0.3,0.3-0.5,0.5-0.7,0.7c-0.2,0.1-0.3,0.3-0.4,0.5c0,0,0,0-0.1,0.1
		c-0.2,0.1-0.3,0.4-0.5,0.6c-0.1,0.1-0.1,0.2-0.2,0.3c0,0.2-0.2,0.3-0.3,0.4c0,0-0.1,0-0.1,0.1c-0.2,0.3-0.4,0.6-0.7,0.9
		c-0.2,0.3-0.5,0.6-0.9,0.9l-0.3,0.4c-0.1,0.1-0.1,0.3-0.3,0.5c-0.1,0.1-0.1,0.2-0.2,0.3c-0.2,0.2-0.5,0.4-0.6,0.8l0.1,0.4l0.6,0.3
		c0.2,0.1,0.5,0.2,0.8,0.2s0.5,0,0.7-0.2l0.3-0.3c0.1-0.1,0.3-0.3,0.4-0.5c0,0,0.1-0.1,0.1-0.1c0.2-0.2,0.5-0.5,0.7-0.7
		c0.3-0.3,0.7-0.4,1.1-0.2c0.5,0.1,0.8,0.5,1.3,0.6c0.2,0.1,0.4,0.2,0.6,0.2c0,0,0.1,0,0.1,0.1c0.1,0.1,0.2,0.2,0.4,0.2
		c0.1,0,0.2,0,0.2,0l1.5,0.7c0.2,0.1,0.3,0.3,0.5,0.6c0,0.1,0,0.2,0,0.3c0,0.1,0,0.2,0,0.3s0,0.2,0,0.4c0,0.1,0,0.2-0.1,0.3
		c-0.1,0.2-0.1,0.4-0.1,0.6c0,0.2,0,0.5-0.1,0.7v0.4c0.1,0.2,0.3,0.3,0.5,0.4c0.1,0,0.2,0,0.3,0.1c0.1,0.1,0.3,0.1,0.4,0.3
		c0.2,0,0.5,0,0.8,0l0.2-0.5c0-0.1,0.1-0.3,0.1-0.5c0-0.4,0-0.8,0.1-1.3c0-0.2,0.1-0.4,0.1-0.6c0-0.1,0-0.1,0-0.2
		c0.1-0.2,0.1-0.4,0.2-0.7c0-0.2,0-0.5,0-0.8c0-0.2,0-0.4,0.1-0.6c0.1-0.2,0.1-0.3,0-0.5c0-0.1,0-0.2,0-0.3c0.1-0.4,0-0.8,0.2-1.1
		c0-0.3,0.1-0.7,0.2-1c0-0.3,0.1-0.5,0.1-0.8c0-0.2,0-0.4,0.1-0.6c0-0.4,0-0.5,0.1-0.8c0-0.2,0-0.3,0-0.5c0-0.1,0-0.2,0.1-0.3
		c0.1-0.3,0.1-0.6,0.1-0.9c0-0.1,0-0.1,0-0.2c0-0.3,0.1-0.6,0-0.9c0-0.2,0.1-0.4,0.1-0.6c0-0.4,0.1-0.7,0.2-1.1l0-0.4
		c0-0.2,0-0.4,0-0.6c0.1-0.2,0.1-0.5,0.1-0.8c0-0.3,0-0.6,0.1-0.9c0-0.1,0-0.3-0.1-0.4c-0.2-0.3-0.5-0.4-0.8-0.6
		c-0.3-0.2-0.6-0.4-1-0.4c-0.3,0.1-0.6,0.2-0.9,0.5c0,0.2-0.1,0.3-0.4,0.5c-0.1,0.1-0.2,0.2-0.3,0.3c-0.1,0.2-0.3,0.4-0.5,0.6
		c-0.1,0.2-0.4,0.3-0.4,0.5c-0.3,0.2-0.5,0.5-0.8,0.8c-0.1,0.1-0.2,0.2-0.3,0.4c-0.2,0.2-0.4,0.4-0.5,0.7
		C109.1,25.5,108.9,25.7,108.6,25.7L108.6,25.7z M111.7,29.5c0,0.1,0,0.3,0,0.5c0,0.2,0,0.3,0,0.5c0,0.1,0,0.2-0.1,0.3
		c0,0.1,0,0.3,0,0.5c0,0.1,0,0.3,0,0.4c-0.1,0.2-0.1,0.5-0.1,0.7c0,0.2-0.1,0.4-0.2,0.6c-0.2,0-0.3,0.1-0.5,0.2l-0.6-0.3l-0.6-0.3
		c-0.2-0.1-0.4-0.2-0.6-0.2c-0.2,0-0.4-0.3-0.6-0.3c-0.2-0.1-0.4-0.2-0.6-0.3l-0.1-0.1c-0.1-0.2-0.2-0.4,0-0.7
		c0.1-0.3,0.3-0.5,0.5-0.8c0.1-0.2,0.3-0.3,0.4-0.5c0-0.1,0.1-0.1,0.1-0.2c0.2-0.1,0.4-0.3,0.5-0.6c0-0.1,0.1-0.2,0.2-0.2
		c0.1-0.1,0.2-0.2,0.3-0.4c0.1-0.2,0.4-0.3,0.5-0.6c0.2-0.2,0.4-0.4,0.6-0.7c0,0,0-0.1,0.1-0.2c0.1-0.2,0.2-0.3,0.4-0.4
		c0.2-0.1,0.3-0.3,0.6-0.3l0.2,0.1c0.3,0.2,0.2,0.5,0.2,0.7c0,0.3,0,0.5-0.1,0.8c0,0.2-0.1,0.2,0,0.4c-0.1,0.2-0.1,0.5-0.1,0.7
		c0,0.1,0,0.3,0,0.5C111.8,29.3,111.7,29.3,111.7,29.5L111.7,29.5z M132.7,41.3C132.7,41.3,132.7,41.4,132.7,41.3
		c-0.2,0.3-0.4,0.5-0.6,0.7c-0.1,0.1-0.3,0.3-0.4,0.4c-0.2,0.1-0.4,0.3-0.7,0.2c-0.1,0-0.2,0-0.3-0.1c0,0-0.1-0.1-0.2-0.1
		c-0.2-0.1-0.3-0.2-0.4-0.4c-0.2-0.3-0.1-0.3-0.4-0.4c-0.1-0.1-0.3-0.2-0.3-0.3c-0.1-0.2-0.2-0.3-0.4-0.5c-0.4-0.5-0.7-1-1.2-1.5
		c-0.1-0.1-0.2-0.4-0.2-0.5c0-0.2,0.1-0.4,0.2-0.6c0.1-0.1,0.4-0.2,0.4-0.4c0.2-0.2,0.5-0.4,0.7-0.7c0.1-0.1,0.2-0.3,0.4-0.3
		c0,0,0.1,0,0.1-0.1c0.2-0.2,0.6-0.4,0.8-0.8c0.1-0.1,0.3-0.1,0.4-0.3c0.3-0.2,0.5-0.5,0.8-0.8c0,0,0,0,0-0.1c0,0,0,0,0.1,0
		c0.2-0.1,0.3-0.2,0.5-0.3c0.1-0.1,0.2-0.1,0.3-0.2c0.2-0.1,0.3-0.3,0.3-0.5c0-0.3-0.1-0.6-0.3-0.9c-0.1-0.1-0.2-0.2-0.3-0.4
		c-0.1-0.1-0.2-0.1-0.3-0.2c-0.2,0-0.4,0-0.7,0.1c-0.1,0.1-0.2,0.1-0.3,0.2c-0.1,0.1-0.2,0.2-0.3,0.3c-0.1,0.1-0.2,0.2-0.3,0.3
		c0,0-0.1,0.1-0.2,0.1c-0.2,0.2-0.4,0.4-0.6,0.6c-0.1,0.1-0.2,0.2-0.4,0.3c-0.1,0-0.2,0.1-0.3,0.2c-0.1,0.1-0.2,0.1-0.3,0.2
		c0,0-0.1,0-0.1,0.1c0,0.1-0.1,0.1-0.2,0.2c-0.1,0.1-0.2,0.2-0.4,0.3c-0.1,0.1-0.2,0.2-0.3,0.2c-0.1,0-0.2,0.1-0.2,0.2
		c0,0.2-0.3,0.3-0.4,0.5c0,0-0.1,0-0.1,0c0,0,0,0.1,0,0.1c-0.1,0.1-0.3,0.3-0.4,0.4c-0.1,0-0.3,0.2-0.4,0.3
		c-0.1,0.1-0.3,0.2-0.4,0.3c-0.1,0.1-0.2,0.3-0.4,0.5c-0.4,0.4-0.8,0.7-1.3,1.1c-0.1,0.1-0.2,0.1-0.2,0.1c-0.1,0.1-0.2,0.2-0.3,0.3
		c-0.2,0.4-0.5,0.6-0.8,0.9c-0.2,0.2-0.4,0.2-0.5,0.5c0,0,0,0.1-0.1,0.1c-0.2,0-0.2,0.1-0.3,0.2l-0.3,0.2c-0.1,0.1-0.3,0.2-0.4,0.4
		c-0.1,0.2-0.2,0.3-0.3,0.4c0,0,0,0,0,0c0,0.1-0.2,0.3-0.4,0.3c-0.1,0-0.2,0.1-0.3,0.1c-0.3,0.2-0.5,0.5-0.7,0.7
		c0,0.1-0.1,0.1-0.1,0.2c-0.1,0.2,0,0.8,0.2,0.9c0,0,0.1,0,0.1,0.1c0.1,0.1,0.2,0.2,0.3,0.3c0.1,0.1,0.3,0.2,0.4,0.2
		c0.1,0,0.2,0,0.3,0c0.2-0.2,0.5-0.3,0.6-0.6c0-0.1,0.2-0.2,0.3-0.3c0.1,0,0.2-0.1,0.3-0.2c0.1,0,0.2-0.1,0.3-0.2
		c0.1-0.1,0.2-0.3,0.4-0.4c0.3-0.3,0.7-0.6,1-1c0.3-0.3,0.5-0.6,1-0.8c0.2-0.3,0.5-0.4,0.8-0.6c0.3-0.2,0.6-0.4,1-0.3
		c0,0,0.1,0,0.2,0.1c0.2,0.1,0.4,0.2,0.5,0.3c0.2,0.2,0.3,0.4,0.4,0.6c0.2,0.3,0.5,0.6,0.8,0.8c0.2,0.2,0.4,0.4,0.6,0.6
		c0,0,0,0.1,0,0.1c0,0.1,0.2,0.1,0.2,0.2c0.3,0.2,0.3,0.5,0.4,0.8c0,0.3,0,0.4-0.1,0.6c0,0.1-0.1,0.1-0.2,0.2
		c-0.1,0.2-0.2,0.4-0.5,0.5c-0.1,0-0.2,0.2-0.4,0.3c-0.1,0.1-0.3,0.2-0.4,0.3c-0.3,0.2-0.5,0.6-0.8,0.8c-0.1,0-0.2,0.1-0.2,0.2
		s-0.1,0.1-0.2,0.2c0,0-0.1,0.1-0.2,0.1c-0.1,0-0.1,0.1-0.2,0.2c0,0-0.1,0.1-0.1,0.1c-0.2,0.1-0.3,0.2-0.5,0.3l-0.2,0.2
		c-0.3,0.3-0.7,0.5-0.9,0.9c0,0.4,0,0.7,0.3,1c0.1,0.1,0.1,0.1,0.2,0.2c0.2,0.1,0.4,0.3,0.7,0.3h0.2c0,0,0.1,0,0.2-0.1
		c0.5-0.3,0.9-0.8,1.4-1.1c0.4-0.2,0.7-0.6,1-1c0.2-0.2,0.4-0.3,0.5-0.5c0,0,0-0.1,0.1-0.1c0.1,0,0.1-0.1,0.2-0.1
		c0.1,0,0.2-0.1,0.3-0.2c0.3-0.2,0.4-0.5,0.7-0.7c0.1-0.1,0.3-0.3,0.4-0.3c0.1,0,0.3-0.2,0.4-0.2c0.1-0.1,0.3-0.2,0.3-0.4
		c0-0.1,0.1-0.1,0.1-0.1c0.2,0,0.3-0.1,0.4-0.3c0-0.1,0.1-0.2,0.2-0.3c0.1-0.1,0.2-0.2,0.4-0.3c0.3-0.2,0.4-0.5,0.8-0.6
		c0,0,0.1,0,0.1-0.1c0-0.2,0.2-0.3,0.3-0.4c0.1-0.1,0.2-0.1,0.2-0.3c0.2-0.1,0.2-0.2,0.4-0.3c0.2-0.1,0.4-0.3,0.5-0.5
		c0.1,0,0.1,0,0.2-0.1c1.1-1,2.2-2,3.3-3c0,0,0.1,0,0.1-0.1c0,0,0.1-0.1,0.1-0.2c0-0.2-0.1-0.5-0.2-0.7c-0.2-0.3-0.4-0.4-0.7-0.6
		c-0.2-0.1-0.3-0.3-0.6-0.1l-0.1,0.1c-0.2,0.2-0.4,0.4-0.6,0.5c-0.1,0-0.3,0.1-0.4,0.2c-0.2,0.2-0.4,0.4-0.5,0.6l0,0
		c0,0.2-0.2,0.3-0.3,0.3c-0.2,0.1-0.2,0.2-0.5,0.3c0,0,0,0.1-0.1,0.1c-0.1,0.1-0.1,0.3-0.3,0.4c0,0-0.1,0-0.2,0.1
		c-0.2,0.1-0.4,0.2-0.6,0.4c0,0-0.1,0-0.2,0.1L132.7,41.3z M26.9,65.2c0.1,0,0.3,0,0.5,0c0.2,0,0.3,0,0.5,0c0.1,0,0.2,0,0.3,0.1
		c0.1,0,0.3,0,0.5,0c0.1,0,0.3,0,0.4,0c0.2,0.1,0.5,0.1,0.7,0.1c0.2,0,0.4,0.1,0.6,0.2c0.1,0.1,0.1,0.3,0.2,0.4l-0.2,0.6l-0.2,0.6
		c0,0.2-0.1,0.4-0.1,0.6c0,0.2-0.2,0.4-0.3,0.6c0,0.2-0.1,0.4-0.2,0.6l-0.1,0.1c-0.2,0.1-0.4,0.2-0.7,0.1c-0.3-0.1-0.6-0.2-0.8-0.4
		c-0.2-0.1-0.3-0.3-0.5-0.4c-0.1,0-0.1-0.1-0.3-0.1c-0.1-0.2-0.3-0.4-0.6-0.5c-0.1,0-0.2-0.1-0.2-0.2c-0.1-0.1-0.2-0.2-0.4-0.3
		c-0.2-0.1-0.4-0.3-0.6-0.5c-0.2-0.1-0.5-0.4-0.7-0.6c0,0-0.1,0-0.2-0.1c-0.2-0.1-0.3-0.2-0.5-0.4c-0.1-0.2-0.3-0.3-0.4-0.5l0.1-0.2
		c0.2-0.3,0.4-0.2,0.7-0.2c0.3,0,0.5,0,0.9,0c0.1-0.1,0.2,0.1,0.4,0c0.2,0.1,0.5,0,0.7,0c0.1,0,0.3,0,0.5,0
		C26.7,65,26.7,65.1,26.9,65.2L26.9,65.2z M39.7,47.5c-0.2,0-0.3,0.1-0.4,0c-0.2-0.1-0.5-0.1-0.7-0.2c-0.2-0.1-0.5-0.2-0.7-0.2
		c-0.2,0-0.5,0-0.7-0.1l-0.5-0.2l-0.6-0.2c-0.1,0-0.3,0-0.4-0.1c-0.3-0.1-0.6-0.2-0.9-0.2c-0.2,0-0.5-0.1-0.7-0.1
		c-0.3-0.1-0.7-0.2-1-0.3c-0.3,0-0.6-0.2-0.9-0.2c-0.4,0-0.7-0.1-1-0.3c-0.1,0-0.1,0-0.2,0c-0.4-0.1-0.8-0.2-1.2-0.3
		c-0.2,0-0.4-0.1-0.6-0.1c-0.1,0-0.2-0.1-0.4-0.1c-0.2,0-0.4,0-0.6,0c-0.3,0-0.5,0-0.7,0.2c-0.3,0.3-0.5,0.7-0.8,1l0,0.1
		c0,0.2,0,0.3,0,0.5c0,0.1,0.2,0.1,0.2,0.3c0,0,0,0,0.1,0.1c0,0,0.1,0.1,0.1,0.1c0.2,0,0.2,0.1,0.3,0.2c0.1,0,0.2,0.1,0.3,0.2
		c0.1,0,0.2,0.2,0.3,0.2c0.1,0,0.1,0.1,0.2,0.2c0.1,0.3,0.4,0.5,0.6,0.6c0.6,0.5,1.2,1,1.7,1.4c0,0,0.1,0.1,0.2,0.1
		c0.1,0.1,0.3,0.3,0.5,0.4c0.2,0.1,0.4,0.1,0.5,0.3c0.1,0.1,0.2,0.1,0.3,0.3c0.2,0.1,0.2,0.3,0.5,0.3c0,0,0.1,0,0.1,0
		c0,0.1,0.1,0.2,0.2,0.2c0.3,0.3,0.6,0.6,1,0.8c0.2,0.1,0.3,0.3,0.5,0.5c0,0,0.1,0.1,0.2,0.1c0.2,0.1,0.4,0.1,0.5,0.3
		c0.1,0.2,0.3,0.2,0.4,0.4l1.2,1c0,0,0.1,0,0.1,0.1c0,0.2,0.2,0.2,0.4,0.4c0.1,0.1,0.3,0.3,0.4,0.3c0.2,0.1,0.4,0.3,0.6,0.4
		c0,0,0,0.1,0.1,0.1c0,0,0,0,0,0c0.2,0.1,0.5,0.3,0.7,0.6c0,0.1,0.1,0.2,0.2,0.2c0.1,0,0.2,0.1,0.3,0.1c0.1,0,0.2,0.1,0.2,0.1l0.4,0
		c0.1,0,0.2-0.1,0.3-0.1l0.5-0.6c0,0,0.1,0,0.1-0.1c0-0.3,0.1-0.6,0-0.9c-0.1-0.1-0.1-0.2-0.2-0.3c-0.2-0.1-0.4-0.2-0.6-0.3
		c-0.2-0.1-0.3-0.2-0.4-0.3c-0.1-0.2-0.3-0.5-0.6-0.6l-0.2-0.1c-0.2-0.1-0.4-0.3-0.6-0.5c-0.2-0.2-0.4-0.3-0.6-0.4
		c-0.1,0-0.1-0.1-0.2-0.2c-0.3-0.3-0.7-0.6-1.1-0.9c0,0,0,0-0.1-0.1c-0.5-0.2-0.4-0.3-0.7-0.6c-0.1-0.1-0.2-0.2-0.3-0.3
		c-0.2-0.1-0.4-0.1-0.5-0.3c0-0.1-0.1-0.1-0.2-0.2c-0.1-0.1-0.3-0.2-0.5-0.3c-0.2-0.1-0.4-0.2-0.5-0.5c-0.1-0.2-0.3-0.2-0.5-0.4
		c0,0,0,0,0,0v-0.2c0-0.1,0.1-0.2,0.3-0.2c0.3,0,0.6-0.1,0.9,0c0.4,0.1,0.9,0.1,1.3,0.3c0.2,0,0.3,0.1,0.5,0.1c0.3,0,0.6,0.2,1,0.2
		c0.4,0.2,0.8,0.3,1.2,0.3c0.1,0.2,0.3,0.2,0.6,0.2c0.1,0,0.3,0,0.4,0.1c0.2,0.1,0.4,0.1,0.6,0.2c0.2,0.1,0.4,0.1,0.6,0.1
		c0.2,0,0.5,0,0.7,0.2l0.3,0.1c0.2,0,0.3,0,0.5,0.1c0.2,0.1,0.4,0.2,0.6,0.1c0,0,0,0,0.1,0c0.2,0.1,0.6,0.2,0.9,0.3l0.9,0.2
		c0,0,0.1,0,0.2,0c0.3,0,0.6-0.1,0.9-0.3c0.1-0.2,0.3-0.2,0.4-0.4c0-0.1,0-0.2,0.1-0.2l0.2-0.2l0.1-0.2c0-0.1,0-0.3,0-0.4
		c-0.2-0.2-0.2-0.5-0.5-0.7c0,0,0,0,0-0.1c0,0,0-0.1-0.1-0.1c-0.1,0-0.2,0-0.2-0.1c-0.2-0.2-0.5-0.3-0.7-0.6c0-0.1-0.2-0.1-0.3-0.2
		c-0.3-0.2-0.5-0.4-0.9-0.6c-0.3-0.2-0.5-0.5-0.8-0.7c0,0,0,0,0,0c0-0.1-0.2-0.3-0.3-0.3c-0.1,0-0.2-0.2-0.3-0.2
		c-0.1,0-0.3-0.1-0.4-0.2c-0.6-0.4-1-0.9-1.6-1.3c0,0,0-0.1-0.1-0.1c-0.1-0.1-0.3-0.3-0.5-0.4c-0.2-0.1-0.4-0.1-0.5-0.3
		c-0.2-0.2-0.3-0.4-0.5-0.5c-0.2-0.1-0.4-0.2-0.6-0.4c-0.3-0.3-0.6-0.6-0.9-0.8c0,0-0.1,0-0.1-0.1c0,0-0.1-0.1-0.1-0.1
		c-0.2-0.2-0.4-0.4-0.7-0.5c-0.1,0-0.2-0.1-0.3-0.2c0-0.1-0.1-0.2-0.2-0.2c-0.3-0.2-0.5-0.4-0.8-0.6c-0.5-0.4-1.1-0.9-1.6-1.3
		c0,0-0.1,0-0.2,0c-0.3,0-0.5,0.1-0.6,0.3c-0.1,0.1-0.1,0.2-0.2,0.2c0,0.3-0.3,0.4-0.4,0.6c-0.1,0.3,0.1,0.5,0.2,0.7
		c0.1,0.1,0.2,0.2,0.2,0.3c0.1,0,0.2,0.1,0.3,0.2c0.1,0.3,0.4,0.3,0.6,0.6c0.1,0,0.2,0.1,0.3,0.1l0.3,0.1c0.3,0.2,0.5,0.5,0.8,0.7
		c0,0,0,0,0,0c0,0.1,0.1,0.2,0.3,0.3c0.2,0,0.3,0.2,0.5,0.3c0.2,0,0.3,0.2,0.5,0.3c0.2,0.1,0.4,0.3,0.6,0.5c0.4,0.4,1,0.7,1.4,1.3
		c0.1,0.2,0.3,0.2,0.4,0.3c0.2,0.2,0.4,0.4,0.8,0.5c0,0,0.2,0.1,0.2,0.1c0,0.1,0.1,0.1,0.2,0.2c0,0.1,0.1,0.2,0.2,0.2
		c0.1,0.1,0.2,0.2,0.3,0.3c0,0.1,0,0.1,0.1,0.2c-0.1,0-0.2,0.1-0.3,0.2L39.7,47.5z M47.9,38.8C47.9,38.8,47.9,38.8,47.9,38.8
		c0.2,0.1,0.6,0.5,0.6,0.6c0,0.2,0.1,0.3,0.2,0.4c0.2,0.1,0.2,0.3,0.3,0.4c0.1,0.2,0.3,0.5,0.5,0.7c0,0,0,0,0.1,0.1
		c0.2,0.2,0.4,0.3,0.6,0.6c0.1,0,0.1,0.1,0.2,0.2c0.1,0,0.2,0.1,0.4,0.2c0.2,0.1,0.3,0.2,0.5,0.2c0.3,0.1,0.5,0.2,0.8,0.4
		c0.2,0.1,0.4,0.2,0.6,0.1c0.2,0,0.4,0,0.7,0c0.1,0,0.3,0,0.4,0l0.5-0.1c0.2,0,0.5,0,0.7-0.2s0.4-0.2,0.7-0.3c0.2,0,0.3,0,0.4-0.2
		c0-0.1,0.2-0.2,0.3-0.2c0.2-0.1,0.4-0.3,0.6-0.5c0.1-0.1,0.1-0.2,0.2-0.3c0.1-0.1,0.3-0.3,0.4-0.5c0.2-0.3,0.3-0.7,0.4-1.1
		c0.1-0.3,0-0.6,0.1-1c0-0.2,0-0.4,0-0.6c0-0.2-0.1-0.4-0.1-0.6v-0.3c0-0.2-0.1-0.4-0.1-0.7c0-0.1,0-0.2-0.1-0.3
		c-0.4-0.6-0.8-1.3-1.1-1.9c-0.2-0.4-0.5-0.8-0.8-1.2c-0.1-0.2-0.2-0.3-0.2-0.5c0-0.1-0.1-0.1-0.1-0.2c0,0-0.1-0.1-0.1-0.1
		c0-0.1,0-0.2-0.1-0.2c0-0.1-0.1-0.1-0.2-0.2l-0.7-1.1c0,0,0-0.1-0.1-0.2c-0.2-0.2-0.3-0.5-0.5-0.7c0-0.2-0.2-0.2-0.1-0.4
		c-0.1-0.1-0.2-0.2-0.2-0.4c-0.1-0.2-0.2-0.3-0.2-0.5c-0.2-0.1-0.2-0.3-0.3-0.5c-0.2-0.3-0.4-0.6-0.6-0.9c-0.2-0.2-0.4-0.5-0.5-0.8
		c-0.1-0.2-0.4-0.5-0.5-0.8c0-0.2-0.2-0.3-0.3-0.4c-0.1-0.2-0.2-0.2-0.4-0.3c-0.1,0-0.2-0.1-0.3,0c-0.2,0.1-0.3,0.2-0.5,0.2
		c-0.2,0.1-0.3,0.2-0.4,0.3c-0.2,0.2-0.3,0.3-0.3,0.6c0.1,0.3,0.3,0.4,0.3,0.7c0,0,0,0.1,0.1,0.1c0.1,0,0.1,0.1,0.2,0.2
		c0.1,0.2,0.2,0.3,0.2,0.5c0,0.2,0.2,0.4,0.3,0.6c0,0,0,0,0,0s0,0,0,0c0,0.1,0,0.2,0.1,0.2l0.4,0.7c0,0.1,0,0.1,0,0.1
		c0.2,0.1,0.2,0.3,0.3,0.6c0,0.2,0.1,0.3,0.2,0.4c0.1,0.1,0.1,0.1,0.2,0.3c0,0,0.1,0.1,0.2,0.2c0,0,0.1,0,0,0.1
		c0,0.1,0.1,0.2,0.1,0.3l2.3,3.8c0,0,0,0.1,0.1,0.3c0,0,0,0,0,0c0.3,0.4,0.5,0.8,0.8,1.2c0,0.2,0.1,0.2,0.1,0.3
		c0,0.1,0.1,0.2,0.1,0.3c0,0.1,0.1,0.2,0.1,0.3c0.2,0.3,0.2,0.6,0.2,1c0,0.1,0,0.2,0,0.3c0,0.3,0,0.6-0.2,0.9
		c-0.1,0.2-0.2,0.3-0.3,0.6C55.3,40,55,40,55,40.2c-0.3,0.2-0.7,0.2-0.9,0.5c0,0,0,0,0,0h0c-0.2,0.1-0.4,0-0.7,0.1
		c-0.4,0-0.7-0.1-1-0.3c-0.3-0.2-0.6-0.4-0.9-0.6c-0.4-0.2-0.6-0.5-0.8-0.9c0-0.2-0.1-0.4-0.3-0.5c-0.1-0.1-0.1-0.3-0.3-0.4
		c0,0,0,0,0-0.1c0-0.1,0-0.1,0-0.2l-0.5-0.9c0,0-0.1-0.1-0.1-0.1c0-0.3-0.3-0.5-0.4-0.6s-0.2-0.2-0.3-0.5c0-0.2-0.1-0.3-0.3-0.4
		l-0.1-0.2c-0.2-0.3-0.4-0.6-0.5-1c0,0,0-0.1-0.1-0.1c-0.2,0-0.1-0.1-0.2-0.3c-0.2-0.3-0.4-0.7-0.7-1.1l-0.1-0.1
		c-0.3-0.3-0.3-0.3-0.4-0.7c-0.1-0.2-0.2-0.4-0.4-0.6c-0.1-0.1-0.1-0.2-0.2-0.4s-0.1-0.3-0.2-0.5c0-0.1-0.2-0.2-0.2-0.3
		c-0.1-0.1-0.2-0.3-0.3-0.4c-0.1-0.1-0.1-0.3-0.3-0.4c-0.1-0.1-0.2-0.3-0.3-0.4l-0.2-0.1c-0.6,0-0.9,0.3-1.4,0.6
		c-0.1,0.1-0.1,0.2-0.1,0.3c-0.1,0.2-0.1,0.5,0.1,0.7c0.2,0.1,0.2,0.3,0.3,0.5c0,0.1,0.1,0.2,0.2,0.3c0.1,0.2,0.1,0.2,0.2,0.4
		c0.1,0.1,0.2,0.2,0.2,0.3c0,0.2,0.2,0.4,0.3,0.6c0.2,0,0.2,0.2,0.2,0.3c0,0.1,0.1,0.3,0.2,0.4c0.2,0.4,0.4,0.8,0.7,1.1
		c0.2,0.4,0.4,0.8,0.7,1.1c0.1,0.1,0.1,0.2,0.1,0.3c0,0.1,0.1,0.2,0.2,0.3c0,0,0,0.1,0,0.1c0,0.1,0,0.3,0.2,0.4
		c0.1,0,0.1,0.1,0.2,0.2l0.8,1.3c0,0.1,0.1,0.1,0.1,0.1c0.1,0.3,0.1,0.3,0.2,0.4C47.7,38.5,47.8,38.6,47.9,38.8L47.9,38.8z M73.2,26
		c0.3,0.1,0.4,0.4,0.5,0.7l0,0.5c0,0.2,0.1,0.4,0.2,0.6l0.2,0.9c0,0.1,0,0.3,0,0.4c0,0.2,0,0.4-0.1,0.6c0,0.1,0,0.3,0,0.4
		c-0.1,0.1-0.1,0.3-0.1,0.4c0,0.3-0.1,0.5-0.3,0.7l-0.4,0.5c-0.1,0.1-0.2,0.3-0.4,0.5c-0.2,0.3-0.6,0.3-0.9,0.5
		c-0.3,0.1-0.6,0.1-0.9,0.2c0,0-0.1,0-0.1,0c-0.2,0-0.4,0-0.5,0c-0.2,0-0.4,0-0.5-0.1c-0.2-0.1-0.5-0.3-0.7-0.4
		c-0.4-0.1-0.5-0.2-0.8-0.5l-0.2-0.2c-0.2-0.1-0.3-0.3-0.4-0.5c-0.2-0.2-0.2-0.4-0.3-0.6c0,0,0-0.1,0-0.2c-0.1-0.1-0.1-0.2-0.2-0.4
		c-0.1-0.2-0.1-0.4-0.1-0.6c0-0.2-0.1-0.4-0.1-0.6c0-0.1,0-0.1,0-0.2c-0.1,0-0.1-0.2-0.1-0.3c0-0.2,0-0.4-0.1-0.6l-0.2-0.5
		c0-0.2-0.1-0.4-0.1-0.6L66,25.5c0-0.1,0-0.1-0.1-0.3c-0.1-0.1-0.2-0.5-0.2-0.5c0.1-0.1,0-0.2,0-0.4c0-0.1,0-0.3,0-0.4
		c0-0.2-0.1-0.3,0-0.5c0-0.4,0-0.7,0-1c0-0.3,0-0.6,0.1-0.9l0.2-0.6c0,0,0-0.1,0.1-0.2l0.5-0.5c0.3-0.3,0.5-0.7,0.9-0.9l0-0.1
		l0.5-0.1c0.1,0,0.2,0,0.3-0.1c0.1-0.1,0.3-0.1,0.5-0.1c0.1,0,0.2,0,0.4,0c0.1,0,0.2,0,0.3,0.1c0.2,0.1,0.4,0.1,0.7,0.2
		c0.2,0,0.5,0.2,0.7,0.4c0.3,0.2,0.5,0.5,1,0.7c0.1,0,0.2,0,0.3-0.1c0.3-0.1,0.5-0.3,0.8-0.5c0.2-0.1,0.3-0.2,0.4-0.4
		c0.1-0.2,0-0.3,0-0.5c-0.3-0.2-0.6-0.4-0.8-0.7c0-0.1-0.1-0.1-0.2-0.2l-0.8-0.5c-0.1,0-0.2-0.1-0.4-0.1c-0.2,0-0.3,0-0.5-0.1
		c-0.4-0.2-0.8-0.3-1.1-0.4l-0.3,0c-0.1,0-0.2,0-0.4,0c-0.3,0-0.7,0-1,0H68c-0.1,0-0.2,0-0.3,0c-0.1,0.1-0.2,0-0.3,0.1
		c-0.2,0.1-0.3,0.2-0.6,0.2c0,0-0.1,0-0.2,0c-0.3,0.2-0.6,0.4-0.9,0.7c-0.1,0.1-0.1,0.1-0.3,0.2c-0.1,0-0.2,0.1-0.3,0.2
		c-0.1,0.2-0.3,0.3-0.4,0.5l-0.1,0.2c-0.1,0.2-0.1,0.4-0.3,0.6c-0.2,0.2-0.3,0.5-0.4,0.7l-0.1,0.3c-0.1,0.4-0.3,0.7-0.3,1.2
		c0,0.4-0.1,0.7,0,1l-0.1,0.4c0.1,0.4,0.1,0.8,0.2,1.3c0,0.1,0.1,0.3,0.1,0.4c0,0.1,0,0.3,0.1,0.4l0.3,1.2c0,0,0,0,0,0.1
		c0,0.2,0,0.3,0.1,0.5c0,0,0,0,0,0.1c0,0.2,0,0.4,0.1,0.5c0,0,0,0,0,0.1c-0.1,0.3,0.1,0.5,0.2,0.7c0,0.1,0.1,0.3,0.1,0.4
		c0,0.2,0,0.4,0,0.6c0.2,0.4,0.2,0.6,0.2,1c0,0.1,0,0.2,0.1,0.4c0.1,0.2,0.3,0.4,0.3,0.7c0,0.1,0.1,0.2,0.2,0.4
		c0.1,0.2,0.3,0.4,0.4,0.7c0,0.1,0.1,0.3,0.3,0.4l0.2,0.2c0.2,0.3,0.5,0.5,0.9,0.8c0,0,0,0,0.1,0.1l0.2,0.1c0.2,0.1,0.3,0.1,0.4,0.2
		c0.2,0.2,0.4,0.2,0.7,0.4c0.3,0.1,0.6,0.2,0.9,0.3c0.3,0.1,0.5,0.1,0.8,0c0.1,0,0.2,0,0.4,0c0.4,0,0.7,0.1,1,0
		c0.1,0,0.2-0.1,0.4-0.1c0.3-0.1,0.5-0.2,0.7-0.3c0.1-0.1,0.2-0.1,0.3-0.1s0.3-0.1,0.4-0.2c0.1-0.1,0.2-0.1,0.3-0.2
		c0.3-0.1,0.5-0.3,0.7-0.6l0.3-0.5c0.2-0.2,0.4-0.5,0.6-0.8c0.2-0.2,0.3-0.5,0.4-0.8c0.1-0.2,0.2-0.3,0.2-0.5c0-0.1,0-0.2,0-0.4
		c0-0.4,0-0.7,0.1-1.1c0-0.2,0-0.3,0-0.5s0-0.3,0-0.5c0-0.2,0-0.5-0.1-0.7c0.1-0.2,0-0.3,0-0.5c0-0.1-0.1-0.2-0.1-0.3
		c0-0.1-0.1-0.3,0-0.4c0-0.1-0.1-0.6-0.2-0.8s-0.2-0.5-0.1-0.7c0-0.2,0-0.5-0.1-0.7c-0.1-0.2-0.2-0.5-0.3-0.8c0-0.1-0.1-0.3-0.4-0.3
		c0,0-0.1,0-0.2,0c-0.3,0-0.6,0.2-0.9,0.2c-0.4,0-0.8,0-1.2,0.1c-0.1,0-0.2,0-0.4,0.1c-0.1,0.1-0.3,0.1-0.4,0.1
		c-0.2,0-0.4,0.1-0.6,0.1c-0.1,0.1-0.2,0.1-0.4,0.1c-0.1,0.1-0.2,0.1-0.4,0.1c-0.1,0-0.2,0.1-0.3,0l-0.2,0.1l-0.3,0.5
		c0,0.3,0.1,0.6,0.2,0.8c0,0.1,0.1,0.3,0.1,0.3c0.2,0.2,0.4,0.2,0.6,0.3c0.1,0,0.2,0,0.3,0c0.1-0.1,0.2-0.1,0.4-0.1
		c0.4-0.1,0.9-0.3,1.3-0.2C73,26,73.1,26,73.2,26C73.2,26,73.3,26,73.2,26L73.2,26z"/>
</g>
</svg>
