<?xml version="1.0" encoding="utf-8"?>
<!-- Generator: Adobe Illustrator 27.5.0, SVG Export Plug-In . SVG Version: 6.00 Build 0)  -->
<svg version="1.1" id="Layer_1" xmlns:xodm="http://www.corel.com/coreldraw/odm/2003"
	 xmlns="http://www.w3.org/2000/svg" xmlns:xlink="http://www.w3.org/1999/xlink" x="0px" y="0px" viewBox="0 0 122.3 28.3"
	 style="enable-background:new 0 0 122.3 28.3;" xml:space="preserve">
<style type="text/css">
	.st0{fill:#371810;}
	.st1{fill-rule:evenodd;clip-rule:evenodd;fill:#A48B50;}
</style>
<g id="Layer_x0020_1">
	<path class="st0" d="M0,1.7h1.9l0,8.4h1.5l0-8.4h1.9V0.2H0C0,0.2,0,1.7,0,1.7z M10,0C9.1,0,8.2,0.6,7.6,1.7
		C7.1,2.6,6.8,3.8,6.8,5.1s0.3,2.5,0.8,3.5c0.6,1.1,1.5,1.7,2.4,1.7c0.9,0,1.8-0.6,2.4-1.7c0.5-0.9,0.8-2.2,0.8-3.5
		s-0.3-2.5-0.8-3.5C11.8,0.6,11,0,10,0z M11.7,5.1c0,1-0.2,2-0.6,2.7c-0.3,0.6-0.7,0.9-1.1,0.9C9.7,8.7,9.3,8.4,9,7.9
		C8.6,7.2,8.3,6.2,8.3,5.1c0-1,0.2-2,0.6-2.7C9.3,1.8,9.7,1.5,10,1.5c0.4,0,0.7,0.3,1.1,0.9C11.5,3.1,11.7,4.1,11.7,5.1z M19.3,6.4
		c0,0.4,0,0.9-0.1,1.3c-0.1,0.4-0.2,0.7-0.5,0.9c-0.2,0.1-0.4,0.2-0.7,0.1c-0.5-0.1-1.2-0.7-1.2-3.5V5.1c0-2,0.5-3.3,1.4-3.5
		c0.6-0.1,1.2,0.4,1.2,0.4l0.1,0.1l1.1-1.1L20.5,1c0,0-1.2-1.2-2.6-0.9c-0.5,0.1-1.3,0.4-1.8,1.4c-0.5,0.9-0.7,2.1-0.7,3.6v0.1l0,0
		c0,1.5,0.2,2.7,0.7,3.5c0.5,1,1.2,1.3,1.8,1.4c0.2,0,0.4,0.1,0.6,0.1c0.5,0,0.9-0.1,1.3-0.4c0.6-0.4,1-1.1,1.1-1.9
		c0.1-0.6,0.1-1.1,0.1-1.6h0.5V4.9h-3v1.5C18.3,6.4,19.3,6.4,19.3,6.4z M25,5.9h1.4V4.4H25l0-2.7l2.4,0l0-1.5l-3.9,0l0,9.9l4,0
		l0-1.5l-2.5,0L25,5.9L25,5.9z M29,1.7h1.9l0,8.4h1.5l0-8.4h1.9V0.2H29C29,0.2,29,1.7,29,1.7z M39.6,0.2l0,4.3h-1.8l0-4.3l-1.5,0
		l0,9.9h1.5l0-4.2h1.8l0,4.2h1.5l0-9.9C41.1,0.2,39.6,0.2,39.6,0.2z M45.2,5.9h1.4V4.4h-1.4l0-2.7l2.4,0l0-1.5l-3.9,0l0,9.9l4,0
		l0-1.5l-2.5,0L45.2,5.9L45.2,5.9z M52.7,6.4c0.1,0,0.1,0,0.1,0c0.3-0.2,0.6-0.4,0.8-0.6c0.4-0.5,0.6-1.2,0.6-1.9
		c0-1.3-0.3-2.3-0.9-2.9c-0.5-0.5-1.3-0.8-2.1-0.8c-0.3,0-0.6,0-0.6,0l-0.7,0l0,10h1.5l0-3c0.3,0.5,1.1,2,1.6,3l0,0.1h1.7L52.7,6.4
		C52.7,6.4,52.7,6.4,52.7,6.4L52.7,6.4z M52.7,3.8c0,0.7-0.3,1.1-0.8,1.4c-0.2,0.1-0.4,0.2-0.6,0.2V1.6c0.4,0,0.7,0.1,0.9,0.4
		C52.6,2.3,52.8,2.9,52.7,3.8z"/>
	<path class="st0" d="M7.6,21.9L8,17.5H6.5l-2.6,4.3l0.3-4.3H2.7l-0.5,7.4l0,0l1.5,0l2.5-4.2L5.7,25l1.5,0l4.6-7.4h-1.6L7.6,21.9
		L7.6,21.9z M12.8,25l2.5-7.4h-1.5L11.3,25H12.8z M16.9,18.7h1.9L16.6,25h1.5l2.1-6.3h1.9l0.4-1.1h-5.3L16.9,18.7L16.9,18.7z
		 M27.9,17.5l-1.1,3.2H25l1.1-3.2l-1.5,0L22,25h1.5l1.1-3.1h1.8L25.3,25h1.5l2.5-7.4L27.9,17.5L27.9,17.5z"/>
	<path class="st0" d="M35,17.8h1.9l0,8.4h1.5l0-8.4h1.9v-1.5H35V17.8z M45.6,16.3l0,4.3h-1.8l0-4.3l-1.5,0l0,9.9h1.5l0-4.2h1.8
		l0,4.2h1.5l0-9.9C47.1,16.3,45.6,16.3,45.6,16.3z M51.2,22h1.4v-1.5h-1.4l0-2.7l2.4,0l0-1.5l-3.9,0l0,9.9l4,0l0-1.5l-2.5,0L51.2,22
		L51.2,22z M57.4,26.2v-9.9h-1.5v9.9H57.4z M62.9,22.5c0.1,0,0.1,0,0.1,0c0.3-0.2,0.6-0.4,0.8-0.6c0.4-0.5,0.6-1.2,0.6-1.9
		c0-1.3-0.3-2.3-0.9-2.9c-0.5-0.5-1.3-0.8-2.1-0.8c-0.3,0-0.6,0-0.6,0l-0.7,0l0,10h1.5l0-3c0.3,0.5,1.1,2,1.6,3l0,0.1h1.7L62.9,22.5
		C62.9,22.5,62.9,22.5,62.9,22.5L62.9,22.5z M62.9,19.8c0,0.7-0.3,1.1-0.8,1.4c-0.2,0.1-0.4,0.2-0.6,0.2v-3.8c0.4,0,0.7,0.1,0.9,0.4
		C62.7,18.4,62.9,19,62.9,19.8z"/>
	<path class="st0" d="M77.2,16.3l-3.9,0l0,9.9h1.5l0-4.2h1.7v-1.5h-1.7l0-2.7l2.4,0L77.2,16.3z M80.2,16.3l-2.4,9.9h1.6l0.5-2H82
		l0.5,2H84l-2.4-9.9H80.2L80.2,16.3z M81.6,22.7h-1.4l0.7-2.9L81.6,22.7L81.6,22.7z M93.8,16.3h-1l-2.4,7.4L88,16.3h-1l-1.4,9.8
		l0,0.1h1.5l0.8-5.1l1.7,5.1h1.6l1.7-5.1l0.8,5.1h1.5L93.8,16.3L93.8,16.3L93.8,16.3z M98.9,26.2v-9.9h-1.5v9.9H98.9z M103,16.3
		h-1.5l0,9.9h3.7v-1.5H103L103,16.3L103,16.3z M108.6,26.2v-9.9h-1.5v9.9H108.6z M112.7,22h1.4v-1.5h-1.4l0-2.7l2.4,0l0-1.5l-3.9,0
		l0,9.9l4,0l0-1.5l-2.5,0L112.7,22L112.7,22z M120,20.4c-0.9-0.5-1.3-0.7-1.3-1.5c0-0.6,0.2-1,0.5-1.1c0.5-0.3,1.3,0,1.8,0.3
		l0.9-1.2c-0.5-0.3-1-0.6-1.6-0.7c-0.7-0.1-1.3,0-1.8,0.2c-0.5,0.2-1.3,0.9-1.3,2.5c0,1.7,1.2,2.3,2.1,2.8c0.9,0.5,1.4,0.8,1.4,1.7
		c0,0.7-0.3,1.2-0.8,1.3c-0.6,0.2-1.4-0.1-1.7-0.5l-1.3,0.9c0.6,0.8,1.5,1.3,2.5,1.3c0.3,0,0.6,0,0.9-0.1c1.2-0.4,1.8-1.4,1.8-2.8
		C122.3,21.6,121,20.9,120,20.4L120,20.4z"/>
	<path class="st1" d="M1.5,27.1c0,0,8.6-0.8,17.8-0.7c9.2,0.1,9.4,0,9.4,0.3s-2.9,0-13.7,0.7C4.3,28.1,1.5,28.5,1.5,28.2
		C1.5,28,1.5,27.1,1.5,27.1L1.5,27.1z"/>
</g>
</svg>
