<?xml version="1.0" encoding="utf-8"?>
<!-- Generator: Adobe Illustrator 27.5.0, SVG Export Plug-In . SVG Version: 6.00 Build 0)  -->
<svg version="1.1" id="Layer_1" xmlns:xodm="http://www.corel.com/coreldraw/odm/2003"
	 xmlns="http://www.w3.org/2000/svg" xmlns:xlink="http://www.w3.org/1999/xlink" x="0px" y="0px" viewBox="0 0 147.3 24.5"
	 style="enable-background:new 0 0 147.3 24.5;" xml:space="preserve">
<style type="text/css">
	.st0{fill:#371810;}
	.st1{fill:#A48B50;}
</style>
<g id="Layer_x0020_1">
	<g id="_105553320305376">
		<path class="st0" d="M6.3,11.1c0,0.6-0.2,1.2-0.6,1.6c-0.4,0.4-0.9,0.7-1.5,0.7s-1.1-0.3-1.5-0.7c-0.4-0.4-0.6-1-0.6-1.6V1.2H0.8
			v9.9c0,1,0.4,2,1,2.7c0.6,0.7,1.5,1.1,2.4,1.1s1.8-0.4,2.4-1.1c0.6-0.7,1-1.6,1-2.7V1.2H6.3L6.3,11.1L6.3,11.1z M5.1,12.2
			c0.2-0.3,0.4-0.7,0.4-1.1V0.4h3v10.7c0,1.2-0.5,2.4-1.2,3.2c-0.8,0.8-1.8,1.3-3,1.3c-1.2,0-2.2-0.5-3-1.3c-0.8-0.8-1.2-2-1.2-3.2
			V0.4h3v10.7c0,0.4,0.1,0.8,0.4,1.1c0.2,0.3,0.5,0.4,0.8,0.4S4.9,12.5,5.1,12.2L5.1,12.2z M27.5,12.9c-0.4,0.2-1.2,0.7-2.2,0.4
			c-0.9-0.2-1.4-0.9-1.8-1.8C23.1,10.4,23,8.9,23,7.8V7.7c0-1.5,0.2-2.8,0.6-3.7c0.4-1,1-1.6,1.8-1.8c0.8-0.2,1.6,0.3,1.9,0.6l1-1
			c-0.5-0.4-1.7-1.3-3.2-0.9c-0.3,0.1-0.8,0.2-1.2,0.5c-0.4,0.3-0.9,0.7-1.2,1.4C22.2,3.3,22,4,21.8,4.9c-0.2,0.8-0.3,1.8-0.3,2.9
			v0.1c0,2.2,0.4,3.7,0.9,4.7c0.7,1.3,1.6,1.9,2.5,2.1c0.2,0,0.3,0.1,0.5,0.1c0.2,0,0.3,0,0.5,0c1.2,0,2.2-0.6,2.6-0.9L27.5,12.9
			L27.5,12.9z M25.5,12.6c0.9,0.2,1.7-0.3,1.7-0.4l0.4-0.3l2,2.2c0,0-0.4,0.3-0.4,0.4c-0.1,0.1-1.4,1.2-3.3,1.2c-0.2,0-0.4,0-0.6,0
			c-0.2,0-0.4-0.1-0.6-0.1c-1.1-0.3-2.2-0.9-3-2.5c-0.6-1.1-1-2.8-1-5.1l0-0.1c0-1.1,0.1-2.2,0.3-3.1c0.2-0.9,0.5-1.7,0.9-2.4
			c0.4-0.8,1-1.3,1.5-1.6c0.5-0.4,1-0.5,1.5-0.6c2.3-0.5,4.1,1.3,4.2,1.4l0.4,0.4l-2.1,2.1c-0.1-0.1-0.3-0.3-0.4-0.3
			c-0.1-0.1-0.7-0.7-1.4-0.5c-0.5,0.1-0.9,0.5-1.2,1.3c-0.3,0.8-0.5,2-0.5,3.4l0,0.1c0,1,0.1,2.4,0.5,3.5
			C24.5,11.9,24.9,12.4,25.5,12.6L25.5,12.6z M44.7,1l-3.2,13.6h1.5l0.7-2.9h3.7l0.7,2.9h1.5L46.2,1C46.2,1,44.7,1,44.7,1z M40.6,15
			l3.5-14.7h2.7l3.6,15.2h-3.1l-0.7-2.9h-2.4l-0.7,2.9h-3.1C40.5,15.5,40.6,15,40.6,15z M46.5,10.3H44l1.5-6.3l1.5,6.3H46.5
			L46.5,10.3z M45,9.5h1l-0.5-2L45,9.5z M64.6,0.8c-0.4,0-0.8,0-0.8,0c-0.2,0-0.5,0-0.7,0l0,13.8h1.4V8.5l0.4,0
			c0.3,0,0.8-0.1,1.3-0.2c0.5-0.1,1-0.4,1.4-0.8c0.4-0.3,0.6-0.7,0.8-1.2c0.2-0.5,0.3-1,0.3-1.6c0-0.6-0.1-1.2-0.3-1.7
			c-0.2-0.5-0.4-0.9-0.7-1.2c-0.5-0.5-1.1-0.7-1.6-0.9C65.5,0.8,65,0.8,64.6,0.8L64.6,0.8z M63.8,0c0.1,0,0.6,0,0.9,0
			c0.3,0,0.9,0,1.6,0.1c0.7,0.2,1.4,0.5,2,1.1c0.4,0.4,0.7,0.9,0.9,1.5c0.2,0.6,0.3,1.2,0.3,2c0,0.7-0.1,1.4-0.3,1.9
			c-0.2,0.6-0.6,1.1-1,1.5c-0.5,0.5-1.1,0.8-1.7,0.9c-0.4,0.1-0.8,0.2-1.1,0.2v6.2h-3l0-15.4L63.8,0L63.8,0z M66.6,6.5
			C66.4,6.7,66,6.9,65.7,7c-0.3,0.1-0.6,0.1-0.8,0.1l-0.4,0V2.2l0.4,0c0.3,0,0.6,0,0.9,0.1c0.3,0.1,0.6,0.2,0.9,0.5
			c0.2,0.2,0.4,0.5,0.4,0.8c0.1,0.3,0.1,0.7,0.1,1.1c0,0.4,0,0.7-0.1,1C67,6,66.9,6.3,66.6,6.5L66.6,6.5z M65.5,6.2
			c0.2-0.1,0.4-0.2,0.6-0.3c0.1-0.1,0.2-0.3,0.3-0.4c0.1-0.2,0.1-0.5,0.1-0.8c0-0.3,0-0.6-0.1-0.9c-0.1-0.2-0.1-0.4-0.2-0.5
			c-0.1-0.1-0.3-0.2-0.5-0.3c-0.1,0-0.2,0-0.3-0.1v3.2C65.3,6.3,65.5,6.2,65.5,6.2z M88.8,1h-1.6l-3.4,6.6V1h-1.4v13.6h1.4v-4
			l0.9-1.8l2.6,5.7h1.5l-3.4-7.3L88.8,1L88.8,1z M87,0.2h3.1l-3.7,7.1l3.7,8.1h-3.3l-2.2-4.7l-0.1,0.2v4.6h-3V0.2h3v4.1l2.1-4.1
			L87,0.2L87,0.2z M105.3,1l-3.2,13.6h1.5l0.7-2.9h3.7l0.7,2.9h1.5L106.8,1C106.8,1,105.3,1,105.3,1z M101.2,15l3.5-14.7h2.7
			l3.6,15.2H108l-0.7-2.9h-2.4l-0.7,2.9h-3.1L101.2,15L101.2,15z M107,10.3h-2.5l1.5-6.3l1.5,6.3H107L107,10.3z M105.6,9.5h1l-0.5-2
			C106.1,7.5,105.6,9.5,105.6,9.5z M129.6,1l0,10.5L125.3,1h-1.6v13.6h1.4V4.4l4.2,10.3h1.6L131,1L129.6,1L129.6,1z M128.8,7.4
			l0-7.2l3,0c0,5.1,0,10.2,0,15.3h-3c-1-2.4-1.9-4.7-2.9-7.1v7.1h-3V0.2h2.9C126.8,2.6,127.8,5,128.8,7.4L128.8,7.4z"/>
	</g>
	<path class="st1" d="M93.7,14.3c1.6-0.6,3.1-1.3,4.4-2.1c1.3-0.9,2.5-1.8,3.6-3c0.6-0.6,1.1-1.2,1.4-1.8c0.3-0.5,0.5-1,0.5-1.3
		c0-0.2-0.1-0.4-0.2-0.5c-0.1-0.1-0.3-0.1-0.5-0.1c-1.1,0-2.5,0.8-4.2,2.4C97.1,9.4,95.4,11.6,93.7,14.3L93.7,14.3z M137.2,19.5
		c-0.4,0.2-0.8,0.5-1.2,0.8l0,0c0,0,0.1,0.1,0.1,0.2c0,0.1-0.1,0.2-0.3,0.4c-0.2,0.2-0.6,0.5-1.3,1.1c-1,0.8-1.8,1.4-2.7,1.8
		c-0.8,0.4-1.5,0.6-2.1,0.6c-0.4,0-0.7-0.1-0.9-0.3c-0.2-0.2-0.3-0.5-0.3-0.9c0-0.6,0.2-1.2,0.5-1.9c0.3-0.7,0.9-1.5,1.6-2.3
		c-0.5,0.4-1.1,0.8-1.7,1.3l0,0c0,0,0.1,0.1,0.1,0.2c0,0.2-0.5,0.6-1.4,1.4l-0.1,0.1c-1,0.8-1.9,1.4-2.7,1.8
		c-0.9,0.4-1.6,0.7-2.1,0.7c-0.4,0-0.7-0.1-0.9-0.3c-0.2-0.2-0.4-0.5-0.4-0.9c0-0.1,0-0.1,0-0.2c0,0,0-0.1,0-0.1
		c-0.5,0.5-1,0.9-1.4,1.1c-0.4,0.3-0.8,0.4-1.2,0.4c-0.4,0-0.6-0.1-0.8-0.4c-0.2-0.3-0.3-0.6-0.3-1.1c0-0.2,0-0.4,0-0.6
		c-0.8,0.6-1.5,1.1-2.3,1.4c-0.9,0.4-1.6,0.7-2.1,0.7c-0.5,0-0.8-0.1-1.1-0.3c-0.2-0.2-0.4-0.5-0.4-0.8c0-0.1,0-0.2,0-0.2
		c0-0.1,0-0.1,0-0.1c-0.9,0.6-1.7,0.9-2.3,1.2c-0.6,0.2-1,0.3-1.4,0.3c-0.4,0-0.7-0.1-0.9-0.3c-0.2-0.2-0.4-0.5-0.4-0.8
		c0-0.4,0.2-1,0.7-1.6c0.4-0.6,1.1-1.3,2-2.2c-0.4,0.2-0.8,0.5-1.2,0.8l0,0c0,0,0.1,0.1,0.1,0.2c0,0.1-0.2,0.4-0.6,0.7
		c-0.4,0.4-0.9,0.7-1.4,1.1c-0.9,0.7-1.9,1.2-2.8,1.5c-0.9,0.4-1.8,0.5-2.5,0.5c-0.5,0-1-0.1-1.3-0.4c-0.3-0.2-0.5-0.6-0.5-1
		c0-0.3,0.1-0.6,0.3-0.8c0.2-0.2,0.4-0.3,0.7-0.3c0.2,0,0.4,0.1,0.5,0.2c0.1,0.1,0.2,0.3,0.2,0.5c0,0.2-0.1,0.4-0.2,0.5
		c-0.2,0.1-0.4,0.2-0.6,0.2c-0.1,0-0.1,0-0.2,0c0,0-0.1,0-0.1,0c0.1,0.2,0.2,0.3,0.3,0.4c0.2,0.1,0.4,0.1,0.7,0.1
		c0.9,0,1.5-0.5,2-1.4c0.5-0.9,0.7-2.3,0.8-4.1c-0.8,0.5-1.6,1-2.3,1.6l-0.3,0.3c0,0,0,0,0.1,0c0,0,0.1,0.1,0.1,0.2
		c0,0.1-0.1,0.3-0.3,0.5c-0.2,0.2-0.6,0.6-1.2,1.1c-0.9,0.7-1.7,1.3-2.6,1.7c-0.9,0.4-1.6,0.6-2.3,0.6c-0.6,0-1.1-0.2-1.5-0.6
		c-0.4-0.4-0.6-0.9-0.6-1.5c0-0.6,0.2-1.2,0.6-1.7c0.4-0.6,0.9-1.1,1.6-1.7c0.6-0.4,1.2-0.8,1.7-1c0.5-0.2,1-0.3,1.5-0.3
		c0.4,0,0.7,0.1,0.9,0.2c0.2,0.1,0.3,0.4,0.3,0.7c0,0.7-0.5,1.4-1.5,2.1c-1,0.7-2.2,1.2-3.6,1.5c-0.1,0.2-0.1,0.3-0.2,0.5
		c0,0.2-0.1,0.3-0.1,0.4c0,0.3,0.1,0.5,0.3,0.6c0.2,0.2,0.4,0.2,0.7,0.2c0.5,0,1.2-0.2,2-0.6c0.8-0.4,1.6-1,2.5-1.7
		c0.2-0.2,0.4-0.3,0.6-0.6c0,0-0.1,0-0.1,0c0,0-0.1-0.1-0.1-0.1c0-0.2,0.4-0.6,1.1-1.1c0.7-0.6,1.6-1.2,2.7-1.9
		c0.1-0.5,0.2-0.9,0.4-1.2c0.2-0.3,0.5-0.5,0.8-0.5c0.1,0,0.2,0,0.3,0.1c0.1,0.1,0.1,0.2,0.1,0.4c0,0.3-0.1,0.5-0.3,0.7
		c-0.2,0.3-0.4,0.5-0.8,0.6c0.2,0.3,0.3,0.6,0.4,0.9c0.1,0.4,0.1,0.7,0.1,1.2c0,0.7-0.1,1.3-0.3,1.9s-0.6,1-1,1.3
		c1.1-0.4,2.1-1,3.1-1.8l0.4-0.3c0,0-0.1,0-0.1-0.1c0,0-0.1-0.1-0.1-0.1c0-0.1,0.2-0.3,0.5-0.6l0,0l0.8-0.6c1-0.7,1.8-1.3,2.4-1.7
		c0.6-0.4,1.1-0.6,1.4-0.6c0.4,0,0.7,0,0.9,0.1c0.2,0,0.4,0.1,0.4,0.2c0,0,0,0.1-0.1,0.1c0,0.1-0.1,0.1-0.2,0.2l-2.3,2
		c-0.8,0.7-1.5,1.4-2,2c-0.5,0.7-0.8,1.1-0.8,1.3c0,0.1,0,0.2,0.1,0.3c0.1,0.1,0.2,0.1,0.3,0.1c0.4,0,0.9-0.2,1.6-0.5
		c0.7-0.3,1.3-0.8,1.8-1.3l4.6-4.2c0.1,0,0.1-0.1,0.2-0.2c0.1-0.1,0.3-0.2,0.4-0.2c0.4,0,0.8,0,1,0.1c0.3,0.1,0.4,0.1,0.4,0.2
		c0,0,0,0.1-0.1,0.1c0,0.1-0.1,0.1-0.2,0.2l-2.3,2c-0.8,0.7-1.5,1.4-2,2c-0.5,0.7-0.8,1.1-0.8,1.3c0,0.1,0,0.2,0.1,0.3
		c0.1,0.1,0.2,0.1,0.3,0.1c0.3,0,0.7-0.1,1.4-0.5c0.6-0.3,1.3-0.7,2-1.2c0.3-0.2,0.6-0.4,0.9-0.7c0-0.1,0.1-0.1,0.1-0.2
		c0.3-0.5,0.7-1,1.3-1.5c0.7-0.7,1.5-1.2,2.4-1.6c0.9-0.4,1.6-0.6,2.3-0.6c0.4,0,0.6,0.1,0.8,0.2c0.2,0.1,0.3,0.4,0.3,0.7
		c0.1-0.1,0.3-0.3,0.4-0.4c0.2-0.1,0.3-0.3,0.5-0.4c0.1,0,0.2,0,0.3,0c0.1,0,0.2,0,0.3,0c0.3,0,0.5,0,0.6,0.1c0.1,0,0.2,0.1,0.2,0.2
		c0,0.1-0.2,0.3-0.6,0.7c-0.2,0.2-0.4,0.3-0.5,0.5c-1.2,1.1-2.1,2-2.7,2.8c-0.7,0.8-1,1.3-1,1.6c0,0.1,0,0.2,0.1,0.2
		c0,0,0.1,0.1,0.3,0.1c0.4,0,0.9-0.2,1.7-0.5c0.7-0.4,1.5-0.9,2.3-1.5c0.2-0.2,0.4-0.3,0.7-0.5l0,0c0,0,0-0.1,0-0.2
		c0-0.2,1-1.1,3.1-2.7l1-0.8l1.1-1.3h-2.3l0.4-0.4h2.3l2.4-3c0.1-0.1,0.2-0.2,0.3-0.2c0.1,0,0.2-0.1,0.4-0.1c0.3,0,0.5,0,0.7,0.1
		c0.2,0.1,0.3,0.2,0.3,0.3c0,0.1,0,0.1,0,0.2c0,0-0.1,0.1-0.1,0.2l-2.2,2.6h2.6l-0.4,0.4h-2.5l-3,3.5c-0.7,0.8-1.2,1.5-1.6,2.1
		c-0.3,0.6-0.5,1-0.5,1.4c0,0.2,0,0.3,0.1,0.4c0.1,0.1,0.2,0.1,0.3,0.1c0.4,0,1-0.2,1.7-0.5c0.7-0.4,1.5-0.9,2.4-1.5
		c0.2-0.2,0.5-0.4,0.7-0.6c0,0-0.1,0-0.1,0c0,0-0.1-0.1-0.1-0.1c0-0.1,0.2-0.3,0.5-0.6l0,0l0.8-0.6c1-0.7,1.8-1.3,2.4-1.7
		c0.6-0.4,1.1-0.6,1.4-0.6c0.4,0,0.7,0,0.9,0.1c0.2,0,0.4,0.1,0.4,0.2c0,0,0,0.1-0.1,0.1c0,0.1-0.1,0.1-0.2,0.2l-2.3,2
		c-0.8,0.7-1.5,1.4-2,2c-0.5,0.7-0.8,1.1-0.8,1.3c0,0.1,0,0.2,0.1,0.3c0.1,0.1,0.2,0.1,0.3,0.1c0.4,0,0.9-0.2,1.6-0.5
		c0.7-0.3,1.3-0.8,1.8-1.3l4.6-4.2c0.1,0,0.1-0.1,0.2-0.2c0.1-0.1,0.3-0.2,0.4-0.2c0.4,0,0.8,0,1,0.1c0.3,0.1,0.4,0.1,0.4,0.2
		c0,0,0,0.1-0.1,0.1c0,0.1-0.1,0.1-0.2,0.2l-2.3,2c-0.8,0.7-1.5,1.4-2,2c-0.5,0.7-0.8,1.1-0.8,1.3c0,0.1,0,0.2,0.1,0.3
		c0.1,0.1,0.2,0.1,0.3,0.1c0.3,0,0.7-0.1,1.4-0.5c0.6-0.3,1.3-0.7,2-1.2c0.5-0.4,1-0.8,1.5-1.2c0.5-0.4,0.8-0.7,0.9-0.7
		c0.1,0,0.1,0,0.2,0.1c0,0,0.1,0.1,0.1,0.2c0,0.2-0.4,0.6-1.2,1.2l-0.3,0.2c-1,0.8-1.9,1.4-2.7,1.8c-0.9,0.4-1.6,0.7-2.1,0.7
		c-0.5,0-0.8-0.1-1.1-0.3c-0.2-0.2-0.4-0.5-0.4-0.8c0-0.1,0-0.2,0-0.2c0-0.1,0-0.1,0-0.1c-0.9,0.6-1.7,0.9-2.3,1.2
		c-0.6,0.2-1,0.3-1.4,0.3s-0.7-0.1-0.9-0.3c-0.2-0.2-0.4-0.5-0.4-0.8c0-0.4,0.2-1,0.7-1.6C135.6,21.1,136.3,20.3,137.2,19.5
		L137.2,19.5z M121.2,22.3l3-3.2c0.1-0.1,0.2-0.2,0.3-0.4c0.1-0.1,0.1-0.2,0.1-0.3c0-0.1,0-0.2-0.1-0.2c-0.1-0.1-0.1-0.1-0.2-0.1
		c-0.3,0-0.7,0.1-1.2,0.4c-0.5,0.2-1,0.6-1.5,1c-0.8,0.7-1.5,1.4-2,2.1c-0.5,0.7-0.8,1.3-0.8,1.6c0,0.1,0,0.2,0.1,0.3
		c0.1,0.1,0.2,0.1,0.3,0.1c0.2,0,0.5-0.1,0.9-0.4C120.4,23.1,120.8,22.8,121.2,22.3L121.2,22.3z M94.7,21.2c1.2-0.2,2.1-0.6,2.9-1.2
		c0.8-0.5,1.2-1,1.2-1.5c0-0.2,0-0.3-0.1-0.3s-0.2-0.1-0.3-0.1c-0.4,0-1,0.3-1.6,0.8C96.2,19.4,95.5,20.2,94.7,21.2L94.7,21.2z
		 M90.2,16.1c-1.1,0.3-2.2,0.5-3.3,0.6c-1.1,0.1-2,0.2-2.8,0.2c-0.2,0-0.3,0-0.4-0.1c-0.1,0-0.2-0.1-0.2-0.2c0-0.2,0.8-0.3,2.5-0.5
		c1.7-0.2,3.3-0.5,4.9-1c2.5-3.4,4.8-6,6.8-7.7c2-1.7,3.7-2.6,5.1-2.6c0.5,0,0.9,0.1,1.1,0.3c0.3,0.2,0.4,0.6,0.4,1
		c0,1.3-1.1,2.9-3.2,4.6c-2.1,1.7-4.9,3.2-8.3,4.4c-1.9,3-4,5.2-6.3,6.8c-2.3,1.6-4.8,2.3-7.3,2.3c-1.5,0-2.7-0.3-3.6-0.8
		c-0.8-0.5-1.3-1.3-1.3-2.2c0-0.5,0.2-0.9,0.5-1.3c0.3-0.3,0.7-0.5,1.2-0.5c0.4,0,0.7,0.1,0.9,0.3c0.2,0.2,0.3,0.5,0.3,0.8
		c0,0.3-0.1,0.6-0.3,0.7c-0.2,0.2-0.5,0.3-0.9,0.3c-0.1,0-0.2,0-0.4-0.1s-0.3-0.1-0.4-0.1c0,0-0.1,0-0.1,0.1c0,0,0,0.1,0,0.2
		c0,0.5,0.4,1,1.1,1.4c0.7,0.4,1.7,0.6,2.8,0.6c0.8,0,1.6-0.1,2.4-0.3c0.8-0.2,1.5-0.5,2.2-0.9c0.8-0.5,1.7-1.2,2.7-2.1
		C87.3,19.6,88.6,18.1,90.2,16.1L90.2,16.1z"/>
</g>
</svg>
