<?xml version="1.0" encoding="utf-8"?>
<!-- Generator: Adobe Illustrator 27.5.0, SVG Export Plug-In . SVG Version: 6.00 Build 0)  -->
<svg version="1.1" id="Layer_1" xmlns:xodm="http://www.corel.com/coreldraw/odm/2003"
	 xmlns="http://www.w3.org/2000/svg" xmlns:xlink="http://www.w3.org/1999/xlink" x="0px" y="0px" viewBox="0 0 86.7 26.9"
	 style="enable-background:new 0 0 86.7 26.9;" xml:space="preserve">
<style type="text/css">
	.st0{fill:#ED3F23;}
	.st1{fill:#A48B50;}
</style>
<g id="Layer_x0020_1">
	<path class="st0" d="M1.2,26.8v-8.1H0v8.1H1.2z M13.2,23.4l-0.9-4.7h-1.2l-0.9,4.7l-1-4.7H8l1.7,8l0,0.1l1.2,0l0.8-4.5l0.8,4.5
		l1.2,0l1.7-8.1h-1.3L13.2,23.4L13.2,23.4z M17.9,18.7L16,26.8h1.3l0.4-1.6h1.7l0.4,1.6H21l-1.9-8.1L17.9,18.7L17.9,18.7z M19,23.9
		h-1.1l0.6-2.3C18.5,21.6,19,23.9,19,23.9z M24,21.4l-1.3-2.7h-1.4l2,4.2v3.9h1.3v-3.9l2.1-4.2h-1.4L24,21.4L24,21.4z M28.8,18.7
		l-1.9,8.1h1.3l0.4-1.6h1.7l0.4,1.6h1.3L30,18.7L28.8,18.7L28.8,18.7z M30,23.9h-1.1l0.6-2.3C29.4,21.6,30,23.9,30,23.9z M36.9,18.7
		l0,5l-2-4.9l0,0h-1.2v8.1h1.2v-4.9l2,4.8l0,0h1.3l0-8.1L36.9,18.7L36.9,18.7z M46.8,18.7l-1.9,8.1h1.3l0.4-1.6h1.7l0.4,1.6h1.3
		l-1.9-8.1L46.8,18.7L46.8,18.7z M47.9,23.9h-1.1l0.6-2.3C47.3,21.6,47.9,23.9,47.9,23.9z M54.8,18.7l0,5l-2-4.9l0,0h-1.2v8.1h1.2
		v-4.9l2,4.8l0,0H56l0-8.1L54.8,18.7L54.8,18.7z M61.1,24.5c0,0.6-0.4,1.1-0.9,1.1c-0.5,0-0.9-0.5-0.9-1.1v-5.8H58v5.8
		c0,1.3,1,2.3,2.1,2.3c1.2,0,2.1-1,2.1-2.3v-5.8h-1.2V24.5z M67.4,23.7c0,0.3,0,0.7-0.1,1.1c-0.1,0.3-0.2,0.6-0.4,0.7
		c-0.2,0.1-0.3,0.1-0.6,0.1c-0.4-0.1-1-0.6-1-2.9v0c0-1.7,0.4-2.7,1.1-2.8c0.5-0.1,1,0.3,1,0.3l0,0l0.9-0.9l0,0c0,0-1-0.9-2.1-0.7
		c-0.4,0.1-1,0.4-1.5,1.1c-0.4,0.7-0.6,1.7-0.6,2.9v0.1l0,0c0,1.2,0.2,2.2,0.5,2.9c0.4,0.8,1,1.1,1.4,1.2c0.2,0,0.3,0.1,0.5,0.1
		c0.4,0,0.7-0.1,1-0.3c0.5-0.3,0.8-0.9,0.9-1.6c0.1-0.5,0.1-0.9,0.1-1.3h0.4v-1.2h-2.5v1.2L67.4,23.7L67.4,23.7z M73.2,23.7
		C73.2,23.7,73.3,23.7,73.2,23.7c0.3-0.2,0.6-0.3,0.7-0.6c0.3-0.4,0.5-1,0.5-1.6c0-1-0.2-1.8-0.7-2.4c-0.4-0.4-1-0.7-1.7-0.7
		c-0.2,0-0.5,0-0.5,0l-0.6,0l0,8.2h1.2l0-2.5c0.3,0.4,0.9,1.6,1.3,2.4l0,0.1h1.4L73.2,23.7C73.2,23.7,73.2,23.7,73.2,23.7L73.2,23.7
		z M73.2,21.6c0,0.5-0.2,0.9-0.6,1.1c-0.2,0.1-0.4,0.1-0.5,0.2v-3.1c0.3,0,0.5,0.1,0.7,0.3C73,20.4,73.2,20.9,73.2,21.6L73.2,21.6z
		 M78,18.7L76,26.8h1.3l0.4-1.6h1.7l0.4,1.6h1.3l-1.9-8.1L78,18.7L78,18.7z M79.1,23.9H78l0.6-2.3C78.6,21.6,79.1,23.9,79.1,23.9z
		 M85.4,18.7l0,3.5h-1.5l0-3.5l-1.2,0l0,8.1h1.2l0-3.4h1.5l0,3.4h1.2l0-8.1L85.4,18.7L85.4,18.7z"/>
	<path class="st1" d="M56.2,12.6c-0.5-0.1-0.9-0.2-1.4-0.3c-0.4-0.1-0.7-0.5-0.8-0.9c-0.3-1-0.6-1-1.5-0.6c-0.5,0.2-1,0.4-1.4,0.7
		c-0.3,0.2-0.6,0.1-0.9-0.1C50,11.2,49.9,11,49.6,11c-0.2,0-0.4,0.2-0.5,0.4c-0.6,0.6-1.4,0.8-2.1,1.1c-0.4,0.1-0.7-0.1-0.9-0.4
		c-0.1-0.2-0.1-0.3-0.2-0.5c-0.1-0.2-0.3-0.2-0.5-0.1c-0.1,0.1-0.2,0.2-0.3,0.3c-0.5,0.5-1.2,0.7-1.9,0.9c-0.4,0.1-0.8,0.2-1.2,0.2
		c-0.4,0-0.6-0.2-0.6-0.6c0-0.3,0-0.6,0.1-0.9c0.3-0.6,0.7-1.1,1.2-1.5c0.1-0.1,0.1-0.2,0-0.3c-0.1-0.1-0.2-0.1-0.3-0.1
		c-0.2,0.1-0.4,0.3-0.6,0.4c-0.6,0.6-1.3,1.1-1.8,1.8c-0.5,0.6-1.2,0.9-1.8,1.3c-0.7,0.3-1.1,0.2-1.5-0.5c-0.2-0.3-0.2-0.7-0.1-1.1
		c0.1-0.4,0.4-0.8,0.6-1.2c0.1-0.2,0-0.4-0.2-0.5c-0.5-0.3-1-0.1-1.3,0.2c-0.3,0.2-0.5,0.5-0.7,0.8c-0.6,1-1.6,1.7-2.5,2.5
		c-1.2,1.1-2.2,2.3-2.8,3.9c-0.5,1.5-1.2,2.9-2.2,4.1c-0.3,0.3-0.5,0.6-0.9,0.7c-0.4,0.1-0.8,0.1-1.2-0.2c-0.3-0.4-0.4-0.8-0.2-1.2
		c0.5-1.2,1.1-2.3,2.3-2.9c0.1-0.1,0.3-0.2,0.4-0.4c0.5-0.6,1-1.2,1.5-1.8c0.3-0.3,0.4-0.8,0.6-1.1c0.4-0.9,0.4-0.9-0.5-1
		c-0.5-0.1-0.7-0.3-0.7-0.9c0-0.3,0-0.5,0-0.8c0-0.1-0.2-0.2-0.3-0.2c-0.4,0.3-0.7,0.6-1.1,0.9c-0.6,0.4-0.8,0.3-1.2-0.2
		c-0.1-0.1-0.2-0.3-0.3-0.5c-0.1-0.1-0.2-0.2-0.4-0.1c-0.1,0.1-0.2,0.2-0.3,0.3c-0.5,0.5-1.2,0.7-1.9,0.9c-0.6,0.2-1-0.1-1.2-0.9
		c0-0.2-0.1-0.4-0.3-0.4c-0.2,0-0.3,0.1-0.4,0.3c-0.2,0.2-0.4,0.4-0.6,0.6c-0.5,0.4-0.9,0.7-1.5,0.9c-0.5,0.1-0.8-0.1-0.9-0.6
		c-0.1-0.4-0.1-0.8,0.2-1.2c0-0.1,0.1-0.1,0.1-0.2c0.1-0.3,0.5-0.6,0.1-0.9c-0.3-0.2-0.6,0-0.8,0.2c-0.7,0.6-1.4,1.1-2.1,1.6
		c-0.2,0.2-0.5,0.3-0.7,0.4c-0.2,0.1-0.4,0.1-0.6,0c-0.2-0.1-0.3-0.4-0.2-0.6c0-0.1,0.1-0.2,0.1-0.3c0.5-0.7,0.7-1.6,1.3-2.2
		c0,0,0.1-0.1,0.1-0.2c0.1-0.2-0.1-0.5-0.3-0.4C15.3,9,15,9,14.9,9.1c-0.8,0.4-1.6,0.6-2.4,0.8c-0.6,0.2-1,0.4-1.2,1.1
		c-0.1,0.5-0.4,0.9-0.6,1.4c-0.2,0.5-0.4,1.1-0.5,1.7c0,0.7-0.4,0.9-1,0.7c-0.4-0.1-0.7-0.4-0.8-0.8c-0.1-0.3-0.1-0.6,0.1-0.8
		C8.7,13,9,12.7,9.2,12.5c0.1-0.2,0.3-0.3,0.4-0.5c0.1-0.4,0.5-0.8,0.3-1.1c-0.3-0.4-0.7,0-1.1,0c-0.3,0.1-0.7,0.2-1,0.3
		c-0.2,0.1-0.4,0-0.5-0.2c-0.1-0.2-0.1-0.5,0.2-0.7c0.7-0.4,1.4-0.8,2.2-1c0.4-0.1,0.8-0.2,1.2-0.2c0.5,0,0.8-0.3,0.9-0.8
		C12,7.9,12.3,7.4,12.4,7c0.5-1.4,1.3-2.5,1.8-3.9c0.2-0.4,0.4-0.9,0.7-1.2c0.2-0.3,0.1-0.5-0.2-0.7c-0.5-0.3-1-0.2-1.4,0.2
		c-0.7,0.8-1.5,1.4-2.1,2.2c-0.2,0.3-0.6,0.6-0.9,0.9C9.4,5.4,8.6,6.2,7.8,7C7.6,7.2,7.4,7.4,7.3,7.7c-0.6,1.1-1.3,2-2,3
		C5,11,4.7,11.3,4.5,11.8c-0.2,0.5-0.6,0.9-1.1,1.2c-0.4,0.3-0.7,0.5-1,0.9c-0.3,0.4-0.6,0.5-0.9,0.4c-0.2-0.1-0.2-0.5,0-1
		c0.2-0.4,0.4-0.7,0.9-0.9c0.8-0.3,1.3-1,1.8-1.6c0.2-0.2,0.4-0.5,0.6-0.8c0.7-0.9,1.3-1.9,2-2.8C6.9,7,7,6.8,7.1,6.7
		c0.7-0.5,1.2-1.3,1.8-1.8c0.8-0.7,1.5-1.5,2.2-2.3c0.6-0.7,1.3-1.4,1.9-2c0.2-0.2,0.5-0.3,0.7-0.5C14,0,14.3,0,14.6,0.1
		c0.3,0.2,0.6,0.3,1,0.4c0.5,0.1,0.7,0.6,0.4,1c-0.8,1.2-1.4,2.5-2,3.7c-0.3,0.5-0.6,1.1-0.8,1.6c-0.2,0.4-0.4,0.9-0.6,1.3
		c-0.1,0.2-0.2,0.3,0,0.5c0.1,0.2,0.3,0.2,0.5,0.1c0.5-0.1,1-0.3,1.5-0.4c0.6-0.1,1.2-0.3,1.7-0.4c0.5-0.1,0.7,0.2,0.7,0.7
		c0,0.3-0.1,0.6-0.2,0.8c-0.2,0.3-0.4,0.5-0.5,0.8c-0.1,0.2-0.2,0.3,0,0.5c0.2,0.1,0.3,0,0.5-0.1c0.1-0.1,0.3-0.2,0.4-0.3
		c0.6-0.7,1.5-1,2.2-1.4c0.4-0.2,0.8,0.1,0.9,0.6c0,0.4,0,0.8-0.3,1.2c-0.2,0.3-0.3,0.6-0.4,0.9c0,0.1,0,0.2,0.1,0.3
		c0.1,0,0.2,0,0.3,0c0.7-0.5,1.3-0.9,1.8-1.6c0.3-0.5,0.8-1,1.2-1.4c0.1-0.1,0.3-0.2,0.5,0c0.2,0.1,0.2,0.3,0.3,0.5
		c0,0.3-0.1,0.5-0.2,0.7c-0.2,0.4-0.4,0.8-0.4,1.2c0,0.3,0.2,0.5,0.5,0.4c1.2-0.3,2.2-1,2.8-2.1c0.2-0.3,0.4-0.6,0.6-0.9
		c0.1-0.2,0.3-0.2,0.6-0.1c0.2,0.1,0.3,0.4,0.2,0.7c-0.2,0.5-0.4,0.9-0.6,1.4c-0.1,0.1-0.1,0.3-0.1,0.4c0,0.2,0.2,0.3,0.4,0.3
		c0.1,0,0.2-0.1,0.3-0.2c0.8-0.6,1.6-1.3,2.4-2c0.4-0.4,0.9-0.7,1.3-1.1c0.3-0.2,0.6-0.3,0.8,0c0.2,0.2,0.4,0.1,0.6,0.1
		c0.3,0,0.6,0.2,0.5,0.5c-0.4,1.1-0.6,2.2-1.3,3.1c-0.2,0.2-0.3,0.4-0.4,0.6c-0.1,0.2-0.1,0.4,0,0.5c0.1,0.1,0.3,0.1,0.4,0
		c0,0,0.1,0,0.1-0.1c0.7-0.8,1.6-1.4,2.2-2.3c0.2-0.3,0.4-0.5,0.6-0.7c0.3-0.4,0.6-0.7,0.5-1.4c-0.1-0.6,0.2-1.1,0.5-1.5
		c0.3-0.3,0.6-0.7,0.8-1c0.1-0.1,0.3-0.2,0.4-0.3c0.2-0.1,0.3-0.1,0.5,0.1s0.2,0.3,0.1,0.5c-0.3,0.5-0.4,1.1-0.8,1.5
		c-0.1,0.1-0.2,0.2-0.2,0.4c-0.1,0.2,0,0.3,0.1,0.4c0.3,0.2,0.6,0.3,1,0.3c0.2,0,0.4,0,0.6,0.1c0.3,0.1,0.4,0.5,0.2,0.7
		c-0.3,0.3-0.6,0.6-0.8,1.1c-0.1,0.2-0.2,0.3-0.2,0.5c-0.1,0.2-0.1,0.4,0.1,0.5c0.2,0.2,0.3,0.1,0.5,0c0.4-0.3,0.8-0.6,1.3-1
		c0.8-0.6,1.6-1.3,2.4-1.9c0.3-0.2,0.7-0.5,1-0.4c0.6,0,1-0.1,1.4-0.5c0.4-0.3,0.8-0.3,1.2,0c0.3,0.2,0.3,0.5,0,0.7
		c-0.6,0.5-1.3,0.9-1.9,1.3c-0.4,0.3-0.8,0.6-1,1.1c0,0.1-0.1,0.2,0,0.3c0,0.1,0.2,0.1,0.3,0.1c0.7-0.1,1.4-0.3,1.9-0.8
		c0.2-0.2,0.3-0.4,0.6-0.5c0.4-0.3,0.7-0.6,0.7-1.2c0-0.2,0.2-0.4,0.4-0.4c0.3,0,0.4,0.2,0.5,0.5c0.1,0.4-0.1,0.8-0.1,1.2
		c-0.1,0.3-0.2,0.6,0.1,0.8c0.2,0.2,0.5,0,0.7-0.1c0.6-0.3,1.2-0.7,1.8-1.1c0.5-0.4,0.8-0.9,0.8-1.6c0.1-1.6,0.6-3,1.5-4.3
		c0.5-0.7,1.2-1.2,2.1-1.3c0.5-0.1,0.9,0.1,1,0.9c0,0.1,0,0.2,0,0.3c-0.1,0.6-0.3,1.2-0.4,1.8c-0.4,1.4-1.3,2.2-2.4,2.9
		c-0.3,0.2-0.7,0.4-1,0.8c-0.1,0.2-0.1,0.4,0,0.5c0.1,0.2,0.3,0.2,0.5,0.1c0.4-0.2,0.9-0.4,1.3-0.6c0.2-0.1,0.5-0.2,0.7-0.2
		c0.5-0.1,0.8,0.1,1.1,0.5c0.2,0.3,0.3,0.6,0.4,0.9c0.2,0.3,0.4,0.5,0.7,0.6c0.6,0.1,1.1,0,1.7,0c0.5-0.1,1-0.2,1.5-0.3
		c0.2,0,0.4-0.1,0.6-0.3c0.4-0.3,0.9-0.2,1.3-0.2c0.1,0,0.2,0.1,0.3,0.2c0.2,0.3,0.1,0.7-0.2,0.8c-1.3,0.2-2.6,0.7-4,0.8
		C56.5,12.5,56.4,12.6,56.2,12.6L56.2,12.6L56.2,12.6L56.2,12.6z M51.4,8.4c0.1-0.1,0.2-0.1,0.3-0.2c0.4-0.4,0.8-0.7,1.1-1.1
		c0.2-0.2,0.4-0.4,0.5-0.7c0.2-0.7,0.4-1.3,0.5-2c0-0.1-0.1-0.2-0.1-0.3c-0.1-0.1-0.2-0.1-0.3,0c-0.1,0-0.1,0.1-0.2,0.1
		c-1.2,1-1.8,2.4-2.1,3.9c0,0.1,0,0.1,0.1,0.2C51.2,8.3,51.3,8.3,51.4,8.4L51.4,8.4L51.4,8.4L51.4,8.4z M32.2,9.3
		c0-0.3-0.3-0.4-0.5-0.3c-0.7,0.4-1.1,1.1-1.5,1.7c-0.2,0.3-0.3,0.7-0.5,1.1c-0.1,0.1,0,0.3,0.1,0.4c0.1,0.1,0.3,0.1,0.4,0
		c0.3-0.1,0.5-0.4,0.7-0.6c0.5-0.7,0.9-1.4,1.2-2.2C32.2,9.5,32.2,9.3,32.2,9.3L32.2,9.3L32.2,9.3L32.2,9.3z M28.2,18.6
		c0-0.1-0.1-0.2-0.2-0.2c-0.1,0-0.3,0-0.4,0.1c-0.7,0.6-1.1,1.4-1.5,2.2c0,0,0,0.1,0,0.1c0,0.1,0,0.2,0.1,0.3c0.1,0.1,0.2,0.1,0.3,0
		c0.1-0.1,0.2-0.1,0.3-0.2c0.6-0.6,1-1.4,1.4-2.2C28.2,18.7,28.2,18.6,28.2,18.6L28.2,18.6L28.2,18.6z"/>
</g>
</svg>
