<?xml version="1.0" encoding="utf-8"?>
<!-- Generator: Adobe Illustrator 27.5.0, SVG Export Plug-In . SVG Version: 6.00 Build 0)  -->
<svg version="1.1" id="Layer_1" xmlns:xodm="http://www.corel.com/coreldraw/odm/2003"
	 xmlns="http://www.w3.org/2000/svg" xmlns:xlink="http://www.w3.org/1999/xlink" x="0px" y="0px" viewBox="0 0 134.6 31.7"
	 style="enable-background:new 0 0 134.6 31.7;" xml:space="preserve">
<style type="text/css">
	.st0{fill:#371810;}
	.st1{fill:#A48B50;}
</style>
<g id="Layer_x0020_1">
	<g id="_105553320488832">
		<path class="st0" d="M9.4,9.1L7.9,1H6.4L4.5,11L2.4,1H1l2.8,13.7l1.5,0l1.8-9.9L9,14.6l1.5,0L13.3,1h-1.4L9.8,11L9.4,9.1L9.4,9.1z
			 M8.6,0.5l1.2,6.4l1.4-6.8h3.1l-3.2,15.3l-2.8,0L7.1,9.1L6,15.4l-2.8,0C2.1,10.3,1.1,5.2,0,0.2h3.1l1.4,6.8l1.3-6.7h2.8L8.6,0.5
			L8.6,0.5z M28.8,8.5h1.6V7.1h-2l0-4.8l3.5,0l0-1.4L27,1l0,13.6l5.1,0l0-1.4l-3.6,0l0-4.7L28.8,8.5L28.8,8.5z M30.8,9.3h-1.6l0,3.1
			l3.6,0l0,3l-6.6,0c0-5.1,0-10.1,0-15.2l6.5,0l0,3l-3.5,0l0,3.2h2v3C31.2,9.3,30.8,9.3,30.8,9.3z M50.6,2c-0.6-0.5-1.3-0.8-1.9-1
			c-0.6-0.2-1.1-0.2-1.4-0.2c-0.5,0-1,0-1.5,0l0,13.8c0.6,0,1.2,0,1.8,0c0.7,0,1.3-0.1,1.8-0.3c0.5-0.2,1-0.5,1.5-0.9
			c0.6-0.6,1-1.3,1.3-2.3c0.3-1,0.5-2.1,0.5-3.4c0-1.3-0.2-2.4-0.5-3.4C51.8,3.3,51.3,2.6,50.6,2L50.6,2z M48.9,0.2
			c0.7,0.2,1.5,0.5,2.2,1.1c0.8,0.7,1.4,1.5,1.8,2.6c0.4,1,0.6,2.3,0.6,3.6c0,1.4-0.2,2.6-0.5,3.7c-0.3,1.1-0.9,1.9-1.5,2.6
			c-0.5,0.5-1.1,0.9-1.7,1.1c-0.6,0.3-1.4,0.4-2.1,0.4c-0.9,0-1.7,0-2.6,0c0-5.1,0-10.2,0-15.3c0.8,0,1.6,0,2.3-0.1
			C47.7,0,48.2,0,48.9,0.2L48.9,0.2z M51.3,7.6c0,1.1-0.1,2-0.3,2.8c-0.2,0.8-0.6,1.5-1,1.9c-0.3,0.3-0.6,0.5-1,0.7
			c-0.4,0.1-0.8,0.2-1.3,0.2h-0.4l0-11l0.4,0c0.2,0,0.6,0.1,0.9,0.2c0.4,0.1,0.7,0.3,1.1,0.6c0.5,0.5,1,1.1,1.2,1.9
			C51.2,5.7,51.3,6.6,51.3,7.6L51.3,7.6z M50.2,10.2c0.2-0.7,0.3-1.6,0.3-2.6c0-1-0.1-1.8-0.3-2.4c-0.2-0.6-0.6-1.1-1-1.5
			c-0.3-0.2-0.6-0.4-0.9-0.5c-0.1,0-0.2-0.1-0.3-0.1l0,9.3c0.2,0,0.4-0.1,0.6-0.1c0.3-0.1,0.5-0.3,0.7-0.5
			C49.7,11.4,50,10.9,50.2,10.2L50.2,10.2z M71.5,2c-0.6-0.5-1.3-0.8-1.9-1c-0.6-0.2-1.1-0.2-1.4-0.2c-0.5,0-1,0-1.5,0l0,13.8
			c0.6,0,1.2,0,1.8,0c0.7,0,1.3-0.1,1.8-0.3c0.5-0.2,1-0.5,1.5-0.9c0.6-0.6,1-1.3,1.3-2.3c0.3-1,0.5-2.1,0.5-3.4
			c0-1.3-0.2-2.4-0.5-3.4C72.7,3.3,72.2,2.6,71.5,2L71.5,2z M69.8,0.2c0.7,0.2,1.5,0.5,2.2,1.1c0.8,0.7,1.4,1.5,1.8,2.6
			c0.4,1,0.6,2.3,0.6,3.6c0,1.4-0.2,2.6-0.5,3.7c-0.3,1.1-0.9,1.9-1.5,2.6c-0.5,0.5-1.1,0.9-1.7,1.1c-0.6,0.3-1.4,0.4-2.1,0.4
			c-0.9,0-1.7,0-2.6,0c0-5.1,0-10.2,0-15.3c0.8,0,1.6,0,2.3-0.1C68.5,0,69.1,0,69.8,0.2L69.8,0.2z M72.2,7.6c0,1.1-0.1,2-0.3,2.8
			c-0.2,0.8-0.6,1.5-1,1.9c-0.3,0.3-0.6,0.5-1,0.7c-0.4,0.1-0.8,0.2-1.3,0.2h-0.4l0-11l0.4,0c0.2,0,0.6,0.1,0.9,0.2
			c0.4,0.1,0.7,0.3,1.1,0.6c0.5,0.5,1,1.1,1.2,1.9C72.1,5.7,72.2,6.6,72.2,7.6L72.2,7.6z M71.1,10.2c0.2-0.7,0.3-1.6,0.3-2.6
			c0-1-0.1-1.8-0.3-2.4c-0.2-0.6-0.6-1.1-1-1.5c-0.3-0.2-0.6-0.4-0.9-0.5c-0.1,0-0.2-0.1-0.3-0.1l0,9.3c0.2,0,0.4-0.1,0.6-0.1
			c0.3-0.1,0.5-0.3,0.7-0.5C70.6,11.4,70.9,10.9,71.1,10.2L71.1,10.2z M89,14.6V1h-1.4v13.6H89z M89.8,0.6v14.8h-3V0.2h3
			C89.8,0.2,89.8,0.6,89.8,0.6z M109.2,1l0,10.5L104.9,1h-1.6v13.6h1.4V4.3l4.2,10.3h1.6l0-13.7L109.2,1L109.2,1z M108.4,7.4l0-7.2
			l3,0c0,5.1,0,10.2,0,15.3h-3c-1-2.4-1.9-4.7-2.9-7.1v7.1h-3V0.2h2.9C106.4,2.6,107.4,5,108.4,7.4L108.4,7.4z M130.5,9.6
			c0,0.3,0,0.6,0,0.9c0,0.3-0.1,0.7-0.1,1c-0.1,0.3-0.2,0.7-0.3,0.9c-0.2,0.3-0.3,0.5-0.6,0.7c-0.2,0.1-0.4,0.2-0.6,0.2
			c-0.2,0-0.5,0-0.7,0c-0.4-0.1-1-0.4-1.4-1.3c-0.4-0.8-0.7-2.1-0.7-4.2V7.7c0-1.5,0.2-2.8,0.6-3.7c0.4-1,1-1.6,1.8-1.8
			c0.8-0.2,1.6,0.3,1.9,0.6l1-1c-0.2-0.1-0.5-0.4-0.8-0.6c-0.6-0.3-1.5-0.6-2.4-0.4c-0.4,0.1-0.9,0.3-1.4,0.6
			c-0.4,0.3-0.7,0.7-1.1,1.2c-0.3,0.6-0.6,1.3-0.8,2.1c-0.2,0.8-0.3,1.8-0.3,2.9v0.1c0,1.1,0.1,2,0.2,2.9c0.1,0.8,0.4,1.5,0.7,2.1
			c0.3,0.6,0.6,1,1,1.3c0.5,0.4,0.9,0.5,1.3,0.6c0.1,0,0.3,0.1,0.4,0.1c0.1,0,0.3,0,0.4,0c0.3,0,0.6,0,0.9-0.1
			c0.3-0.1,0.5-0.2,0.8-0.4c0.4-0.3,0.7-0.6,0.9-1c0.3-0.4,0.4-0.9,0.5-1.5c0.1-0.4,0.1-0.8,0.1-1.2c0-0.4,0-0.7,0-1l0-0.4h0.7V7.8
			h-3.6v1.4h1.4L130.5,9.6L130.5,9.6z M129.7,10.5c0-0.2,0-0.3,0-0.5h-1.5V7h5.2v3h-0.7c0,0.2,0,0.5,0,0.7c0,0.4-0.1,0.8-0.1,1.3
			c-0.1,0.7-0.3,1.2-0.6,1.8c-0.3,0.5-0.7,1-1.2,1.3c-0.3,0.2-0.6,0.4-1,0.5c-0.4,0.1-0.7,0.2-1.1,0.2c-0.2,0-0.3,0-0.5,0
			c-0.2,0-0.3,0-0.5-0.1c-0.5-0.1-1.1-0.3-1.7-0.8c-0.4-0.3-0.8-0.8-1.2-1.5c-0.3-0.6-0.6-1.4-0.7-2.3c-0.2-0.9-0.2-1.9-0.2-3l0-0.1
			c0-1.1,0.1-2.2,0.3-3.1c0.2-0.9,0.5-1.7,0.9-2.4c0.4-0.7,0.8-1.1,1.3-1.5c0.6-0.5,1.2-0.7,1.7-0.8c1.2-0.2,2.2,0.1,2.9,0.5
			c0.7,0.4,1.2,0.8,1.2,0.9l0.4,0.4l-2.2,2.1L130,3.6c-0.1-0.1-0.7-0.7-1.4-0.5c-0.5,0.1-0.9,0.5-1.2,1.3c-0.3,0.8-0.5,2-0.5,3.4
			l0,0.1c0,2,0.3,3.2,0.6,3.9c0.3,0.6,0.6,0.8,0.9,0.9c0.2,0,0.3,0,0.5,0c0.1,0,0.2,0,0.3-0.1c0.1-0.1,0.2-0.2,0.3-0.4
			c0.1-0.2,0.2-0.4,0.2-0.7C129.7,11.1,129.7,10.8,129.7,10.5L129.7,10.5z"/>
	</g>
	<path class="st1" d="M104.4,15c1.4-0.3,2.9-0.8,4.3-1.4c1.4-0.7,2.8-1.5,4-2.5c1.3-1,2.4-2,3.2-3c0.8-1,1.3-1.7,1.3-2
		c0-0.2-0.1-0.3-0.2-0.4c-0.1-0.1-0.4-0.2-0.6-0.2c-1.3,0-3.1,0.9-5.4,2.7C108.7,9.9,106.5,12.2,104.4,15L104.4,15z M127.2,18.9
		c-0.5,0.3-0.9,0.7-1.5,1.2c0,0,0,0.1,0,0.1c0,0.2-0.2,0.4-0.5,0.8c-0.4,0.4-0.8,0.7-1.4,1.2c-0.8,0.6-1.6,1-2.3,1.3
		c-0.7,0.3-1.4,0.4-2.1,0.4H119l-5.5,7.5c-0.1,0.1-0.2,0.2-0.3,0.3c-0.1,0.1-0.2,0.1-0.3,0.1h-0.6c-0.1,0-0.2,0-0.3-0.1
		c-0.1-0.1-0.1-0.1-0.1-0.2c0,0,0-0.1,0-0.1s0-0.1,0.1-0.1l5.8-7.8c-0.1-0.1-0.1-0.3-0.2-0.4c0-0.1-0.1-0.2-0.1-0.3
		c0-0.2,0.1-0.4,0.2-0.5c0.1-0.1,0.3-0.2,0.5-0.2c0.1,0,0.2,0,0.3,0c0.1,0,0.2,0.1,0.2,0.1l2.3-3.2c-0.5,0.4-1.1,0.9-1.7,1.4
		l-0.1,0.1c0,0,0,0,0,0c0,0,0.1,0.1,0.1,0.1c0,0.2-0.4,0.6-1.2,1.2l-0.3,0.2c-0.9,0.7-1.7,1.3-2.6,1.7c-0.8,0.4-1.5,0.6-2,0.6
		c-0.4,0-0.7-0.1-0.9-0.3c-0.2-0.2-0.4-0.5-0.4-0.8c0-0.4,0.2-1,0.7-1.6c0.4-0.6,1.1-1.3,2-2.2c-0.5,0.3-1,0.6-1.4,1
		c-0.5,0.4-0.8,0.6-0.8,0.6c-0.1,0-0.1,0-0.1-0.1c0,0-0.1-0.1-0.1-0.1c0-0.1,0.2-0.3,0.5-0.6l0,0l0.8-0.6c1-0.7,1.8-1.3,2.4-1.7
		c0.6-0.4,1.1-0.6,1.4-0.6c0.4,0,0.7,0,0.9,0.1c0.2,0,0.4,0.1,0.4,0.2c0,0.1-0.3,0.4-1,1c-0.7,0.6-1.4,1.2-2,1.8
		c-0.8,0.7-1.3,1.4-1.7,1.9c-0.4,0.5-0.6,0.8-0.6,1c0,0.1,0,0.2,0.1,0.3c0.1,0.1,0.2,0.1,0.3,0.1c0.4,0,0.9-0.2,1.6-0.5
		c0.7-0.4,1.5-0.9,2.3-1.5c0.2-0.2,0.5-0.4,0.8-0.6c0,0,0,0-0.1-0.1c0,0,0-0.1,0-0.2c0-0.2,1-1.1,3.1-2.7l1-0.8
		c2.5-3.4,4.8-6,6.9-7.9c2-1.9,3.6-2.9,4.6-2.9c0.3,0,0.5,0.1,0.7,0.2c0.2,0.2,0.3,0.4,0.3,0.7c0,0.8-0.7,1.8-2.2,3.1
		c-1.5,1.3-4,3.1-7.5,5.4l-4.9,6.6c0.2,0,0.3,0.1,0.4,0.1c0.1,0,0.3,0,0.4,0c0.5,0,0.9-0.1,1.4-0.3c0.5-0.2,1.1-0.5,1.7-1
		c0.2-0.1,0.3-0.2,0.5-0.4c0,0,0,0-0.1-0.1c0,0,0-0.1,0-0.2c0-0.2,1-1.1,3.1-2.7l1-0.8l1.1-1.3h-2.3l0.4-0.4h2.3l2.4-3
		c0.1-0.1,0.2-0.2,0.3-0.2c0.1,0,0.2-0.1,0.4-0.1c0.3,0,0.5,0,0.7,0.1s0.3,0.2,0.3,0.3c0,0.1,0,0.1,0,0.2c0,0-0.1,0.1-0.1,0.2
		l-2.2,2.6h2.6l-0.4,0.4h-2.5l-3,3.5c-0.7,0.8-1.2,1.5-1.6,2.1c-0.3,0.6-0.5,1-0.5,1.4c0,0.2,0,0.3,0.1,0.4c0.1,0.1,0.2,0.1,0.3,0.1
		c0.4,0,1-0.2,1.7-0.5c0.7-0.4,1.5-0.9,2.4-1.5c0.3-0.2,0.7-0.5,1-0.9s0.6-0.5,0.7-0.5c0.1,0,0.1,0,0.1,0.1c0,0,0.1,0.1,0.1,0.2
		c0,0.1-0.1,0.2-0.3,0.4c-0.2,0.2-0.6,0.6-1.3,1.1c-1,0.8-1.8,1.4-2.7,1.8c-0.8,0.4-1.5,0.6-2.1,0.6c-0.4,0-0.7-0.1-0.9-0.3
		c-0.2-0.2-0.3-0.5-0.3-0.9c0-0.6,0.2-1.2,0.5-1.9C125.9,20.6,126.4,19.8,127.2,18.9L127.2,18.9z M126.2,14.3
		c2.4-1.4,4.3-2.7,5.7-3.9c1.4-1.2,2.1-2,2.1-2.6c0-0.2,0-0.3-0.1-0.3c-0.1-0.1-0.2-0.1-0.3-0.1c-0.6,0-1.5,0.5-2.7,1.6
		C129.7,10,128.2,11.8,126.2,14.3L126.2,14.3z M119.7,14c0-0.2,0.1-0.4,0.3-0.6c0.2-0.1,0.4-0.2,0.7-0.2c0.3,0,0.5,0.1,0.7,0.2
		c0.2,0.2,0.3,0.3,0.3,0.6c0,0.3-0.1,0.5-0.3,0.6s-0.4,0.2-0.7,0.2c-0.3,0-0.5-0.1-0.7-0.2C119.8,14.5,119.7,14.3,119.7,14L119.7,14
		z M103,15.3c0.2-1.2,0.8-2.5,2-3.9c1.2-1.4,2.7-2.7,4.6-3.9c1.2-0.8,2.5-1.4,3.7-1.9c1.2-0.5,2.2-0.7,3-0.7c0.5,0,0.9,0.1,1.2,0.4
		c0.3,0.2,0.4,0.6,0.4,1c0,0.6-0.2,1.2-0.7,1.9c-0.5,0.7-1.3,1.4-2.3,2.3c-1.7,1.4-3.5,2.5-5.3,3.4c-1.8,0.9-3.6,1.5-5.5,1.9
		c-0.1,0.3-0.2,0.5-0.2,0.7c0,0.2-0.1,0.3-0.1,0.5c0,0.4,0.1,0.8,0.5,1.1c0.3,0.3,0.7,0.4,1.2,0.4c0.5,0,1.2-0.2,2-0.5
		c0.8-0.4,1.7-0.9,2.6-1.5c0.1-0.1,0.3-0.2,0.5-0.4c1.5-1.1,2.6-1.9,3.2-2.5c0,0,0.1-0.1,0.1-0.1c0.3-0.3,0.5-0.4,0.7-0.4
		c0.1,0,0.1,0,0.2,0c0,0,0.1,0.1,0.1,0.1c0,0.3-0.2,0.6-0.7,1c-0.1,0.1-0.2,0.2-0.3,0.2c-0.5,0.4-1.3,1.3-2.3,2.7
		c-0.3,0.4-0.5,0.7-0.7,0.9c-0.1,0.1-0.2,0.2-0.3,0.4c-1.6,2-3.1,3.4-4.4,4.2c-1.1,0.7-2.3,1.2-3.5,1.5c-1.2,0.3-2.4,0.5-3.8,0.5
		c-1.7,0-3-0.3-3.9-0.8c-0.9-0.5-1.3-1.3-1.3-2.3c0-0.5,0.1-1,0.4-1.3c0.3-0.3,0.7-0.5,1.1-0.5c0.3,0,0.6,0.1,0.8,0.3
		c0.2,0.2,0.3,0.5,0.3,0.8c0,0.3-0.1,0.6-0.3,0.8c-0.2,0.2-0.5,0.3-0.8,0.3c-0.1,0-0.2,0-0.3,0c-0.1,0-0.2,0-0.3,0
		c-0.1,0-0.1,0-0.1,0.1c0,0,0,0.1,0,0.2c0,0.6,0.4,1,1.1,1.4s1.8,0.5,3,0.5c1.8,0,3.4-0.4,5-1.3c1.5-0.9,3.1-2.3,4.6-4.2
		c-0.6,0.3-1.2,0.5-1.7,0.6c-0.5,0.1-0.9,0.2-1.2,0.2c-0.8,0-1.4-0.2-1.9-0.7c-0.4-0.5-0.7-1.2-0.7-2V16c-0.5,0.1-1,0.1-1.6,0.2
		c-0.6,0-1.3,0.1-2,0.1h-1c-0.2,0-0.3,0-0.4-0.1c-0.1-0.1-0.2-0.1-0.2-0.2c0-0.1,0-0.2,0.1-0.2c0.1-0.1,0.2-0.1,0.4-0.1H99
		c0.9,0,1.7,0,2.3-0.1C102,15.5,102.5,15.4,103,15.3L103,15.3z"/>
</g>
</svg>
